%TF.GenerationSoftware,KiCad,Pcbnew,8.0.1*%
%TF.CreationDate,2024-04-29T02:41:37-04:00*%
%TF.ProjectId,ads1220_board,61647331-3232-4305-9f62-6f6172642e6b,rev?*%
%TF.SameCoordinates,Original*%
%TF.FileFunction,Copper,L1,Top*%
%TF.FilePolarity,Positive*%
%FSLAX46Y46*%
G04 Gerber Fmt 4.6, Leading zero omitted, Abs format (unit mm)*
G04 Created by KiCad (PCBNEW 8.0.1) date 2024-04-29 02:41:37*
%MOMM*%
%LPD*%
G01*
G04 APERTURE LIST*
G04 Aperture macros list*
%AMRoundRect*
0 Rectangle with rounded corners*
0 $1 Rounding radius*
0 $2 $3 $4 $5 $6 $7 $8 $9 X,Y pos of 4 corners*
0 Add a 4 corners polygon primitive as box body*
4,1,4,$2,$3,$4,$5,$6,$7,$8,$9,$2,$3,0*
0 Add four circle primitives for the rounded corners*
1,1,$1+$1,$2,$3*
1,1,$1+$1,$4,$5*
1,1,$1+$1,$6,$7*
1,1,$1+$1,$8,$9*
0 Add four rect primitives between the rounded corners*
20,1,$1+$1,$2,$3,$4,$5,0*
20,1,$1+$1,$4,$5,$6,$7,0*
20,1,$1+$1,$6,$7,$8,$9,0*
20,1,$1+$1,$8,$9,$2,$3,0*%
G04 Aperture macros list end*
%TA.AperFunction,SMDPad,CuDef*%
%ADD10RoundRect,0.200000X0.275000X-0.200000X0.275000X0.200000X-0.275000X0.200000X-0.275000X-0.200000X0*%
%TD*%
%TA.AperFunction,SMDPad,CuDef*%
%ADD11RoundRect,0.200000X-0.275000X0.200000X-0.275000X-0.200000X0.275000X-0.200000X0.275000X0.200000X0*%
%TD*%
%TA.AperFunction,SMDPad,CuDef*%
%ADD12RoundRect,0.200000X0.200000X0.275000X-0.200000X0.275000X-0.200000X-0.275000X0.200000X-0.275000X0*%
%TD*%
%TA.AperFunction,SMDPad,CuDef*%
%ADD13RoundRect,0.200000X-0.200000X-0.275000X0.200000X-0.275000X0.200000X0.275000X-0.200000X0.275000X0*%
%TD*%
%TA.AperFunction,ComponentPad*%
%ADD14RoundRect,0.250000X-0.625000X0.350000X-0.625000X-0.350000X0.625000X-0.350000X0.625000X0.350000X0*%
%TD*%
%TA.AperFunction,ComponentPad*%
%ADD15O,1.750000X1.200000*%
%TD*%
%TA.AperFunction,SMDPad,CuDef*%
%ADD16RoundRect,0.140000X-0.170000X0.140000X-0.170000X-0.140000X0.170000X-0.140000X0.170000X0.140000X0*%
%TD*%
%TA.AperFunction,SMDPad,CuDef*%
%ADD17RoundRect,0.140000X0.170000X-0.140000X0.170000X0.140000X-0.170000X0.140000X-0.170000X-0.140000X0*%
%TD*%
%TA.AperFunction,SMDPad,CuDef*%
%ADD18RoundRect,0.140000X-0.140000X-0.170000X0.140000X-0.170000X0.140000X0.170000X-0.140000X0.170000X0*%
%TD*%
%TA.AperFunction,SMDPad,CuDef*%
%ADD19RoundRect,0.150000X0.512500X0.150000X-0.512500X0.150000X-0.512500X-0.150000X0.512500X-0.150000X0*%
%TD*%
%TA.AperFunction,SMDPad,CuDef*%
%ADD20RoundRect,0.100000X0.637500X0.100000X-0.637500X0.100000X-0.637500X-0.100000X0.637500X-0.100000X0*%
%TD*%
%TA.AperFunction,SMDPad,CuDef*%
%ADD21RoundRect,0.112500X0.612500X0.112500X-0.612500X0.112500X-0.612500X-0.112500X0.612500X-0.112500X0*%
%TD*%
%TA.AperFunction,SMDPad,CuDef*%
%ADD22RoundRect,0.150000X-0.512500X-0.150000X0.512500X-0.150000X0.512500X0.150000X-0.512500X0.150000X0*%
%TD*%
%TA.AperFunction,SMDPad,CuDef*%
%ADD23RoundRect,0.135000X0.185000X-0.135000X0.185000X0.135000X-0.185000X0.135000X-0.185000X-0.135000X0*%
%TD*%
%TA.AperFunction,SMDPad,CuDef*%
%ADD24RoundRect,0.135000X0.135000X0.185000X-0.135000X0.185000X-0.135000X-0.185000X0.135000X-0.185000X0*%
%TD*%
%TA.AperFunction,SMDPad,CuDef*%
%ADD25RoundRect,0.135000X-0.135000X-0.185000X0.135000X-0.185000X0.135000X0.185000X-0.135000X0.185000X0*%
%TD*%
%TA.AperFunction,ComponentPad*%
%ADD26RoundRect,0.250000X0.625000X-0.350000X0.625000X0.350000X-0.625000X0.350000X-0.625000X-0.350000X0*%
%TD*%
%TA.AperFunction,SMDPad,CuDef*%
%ADD27RoundRect,0.225000X0.225000X0.250000X-0.225000X0.250000X-0.225000X-0.250000X0.225000X-0.250000X0*%
%TD*%
%TA.AperFunction,SMDPad,CuDef*%
%ADD28RoundRect,0.140000X0.140000X0.170000X-0.140000X0.170000X-0.140000X-0.170000X0.140000X-0.170000X0*%
%TD*%
%TA.AperFunction,ViaPad*%
%ADD29C,0.600000*%
%TD*%
%TA.AperFunction,Conductor*%
%ADD30C,0.200000*%
%TD*%
%TA.AperFunction,Conductor*%
%ADD31C,0.400000*%
%TD*%
%TA.AperFunction,Conductor*%
%ADD32C,0.500000*%
%TD*%
G04 APERTURE END LIST*
D10*
%TO.P,R5,1*%
%TO.N,Net-(U1-FB)*%
X129250000Y-88250000D03*
%TO.P,R5,2*%
%TO.N,GND*%
X129250000Y-86600000D03*
%TD*%
D11*
%TO.P,R4,1*%
%TO.N,+4V*%
X127500000Y-86600000D03*
%TO.P,R4,2*%
%TO.N,Net-(U1-FB)*%
X127500000Y-88250000D03*
%TD*%
D12*
%TO.P,R12,1*%
%TO.N,/~{CS}*%
X118075000Y-77000000D03*
%TO.P,R12,2*%
%TO.N,Net-(J3-Pin_2)*%
X116425000Y-77000000D03*
%TD*%
%TO.P,R11,1*%
%TO.N,/~{DRDY}*%
X118075000Y-79000000D03*
%TO.P,R11,2*%
%TO.N,Net-(J3-Pin_3)*%
X116425000Y-79000000D03*
%TD*%
%TO.P,R10,1*%
%TO.N,/DOUT*%
X118075000Y-81250000D03*
%TO.P,R10,2*%
%TO.N,Net-(J3-Pin_4)*%
X116425000Y-81250000D03*
%TD*%
D13*
%TO.P,R9,1*%
%TO.N,Net-(J3-Pin_5)*%
X116425000Y-83250000D03*
%TO.P,R9,2*%
%TO.N,/DIN*%
X118075000Y-83250000D03*
%TD*%
%TO.P,R8,1*%
%TO.N,Net-(J3-Pin_6)*%
X116425000Y-85000000D03*
%TO.P,R8,2*%
%TO.N,/SCLK*%
X118075000Y-85000000D03*
%TD*%
D14*
%TO.P,J3,1,Pin_1*%
%TO.N,GND*%
X113550000Y-75000000D03*
D15*
%TO.P,J3,2,Pin_2*%
%TO.N,Net-(J3-Pin_2)*%
X113550000Y-77000000D03*
%TO.P,J3,3,Pin_3*%
%TO.N,Net-(J3-Pin_3)*%
X113550000Y-79000000D03*
%TO.P,J3,4,Pin_4*%
%TO.N,Net-(J3-Pin_4)*%
X113550000Y-81000000D03*
%TO.P,J3,5,Pin_5*%
%TO.N,Net-(J3-Pin_5)*%
X113550000Y-83000000D03*
%TO.P,J3,6,Pin_6*%
%TO.N,Net-(J3-Pin_6)*%
X113550000Y-85000000D03*
%TO.P,J3,7,Pin_7*%
%TO.N,+3V3*%
X113550000Y-87000000D03*
%TO.P,J3,8,Pin_8*%
%TO.N,+5V*%
X113550000Y-89000000D03*
%TD*%
D16*
%TO.P,C11,1*%
%TO.N,GND*%
X130750000Y-76770000D03*
%TO.P,C11,2*%
%TO.N,+4V*%
X130750000Y-77730000D03*
%TD*%
D17*
%TO.P,C10,1*%
%TO.N,GND*%
X131250000Y-85480000D03*
%TO.P,C10,2*%
%TO.N,+4V*%
X131250000Y-84520000D03*
%TD*%
D18*
%TO.P,C9,2*%
%TO.N,+4V*%
X120730000Y-79500000D03*
%TO.P,C9,1*%
%TO.N,GND*%
X119770000Y-79500000D03*
%TD*%
D19*
%TO.P,U4,1*%
%TO.N,/INA_REF*%
X134637500Y-78700000D03*
%TO.P,U4,2,V-*%
%TO.N,GND*%
X134637500Y-77750000D03*
%TO.P,U4,3,+*%
%TO.N,Net-(U4-+)*%
X134637500Y-76800000D03*
%TO.P,U4,4,-*%
%TO.N,/INA_REF*%
X132362500Y-76800000D03*
%TO.P,U4,5,V+*%
%TO.N,+4V*%
X132362500Y-78700000D03*
%TD*%
D20*
%TO.P,U3,16,DIN*%
%TO.N,/DIN*%
X122887500Y-82275000D03*
%TO.P,U3,15,DOUT/~{DRDY}*%
%TO.N,/DOUT*%
X122887500Y-81625000D03*
%TO.P,U3,14,~{DRDY}*%
%TO.N,/~{DRDY}*%
X122887500Y-80975000D03*
%TO.P,U3,13,DVDD*%
%TO.N,+4V*%
X122887500Y-80325000D03*
%TO.P,U3,12,AVDD*%
X122887500Y-79675000D03*
%TO.P,U3,11,AIN0/REFP1*%
%TO.N,unconnected-(U3-AIN0{slash}REFP1-Pad11)*%
X122887500Y-79025000D03*
%TO.P,U3,10,AIN1*%
%TO.N,unconnected-(U3-AIN1-Pad10)*%
X122887500Y-78375000D03*
%TO.P,U3,9,REFP0*%
%TO.N,unconnected-(U3-REFP0-Pad9)*%
X122887500Y-77725000D03*
%TO.P,U3,8,REFN0*%
%TO.N,unconnected-(U3-REFN0-Pad8)*%
X128612500Y-77725000D03*
%TO.P,U3,7,AIN2*%
%TO.N,/SIG_AMP+*%
X128612500Y-78375000D03*
%TO.P,U3,6,AIN3/REFN1*%
%TO.N,GND*%
X128612500Y-79025000D03*
%TO.P,U3,5,AVSS*%
X128612500Y-79675000D03*
%TO.P,U3,4,DGND*%
X128612500Y-80325000D03*
%TO.P,U3,3,CLK*%
X128612500Y-80975000D03*
%TO.P,U3,2,~{CS}*%
%TO.N,/~{CS}*%
X128612500Y-81625000D03*
%TO.P,U3,1,SCLK*%
%TO.N,/SCLK*%
X128612500Y-82275000D03*
%TD*%
D21*
%TO.P,U2,1,IN+*%
%TO.N,/SIG_FLTR+*%
X135700000Y-82975000D03*
%TO.P,U2,2,Rg*%
%TO.N,Net-(R13-Pad1)*%
X135700000Y-82325000D03*
%TO.P,U2,3,Rg*%
%TO.N,Net-(R13-Pad2)*%
X135700000Y-81675000D03*
%TO.P,U2,4,IN-*%
%TO.N,/SIG_FLTR-*%
X135700000Y-81025000D03*
%TO.P,U2,5,Vs-*%
%TO.N,GND*%
X131300000Y-81025000D03*
%TO.P,U2,6,REF*%
%TO.N,/INA_REF*%
X131300000Y-81675000D03*
%TO.P,U2,7,Vout*%
%TO.N,/SIG_AMP+*%
X131300000Y-82325000D03*
%TO.P,U2,8,Vs+*%
%TO.N,+4V*%
X131300000Y-82975000D03*
%TD*%
D22*
%TO.P,U1,1,IN*%
%TO.N,+5V*%
X122362500Y-87550000D03*
%TO.P,U1,2,GND*%
%TO.N,GND*%
X122362500Y-88500000D03*
%TO.P,U1,3,EN*%
%TO.N,+5V*%
X122362500Y-89450000D03*
%TO.P,U1,4,BP*%
%TO.N,Net-(U1-BP)*%
X124637500Y-89450000D03*
%TO.P,U1,5,FB*%
%TO.N,Net-(U1-FB)*%
X124637500Y-88500000D03*
%TO.P,U1,6,OUT*%
%TO.N,+4V*%
X124637500Y-87550000D03*
%TD*%
D23*
%TO.P,R13,1*%
%TO.N,Net-(R13-Pad1)*%
X137500000Y-82510000D03*
%TO.P,R13,2*%
%TO.N,Net-(R13-Pad2)*%
X137500000Y-81490000D03*
%TD*%
D24*
%TO.P,R7,1*%
%TO.N,/SIG-*%
X141000000Y-81000000D03*
%TO.P,R7,2*%
%TO.N,/SIG_FLTR-*%
X139980000Y-81000000D03*
%TD*%
D25*
%TO.P,R6,1*%
%TO.N,/SIG_FLTR+*%
X139980000Y-83000000D03*
%TO.P,R6,2*%
%TO.N,/SIG+*%
X141000000Y-83000000D03*
%TD*%
%TO.P,R2,1*%
%TO.N,Net-(U4-+)*%
X136240000Y-76750000D03*
%TO.P,R2,2*%
%TO.N,GND*%
X137260000Y-76750000D03*
%TD*%
D24*
%TO.P,R1,1*%
%TO.N,+4V*%
X137260000Y-77750000D03*
%TO.P,R1,2*%
%TO.N,Net-(U4-+)*%
X136240000Y-77750000D03*
%TD*%
D26*
%TO.P,J2,1,Pin_1*%
%TO.N,GND*%
X144450000Y-85000000D03*
D15*
%TO.P,J2,2,Pin_2*%
%TO.N,/SIG+*%
X144450000Y-83000000D03*
%TO.P,J2,3,Pin_3*%
%TO.N,/SIG-*%
X144450000Y-81000000D03*
%TO.P,J2,4,Pin_4*%
%TO.N,+4V*%
X144450000Y-79000000D03*
%TD*%
D17*
%TO.P,C8,1*%
%TO.N,/SIG_FLTR-*%
X139000000Y-80480000D03*
%TO.P,C8,2*%
%TO.N,GND*%
X139000000Y-79520000D03*
%TD*%
%TO.P,C7,1*%
%TO.N,/SIG_FLTR+*%
X139000000Y-82480000D03*
%TO.P,C7,2*%
%TO.N,/SIG_FLTR-*%
X139000000Y-81520000D03*
%TD*%
%TO.P,C6,1*%
%TO.N,GND*%
X139000000Y-84480000D03*
%TO.P,C6,2*%
%TO.N,/SIG_FLTR+*%
X139000000Y-83520000D03*
%TD*%
D18*
%TO.P,C5,1*%
%TO.N,GND*%
X119770000Y-80500000D03*
%TO.P,C5,2*%
%TO.N,+4V*%
X120730000Y-80500000D03*
%TD*%
D27*
%TO.P,C4,2*%
%TO.N,GND*%
X122975000Y-86000000D03*
%TO.P,C4,1*%
%TO.N,+4V*%
X124525000Y-86000000D03*
%TD*%
D18*
%TO.P,C3,1*%
%TO.N,Net-(U1-BP)*%
X126270000Y-89500000D03*
%TO.P,C3,2*%
%TO.N,GND*%
X127230000Y-89500000D03*
%TD*%
D16*
%TO.P,C2,2*%
%TO.N,Net-(U1-FB)*%
X126250000Y-88480000D03*
%TO.P,C2,1*%
%TO.N,+4V*%
X126250000Y-87520000D03*
%TD*%
D28*
%TO.P,C1,1*%
%TO.N,+5V*%
X120230000Y-87500000D03*
%TO.P,C1,2*%
%TO.N,GND*%
X119270000Y-87500000D03*
%TD*%
D29*
%TO.N,GND*%
X127000000Y-81000000D03*
%TO.N,+4V*%
X121500000Y-79500000D03*
X121500000Y-80500000D03*
%TO.N,GND*%
X128500000Y-76750000D03*
X128500000Y-83250000D03*
X121250000Y-86000000D03*
X140000000Y-85500000D03*
X140000000Y-78500000D03*
X136250000Y-79750000D03*
X136250000Y-84250000D03*
X141750000Y-84250000D03*
X141750000Y-79750000D03*
X111000000Y-78000000D03*
X111000000Y-82000000D03*
X111000000Y-86000000D03*
X147000000Y-82000000D03*
X147000000Y-86000000D03*
X147000000Y-78000000D03*
X120000000Y-71000000D03*
X125000000Y-71000000D03*
X130000000Y-71000000D03*
X135000000Y-71000000D03*
X140000000Y-71000000D03*
X120000000Y-93000000D03*
X125000000Y-93000000D03*
X130000000Y-93000000D03*
X135000000Y-93000000D03*
X140000000Y-93000000D03*
X144000000Y-71000000D03*
X115000000Y-71000000D03*
X111000000Y-74000000D03*
X111000000Y-90000000D03*
X115000000Y-93000000D03*
X144000000Y-93000000D03*
X147000000Y-90000000D03*
X147000000Y-74000000D03*
X119250000Y-78500000D03*
X123475000Y-88500000D03*
X131300000Y-80300000D03*
%TO.N,+4V*%
X131250000Y-83750000D03*
X138000000Y-77750000D03*
%TO.N,GND*%
X135798809Y-78500744D03*
%TO.N,+4V*%
X131000000Y-78500000D03*
%TO.N,+5V*%
X121000000Y-89500000D03*
X121000000Y-87500000D03*
%TO.N,+4V*%
X125750000Y-86000000D03*
%TD*%
D30*
%TO.N,Net-(U1-FB)*%
X126865000Y-88250000D02*
X127500000Y-88250000D01*
X126635000Y-88480000D02*
X126865000Y-88250000D01*
X126250000Y-88480000D02*
X126635000Y-88480000D01*
%TO.N,+4V*%
X127170000Y-86600000D02*
X127500000Y-86600000D01*
X126250000Y-87520000D02*
X127170000Y-86600000D01*
%TO.N,GND*%
X127025000Y-80975000D02*
X127000000Y-81000000D01*
X128612500Y-80975000D02*
X127025000Y-80975000D01*
X128612500Y-80975000D02*
X128612500Y-79025000D01*
%TO.N,Net-(U1-FB)*%
X127500000Y-88250000D02*
X129250000Y-88250000D01*
%TO.N,GND*%
X134637500Y-77750000D02*
X135048065Y-77750000D01*
X135048065Y-77750000D02*
X135798809Y-78500744D01*
%TO.N,/DOUT*%
X118500000Y-81250000D02*
X118075000Y-81250000D01*
X118875000Y-81625000D02*
X118500000Y-81250000D01*
X122887500Y-81625000D02*
X118875000Y-81625000D01*
%TO.N,GND*%
X119770000Y-79020000D02*
X119770000Y-79500000D01*
X119250000Y-78500000D02*
X119770000Y-79020000D01*
X119770000Y-80500000D02*
X119770000Y-79500000D01*
%TO.N,+4V*%
X121675000Y-79675000D02*
X121500000Y-79500000D01*
X122887500Y-79675000D02*
X121675000Y-79675000D01*
X120730000Y-79500000D02*
X121500000Y-79500000D01*
X121675000Y-80325000D02*
X121500000Y-80500000D01*
X122887500Y-80325000D02*
X121675000Y-80325000D01*
X120730000Y-80500000D02*
X121500000Y-80500000D01*
%TO.N,/~{DRDY}*%
X122039136Y-80975000D02*
X122887500Y-80975000D01*
X121814136Y-81200000D02*
X122039136Y-80975000D01*
X118075000Y-79900000D02*
X119375000Y-81200000D01*
X119375000Y-81200000D02*
X121814136Y-81200000D01*
X118075000Y-79000000D02*
X118075000Y-79900000D01*
%TO.N,/SCLK*%
X119825000Y-83250000D02*
X118075000Y-85000000D01*
X124475000Y-82275000D02*
X123500000Y-83250000D01*
X123500000Y-83250000D02*
X119825000Y-83250000D01*
X127862500Y-82275000D02*
X124475000Y-82275000D01*
%TO.N,/DIN*%
X122887500Y-82275000D02*
X119050000Y-82275000D01*
X119050000Y-82275000D02*
X118075000Y-83250000D01*
%TO.N,/~{CS}*%
X125625000Y-81625000D02*
X127862500Y-81625000D01*
X124500000Y-80500000D02*
X125625000Y-81625000D01*
X124000000Y-77000000D02*
X124500000Y-77500000D01*
X118075000Y-77000000D02*
X124000000Y-77000000D01*
X124500000Y-77500000D02*
X124500000Y-80500000D01*
%TO.N,/SIG_AMP+*%
X130325000Y-82325000D02*
X131300000Y-82325000D01*
X130000000Y-82000000D02*
X130325000Y-82325000D01*
X130000000Y-78750000D02*
X130000000Y-82000000D01*
X129625000Y-78375000D02*
X130000000Y-78750000D01*
X128612500Y-78375000D02*
X129625000Y-78375000D01*
%TO.N,GND*%
X131300000Y-80300000D02*
X131300000Y-81025000D01*
%TO.N,Net-(U1-BP)*%
X126220000Y-89450000D02*
X126270000Y-89500000D01*
X124637500Y-89450000D02*
X126220000Y-89450000D01*
D31*
%TO.N,/SIG_FLTR-*%
X136725000Y-81025000D02*
X135700000Y-81025000D01*
X137270000Y-80480000D02*
X136725000Y-81025000D01*
X139000000Y-80480000D02*
X137270000Y-80480000D01*
%TO.N,/SIG_FLTR+*%
X136725000Y-82975000D02*
X135700000Y-82975000D01*
X137270000Y-83520000D02*
X136725000Y-82975000D01*
X139000000Y-83520000D02*
X137270000Y-83520000D01*
D30*
%TO.N,GND*%
X122362500Y-88500000D02*
X123475000Y-88500000D01*
%TO.N,+4V*%
X126280000Y-87490000D02*
X126250000Y-87520000D01*
X124667500Y-87520000D02*
X124637500Y-87550000D01*
X126250000Y-87520000D02*
X124667500Y-87520000D01*
X130750000Y-77730000D02*
X130750000Y-78250000D01*
X130750000Y-78250000D02*
X131000000Y-78500000D01*
X131250000Y-83025000D02*
X131250000Y-83750000D01*
X131300000Y-82975000D02*
X131250000Y-83025000D01*
X131250000Y-84520000D02*
X131250000Y-83750000D01*
X137260000Y-77750000D02*
X138000000Y-77750000D01*
%TO.N,/INA_REF*%
X133300000Y-76800000D02*
X132362500Y-76800000D01*
X133700000Y-78700000D02*
X133500000Y-78500000D01*
X133500000Y-78500000D02*
X133500000Y-77000000D01*
X133500000Y-77000000D02*
X133300000Y-76800000D01*
X134637500Y-78700000D02*
X133700000Y-78700000D01*
X132575000Y-81675000D02*
X131300000Y-81675000D01*
X134637500Y-79612500D02*
X132575000Y-81675000D01*
X134637500Y-78700000D02*
X134637500Y-79612500D01*
D31*
%TO.N,/SIG+*%
X141000000Y-83000000D02*
X144450000Y-83000000D01*
%TO.N,/SIG-*%
X141000000Y-81000000D02*
X144450000Y-81000000D01*
D30*
%TO.N,+4V*%
X131200000Y-78700000D02*
X131000000Y-78500000D01*
X132362500Y-78700000D02*
X131200000Y-78700000D01*
%TO.N,Net-(U4-+)*%
X136240000Y-77750000D02*
X136240000Y-76750000D01*
X134687500Y-76750000D02*
X134637500Y-76800000D01*
X136240000Y-76750000D02*
X134687500Y-76750000D01*
%TO.N,Net-(J3-Pin_2)*%
X116490000Y-77000000D02*
X113550000Y-77000000D01*
%TO.N,Net-(J3-Pin_3)*%
X116490000Y-79000000D02*
X113550000Y-79000000D01*
%TO.N,Net-(J3-Pin_4)*%
X116490000Y-81000000D02*
X113550000Y-81000000D01*
%TO.N,Net-(J3-Pin_5)*%
X116490000Y-83000000D02*
X113550000Y-83000000D01*
%TO.N,Net-(J3-Pin_6)*%
X116490000Y-85000000D02*
X113550000Y-85000000D01*
D32*
%TO.N,+5V*%
X121000000Y-87500000D02*
X121000000Y-89500000D01*
X122362500Y-89450000D02*
X121050000Y-89450000D01*
X121050000Y-89450000D02*
X121000000Y-89500000D01*
D30*
%TO.N,Net-(U1-FB)*%
X126230000Y-88500000D02*
X126250000Y-88480000D01*
X124637500Y-88500000D02*
X126230000Y-88500000D01*
D32*
%TO.N,+5V*%
X121050000Y-87550000D02*
X121000000Y-87500000D01*
X122362500Y-87550000D02*
X121050000Y-87550000D01*
X120230000Y-87500000D02*
X121000000Y-87500000D01*
%TO.N,+4V*%
X124525000Y-86000000D02*
X124525000Y-86250000D01*
X124525000Y-86000000D02*
X125750000Y-86000000D01*
X124525000Y-87437500D02*
X124637500Y-87550000D01*
X124525000Y-86000000D02*
X124525000Y-87437500D01*
D30*
%TO.N,Net-(R13-Pad1)*%
X136825000Y-82325000D02*
X135700000Y-82325000D01*
X137010000Y-82510000D02*
X136825000Y-82325000D01*
X137500000Y-82510000D02*
X137010000Y-82510000D01*
%TO.N,Net-(R13-Pad2)*%
X136825000Y-81675000D02*
X135700000Y-81675000D01*
X137500000Y-81490000D02*
X137010000Y-81490000D01*
X137010000Y-81490000D02*
X136825000Y-81675000D01*
D31*
%TO.N,/SIG_FLTR-*%
X139520000Y-81000000D02*
X139000000Y-80480000D01*
X139980000Y-81000000D02*
X139520000Y-81000000D01*
%TO.N,/SIG_FLTR+*%
X139520000Y-83000000D02*
X139000000Y-83520000D01*
X139980000Y-83000000D02*
X139520000Y-83000000D01*
X139000000Y-83520000D02*
X139000000Y-82480000D01*
%TO.N,/SIG_FLTR-*%
X139000000Y-81520000D02*
X139000000Y-80480000D01*
%TD*%
%TA.AperFunction,Conductor*%
%TO.N,GND*%
G36*
X133472026Y-79260597D02*
G01*
X133620943Y-79300501D01*
X133620945Y-79300501D01*
X133628793Y-79302604D01*
X133628230Y-79304705D01*
X133665781Y-79318539D01*
X133676998Y-79325809D01*
X133697234Y-79342180D01*
X133723135Y-79368081D01*
X133780050Y-79401741D01*
X133827733Y-79452808D01*
X133840237Y-79521550D01*
X133813592Y-79586139D01*
X133804610Y-79596153D01*
X132684614Y-80716149D01*
X132623291Y-80749634D01*
X132553599Y-80744650D01*
X132497666Y-80702778D01*
X132483311Y-80673992D01*
X132482192Y-80674477D01*
X132479092Y-80667315D01*
X132400317Y-80534114D01*
X132400311Y-80534105D01*
X132290894Y-80424688D01*
X132290885Y-80424682D01*
X132157684Y-80345907D01*
X132157681Y-80345906D01*
X132009084Y-80302734D01*
X132009073Y-80302732D01*
X131974359Y-80300000D01*
X131450000Y-80300000D01*
X131450000Y-80825500D01*
X131430315Y-80892539D01*
X131377511Y-80938294D01*
X131326000Y-80949500D01*
X131274000Y-80949500D01*
X131206961Y-80929815D01*
X131161206Y-80877011D01*
X131150000Y-80825500D01*
X131150000Y-80300000D01*
X130724500Y-80300000D01*
X130657461Y-80280315D01*
X130611706Y-80227511D01*
X130600500Y-80176000D01*
X130600500Y-79383062D01*
X130620185Y-79316023D01*
X130672989Y-79270268D01*
X130742147Y-79260324D01*
X130765448Y-79266018D01*
X130820745Y-79285368D01*
X130820748Y-79285368D01*
X130820750Y-79285369D01*
X131000000Y-79305565D01*
X131006395Y-79305565D01*
X131007551Y-79305500D01*
X131011661Y-79305500D01*
X131331181Y-79305500D01*
X131397521Y-79324739D01*
X131405309Y-79329670D01*
X131405732Y-79329938D01*
X131427070Y-79347017D01*
X131448129Y-79368076D01*
X131448140Y-79368085D01*
X131507029Y-79402911D01*
X131511753Y-79405849D01*
X131548061Y-79429582D01*
X131551640Y-79431499D01*
X131551652Y-79431503D01*
X131555622Y-79433283D01*
X131555547Y-79433448D01*
X131571225Y-79440875D01*
X131589602Y-79451744D01*
X131669448Y-79474941D01*
X131677467Y-79477571D01*
X131684815Y-79480262D01*
X131691292Y-79481637D01*
X131700127Y-79483854D01*
X131747431Y-79497598D01*
X131784306Y-79500500D01*
X131784314Y-79500500D01*
X132940686Y-79500500D01*
X132940694Y-79500500D01*
X132977569Y-79497598D01*
X132977571Y-79497597D01*
X132977573Y-79497597D01*
X133030782Y-79482138D01*
X133135398Y-79451744D01*
X133276865Y-79368081D01*
X133352254Y-79292691D01*
X133413574Y-79259207D01*
X133472026Y-79260597D01*
G37*
%TD.AperFunction*%
%TA.AperFunction,Conductor*%
G36*
X121592539Y-77620185D02*
G01*
X121638294Y-77672989D01*
X121649500Y-77724499D01*
X121649500Y-77864362D01*
X121664953Y-77981753D01*
X121664957Y-77981765D01*
X121673566Y-78002550D01*
X121681033Y-78072019D01*
X121673566Y-78097450D01*
X121664957Y-78118234D01*
X121664955Y-78118239D01*
X121649500Y-78235638D01*
X121649500Y-78514358D01*
X121655126Y-78557095D01*
X121644358Y-78626130D01*
X121597976Y-78678384D01*
X121530706Y-78697267D01*
X121518306Y-78696497D01*
X121500000Y-78694435D01*
X121499996Y-78694435D01*
X121320747Y-78714631D01*
X121228775Y-78746813D01*
X121158996Y-78750374D01*
X121133745Y-78740161D01*
X121133554Y-78740604D01*
X121126390Y-78737504D01*
X120970997Y-78692357D01*
X120970991Y-78692356D01*
X120934697Y-78689500D01*
X120934690Y-78689500D01*
X120525310Y-78689500D01*
X120525302Y-78689500D01*
X120489008Y-78692356D01*
X120489002Y-78692357D01*
X120333609Y-78737504D01*
X120333604Y-78737506D01*
X120312628Y-78749911D01*
X120244903Y-78767092D01*
X120186389Y-78749911D01*
X120166195Y-78737968D01*
X120010909Y-78692854D01*
X119974644Y-78690000D01*
X119920000Y-78690000D01*
X119920000Y-80475500D01*
X119900315Y-80542539D01*
X119847511Y-80588294D01*
X119796000Y-80599500D01*
X119744000Y-80599500D01*
X119676961Y-80579815D01*
X119631206Y-80527011D01*
X119620000Y-80475500D01*
X119620000Y-78690000D01*
X119619999Y-78689999D01*
X119565363Y-78690000D01*
X119529089Y-78692854D01*
X119373803Y-78737969D01*
X119234625Y-78820278D01*
X119234616Y-78820285D01*
X119187181Y-78867721D01*
X119125858Y-78901206D01*
X119056166Y-78896222D01*
X119000233Y-78854350D01*
X118975816Y-78788886D01*
X118975500Y-78780040D01*
X118975500Y-78668386D01*
X118969086Y-78597807D01*
X118969086Y-78597804D01*
X118918478Y-78435394D01*
X118830472Y-78289815D01*
X118830470Y-78289813D01*
X118830469Y-78289811D01*
X118710188Y-78169530D01*
X118710178Y-78169524D01*
X118605288Y-78106115D01*
X118558102Y-78054589D01*
X118546264Y-77985729D01*
X118573533Y-77921401D01*
X118605287Y-77893884D01*
X118710185Y-77830472D01*
X118787975Y-77752680D01*
X118795822Y-77745775D01*
X118795807Y-77745758D01*
X118799112Y-77742803D01*
X118799116Y-77742800D01*
X118858812Y-77681228D01*
X118867458Y-77673125D01*
X118906525Y-77639886D01*
X118917838Y-77631328D01*
X118932517Y-77621491D01*
X118999166Y-77600523D01*
X119001547Y-77600500D01*
X121525500Y-77600500D01*
X121592539Y-77620185D01*
G37*
%TD.AperFunction*%
%TA.AperFunction,Conductor*%
G36*
X146004418Y-70500816D02*
G01*
X146204561Y-70515130D01*
X146222063Y-70517647D01*
X146413797Y-70559355D01*
X146430755Y-70564334D01*
X146614609Y-70632909D01*
X146630701Y-70640259D01*
X146802904Y-70734288D01*
X146817784Y-70743849D01*
X146974867Y-70861441D01*
X146988237Y-70873027D01*
X147126972Y-71011762D01*
X147138558Y-71025132D01*
X147249625Y-71173500D01*
X147256146Y-71182210D01*
X147265711Y-71197095D01*
X147359740Y-71369298D01*
X147367090Y-71385390D01*
X147435662Y-71569236D01*
X147440646Y-71586212D01*
X147482351Y-71777931D01*
X147484869Y-71795442D01*
X147499184Y-71995580D01*
X147499500Y-72004427D01*
X147499500Y-91995572D01*
X147499184Y-92004419D01*
X147484869Y-92204557D01*
X147482351Y-92222068D01*
X147440646Y-92413787D01*
X147435662Y-92430763D01*
X147367090Y-92614609D01*
X147359740Y-92630701D01*
X147265711Y-92802904D01*
X147256146Y-92817789D01*
X147138558Y-92974867D01*
X147126972Y-92988237D01*
X146988237Y-93126972D01*
X146974867Y-93138558D01*
X146817789Y-93256146D01*
X146802904Y-93265711D01*
X146630701Y-93359740D01*
X146614609Y-93367090D01*
X146430763Y-93435662D01*
X146413787Y-93440646D01*
X146222068Y-93482351D01*
X146204557Y-93484869D01*
X146023779Y-93497799D01*
X146004417Y-93499184D01*
X145995572Y-93499500D01*
X112004428Y-93499500D01*
X111995582Y-93499184D01*
X111973622Y-93497613D01*
X111795442Y-93484869D01*
X111777931Y-93482351D01*
X111586212Y-93440646D01*
X111569236Y-93435662D01*
X111385390Y-93367090D01*
X111369298Y-93359740D01*
X111197095Y-93265711D01*
X111182210Y-93256146D01*
X111025132Y-93138558D01*
X111011762Y-93126972D01*
X110873027Y-92988237D01*
X110861441Y-92974867D01*
X110743849Y-92817784D01*
X110734288Y-92802904D01*
X110640259Y-92630701D01*
X110632909Y-92614609D01*
X110572091Y-92451551D01*
X110564334Y-92430755D01*
X110559355Y-92413797D01*
X110517647Y-92222063D01*
X110515130Y-92204556D01*
X110506322Y-92081407D01*
X116173500Y-92081407D01*
X116205259Y-92241073D01*
X116205262Y-92241082D01*
X116267562Y-92391490D01*
X116267563Y-92391492D01*
X116358015Y-92526862D01*
X116358018Y-92526866D01*
X116473133Y-92641981D01*
X116473137Y-92641984D01*
X116608505Y-92732435D01*
X116608506Y-92732435D01*
X116608507Y-92732436D01*
X116608509Y-92732437D01*
X116708781Y-92773970D01*
X116758919Y-92794738D01*
X116758921Y-92794738D01*
X116758926Y-92794740D01*
X116918592Y-92826499D01*
X116918595Y-92826500D01*
X116918597Y-92826500D01*
X117081405Y-92826500D01*
X117081406Y-92826499D01*
X117134629Y-92815912D01*
X117241073Y-92794740D01*
X117241076Y-92794738D01*
X117241081Y-92794738D01*
X117391495Y-92732435D01*
X117526863Y-92641984D01*
X117641984Y-92526863D01*
X117732435Y-92391495D01*
X117794738Y-92241081D01*
X117802004Y-92204556D01*
X117826499Y-92081407D01*
X145173500Y-92081407D01*
X145205259Y-92241073D01*
X145205262Y-92241082D01*
X145267562Y-92391490D01*
X145267563Y-92391492D01*
X145358015Y-92526862D01*
X145358018Y-92526866D01*
X145473133Y-92641981D01*
X145473137Y-92641984D01*
X145608505Y-92732435D01*
X145608506Y-92732435D01*
X145608507Y-92732436D01*
X145608509Y-92732437D01*
X145708781Y-92773970D01*
X145758919Y-92794738D01*
X145758921Y-92794738D01*
X145758926Y-92794740D01*
X145918592Y-92826499D01*
X145918595Y-92826500D01*
X145918597Y-92826500D01*
X146081405Y-92826500D01*
X146081406Y-92826499D01*
X146134629Y-92815912D01*
X146241073Y-92794740D01*
X146241076Y-92794738D01*
X146241081Y-92794738D01*
X146391495Y-92732435D01*
X146526863Y-92641984D01*
X146641984Y-92526863D01*
X146732435Y-92391495D01*
X146794738Y-92241081D01*
X146802004Y-92204556D01*
X146826499Y-92081407D01*
X146826500Y-92081405D01*
X146826500Y-91918594D01*
X146826499Y-91918592D01*
X146794740Y-91758926D01*
X146794737Y-91758917D01*
X146732437Y-91608509D01*
X146732436Y-91608507D01*
X146641984Y-91473137D01*
X146641981Y-91473133D01*
X146526866Y-91358018D01*
X146526862Y-91358015D01*
X146391492Y-91267563D01*
X146391490Y-91267562D01*
X146241082Y-91205262D01*
X146241073Y-91205259D01*
X146081406Y-91173500D01*
X146081403Y-91173500D01*
X145918597Y-91173500D01*
X145918594Y-91173500D01*
X145758926Y-91205259D01*
X145758917Y-91205262D01*
X145608509Y-91267562D01*
X145608507Y-91267563D01*
X145473137Y-91358015D01*
X145473133Y-91358018D01*
X145358018Y-91473133D01*
X145358015Y-91473137D01*
X145267563Y-91608507D01*
X145267562Y-91608509D01*
X145205262Y-91758917D01*
X145205259Y-91758926D01*
X145173500Y-91918592D01*
X145173500Y-92081407D01*
X117826499Y-92081407D01*
X117826500Y-92081405D01*
X117826500Y-91918594D01*
X117826499Y-91918592D01*
X117794740Y-91758926D01*
X117794737Y-91758917D01*
X117732437Y-91608509D01*
X117732436Y-91608507D01*
X117641984Y-91473137D01*
X117641981Y-91473133D01*
X117526866Y-91358018D01*
X117526862Y-91358015D01*
X117391492Y-91267563D01*
X117391490Y-91267562D01*
X117241082Y-91205262D01*
X117241073Y-91205259D01*
X117081406Y-91173500D01*
X117081403Y-91173500D01*
X116918597Y-91173500D01*
X116918594Y-91173500D01*
X116758926Y-91205259D01*
X116758917Y-91205262D01*
X116608509Y-91267562D01*
X116608507Y-91267563D01*
X116473137Y-91358015D01*
X116473133Y-91358018D01*
X116358018Y-91473133D01*
X116358015Y-91473137D01*
X116267563Y-91608507D01*
X116267562Y-91608509D01*
X116205262Y-91758917D01*
X116205259Y-91758926D01*
X116173500Y-91918592D01*
X116173500Y-92081407D01*
X110506322Y-92081407D01*
X110500816Y-92004418D01*
X110500500Y-91995572D01*
X110500500Y-89086611D01*
X112174500Y-89086611D01*
X112175588Y-89093478D01*
X112196078Y-89222853D01*
X112201598Y-89257701D01*
X112255127Y-89422445D01*
X112333768Y-89576788D01*
X112435586Y-89716928D01*
X112558072Y-89839414D01*
X112698212Y-89941232D01*
X112852555Y-90019873D01*
X113017299Y-90073402D01*
X113188389Y-90100500D01*
X113188390Y-90100500D01*
X113911610Y-90100500D01*
X113911611Y-90100500D01*
X114082701Y-90073402D01*
X114247445Y-90019873D01*
X114401788Y-89941232D01*
X114541928Y-89839414D01*
X114664414Y-89716928D01*
X114766232Y-89576788D01*
X114844873Y-89422445D01*
X114898402Y-89257701D01*
X114925500Y-89086611D01*
X114925500Y-88913389D01*
X114898402Y-88742299D01*
X114844873Y-88577555D01*
X114766232Y-88423212D01*
X114664414Y-88283072D01*
X114541928Y-88160586D01*
X114458975Y-88100317D01*
X114416311Y-88044988D01*
X114410332Y-87975374D01*
X114442938Y-87913579D01*
X114458976Y-87899682D01*
X114541928Y-87839414D01*
X114664414Y-87716928D01*
X114713040Y-87650000D01*
X118490001Y-87650000D01*
X118490001Y-87734649D01*
X118492854Y-87770910D01*
X118537969Y-87926196D01*
X118620278Y-88065374D01*
X118620285Y-88065383D01*
X118734616Y-88179714D01*
X118734625Y-88179721D01*
X118873803Y-88262030D01*
X119029090Y-88307145D01*
X119065362Y-88309999D01*
X119420000Y-88309999D01*
X119474624Y-88309999D01*
X119474649Y-88309998D01*
X119510911Y-88307145D01*
X119666194Y-88262032D01*
X119686384Y-88250091D01*
X119754108Y-88232906D01*
X119812629Y-88250089D01*
X119833605Y-88262494D01*
X119874587Y-88274400D01*
X119989002Y-88307642D01*
X119989005Y-88307642D01*
X119989007Y-88307643D01*
X120025310Y-88310500D01*
X120125500Y-88310500D01*
X120192539Y-88330185D01*
X120238294Y-88382989D01*
X120249500Y-88434500D01*
X120249500Y-88854298D01*
X120247548Y-88876214D01*
X120244413Y-88893668D01*
X120240508Y-89005610D01*
X120239735Y-89015766D01*
X120231986Y-89081669D01*
X120231222Y-89087117D01*
X120218705Y-89163987D01*
X120216919Y-89175846D01*
X120216913Y-89175891D01*
X120216850Y-89176346D01*
X120215532Y-89186641D01*
X120215523Y-89186713D01*
X120203218Y-89291353D01*
X120201243Y-89311680D01*
X120201167Y-89312669D01*
X120199991Y-89333720D01*
X120199990Y-89333750D01*
X120196897Y-89422447D01*
X120195224Y-89470407D01*
X120194981Y-89479961D01*
X120194976Y-89480242D01*
X120194977Y-89480280D01*
X120195024Y-89481348D01*
X120195001Y-89482003D01*
X120195003Y-89482104D01*
X120194998Y-89482104D01*
X120194435Y-89498570D01*
X120194435Y-89500001D01*
X120196272Y-89516313D01*
X120196931Y-89524742D01*
X120197629Y-89540633D01*
X120197631Y-89540645D01*
X120198103Y-89542520D01*
X120201068Y-89558881D01*
X120214630Y-89679249D01*
X120274210Y-89849521D01*
X120366062Y-89995702D01*
X120370184Y-90002262D01*
X120497738Y-90129816D01*
X120507470Y-90135931D01*
X120646489Y-90223283D01*
X120650478Y-90225789D01*
X120807953Y-90280892D01*
X120820745Y-90285368D01*
X120820750Y-90285369D01*
X120999997Y-90305565D01*
X121000000Y-90305565D01*
X121019255Y-90303394D01*
X121042114Y-90302940D01*
X121048024Y-90303369D01*
X121182121Y-90293917D01*
X121223738Y-90289244D01*
X121225648Y-90288949D01*
X121266558Y-90280891D01*
X121368354Y-90256438D01*
X121389287Y-90250933D01*
X121390266Y-90250653D01*
X121411636Y-90244026D01*
X121473639Y-90223283D01*
X121483993Y-90220312D01*
X121495258Y-90217606D01*
X121537910Y-90214933D01*
X121603974Y-90222273D01*
X121607898Y-90222774D01*
X121677627Y-90232846D01*
X121681587Y-90233484D01*
X121711990Y-90238888D01*
X121719550Y-90240232D01*
X121732429Y-90243239D01*
X121747431Y-90247598D01*
X121769408Y-90249327D01*
X121775392Y-90249798D01*
X121783291Y-90250675D01*
X121785054Y-90250928D01*
X121790667Y-90251734D01*
X121790671Y-90251733D01*
X121790673Y-90251734D01*
X121825314Y-90250570D01*
X121829479Y-90250500D01*
X122940686Y-90250500D01*
X122940694Y-90250500D01*
X122977569Y-90247598D01*
X122977571Y-90247597D01*
X122977573Y-90247597D01*
X123052635Y-90225789D01*
X123135398Y-90201744D01*
X123276865Y-90118081D01*
X123393081Y-90001865D01*
X123393267Y-90001549D01*
X123393477Y-90001353D01*
X123397861Y-89995702D01*
X123398772Y-89996409D01*
X123444336Y-89953866D01*
X123513077Y-89941362D01*
X123577667Y-89968006D01*
X123601855Y-89995921D01*
X123602139Y-89995702D01*
X123606179Y-90000911D01*
X123606732Y-90001548D01*
X123606919Y-90001865D01*
X123606921Y-90001867D01*
X123606923Y-90001870D01*
X123723129Y-90118076D01*
X123723133Y-90118079D01*
X123723135Y-90118081D01*
X123864602Y-90201744D01*
X123895088Y-90210601D01*
X124022426Y-90247597D01*
X124022429Y-90247597D01*
X124022431Y-90247598D01*
X124059306Y-90250500D01*
X124059314Y-90250500D01*
X125215686Y-90250500D01*
X125215694Y-90250500D01*
X125252569Y-90247598D01*
X125324204Y-90226785D01*
X125336820Y-90224141D01*
X125336793Y-90224007D01*
X125341132Y-90223118D01*
X125341133Y-90223117D01*
X125341138Y-90223117D01*
X125349760Y-90220699D01*
X125374701Y-90212239D01*
X125379881Y-90210609D01*
X125410398Y-90201744D01*
X125544740Y-90122294D01*
X125612462Y-90105112D01*
X125678725Y-90127272D01*
X125695541Y-90141346D01*
X125734307Y-90180112D01*
X125734311Y-90180115D01*
X125734313Y-90180117D01*
X125873605Y-90262494D01*
X125914587Y-90274400D01*
X126029002Y-90307642D01*
X126029005Y-90307642D01*
X126029007Y-90307643D01*
X126065310Y-90310500D01*
X126065318Y-90310500D01*
X126474682Y-90310500D01*
X126474690Y-90310500D01*
X126510993Y-90307643D01*
X126510995Y-90307642D01*
X126510997Y-90307642D01*
X126575344Y-90288947D01*
X126666395Y-90262494D01*
X126687369Y-90250089D01*
X126755088Y-90232906D01*
X126813613Y-90250090D01*
X126833804Y-90262031D01*
X126989086Y-90307144D01*
X126989092Y-90307145D01*
X127025362Y-90309999D01*
X127079999Y-90309998D01*
X127080000Y-90309998D01*
X127080000Y-89650000D01*
X127380000Y-89650000D01*
X127380000Y-90309999D01*
X127434624Y-90309999D01*
X127434649Y-90309998D01*
X127470910Y-90307145D01*
X127626196Y-90262030D01*
X127765374Y-90179721D01*
X127765383Y-90179714D01*
X127879714Y-90065383D01*
X127879721Y-90065374D01*
X127962030Y-89926196D01*
X128007145Y-89770910D01*
X128007145Y-89770907D01*
X128009999Y-89734644D01*
X128010000Y-89734629D01*
X128010000Y-89650000D01*
X127380000Y-89650000D01*
X127080000Y-89650000D01*
X127080000Y-89474000D01*
X127099685Y-89406961D01*
X127152489Y-89361206D01*
X127204000Y-89350000D01*
X128009999Y-89350000D01*
X128009999Y-89265375D01*
X128009998Y-89265350D01*
X128007144Y-89229082D01*
X128006007Y-89222853D01*
X128008814Y-89222340D01*
X128008993Y-89164830D01*
X128046950Y-89106170D01*
X128063711Y-89094018D01*
X128064602Y-89093479D01*
X128064606Y-89093478D01*
X128210185Y-89005472D01*
X128240657Y-88975000D01*
X128287319Y-88928339D01*
X128348642Y-88894854D01*
X128418334Y-88899838D01*
X128462681Y-88928339D01*
X128539811Y-89005469D01*
X128539813Y-89005470D01*
X128539815Y-89005472D01*
X128685394Y-89093478D01*
X128847804Y-89144086D01*
X128918384Y-89150500D01*
X128918387Y-89150500D01*
X129581613Y-89150500D01*
X129581616Y-89150500D01*
X129652196Y-89144086D01*
X129814606Y-89093478D01*
X129960185Y-89005472D01*
X130080472Y-88885185D01*
X130168478Y-88739606D01*
X130219086Y-88577196D01*
X130225500Y-88506616D01*
X130225500Y-87993384D01*
X130219086Y-87922804D01*
X130168478Y-87760394D01*
X130080472Y-87614815D01*
X130080470Y-87614813D01*
X130080469Y-87614811D01*
X129977984Y-87512326D01*
X129944499Y-87451003D01*
X129949483Y-87381311D01*
X129977985Y-87336963D01*
X130080071Y-87234878D01*
X130080072Y-87234877D01*
X130168019Y-87089395D01*
X130218590Y-86927106D01*
X130225000Y-86856572D01*
X130225000Y-86750000D01*
X129224000Y-86750000D01*
X129156961Y-86730315D01*
X129111206Y-86677511D01*
X129100000Y-86626000D01*
X129100000Y-85700000D01*
X129400000Y-85700000D01*
X129400000Y-86450000D01*
X130224999Y-86450000D01*
X130224999Y-86343417D01*
X130218591Y-86272897D01*
X130218590Y-86272892D01*
X130168018Y-86110603D01*
X130080072Y-85965122D01*
X129959877Y-85844927D01*
X129814395Y-85756980D01*
X129814396Y-85756980D01*
X129652105Y-85706409D01*
X129652106Y-85706409D01*
X129581572Y-85700000D01*
X129400000Y-85700000D01*
X129100000Y-85700000D01*
X128918417Y-85700000D01*
X128847897Y-85706408D01*
X128847892Y-85706409D01*
X128685603Y-85756981D01*
X128540122Y-85844927D01*
X128540121Y-85844928D01*
X128463035Y-85922015D01*
X128401712Y-85955500D01*
X128332020Y-85950516D01*
X128287673Y-85922015D01*
X128210188Y-85844530D01*
X128186933Y-85830472D01*
X128064606Y-85756522D01*
X127902196Y-85705914D01*
X127902194Y-85705913D01*
X127902192Y-85705913D01*
X127852778Y-85701423D01*
X127831616Y-85699500D01*
X127168384Y-85699500D01*
X127149145Y-85701248D01*
X127097807Y-85705913D01*
X126935393Y-85756522D01*
X126789811Y-85844530D01*
X126745613Y-85888728D01*
X126684290Y-85922212D01*
X126614598Y-85917227D01*
X126558665Y-85875355D01*
X126539485Y-85826945D01*
X126536917Y-85827532D01*
X126535368Y-85820745D01*
X126513609Y-85758561D01*
X126475789Y-85650478D01*
X126472873Y-85645838D01*
X126462921Y-85630000D01*
X130440001Y-85630000D01*
X130440001Y-85684649D01*
X130442854Y-85720910D01*
X130487969Y-85876196D01*
X130570278Y-86015374D01*
X130570285Y-86015383D01*
X130684616Y-86129714D01*
X130684625Y-86129721D01*
X130823803Y-86212030D01*
X130979090Y-86257145D01*
X131015362Y-86259999D01*
X131099999Y-86259998D01*
X131100000Y-86259998D01*
X131100000Y-85630000D01*
X131400000Y-85630000D01*
X131400000Y-86259999D01*
X131484624Y-86259999D01*
X131484649Y-86259998D01*
X131520910Y-86257145D01*
X131676196Y-86212030D01*
X131815374Y-86129721D01*
X131815383Y-86129714D01*
X131929714Y-86015383D01*
X131929721Y-86015374D01*
X132012030Y-85876196D01*
X132057145Y-85720910D01*
X132057145Y-85720907D01*
X132059999Y-85684644D01*
X132060000Y-85684629D01*
X132060000Y-85630000D01*
X131400000Y-85630000D01*
X131100000Y-85630000D01*
X130440001Y-85630000D01*
X126462921Y-85630000D01*
X126382932Y-85502697D01*
X126379816Y-85497738D01*
X126252262Y-85370184D01*
X126219255Y-85349444D01*
X126099523Y-85274211D01*
X125929254Y-85214631D01*
X125929249Y-85214630D01*
X125750005Y-85194435D01*
X125749999Y-85194435D01*
X125745468Y-85194945D01*
X125724757Y-85194990D01*
X125724743Y-85195388D01*
X125720327Y-85195226D01*
X125583739Y-85199990D01*
X125562893Y-85201149D01*
X125561923Y-85201223D01*
X125541429Y-85203210D01*
X125541413Y-85203211D01*
X125541391Y-85203214D01*
X125466421Y-85212030D01*
X125436639Y-85215532D01*
X125426296Y-85216856D01*
X125425855Y-85216917D01*
X125413950Y-85218711D01*
X125380297Y-85224191D01*
X125325372Y-85220761D01*
X125285706Y-85209091D01*
X125276405Y-85205950D01*
X125219698Y-85184260D01*
X125211168Y-85180626D01*
X125207781Y-85179031D01*
X125195513Y-85172386D01*
X125058702Y-85087999D01*
X125058698Y-85087997D01*
X125058697Y-85087997D01*
X124961191Y-85055687D01*
X124897709Y-85034651D01*
X124798346Y-85024500D01*
X124251662Y-85024500D01*
X124251644Y-85024501D01*
X124152292Y-85034650D01*
X124152289Y-85034651D01*
X123991305Y-85087996D01*
X123991294Y-85088001D01*
X123846959Y-85177029D01*
X123846953Y-85177033D01*
X123837324Y-85186663D01*
X123776000Y-85220146D01*
X123706308Y-85215159D01*
X123661965Y-85186660D01*
X123652732Y-85177427D01*
X123652728Y-85177424D01*
X123508492Y-85088457D01*
X123508481Y-85088452D01*
X123347606Y-85035144D01*
X123248322Y-85025000D01*
X123125000Y-85025000D01*
X123125000Y-86026000D01*
X123105315Y-86093039D01*
X123052511Y-86138794D01*
X123001000Y-86150000D01*
X122025001Y-86150000D01*
X122025001Y-86298322D01*
X122035144Y-86397607D01*
X122088452Y-86558481D01*
X122088455Y-86558488D01*
X122089638Y-86560405D01*
X122090047Y-86561902D01*
X122091507Y-86565032D01*
X122090972Y-86565281D01*
X122108077Y-86627797D01*
X122087154Y-86694461D01*
X122033511Y-86739229D01*
X121984098Y-86749500D01*
X121918379Y-86749500D01*
X121902734Y-86748379D01*
X121901088Y-86748289D01*
X121901086Y-86748289D01*
X121870323Y-86749309D01*
X121866613Y-86749432D01*
X121862504Y-86749500D01*
X121784298Y-86749500D01*
X121747434Y-86752401D01*
X121747424Y-86752403D01*
X121732439Y-86756756D01*
X121719561Y-86759762D01*
X121693006Y-86764483D01*
X121681608Y-86766510D01*
X121677631Y-86767150D01*
X121607969Y-86777213D01*
X121603933Y-86777729D01*
X121537913Y-86785064D01*
X121495260Y-86782392D01*
X121484011Y-86779690D01*
X121473641Y-86776716D01*
X121411652Y-86755978D01*
X121411651Y-86755977D01*
X121411643Y-86755975D01*
X121390136Y-86749309D01*
X121390137Y-86749309D01*
X121390120Y-86749304D01*
X121389147Y-86749026D01*
X121368358Y-86743561D01*
X121266562Y-86719108D01*
X121225609Y-86711042D01*
X121223725Y-86710751D01*
X121182128Y-86706082D01*
X121048007Y-86696629D01*
X121031017Y-86695718D01*
X121030311Y-86695692D01*
X121030277Y-86695692D01*
X121024566Y-86695883D01*
X121006557Y-86695173D01*
X121000003Y-86694435D01*
X120999997Y-86694435D01*
X120976156Y-86697120D01*
X120966438Y-86697829D01*
X120959359Y-86698066D01*
X120957166Y-86698375D01*
X120944263Y-86700714D01*
X120820749Y-86714630D01*
X120820742Y-86714632D01*
X120765285Y-86734037D01*
X120716633Y-86740756D01*
X120694722Y-86739393D01*
X120691442Y-86739145D01*
X120640580Y-86734624D01*
X120637322Y-86734291D01*
X120611150Y-86731266D01*
X120590793Y-86727162D01*
X120563064Y-86719106D01*
X120470997Y-86692357D01*
X120470991Y-86692356D01*
X120434697Y-86689500D01*
X120434690Y-86689500D01*
X120025310Y-86689500D01*
X120025302Y-86689500D01*
X119989008Y-86692356D01*
X119989002Y-86692357D01*
X119833609Y-86737504D01*
X119833604Y-86737506D01*
X119812628Y-86749911D01*
X119744903Y-86767092D01*
X119686389Y-86749911D01*
X119666195Y-86737968D01*
X119510909Y-86692854D01*
X119474644Y-86690000D01*
X119420000Y-86690000D01*
X119420000Y-88309999D01*
X119065362Y-88309999D01*
X119119999Y-88309998D01*
X119120000Y-88309998D01*
X119120000Y-87650000D01*
X118490001Y-87650000D01*
X114713040Y-87650000D01*
X114766232Y-87576788D01*
X114844873Y-87422445D01*
X114868412Y-87350000D01*
X118490000Y-87350000D01*
X119120000Y-87350000D01*
X119120000Y-86690000D01*
X119119999Y-86689999D01*
X119065363Y-86690000D01*
X119029089Y-86692854D01*
X118873803Y-86737969D01*
X118734625Y-86820278D01*
X118734616Y-86820285D01*
X118620285Y-86934616D01*
X118620278Y-86934625D01*
X118537969Y-87073803D01*
X118492854Y-87229089D01*
X118492854Y-87229092D01*
X118490000Y-87265355D01*
X118490000Y-87350000D01*
X114868412Y-87350000D01*
X114898402Y-87257701D01*
X114925500Y-87086611D01*
X114925500Y-86913389D01*
X114898402Y-86742299D01*
X114844873Y-86577555D01*
X114766232Y-86423212D01*
X114664414Y-86283072D01*
X114541928Y-86160586D01*
X114458975Y-86100317D01*
X114416311Y-86044988D01*
X114410332Y-85975374D01*
X114442938Y-85913579D01*
X114458976Y-85899682D01*
X114474053Y-85888728D01*
X114541928Y-85839414D01*
X114590823Y-85790517D01*
X114612036Y-85773521D01*
X114655619Y-85745858D01*
X114665196Y-85740365D01*
X114763843Y-85689491D01*
X114774927Y-85684449D01*
X114866118Y-85648275D01*
X114878625Y-85644071D01*
X114963023Y-85620634D01*
X114976741Y-85617651D01*
X115064017Y-85603803D01*
X115075183Y-85602032D01*
X115094614Y-85600500D01*
X115498450Y-85600500D01*
X115565489Y-85620185D01*
X115567487Y-85621496D01*
X115582167Y-85631335D01*
X115593482Y-85639896D01*
X115632516Y-85673106D01*
X115641187Y-85681230D01*
X115700886Y-85742803D01*
X115714572Y-85756390D01*
X115714590Y-85756407D01*
X115715225Y-85757014D01*
X115717101Y-85758561D01*
X115725876Y-85766533D01*
X115789815Y-85830472D01*
X115935394Y-85918478D01*
X116097804Y-85969086D01*
X116168384Y-85975500D01*
X116168387Y-85975500D01*
X116681613Y-85975500D01*
X116681616Y-85975500D01*
X116752196Y-85969086D01*
X116914606Y-85918478D01*
X117060185Y-85830472D01*
X117109809Y-85780848D01*
X117162319Y-85728339D01*
X117223642Y-85694854D01*
X117293334Y-85699838D01*
X117337681Y-85728339D01*
X117439811Y-85830469D01*
X117439813Y-85830470D01*
X117439815Y-85830472D01*
X117585394Y-85918478D01*
X117747804Y-85969086D01*
X117818384Y-85975500D01*
X117818387Y-85975500D01*
X118331613Y-85975500D01*
X118331616Y-85975500D01*
X118402196Y-85969086D01*
X118564606Y-85918478D01*
X118677882Y-85850000D01*
X122025000Y-85850000D01*
X122825000Y-85850000D01*
X122825000Y-85025000D01*
X122701691Y-85025000D01*
X122701676Y-85025001D01*
X122602392Y-85035144D01*
X122441518Y-85088452D01*
X122441507Y-85088457D01*
X122297271Y-85177424D01*
X122297267Y-85177427D01*
X122177427Y-85297267D01*
X122177424Y-85297271D01*
X122088457Y-85441507D01*
X122088452Y-85441518D01*
X122035144Y-85602393D01*
X122025000Y-85701677D01*
X122025000Y-85850000D01*
X118677882Y-85850000D01*
X118710185Y-85830472D01*
X118830472Y-85710185D01*
X118918478Y-85564606D01*
X118969086Y-85402196D01*
X118975500Y-85331616D01*
X118975500Y-85286886D01*
X118982452Y-85245949D01*
X118984850Y-85239092D01*
X119013746Y-85156471D01*
X119015136Y-85152699D01*
X119071868Y-85006198D01*
X119073722Y-85001681D01*
X119127670Y-84877316D01*
X119130170Y-84871915D01*
X119179963Y-84770910D01*
X119183481Y-84764291D01*
X119196037Y-84742299D01*
X119206555Y-84723874D01*
X119226555Y-84697679D01*
X120037417Y-83886819D01*
X120098740Y-83853334D01*
X120125098Y-83850500D01*
X123413331Y-83850500D01*
X123413347Y-83850501D01*
X123420943Y-83850501D01*
X123579054Y-83850501D01*
X123579057Y-83850501D01*
X123731785Y-83809577D01*
X123786585Y-83777938D01*
X123868716Y-83730520D01*
X123980520Y-83618716D01*
X123980520Y-83618714D01*
X123990724Y-83608511D01*
X123990727Y-83608506D01*
X124687416Y-82911819D01*
X124748739Y-82878334D01*
X124775097Y-82875500D01*
X127598743Y-82875500D01*
X127665782Y-82895185D01*
X127671099Y-82898924D01*
X127672157Y-82899534D01*
X127672159Y-82899536D01*
X127672160Y-82899536D01*
X127672163Y-82899538D01*
X127705603Y-82913389D01*
X127818238Y-82960044D01*
X127935639Y-82975500D01*
X129289360Y-82975499D01*
X129289363Y-82975499D01*
X129406753Y-82960046D01*
X129406757Y-82960044D01*
X129406762Y-82960044D01*
X129552841Y-82899536D01*
X129678282Y-82803282D01*
X129711937Y-82759421D01*
X129768362Y-82718220D01*
X129838108Y-82714065D01*
X129897992Y-82747228D01*
X129956284Y-82805520D01*
X130012499Y-82837975D01*
X130060715Y-82888542D01*
X130074500Y-82945362D01*
X130074500Y-83149393D01*
X130074501Y-83149415D01*
X130077234Y-83184152D01*
X130077234Y-83184155D01*
X130077235Y-83184156D01*
X130120445Y-83332887D01*
X130120446Y-83332888D01*
X130199282Y-83466194D01*
X130199289Y-83466203D01*
X130308796Y-83575710D01*
X130308800Y-83575713D01*
X130308802Y-83575715D01*
X130308805Y-83575716D01*
X130308808Y-83575719D01*
X130385285Y-83620947D01*
X130432969Y-83672015D01*
X130445473Y-83740757D01*
X130445386Y-83741559D01*
X130444435Y-83750001D01*
X130444435Y-83750003D01*
X130464630Y-83929249D01*
X130464632Y-83929257D01*
X130496813Y-84021225D01*
X130500374Y-84091004D01*
X130490161Y-84116258D01*
X130490603Y-84116449D01*
X130487504Y-84123609D01*
X130442357Y-84279002D01*
X130442356Y-84279008D01*
X130439500Y-84315302D01*
X130439500Y-84724697D01*
X130442356Y-84760991D01*
X130442357Y-84760997D01*
X130487504Y-84916390D01*
X130487507Y-84916397D01*
X130499910Y-84937370D01*
X130517093Y-85005094D01*
X130499912Y-85063608D01*
X130487969Y-85083803D01*
X130442854Y-85239089D01*
X130442854Y-85239092D01*
X130440000Y-85275355D01*
X130440000Y-85330000D01*
X132059999Y-85330000D01*
X132059999Y-85275375D01*
X132059998Y-85275350D01*
X132057145Y-85239088D01*
X132012031Y-85083804D01*
X132000090Y-85063613D01*
X131982906Y-84995889D01*
X132000089Y-84937369D01*
X132012494Y-84916395D01*
X132057643Y-84760993D01*
X132060500Y-84724690D01*
X132060500Y-84630000D01*
X138190001Y-84630000D01*
X138190001Y-84684649D01*
X138192854Y-84720910D01*
X138237969Y-84876196D01*
X138320278Y-85015374D01*
X138320285Y-85015383D01*
X138434616Y-85129714D01*
X138434625Y-85129721D01*
X138573803Y-85212030D01*
X138729090Y-85257145D01*
X138765362Y-85259999D01*
X138849999Y-85259998D01*
X138850000Y-85259998D01*
X138850000Y-84630000D01*
X139150000Y-84630000D01*
X139150000Y-85259999D01*
X139234624Y-85259999D01*
X139234649Y-85259998D01*
X139270910Y-85257145D01*
X139426196Y-85212030D01*
X139565374Y-85129721D01*
X139565383Y-85129714D01*
X139679714Y-85015383D01*
X139679721Y-85015374D01*
X139762030Y-84876196D01*
X139807145Y-84720910D01*
X139807145Y-84720907D01*
X139809999Y-84684644D01*
X139810000Y-84684629D01*
X139810000Y-84630000D01*
X139150000Y-84630000D01*
X138850000Y-84630000D01*
X138190001Y-84630000D01*
X132060500Y-84630000D01*
X132060500Y-84315310D01*
X132057643Y-84279007D01*
X132051275Y-84257090D01*
X132012495Y-84123609D01*
X132012494Y-84123605D01*
X132012491Y-84123600D01*
X132009396Y-84116446D01*
X132011067Y-84115722D01*
X131996312Y-84057585D01*
X132003184Y-84021227D01*
X132035368Y-83929255D01*
X132036818Y-83916392D01*
X132053966Y-83764192D01*
X132081032Y-83699778D01*
X132138627Y-83660223D01*
X132142561Y-83659007D01*
X132157887Y-83654555D01*
X132291198Y-83575715D01*
X132400715Y-83466198D01*
X132479555Y-83332887D01*
X132522765Y-83184156D01*
X132525500Y-83149405D01*
X132525499Y-82800596D01*
X132522765Y-82765844D01*
X132499159Y-82684591D01*
X132499159Y-82615407D01*
X132522765Y-82534156D01*
X132525500Y-82499405D01*
X132525500Y-82399500D01*
X132545185Y-82332462D01*
X132597989Y-82286707D01*
X132649500Y-82275501D01*
X132654054Y-82275501D01*
X132654057Y-82275501D01*
X132806785Y-82234577D01*
X132861472Y-82203003D01*
X132943716Y-82155520D01*
X133055520Y-82043716D01*
X133055520Y-82043714D01*
X133065724Y-82033511D01*
X133065728Y-82033506D01*
X134262821Y-80836412D01*
X134324142Y-80802929D01*
X134393834Y-80807913D01*
X134449767Y-80849785D01*
X134474184Y-80915249D01*
X134474500Y-80924095D01*
X134474500Y-81199393D01*
X134474501Y-81199415D01*
X134477234Y-81234154D01*
X134500839Y-81315406D01*
X134500839Y-81384591D01*
X134477236Y-81465837D01*
X134477234Y-81465849D01*
X134474500Y-81500589D01*
X134474500Y-81849393D01*
X134474501Y-81849415D01*
X134477234Y-81884154D01*
X134500839Y-81965406D01*
X134500839Y-82034591D01*
X134477236Y-82115837D01*
X134477234Y-82115849D01*
X134474500Y-82150589D01*
X134474500Y-82499393D01*
X134474501Y-82499415D01*
X134477234Y-82534154D01*
X134500839Y-82615406D01*
X134500839Y-82684591D01*
X134477236Y-82765837D01*
X134477234Y-82765849D01*
X134474500Y-82800589D01*
X134474500Y-83149393D01*
X134474501Y-83149415D01*
X134477234Y-83184152D01*
X134477234Y-83184155D01*
X134477235Y-83184156D01*
X134520445Y-83332887D01*
X134520446Y-83332888D01*
X134599282Y-83466194D01*
X134599289Y-83466203D01*
X134708796Y-83575710D01*
X134708805Y-83575717D01*
X134710616Y-83576788D01*
X134842113Y-83654555D01*
X134990844Y-83697765D01*
X135025595Y-83700500D01*
X136238664Y-83700499D01*
X136253106Y-83701342D01*
X136256399Y-83701729D01*
X136374772Y-83701657D01*
X136392125Y-83699600D01*
X136461015Y-83711257D01*
X136494401Y-83735057D01*
X136725886Y-83966542D01*
X136777397Y-84018053D01*
X136823459Y-84064115D01*
X136938182Y-84140771D01*
X136938195Y-84140778D01*
X137005069Y-84168478D01*
X137035370Y-84181029D01*
X137065671Y-84193580D01*
X137065674Y-84193580D01*
X137065679Y-84193582D01*
X137092545Y-84198925D01*
X137092551Y-84198926D01*
X137092591Y-84198934D01*
X137182937Y-84216905D01*
X137201006Y-84220500D01*
X137201007Y-84220500D01*
X138066000Y-84220500D01*
X138133039Y-84240185D01*
X138178794Y-84292989D01*
X138185968Y-84325968D01*
X138190000Y-84330000D01*
X139809999Y-84330000D01*
X139809999Y-84275375D01*
X139809998Y-84275350D01*
X139807145Y-84239088D01*
X139762031Y-84083804D01*
X139750090Y-84063613D01*
X139732906Y-83995889D01*
X139750089Y-83937369D01*
X139762494Y-83916395D01*
X139764379Y-83909908D01*
X139801983Y-83851021D01*
X139865455Y-83821813D01*
X139883456Y-83820499D01*
X140179168Y-83820499D01*
X140179180Y-83820499D01*
X140215204Y-83817665D01*
X140369393Y-83772869D01*
X140426882Y-83738869D01*
X140494602Y-83721688D01*
X140553117Y-83738869D01*
X140610607Y-83772869D01*
X140610610Y-83772869D01*
X140610612Y-83772871D01*
X140764791Y-83817664D01*
X140764794Y-83817664D01*
X140764796Y-83817665D01*
X140800819Y-83820500D01*
X141199180Y-83820499D01*
X141235204Y-83817665D01*
X141389393Y-83772869D01*
X141461141Y-83730436D01*
X141496306Y-83716362D01*
X141512433Y-83712630D01*
X141520527Y-83711038D01*
X141539130Y-83708026D01*
X141547436Y-83706970D01*
X141575961Y-83704331D01*
X141599453Y-83701432D01*
X141614630Y-83700500D01*
X142915324Y-83700500D01*
X142939376Y-83703500D01*
X142939462Y-83703023D01*
X142943815Y-83703800D01*
X142943820Y-83703802D01*
X143060291Y-83716122D01*
X143069794Y-83717503D01*
X143173635Y-83736726D01*
X143182761Y-83738775D01*
X143188755Y-83740360D01*
X143288922Y-83766849D01*
X143297491Y-83769451D01*
X143387685Y-83800458D01*
X143444680Y-83840867D01*
X143470782Y-83905677D01*
X143457701Y-83974312D01*
X143412466Y-84023258D01*
X143356656Y-84057682D01*
X143232684Y-84181654D01*
X143140643Y-84330875D01*
X143140641Y-84330880D01*
X143085494Y-84497302D01*
X143085493Y-84497309D01*
X143075000Y-84600013D01*
X143075000Y-84850000D01*
X144103590Y-84850000D01*
X144100556Y-84855255D01*
X144075000Y-84950630D01*
X144075000Y-85049370D01*
X144100556Y-85144745D01*
X144103590Y-85150000D01*
X143075001Y-85150000D01*
X143075001Y-85399986D01*
X143085494Y-85502697D01*
X143140641Y-85669119D01*
X143140643Y-85669124D01*
X143232684Y-85818345D01*
X143356654Y-85942315D01*
X143505875Y-86034356D01*
X143505880Y-86034358D01*
X143672302Y-86089505D01*
X143672309Y-86089506D01*
X143775019Y-86099999D01*
X144299999Y-86099999D01*
X144300000Y-86099998D01*
X144300000Y-85346410D01*
X144305255Y-85349444D01*
X144400630Y-85375000D01*
X144499370Y-85375000D01*
X144594745Y-85349444D01*
X144600000Y-85346410D01*
X144600000Y-86099999D01*
X145124972Y-86099999D01*
X145124986Y-86099998D01*
X145227697Y-86089505D01*
X145394119Y-86034358D01*
X145394124Y-86034356D01*
X145543345Y-85942315D01*
X145667315Y-85818345D01*
X145759356Y-85669124D01*
X145759358Y-85669119D01*
X145814505Y-85502697D01*
X145814506Y-85502690D01*
X145824999Y-85399986D01*
X145825000Y-85399973D01*
X145825000Y-85150000D01*
X144796410Y-85150000D01*
X144799444Y-85144745D01*
X144825000Y-85049370D01*
X144825000Y-84950630D01*
X144799444Y-84855255D01*
X144796410Y-84850000D01*
X145824999Y-84850000D01*
X145824999Y-84600028D01*
X145824998Y-84600013D01*
X145814505Y-84497302D01*
X145759358Y-84330880D01*
X145759356Y-84330875D01*
X145667315Y-84181654D01*
X145543343Y-84057682D01*
X145479093Y-84018053D01*
X145432368Y-83966105D01*
X145421145Y-83897143D01*
X145448988Y-83833061D01*
X145456486Y-83824855D01*
X145564414Y-83716928D01*
X145666232Y-83576788D01*
X145744873Y-83422445D01*
X145798402Y-83257701D01*
X145825500Y-83086611D01*
X145825500Y-82913389D01*
X145798402Y-82742299D01*
X145744873Y-82577555D01*
X145666232Y-82423212D01*
X145564414Y-82283072D01*
X145441928Y-82160586D01*
X145358974Y-82100316D01*
X145316311Y-82044988D01*
X145310332Y-81975374D01*
X145342938Y-81913579D01*
X145358976Y-81899682D01*
X145441928Y-81839414D01*
X145564414Y-81716928D01*
X145666232Y-81576788D01*
X145744873Y-81422445D01*
X145798402Y-81257701D01*
X145825500Y-81086611D01*
X145825500Y-80913389D01*
X145798402Y-80742299D01*
X145744873Y-80577555D01*
X145666232Y-80423212D01*
X145564414Y-80283072D01*
X145441928Y-80160586D01*
X145358974Y-80100316D01*
X145316311Y-80044988D01*
X145310332Y-79975374D01*
X145342938Y-79913579D01*
X145358976Y-79899682D01*
X145441928Y-79839414D01*
X145564414Y-79716928D01*
X145666232Y-79576788D01*
X145744873Y-79422445D01*
X145798402Y-79257701D01*
X145825500Y-79086611D01*
X145825500Y-78913389D01*
X145798402Y-78742299D01*
X145744873Y-78577555D01*
X145666232Y-78423212D01*
X145564414Y-78283072D01*
X145441928Y-78160586D01*
X145301788Y-78058768D01*
X145147445Y-77980127D01*
X144982701Y-77926598D01*
X144982699Y-77926597D01*
X144982698Y-77926597D01*
X144851271Y-77905781D01*
X144811611Y-77899500D01*
X144088389Y-77899500D01*
X144048728Y-77905781D01*
X143917302Y-77926597D01*
X143752552Y-77980128D01*
X143598211Y-78058768D01*
X143533043Y-78106116D01*
X143458072Y-78160586D01*
X143458070Y-78160588D01*
X143458069Y-78160588D01*
X143335588Y-78283069D01*
X143335588Y-78283070D01*
X143335586Y-78283072D01*
X143309649Y-78318771D01*
X143233768Y-78423211D01*
X143155128Y-78577552D01*
X143155127Y-78577554D01*
X143155127Y-78577555D01*
X143139344Y-78626130D01*
X143101597Y-78742302D01*
X143094219Y-78788886D01*
X143074500Y-78913389D01*
X143074500Y-79086611D01*
X143080391Y-79123803D01*
X143100673Y-79251865D01*
X143101598Y-79257701D01*
X143155127Y-79422445D01*
X143233768Y-79576788D01*
X143335586Y-79716928D01*
X143458072Y-79839414D01*
X143541024Y-79899682D01*
X143583688Y-79955011D01*
X143589667Y-80024624D01*
X143557061Y-80086419D01*
X143541024Y-80100316D01*
X143458074Y-80160584D01*
X143458060Y-80160595D01*
X143456096Y-80162560D01*
X143454511Y-80163627D01*
X143454369Y-80163749D01*
X143454355Y-80163732D01*
X143416760Y-80189057D01*
X143414598Y-80189972D01*
X143406585Y-80193041D01*
X143297555Y-80230526D01*
X143288941Y-80233142D01*
X143182750Y-80261224D01*
X143173621Y-80263273D01*
X143069815Y-80282491D01*
X143060288Y-80283875D01*
X142943810Y-80296197D01*
X142927223Y-80298411D01*
X142910825Y-80299500D01*
X141606600Y-80299500D01*
X141577720Y-80296090D01*
X141575960Y-80295668D01*
X141575956Y-80295667D01*
X141547493Y-80293033D01*
X141539104Y-80291967D01*
X141520575Y-80288967D01*
X141512436Y-80287368D01*
X141496297Y-80283633D01*
X141461135Y-80269558D01*
X141389395Y-80227132D01*
X141389388Y-80227129D01*
X141235208Y-80182335D01*
X141235202Y-80182334D01*
X141199181Y-80179500D01*
X140800830Y-80179500D01*
X140800808Y-80179501D01*
X140764794Y-80182335D01*
X140610611Y-80227129D01*
X140610604Y-80227132D01*
X140553119Y-80261128D01*
X140485395Y-80278309D01*
X140426881Y-80261128D01*
X140369395Y-80227132D01*
X140369388Y-80227129D01*
X140215208Y-80182335D01*
X140215202Y-80182334D01*
X140179188Y-80179500D01*
X140179181Y-80179500D01*
X139883456Y-80179500D01*
X139816417Y-80159815D01*
X139770662Y-80107011D01*
X139764379Y-80090094D01*
X139763312Y-80086421D01*
X139762494Y-80083605D01*
X139750089Y-80062630D01*
X139732906Y-79994909D01*
X139750091Y-79936384D01*
X139762032Y-79916194D01*
X139807144Y-79760913D01*
X139807145Y-79760907D01*
X139809999Y-79724644D01*
X139810000Y-79724629D01*
X139810000Y-79670000D01*
X138190001Y-79670000D01*
X138183973Y-79676027D01*
X138170316Y-79722539D01*
X138117512Y-79768294D01*
X138066001Y-79779500D01*
X137201005Y-79779500D01*
X137145576Y-79790526D01*
X137104714Y-79798654D01*
X137073436Y-79804875D01*
X137065670Y-79806420D01*
X137043634Y-79815548D01*
X136938191Y-79859223D01*
X136849513Y-79918477D01*
X136825488Y-79934530D01*
X136824467Y-79935212D01*
X136823458Y-79935886D01*
X136494400Y-80264942D01*
X136433077Y-80298426D01*
X136392130Y-80300399D01*
X136374760Y-80298341D01*
X136374767Y-80298341D01*
X136256998Y-80298263D01*
X136256456Y-80298263D01*
X136256455Y-80298263D01*
X136256449Y-80298263D01*
X136256448Y-80298263D01*
X136253090Y-80298657D01*
X136238659Y-80299500D01*
X135099097Y-80299500D01*
X135032058Y-80279815D01*
X134986303Y-80227011D01*
X134976359Y-80157853D01*
X135005384Y-80094297D01*
X135011389Y-80087846D01*
X135118020Y-79981216D01*
X135197077Y-79844284D01*
X135233009Y-79710185D01*
X135238000Y-79691558D01*
X135238000Y-79594932D01*
X135257685Y-79527893D01*
X135310489Y-79482138D01*
X135327393Y-79475859D01*
X135410398Y-79451744D01*
X135548620Y-79370000D01*
X138190000Y-79370000D01*
X138850000Y-79370000D01*
X138850000Y-78740000D01*
X139150000Y-78740000D01*
X139150000Y-79370000D01*
X139809999Y-79370000D01*
X139809999Y-79315375D01*
X139809998Y-79315350D01*
X139807145Y-79279089D01*
X139762030Y-79123803D01*
X139679721Y-78984625D01*
X139679714Y-78984616D01*
X139565383Y-78870285D01*
X139565374Y-78870278D01*
X139426196Y-78787969D01*
X139270909Y-78742854D01*
X139234644Y-78740000D01*
X139150000Y-78740000D01*
X138850000Y-78740000D01*
X138849999Y-78739999D01*
X138765375Y-78740000D01*
X138765351Y-78740001D01*
X138729089Y-78742854D01*
X138573803Y-78787969D01*
X138434625Y-78870278D01*
X138434616Y-78870285D01*
X138320285Y-78984616D01*
X138320278Y-78984625D01*
X138237969Y-79123803D01*
X138192854Y-79279089D01*
X138192854Y-79279092D01*
X138190000Y-79315355D01*
X138190000Y-79370000D01*
X135548620Y-79370000D01*
X135551865Y-79368081D01*
X135668081Y-79251865D01*
X135751744Y-79110398D01*
X135797598Y-78952569D01*
X135800500Y-78915694D01*
X135800500Y-78673464D01*
X135820185Y-78606425D01*
X135872989Y-78560670D01*
X135942147Y-78550726D01*
X135959095Y-78554388D01*
X136004791Y-78567664D01*
X136004794Y-78567664D01*
X136004796Y-78567665D01*
X136040819Y-78570500D01*
X136439180Y-78570499D01*
X136475204Y-78567665D01*
X136629393Y-78522869D01*
X136686882Y-78488869D01*
X136754602Y-78471688D01*
X136813117Y-78488869D01*
X136870607Y-78522869D01*
X136870610Y-78522869D01*
X136870612Y-78522871D01*
X137024791Y-78567664D01*
X137024794Y-78567664D01*
X137024796Y-78567665D01*
X137060819Y-78570500D01*
X137459180Y-78570499D01*
X137495204Y-78567665D01*
X137649393Y-78522869D01*
X137650166Y-78522411D01*
X137650852Y-78522237D01*
X137656552Y-78519771D01*
X137656949Y-78520690D01*
X137717888Y-78505225D01*
X137754243Y-78512098D01*
X137820745Y-78535368D01*
X137820749Y-78535368D01*
X137820753Y-78535369D01*
X137999996Y-78555565D01*
X138000000Y-78555565D01*
X138000004Y-78555565D01*
X138179249Y-78535369D01*
X138179252Y-78535368D01*
X138179255Y-78535368D01*
X138349522Y-78475789D01*
X138502262Y-78379816D01*
X138629816Y-78252262D01*
X138725789Y-78099522D01*
X138785368Y-77929255D01*
X138785636Y-77926876D01*
X138805565Y-77750003D01*
X138805565Y-77749996D01*
X138785369Y-77570750D01*
X138785368Y-77570745D01*
X138766489Y-77516791D01*
X138725789Y-77400478D01*
X138629816Y-77247738D01*
X138502262Y-77120184D01*
X138448831Y-77086611D01*
X138349521Y-77024210D01*
X138179252Y-76964631D01*
X138179246Y-76964630D01*
X138127003Y-76958744D01*
X138062589Y-76931678D01*
X138053205Y-76923205D01*
X138030000Y-76900000D01*
X137234000Y-76900000D01*
X137166961Y-76880315D01*
X137121206Y-76827511D01*
X137110000Y-76776000D01*
X137110000Y-75930000D01*
X137410000Y-75930000D01*
X137410000Y-76600000D01*
X138030000Y-76600000D01*
X138030000Y-76500879D01*
X138029999Y-76500864D01*
X138027167Y-76464876D01*
X138027166Y-76464870D01*
X137982407Y-76310811D01*
X137982406Y-76310808D01*
X137900738Y-76172714D01*
X137900731Y-76172705D01*
X137787294Y-76059268D01*
X137787285Y-76059261D01*
X137649191Y-75977593D01*
X137649188Y-75977592D01*
X137495129Y-75932833D01*
X137495123Y-75932832D01*
X137459135Y-75930000D01*
X137410000Y-75930000D01*
X137110000Y-75930000D01*
X137060864Y-75930000D01*
X137024876Y-75932832D01*
X137024870Y-75932833D01*
X136870812Y-75977592D01*
X136870807Y-75977593D01*
X136813611Y-76011419D01*
X136745886Y-76028600D01*
X136687371Y-76011419D01*
X136651153Y-75990000D01*
X136629393Y-75977131D01*
X136629392Y-75977130D01*
X136629391Y-75977130D01*
X136629388Y-75977129D01*
X136475208Y-75932335D01*
X136475202Y-75932334D01*
X136439181Y-75929500D01*
X136040830Y-75929500D01*
X136040808Y-75929501D01*
X136004794Y-75932335D01*
X135850611Y-75977129D01*
X135850606Y-75977131D01*
X135712407Y-76058861D01*
X135712397Y-76058869D01*
X135675427Y-76095838D01*
X135614103Y-76129322D01*
X135544412Y-76124336D01*
X135519542Y-76111711D01*
X135491124Y-76092994D01*
X135491120Y-76092991D01*
X135450622Y-76070009D01*
X135432893Y-76059948D01*
X135431485Y-76059268D01*
X135426761Y-76056986D01*
X135426815Y-76056874D01*
X135415147Y-76051064D01*
X135410398Y-76048256D01*
X135410397Y-76048255D01*
X135410396Y-76048255D01*
X135344290Y-76029049D01*
X135338692Y-76027278D01*
X135315829Y-76019444D01*
X135307847Y-76017836D01*
X135307964Y-76017254D01*
X135296975Y-76015303D01*
X135252567Y-76002401D01*
X135215701Y-75999500D01*
X135215694Y-75999500D01*
X134059306Y-75999500D01*
X134059298Y-75999500D01*
X134022432Y-76002401D01*
X134022426Y-76002402D01*
X133864606Y-76048254D01*
X133864603Y-76048255D01*
X133723137Y-76131917D01*
X133723129Y-76131923D01*
X133647746Y-76207307D01*
X133586423Y-76240792D01*
X133527971Y-76239401D01*
X133479757Y-76226482D01*
X133379057Y-76199499D01*
X133379055Y-76199499D01*
X133371206Y-76197396D01*
X133371766Y-76195305D01*
X133334218Y-76181460D01*
X133323001Y-76174190D01*
X133302764Y-76157818D01*
X133276865Y-76131919D01*
X133272474Y-76129322D01*
X133219657Y-76098085D01*
X133215217Y-76095331D01*
X133176245Y-76070007D01*
X133176240Y-76070004D01*
X133172711Y-76068121D01*
X133168767Y-76066358D01*
X133168842Y-76066188D01*
X133153143Y-76058750D01*
X133135396Y-76048255D01*
X133135395Y-76048254D01*
X133056847Y-76025434D01*
X133048847Y-76022812D01*
X133040665Y-76019819D01*
X133040664Y-76019818D01*
X133040662Y-76019818D01*
X133040659Y-76019817D01*
X133033369Y-76018268D01*
X133024562Y-76016055D01*
X132977570Y-76002402D01*
X132977567Y-76002401D01*
X132940701Y-75999500D01*
X132940694Y-75999500D01*
X131784306Y-75999500D01*
X131784298Y-75999500D01*
X131747432Y-76002401D01*
X131747426Y-76002402D01*
X131589606Y-76048254D01*
X131589605Y-76048254D01*
X131453855Y-76128535D01*
X131386131Y-76145716D01*
X131319868Y-76123556D01*
X131315556Y-76120386D01*
X131176196Y-76037969D01*
X131020909Y-75992854D01*
X130984644Y-75990000D01*
X130900000Y-75990000D01*
X130900000Y-76796000D01*
X130880315Y-76863039D01*
X130827511Y-76908794D01*
X130776000Y-76920000D01*
X129940001Y-76920000D01*
X129940001Y-76974649D01*
X129942854Y-77010910D01*
X129987968Y-77166195D01*
X129999911Y-77186389D01*
X130017092Y-77254113D01*
X129999908Y-77312633D01*
X129991101Y-77327524D01*
X129940031Y-77375206D01*
X129871289Y-77387708D01*
X129806700Y-77361061D01*
X129776980Y-77326393D01*
X129774536Y-77322160D01*
X129774536Y-77322159D01*
X129678282Y-77196718D01*
X129552841Y-77100464D01*
X129406762Y-77039956D01*
X129406760Y-77039955D01*
X129289370Y-77024501D01*
X129289367Y-77024500D01*
X129289361Y-77024500D01*
X129289354Y-77024500D01*
X127935636Y-77024500D01*
X127818246Y-77039953D01*
X127818237Y-77039956D01*
X127672160Y-77100463D01*
X127546718Y-77196718D01*
X127450463Y-77322160D01*
X127389956Y-77468237D01*
X127389955Y-77468239D01*
X127374500Y-77585638D01*
X127374500Y-77864363D01*
X127389953Y-77981753D01*
X127389957Y-77981765D01*
X127398566Y-78002550D01*
X127406033Y-78072019D01*
X127398566Y-78097450D01*
X127389957Y-78118234D01*
X127389955Y-78118239D01*
X127374500Y-78235638D01*
X127374500Y-78514363D01*
X127389953Y-78631753D01*
X127389956Y-78631762D01*
X127398837Y-78653203D01*
X127406304Y-78722673D01*
X127398838Y-78748101D01*
X127390444Y-78768367D01*
X127376405Y-78875000D01*
X127467767Y-78875000D01*
X127534806Y-78894685D01*
X127543253Y-78900624D01*
X127611021Y-78952624D01*
X127652224Y-79009052D01*
X127656379Y-79078798D01*
X127622167Y-79139718D01*
X127560450Y-79172471D01*
X127535535Y-79175000D01*
X127376408Y-79175000D01*
X127376406Y-79175001D01*
X127390442Y-79281627D01*
X127390443Y-79281629D01*
X127399108Y-79302549D01*
X127406576Y-79372018D01*
X127399109Y-79397449D01*
X127390444Y-79418369D01*
X127376405Y-79525000D01*
X128462500Y-79525000D01*
X128462500Y-79199499D01*
X128482185Y-79132460D01*
X128534989Y-79086705D01*
X128586497Y-79075499D01*
X128638501Y-79075499D01*
X128705539Y-79095184D01*
X128751294Y-79147988D01*
X128762500Y-79199499D01*
X128762500Y-80800500D01*
X128742815Y-80867539D01*
X128690011Y-80913294D01*
X128638500Y-80924500D01*
X128586500Y-80924500D01*
X128519461Y-80904815D01*
X128473706Y-80852011D01*
X128462500Y-80800500D01*
X128462500Y-80475000D01*
X127376408Y-80475000D01*
X127376406Y-80475001D01*
X127390442Y-80581627D01*
X127390443Y-80581629D01*
X127399108Y-80602549D01*
X127406576Y-80672018D01*
X127399109Y-80697449D01*
X127390444Y-80718369D01*
X127375834Y-80829341D01*
X127400319Y-80882124D01*
X127390787Y-80951340D01*
X127345346Y-81004415D01*
X127278425Y-81024498D01*
X127277688Y-81024500D01*
X125925097Y-81024500D01*
X125858058Y-81004815D01*
X125837416Y-80988181D01*
X125136819Y-80287584D01*
X125103334Y-80226261D01*
X125100500Y-80199903D01*
X125100500Y-80175000D01*
X127376405Y-80175000D01*
X128462500Y-80175000D01*
X128462500Y-79825000D01*
X127376408Y-79825000D01*
X127376406Y-79825001D01*
X127390442Y-79931627D01*
X127390443Y-79931629D01*
X127399108Y-79952549D01*
X127406576Y-80022018D01*
X127399109Y-80047449D01*
X127390444Y-80068369D01*
X127376405Y-80175000D01*
X125100500Y-80175000D01*
X125100500Y-77589060D01*
X125100501Y-77589047D01*
X125100501Y-77420944D01*
X125095017Y-77400478D01*
X125059577Y-77268216D01*
X125018298Y-77196718D01*
X124980524Y-77131290D01*
X124980518Y-77131282D01*
X124469236Y-76620000D01*
X129940000Y-76620000D01*
X130600000Y-76620000D01*
X130600000Y-75990000D01*
X130599999Y-75989999D01*
X130515375Y-75990000D01*
X130515351Y-75990001D01*
X130479089Y-75992854D01*
X130323803Y-76037969D01*
X130184625Y-76120278D01*
X130184616Y-76120285D01*
X130070285Y-76234616D01*
X130070278Y-76234625D01*
X129987969Y-76373803D01*
X129942854Y-76529089D01*
X129942854Y-76529092D01*
X129940000Y-76565355D01*
X129940000Y-76620000D01*
X124469236Y-76620000D01*
X124368717Y-76519481D01*
X124368709Y-76519475D01*
X124273594Y-76464561D01*
X124273592Y-76464560D01*
X124231790Y-76440425D01*
X124231789Y-76440424D01*
X124219263Y-76437067D01*
X124079057Y-76399499D01*
X123920943Y-76399499D01*
X123913347Y-76399499D01*
X123913331Y-76399500D01*
X119001547Y-76399500D01*
X118934508Y-76379815D01*
X118932542Y-76378525D01*
X118917836Y-76368668D01*
X118906525Y-76360111D01*
X118867480Y-76326891D01*
X118858808Y-76318765D01*
X118850898Y-76310607D01*
X118799111Y-76257194D01*
X118785399Y-76243583D01*
X118784748Y-76242961D01*
X118782878Y-76241419D01*
X118774110Y-76233453D01*
X118710185Y-76169528D01*
X118564606Y-76081522D01*
X118402196Y-76030914D01*
X118402194Y-76030913D01*
X118402192Y-76030913D01*
X118352778Y-76026423D01*
X118331616Y-76024500D01*
X117818384Y-76024500D01*
X117799145Y-76026248D01*
X117747807Y-76030913D01*
X117585393Y-76081522D01*
X117439811Y-76169530D01*
X117439810Y-76169531D01*
X117337681Y-76271661D01*
X117276358Y-76305146D01*
X117206666Y-76300162D01*
X117162319Y-76271661D01*
X117060188Y-76169530D01*
X117055900Y-76166938D01*
X116914606Y-76081522D01*
X116752196Y-76030914D01*
X116752194Y-76030913D01*
X116752192Y-76030913D01*
X116702778Y-76026423D01*
X116681616Y-76024500D01*
X116168384Y-76024500D01*
X116149145Y-76026248D01*
X116097807Y-76030913D01*
X115935393Y-76081522D01*
X115789818Y-76169525D01*
X115712025Y-76247316D01*
X115704174Y-76254227D01*
X115704189Y-76254243D01*
X115700889Y-76257192D01*
X115641183Y-76318771D01*
X115632511Y-76326896D01*
X115593471Y-76360111D01*
X115582161Y-76368669D01*
X115575517Y-76373122D01*
X115567491Y-76378501D01*
X115500846Y-76399477D01*
X115498451Y-76399500D01*
X115094618Y-76399500D01*
X115075187Y-76397968D01*
X115007465Y-76387222D01*
X114976756Y-76382349D01*
X114963013Y-76379360D01*
X114878647Y-76355933D01*
X114866100Y-76351716D01*
X114774949Y-76315557D01*
X114763839Y-76310503D01*
X114665204Y-76259637D01*
X114655587Y-76254120D01*
X114612044Y-76226482D01*
X114590814Y-76209472D01*
X114556508Y-76175166D01*
X114523023Y-76113843D01*
X114528007Y-76044151D01*
X114569879Y-75988218D01*
X114579094Y-75981945D01*
X114643345Y-75942315D01*
X114767315Y-75818345D01*
X114859356Y-75669124D01*
X114859358Y-75669119D01*
X114914505Y-75502697D01*
X114914506Y-75502690D01*
X114924999Y-75399986D01*
X114925000Y-75399973D01*
X114925000Y-75150000D01*
X113896410Y-75150000D01*
X113899444Y-75144745D01*
X113925000Y-75049370D01*
X113925000Y-74950630D01*
X113899444Y-74855255D01*
X113896410Y-74850000D01*
X114924999Y-74850000D01*
X114924999Y-74600028D01*
X114924998Y-74600013D01*
X114914505Y-74497302D01*
X114859358Y-74330880D01*
X114859356Y-74330875D01*
X114767315Y-74181654D01*
X114643345Y-74057684D01*
X114494124Y-73965643D01*
X114494119Y-73965641D01*
X114327697Y-73910494D01*
X114327690Y-73910493D01*
X114224986Y-73900000D01*
X113700000Y-73900000D01*
X113700000Y-74653589D01*
X113694745Y-74650556D01*
X113599370Y-74625000D01*
X113500630Y-74625000D01*
X113405255Y-74650556D01*
X113400000Y-74653589D01*
X113400000Y-73900000D01*
X112875028Y-73900000D01*
X112875012Y-73900001D01*
X112772302Y-73910494D01*
X112605880Y-73965641D01*
X112605875Y-73965643D01*
X112456654Y-74057684D01*
X112332684Y-74181654D01*
X112240643Y-74330875D01*
X112240641Y-74330880D01*
X112185494Y-74497302D01*
X112185493Y-74497309D01*
X112175000Y-74600013D01*
X112175000Y-74850000D01*
X113203590Y-74850000D01*
X113200556Y-74855255D01*
X113175000Y-74950630D01*
X113175000Y-75049370D01*
X113200556Y-75144745D01*
X113203590Y-75150000D01*
X112175001Y-75150000D01*
X112175001Y-75399986D01*
X112185494Y-75502697D01*
X112240641Y-75669119D01*
X112240643Y-75669124D01*
X112332684Y-75818345D01*
X112456656Y-75942317D01*
X112520906Y-75981946D01*
X112567631Y-76033893D01*
X112578854Y-76102856D01*
X112551011Y-76166938D01*
X112543492Y-76175166D01*
X112435585Y-76283073D01*
X112333768Y-76423211D01*
X112255128Y-76577552D01*
X112201597Y-76742302D01*
X112174500Y-76913389D01*
X112174500Y-77086610D01*
X112201029Y-77254113D01*
X112201598Y-77257701D01*
X112255127Y-77422445D01*
X112333768Y-77576788D01*
X112435586Y-77716928D01*
X112558072Y-77839414D01*
X112575257Y-77851899D01*
X112641023Y-77899683D01*
X112683689Y-77955013D01*
X112689667Y-78024626D01*
X112657061Y-78086421D01*
X112641023Y-78100317D01*
X112558078Y-78160581D01*
X112558069Y-78160588D01*
X112435588Y-78283069D01*
X112435588Y-78283070D01*
X112435586Y-78283072D01*
X112409649Y-78318771D01*
X112333768Y-78423211D01*
X112255128Y-78577552D01*
X112255127Y-78577554D01*
X112255127Y-78577555D01*
X112239344Y-78626130D01*
X112201597Y-78742302D01*
X112194219Y-78788886D01*
X112174500Y-78913389D01*
X112174500Y-79086611D01*
X112180391Y-79123803D01*
X112200673Y-79251865D01*
X112201598Y-79257701D01*
X112255127Y-79422445D01*
X112333768Y-79576788D01*
X112435586Y-79716928D01*
X112558072Y-79839414D01*
X112575257Y-79851899D01*
X112641023Y-79899683D01*
X112683689Y-79955013D01*
X112689667Y-80024626D01*
X112657061Y-80086421D01*
X112641023Y-80100317D01*
X112558078Y-80160581D01*
X112558069Y-80160588D01*
X112435588Y-80283069D01*
X112435588Y-80283070D01*
X112435586Y-80283072D01*
X112400385Y-80331522D01*
X112333768Y-80423211D01*
X112255128Y-80577552D01*
X112201597Y-80742302D01*
X112174500Y-80913389D01*
X112174500Y-81086610D01*
X112197868Y-81234154D01*
X112201598Y-81257701D01*
X112255127Y-81422445D01*
X112333768Y-81576788D01*
X112435586Y-81716928D01*
X112558072Y-81839414D01*
X112558078Y-81839418D01*
X112641023Y-81899683D01*
X112683689Y-81955013D01*
X112689667Y-82024626D01*
X112657061Y-82086421D01*
X112641023Y-82100317D01*
X112558078Y-82160581D01*
X112558069Y-82160588D01*
X112435588Y-82283069D01*
X112435588Y-82283070D01*
X112435586Y-82283072D01*
X112404114Y-82326389D01*
X112333768Y-82423211D01*
X112255128Y-82577552D01*
X112201597Y-82742302D01*
X112174500Y-82913389D01*
X112174500Y-83086610D01*
X112189949Y-83184156D01*
X112201598Y-83257701D01*
X112255127Y-83422445D01*
X112333768Y-83576788D01*
X112435586Y-83716928D01*
X112558072Y-83839414D01*
X112558078Y-83839418D01*
X112641023Y-83899683D01*
X112683689Y-83955013D01*
X112689667Y-84024626D01*
X112657061Y-84086421D01*
X112641023Y-84100317D01*
X112558078Y-84160581D01*
X112558069Y-84160588D01*
X112435588Y-84283069D01*
X112435588Y-84283070D01*
X112435586Y-84283072D01*
X112409649Y-84318771D01*
X112333768Y-84423211D01*
X112255128Y-84577552D01*
X112201597Y-84742302D01*
X112180648Y-84874571D01*
X112174500Y-84913389D01*
X112174500Y-85086611D01*
X112181327Y-85129714D01*
X112199736Y-85245949D01*
X112201598Y-85257701D01*
X112255127Y-85422445D01*
X112333768Y-85576788D01*
X112435586Y-85716928D01*
X112558072Y-85839414D01*
X112572642Y-85850000D01*
X112641023Y-85899683D01*
X112683689Y-85955013D01*
X112689667Y-86024626D01*
X112657061Y-86086421D01*
X112641023Y-86100317D01*
X112558078Y-86160581D01*
X112558069Y-86160588D01*
X112435588Y-86283069D01*
X112435588Y-86283070D01*
X112435586Y-86283072D01*
X112391859Y-86343256D01*
X112333768Y-86423211D01*
X112255128Y-86577552D01*
X112201597Y-86742302D01*
X112190462Y-86812607D01*
X112174500Y-86913389D01*
X112174500Y-87086611D01*
X112182677Y-87138239D01*
X112197066Y-87229092D01*
X112201598Y-87257701D01*
X112255127Y-87422445D01*
X112333768Y-87576788D01*
X112435586Y-87716928D01*
X112558072Y-87839414D01*
X112558078Y-87839418D01*
X112641023Y-87899683D01*
X112683689Y-87955013D01*
X112689667Y-88024626D01*
X112657061Y-88086421D01*
X112641023Y-88100317D01*
X112558078Y-88160581D01*
X112558069Y-88160588D01*
X112435588Y-88283069D01*
X112435588Y-88283070D01*
X112435586Y-88283072D01*
X112401356Y-88330185D01*
X112333768Y-88423211D01*
X112255128Y-88577552D01*
X112201597Y-88742302D01*
X112177623Y-88893673D01*
X112174500Y-88913389D01*
X112174500Y-89086611D01*
X110500500Y-89086611D01*
X110500500Y-72081407D01*
X145173500Y-72081407D01*
X145205259Y-72241073D01*
X145205262Y-72241082D01*
X145267562Y-72391490D01*
X145267563Y-72391492D01*
X145358015Y-72526862D01*
X145358018Y-72526866D01*
X145473133Y-72641981D01*
X145473137Y-72641984D01*
X145608505Y-72732435D01*
X145608506Y-72732435D01*
X145608507Y-72732436D01*
X145608509Y-72732437D01*
X145708781Y-72773970D01*
X145758919Y-72794738D01*
X145758921Y-72794738D01*
X145758926Y-72794740D01*
X145918592Y-72826499D01*
X145918595Y-72826500D01*
X145918597Y-72826500D01*
X146081405Y-72826500D01*
X146081406Y-72826499D01*
X146134629Y-72815912D01*
X146241073Y-72794740D01*
X146241076Y-72794738D01*
X146241081Y-72794738D01*
X146391495Y-72732435D01*
X146526863Y-72641984D01*
X146641984Y-72526863D01*
X146732435Y-72391495D01*
X146794738Y-72241081D01*
X146826500Y-72081403D01*
X146826500Y-71918597D01*
X146826500Y-71918594D01*
X146826499Y-71918592D01*
X146794740Y-71758926D01*
X146794737Y-71758917D01*
X146732437Y-71608509D01*
X146732436Y-71608507D01*
X146641984Y-71473137D01*
X146641981Y-71473133D01*
X146526866Y-71358018D01*
X146526862Y-71358015D01*
X146391492Y-71267563D01*
X146391490Y-71267562D01*
X146241082Y-71205262D01*
X146241073Y-71205259D01*
X146081406Y-71173500D01*
X146081403Y-71173500D01*
X145918597Y-71173500D01*
X145918594Y-71173500D01*
X145758926Y-71205259D01*
X145758917Y-71205262D01*
X145608509Y-71267562D01*
X145608507Y-71267563D01*
X145473137Y-71358015D01*
X145473133Y-71358018D01*
X145358018Y-71473133D01*
X145358015Y-71473137D01*
X145267563Y-71608507D01*
X145267562Y-71608509D01*
X145205262Y-71758917D01*
X145205259Y-71758926D01*
X145173500Y-71918592D01*
X145173500Y-72081407D01*
X110500500Y-72081407D01*
X110500500Y-72004427D01*
X110500816Y-71995581D01*
X110506322Y-71918594D01*
X110515130Y-71795436D01*
X110517646Y-71777938D01*
X110559356Y-71586199D01*
X110564333Y-71569248D01*
X110632911Y-71385385D01*
X110640259Y-71369298D01*
X110695810Y-71267563D01*
X110734291Y-71197089D01*
X110743845Y-71182221D01*
X110861448Y-71025123D01*
X110873020Y-71011769D01*
X111011769Y-70873020D01*
X111025123Y-70861448D01*
X111182221Y-70743845D01*
X111197089Y-70734291D01*
X111369298Y-70640258D01*
X111385385Y-70632911D01*
X111569248Y-70564333D01*
X111586199Y-70559356D01*
X111777938Y-70517646D01*
X111795436Y-70515130D01*
X111995582Y-70500816D01*
X112004428Y-70500500D01*
X112065892Y-70500500D01*
X145934108Y-70500500D01*
X145995572Y-70500500D01*
X146004418Y-70500816D01*
G37*
%TD.AperFunction*%
%TD*%
%TA.AperFunction,Conductor*%
%TO.N,GND*%
G36*
X135541184Y-78089059D02*
G01*
X135620291Y-78132866D01*
X135698268Y-78156808D01*
X135790811Y-78180506D01*
X135913614Y-78223580D01*
X135799516Y-78501451D01*
X135521645Y-78615549D01*
X135500500Y-78555265D01*
X135500500Y-78516743D01*
X135500500Y-78516740D01*
X135490573Y-78448607D01*
X135439198Y-78343517D01*
X135439197Y-78343516D01*
X135439197Y-78343515D01*
X135439196Y-78343514D01*
X135436701Y-78341019D01*
X135430931Y-78322226D01*
X135387124Y-78243119D01*
X135303835Y-78147191D01*
X135445256Y-78005770D01*
X135541184Y-78089059D01*
G37*
%TD.AperFunction*%
%TD*%
%TA.AperFunction,Conductor*%
%TO.N,/DOUT*%
G36*
X118480658Y-80985182D02*
G01*
X118481224Y-80986095D01*
X118547163Y-81104349D01*
X118619332Y-81216012D01*
X118691516Y-81309929D01*
X118691524Y-81309938D01*
X118763687Y-81386067D01*
X118763695Y-81386075D01*
X118825766Y-81436278D01*
X118830043Y-81444144D01*
X118827505Y-81452732D01*
X118826681Y-81453647D01*
X118697678Y-81582650D01*
X118689900Y-81586067D01*
X118625865Y-81588778D01*
X118557281Y-81602621D01*
X118488701Y-81627400D01*
X118420133Y-81663111D01*
X118420120Y-81663119D01*
X118361762Y-81702819D01*
X118352994Y-81704639D01*
X118345507Y-81699726D01*
X118345158Y-81699180D01*
X118156641Y-81386067D01*
X118079983Y-81258745D01*
X118078652Y-81249891D01*
X118083394Y-81243059D01*
X118464396Y-80982139D01*
X118473156Y-80980292D01*
X118480658Y-80985182D01*
G37*
%TD.AperFunction*%
%TD*%
%TA.AperFunction,Conductor*%
%TO.N,GND*%
G36*
X119570236Y-78507996D02*
G01*
X119593934Y-78600539D01*
X119617876Y-78678517D01*
X119661683Y-78757623D01*
X119744974Y-78853553D01*
X119603553Y-78994974D01*
X119507623Y-78911683D01*
X119428517Y-78867876D01*
X119350539Y-78843934D01*
X119257996Y-78820236D01*
X119135195Y-78777164D01*
X119249293Y-78499293D01*
X119527164Y-78385195D01*
X119570236Y-78507996D01*
G37*
%TD.AperFunction*%
%TD*%
%TA.AperFunction,Conductor*%
%TO.N,+4V*%
G36*
X121719490Y-79297052D02*
G01*
X121720290Y-79297944D01*
X121783414Y-79375912D01*
X121784399Y-79377332D01*
X121830252Y-79455153D01*
X121873110Y-79518072D01*
X121934639Y-79559852D01*
X122026957Y-79573521D01*
X122034639Y-79578123D01*
X122036943Y-79585095D01*
X122036943Y-79763525D01*
X122033516Y-79771798D01*
X122025471Y-79775223D01*
X121903684Y-79777600D01*
X121809230Y-79783800D01*
X121727857Y-79791186D01*
X121727565Y-79791209D01*
X121633516Y-79797382D01*
X121632978Y-79797405D01*
X121511888Y-79799768D01*
X121503550Y-79796503D01*
X121499962Y-79788298D01*
X121499960Y-79788109D01*
X121499916Y-79775000D01*
X121499016Y-79504884D01*
X121502414Y-79496601D01*
X121702944Y-79297012D01*
X121711225Y-79293606D01*
X121719490Y-79297052D01*
G37*
%TD.AperFunction*%
%TD*%
%TA.AperFunction,Conductor*%
%TO.N,+4V*%
G36*
X121633011Y-80202595D02*
G01*
X121633481Y-80202615D01*
X121727626Y-80208794D01*
X121727790Y-80208807D01*
X121809237Y-80216200D01*
X121903697Y-80222400D01*
X122025471Y-80224776D01*
X122033676Y-80228364D01*
X122036943Y-80236474D01*
X122036943Y-80414904D01*
X122033516Y-80423177D01*
X122026957Y-80426478D01*
X121934638Y-80440147D01*
X121934635Y-80440148D01*
X121873112Y-80481923D01*
X121830244Y-80544858D01*
X121784401Y-80622663D01*
X121783414Y-80624086D01*
X121720290Y-80702055D01*
X121712421Y-80706329D01*
X121703835Y-80703786D01*
X121702943Y-80702986D01*
X121502462Y-80503446D01*
X121499016Y-80495181D01*
X121499016Y-80495114D01*
X121499060Y-80481923D01*
X121499960Y-80211889D01*
X121503414Y-80203628D01*
X121511699Y-80200229D01*
X121511779Y-80200229D01*
X121633011Y-80202595D01*
G37*
%TD.AperFunction*%
%TD*%
%TA.AperFunction,Conductor*%
%TO.N,/~{DRDY}*%
G36*
X118082902Y-79006240D02*
G01*
X118373292Y-79272299D01*
X118451579Y-79344027D01*
X118455364Y-79352143D01*
X118452695Y-79360106D01*
X118402822Y-79420471D01*
X118345866Y-79507288D01*
X118288908Y-79611985D01*
X118231968Y-79734521D01*
X118231941Y-79734584D01*
X118177962Y-79867697D01*
X118171678Y-79874076D01*
X118167120Y-79875000D01*
X117982880Y-79875000D01*
X117974607Y-79871573D01*
X117972038Y-79867697D01*
X117918057Y-79734585D01*
X117918056Y-79734583D01*
X117918044Y-79734553D01*
X117918038Y-79734541D01*
X117918030Y-79734521D01*
X117861090Y-79611985D01*
X117861089Y-79611983D01*
X117804134Y-79507290D01*
X117747179Y-79420475D01*
X117697304Y-79360106D01*
X117694677Y-79351545D01*
X117698419Y-79344028D01*
X118067097Y-79006240D01*
X118075511Y-79003179D01*
X118082902Y-79006240D01*
G37*
%TD.AperFunction*%
%TD*%
%TA.AperFunction,Conductor*%
%TO.N,/SCLK*%
G36*
X118665237Y-84281628D02*
G01*
X118793698Y-84410089D01*
X118797125Y-84418362D01*
X118795586Y-84424163D01*
X118735007Y-84530269D01*
X118735004Y-84530274D01*
X118670017Y-84662099D01*
X118670009Y-84662117D01*
X118604997Y-84811992D01*
X118540008Y-84979812D01*
X118479077Y-85154027D01*
X118473111Y-85160705D01*
X118464170Y-85161208D01*
X118463579Y-85160983D01*
X118080156Y-85003121D01*
X118073810Y-84996802D01*
X118073114Y-84994476D01*
X118070344Y-84979830D01*
X117986678Y-84537495D01*
X117988507Y-84528732D01*
X117996000Y-84523827D01*
X117996957Y-84523687D01*
X118119170Y-84510997D01*
X118254026Y-84478994D01*
X118388882Y-84428990D01*
X118523738Y-84360987D01*
X118650674Y-84280035D01*
X118659491Y-84278477D01*
X118665237Y-84281628D01*
G37*
%TD.AperFunction*%
%TD*%
%TA.AperFunction,Conductor*%
%TO.N,/DIN*%
G36*
X118665237Y-82531628D02*
G01*
X118793698Y-82660089D01*
X118797125Y-82668362D01*
X118795586Y-82674163D01*
X118735007Y-82780269D01*
X118735004Y-82780274D01*
X118670017Y-82912099D01*
X118670009Y-82912117D01*
X118604997Y-83061992D01*
X118540008Y-83229812D01*
X118479077Y-83404027D01*
X118473111Y-83410705D01*
X118464170Y-83411208D01*
X118463579Y-83410983D01*
X118080156Y-83253121D01*
X118073810Y-83246802D01*
X118073114Y-83244476D01*
X118070344Y-83229830D01*
X117986678Y-82787495D01*
X117988507Y-82778732D01*
X117996000Y-82773827D01*
X117996957Y-82773687D01*
X118119170Y-82760997D01*
X118254026Y-82728994D01*
X118388882Y-82678990D01*
X118523738Y-82610987D01*
X118650674Y-82530035D01*
X118659491Y-82528477D01*
X118665237Y-82531628D01*
G37*
%TD.AperFunction*%
%TD*%
%TA.AperFunction,Conductor*%
%TO.N,/~{CS}*%
G36*
X118435539Y-76608451D02*
G01*
X118436190Y-76609073D01*
X118516914Y-76692330D01*
X118606435Y-76768495D01*
X118695957Y-76828495D01*
X118785478Y-76872330D01*
X118785482Y-76872331D01*
X118785487Y-76872333D01*
X118807548Y-76879151D01*
X118866756Y-76897451D01*
X118873647Y-76903168D01*
X118875000Y-76908629D01*
X118875000Y-77091370D01*
X118871573Y-77099643D01*
X118866755Y-77102548D01*
X118785487Y-77127665D01*
X118785476Y-77127669D01*
X118695965Y-77171499D01*
X118695952Y-77171507D01*
X118606433Y-77231505D01*
X118606428Y-77231509D01*
X118516908Y-77307674D01*
X118516901Y-77307681D01*
X118436192Y-77390924D01*
X118427973Y-77394479D01*
X118419648Y-77391180D01*
X118419024Y-77390527D01*
X118080844Y-77007747D01*
X118077934Y-76999278D01*
X118080844Y-76992253D01*
X118419025Y-76609471D01*
X118427070Y-76605541D01*
X118435539Y-76608451D01*
G37*
%TD.AperFunction*%
%TD*%
%TA.AperFunction,Conductor*%
%TO.N,/SIG+*%
G36*
X141244968Y-82732783D02*
G01*
X141273146Y-82743214D01*
X141297957Y-82752399D01*
X141318474Y-82758569D01*
X141358468Y-82770599D01*
X141418979Y-82784600D01*
X141479489Y-82794400D01*
X141479504Y-82794401D01*
X141479508Y-82794402D01*
X141529378Y-82799017D01*
X141537300Y-82803191D01*
X141540000Y-82810667D01*
X141540000Y-83189332D01*
X141536573Y-83197605D01*
X141529378Y-83200982D01*
X141479508Y-83205596D01*
X141479490Y-83205598D01*
X141479489Y-83205599D01*
X141418979Y-83215399D01*
X141404237Y-83218809D01*
X141358466Y-83229400D01*
X141358450Y-83229405D01*
X141297957Y-83247599D01*
X141244970Y-83267215D01*
X141236022Y-83266874D01*
X141232139Y-83263989D01*
X141005838Y-83007743D01*
X141002931Y-82999275D01*
X141005838Y-82992256D01*
X141232140Y-82736009D01*
X141240183Y-82732078D01*
X141244968Y-82732783D01*
G37*
%TD.AperFunction*%
%TD*%
%TA.AperFunction,Conductor*%
%TO.N,/SIG+*%
G36*
X143747778Y-82602825D02*
G01*
X144096888Y-82800000D01*
X144432963Y-82989813D01*
X144438481Y-82996865D01*
X144437396Y-83005754D01*
X144432963Y-83010187D01*
X143747788Y-83397169D01*
X143738899Y-83398254D01*
X143737475Y-83397757D01*
X143736085Y-83397169D01*
X143721664Y-83391066D01*
X143591528Y-83335999D01*
X143591514Y-83335994D01*
X143440287Y-83284002D01*
X143440253Y-83283992D01*
X143289045Y-83244004D01*
X143289035Y-83244002D01*
X143289027Y-83244000D01*
X143137778Y-83216000D01*
X143137773Y-83215999D01*
X142996998Y-83201107D01*
X142989131Y-83196829D01*
X142986529Y-83189472D01*
X142986529Y-82810527D01*
X142989956Y-82802254D01*
X142996996Y-82798892D01*
X143137778Y-82783999D01*
X143289027Y-82755999D01*
X143440277Y-82716000D01*
X143591526Y-82664000D01*
X143737477Y-82602241D01*
X143746429Y-82602174D01*
X143747778Y-82602825D01*
G37*
%TD.AperFunction*%
%TD*%
%TA.AperFunction,Conductor*%
%TO.N,/SIG-*%
G36*
X141244968Y-80732783D02*
G01*
X141273146Y-80743214D01*
X141297957Y-80752399D01*
X141318474Y-80758569D01*
X141358468Y-80770599D01*
X141418979Y-80784600D01*
X141479489Y-80794400D01*
X141479504Y-80794401D01*
X141479508Y-80794402D01*
X141529378Y-80799017D01*
X141537300Y-80803191D01*
X141540000Y-80810667D01*
X141540000Y-81189332D01*
X141536573Y-81197605D01*
X141529378Y-81200982D01*
X141479508Y-81205596D01*
X141479490Y-81205598D01*
X141479489Y-81205599D01*
X141418979Y-81215399D01*
X141404237Y-81218809D01*
X141358466Y-81229400D01*
X141358450Y-81229405D01*
X141297957Y-81247599D01*
X141244970Y-81267215D01*
X141236022Y-81266874D01*
X141232139Y-81263989D01*
X141005838Y-81007743D01*
X141002931Y-80999275D01*
X141005838Y-80992256D01*
X141232140Y-80736009D01*
X141240183Y-80732078D01*
X141244968Y-80732783D01*
G37*
%TD.AperFunction*%
%TD*%
%TA.AperFunction,Conductor*%
%TO.N,/SIG-*%
G36*
X143747778Y-80602825D02*
G01*
X144096888Y-80800000D01*
X144432963Y-80989813D01*
X144438481Y-80996865D01*
X144437396Y-81005754D01*
X144432963Y-81010187D01*
X143747788Y-81397169D01*
X143738899Y-81398254D01*
X143737475Y-81397757D01*
X143736085Y-81397169D01*
X143721664Y-81391066D01*
X143591528Y-81335999D01*
X143591514Y-81335994D01*
X143440287Y-81284002D01*
X143440253Y-81283992D01*
X143289045Y-81244004D01*
X143289035Y-81244002D01*
X143289027Y-81244000D01*
X143137778Y-81216000D01*
X143137773Y-81215999D01*
X142996998Y-81201107D01*
X142989131Y-81196829D01*
X142986529Y-81189472D01*
X142986529Y-80810527D01*
X142989956Y-80802254D01*
X142996996Y-80798892D01*
X143137778Y-80783999D01*
X143289027Y-80755999D01*
X143440277Y-80716000D01*
X143591526Y-80664000D01*
X143737477Y-80602241D01*
X143746429Y-80602174D01*
X143747778Y-80602825D01*
G37*
%TD.AperFunction*%
%TD*%
%TA.AperFunction,Conductor*%
%TO.N,+4V*%
G36*
X131219241Y-78297299D02*
G01*
X131220233Y-78298435D01*
X131281962Y-78378955D01*
X131283175Y-78380908D01*
X131324414Y-78464726D01*
X131361705Y-78534783D01*
X131361707Y-78534786D01*
X131361708Y-78534787D01*
X131418872Y-78582424D01*
X131510539Y-78598318D01*
X131518103Y-78603107D01*
X131520238Y-78609845D01*
X131520238Y-78788300D01*
X131516811Y-78796573D01*
X131508538Y-78800000D01*
X131391218Y-78800000D01*
X131299657Y-78800000D01*
X131220580Y-78800000D01*
X131129019Y-78800000D01*
X131011661Y-78800000D01*
X131003388Y-78796573D01*
X130999961Y-78788339D01*
X130999366Y-78609845D01*
X130999016Y-78504884D01*
X131002414Y-78496601D01*
X131202696Y-78297258D01*
X131210975Y-78293853D01*
X131219241Y-78297299D01*
G37*
%TD.AperFunction*%
%TD*%
%TA.AperFunction,Conductor*%
%TO.N,Net-(J3-Pin_2)*%
G36*
X114263138Y-76603753D02*
G01*
X114408473Y-76696000D01*
X114559722Y-76773999D01*
X114559724Y-76774000D01*
X114710964Y-76833997D01*
X114710978Y-76834002D01*
X114840429Y-76869948D01*
X114862221Y-76876000D01*
X115003606Y-76898434D01*
X115011238Y-76903115D01*
X115013471Y-76909989D01*
X115013471Y-77090010D01*
X115010044Y-77098283D01*
X115003605Y-77101565D01*
X114862220Y-77123999D01*
X114862219Y-77124000D01*
X114710976Y-77165997D01*
X114710962Y-77166002D01*
X114559725Y-77225998D01*
X114559724Y-77225998D01*
X114408472Y-77304000D01*
X114263143Y-77396243D01*
X114254321Y-77397783D01*
X114251119Y-77396552D01*
X114087250Y-77304000D01*
X113567035Y-77010186D01*
X113561518Y-77003135D01*
X113562603Y-76994246D01*
X113567035Y-76989813D01*
X114251121Y-76603446D01*
X114260008Y-76602362D01*
X114263138Y-76603753D01*
G37*
%TD.AperFunction*%
%TD*%
%TA.AperFunction,Conductor*%
%TO.N,Net-(J3-Pin_2)*%
G36*
X116080351Y-76608819D02*
G01*
X116080975Y-76609472D01*
X116419155Y-76992253D01*
X116422065Y-77000722D01*
X116419155Y-77007747D01*
X116080975Y-77390527D01*
X116072929Y-77394458D01*
X116064460Y-77391548D01*
X116063807Y-77390924D01*
X115983097Y-77307681D01*
X115983090Y-77307674D01*
X115983089Y-77307673D01*
X115983085Y-77307669D01*
X115893564Y-77231504D01*
X115804042Y-77171504D01*
X115804037Y-77171501D01*
X115804033Y-77171499D01*
X115714522Y-77127669D01*
X115714511Y-77127665D01*
X115633245Y-77102548D01*
X115626353Y-77096831D01*
X115625000Y-77091370D01*
X115625000Y-76908629D01*
X115628427Y-76900356D01*
X115633243Y-76897452D01*
X115714521Y-76872330D01*
X115804042Y-76828495D01*
X115893564Y-76768495D01*
X115983085Y-76692330D01*
X116063808Y-76609074D01*
X116072026Y-76605520D01*
X116080351Y-76608819D01*
G37*
%TD.AperFunction*%
%TD*%
%TA.AperFunction,Conductor*%
%TO.N,Net-(J3-Pin_3)*%
G36*
X116080351Y-78608819D02*
G01*
X116080975Y-78609472D01*
X116419155Y-78992253D01*
X116422065Y-79000722D01*
X116419155Y-79007747D01*
X116080975Y-79390527D01*
X116072929Y-79394458D01*
X116064460Y-79391548D01*
X116063807Y-79390924D01*
X115983097Y-79307681D01*
X115983090Y-79307674D01*
X115983089Y-79307673D01*
X115983085Y-79307669D01*
X115893564Y-79231504D01*
X115804042Y-79171504D01*
X115804037Y-79171501D01*
X115804033Y-79171499D01*
X115714522Y-79127669D01*
X115714511Y-79127665D01*
X115633245Y-79102548D01*
X115626353Y-79096831D01*
X115625000Y-79091370D01*
X115625000Y-78908629D01*
X115628427Y-78900356D01*
X115633243Y-78897452D01*
X115714521Y-78872330D01*
X115804042Y-78828495D01*
X115893564Y-78768495D01*
X115983085Y-78692330D01*
X116063808Y-78609074D01*
X116072026Y-78605520D01*
X116080351Y-78608819D01*
G37*
%TD.AperFunction*%
%TD*%
%TA.AperFunction,Conductor*%
%TO.N,Net-(J3-Pin_3)*%
G36*
X114263138Y-78603753D02*
G01*
X114408473Y-78696000D01*
X114559722Y-78774000D01*
X114710972Y-78834000D01*
X114862221Y-78876000D01*
X115003606Y-78898434D01*
X115011238Y-78903115D01*
X115013471Y-78909989D01*
X115013471Y-79090010D01*
X115010044Y-79098283D01*
X115003605Y-79101565D01*
X114862221Y-79123999D01*
X114862214Y-79124001D01*
X114710979Y-79165997D01*
X114559716Y-79226002D01*
X114408472Y-79304000D01*
X114263143Y-79396243D01*
X114254321Y-79397783D01*
X114251119Y-79396552D01*
X113949150Y-79226002D01*
X113567035Y-79010186D01*
X113561518Y-79003135D01*
X113562603Y-78994246D01*
X113567035Y-78989813D01*
X114251121Y-78603446D01*
X114260008Y-78602362D01*
X114263138Y-78603753D01*
G37*
%TD.AperFunction*%
%TD*%
%TA.AperFunction,Conductor*%
%TO.N,Net-(J3-Pin_4)*%
G36*
X116154119Y-80799595D02*
G01*
X116331642Y-81093683D01*
X116410334Y-81224048D01*
X116420509Y-81240903D01*
X116421850Y-81249756D01*
X116417472Y-81256339D01*
X116039027Y-81537669D01*
X116030343Y-81539854D01*
X116022657Y-81535259D01*
X116022237Y-81534655D01*
X115948201Y-81420097D01*
X115867401Y-81313073D01*
X115786600Y-81224048D01*
X115758914Y-81199712D01*
X115705802Y-81153025D01*
X115630281Y-81103465D01*
X115625244Y-81096061D01*
X115625000Y-81093683D01*
X115625000Y-80912887D01*
X115628427Y-80904614D01*
X115636700Y-80901187D01*
X115637811Y-80901240D01*
X115729692Y-80910135D01*
X115729695Y-80910134D01*
X115729697Y-80910135D01*
X115834373Y-80904226D01*
X115834380Y-80904225D01*
X115834385Y-80904225D01*
X115939077Y-80882270D01*
X116043770Y-80844270D01*
X116138737Y-80795244D01*
X116147658Y-80794495D01*
X116154119Y-80799595D01*
G37*
%TD.AperFunction*%
%TD*%
%TA.AperFunction,Conductor*%
%TO.N,Net-(J3-Pin_4)*%
G36*
X114263138Y-80603753D02*
G01*
X114408473Y-80696000D01*
X114559722Y-80774000D01*
X114710972Y-80834000D01*
X114862221Y-80876000D01*
X115003606Y-80898434D01*
X115011238Y-80903115D01*
X115013471Y-80909989D01*
X115013471Y-81090010D01*
X115010044Y-81098283D01*
X115003605Y-81101565D01*
X114862221Y-81123999D01*
X114862214Y-81124001D01*
X114710979Y-81165997D01*
X114559716Y-81226002D01*
X114408472Y-81304000D01*
X114263143Y-81396243D01*
X114254321Y-81397783D01*
X114251119Y-81396552D01*
X113949150Y-81226002D01*
X113567035Y-81010186D01*
X113561518Y-81003135D01*
X113562603Y-80994246D01*
X113567035Y-80989813D01*
X114251121Y-80603446D01*
X114260008Y-80602362D01*
X114263138Y-80603753D01*
G37*
%TD.AperFunction*%
%TD*%
%TA.AperFunction,Conductor*%
%TO.N,Net-(J3-Pin_5)*%
G36*
X116154119Y-82799595D02*
G01*
X116331642Y-83093683D01*
X116410334Y-83224048D01*
X116420509Y-83240903D01*
X116421850Y-83249756D01*
X116417472Y-83256339D01*
X116039027Y-83537669D01*
X116030343Y-83539854D01*
X116022657Y-83535259D01*
X116022237Y-83534655D01*
X115948201Y-83420097D01*
X115867401Y-83313073D01*
X115786600Y-83224048D01*
X115758914Y-83199712D01*
X115705802Y-83153025D01*
X115630281Y-83103465D01*
X115625244Y-83096061D01*
X115625000Y-83093683D01*
X115625000Y-82912887D01*
X115628427Y-82904614D01*
X115636700Y-82901187D01*
X115637811Y-82901240D01*
X115729692Y-82910135D01*
X115729695Y-82910134D01*
X115729697Y-82910135D01*
X115834373Y-82904226D01*
X115834380Y-82904225D01*
X115834385Y-82904225D01*
X115939077Y-82882270D01*
X116043770Y-82844270D01*
X116138737Y-82795244D01*
X116147658Y-82794495D01*
X116154119Y-82799595D01*
G37*
%TD.AperFunction*%
%TD*%
%TA.AperFunction,Conductor*%
%TO.N,Net-(J3-Pin_5)*%
G36*
X114263138Y-82603753D02*
G01*
X114408473Y-82696000D01*
X114559722Y-82774000D01*
X114710972Y-82834000D01*
X114862221Y-82876000D01*
X115003606Y-82898434D01*
X115011238Y-82903115D01*
X115013471Y-82909989D01*
X115013471Y-83090010D01*
X115010044Y-83098283D01*
X115003605Y-83101565D01*
X114862221Y-83123999D01*
X114862214Y-83124001D01*
X114710979Y-83165997D01*
X114559716Y-83226002D01*
X114408472Y-83304000D01*
X114263143Y-83396243D01*
X114254321Y-83397783D01*
X114251119Y-83396552D01*
X113949150Y-83226002D01*
X113567035Y-83010186D01*
X113561518Y-83003135D01*
X113562603Y-82994246D01*
X113567035Y-82989813D01*
X114251121Y-82603446D01*
X114260008Y-82602362D01*
X114263138Y-82603753D01*
G37*
%TD.AperFunction*%
%TD*%
%TA.AperFunction,Conductor*%
%TO.N,Net-(J3-Pin_6)*%
G36*
X116080351Y-84608819D02*
G01*
X116080975Y-84609472D01*
X116419155Y-84992253D01*
X116422065Y-85000722D01*
X116419155Y-85007747D01*
X116080975Y-85390527D01*
X116072929Y-85394458D01*
X116064460Y-85391548D01*
X116063807Y-85390924D01*
X115983097Y-85307681D01*
X115983090Y-85307674D01*
X115983089Y-85307673D01*
X115983085Y-85307669D01*
X115893564Y-85231504D01*
X115804042Y-85171504D01*
X115804037Y-85171501D01*
X115804033Y-85171499D01*
X115714522Y-85127669D01*
X115714511Y-85127665D01*
X115633245Y-85102548D01*
X115626353Y-85096831D01*
X115625000Y-85091370D01*
X115625000Y-84908629D01*
X115628427Y-84900356D01*
X115633243Y-84897452D01*
X115714521Y-84872330D01*
X115804042Y-84828495D01*
X115893564Y-84768495D01*
X115983085Y-84692330D01*
X116063808Y-84609074D01*
X116072026Y-84605520D01*
X116080351Y-84608819D01*
G37*
%TD.AperFunction*%
%TD*%
%TA.AperFunction,Conductor*%
%TO.N,Net-(J3-Pin_6)*%
G36*
X114263138Y-84603753D02*
G01*
X114408473Y-84696000D01*
X114559722Y-84774000D01*
X114710972Y-84834000D01*
X114862221Y-84876000D01*
X115003606Y-84898434D01*
X115011238Y-84903115D01*
X115013471Y-84909989D01*
X115013471Y-85090010D01*
X115010044Y-85098283D01*
X115003605Y-85101565D01*
X114862221Y-85123999D01*
X114862214Y-85124001D01*
X114710979Y-85165997D01*
X114559716Y-85226002D01*
X114408472Y-85304000D01*
X114263143Y-85396243D01*
X114254321Y-85397783D01*
X114251119Y-85396552D01*
X113949150Y-85226002D01*
X113567035Y-85010186D01*
X113561518Y-85003135D01*
X113562603Y-84994246D01*
X113567035Y-84989813D01*
X114251121Y-84603446D01*
X114260008Y-84602362D01*
X114263138Y-84603753D01*
G37*
%TD.AperFunction*%
%TD*%
%TA.AperFunction,Conductor*%
%TO.N,+5V*%
G36*
X121287926Y-87499959D02*
G01*
X121296187Y-87503413D01*
X121299586Y-87511698D01*
X121299579Y-87512067D01*
X121294816Y-87648619D01*
X121294743Y-87649577D01*
X121282430Y-87754290D01*
X121282358Y-87754804D01*
X121267599Y-87845449D01*
X121255199Y-87950904D01*
X121250394Y-88088708D01*
X121246681Y-88096856D01*
X121238701Y-88100000D01*
X120761299Y-88100000D01*
X120753026Y-88096573D01*
X120749606Y-88088708D01*
X120744800Y-87950904D01*
X120732400Y-87845449D01*
X120717637Y-87754781D01*
X120717572Y-87754314D01*
X120705255Y-87649571D01*
X120705183Y-87648619D01*
X120700420Y-87512064D01*
X120703556Y-87503679D01*
X120711705Y-87499966D01*
X120712025Y-87499959D01*
X121000000Y-87499000D01*
X121287926Y-87499959D01*
G37*
%TD.AperFunction*%
%TD*%
%TA.AperFunction,Conductor*%
%TO.N,+5V*%
G36*
X121246974Y-88903427D02*
G01*
X121250394Y-88911292D01*
X121255199Y-89049094D01*
X121267599Y-89154548D01*
X121282358Y-89245193D01*
X121282430Y-89245707D01*
X121294743Y-89350421D01*
X121294816Y-89351379D01*
X121299579Y-89487932D01*
X121296443Y-89496320D01*
X121288294Y-89500033D01*
X121287925Y-89500040D01*
X121000039Y-89500999D01*
X120999961Y-89500999D01*
X120712074Y-89500040D01*
X120703812Y-89496586D01*
X120700413Y-89488301D01*
X120700418Y-89487987D01*
X120705183Y-89351371D01*
X120705256Y-89350421D01*
X120717573Y-89245677D01*
X120717636Y-89245222D01*
X120732400Y-89154549D01*
X120744800Y-89049099D01*
X120749606Y-88911291D01*
X120753319Y-88903144D01*
X120761299Y-88900000D01*
X121238701Y-88900000D01*
X121246974Y-88903427D01*
G37*
%TD.AperFunction*%
%TD*%
%TA.AperFunction,Conductor*%
%TO.N,+5V*%
G36*
X121586627Y-89203427D02*
G01*
X121590054Y-89211700D01*
X121590054Y-89689095D01*
X121586627Y-89697368D01*
X121579177Y-89700766D01*
X121442515Y-89710399D01*
X121442501Y-89710401D01*
X121339279Y-89735196D01*
X121339277Y-89735196D01*
X121251263Y-89764640D01*
X121250284Y-89764920D01*
X121148488Y-89789373D01*
X121146578Y-89789668D01*
X121012481Y-89799120D01*
X121003987Y-89796283D01*
X120999987Y-89788272D01*
X120999958Y-89787488D01*
X120999882Y-89764800D01*
X120999000Y-89500000D01*
X120999961Y-89211660D01*
X121003415Y-89203399D01*
X121011661Y-89200000D01*
X121578354Y-89200000D01*
X121586627Y-89203427D01*
G37*
%TD.AperFunction*%
%TD*%
%TA.AperFunction,Conductor*%
%TO.N,+5V*%
G36*
X121012458Y-87200878D02*
G01*
X121146588Y-87210332D01*
X121148479Y-87210624D01*
X121242263Y-87233152D01*
X121250284Y-87235079D01*
X121251264Y-87235359D01*
X121339265Y-87264800D01*
X121442508Y-87289600D01*
X121579177Y-87299233D01*
X121587188Y-87303233D01*
X121590054Y-87310904D01*
X121590054Y-87788300D01*
X121586627Y-87796573D01*
X121578354Y-87800000D01*
X121443720Y-87800000D01*
X121339871Y-87800000D01*
X121250182Y-87800000D01*
X121146333Y-87800000D01*
X121011661Y-87800000D01*
X121003388Y-87796573D01*
X120999961Y-87788339D01*
X120999000Y-87500078D01*
X120999000Y-87500000D01*
X120999656Y-87303233D01*
X120999958Y-87212510D01*
X121003412Y-87204249D01*
X121011697Y-87200850D01*
X121012458Y-87200878D01*
G37*
%TD.AperFunction*%
%TD*%
%TA.AperFunction,Conductor*%
%TO.N,+4V*%
G36*
X125746320Y-85703556D02*
G01*
X125750033Y-85711705D01*
X125750040Y-85712074D01*
X125751000Y-86000000D01*
X125751000Y-86000078D01*
X125750040Y-86287925D01*
X125746586Y-86296187D01*
X125738301Y-86299586D01*
X125737932Y-86299579D01*
X125601379Y-86294816D01*
X125600421Y-86294743D01*
X125495707Y-86282430D01*
X125495193Y-86282358D01*
X125404548Y-86267599D01*
X125299094Y-86255199D01*
X125161292Y-86250393D01*
X125153143Y-86246680D01*
X125150000Y-86238700D01*
X125150000Y-85761299D01*
X125153427Y-85753026D01*
X125161291Y-85749606D01*
X125299099Y-85744800D01*
X125404549Y-85732400D01*
X125495222Y-85717636D01*
X125495677Y-85717573D01*
X125600428Y-85705255D01*
X125601371Y-85705183D01*
X125737934Y-85700420D01*
X125746320Y-85703556D01*
G37*
%TD.AperFunction*%
%TD*%
%TA.AperFunction,Conductor*%
%TO.N,Net-(R13-Pad1)*%
G36*
X137270719Y-82258374D02*
G01*
X137492709Y-82501932D01*
X137495749Y-82510354D01*
X137491943Y-82518460D01*
X137491817Y-82518574D01*
X137239829Y-82741616D01*
X137231362Y-82744533D01*
X137224070Y-82741389D01*
X137205761Y-82724218D01*
X137159205Y-82680555D01*
X137159196Y-82680547D01*
X137159193Y-82680545D01*
X137086539Y-82622609D01*
X137013886Y-82574872D01*
X136978769Y-82556729D01*
X136941233Y-82537336D01*
X136911217Y-82526042D01*
X136885563Y-82516390D01*
X136879027Y-82510270D01*
X136878733Y-82501320D01*
X136881409Y-82497169D01*
X137007212Y-82371366D01*
X137013906Y-82368048D01*
X137060667Y-82361694D01*
X137111335Y-82346421D01*
X137148595Y-82329020D01*
X137161999Y-82322762D01*
X137212667Y-82290714D01*
X137212667Y-82290713D01*
X137212670Y-82290712D01*
X137254775Y-82257109D01*
X137263378Y-82254628D01*
X137270719Y-82258374D01*
G37*
%TD.AperFunction*%
%TD*%
%TA.AperFunction,Conductor*%
%TO.N,Net-(R13-Pad2)*%
G36*
X137239827Y-81258384D02*
G01*
X137491817Y-81481425D01*
X137495740Y-81489474D01*
X137492823Y-81497941D01*
X137492709Y-81498067D01*
X137270719Y-81741625D01*
X137262613Y-81745431D01*
X137254774Y-81742889D01*
X137212673Y-81709289D01*
X137212667Y-81709284D01*
X137161999Y-81677236D01*
X137126220Y-81660529D01*
X137111335Y-81653578D01*
X137060667Y-81638305D01*
X137060664Y-81638304D01*
X137013909Y-81631952D01*
X137007211Y-81628632D01*
X136881411Y-81502832D01*
X136877984Y-81494559D01*
X136881411Y-81486286D01*
X136885559Y-81483610D01*
X136941232Y-81462663D01*
X137013885Y-81425127D01*
X137086538Y-81377391D01*
X137159191Y-81319455D01*
X137224070Y-81258610D01*
X137232447Y-81255451D01*
X137239827Y-81258384D01*
G37*
%TD.AperFunction*%
%TD*%
%TA.AperFunction,Conductor*%
%TO.N,/SIG_FLTR-*%
G36*
X139776974Y-80715318D02*
G01*
X139777522Y-80716027D01*
X139974807Y-80992441D01*
X139976824Y-81001166D01*
X139973354Y-81007710D01*
X139731171Y-81238404D01*
X139722817Y-81241629D01*
X139717877Y-81240401D01*
X139644586Y-81203826D01*
X139563926Y-81167775D01*
X139483317Y-81135945D01*
X139402661Y-81108297D01*
X139341004Y-81090373D01*
X139334016Y-81084773D01*
X139333035Y-81075872D01*
X139335995Y-81070867D01*
X139602879Y-80803983D01*
X139607499Y-80801142D01*
X139637918Y-80791158D01*
X139670984Y-80776105D01*
X139704051Y-80756851D01*
X139737117Y-80733398D01*
X139760494Y-80713848D01*
X139769038Y-80711170D01*
X139776974Y-80715318D01*
G37*
%TD.AperFunction*%
%TD*%
%TA.AperFunction,Conductor*%
%TO.N,/SIG_FLTR+*%
G36*
X139731170Y-82761594D02*
G01*
X139973354Y-82992289D01*
X139976981Y-83000477D01*
X139974807Y-83007558D01*
X139777523Y-83283971D01*
X139769928Y-83288714D01*
X139761203Y-83286697D01*
X139760494Y-83286149D01*
X139737114Y-83266596D01*
X139704059Y-83243152D01*
X139704043Y-83243142D01*
X139692884Y-83236645D01*
X139670985Y-83223894D01*
X139637918Y-83208841D01*
X139607500Y-83198858D01*
X139602878Y-83196015D01*
X139335997Y-82929134D01*
X139332570Y-82920861D01*
X139335997Y-82912588D01*
X139341002Y-82909626D01*
X139402653Y-82891704D01*
X139483296Y-82864061D01*
X139483311Y-82864054D01*
X139483317Y-82864053D01*
X139563926Y-82832222D01*
X139563939Y-82832217D01*
X139644582Y-82796174D01*
X139717879Y-82759596D01*
X139726808Y-82758969D01*
X139731170Y-82761594D01*
G37*
%TD.AperFunction*%
%TD*%
%TA.AperFunction,Conductor*%
%TO.N,Net-(U1-FB)*%
G36*
X126481995Y-88215164D02*
G01*
X126520710Y-88235894D01*
X126520715Y-88235896D01*
X126520719Y-88235898D01*
X126567836Y-88253877D01*
X126567844Y-88253880D01*
X126614977Y-88264615D01*
X126662111Y-88268100D01*
X126662111Y-88268099D01*
X126662112Y-88268100D01*
X126662113Y-88268100D01*
X126674806Y-88267085D01*
X126703861Y-88264763D01*
X126712381Y-88267520D01*
X126713066Y-88268153D01*
X126839810Y-88394897D01*
X126843237Y-88403170D01*
X126839810Y-88411443D01*
X126837319Y-88413341D01*
X126787931Y-88441418D01*
X126725183Y-88487893D01*
X126662446Y-88545159D01*
X126623921Y-88586957D01*
X126599705Y-88613230D01*
X126599701Y-88613234D01*
X126599700Y-88613236D01*
X126543974Y-88683287D01*
X126536142Y-88687628D01*
X126527891Y-88685431D01*
X126259298Y-88488059D01*
X126254660Y-88480399D01*
X126256798Y-88471703D01*
X126257225Y-88471156D01*
X126320560Y-88394897D01*
X126467474Y-88218003D01*
X126475394Y-88213830D01*
X126481995Y-88215164D01*
G37*
%TD.AperFunction*%
%TD*%
%TA.AperFunction,Conductor*%
%TO.N,+4V*%
G36*
X126635247Y-87007246D02*
G01*
X126763307Y-87135306D01*
X126766734Y-87143579D01*
X126765117Y-87149514D01*
X126727764Y-87212970D01*
X126685820Y-87295029D01*
X126653085Y-87367500D01*
X126643884Y-87387871D01*
X126626513Y-87430799D01*
X126601942Y-87491523D01*
X126563703Y-87595874D01*
X126557638Y-87602463D01*
X126549620Y-87603131D01*
X126254835Y-87522228D01*
X126247764Y-87516734D01*
X126247109Y-87515389D01*
X126237308Y-87491523D01*
X126139080Y-87252319D01*
X126139107Y-87243365D01*
X126145459Y-87237052D01*
X126146881Y-87236572D01*
X126232874Y-87213657D01*
X126331728Y-87176515D01*
X126430582Y-87128573D01*
X126529436Y-87069831D01*
X126620243Y-87005949D01*
X126628980Y-87003992D01*
X126635247Y-87007246D01*
G37*
%TD.AperFunction*%
%TD*%
%TA.AperFunction,Conductor*%
%TO.N,/DOUT*%
G36*
X122216493Y-81433965D02*
G01*
X122470039Y-81506042D01*
X122848911Y-81613746D01*
X122855932Y-81619304D01*
X122856966Y-81628199D01*
X122851408Y-81635220D01*
X122848911Y-81636254D01*
X122216518Y-81816027D01*
X122207623Y-81814993D01*
X122207432Y-81814884D01*
X122159382Y-81786908D01*
X122159379Y-81786907D01*
X122107057Y-81762440D01*
X122107048Y-81762436D01*
X122107039Y-81762432D01*
X122054692Y-81743955D01*
X122054685Y-81743953D01*
X122054674Y-81743950D01*
X122002335Y-81731474D01*
X122002336Y-81731474D01*
X121960263Y-81726269D01*
X121952474Y-81721853D01*
X121950000Y-81714658D01*
X121950000Y-81535341D01*
X121953427Y-81527068D01*
X121960263Y-81523730D01*
X122002335Y-81518524D01*
X122002340Y-81518522D01*
X122002346Y-81518522D01*
X122054692Y-81506044D01*
X122107039Y-81487567D01*
X122159385Y-81463089D01*
X122207433Y-81435114D01*
X122216305Y-81433914D01*
X122216493Y-81433965D01*
G37*
%TD.AperFunction*%
%TD*%
%TA.AperFunction,Conductor*%
%TO.N,+4V*%
G36*
X122216493Y-79483965D02*
G01*
X122470039Y-79556042D01*
X122848911Y-79663746D01*
X122855932Y-79669304D01*
X122856966Y-79678199D01*
X122851408Y-79685220D01*
X122848911Y-79686254D01*
X122216518Y-79866027D01*
X122207623Y-79864993D01*
X122207432Y-79864884D01*
X122159382Y-79836908D01*
X122159379Y-79836907D01*
X122107057Y-79812440D01*
X122107048Y-79812436D01*
X122107039Y-79812432D01*
X122054692Y-79793955D01*
X122054685Y-79793953D01*
X122054674Y-79793950D01*
X122002335Y-79781474D01*
X122002336Y-79781474D01*
X121960263Y-79776269D01*
X121952474Y-79771853D01*
X121950000Y-79764658D01*
X121950000Y-79585341D01*
X121953427Y-79577068D01*
X121960263Y-79573730D01*
X122002335Y-79568524D01*
X122002340Y-79568522D01*
X122002346Y-79568522D01*
X122054692Y-79556044D01*
X122107039Y-79537567D01*
X122159385Y-79513089D01*
X122207433Y-79485114D01*
X122216305Y-79483914D01*
X122216493Y-79483965D01*
G37*
%TD.AperFunction*%
%TD*%
%TA.AperFunction,Conductor*%
%TO.N,+4V*%
G36*
X120961424Y-79227603D02*
G01*
X120961720Y-79227847D01*
X121020020Y-79277600D01*
X121087515Y-79324400D01*
X121117506Y-79340396D01*
X121155004Y-79360398D01*
X121155008Y-79360399D01*
X121155009Y-79360400D01*
X121222504Y-79385600D01*
X121280744Y-79398025D01*
X121288117Y-79403101D01*
X121290000Y-79409466D01*
X121290000Y-79590533D01*
X121286573Y-79598806D01*
X121280742Y-79601974D01*
X121228080Y-79613210D01*
X121222499Y-79614401D01*
X121155004Y-79639601D01*
X121087516Y-79675599D01*
X121020022Y-79722398D01*
X120961720Y-79772152D01*
X120953202Y-79774916D01*
X120945225Y-79770847D01*
X120945007Y-79770582D01*
X120734825Y-79507297D01*
X120732343Y-79498696D01*
X120734825Y-79492703D01*
X120944983Y-79229446D01*
X120952821Y-79225120D01*
X120961424Y-79227603D01*
G37*
%TD.AperFunction*%
%TD*%
%TA.AperFunction,Conductor*%
%TO.N,+4V*%
G36*
X122216493Y-80133965D02*
G01*
X122470039Y-80206042D01*
X122848911Y-80313746D01*
X122855932Y-80319304D01*
X122856966Y-80328199D01*
X122851408Y-80335220D01*
X122848911Y-80336254D01*
X122216518Y-80516027D01*
X122207623Y-80514993D01*
X122207432Y-80514884D01*
X122159382Y-80486908D01*
X122159379Y-80486907D01*
X122107057Y-80462440D01*
X122107048Y-80462436D01*
X122107039Y-80462432D01*
X122054692Y-80443955D01*
X122054685Y-80443953D01*
X122054674Y-80443950D01*
X122002335Y-80431474D01*
X122002336Y-80431474D01*
X121960263Y-80426269D01*
X121952474Y-80421853D01*
X121950000Y-80414658D01*
X121950000Y-80235341D01*
X121953427Y-80227068D01*
X121960263Y-80223730D01*
X122002335Y-80218524D01*
X122002340Y-80218522D01*
X122002346Y-80218522D01*
X122054692Y-80206044D01*
X122107039Y-80187567D01*
X122159385Y-80163089D01*
X122207433Y-80135114D01*
X122216305Y-80133914D01*
X122216493Y-80133965D01*
G37*
%TD.AperFunction*%
%TD*%
%TA.AperFunction,Conductor*%
%TO.N,+4V*%
G36*
X120961424Y-80227603D02*
G01*
X120961720Y-80227847D01*
X121020020Y-80277600D01*
X121087515Y-80324400D01*
X121117506Y-80340396D01*
X121155004Y-80360398D01*
X121155008Y-80360399D01*
X121155009Y-80360400D01*
X121222504Y-80385600D01*
X121280744Y-80398025D01*
X121288117Y-80403101D01*
X121290000Y-80409466D01*
X121290000Y-80590533D01*
X121286573Y-80598806D01*
X121280742Y-80601974D01*
X121228080Y-80613210D01*
X121222499Y-80614401D01*
X121155004Y-80639601D01*
X121087516Y-80675599D01*
X121020022Y-80722398D01*
X120961720Y-80772152D01*
X120953202Y-80774916D01*
X120945225Y-80770847D01*
X120945007Y-80770582D01*
X120734825Y-80507297D01*
X120732343Y-80498696D01*
X120734825Y-80492703D01*
X120944983Y-80229446D01*
X120952821Y-80225120D01*
X120961424Y-80227603D01*
G37*
%TD.AperFunction*%
%TD*%
%TA.AperFunction,Conductor*%
%TO.N,/~{DRDY}*%
G36*
X122171214Y-80825373D02*
G01*
X122841679Y-80964629D01*
X122849083Y-80969667D01*
X122850756Y-80978464D01*
X122845718Y-80985868D01*
X122842511Y-80987336D01*
X122216967Y-81165893D01*
X122208071Y-81164868D01*
X122207217Y-81164344D01*
X122178745Y-81145153D01*
X122178737Y-81145149D01*
X122145773Y-81128178D01*
X122145769Y-81128176D01*
X122145766Y-81128175D01*
X122112783Y-81116445D01*
X122102109Y-81114348D01*
X122079797Y-81109965D01*
X122051407Y-81108909D01*
X122043569Y-81105490D01*
X121918982Y-80980903D01*
X121915555Y-80972630D01*
X121918982Y-80964357D01*
X121923700Y-80961483D01*
X121957504Y-80950709D01*
X122009611Y-80928101D01*
X122061718Y-80899493D01*
X122113825Y-80864885D01*
X122161662Y-80827604D01*
X122170294Y-80825222D01*
X122171214Y-80825373D01*
G37*
%TD.AperFunction*%
%TD*%
%TA.AperFunction,Conductor*%
%TO.N,/DIN*%
G36*
X122216493Y-82083965D02*
G01*
X122470039Y-82156042D01*
X122848911Y-82263746D01*
X122855932Y-82269304D01*
X122856966Y-82278199D01*
X122851408Y-82285220D01*
X122848911Y-82286254D01*
X122216518Y-82466027D01*
X122207623Y-82464993D01*
X122207432Y-82464884D01*
X122159382Y-82436908D01*
X122159379Y-82436907D01*
X122107057Y-82412440D01*
X122107048Y-82412436D01*
X122107039Y-82412432D01*
X122054692Y-82393955D01*
X122054685Y-82393953D01*
X122054674Y-82393950D01*
X122002335Y-82381474D01*
X122002336Y-82381474D01*
X121960263Y-82376269D01*
X121952474Y-82371853D01*
X121950000Y-82364658D01*
X121950000Y-82185341D01*
X121953427Y-82177068D01*
X121960263Y-82173730D01*
X122002335Y-82168524D01*
X122002340Y-82168522D01*
X122002346Y-82168522D01*
X122054692Y-82156044D01*
X122107039Y-82137567D01*
X122159385Y-82113089D01*
X122207433Y-82085114D01*
X122216305Y-82083914D01*
X122216493Y-82083965D01*
G37*
%TD.AperFunction*%
%TD*%
%TA.AperFunction,Conductor*%
%TO.N,/SIG_AMP+*%
G36*
X130649767Y-82110317D02*
G01*
X131243699Y-82306110D01*
X131267292Y-82313888D01*
X131274076Y-82319733D01*
X131274741Y-82328663D01*
X131268896Y-82335447D01*
X131267292Y-82336112D01*
X130649780Y-82539678D01*
X130640850Y-82539013D01*
X130639740Y-82538375D01*
X130585566Y-82503153D01*
X130585564Y-82503152D01*
X130585558Y-82503148D01*
X130526668Y-82472361D01*
X130526667Y-82472360D01*
X130526666Y-82472360D01*
X130526656Y-82472356D01*
X130467786Y-82449076D01*
X130467779Y-82449073D01*
X130408886Y-82433286D01*
X130360070Y-82426417D01*
X130352355Y-82421871D01*
X130350000Y-82414831D01*
X130350000Y-82235168D01*
X130353427Y-82226895D01*
X130360067Y-82223583D01*
X130408889Y-82216712D01*
X130467779Y-82200925D01*
X130526668Y-82177638D01*
X130585558Y-82146851D01*
X130639741Y-82111623D01*
X130648543Y-82109987D01*
X130649767Y-82110317D01*
G37*
%TD.AperFunction*%
%TD*%
%TA.AperFunction,Conductor*%
%TO.N,/SIG_AMP+*%
G36*
X129292376Y-78185006D02*
G01*
X129292567Y-78185115D01*
X129340614Y-78213089D01*
X129392960Y-78237567D01*
X129445307Y-78256044D01*
X129497653Y-78268522D01*
X129497656Y-78268522D01*
X129497663Y-78268524D01*
X129497662Y-78268524D01*
X129539737Y-78273730D01*
X129547526Y-78278146D01*
X129550000Y-78285341D01*
X129550000Y-78464658D01*
X129546573Y-78472931D01*
X129539737Y-78476269D01*
X129497663Y-78481474D01*
X129445324Y-78493950D01*
X129445304Y-78493956D01*
X129392965Y-78512430D01*
X129392941Y-78512440D01*
X129340619Y-78536907D01*
X129340616Y-78536908D01*
X129292567Y-78564884D01*
X129283693Y-78566085D01*
X129283481Y-78566027D01*
X128651088Y-78386254D01*
X128644067Y-78380696D01*
X128643033Y-78371801D01*
X128648591Y-78364780D01*
X128651088Y-78363746D01*
X129283483Y-78183972D01*
X129292376Y-78185006D01*
G37*
%TD.AperFunction*%
%TD*%
%TA.AperFunction,Conductor*%
%TO.N,Net-(U1-BP)*%
G36*
X126081660Y-89211235D02*
G01*
X126081870Y-89211545D01*
X126265912Y-89492240D01*
X126267583Y-89501037D01*
X126264604Y-89506720D01*
X126032717Y-89750405D01*
X126024531Y-89754036D01*
X126016176Y-89750816D01*
X126015932Y-89750577D01*
X126015761Y-89750405D01*
X125961531Y-89695705D01*
X125898648Y-89643079D01*
X125835765Y-89601252D01*
X125835761Y-89601250D01*
X125835758Y-89601248D01*
X125772887Y-89570228D01*
X125772884Y-89570227D01*
X125772882Y-89570226D01*
X125755377Y-89564595D01*
X125718117Y-89552610D01*
X125711291Y-89546814D01*
X125710000Y-89541472D01*
X125710000Y-89360472D01*
X125713427Y-89352199D01*
X125720406Y-89348844D01*
X125783049Y-89341888D01*
X125856098Y-89322977D01*
X125929148Y-89293265D01*
X125987194Y-89261074D01*
X126002185Y-89252761D01*
X126002188Y-89252758D01*
X126002197Y-89252754D01*
X126065363Y-89208385D01*
X126074101Y-89206435D01*
X126081660Y-89211235D01*
G37*
%TD.AperFunction*%
%TD*%
%TA.AperFunction,Conductor*%
%TO.N,Net-(U1-BP)*%
G36*
X125213259Y-89166021D02*
G01*
X125285922Y-89223134D01*
X125285932Y-89223140D01*
X125285933Y-89223141D01*
X125364442Y-89272851D01*
X125442951Y-89310563D01*
X125442954Y-89310564D01*
X125442956Y-89310564D01*
X125442961Y-89310567D01*
X125521480Y-89336283D01*
X125590314Y-89348308D01*
X125597873Y-89353106D01*
X125600000Y-89359832D01*
X125600000Y-89540167D01*
X125596573Y-89548440D01*
X125590313Y-89551692D01*
X125521482Y-89563715D01*
X125521481Y-89563715D01*
X125442954Y-89589434D01*
X125442951Y-89589435D01*
X125364442Y-89627147D01*
X125285933Y-89676857D01*
X125285921Y-89676866D01*
X125213261Y-89733977D01*
X125204639Y-89736395D01*
X125200753Y-89735220D01*
X124657157Y-89460442D01*
X124651319Y-89453651D01*
X124651993Y-89444722D01*
X124657157Y-89439558D01*
X125200754Y-89164778D01*
X125209682Y-89164105D01*
X125213259Y-89166021D01*
G37*
%TD.AperFunction*%
%TD*%
%TA.AperFunction,Conductor*%
%TO.N,/SIG_FLTR-*%
G36*
X136380000Y-80807999D02*
G01*
X136447500Y-80814499D01*
X136515000Y-80819500D01*
X136515001Y-80819500D01*
X136515014Y-80819501D01*
X136579021Y-80822819D01*
X136582500Y-80823000D01*
X136638647Y-80824663D01*
X136646814Y-80828333D01*
X136650000Y-80836358D01*
X136650000Y-81213641D01*
X136646573Y-81221914D01*
X136638646Y-81225336D01*
X136582481Y-81226999D01*
X136515014Y-81230497D01*
X136464851Y-81234214D01*
X136447500Y-81235500D01*
X136438626Y-81236354D01*
X136380022Y-81241997D01*
X136317401Y-81249419D01*
X136316024Y-81249500D01*
X136313215Y-81249500D01*
X136309188Y-81248785D01*
X135728951Y-81035984D01*
X135722365Y-81029919D01*
X135721996Y-81020971D01*
X135728062Y-81014384D01*
X135728952Y-81014015D01*
X136309874Y-80800962D01*
X136315277Y-80800329D01*
X136380000Y-80807999D01*
G37*
%TD.AperFunction*%
%TD*%
%TA.AperFunction,Conductor*%
%TO.N,/SIG_FLTR-*%
G36*
X138830241Y-80203508D02*
G01*
X138834724Y-80207736D01*
X138997275Y-80473902D01*
X138998663Y-80482749D01*
X138997275Y-80486098D01*
X138834724Y-80752263D01*
X138827488Y-80757538D01*
X138821328Y-80757357D01*
X138745987Y-80734395D01*
X138745984Y-80734394D01*
X138661977Y-80713593D01*
X138577997Y-80697599D01*
X138577999Y-80697599D01*
X138494003Y-80686400D01*
X138493982Y-80686398D01*
X138420811Y-80680823D01*
X138412822Y-80676778D01*
X138410000Y-80669157D01*
X138410000Y-80290842D01*
X138413427Y-80282569D01*
X138420810Y-80279176D01*
X138494000Y-80273599D01*
X138578000Y-80262399D01*
X138609980Y-80256307D01*
X138661977Y-80246405D01*
X138661987Y-80246402D01*
X138662000Y-80246400D01*
X138746000Y-80225600D01*
X138821330Y-80202642D01*
X138830241Y-80203508D01*
G37*
%TD.AperFunction*%
%TD*%
%TA.AperFunction,Conductor*%
%TO.N,/SIG_FLTR+*%
G36*
X136317393Y-82750579D02*
G01*
X136380000Y-82757999D01*
X136447500Y-82764499D01*
X136515000Y-82769500D01*
X136515001Y-82769500D01*
X136515014Y-82769501D01*
X136579021Y-82772819D01*
X136582500Y-82773000D01*
X136638647Y-82774663D01*
X136646814Y-82778333D01*
X136650000Y-82786358D01*
X136650000Y-83163641D01*
X136646573Y-83171914D01*
X136638646Y-83175336D01*
X136582481Y-83176999D01*
X136515014Y-83180497D01*
X136464851Y-83184214D01*
X136447500Y-83185500D01*
X136438626Y-83186354D01*
X136380022Y-83191997D01*
X136315279Y-83199670D01*
X136309873Y-83199036D01*
X135728952Y-82985984D01*
X135722365Y-82979918D01*
X135721996Y-82970970D01*
X135728062Y-82964383D01*
X135728927Y-82964024D01*
X136309190Y-82751213D01*
X136313217Y-82750499D01*
X136316018Y-82750499D01*
X136317393Y-82750579D01*
G37*
%TD.AperFunction*%
%TD*%
%TA.AperFunction,Conductor*%
%TO.N,/SIG_FLTR+*%
G36*
X138830241Y-83243508D02*
G01*
X138834724Y-83247736D01*
X138997275Y-83513902D01*
X138998663Y-83522749D01*
X138997275Y-83526098D01*
X138834724Y-83792263D01*
X138827488Y-83797538D01*
X138821328Y-83797357D01*
X138745987Y-83774395D01*
X138745984Y-83774394D01*
X138661977Y-83753593D01*
X138577997Y-83737599D01*
X138577999Y-83737599D01*
X138494003Y-83726400D01*
X138493982Y-83726398D01*
X138420811Y-83720823D01*
X138412822Y-83716778D01*
X138410000Y-83709157D01*
X138410000Y-83330842D01*
X138413427Y-83322569D01*
X138420810Y-83319176D01*
X138494000Y-83313599D01*
X138578000Y-83302399D01*
X138609980Y-83296307D01*
X138661977Y-83286405D01*
X138661987Y-83286402D01*
X138662000Y-83286400D01*
X138746000Y-83265600D01*
X138821330Y-83242642D01*
X138830241Y-83243508D01*
G37*
%TD.AperFunction*%
%TD*%
%TA.AperFunction,Conductor*%
%TO.N,+4V*%
G36*
X125213154Y-87265499D02*
G01*
X125285922Y-87317134D01*
X125285927Y-87317137D01*
X125285929Y-87317138D01*
X125364424Y-87360841D01*
X125364430Y-87360844D01*
X125364441Y-87360850D01*
X125442961Y-87392567D01*
X125521480Y-87412283D01*
X125521481Y-87412283D01*
X125521485Y-87412284D01*
X125554166Y-87415495D01*
X125589445Y-87418962D01*
X125597343Y-87423182D01*
X125600000Y-87430606D01*
X125600000Y-87610779D01*
X125596573Y-87619052D01*
X125591036Y-87622155D01*
X125554845Y-87630858D01*
X125523430Y-87638413D01*
X125523426Y-87638414D01*
X125523424Y-87638415D01*
X125446860Y-87668826D01*
X125370290Y-87711240D01*
X125293716Y-87765656D01*
X125222987Y-87827006D01*
X125214492Y-87829839D01*
X125210209Y-87828692D01*
X124657735Y-87560315D01*
X124651790Y-87553618D01*
X124652323Y-87544679D01*
X124657567Y-87539350D01*
X125201108Y-87264599D01*
X125210036Y-87263926D01*
X125213154Y-87265499D01*
G37*
%TD.AperFunction*%
%TD*%
%TA.AperFunction,Conductor*%
%TO.N,+4V*%
G36*
X126033571Y-87259229D02*
G01*
X126244752Y-87512507D01*
X126247418Y-87521056D01*
X126244752Y-87527493D01*
X126033571Y-87780770D01*
X126025641Y-87784929D01*
X126017524Y-87782606D01*
X125953151Y-87733883D01*
X125953149Y-87733882D01*
X125953139Y-87733874D01*
X125953123Y-87733864D01*
X125879864Y-87689210D01*
X125879859Y-87689208D01*
X125879858Y-87689207D01*
X125879854Y-87689205D01*
X125806569Y-87655337D01*
X125806570Y-87655337D01*
X125806565Y-87655335D01*
X125733282Y-87632267D01*
X125669768Y-87621635D01*
X125662174Y-87616890D01*
X125660000Y-87610096D01*
X125660000Y-87429903D01*
X125663427Y-87421630D01*
X125669766Y-87418364D01*
X125733284Y-87407731D01*
X125806569Y-87384662D01*
X125879854Y-87350794D01*
X125953139Y-87306125D01*
X126017524Y-87257392D01*
X126026189Y-87255132D01*
X126033571Y-87259229D01*
G37*
%TD.AperFunction*%
%TD*%
%TA.AperFunction,Conductor*%
%TO.N,+4V*%
G36*
X130757100Y-77736232D02*
G01*
X131009142Y-77960238D01*
X131013050Y-77968295D01*
X131010115Y-77976755D01*
X131009131Y-77977738D01*
X130984997Y-77999130D01*
X130950991Y-78038064D01*
X130916995Y-78085775D01*
X130882998Y-78142272D01*
X130882989Y-78142288D01*
X130849825Y-78205977D01*
X130847721Y-78208846D01*
X130719418Y-78337149D01*
X130711145Y-78340576D01*
X130702872Y-78337149D01*
X130700530Y-78333796D01*
X130662375Y-78251472D01*
X130662375Y-78251471D01*
X130617176Y-78164748D01*
X130571978Y-78088825D01*
X130526779Y-78023702D01*
X130488790Y-77978045D01*
X130486134Y-77969495D01*
X130489972Y-77961854D01*
X130741516Y-77736266D01*
X130749964Y-77733294D01*
X130757100Y-77736232D01*
G37*
%TD.AperFunction*%
%TD*%
%TA.AperFunction,Conductor*%
%TO.N,+4V*%
G36*
X131307781Y-82982735D02*
G01*
X131307817Y-82982775D01*
X131493944Y-83191717D01*
X131496889Y-83200174D01*
X131493445Y-83207808D01*
X131471065Y-83229993D01*
X131471057Y-83230001D01*
X131440790Y-83267502D01*
X131410523Y-83312508D01*
X131380288Y-83364957D01*
X131380249Y-83365026D01*
X131353244Y-83418569D01*
X131346459Y-83424412D01*
X131342798Y-83425000D01*
X131158386Y-83425000D01*
X131150113Y-83421573D01*
X131147306Y-83417058D01*
X131129713Y-83365192D01*
X131109426Y-83312788D01*
X131089139Y-83267788D01*
X131089136Y-83267784D01*
X131089131Y-83267771D01*
X131089129Y-83267768D01*
X131068855Y-83230197D01*
X131068853Y-83230195D01*
X131068852Y-83230192D01*
X131054233Y-83208434D01*
X131052463Y-83199656D01*
X131056123Y-83193207D01*
X131057781Y-83191717D01*
X131291261Y-82981854D01*
X131299703Y-82978874D01*
X131307781Y-82982735D01*
G37*
%TD.AperFunction*%
%TD*%
%TA.AperFunction,Conductor*%
%TO.N,+4V*%
G36*
X131350382Y-83963427D02*
G01*
X131352957Y-83967317D01*
X131386004Y-84049106D01*
X131386007Y-84049111D01*
X131422000Y-84127390D01*
X131422009Y-84127408D01*
X131457996Y-84194878D01*
X131457999Y-84194883D01*
X131458000Y-84194884D01*
X131494000Y-84251579D01*
X131519479Y-84284062D01*
X131522840Y-84288347D01*
X131525249Y-84296972D01*
X131520933Y-84304712D01*
X131257299Y-84515173D01*
X131248696Y-84517656D01*
X131242701Y-84515173D01*
X130979066Y-84304712D01*
X130974738Y-84296872D01*
X130977158Y-84288348D01*
X131006000Y-84251579D01*
X131042000Y-84194884D01*
X131078000Y-84127390D01*
X131114000Y-84049095D01*
X131147043Y-83967316D01*
X131153320Y-83960930D01*
X131157891Y-83960000D01*
X131342109Y-83960000D01*
X131350382Y-83963427D01*
G37*
%TD.AperFunction*%
%TD*%
%TA.AperFunction,Conductor*%
%TO.N,+4V*%
G36*
X137506148Y-77487821D02*
G01*
X137507289Y-77488847D01*
X137557958Y-77534400D01*
X137618467Y-77578599D01*
X137618480Y-77578608D01*
X137678975Y-77612597D01*
X137678979Y-77612599D01*
X137739489Y-77636399D01*
X137783021Y-77646183D01*
X137790866Y-77647947D01*
X137798186Y-77653104D01*
X137800000Y-77659362D01*
X137800000Y-77840637D01*
X137796573Y-77848910D01*
X137790866Y-77852052D01*
X137739490Y-77863599D01*
X137678975Y-77887401D01*
X137618480Y-77921390D01*
X137618467Y-77921399D01*
X137557958Y-77965598D01*
X137506226Y-78012108D01*
X137497783Y-78015091D01*
X137489703Y-78011229D01*
X137489634Y-78011152D01*
X137380344Y-77887401D01*
X137265838Y-77757743D01*
X137262931Y-77749275D01*
X137265838Y-77742256D01*
X137489635Y-77488846D01*
X137497679Y-77484914D01*
X137506148Y-77487821D01*
G37*
%TD.AperFunction*%
%TD*%
%TA.AperFunction,Conductor*%
%TO.N,/INA_REF*%
G36*
X132938248Y-76515976D02*
G01*
X133008728Y-76570931D01*
X133023600Y-76582527D01*
X133114797Y-76641637D01*
X133114801Y-76641639D01*
X133205989Y-76688745D01*
X133205993Y-76688746D01*
X133205994Y-76688747D01*
X133297191Y-76723857D01*
X133368432Y-76741910D01*
X133375609Y-76747264D01*
X133376899Y-76756125D01*
X133373830Y-76761524D01*
X133249130Y-76886224D01*
X133244020Y-76889215D01*
X133184058Y-76906052D01*
X133184048Y-76906055D01*
X133121146Y-76934904D01*
X133058223Y-76974949D01*
X132995320Y-77026165D01*
X132995320Y-77026166D01*
X132938399Y-77082633D01*
X132930112Y-77086027D01*
X132924868Y-77084762D01*
X132382426Y-76809753D01*
X132376597Y-76802956D01*
X132377282Y-76794027D01*
X132382445Y-76788873D01*
X132925784Y-76514756D01*
X132934714Y-76514090D01*
X132938248Y-76515976D01*
G37*
%TD.AperFunction*%
%TD*%
%TA.AperFunction,Conductor*%
%TO.N,/INA_REF*%
G36*
X134075128Y-78415236D02*
G01*
X134563555Y-78662859D01*
X134617573Y-78690246D01*
X134623402Y-78697043D01*
X134622717Y-78705972D01*
X134617552Y-78711127D01*
X134074215Y-78985242D01*
X134065285Y-78985909D01*
X134061751Y-78984023D01*
X134030797Y-78959887D01*
X133976400Y-78917472D01*
X133885202Y-78858362D01*
X133885200Y-78858361D01*
X133885197Y-78858359D01*
X133794010Y-78811253D01*
X133756415Y-78796780D01*
X133702809Y-78776142D01*
X133631567Y-78758089D01*
X133624390Y-78752736D01*
X133623100Y-78743874D01*
X133626167Y-78738477D01*
X133750871Y-78613773D01*
X133755976Y-78610785D01*
X133815945Y-78593945D01*
X133815948Y-78593943D01*
X133815950Y-78593943D01*
X133833595Y-78585850D01*
X133878858Y-78565092D01*
X133941771Y-78525053D01*
X134004684Y-78473828D01*
X134061601Y-78417365D01*
X134069887Y-78413972D01*
X134075128Y-78415236D01*
G37*
%TD.AperFunction*%
%TD*%
%TA.AperFunction,Conductor*%
%TO.N,/INA_REF*%
G36*
X131959149Y-81460986D02*
G01*
X131960255Y-81461621D01*
X132014441Y-81496851D01*
X132073331Y-81527638D01*
X132113460Y-81543506D01*
X132132212Y-81550922D01*
X132132219Y-81550925D01*
X132151850Y-81556187D01*
X132191110Y-81566712D01*
X132239931Y-81573583D01*
X132247645Y-81578128D01*
X132250000Y-81585168D01*
X132250000Y-81764831D01*
X132246573Y-81773104D01*
X132239930Y-81776417D01*
X132191112Y-81783286D01*
X132132219Y-81799073D01*
X132132212Y-81799076D01*
X132073342Y-81822356D01*
X132073332Y-81822360D01*
X132036928Y-81841391D01*
X132014441Y-81853148D01*
X132014438Y-81853149D01*
X132014432Y-81853153D01*
X131960259Y-81888374D01*
X131951455Y-81890011D01*
X131950219Y-81889677D01*
X131481608Y-81735198D01*
X131332706Y-81686111D01*
X131325923Y-81680267D01*
X131325258Y-81671337D01*
X131331103Y-81664553D01*
X131332703Y-81663889D01*
X131950221Y-81460321D01*
X131959149Y-81460986D01*
G37*
%TD.AperFunction*%
%TD*%
%TA.AperFunction,Conductor*%
%TO.N,/INA_REF*%
G36*
X134645758Y-78707285D02*
G01*
X134901708Y-78964089D01*
X134929080Y-78991552D01*
X134932493Y-78999830D01*
X134929052Y-79008098D01*
X134928892Y-79008255D01*
X134897504Y-79038360D01*
X134897499Y-79038366D01*
X134857499Y-79087548D01*
X134817502Y-79147546D01*
X134817495Y-79147557D01*
X134777497Y-79218369D01*
X134777493Y-79218378D01*
X134740709Y-79293448D01*
X134733992Y-79299370D01*
X134730203Y-79300000D01*
X134544796Y-79300000D01*
X134536523Y-79296573D01*
X134534290Y-79293448D01*
X134497505Y-79218378D01*
X134497501Y-79218369D01*
X134457503Y-79147557D01*
X134457496Y-79147546D01*
X134417499Y-79087548D01*
X134402091Y-79068603D01*
X134377500Y-79038366D01*
X134346107Y-79008255D01*
X134342509Y-79000055D01*
X134345762Y-78991712D01*
X134345859Y-78991612D01*
X134629214Y-78707313D01*
X134637481Y-78703873D01*
X134645758Y-78707285D01*
G37*
%TD.AperFunction*%
%TD*%
%TA.AperFunction,Conductor*%
%TO.N,+4V*%
G36*
X131799246Y-78414779D02*
G01*
X132342842Y-78689558D01*
X132348680Y-78696349D01*
X132348006Y-78705278D01*
X132342842Y-78710442D01*
X131799246Y-78985220D01*
X131790317Y-78985894D01*
X131786738Y-78983977D01*
X131714077Y-78926865D01*
X131714068Y-78926859D01*
X131714065Y-78926857D01*
X131635556Y-78877147D01*
X131557047Y-78839435D01*
X131557044Y-78839434D01*
X131478516Y-78813715D01*
X131409687Y-78801692D01*
X131402127Y-78796893D01*
X131400000Y-78790167D01*
X131400000Y-78609832D01*
X131403427Y-78601559D01*
X131409684Y-78598308D01*
X131478519Y-78586283D01*
X131557038Y-78560567D01*
X131557044Y-78560563D01*
X131557047Y-78560563D01*
X131635556Y-78522851D01*
X131635558Y-78522850D01*
X131714077Y-78473134D01*
X131786740Y-78416021D01*
X131795360Y-78413604D01*
X131799246Y-78414779D01*
G37*
%TD.AperFunction*%
%TD*%
%TA.AperFunction,Conductor*%
%TO.N,Net-(U4-+)*%
G36*
X136247898Y-76756227D02*
G01*
X136492483Y-76980036D01*
X136496274Y-76988150D01*
X136494460Y-76994943D01*
X136467775Y-77036934D01*
X136435837Y-77097389D01*
X136435834Y-77097396D01*
X136403899Y-77168040D01*
X136403892Y-77168056D01*
X136371937Y-77248950D01*
X136342745Y-77332173D01*
X136336773Y-77338845D01*
X136331705Y-77340000D01*
X136148294Y-77340000D01*
X136140021Y-77336573D01*
X136137254Y-77332173D01*
X136108061Y-77248950D01*
X136108055Y-77248932D01*
X136076110Y-77168064D01*
X136044165Y-77097397D01*
X136012220Y-77036929D01*
X136005589Y-77026494D01*
X135985539Y-76994943D01*
X135983994Y-76986123D01*
X135987514Y-76980038D01*
X136232102Y-76756226D01*
X136240518Y-76753170D01*
X136247898Y-76756227D01*
G37*
%TD.AperFunction*%
%TD*%
%TA.AperFunction,Conductor*%
%TO.N,Net-(U4-+)*%
G36*
X136339979Y-77163427D02*
G01*
X136342744Y-77167825D01*
X136371944Y-77251067D01*
X136403889Y-77331935D01*
X136403892Y-77331942D01*
X136403899Y-77331958D01*
X136435834Y-77402602D01*
X136435837Y-77402609D01*
X136467775Y-77463064D01*
X136494460Y-77505056D01*
X136496005Y-77513876D01*
X136492483Y-77519963D01*
X136247898Y-77743772D01*
X136239482Y-77746829D01*
X136232102Y-77743772D01*
X135987515Y-77519962D01*
X135983724Y-77511848D01*
X135985536Y-77505059D01*
X136012220Y-77463070D01*
X136044165Y-77402602D01*
X136076110Y-77331935D01*
X136108055Y-77251067D01*
X136137254Y-77167826D01*
X136143226Y-77161155D01*
X136148294Y-77160000D01*
X136331706Y-77160000D01*
X136339979Y-77163427D01*
G37*
%TD.AperFunction*%
%TD*%
%TA.AperFunction,Conductor*%
%TO.N,Net-(U4-+)*%
G36*
X136010296Y-76488770D02*
G01*
X136010365Y-76488847D01*
X136234160Y-76742255D01*
X136237068Y-76750725D01*
X136234160Y-76757745D01*
X136010365Y-77011152D01*
X136002320Y-77015085D01*
X135993850Y-77012177D01*
X135942041Y-76965599D01*
X135881531Y-76921399D01*
X135881518Y-76921390D01*
X135821023Y-76887401D01*
X135760508Y-76863599D01*
X135709134Y-76852052D01*
X135701814Y-76846895D01*
X135700000Y-76840637D01*
X135700000Y-76659361D01*
X135703427Y-76651088D01*
X135709131Y-76647947D01*
X135760510Y-76636399D01*
X135821020Y-76612599D01*
X135839851Y-76602018D01*
X135881518Y-76578608D01*
X135881523Y-76578604D01*
X135881531Y-76578600D01*
X135942041Y-76534400D01*
X135993775Y-76487890D01*
X136002216Y-76484908D01*
X136010296Y-76488770D01*
G37*
%TD.AperFunction*%
%TD*%
%TA.AperFunction,Conductor*%
%TO.N,Net-(U4-+)*%
G36*
X135213063Y-76515146D02*
G01*
X135285922Y-76563134D01*
X135285925Y-76563135D01*
X135285930Y-76563139D01*
X135364433Y-76602846D01*
X135364431Y-76602846D01*
X135364437Y-76602848D01*
X135364441Y-76602850D01*
X135442961Y-76630567D01*
X135442966Y-76630568D01*
X135521473Y-76646282D01*
X135521475Y-76646282D01*
X135521480Y-76646283D01*
X135588853Y-76649472D01*
X135596955Y-76653286D01*
X135600000Y-76661159D01*
X135600000Y-76841065D01*
X135596573Y-76849338D01*
X135591381Y-76852352D01*
X135527254Y-76869856D01*
X135454523Y-76901707D01*
X135454513Y-76901712D01*
X135381773Y-76945567D01*
X135309025Y-77001428D01*
X135241975Y-77063976D01*
X135233588Y-77067114D01*
X135229202Y-77066095D01*
X134727968Y-76841065D01*
X134658881Y-76810048D01*
X134652737Y-76803533D01*
X134652999Y-76794582D01*
X134658394Y-76788932D01*
X135201353Y-76514475D01*
X135210280Y-76513802D01*
X135213063Y-76515146D01*
G37*
%TD.AperFunction*%
%TD*%
%TA.AperFunction,Conductor*%
%TO.N,+5V*%
G36*
X121853714Y-89152170D02*
G01*
X122346208Y-89439898D01*
X122351623Y-89447030D01*
X122350408Y-89455902D01*
X122346208Y-89460102D01*
X121853714Y-89747829D01*
X121845764Y-89749246D01*
X121760017Y-89734001D01*
X121669980Y-89720996D01*
X121580019Y-89711001D01*
X121489980Y-89703998D01*
X121411180Y-89700496D01*
X121403068Y-89696706D01*
X121400000Y-89688808D01*
X121400000Y-89211191D01*
X121403427Y-89202918D01*
X121411180Y-89199503D01*
X121489980Y-89196000D01*
X121489983Y-89195999D01*
X121490000Y-89195999D01*
X121580000Y-89188999D01*
X121580015Y-89188997D01*
X121580019Y-89188997D01*
X121609987Y-89185667D01*
X121670000Y-89179000D01*
X121760000Y-89166000D01*
X121845764Y-89150753D01*
X121853714Y-89152170D01*
G37*
%TD.AperFunction*%
%TD*%
%TA.AperFunction,Conductor*%
%TO.N,Net-(U1-FB)*%
G36*
X125213259Y-88216021D02*
G01*
X125285922Y-88273134D01*
X125285932Y-88273140D01*
X125285933Y-88273141D01*
X125364442Y-88322851D01*
X125442951Y-88360563D01*
X125442954Y-88360564D01*
X125442956Y-88360564D01*
X125442961Y-88360567D01*
X125521480Y-88386283D01*
X125590314Y-88398308D01*
X125597873Y-88403106D01*
X125600000Y-88409832D01*
X125600000Y-88590167D01*
X125596573Y-88598440D01*
X125590313Y-88601692D01*
X125521482Y-88613715D01*
X125521481Y-88613715D01*
X125442954Y-88639434D01*
X125442951Y-88639435D01*
X125364442Y-88677147D01*
X125285933Y-88726857D01*
X125285921Y-88726866D01*
X125213261Y-88783977D01*
X125204639Y-88786395D01*
X125200753Y-88785220D01*
X124657157Y-88510442D01*
X124651319Y-88503651D01*
X124651993Y-88494722D01*
X124657157Y-88489558D01*
X125200754Y-88214778D01*
X125209682Y-88214105D01*
X125213259Y-88216021D01*
G37*
%TD.AperFunction*%
%TD*%
%TA.AperFunction,Conductor*%
%TO.N,Net-(U1-FB)*%
G36*
X126033815Y-88219522D02*
G01*
X126076008Y-88270125D01*
X126244752Y-88472507D01*
X126247418Y-88481056D01*
X126244752Y-88487493D01*
X126033320Y-88741071D01*
X126025390Y-88745230D01*
X126017610Y-88743153D01*
X125953139Y-88697874D01*
X125934929Y-88687768D01*
X125879857Y-88657206D01*
X125879852Y-88657204D01*
X125855425Y-88647249D01*
X125806569Y-88627337D01*
X125801597Y-88626043D01*
X125733290Y-88608269D01*
X125733274Y-88608266D01*
X125670388Y-88601171D01*
X125662551Y-88596838D01*
X125660000Y-88589545D01*
X125660000Y-88409387D01*
X125663427Y-88401114D01*
X125669162Y-88397966D01*
X125733284Y-88383731D01*
X125806569Y-88356662D01*
X125879854Y-88318794D01*
X125953139Y-88270125D01*
X126017460Y-88217930D01*
X126026042Y-88215379D01*
X126033815Y-88219522D01*
G37*
%TD.AperFunction*%
%TD*%
%TA.AperFunction,Conductor*%
%TO.N,+5V*%
G36*
X121853714Y-87252170D02*
G01*
X122346208Y-87539898D01*
X122351623Y-87547030D01*
X122350408Y-87555902D01*
X122346208Y-87560102D01*
X121853714Y-87847829D01*
X121845764Y-87849246D01*
X121760017Y-87834001D01*
X121669980Y-87820996D01*
X121580019Y-87811001D01*
X121489980Y-87803998D01*
X121411180Y-87800496D01*
X121403068Y-87796706D01*
X121400000Y-87788808D01*
X121400000Y-87311191D01*
X121403427Y-87302918D01*
X121411180Y-87299503D01*
X121489980Y-87296000D01*
X121489983Y-87295999D01*
X121490000Y-87295999D01*
X121580000Y-87288999D01*
X121580015Y-87288997D01*
X121580019Y-87288997D01*
X121609987Y-87285667D01*
X121670000Y-87279000D01*
X121760000Y-87266000D01*
X121845764Y-87250753D01*
X121853714Y-87252170D01*
G37*
%TD.AperFunction*%
%TD*%
%TA.AperFunction,Conductor*%
%TO.N,+5V*%
G36*
X120459140Y-87220940D02*
G01*
X120520020Y-87229600D01*
X120587515Y-87237400D01*
X120655009Y-87243400D01*
X120655014Y-87243400D01*
X120655022Y-87243401D01*
X120694765Y-87245873D01*
X120722504Y-87247600D01*
X120778717Y-87249598D01*
X120786862Y-87253317D01*
X120790000Y-87261291D01*
X120790000Y-87738708D01*
X120786573Y-87746981D01*
X120778716Y-87750401D01*
X120722474Y-87752401D01*
X120655022Y-87756598D01*
X120598034Y-87761664D01*
X120587515Y-87762600D01*
X120533035Y-87768895D01*
X120519993Y-87770403D01*
X120459145Y-87779058D01*
X120450471Y-87776831D01*
X120448353Y-87774774D01*
X120444861Y-87770400D01*
X120234825Y-87507297D01*
X120232343Y-87498696D01*
X120234825Y-87492703D01*
X120448354Y-87225224D01*
X120456193Y-87220897D01*
X120459140Y-87220940D01*
G37*
%TD.AperFunction*%
%TD*%
%TA.AperFunction,Conductor*%
%TO.N,+4V*%
G36*
X124922707Y-85603544D02*
G01*
X125017140Y-85647999D01*
X125017143Y-85648000D01*
X125119107Y-85687000D01*
X125119110Y-85687000D01*
X125119113Y-85687002D01*
X125221052Y-85716995D01*
X125221065Y-85716998D01*
X125221071Y-85717000D01*
X125221076Y-85717001D01*
X125221080Y-85717002D01*
X125323024Y-85737998D01*
X125323027Y-85737998D01*
X125323035Y-85738000D01*
X125414669Y-85748784D01*
X125422483Y-85753153D01*
X125425000Y-85760403D01*
X125425000Y-86239596D01*
X125421573Y-86247869D01*
X125414668Y-86251215D01*
X125323035Y-86262000D01*
X125323028Y-86262001D01*
X125323023Y-86262002D01*
X125221080Y-86282997D01*
X125221052Y-86283004D01*
X125119113Y-86312997D01*
X125017140Y-86352000D01*
X124922707Y-86396455D01*
X124913762Y-86396878D01*
X124909359Y-86394049D01*
X124531998Y-86008178D01*
X124528665Y-85999870D01*
X124531998Y-85991821D01*
X124909361Y-85605949D01*
X124917594Y-85602431D01*
X124922707Y-85603544D01*
G37*
%TD.AperFunction*%
%TD*%
%TA.AperFunction,Conductor*%
%TO.N,+4V*%
G36*
X124533126Y-86006848D02*
G01*
X124791149Y-86256034D01*
X124919695Y-86380178D01*
X124923265Y-86388390D01*
X124922666Y-86392296D01*
X124895003Y-86475231D01*
X124895000Y-86475240D01*
X124865000Y-86574180D01*
X124864999Y-86574185D01*
X124834995Y-86682137D01*
X124805007Y-86799031D01*
X124777141Y-86916011D01*
X124771890Y-86923265D01*
X124765759Y-86925000D01*
X124284241Y-86925000D01*
X124275968Y-86921573D01*
X124272859Y-86916011D01*
X124267537Y-86893672D01*
X124245000Y-86799060D01*
X124215000Y-86682120D01*
X124185000Y-86574180D01*
X124155000Y-86475240D01*
X124127333Y-86392295D01*
X124127966Y-86383364D01*
X124130302Y-86380180D01*
X124516873Y-86006848D01*
X124525204Y-86003567D01*
X124533126Y-86006848D01*
G37*
%TD.AperFunction*%
%TD*%
%TA.AperFunction,Conductor*%
%TO.N,+4V*%
G36*
X124774873Y-86953427D02*
G01*
X124777686Y-86957959D01*
X124797274Y-87016004D01*
X124819539Y-87078981D01*
X124819546Y-87079000D01*
X124841820Y-87139000D01*
X124853485Y-87168854D01*
X124864101Y-87196022D01*
X124883686Y-87243501D01*
X124883673Y-87252455D01*
X124881887Y-87255417D01*
X124644980Y-87541951D01*
X124637067Y-87546144D01*
X124628508Y-87543513D01*
X124628477Y-87543488D01*
X124280144Y-87253495D01*
X124275979Y-87245568D01*
X124275930Y-87244537D01*
X124275790Y-87196000D01*
X124275756Y-87184000D01*
X124275567Y-87121000D01*
X124275378Y-87061000D01*
X124275189Y-87004000D01*
X124275041Y-86961740D01*
X124278439Y-86953456D01*
X124286700Y-86950000D01*
X124766600Y-86950000D01*
X124774873Y-86953427D01*
G37*
%TD.AperFunction*%
%TD*%
%TA.AperFunction,Conductor*%
%TO.N,Net-(R13-Pad1)*%
G36*
X136359149Y-82110986D02*
G01*
X136360255Y-82111621D01*
X136414441Y-82146851D01*
X136473331Y-82177638D01*
X136513460Y-82193506D01*
X136532212Y-82200922D01*
X136532219Y-82200925D01*
X136551850Y-82206187D01*
X136591110Y-82216712D01*
X136639931Y-82223583D01*
X136647645Y-82228128D01*
X136650000Y-82235168D01*
X136650000Y-82414831D01*
X136646573Y-82423104D01*
X136639930Y-82426417D01*
X136591112Y-82433286D01*
X136532219Y-82449073D01*
X136532212Y-82449076D01*
X136473342Y-82472356D01*
X136473332Y-82472360D01*
X136436928Y-82491391D01*
X136414441Y-82503148D01*
X136414438Y-82503149D01*
X136414432Y-82503153D01*
X136360259Y-82538374D01*
X136351455Y-82540011D01*
X136350219Y-82539677D01*
X135881608Y-82385198D01*
X135732706Y-82336111D01*
X135725923Y-82330267D01*
X135725258Y-82321337D01*
X135731103Y-82314553D01*
X135732703Y-82313889D01*
X136350221Y-82110321D01*
X136359149Y-82110986D01*
G37*
%TD.AperFunction*%
%TD*%
%TA.AperFunction,Conductor*%
%TO.N,Net-(R13-Pad2)*%
G36*
X136359149Y-81460986D02*
G01*
X136360255Y-81461621D01*
X136414441Y-81496851D01*
X136473331Y-81527638D01*
X136513460Y-81543506D01*
X136532212Y-81550922D01*
X136532219Y-81550925D01*
X136551850Y-81556187D01*
X136591110Y-81566712D01*
X136639931Y-81573583D01*
X136647645Y-81578128D01*
X136650000Y-81585168D01*
X136650000Y-81764831D01*
X136646573Y-81773104D01*
X136639930Y-81776417D01*
X136591112Y-81783286D01*
X136532219Y-81799073D01*
X136532212Y-81799076D01*
X136473342Y-81822356D01*
X136473332Y-81822360D01*
X136436928Y-81841391D01*
X136414441Y-81853148D01*
X136414438Y-81853149D01*
X136414432Y-81853153D01*
X136360259Y-81888374D01*
X136351455Y-81890011D01*
X136350219Y-81889677D01*
X135881608Y-81735198D01*
X135732706Y-81686111D01*
X135725923Y-81680267D01*
X135725258Y-81671337D01*
X135731103Y-81664553D01*
X135732703Y-81663889D01*
X136350221Y-81460321D01*
X136359149Y-81460986D01*
G37*
%TD.AperFunction*%
%TD*%
%TA.AperFunction,Conductor*%
%TO.N,/SIG_FLTR-*%
G36*
X139310547Y-80397423D02*
G01*
X139314636Y-80401319D01*
X139363497Y-80478258D01*
X139366085Y-80482332D01*
X139422167Y-80565841D01*
X139478266Y-80644573D01*
X139534330Y-80718458D01*
X139583776Y-80779391D01*
X139586328Y-80787974D01*
X139582964Y-80795036D01*
X139315191Y-81062809D01*
X139306918Y-81066236D01*
X139299360Y-81063467D01*
X139298582Y-81062809D01*
X139289117Y-81054799D01*
X139222870Y-80998739D01*
X139138153Y-80931851D01*
X139053445Y-80869769D01*
X138968734Y-80812485D01*
X138892446Y-80765220D01*
X138887218Y-80757949D01*
X138887784Y-80750832D01*
X138997109Y-80484609D01*
X139003422Y-80478258D01*
X139004820Y-80477775D01*
X139301662Y-80396308D01*
X139310547Y-80397423D01*
G37*
%TD.AperFunction*%
%TD*%
%TA.AperFunction,Conductor*%
%TO.N,/SIG_FLTR+*%
G36*
X139315191Y-82937190D02*
G01*
X139582964Y-83204963D01*
X139586391Y-83213236D01*
X139583776Y-83220608D01*
X139534330Y-83281540D01*
X139478266Y-83355425D01*
X139422167Y-83434157D01*
X139366085Y-83517666D01*
X139314635Y-83598680D01*
X139307307Y-83603827D01*
X139301661Y-83603691D01*
X139004835Y-83522228D01*
X138997764Y-83516734D01*
X138997109Y-83515389D01*
X138887786Y-83249169D01*
X138887813Y-83240215D01*
X138892446Y-83234779D01*
X138968732Y-83187515D01*
X138968735Y-83187513D01*
X139053446Y-83130230D01*
X139095799Y-83099188D01*
X139138155Y-83068146D01*
X139222867Y-83001262D01*
X139299361Y-82936531D01*
X139307889Y-82933803D01*
X139315191Y-82937190D01*
G37*
%TD.AperFunction*%
%TD*%
%TA.AperFunction,Conductor*%
%TO.N,/SIG_FLTR+*%
G36*
X139007296Y-82484825D02*
G01*
X139165975Y-82611498D01*
X139273964Y-82697706D01*
X139278292Y-82705546D01*
X139277942Y-82709967D01*
X139264005Y-82760397D01*
X139263999Y-82760419D01*
X139247999Y-82823114D01*
X139237847Y-82865940D01*
X139231997Y-82890620D01*
X139215994Y-82962930D01*
X139201935Y-83030677D01*
X139196898Y-83038082D01*
X139190479Y-83040000D01*
X138809521Y-83040000D01*
X138801248Y-83036573D01*
X138798065Y-83030678D01*
X138784001Y-82962915D01*
X138768001Y-82890620D01*
X138767999Y-82890609D01*
X138752000Y-82823114D01*
X138736000Y-82760419D01*
X138722057Y-82709967D01*
X138723156Y-82701080D01*
X138726035Y-82697706D01*
X138992702Y-82484825D01*
X139001304Y-82482343D01*
X139007296Y-82484825D01*
G37*
%TD.AperFunction*%
%TD*%
%TA.AperFunction,Conductor*%
%TO.N,/SIG_FLTR+*%
G36*
X139198752Y-82963427D02*
G01*
X139201935Y-82969322D01*
X139215997Y-83037083D01*
X139232011Y-83109441D01*
X139247989Y-83176842D01*
X139247999Y-83176884D01*
X139263999Y-83239579D01*
X139264005Y-83239600D01*
X139277942Y-83290031D01*
X139276843Y-83298918D01*
X139273964Y-83302292D01*
X139007299Y-83515173D01*
X138998696Y-83517656D01*
X138992701Y-83515173D01*
X138726035Y-83302292D01*
X138721707Y-83294452D01*
X138722057Y-83290031D01*
X138736000Y-83239579D01*
X138752000Y-83176884D01*
X138767999Y-83109390D01*
X138783999Y-83037095D01*
X138798065Y-82969321D01*
X138803102Y-82961918D01*
X138809521Y-82960000D01*
X139190479Y-82960000D01*
X139198752Y-82963427D01*
G37*
%TD.AperFunction*%
%TD*%
%TA.AperFunction,Conductor*%
%TO.N,/SIG_FLTR-*%
G36*
X139198752Y-80963427D02*
G01*
X139201935Y-80969322D01*
X139215997Y-81037083D01*
X139232011Y-81109441D01*
X139247989Y-81176842D01*
X139247999Y-81176884D01*
X139263999Y-81239579D01*
X139264005Y-81239600D01*
X139277942Y-81290031D01*
X139276843Y-81298918D01*
X139273964Y-81302292D01*
X139007299Y-81515173D01*
X138998696Y-81517656D01*
X138992701Y-81515173D01*
X138726035Y-81302292D01*
X138721707Y-81294452D01*
X138722057Y-81290031D01*
X138736000Y-81239579D01*
X138752000Y-81176884D01*
X138767999Y-81109390D01*
X138783999Y-81037095D01*
X138798065Y-80969321D01*
X138803102Y-80961918D01*
X138809521Y-80960000D01*
X139190479Y-80960000D01*
X139198752Y-80963427D01*
G37*
%TD.AperFunction*%
%TD*%
%TA.AperFunction,Conductor*%
%TO.N,/SIG_FLTR-*%
G36*
X139007296Y-80484825D02*
G01*
X139165975Y-80611498D01*
X139273964Y-80697706D01*
X139278292Y-80705546D01*
X139277942Y-80709967D01*
X139264005Y-80760397D01*
X139263999Y-80760419D01*
X139247999Y-80823114D01*
X139237847Y-80865940D01*
X139231997Y-80890620D01*
X139215994Y-80962930D01*
X139201935Y-81030677D01*
X139196898Y-81038082D01*
X139190479Y-81040000D01*
X138809521Y-81040000D01*
X138801248Y-81036573D01*
X138798065Y-81030678D01*
X138784001Y-80962915D01*
X138768001Y-80890620D01*
X138767999Y-80890609D01*
X138752000Y-80823114D01*
X138736000Y-80760419D01*
X138722057Y-80709967D01*
X138723156Y-80701080D01*
X138726035Y-80697706D01*
X138992702Y-80484825D01*
X139001304Y-80482343D01*
X139007296Y-80484825D01*
G37*
%TD.AperFunction*%
%TD*%
M02*
