%TF.GenerationSoftware,KiCad,Pcbnew,8.0.1*%
%TF.CreationDate,2024-04-29T02:41:37-04:00*%
%TF.ProjectId,ads1220_board,61647331-3232-4305-9f62-6f6172642e6b,rev?*%
%TF.SameCoordinates,Original*%
%TF.FileFunction,Legend,Top*%
%TF.FilePolarity,Positive*%
%FSLAX46Y46*%
G04 Gerber Fmt 4.6, Leading zero omitted, Abs format (unit mm)*
G04 Created by KiCad (PCBNEW 8.0.1) date 2024-04-29 02:41:37*
%MOMM*%
%LPD*%
G01*
G04 APERTURE LIST*
G04 Aperture macros list*
%AMRoundRect*
0 Rectangle with rounded corners*
0 $1 Rounding radius*
0 $2 $3 $4 $5 $6 $7 $8 $9 X,Y pos of 4 corners*
0 Add a 4 corners polygon primitive as box body*
4,1,4,$2,$3,$4,$5,$6,$7,$8,$9,$2,$3,0*
0 Add four circle primitives for the rounded corners*
1,1,$1+$1,$2,$3*
1,1,$1+$1,$4,$5*
1,1,$1+$1,$6,$7*
1,1,$1+$1,$8,$9*
0 Add four rect primitives between the rounded corners*
20,1,$1+$1,$2,$3,$4,$5,0*
20,1,$1+$1,$4,$5,$6,$7,0*
20,1,$1+$1,$6,$7,$8,$9,0*
20,1,$1+$1,$8,$9,$2,$3,0*%
G04 Aperture macros list end*
%ADD10C,0.150000*%
%ADD11C,0.120000*%
%ADD12RoundRect,0.200000X0.275000X-0.200000X0.275000X0.200000X-0.275000X0.200000X-0.275000X-0.200000X0*%
%ADD13RoundRect,0.200000X-0.275000X0.200000X-0.275000X-0.200000X0.275000X-0.200000X0.275000X0.200000X0*%
%ADD14RoundRect,0.200000X0.200000X0.275000X-0.200000X0.275000X-0.200000X-0.275000X0.200000X-0.275000X0*%
%ADD15RoundRect,0.200000X-0.200000X-0.275000X0.200000X-0.275000X0.200000X0.275000X-0.200000X0.275000X0*%
%ADD16RoundRect,0.250000X-0.625000X0.350000X-0.625000X-0.350000X0.625000X-0.350000X0.625000X0.350000X0*%
%ADD17O,1.750000X1.200000*%
%ADD18RoundRect,0.140000X-0.170000X0.140000X-0.170000X-0.140000X0.170000X-0.140000X0.170000X0.140000X0*%
%ADD19RoundRect,0.140000X0.170000X-0.140000X0.170000X0.140000X-0.170000X0.140000X-0.170000X-0.140000X0*%
%ADD20RoundRect,0.140000X-0.140000X-0.170000X0.140000X-0.170000X0.140000X0.170000X-0.140000X0.170000X0*%
%ADD21RoundRect,0.150000X0.512500X0.150000X-0.512500X0.150000X-0.512500X-0.150000X0.512500X-0.150000X0*%
%ADD22RoundRect,0.100000X0.637500X0.100000X-0.637500X0.100000X-0.637500X-0.100000X0.637500X-0.100000X0*%
%ADD23RoundRect,0.112500X0.612500X0.112500X-0.612500X0.112500X-0.612500X-0.112500X0.612500X-0.112500X0*%
%ADD24RoundRect,0.150000X-0.512500X-0.150000X0.512500X-0.150000X0.512500X0.150000X-0.512500X0.150000X0*%
%ADD25RoundRect,0.135000X0.185000X-0.135000X0.185000X0.135000X-0.185000X0.135000X-0.185000X-0.135000X0*%
%ADD26RoundRect,0.135000X0.135000X0.185000X-0.135000X0.185000X-0.135000X-0.185000X0.135000X-0.185000X0*%
%ADD27RoundRect,0.135000X-0.135000X-0.185000X0.135000X-0.185000X0.135000X0.185000X-0.135000X0.185000X0*%
%ADD28RoundRect,0.250000X0.625000X-0.350000X0.625000X0.350000X-0.625000X0.350000X-0.625000X-0.350000X0*%
%ADD29C,1.300000*%
%ADD30RoundRect,0.225000X0.225000X0.250000X-0.225000X0.250000X-0.225000X-0.250000X0.225000X-0.250000X0*%
%ADD31RoundRect,0.140000X0.140000X0.170000X-0.140000X0.170000X-0.140000X-0.170000X0.140000X-0.170000X0*%
G04 APERTURE END LIST*
D10*
X132704819Y-87591666D02*
X132228628Y-87924999D01*
X132704819Y-88163094D02*
X131704819Y-88163094D01*
X131704819Y-88163094D02*
X131704819Y-87782142D01*
X131704819Y-87782142D02*
X131752438Y-87686904D01*
X131752438Y-87686904D02*
X131800057Y-87639285D01*
X131800057Y-87639285D02*
X131895295Y-87591666D01*
X131895295Y-87591666D02*
X132038152Y-87591666D01*
X132038152Y-87591666D02*
X132133390Y-87639285D01*
X132133390Y-87639285D02*
X132181009Y-87686904D01*
X132181009Y-87686904D02*
X132228628Y-87782142D01*
X132228628Y-87782142D02*
X132228628Y-88163094D01*
X131704819Y-86686904D02*
X131704819Y-87163094D01*
X131704819Y-87163094D02*
X132181009Y-87210713D01*
X132181009Y-87210713D02*
X132133390Y-87163094D01*
X132133390Y-87163094D02*
X132085771Y-87067856D01*
X132085771Y-87067856D02*
X132085771Y-86829761D01*
X132085771Y-86829761D02*
X132133390Y-86734523D01*
X132133390Y-86734523D02*
X132181009Y-86686904D01*
X132181009Y-86686904D02*
X132276247Y-86639285D01*
X132276247Y-86639285D02*
X132514342Y-86639285D01*
X132514342Y-86639285D02*
X132609580Y-86686904D01*
X132609580Y-86686904D02*
X132657200Y-86734523D01*
X132657200Y-86734523D02*
X132704819Y-86829761D01*
X132704819Y-86829761D02*
X132704819Y-87067856D01*
X132704819Y-87067856D02*
X132657200Y-87163094D01*
X132657200Y-87163094D02*
X132609580Y-87210713D01*
X131204819Y-87666666D02*
X130728628Y-87999999D01*
X131204819Y-88238094D02*
X130204819Y-88238094D01*
X130204819Y-88238094D02*
X130204819Y-87857142D01*
X130204819Y-87857142D02*
X130252438Y-87761904D01*
X130252438Y-87761904D02*
X130300057Y-87714285D01*
X130300057Y-87714285D02*
X130395295Y-87666666D01*
X130395295Y-87666666D02*
X130538152Y-87666666D01*
X130538152Y-87666666D02*
X130633390Y-87714285D01*
X130633390Y-87714285D02*
X130681009Y-87761904D01*
X130681009Y-87761904D02*
X130728628Y-87857142D01*
X130728628Y-87857142D02*
X130728628Y-88238094D01*
X130538152Y-86809523D02*
X131204819Y-86809523D01*
X130157200Y-87047618D02*
X130871485Y-87285713D01*
X130871485Y-87285713D02*
X130871485Y-86666666D01*
X116857142Y-72704819D02*
X116523809Y-72228628D01*
X116285714Y-72704819D02*
X116285714Y-71704819D01*
X116285714Y-71704819D02*
X116666666Y-71704819D01*
X116666666Y-71704819D02*
X116761904Y-71752438D01*
X116761904Y-71752438D02*
X116809523Y-71800057D01*
X116809523Y-71800057D02*
X116857142Y-71895295D01*
X116857142Y-71895295D02*
X116857142Y-72038152D01*
X116857142Y-72038152D02*
X116809523Y-72133390D01*
X116809523Y-72133390D02*
X116761904Y-72181009D01*
X116761904Y-72181009D02*
X116666666Y-72228628D01*
X116666666Y-72228628D02*
X116285714Y-72228628D01*
X117809523Y-72704819D02*
X117238095Y-72704819D01*
X117523809Y-72704819D02*
X117523809Y-71704819D01*
X117523809Y-71704819D02*
X117428571Y-71847676D01*
X117428571Y-71847676D02*
X117333333Y-71942914D01*
X117333333Y-71942914D02*
X117238095Y-71990533D01*
X118190476Y-71800057D02*
X118238095Y-71752438D01*
X118238095Y-71752438D02*
X118333333Y-71704819D01*
X118333333Y-71704819D02*
X118571428Y-71704819D01*
X118571428Y-71704819D02*
X118666666Y-71752438D01*
X118666666Y-71752438D02*
X118714285Y-71800057D01*
X118714285Y-71800057D02*
X118761904Y-71895295D01*
X118761904Y-71895295D02*
X118761904Y-71990533D01*
X118761904Y-71990533D02*
X118714285Y-72133390D01*
X118714285Y-72133390D02*
X118142857Y-72704819D01*
X118142857Y-72704819D02*
X118761904Y-72704819D01*
X116857142Y-74204819D02*
X116523809Y-73728628D01*
X116285714Y-74204819D02*
X116285714Y-73204819D01*
X116285714Y-73204819D02*
X116666666Y-73204819D01*
X116666666Y-73204819D02*
X116761904Y-73252438D01*
X116761904Y-73252438D02*
X116809523Y-73300057D01*
X116809523Y-73300057D02*
X116857142Y-73395295D01*
X116857142Y-73395295D02*
X116857142Y-73538152D01*
X116857142Y-73538152D02*
X116809523Y-73633390D01*
X116809523Y-73633390D02*
X116761904Y-73681009D01*
X116761904Y-73681009D02*
X116666666Y-73728628D01*
X116666666Y-73728628D02*
X116285714Y-73728628D01*
X117809523Y-74204819D02*
X117238095Y-74204819D01*
X117523809Y-74204819D02*
X117523809Y-73204819D01*
X117523809Y-73204819D02*
X117428571Y-73347676D01*
X117428571Y-73347676D02*
X117333333Y-73442914D01*
X117333333Y-73442914D02*
X117238095Y-73490533D01*
X118761904Y-74204819D02*
X118190476Y-74204819D01*
X118476190Y-74204819D02*
X118476190Y-73204819D01*
X118476190Y-73204819D02*
X118380952Y-73347676D01*
X118380952Y-73347676D02*
X118285714Y-73442914D01*
X118285714Y-73442914D02*
X118190476Y-73490533D01*
X116857142Y-75704819D02*
X116523809Y-75228628D01*
X116285714Y-75704819D02*
X116285714Y-74704819D01*
X116285714Y-74704819D02*
X116666666Y-74704819D01*
X116666666Y-74704819D02*
X116761904Y-74752438D01*
X116761904Y-74752438D02*
X116809523Y-74800057D01*
X116809523Y-74800057D02*
X116857142Y-74895295D01*
X116857142Y-74895295D02*
X116857142Y-75038152D01*
X116857142Y-75038152D02*
X116809523Y-75133390D01*
X116809523Y-75133390D02*
X116761904Y-75181009D01*
X116761904Y-75181009D02*
X116666666Y-75228628D01*
X116666666Y-75228628D02*
X116285714Y-75228628D01*
X117809523Y-75704819D02*
X117238095Y-75704819D01*
X117523809Y-75704819D02*
X117523809Y-74704819D01*
X117523809Y-74704819D02*
X117428571Y-74847676D01*
X117428571Y-74847676D02*
X117333333Y-74942914D01*
X117333333Y-74942914D02*
X117238095Y-74990533D01*
X118428571Y-74704819D02*
X118523809Y-74704819D01*
X118523809Y-74704819D02*
X118619047Y-74752438D01*
X118619047Y-74752438D02*
X118666666Y-74800057D01*
X118666666Y-74800057D02*
X118714285Y-74895295D01*
X118714285Y-74895295D02*
X118761904Y-75085771D01*
X118761904Y-75085771D02*
X118761904Y-75323866D01*
X118761904Y-75323866D02*
X118714285Y-75514342D01*
X118714285Y-75514342D02*
X118666666Y-75609580D01*
X118666666Y-75609580D02*
X118619047Y-75657200D01*
X118619047Y-75657200D02*
X118523809Y-75704819D01*
X118523809Y-75704819D02*
X118428571Y-75704819D01*
X118428571Y-75704819D02*
X118333333Y-75657200D01*
X118333333Y-75657200D02*
X118285714Y-75609580D01*
X118285714Y-75609580D02*
X118238095Y-75514342D01*
X118238095Y-75514342D02*
X118190476Y-75323866D01*
X118190476Y-75323866D02*
X118190476Y-75085771D01*
X118190476Y-75085771D02*
X118238095Y-74895295D01*
X118238095Y-74895295D02*
X118285714Y-74800057D01*
X118285714Y-74800057D02*
X118333333Y-74752438D01*
X118333333Y-74752438D02*
X118428571Y-74704819D01*
X117083333Y-87204819D02*
X116750000Y-86728628D01*
X116511905Y-87204819D02*
X116511905Y-86204819D01*
X116511905Y-86204819D02*
X116892857Y-86204819D01*
X116892857Y-86204819D02*
X116988095Y-86252438D01*
X116988095Y-86252438D02*
X117035714Y-86300057D01*
X117035714Y-86300057D02*
X117083333Y-86395295D01*
X117083333Y-86395295D02*
X117083333Y-86538152D01*
X117083333Y-86538152D02*
X117035714Y-86633390D01*
X117035714Y-86633390D02*
X116988095Y-86681009D01*
X116988095Y-86681009D02*
X116892857Y-86728628D01*
X116892857Y-86728628D02*
X116511905Y-86728628D01*
X117559524Y-87204819D02*
X117750000Y-87204819D01*
X117750000Y-87204819D02*
X117845238Y-87157200D01*
X117845238Y-87157200D02*
X117892857Y-87109580D01*
X117892857Y-87109580D02*
X117988095Y-86966723D01*
X117988095Y-86966723D02*
X118035714Y-86776247D01*
X118035714Y-86776247D02*
X118035714Y-86395295D01*
X118035714Y-86395295D02*
X117988095Y-86300057D01*
X117988095Y-86300057D02*
X117940476Y-86252438D01*
X117940476Y-86252438D02*
X117845238Y-86204819D01*
X117845238Y-86204819D02*
X117654762Y-86204819D01*
X117654762Y-86204819D02*
X117559524Y-86252438D01*
X117559524Y-86252438D02*
X117511905Y-86300057D01*
X117511905Y-86300057D02*
X117464286Y-86395295D01*
X117464286Y-86395295D02*
X117464286Y-86633390D01*
X117464286Y-86633390D02*
X117511905Y-86728628D01*
X117511905Y-86728628D02*
X117559524Y-86776247D01*
X117559524Y-86776247D02*
X117654762Y-86823866D01*
X117654762Y-86823866D02*
X117845238Y-86823866D01*
X117845238Y-86823866D02*
X117940476Y-86776247D01*
X117940476Y-86776247D02*
X117988095Y-86728628D01*
X117988095Y-86728628D02*
X118035714Y-86633390D01*
X117083333Y-88704819D02*
X116750000Y-88228628D01*
X116511905Y-88704819D02*
X116511905Y-87704819D01*
X116511905Y-87704819D02*
X116892857Y-87704819D01*
X116892857Y-87704819D02*
X116988095Y-87752438D01*
X116988095Y-87752438D02*
X117035714Y-87800057D01*
X117035714Y-87800057D02*
X117083333Y-87895295D01*
X117083333Y-87895295D02*
X117083333Y-88038152D01*
X117083333Y-88038152D02*
X117035714Y-88133390D01*
X117035714Y-88133390D02*
X116988095Y-88181009D01*
X116988095Y-88181009D02*
X116892857Y-88228628D01*
X116892857Y-88228628D02*
X116511905Y-88228628D01*
X117654762Y-88133390D02*
X117559524Y-88085771D01*
X117559524Y-88085771D02*
X117511905Y-88038152D01*
X117511905Y-88038152D02*
X117464286Y-87942914D01*
X117464286Y-87942914D02*
X117464286Y-87895295D01*
X117464286Y-87895295D02*
X117511905Y-87800057D01*
X117511905Y-87800057D02*
X117559524Y-87752438D01*
X117559524Y-87752438D02*
X117654762Y-87704819D01*
X117654762Y-87704819D02*
X117845238Y-87704819D01*
X117845238Y-87704819D02*
X117940476Y-87752438D01*
X117940476Y-87752438D02*
X117988095Y-87800057D01*
X117988095Y-87800057D02*
X118035714Y-87895295D01*
X118035714Y-87895295D02*
X118035714Y-87942914D01*
X118035714Y-87942914D02*
X117988095Y-88038152D01*
X117988095Y-88038152D02*
X117940476Y-88085771D01*
X117940476Y-88085771D02*
X117845238Y-88133390D01*
X117845238Y-88133390D02*
X117654762Y-88133390D01*
X117654762Y-88133390D02*
X117559524Y-88181009D01*
X117559524Y-88181009D02*
X117511905Y-88228628D01*
X117511905Y-88228628D02*
X117464286Y-88323866D01*
X117464286Y-88323866D02*
X117464286Y-88514342D01*
X117464286Y-88514342D02*
X117511905Y-88609580D01*
X117511905Y-88609580D02*
X117559524Y-88657200D01*
X117559524Y-88657200D02*
X117654762Y-88704819D01*
X117654762Y-88704819D02*
X117845238Y-88704819D01*
X117845238Y-88704819D02*
X117940476Y-88657200D01*
X117940476Y-88657200D02*
X117988095Y-88609580D01*
X117988095Y-88609580D02*
X118035714Y-88514342D01*
X118035714Y-88514342D02*
X118035714Y-88323866D01*
X118035714Y-88323866D02*
X117988095Y-88228628D01*
X117988095Y-88228628D02*
X117940476Y-88181009D01*
X117940476Y-88181009D02*
X117845238Y-88133390D01*
X113062295Y-71766666D02*
X113633723Y-71766666D01*
X113633723Y-71766666D02*
X113748009Y-71804761D01*
X113748009Y-71804761D02*
X113824200Y-71880952D01*
X113824200Y-71880952D02*
X113862295Y-71995237D01*
X113862295Y-71995237D02*
X113862295Y-72071428D01*
X113062295Y-71461904D02*
X113062295Y-70966666D01*
X113062295Y-70966666D02*
X113367057Y-71233332D01*
X113367057Y-71233332D02*
X113367057Y-71119047D01*
X113367057Y-71119047D02*
X113405152Y-71042856D01*
X113405152Y-71042856D02*
X113443247Y-71004761D01*
X113443247Y-71004761D02*
X113519438Y-70966666D01*
X113519438Y-70966666D02*
X113709914Y-70966666D01*
X113709914Y-70966666D02*
X113786104Y-71004761D01*
X113786104Y-71004761D02*
X113824200Y-71042856D01*
X113824200Y-71042856D02*
X113862295Y-71119047D01*
X113862295Y-71119047D02*
X113862295Y-71347618D01*
X113862295Y-71347618D02*
X113824200Y-71423809D01*
X113824200Y-71423809D02*
X113786104Y-71461904D01*
X131036104Y-75514285D02*
X131074200Y-75552381D01*
X131074200Y-75552381D02*
X131112295Y-75666666D01*
X131112295Y-75666666D02*
X131112295Y-75742857D01*
X131112295Y-75742857D02*
X131074200Y-75857143D01*
X131074200Y-75857143D02*
X130998009Y-75933333D01*
X130998009Y-75933333D02*
X130921819Y-75971428D01*
X130921819Y-75971428D02*
X130769438Y-76009524D01*
X130769438Y-76009524D02*
X130655152Y-76009524D01*
X130655152Y-76009524D02*
X130502771Y-75971428D01*
X130502771Y-75971428D02*
X130426580Y-75933333D01*
X130426580Y-75933333D02*
X130350390Y-75857143D01*
X130350390Y-75857143D02*
X130312295Y-75742857D01*
X130312295Y-75742857D02*
X130312295Y-75666666D01*
X130312295Y-75666666D02*
X130350390Y-75552381D01*
X130350390Y-75552381D02*
X130388485Y-75514285D01*
X131112295Y-74752381D02*
X131112295Y-75209524D01*
X131112295Y-74980952D02*
X130312295Y-74980952D01*
X130312295Y-74980952D02*
X130426580Y-75057143D01*
X130426580Y-75057143D02*
X130502771Y-75133333D01*
X130502771Y-75133333D02*
X130540866Y-75209524D01*
X131112295Y-73990476D02*
X131112295Y-74447619D01*
X131112295Y-74219047D02*
X130312295Y-74219047D01*
X130312295Y-74219047D02*
X130426580Y-74295238D01*
X130426580Y-74295238D02*
X130502771Y-74371428D01*
X130502771Y-74371428D02*
X130540866Y-74447619D01*
X130376104Y-85514285D02*
X130414200Y-85552381D01*
X130414200Y-85552381D02*
X130452295Y-85666666D01*
X130452295Y-85666666D02*
X130452295Y-85742857D01*
X130452295Y-85742857D02*
X130414200Y-85857143D01*
X130414200Y-85857143D02*
X130338009Y-85933333D01*
X130338009Y-85933333D02*
X130261819Y-85971428D01*
X130261819Y-85971428D02*
X130109438Y-86009524D01*
X130109438Y-86009524D02*
X129995152Y-86009524D01*
X129995152Y-86009524D02*
X129842771Y-85971428D01*
X129842771Y-85971428D02*
X129766580Y-85933333D01*
X129766580Y-85933333D02*
X129690390Y-85857143D01*
X129690390Y-85857143D02*
X129652295Y-85742857D01*
X129652295Y-85742857D02*
X129652295Y-85666666D01*
X129652295Y-85666666D02*
X129690390Y-85552381D01*
X129690390Y-85552381D02*
X129728485Y-85514285D01*
X130452295Y-84752381D02*
X130452295Y-85209524D01*
X130452295Y-84980952D02*
X129652295Y-84980952D01*
X129652295Y-84980952D02*
X129766580Y-85057143D01*
X129766580Y-85057143D02*
X129842771Y-85133333D01*
X129842771Y-85133333D02*
X129880866Y-85209524D01*
X129652295Y-84257142D02*
X129652295Y-84180952D01*
X129652295Y-84180952D02*
X129690390Y-84104761D01*
X129690390Y-84104761D02*
X129728485Y-84066666D01*
X129728485Y-84066666D02*
X129804676Y-84028571D01*
X129804676Y-84028571D02*
X129957057Y-83990476D01*
X129957057Y-83990476D02*
X130147533Y-83990476D01*
X130147533Y-83990476D02*
X130299914Y-84028571D01*
X130299914Y-84028571D02*
X130376104Y-84066666D01*
X130376104Y-84066666D02*
X130414200Y-84104761D01*
X130414200Y-84104761D02*
X130452295Y-84180952D01*
X130452295Y-84180952D02*
X130452295Y-84257142D01*
X130452295Y-84257142D02*
X130414200Y-84333333D01*
X130414200Y-84333333D02*
X130376104Y-84371428D01*
X130376104Y-84371428D02*
X130299914Y-84409523D01*
X130299914Y-84409523D02*
X130147533Y-84447619D01*
X130147533Y-84447619D02*
X129957057Y-84447619D01*
X129957057Y-84447619D02*
X129804676Y-84409523D01*
X129804676Y-84409523D02*
X129728485Y-84371428D01*
X129728485Y-84371428D02*
X129690390Y-84333333D01*
X129690390Y-84333333D02*
X129652295Y-84257142D01*
X120116667Y-78626104D02*
X120078571Y-78664200D01*
X120078571Y-78664200D02*
X119964286Y-78702295D01*
X119964286Y-78702295D02*
X119888095Y-78702295D01*
X119888095Y-78702295D02*
X119773809Y-78664200D01*
X119773809Y-78664200D02*
X119697619Y-78588009D01*
X119697619Y-78588009D02*
X119659524Y-78511819D01*
X119659524Y-78511819D02*
X119621428Y-78359438D01*
X119621428Y-78359438D02*
X119621428Y-78245152D01*
X119621428Y-78245152D02*
X119659524Y-78092771D01*
X119659524Y-78092771D02*
X119697619Y-78016580D01*
X119697619Y-78016580D02*
X119773809Y-77940390D01*
X119773809Y-77940390D02*
X119888095Y-77902295D01*
X119888095Y-77902295D02*
X119964286Y-77902295D01*
X119964286Y-77902295D02*
X120078571Y-77940390D01*
X120078571Y-77940390D02*
X120116667Y-77978485D01*
X120497619Y-78702295D02*
X120650000Y-78702295D01*
X120650000Y-78702295D02*
X120726190Y-78664200D01*
X120726190Y-78664200D02*
X120764286Y-78626104D01*
X120764286Y-78626104D02*
X120840476Y-78511819D01*
X120840476Y-78511819D02*
X120878571Y-78359438D01*
X120878571Y-78359438D02*
X120878571Y-78054676D01*
X120878571Y-78054676D02*
X120840476Y-77978485D01*
X120840476Y-77978485D02*
X120802381Y-77940390D01*
X120802381Y-77940390D02*
X120726190Y-77902295D01*
X120726190Y-77902295D02*
X120573809Y-77902295D01*
X120573809Y-77902295D02*
X120497619Y-77940390D01*
X120497619Y-77940390D02*
X120459524Y-77978485D01*
X120459524Y-77978485D02*
X120421428Y-78054676D01*
X120421428Y-78054676D02*
X120421428Y-78245152D01*
X120421428Y-78245152D02*
X120459524Y-78321342D01*
X120459524Y-78321342D02*
X120497619Y-78359438D01*
X120497619Y-78359438D02*
X120573809Y-78397533D01*
X120573809Y-78397533D02*
X120726190Y-78397533D01*
X120726190Y-78397533D02*
X120802381Y-78359438D01*
X120802381Y-78359438D02*
X120840476Y-78321342D01*
X120840476Y-78321342D02*
X120878571Y-78245152D01*
X132890476Y-75062295D02*
X132890476Y-75709914D01*
X132890476Y-75709914D02*
X132928571Y-75786104D01*
X132928571Y-75786104D02*
X132966666Y-75824200D01*
X132966666Y-75824200D02*
X133042857Y-75862295D01*
X133042857Y-75862295D02*
X133195238Y-75862295D01*
X133195238Y-75862295D02*
X133271428Y-75824200D01*
X133271428Y-75824200D02*
X133309523Y-75786104D01*
X133309523Y-75786104D02*
X133347619Y-75709914D01*
X133347619Y-75709914D02*
X133347619Y-75062295D01*
X134071428Y-75328961D02*
X134071428Y-75862295D01*
X133880952Y-75024200D02*
X133690475Y-75595628D01*
X133690475Y-75595628D02*
X134185714Y-75595628D01*
X125140476Y-76062295D02*
X125140476Y-76709914D01*
X125140476Y-76709914D02*
X125178571Y-76786104D01*
X125178571Y-76786104D02*
X125216666Y-76824200D01*
X125216666Y-76824200D02*
X125292857Y-76862295D01*
X125292857Y-76862295D02*
X125445238Y-76862295D01*
X125445238Y-76862295D02*
X125521428Y-76824200D01*
X125521428Y-76824200D02*
X125559523Y-76786104D01*
X125559523Y-76786104D02*
X125597619Y-76709914D01*
X125597619Y-76709914D02*
X125597619Y-76062295D01*
X125902380Y-76062295D02*
X126397618Y-76062295D01*
X126397618Y-76062295D02*
X126130952Y-76367057D01*
X126130952Y-76367057D02*
X126245237Y-76367057D01*
X126245237Y-76367057D02*
X126321428Y-76405152D01*
X126321428Y-76405152D02*
X126359523Y-76443247D01*
X126359523Y-76443247D02*
X126397618Y-76519438D01*
X126397618Y-76519438D02*
X126397618Y-76709914D01*
X126397618Y-76709914D02*
X126359523Y-76786104D01*
X126359523Y-76786104D02*
X126321428Y-76824200D01*
X126321428Y-76824200D02*
X126245237Y-76862295D01*
X126245237Y-76862295D02*
X126016666Y-76862295D01*
X126016666Y-76862295D02*
X125940475Y-76824200D01*
X125940475Y-76824200D02*
X125902380Y-76786104D01*
X132890476Y-84012295D02*
X132890476Y-84659914D01*
X132890476Y-84659914D02*
X132928571Y-84736104D01*
X132928571Y-84736104D02*
X132966666Y-84774200D01*
X132966666Y-84774200D02*
X133042857Y-84812295D01*
X133042857Y-84812295D02*
X133195238Y-84812295D01*
X133195238Y-84812295D02*
X133271428Y-84774200D01*
X133271428Y-84774200D02*
X133309523Y-84736104D01*
X133309523Y-84736104D02*
X133347619Y-84659914D01*
X133347619Y-84659914D02*
X133347619Y-84012295D01*
X133690475Y-84088485D02*
X133728571Y-84050390D01*
X133728571Y-84050390D02*
X133804761Y-84012295D01*
X133804761Y-84012295D02*
X133995237Y-84012295D01*
X133995237Y-84012295D02*
X134071428Y-84050390D01*
X134071428Y-84050390D02*
X134109523Y-84088485D01*
X134109523Y-84088485D02*
X134147618Y-84164676D01*
X134147618Y-84164676D02*
X134147618Y-84240866D01*
X134147618Y-84240866D02*
X134109523Y-84355152D01*
X134109523Y-84355152D02*
X133652380Y-84812295D01*
X133652380Y-84812295D02*
X134147618Y-84812295D01*
X122890476Y-90362295D02*
X122890476Y-91009914D01*
X122890476Y-91009914D02*
X122928571Y-91086104D01*
X122928571Y-91086104D02*
X122966666Y-91124200D01*
X122966666Y-91124200D02*
X123042857Y-91162295D01*
X123042857Y-91162295D02*
X123195238Y-91162295D01*
X123195238Y-91162295D02*
X123271428Y-91124200D01*
X123271428Y-91124200D02*
X123309523Y-91086104D01*
X123309523Y-91086104D02*
X123347619Y-91009914D01*
X123347619Y-91009914D02*
X123347619Y-90362295D01*
X124147618Y-91162295D02*
X123690475Y-91162295D01*
X123919047Y-91162295D02*
X123919047Y-90362295D01*
X123919047Y-90362295D02*
X123842856Y-90476580D01*
X123842856Y-90476580D02*
X123766666Y-90552771D01*
X123766666Y-90552771D02*
X123690475Y-90590866D01*
X137862295Y-84514285D02*
X137481342Y-84780952D01*
X137862295Y-84971428D02*
X137062295Y-84971428D01*
X137062295Y-84971428D02*
X137062295Y-84666666D01*
X137062295Y-84666666D02*
X137100390Y-84590476D01*
X137100390Y-84590476D02*
X137138485Y-84552381D01*
X137138485Y-84552381D02*
X137214676Y-84514285D01*
X137214676Y-84514285D02*
X137328961Y-84514285D01*
X137328961Y-84514285D02*
X137405152Y-84552381D01*
X137405152Y-84552381D02*
X137443247Y-84590476D01*
X137443247Y-84590476D02*
X137481342Y-84666666D01*
X137481342Y-84666666D02*
X137481342Y-84971428D01*
X137862295Y-83752381D02*
X137862295Y-84209524D01*
X137862295Y-83980952D02*
X137062295Y-83980952D01*
X137062295Y-83980952D02*
X137176580Y-84057143D01*
X137176580Y-84057143D02*
X137252771Y-84133333D01*
X137252771Y-84133333D02*
X137290866Y-84209524D01*
X137062295Y-83485714D02*
X137062295Y-82990476D01*
X137062295Y-82990476D02*
X137367057Y-83257142D01*
X137367057Y-83257142D02*
X137367057Y-83142857D01*
X137367057Y-83142857D02*
X137405152Y-83066666D01*
X137405152Y-83066666D02*
X137443247Y-83028571D01*
X137443247Y-83028571D02*
X137519438Y-82990476D01*
X137519438Y-82990476D02*
X137709914Y-82990476D01*
X137709914Y-82990476D02*
X137786104Y-83028571D01*
X137786104Y-83028571D02*
X137824200Y-83066666D01*
X137824200Y-83066666D02*
X137862295Y-83142857D01*
X137862295Y-83142857D02*
X137862295Y-83371428D01*
X137862295Y-83371428D02*
X137824200Y-83447619D01*
X137824200Y-83447619D02*
X137786104Y-83485714D01*
X140366667Y-80362295D02*
X140100000Y-79981342D01*
X139909524Y-80362295D02*
X139909524Y-79562295D01*
X139909524Y-79562295D02*
X140214286Y-79562295D01*
X140214286Y-79562295D02*
X140290476Y-79600390D01*
X140290476Y-79600390D02*
X140328571Y-79638485D01*
X140328571Y-79638485D02*
X140366667Y-79714676D01*
X140366667Y-79714676D02*
X140366667Y-79828961D01*
X140366667Y-79828961D02*
X140328571Y-79905152D01*
X140328571Y-79905152D02*
X140290476Y-79943247D01*
X140290476Y-79943247D02*
X140214286Y-79981342D01*
X140214286Y-79981342D02*
X139909524Y-79981342D01*
X140633333Y-79562295D02*
X141166667Y-79562295D01*
X141166667Y-79562295D02*
X140823809Y-80362295D01*
X140356667Y-84362295D02*
X140090000Y-83981342D01*
X139899524Y-84362295D02*
X139899524Y-83562295D01*
X139899524Y-83562295D02*
X140204286Y-83562295D01*
X140204286Y-83562295D02*
X140280476Y-83600390D01*
X140280476Y-83600390D02*
X140318571Y-83638485D01*
X140318571Y-83638485D02*
X140356667Y-83714676D01*
X140356667Y-83714676D02*
X140356667Y-83828961D01*
X140356667Y-83828961D02*
X140318571Y-83905152D01*
X140318571Y-83905152D02*
X140280476Y-83943247D01*
X140280476Y-83943247D02*
X140204286Y-83981342D01*
X140204286Y-83981342D02*
X139899524Y-83981342D01*
X141042381Y-83562295D02*
X140890000Y-83562295D01*
X140890000Y-83562295D02*
X140813809Y-83600390D01*
X140813809Y-83600390D02*
X140775714Y-83638485D01*
X140775714Y-83638485D02*
X140699524Y-83752771D01*
X140699524Y-83752771D02*
X140661428Y-83905152D01*
X140661428Y-83905152D02*
X140661428Y-84209914D01*
X140661428Y-84209914D02*
X140699524Y-84286104D01*
X140699524Y-84286104D02*
X140737619Y-84324200D01*
X140737619Y-84324200D02*
X140813809Y-84362295D01*
X140813809Y-84362295D02*
X140966190Y-84362295D01*
X140966190Y-84362295D02*
X141042381Y-84324200D01*
X141042381Y-84324200D02*
X141080476Y-84286104D01*
X141080476Y-84286104D02*
X141118571Y-84209914D01*
X141118571Y-84209914D02*
X141118571Y-84019438D01*
X141118571Y-84019438D02*
X141080476Y-83943247D01*
X141080476Y-83943247D02*
X141042381Y-83905152D01*
X141042381Y-83905152D02*
X140966190Y-83867057D01*
X140966190Y-83867057D02*
X140813809Y-83867057D01*
X140813809Y-83867057D02*
X140737619Y-83905152D01*
X140737619Y-83905152D02*
X140699524Y-83943247D01*
X140699524Y-83943247D02*
X140661428Y-84019438D01*
X136616667Y-75942295D02*
X136350000Y-75561342D01*
X136159524Y-75942295D02*
X136159524Y-75142295D01*
X136159524Y-75142295D02*
X136464286Y-75142295D01*
X136464286Y-75142295D02*
X136540476Y-75180390D01*
X136540476Y-75180390D02*
X136578571Y-75218485D01*
X136578571Y-75218485D02*
X136616667Y-75294676D01*
X136616667Y-75294676D02*
X136616667Y-75408961D01*
X136616667Y-75408961D02*
X136578571Y-75485152D01*
X136578571Y-75485152D02*
X136540476Y-75523247D01*
X136540476Y-75523247D02*
X136464286Y-75561342D01*
X136464286Y-75561342D02*
X136159524Y-75561342D01*
X136921428Y-75218485D02*
X136959524Y-75180390D01*
X136959524Y-75180390D02*
X137035714Y-75142295D01*
X137035714Y-75142295D02*
X137226190Y-75142295D01*
X137226190Y-75142295D02*
X137302381Y-75180390D01*
X137302381Y-75180390D02*
X137340476Y-75218485D01*
X137340476Y-75218485D02*
X137378571Y-75294676D01*
X137378571Y-75294676D02*
X137378571Y-75370866D01*
X137378571Y-75370866D02*
X137340476Y-75485152D01*
X137340476Y-75485152D02*
X136883333Y-75942295D01*
X136883333Y-75942295D02*
X137378571Y-75942295D01*
X136616667Y-79282295D02*
X136350000Y-78901342D01*
X136159524Y-79282295D02*
X136159524Y-78482295D01*
X136159524Y-78482295D02*
X136464286Y-78482295D01*
X136464286Y-78482295D02*
X136540476Y-78520390D01*
X136540476Y-78520390D02*
X136578571Y-78558485D01*
X136578571Y-78558485D02*
X136616667Y-78634676D01*
X136616667Y-78634676D02*
X136616667Y-78748961D01*
X136616667Y-78748961D02*
X136578571Y-78825152D01*
X136578571Y-78825152D02*
X136540476Y-78863247D01*
X136540476Y-78863247D02*
X136464286Y-78901342D01*
X136464286Y-78901342D02*
X136159524Y-78901342D01*
X137378571Y-79282295D02*
X136921428Y-79282295D01*
X137150000Y-79282295D02*
X137150000Y-78482295D01*
X137150000Y-78482295D02*
X137073809Y-78596580D01*
X137073809Y-78596580D02*
X136997619Y-78672771D01*
X136997619Y-78672771D02*
X136921428Y-78710866D01*
X141062295Y-86766666D02*
X141633723Y-86766666D01*
X141633723Y-86766666D02*
X141748009Y-86804761D01*
X141748009Y-86804761D02*
X141824200Y-86880952D01*
X141824200Y-86880952D02*
X141862295Y-86995237D01*
X141862295Y-86995237D02*
X141862295Y-87071428D01*
X141138485Y-86423809D02*
X141100390Y-86385713D01*
X141100390Y-86385713D02*
X141062295Y-86309523D01*
X141062295Y-86309523D02*
X141062295Y-86119047D01*
X141062295Y-86119047D02*
X141100390Y-86042856D01*
X141100390Y-86042856D02*
X141138485Y-86004761D01*
X141138485Y-86004761D02*
X141214676Y-85966666D01*
X141214676Y-85966666D02*
X141290866Y-85966666D01*
X141290866Y-85966666D02*
X141405152Y-86004761D01*
X141405152Y-86004761D02*
X141862295Y-86461904D01*
X141862295Y-86461904D02*
X141862295Y-85966666D01*
X139286104Y-78133332D02*
X139324200Y-78171428D01*
X139324200Y-78171428D02*
X139362295Y-78285713D01*
X139362295Y-78285713D02*
X139362295Y-78361904D01*
X139362295Y-78361904D02*
X139324200Y-78476190D01*
X139324200Y-78476190D02*
X139248009Y-78552380D01*
X139248009Y-78552380D02*
X139171819Y-78590475D01*
X139171819Y-78590475D02*
X139019438Y-78628571D01*
X139019438Y-78628571D02*
X138905152Y-78628571D01*
X138905152Y-78628571D02*
X138752771Y-78590475D01*
X138752771Y-78590475D02*
X138676580Y-78552380D01*
X138676580Y-78552380D02*
X138600390Y-78476190D01*
X138600390Y-78476190D02*
X138562295Y-78361904D01*
X138562295Y-78361904D02*
X138562295Y-78285713D01*
X138562295Y-78285713D02*
X138600390Y-78171428D01*
X138600390Y-78171428D02*
X138638485Y-78133332D01*
X138905152Y-77676190D02*
X138867057Y-77752380D01*
X138867057Y-77752380D02*
X138828961Y-77790475D01*
X138828961Y-77790475D02*
X138752771Y-77828571D01*
X138752771Y-77828571D02*
X138714676Y-77828571D01*
X138714676Y-77828571D02*
X138638485Y-77790475D01*
X138638485Y-77790475D02*
X138600390Y-77752380D01*
X138600390Y-77752380D02*
X138562295Y-77676190D01*
X138562295Y-77676190D02*
X138562295Y-77523809D01*
X138562295Y-77523809D02*
X138600390Y-77447618D01*
X138600390Y-77447618D02*
X138638485Y-77409523D01*
X138638485Y-77409523D02*
X138714676Y-77371428D01*
X138714676Y-77371428D02*
X138752771Y-77371428D01*
X138752771Y-77371428D02*
X138828961Y-77409523D01*
X138828961Y-77409523D02*
X138867057Y-77447618D01*
X138867057Y-77447618D02*
X138905152Y-77523809D01*
X138905152Y-77523809D02*
X138905152Y-77676190D01*
X138905152Y-77676190D02*
X138943247Y-77752380D01*
X138943247Y-77752380D02*
X138981342Y-77790475D01*
X138981342Y-77790475D02*
X139057533Y-77828571D01*
X139057533Y-77828571D02*
X139209914Y-77828571D01*
X139209914Y-77828571D02*
X139286104Y-77790475D01*
X139286104Y-77790475D02*
X139324200Y-77752380D01*
X139324200Y-77752380D02*
X139362295Y-77676190D01*
X139362295Y-77676190D02*
X139362295Y-77523809D01*
X139362295Y-77523809D02*
X139324200Y-77447618D01*
X139324200Y-77447618D02*
X139286104Y-77409523D01*
X139286104Y-77409523D02*
X139209914Y-77371428D01*
X139209914Y-77371428D02*
X139057533Y-77371428D01*
X139057533Y-77371428D02*
X138981342Y-77409523D01*
X138981342Y-77409523D02*
X138943247Y-77447618D01*
X138943247Y-77447618D02*
X138905152Y-77523809D01*
X139286104Y-85883332D02*
X139324200Y-85921428D01*
X139324200Y-85921428D02*
X139362295Y-86035713D01*
X139362295Y-86035713D02*
X139362295Y-86111904D01*
X139362295Y-86111904D02*
X139324200Y-86226190D01*
X139324200Y-86226190D02*
X139248009Y-86302380D01*
X139248009Y-86302380D02*
X139171819Y-86340475D01*
X139171819Y-86340475D02*
X139019438Y-86378571D01*
X139019438Y-86378571D02*
X138905152Y-86378571D01*
X138905152Y-86378571D02*
X138752771Y-86340475D01*
X138752771Y-86340475D02*
X138676580Y-86302380D01*
X138676580Y-86302380D02*
X138600390Y-86226190D01*
X138600390Y-86226190D02*
X138562295Y-86111904D01*
X138562295Y-86111904D02*
X138562295Y-86035713D01*
X138562295Y-86035713D02*
X138600390Y-85921428D01*
X138600390Y-85921428D02*
X138638485Y-85883332D01*
X138562295Y-85616666D02*
X138562295Y-85083332D01*
X138562295Y-85083332D02*
X139362295Y-85426190D01*
X139286104Y-87633332D02*
X139324200Y-87671428D01*
X139324200Y-87671428D02*
X139362295Y-87785713D01*
X139362295Y-87785713D02*
X139362295Y-87861904D01*
X139362295Y-87861904D02*
X139324200Y-87976190D01*
X139324200Y-87976190D02*
X139248009Y-88052380D01*
X139248009Y-88052380D02*
X139171819Y-88090475D01*
X139171819Y-88090475D02*
X139019438Y-88128571D01*
X139019438Y-88128571D02*
X138905152Y-88128571D01*
X138905152Y-88128571D02*
X138752771Y-88090475D01*
X138752771Y-88090475D02*
X138676580Y-88052380D01*
X138676580Y-88052380D02*
X138600390Y-87976190D01*
X138600390Y-87976190D02*
X138562295Y-87861904D01*
X138562295Y-87861904D02*
X138562295Y-87785713D01*
X138562295Y-87785713D02*
X138600390Y-87671428D01*
X138600390Y-87671428D02*
X138638485Y-87633332D01*
X138562295Y-86947618D02*
X138562295Y-87099999D01*
X138562295Y-87099999D02*
X138600390Y-87176190D01*
X138600390Y-87176190D02*
X138638485Y-87214285D01*
X138638485Y-87214285D02*
X138752771Y-87290475D01*
X138752771Y-87290475D02*
X138905152Y-87328571D01*
X138905152Y-87328571D02*
X139209914Y-87328571D01*
X139209914Y-87328571D02*
X139286104Y-87290475D01*
X139286104Y-87290475D02*
X139324200Y-87252380D01*
X139324200Y-87252380D02*
X139362295Y-87176190D01*
X139362295Y-87176190D02*
X139362295Y-87023809D01*
X139362295Y-87023809D02*
X139324200Y-86947618D01*
X139324200Y-86947618D02*
X139286104Y-86909523D01*
X139286104Y-86909523D02*
X139209914Y-86871428D01*
X139209914Y-86871428D02*
X139019438Y-86871428D01*
X139019438Y-86871428D02*
X138943247Y-86909523D01*
X138943247Y-86909523D02*
X138905152Y-86947618D01*
X138905152Y-86947618D02*
X138867057Y-87023809D01*
X138867057Y-87023809D02*
X138867057Y-87176190D01*
X138867057Y-87176190D02*
X138905152Y-87252380D01*
X138905152Y-87252380D02*
X138943247Y-87290475D01*
X138943247Y-87290475D02*
X139019438Y-87328571D01*
X120116667Y-82036104D02*
X120078571Y-82074200D01*
X120078571Y-82074200D02*
X119964286Y-82112295D01*
X119964286Y-82112295D02*
X119888095Y-82112295D01*
X119888095Y-82112295D02*
X119773809Y-82074200D01*
X119773809Y-82074200D02*
X119697619Y-81998009D01*
X119697619Y-81998009D02*
X119659524Y-81921819D01*
X119659524Y-81921819D02*
X119621428Y-81769438D01*
X119621428Y-81769438D02*
X119621428Y-81655152D01*
X119621428Y-81655152D02*
X119659524Y-81502771D01*
X119659524Y-81502771D02*
X119697619Y-81426580D01*
X119697619Y-81426580D02*
X119773809Y-81350390D01*
X119773809Y-81350390D02*
X119888095Y-81312295D01*
X119888095Y-81312295D02*
X119964286Y-81312295D01*
X119964286Y-81312295D02*
X120078571Y-81350390D01*
X120078571Y-81350390D02*
X120116667Y-81388485D01*
X120840476Y-81312295D02*
X120459524Y-81312295D01*
X120459524Y-81312295D02*
X120421428Y-81693247D01*
X120421428Y-81693247D02*
X120459524Y-81655152D01*
X120459524Y-81655152D02*
X120535714Y-81617057D01*
X120535714Y-81617057D02*
X120726190Y-81617057D01*
X120726190Y-81617057D02*
X120802381Y-81655152D01*
X120802381Y-81655152D02*
X120840476Y-81693247D01*
X120840476Y-81693247D02*
X120878571Y-81769438D01*
X120878571Y-81769438D02*
X120878571Y-81959914D01*
X120878571Y-81959914D02*
X120840476Y-82036104D01*
X120840476Y-82036104D02*
X120802381Y-82074200D01*
X120802381Y-82074200D02*
X120726190Y-82112295D01*
X120726190Y-82112295D02*
X120535714Y-82112295D01*
X120535714Y-82112295D02*
X120459524Y-82074200D01*
X120459524Y-82074200D02*
X120421428Y-82036104D01*
X123616667Y-85036104D02*
X123578571Y-85074200D01*
X123578571Y-85074200D02*
X123464286Y-85112295D01*
X123464286Y-85112295D02*
X123388095Y-85112295D01*
X123388095Y-85112295D02*
X123273809Y-85074200D01*
X123273809Y-85074200D02*
X123197619Y-84998009D01*
X123197619Y-84998009D02*
X123159524Y-84921819D01*
X123159524Y-84921819D02*
X123121428Y-84769438D01*
X123121428Y-84769438D02*
X123121428Y-84655152D01*
X123121428Y-84655152D02*
X123159524Y-84502771D01*
X123159524Y-84502771D02*
X123197619Y-84426580D01*
X123197619Y-84426580D02*
X123273809Y-84350390D01*
X123273809Y-84350390D02*
X123388095Y-84312295D01*
X123388095Y-84312295D02*
X123464286Y-84312295D01*
X123464286Y-84312295D02*
X123578571Y-84350390D01*
X123578571Y-84350390D02*
X123616667Y-84388485D01*
X124302381Y-84578961D02*
X124302381Y-85112295D01*
X124111905Y-84274200D02*
X123921428Y-84845628D01*
X123921428Y-84845628D02*
X124416667Y-84845628D01*
X126616667Y-91036104D02*
X126578571Y-91074200D01*
X126578571Y-91074200D02*
X126464286Y-91112295D01*
X126464286Y-91112295D02*
X126388095Y-91112295D01*
X126388095Y-91112295D02*
X126273809Y-91074200D01*
X126273809Y-91074200D02*
X126197619Y-90998009D01*
X126197619Y-90998009D02*
X126159524Y-90921819D01*
X126159524Y-90921819D02*
X126121428Y-90769438D01*
X126121428Y-90769438D02*
X126121428Y-90655152D01*
X126121428Y-90655152D02*
X126159524Y-90502771D01*
X126159524Y-90502771D02*
X126197619Y-90426580D01*
X126197619Y-90426580D02*
X126273809Y-90350390D01*
X126273809Y-90350390D02*
X126388095Y-90312295D01*
X126388095Y-90312295D02*
X126464286Y-90312295D01*
X126464286Y-90312295D02*
X126578571Y-90350390D01*
X126578571Y-90350390D02*
X126616667Y-90388485D01*
X126883333Y-90312295D02*
X127378571Y-90312295D01*
X127378571Y-90312295D02*
X127111905Y-90617057D01*
X127111905Y-90617057D02*
X127226190Y-90617057D01*
X127226190Y-90617057D02*
X127302381Y-90655152D01*
X127302381Y-90655152D02*
X127340476Y-90693247D01*
X127340476Y-90693247D02*
X127378571Y-90769438D01*
X127378571Y-90769438D02*
X127378571Y-90959914D01*
X127378571Y-90959914D02*
X127340476Y-91036104D01*
X127340476Y-91036104D02*
X127302381Y-91074200D01*
X127302381Y-91074200D02*
X127226190Y-91112295D01*
X127226190Y-91112295D02*
X126997619Y-91112295D01*
X126997619Y-91112295D02*
X126921428Y-91074200D01*
X126921428Y-91074200D02*
X126883333Y-91036104D01*
X126536104Y-85133332D02*
X126574200Y-85171428D01*
X126574200Y-85171428D02*
X126612295Y-85285713D01*
X126612295Y-85285713D02*
X126612295Y-85361904D01*
X126612295Y-85361904D02*
X126574200Y-85476190D01*
X126574200Y-85476190D02*
X126498009Y-85552380D01*
X126498009Y-85552380D02*
X126421819Y-85590475D01*
X126421819Y-85590475D02*
X126269438Y-85628571D01*
X126269438Y-85628571D02*
X126155152Y-85628571D01*
X126155152Y-85628571D02*
X126002771Y-85590475D01*
X126002771Y-85590475D02*
X125926580Y-85552380D01*
X125926580Y-85552380D02*
X125850390Y-85476190D01*
X125850390Y-85476190D02*
X125812295Y-85361904D01*
X125812295Y-85361904D02*
X125812295Y-85285713D01*
X125812295Y-85285713D02*
X125850390Y-85171428D01*
X125850390Y-85171428D02*
X125888485Y-85133332D01*
X125888485Y-84828571D02*
X125850390Y-84790475D01*
X125850390Y-84790475D02*
X125812295Y-84714285D01*
X125812295Y-84714285D02*
X125812295Y-84523809D01*
X125812295Y-84523809D02*
X125850390Y-84447618D01*
X125850390Y-84447618D02*
X125888485Y-84409523D01*
X125888485Y-84409523D02*
X125964676Y-84371428D01*
X125964676Y-84371428D02*
X126040866Y-84371428D01*
X126040866Y-84371428D02*
X126155152Y-84409523D01*
X126155152Y-84409523D02*
X126612295Y-84866666D01*
X126612295Y-84866666D02*
X126612295Y-84371428D01*
X119616667Y-88946104D02*
X119578571Y-88984200D01*
X119578571Y-88984200D02*
X119464286Y-89022295D01*
X119464286Y-89022295D02*
X119388095Y-89022295D01*
X119388095Y-89022295D02*
X119273809Y-88984200D01*
X119273809Y-88984200D02*
X119197619Y-88908009D01*
X119197619Y-88908009D02*
X119159524Y-88831819D01*
X119159524Y-88831819D02*
X119121428Y-88679438D01*
X119121428Y-88679438D02*
X119121428Y-88565152D01*
X119121428Y-88565152D02*
X119159524Y-88412771D01*
X119159524Y-88412771D02*
X119197619Y-88336580D01*
X119197619Y-88336580D02*
X119273809Y-88260390D01*
X119273809Y-88260390D02*
X119388095Y-88222295D01*
X119388095Y-88222295D02*
X119464286Y-88222295D01*
X119464286Y-88222295D02*
X119578571Y-88260390D01*
X119578571Y-88260390D02*
X119616667Y-88298485D01*
X120378571Y-89022295D02*
X119921428Y-89022295D01*
X120150000Y-89022295D02*
X120150000Y-88222295D01*
X120150000Y-88222295D02*
X120073809Y-88336580D01*
X120073809Y-88336580D02*
X119997619Y-88412771D01*
X119997619Y-88412771D02*
X119921428Y-88450866D01*
D11*
%TO.C,R5*%
X128727500Y-87662258D02*
X128727500Y-87187742D01*
X129772500Y-87662258D02*
X129772500Y-87187742D01*
%TO.C,R4*%
X128022500Y-87187742D02*
X128022500Y-87662258D01*
X126977500Y-87187742D02*
X126977500Y-87662258D01*
%TO.C,R12*%
X117487258Y-77522500D02*
X117012742Y-77522500D01*
X117487258Y-76477500D02*
X117012742Y-76477500D01*
%TO.C,R11*%
X117487258Y-79522500D02*
X117012742Y-79522500D01*
X117487258Y-78477500D02*
X117012742Y-78477500D01*
%TO.C,R10*%
X117487258Y-81772500D02*
X117012742Y-81772500D01*
X117487258Y-80727500D02*
X117012742Y-80727500D01*
%TO.C,R9*%
X117012742Y-82727500D02*
X117487258Y-82727500D01*
X117012742Y-83772500D02*
X117487258Y-83772500D01*
%TO.C,R8*%
X117012742Y-84477500D02*
X117487258Y-84477500D01*
X117012742Y-85522500D02*
X117487258Y-85522500D01*
%TO.C,J3*%
X115660000Y-72640000D02*
X114410000Y-72640000D01*
X115360000Y-72940000D02*
X110640000Y-72940000D01*
X114050000Y-72940000D02*
X114050000Y-73550000D01*
X112750000Y-72940000D02*
X112750000Y-73550000D01*
X110640000Y-72940000D02*
X110640000Y-91060000D01*
X114750000Y-73550000D02*
X111250000Y-73550000D01*
X111250000Y-73550000D02*
X111250000Y-90450000D01*
X115660000Y-73890000D02*
X115660000Y-72640000D01*
X115560000Y-74400000D02*
X115360000Y-74400000D01*
X115560000Y-74700000D02*
X115560000Y-74400000D01*
X115460000Y-74700000D02*
X115460000Y-74400000D01*
X115360000Y-74700000D02*
X115560000Y-74700000D01*
X115360000Y-75500000D02*
X114750000Y-75500000D01*
X114750000Y-75500000D02*
X114750000Y-73550000D01*
X111750000Y-75900000D02*
X111750000Y-76100000D01*
X111250000Y-75900000D02*
X111750000Y-75900000D01*
X111250000Y-76000000D02*
X111750000Y-76000000D01*
X111750000Y-76100000D02*
X111250000Y-76100000D01*
X111750000Y-77900000D02*
X111750000Y-78100000D01*
X111250000Y-77900000D02*
X111750000Y-77900000D01*
X111250000Y-78000000D02*
X111750000Y-78000000D01*
X111750000Y-78100000D02*
X111250000Y-78100000D01*
X111750000Y-79900000D02*
X111750000Y-80100000D01*
X111250000Y-79900000D02*
X111750000Y-79900000D01*
X111250000Y-80000000D02*
X111750000Y-80000000D01*
X111750000Y-80100000D02*
X111250000Y-80100000D01*
X111750000Y-81900000D02*
X111750000Y-82100000D01*
X111250000Y-81900000D02*
X111750000Y-81900000D01*
X111250000Y-82000000D02*
X111750000Y-82000000D01*
X111750000Y-82100000D02*
X111250000Y-82100000D01*
X111750000Y-83900000D02*
X111750000Y-84100000D01*
X111250000Y-83900000D02*
X111750000Y-83900000D01*
X111250000Y-84000000D02*
X111750000Y-84000000D01*
X111750000Y-84100000D02*
X111250000Y-84100000D01*
X111750000Y-85900000D02*
X111750000Y-86100000D01*
X111250000Y-85900000D02*
X111750000Y-85900000D01*
X111250000Y-86000000D02*
X111750000Y-86000000D01*
X111750000Y-86100000D02*
X111250000Y-86100000D01*
X111750000Y-87900000D02*
X111750000Y-88100000D01*
X111250000Y-87900000D02*
X111750000Y-87900000D01*
X111250000Y-88000000D02*
X111750000Y-88000000D01*
X111750000Y-88100000D02*
X111250000Y-88100000D01*
X114750000Y-88500000D02*
X115360000Y-88500000D01*
X114750000Y-90450000D02*
X114750000Y-88500000D01*
X111250000Y-90450000D02*
X114750000Y-90450000D01*
X115360000Y-91060000D02*
X115360000Y-72940000D01*
X114050000Y-91060000D02*
X114050000Y-90450000D01*
X112750000Y-91060000D02*
X112750000Y-90450000D01*
X110640000Y-91060000D02*
X115360000Y-91060000D01*
%TO.C,C11*%
X131110000Y-77142164D02*
X131110000Y-77357836D01*
X130390000Y-77142164D02*
X130390000Y-77357836D01*
%TO.C,C10*%
X130890000Y-85107836D02*
X130890000Y-84892164D01*
X131610000Y-85107836D02*
X131610000Y-84892164D01*
%TO.C,C9*%
X120142164Y-79860000D02*
X120357836Y-79860000D01*
X120142164Y-79140000D02*
X120357836Y-79140000D01*
%TO.C,U4*%
X133500000Y-79310000D02*
X134300000Y-79310000D01*
X133500000Y-79310000D02*
X132700000Y-79310000D01*
X133500000Y-76190000D02*
X134300000Y-76190000D01*
X133500000Y-76190000D02*
X132700000Y-76190000D01*
X135040000Y-79590000D02*
X134560000Y-79590000D01*
X134800000Y-79260000D01*
X135040000Y-79590000D01*
G36*
X135040000Y-79590000D02*
G01*
X134560000Y-79590000D01*
X134800000Y-79260000D01*
X135040000Y-79590000D01*
G37*
%TO.C,U3*%
X129940000Y-82515000D02*
X129610000Y-82275000D01*
X129940000Y-82035000D01*
X129940000Y-82515000D01*
G36*
X129940000Y-82515000D02*
G01*
X129610000Y-82275000D01*
X129940000Y-82035000D01*
X129940000Y-82515000D01*
G37*
X125750000Y-77265000D02*
X123550000Y-77265000D01*
X125750000Y-77265000D02*
X127950000Y-77265000D01*
X125750000Y-82735000D02*
X123550000Y-82735000D01*
X125750000Y-82735000D02*
X127950000Y-82735000D01*
%TO.C,U2*%
X133500000Y-83610000D02*
X135000000Y-83610000D01*
X133500000Y-83610000D02*
X132000000Y-83610000D01*
X133500000Y-80390000D02*
X135000000Y-80390000D01*
X133500000Y-80390000D02*
X132000000Y-80390000D01*
X135940000Y-83790000D02*
X135460000Y-83790000D01*
X135700000Y-83460000D01*
X135940000Y-83790000D01*
G36*
X135940000Y-83790000D02*
G01*
X135460000Y-83790000D01*
X135700000Y-83460000D01*
X135940000Y-83790000D01*
G37*
%TO.C,U1*%
X123500000Y-86940000D02*
X122700000Y-86940000D01*
X123500000Y-86940000D02*
X124300000Y-86940000D01*
X123500000Y-90060000D02*
X122700000Y-90060000D01*
X123500000Y-90060000D02*
X124300000Y-90060000D01*
X122200000Y-86990000D02*
X121960000Y-86660000D01*
X122440000Y-86660000D01*
X122200000Y-86990000D01*
G36*
X122200000Y-86990000D02*
G01*
X121960000Y-86660000D01*
X122440000Y-86660000D01*
X122200000Y-86990000D01*
G37*
%TO.C,R13*%
X137120000Y-82153641D02*
X137120000Y-81846359D01*
X137880000Y-82153641D02*
X137880000Y-81846359D01*
%TO.C,R7*%
X140643641Y-81380000D02*
X140336359Y-81380000D01*
X140643641Y-80620000D02*
X140336359Y-80620000D01*
%TO.C,R6*%
X140336359Y-82620000D02*
X140643641Y-82620000D01*
X140336359Y-83380000D02*
X140643641Y-83380000D01*
%TO.C,R2*%
X136596359Y-76370000D02*
X136903641Y-76370000D01*
X136596359Y-77130000D02*
X136903641Y-77130000D01*
%TO.C,R1*%
X136903641Y-78130000D02*
X136596359Y-78130000D01*
X136903641Y-77370000D02*
X136596359Y-77370000D01*
%TO.C,J2*%
X142340000Y-87360000D02*
X143590000Y-87360000D01*
X142640000Y-87060000D02*
X147360000Y-87060000D01*
X143950000Y-87060000D02*
X143950000Y-86450000D01*
X145250000Y-87060000D02*
X145250000Y-86450000D01*
X147360000Y-87060000D02*
X147360000Y-76940000D01*
X143250000Y-86450000D02*
X146750000Y-86450000D01*
X146750000Y-86450000D02*
X146750000Y-77550000D01*
X142340000Y-86110000D02*
X142340000Y-87360000D01*
X142440000Y-85600000D02*
X142640000Y-85600000D01*
X142440000Y-85300000D02*
X142440000Y-85600000D01*
X142540000Y-85300000D02*
X142540000Y-85600000D01*
X142640000Y-85300000D02*
X142440000Y-85300000D01*
X142640000Y-84500000D02*
X143250000Y-84500000D01*
X143250000Y-84500000D02*
X143250000Y-86450000D01*
X146250000Y-84100000D02*
X146250000Y-83900000D01*
X146750000Y-84100000D02*
X146250000Y-84100000D01*
X146750000Y-84000000D02*
X146250000Y-84000000D01*
X146250000Y-83900000D02*
X146750000Y-83900000D01*
X146250000Y-82100000D02*
X146250000Y-81900000D01*
X146750000Y-82100000D02*
X146250000Y-82100000D01*
X146750000Y-82000000D02*
X146250000Y-82000000D01*
X146250000Y-81900000D02*
X146750000Y-81900000D01*
X146250000Y-80100000D02*
X146250000Y-79900000D01*
X146750000Y-80100000D02*
X146250000Y-80100000D01*
X146750000Y-80000000D02*
X146250000Y-80000000D01*
X146250000Y-79900000D02*
X146750000Y-79900000D01*
X143250000Y-79500000D02*
X142640000Y-79500000D01*
X143250000Y-77550000D02*
X143250000Y-79500000D01*
X146750000Y-77550000D02*
X143250000Y-77550000D01*
X142640000Y-76940000D02*
X142640000Y-87060000D01*
X143950000Y-76940000D02*
X143950000Y-77550000D01*
X145250000Y-76940000D02*
X145250000Y-77550000D01*
X147360000Y-76940000D02*
X142640000Y-76940000D01*
%TO.C,C8*%
X138640000Y-80107836D02*
X138640000Y-79892164D01*
X139360000Y-80107836D02*
X139360000Y-79892164D01*
%TO.C,C7*%
X138640000Y-82107836D02*
X138640000Y-81892164D01*
X139360000Y-82107836D02*
X139360000Y-81892164D01*
%TO.C,C6*%
X138640000Y-84107836D02*
X138640000Y-83892164D01*
X139360000Y-84107836D02*
X139360000Y-83892164D01*
%TO.C,C5*%
X120142164Y-80140000D02*
X120357836Y-80140000D01*
X120142164Y-80860000D02*
X120357836Y-80860000D01*
%TO.C,C4*%
X123890580Y-85490000D02*
X123609420Y-85490000D01*
X123890580Y-86510000D02*
X123609420Y-86510000D01*
%TO.C,C3*%
X126642164Y-89140000D02*
X126857836Y-89140000D01*
X126642164Y-89860000D02*
X126857836Y-89860000D01*
%TO.C,C2*%
X125890000Y-87892164D02*
X125890000Y-88107836D01*
X126610000Y-87892164D02*
X126610000Y-88107836D01*
%TO.C,C1*%
X119857836Y-87860000D02*
X119642164Y-87860000D01*
X119857836Y-87140000D02*
X119642164Y-87140000D01*
%TD*%
%LPC*%
D12*
%TO.C,R5*%
X129250000Y-88250000D03*
X129250000Y-86600000D03*
%TD*%
D13*
%TO.C,R4*%
X127500000Y-86600000D03*
X127500000Y-88250000D03*
%TD*%
D14*
%TO.C,R12*%
X118075000Y-77000000D03*
X116425000Y-77000000D03*
%TD*%
%TO.C,R11*%
X118075000Y-79000000D03*
X116425000Y-79000000D03*
%TD*%
%TO.C,R10*%
X118075000Y-81250000D03*
X116425000Y-81250000D03*
%TD*%
D15*
%TO.C,R9*%
X116425000Y-83250000D03*
X118075000Y-83250000D03*
%TD*%
%TO.C,R8*%
X116425000Y-85000000D03*
X118075000Y-85000000D03*
%TD*%
D16*
%TO.C,J3*%
X113550000Y-75000000D03*
D17*
X113550000Y-77000000D03*
X113550000Y-79000000D03*
X113550000Y-81000000D03*
X113550000Y-83000000D03*
X113550000Y-85000000D03*
X113550000Y-87000000D03*
X113550000Y-89000000D03*
%TD*%
D18*
%TO.C,C11*%
X130750000Y-76770000D03*
X130750000Y-77730000D03*
%TD*%
D19*
%TO.C,C10*%
X131250000Y-85480000D03*
X131250000Y-84520000D03*
%TD*%
D20*
%TO.C,C9*%
X120730000Y-79500000D03*
X119770000Y-79500000D03*
%TD*%
D21*
%TO.C,U4*%
X134637500Y-78700000D03*
X134637500Y-77750000D03*
X134637500Y-76800000D03*
X132362500Y-76800000D03*
X132362500Y-78700000D03*
%TD*%
D22*
%TO.C,U3*%
X122887500Y-82275000D03*
X122887500Y-81625000D03*
X122887500Y-80975000D03*
X122887500Y-80325000D03*
X122887500Y-79675000D03*
X122887500Y-79025000D03*
X122887500Y-78375000D03*
X122887500Y-77725000D03*
X128612500Y-77725000D03*
X128612500Y-78375000D03*
X128612500Y-79025000D03*
X128612500Y-79675000D03*
X128612500Y-80325000D03*
X128612500Y-80975000D03*
X128612500Y-81625000D03*
X128612500Y-82275000D03*
%TD*%
D23*
%TO.C,U2*%
X135700000Y-82975000D03*
X135700000Y-82325000D03*
X135700000Y-81675000D03*
X135700000Y-81025000D03*
X131300000Y-81025000D03*
X131300000Y-81675000D03*
X131300000Y-82325000D03*
X131300000Y-82975000D03*
%TD*%
D24*
%TO.C,U1*%
X122362500Y-87550000D03*
X122362500Y-88500000D03*
X122362500Y-89450000D03*
X124637500Y-89450000D03*
X124637500Y-88500000D03*
X124637500Y-87550000D03*
%TD*%
D25*
%TO.C,R13*%
X137500000Y-82510000D03*
X137500000Y-81490000D03*
%TD*%
D26*
%TO.C,R7*%
X141000000Y-81000000D03*
X139980000Y-81000000D03*
%TD*%
D27*
%TO.C,R6*%
X139980000Y-83000000D03*
X141000000Y-83000000D03*
%TD*%
%TO.C,R2*%
X136240000Y-76750000D03*
X137260000Y-76750000D03*
%TD*%
D26*
%TO.C,R1*%
X137260000Y-77750000D03*
X136240000Y-77750000D03*
%TD*%
D28*
%TO.C,J2*%
X144450000Y-85000000D03*
D17*
X144450000Y-83000000D03*
X144450000Y-81000000D03*
X144450000Y-79000000D03*
%TD*%
D29*
%TO.C,H3*%
X117000000Y-92000000D03*
%TD*%
%TO.C,H2*%
X146000000Y-92000000D03*
%TD*%
%TO.C,H1*%
X146000000Y-72000000D03*
%TD*%
D19*
%TO.C,C8*%
X139000000Y-80480000D03*
X139000000Y-79520000D03*
%TD*%
%TO.C,C7*%
X139000000Y-82480000D03*
X139000000Y-81520000D03*
%TD*%
%TO.C,C6*%
X139000000Y-84480000D03*
X139000000Y-83520000D03*
%TD*%
D20*
%TO.C,C5*%
X119770000Y-80500000D03*
X120730000Y-80500000D03*
%TD*%
D30*
%TO.C,C4*%
X122975000Y-86000000D03*
X124525000Y-86000000D03*
%TD*%
D20*
%TO.C,C3*%
X126270000Y-89500000D03*
X127230000Y-89500000D03*
%TD*%
D18*
%TO.C,C2*%
X126250000Y-88480000D03*
X126250000Y-87520000D03*
%TD*%
D31*
%TO.C,C1*%
X120230000Y-87500000D03*
X119270000Y-87500000D03*
%TD*%
%LPD*%
M02*
