%TF.GenerationSoftware,KiCad,Pcbnew,8.0.1*%
%TF.CreationDate,2024-04-29T02:41:37-04:00*%
%TF.ProjectId,ads1220_board,61647331-3232-4305-9f62-6f6172642e6b,rev?*%
%TF.SameCoordinates,Original*%
%TF.FileFunction,Paste,Top*%
%TF.FilePolarity,Positive*%
%FSLAX46Y46*%
G04 Gerber Fmt 4.6, Leading zero omitted, Abs format (unit mm)*
G04 Created by KiCad (PCBNEW 8.0.1) date 2024-04-29 02:41:37*
%MOMM*%
%LPD*%
G01*
G04 APERTURE LIST*
G04 Aperture macros list*
%AMRoundRect*
0 Rectangle with rounded corners*
0 $1 Rounding radius*
0 $2 $3 $4 $5 $6 $7 $8 $9 X,Y pos of 4 corners*
0 Add a 4 corners polygon primitive as box body*
4,1,4,$2,$3,$4,$5,$6,$7,$8,$9,$2,$3,0*
0 Add four circle primitives for the rounded corners*
1,1,$1+$1,$2,$3*
1,1,$1+$1,$4,$5*
1,1,$1+$1,$6,$7*
1,1,$1+$1,$8,$9*
0 Add four rect primitives between the rounded corners*
20,1,$1+$1,$2,$3,$4,$5,0*
20,1,$1+$1,$4,$5,$6,$7,0*
20,1,$1+$1,$6,$7,$8,$9,0*
20,1,$1+$1,$8,$9,$2,$3,0*%
G04 Aperture macros list end*
%ADD10RoundRect,0.200000X0.275000X-0.200000X0.275000X0.200000X-0.275000X0.200000X-0.275000X-0.200000X0*%
%ADD11RoundRect,0.200000X-0.275000X0.200000X-0.275000X-0.200000X0.275000X-0.200000X0.275000X0.200000X0*%
%ADD12RoundRect,0.200000X0.200000X0.275000X-0.200000X0.275000X-0.200000X-0.275000X0.200000X-0.275000X0*%
%ADD13RoundRect,0.200000X-0.200000X-0.275000X0.200000X-0.275000X0.200000X0.275000X-0.200000X0.275000X0*%
%ADD14RoundRect,0.140000X-0.170000X0.140000X-0.170000X-0.140000X0.170000X-0.140000X0.170000X0.140000X0*%
%ADD15RoundRect,0.140000X0.170000X-0.140000X0.170000X0.140000X-0.170000X0.140000X-0.170000X-0.140000X0*%
%ADD16RoundRect,0.140000X-0.140000X-0.170000X0.140000X-0.170000X0.140000X0.170000X-0.140000X0.170000X0*%
%ADD17RoundRect,0.150000X0.512500X0.150000X-0.512500X0.150000X-0.512500X-0.150000X0.512500X-0.150000X0*%
%ADD18RoundRect,0.100000X0.637500X0.100000X-0.637500X0.100000X-0.637500X-0.100000X0.637500X-0.100000X0*%
%ADD19RoundRect,0.112500X0.612500X0.112500X-0.612500X0.112500X-0.612500X-0.112500X0.612500X-0.112500X0*%
%ADD20RoundRect,0.150000X-0.512500X-0.150000X0.512500X-0.150000X0.512500X0.150000X-0.512500X0.150000X0*%
%ADD21RoundRect,0.135000X0.185000X-0.135000X0.185000X0.135000X-0.185000X0.135000X-0.185000X-0.135000X0*%
%ADD22RoundRect,0.135000X0.135000X0.185000X-0.135000X0.185000X-0.135000X-0.185000X0.135000X-0.185000X0*%
%ADD23RoundRect,0.135000X-0.135000X-0.185000X0.135000X-0.185000X0.135000X0.185000X-0.135000X0.185000X0*%
%ADD24RoundRect,0.225000X0.225000X0.250000X-0.225000X0.250000X-0.225000X-0.250000X0.225000X-0.250000X0*%
%ADD25RoundRect,0.140000X0.140000X0.170000X-0.140000X0.170000X-0.140000X-0.170000X0.140000X-0.170000X0*%
G04 APERTURE END LIST*
D10*
%TO.C,R5*%
X129250000Y-88250000D03*
X129250000Y-86600000D03*
%TD*%
D11*
%TO.C,R4*%
X127500000Y-86600000D03*
X127500000Y-88250000D03*
%TD*%
D12*
%TO.C,R12*%
X118075000Y-77000000D03*
X116425000Y-77000000D03*
%TD*%
%TO.C,R11*%
X118075000Y-79000000D03*
X116425000Y-79000000D03*
%TD*%
%TO.C,R10*%
X118075000Y-81250000D03*
X116425000Y-81250000D03*
%TD*%
D13*
%TO.C,R9*%
X116425000Y-83250000D03*
X118075000Y-83250000D03*
%TD*%
%TO.C,R8*%
X116425000Y-85000000D03*
X118075000Y-85000000D03*
%TD*%
D14*
%TO.C,C11*%
X130750000Y-76770000D03*
X130750000Y-77730000D03*
%TD*%
D15*
%TO.C,C10*%
X131250000Y-85480000D03*
X131250000Y-84520000D03*
%TD*%
D16*
%TO.C,C9*%
X120730000Y-79500000D03*
X119770000Y-79500000D03*
%TD*%
D17*
%TO.C,U4*%
X134637500Y-78700000D03*
X134637500Y-77750000D03*
X134637500Y-76800000D03*
X132362500Y-76800000D03*
X132362500Y-78700000D03*
%TD*%
D18*
%TO.C,U3*%
X122887500Y-82275000D03*
X122887500Y-81625000D03*
X122887500Y-80975000D03*
X122887500Y-80325000D03*
X122887500Y-79675000D03*
X122887500Y-79025000D03*
X122887500Y-78375000D03*
X122887500Y-77725000D03*
X128612500Y-77725000D03*
X128612500Y-78375000D03*
X128612500Y-79025000D03*
X128612500Y-79675000D03*
X128612500Y-80325000D03*
X128612500Y-80975000D03*
X128612500Y-81625000D03*
X128612500Y-82275000D03*
%TD*%
D19*
%TO.C,U2*%
X135700000Y-82975000D03*
X135700000Y-82325000D03*
X135700000Y-81675000D03*
X135700000Y-81025000D03*
X131300000Y-81025000D03*
X131300000Y-81675000D03*
X131300000Y-82325000D03*
X131300000Y-82975000D03*
%TD*%
D20*
%TO.C,U1*%
X122362500Y-87550000D03*
X122362500Y-88500000D03*
X122362500Y-89450000D03*
X124637500Y-89450000D03*
X124637500Y-88500000D03*
X124637500Y-87550000D03*
%TD*%
D21*
%TO.C,R13*%
X137500000Y-82510000D03*
X137500000Y-81490000D03*
%TD*%
D22*
%TO.C,R7*%
X141000000Y-81000000D03*
X139980000Y-81000000D03*
%TD*%
D23*
%TO.C,R6*%
X139980000Y-83000000D03*
X141000000Y-83000000D03*
%TD*%
%TO.C,R2*%
X136240000Y-76750000D03*
X137260000Y-76750000D03*
%TD*%
D22*
%TO.C,R1*%
X137260000Y-77750000D03*
X136240000Y-77750000D03*
%TD*%
D15*
%TO.C,C8*%
X139000000Y-80480000D03*
X139000000Y-79520000D03*
%TD*%
%TO.C,C7*%
X139000000Y-82480000D03*
X139000000Y-81520000D03*
%TD*%
%TO.C,C6*%
X139000000Y-84480000D03*
X139000000Y-83520000D03*
%TD*%
D16*
%TO.C,C5*%
X119770000Y-80500000D03*
X120730000Y-80500000D03*
%TD*%
D24*
%TO.C,C4*%
X122975000Y-86000000D03*
X124525000Y-86000000D03*
%TD*%
D16*
%TO.C,C3*%
X126270000Y-89500000D03*
X127230000Y-89500000D03*
%TD*%
D14*
%TO.C,C2*%
X126250000Y-88480000D03*
X126250000Y-87520000D03*
%TD*%
D25*
%TO.C,C1*%
X120230000Y-87500000D03*
X119270000Y-87500000D03*
%TD*%
M02*
