%TF.GenerationSoftware,KiCad,Pcbnew,8.0.1*%
%TF.CreationDate,2024-05-14T21:58:36-04:00*%
%TF.ProjectId,ads1220_board,61647331-3232-4305-9f62-6f6172642e6b,rev?*%
%TF.SameCoordinates,Original*%
%TF.FileFunction,Copper,L3,Inr*%
%TF.FilePolarity,Positive*%
%FSLAX46Y46*%
G04 Gerber Fmt 4.6, Leading zero omitted, Abs format (unit mm)*
G04 Created by KiCad (PCBNEW 8.0.1) date 2024-05-14 21:58:36*
%MOMM*%
%LPD*%
G01*
G04 APERTURE LIST*
G04 Aperture macros list*
%AMRoundRect*
0 Rectangle with rounded corners*
0 $1 Rounding radius*
0 $2 $3 $4 $5 $6 $7 $8 $9 X,Y pos of 4 corners*
0 Add a 4 corners polygon primitive as box body*
4,1,4,$2,$3,$4,$5,$6,$7,$8,$9,$2,$3,0*
0 Add four circle primitives for the rounded corners*
1,1,$1+$1,$2,$3*
1,1,$1+$1,$4,$5*
1,1,$1+$1,$6,$7*
1,1,$1+$1,$8,$9*
0 Add four rect primitives between the rounded corners*
20,1,$1+$1,$2,$3,$4,$5,0*
20,1,$1+$1,$4,$5,$6,$7,0*
20,1,$1+$1,$6,$7,$8,$9,0*
20,1,$1+$1,$8,$9,$2,$3,0*%
G04 Aperture macros list end*
%TA.AperFunction,ComponentPad*%
%ADD10RoundRect,0.250000X0.625000X-0.350000X0.625000X0.350000X-0.625000X0.350000X-0.625000X-0.350000X0*%
%TD*%
%TA.AperFunction,ComponentPad*%
%ADD11O,1.750000X1.200000*%
%TD*%
%TA.AperFunction,ComponentPad*%
%ADD12RoundRect,0.250000X-0.625000X0.350000X-0.625000X-0.350000X0.625000X-0.350000X0.625000X0.350000X0*%
%TD*%
%TA.AperFunction,ViaPad*%
%ADD13C,0.600000*%
%TD*%
%TA.AperFunction,Conductor*%
%ADD14C,0.500000*%
%TD*%
G04 APERTURE END LIST*
D10*
%TO.N,GND*%
%TO.C,J2*%
X144450000Y-85000000D03*
D11*
%TO.N,/SIG+*%
X144450000Y-83000000D03*
%TO.N,/SIG-*%
X144450000Y-81000000D03*
%TO.N,+4V*%
X144450000Y-79000000D03*
%TD*%
D12*
%TO.N,GND*%
%TO.C,J3*%
X113550000Y-75000000D03*
D11*
%TO.N,Net-(J3-Pin_2)*%
X113550000Y-77000000D03*
%TO.N,Net-(J3-Pin_3)*%
X113550000Y-79000000D03*
%TO.N,Net-(J3-Pin_4)*%
X113550000Y-81000000D03*
%TO.N,Net-(J3-Pin_5)*%
X113550000Y-83000000D03*
%TO.N,Net-(J3-Pin_6)*%
X113550000Y-85000000D03*
%TO.N,+3V3*%
X113550000Y-87000000D03*
%TO.N,+5V*%
X113550000Y-89000000D03*
%TD*%
D13*
%TO.N,+5V*%
X121000000Y-89500000D03*
X121000000Y-87500000D03*
%TO.N,GND*%
X140000000Y-71000000D03*
X131000000Y-75500000D03*
X144000000Y-93000000D03*
X140000000Y-78500000D03*
X132750000Y-81500000D03*
X111000000Y-90000000D03*
X140000000Y-85500000D03*
X128500000Y-83250000D03*
X115000000Y-71000000D03*
X147000000Y-82000000D03*
X144000000Y-71000000D03*
X125000000Y-93000000D03*
X132730000Y-83750000D03*
X115000000Y-82000000D03*
X115000000Y-93000000D03*
X136000000Y-84750000D03*
X125000000Y-71000000D03*
X111000000Y-86000000D03*
X137100000Y-79250000D03*
X136498809Y-88550744D03*
X120000000Y-93000000D03*
X139000000Y-76250000D03*
X141750000Y-84250000D03*
X147000000Y-74000000D03*
X121250000Y-86000000D03*
X141750000Y-79750000D03*
X123475000Y-88500000D03*
X115000000Y-80000000D03*
X120000000Y-71000000D03*
X111000000Y-82000000D03*
X111000000Y-74000000D03*
X137100000Y-81000000D03*
X111000000Y-78000000D03*
X115000000Y-78000000D03*
X136000000Y-75500000D03*
X147000000Y-90000000D03*
X135000000Y-71000000D03*
X140000000Y-93000000D03*
X147000000Y-86000000D03*
X115000000Y-84000000D03*
X128500000Y-76750000D03*
X132750000Y-78900000D03*
X135000000Y-93000000D03*
X147000000Y-78000000D03*
X130000000Y-71000000D03*
X130000000Y-93000000D03*
X119720000Y-78530000D03*
X127325000Y-80325000D03*
%TO.N,+4V*%
X131300000Y-84200000D03*
X124525000Y-85025000D03*
X125500000Y-86000000D03*
X131300000Y-79500000D03*
X138700000Y-87800000D03*
X131700000Y-88550000D03*
X121500000Y-79500000D03*
%TO.N,+3V3*%
X121500000Y-80500000D03*
%TO.N,/INA_REF*%
X135375000Y-89625000D03*
%TO.N,/SIG_AMP+*%
X126500000Y-78250000D03*
%TO.N,/SIG_AMP-*%
X126500000Y-79500000D03*
%TD*%
D14*
%TO.N,+3V3*%
X115000000Y-87000000D02*
X121500000Y-80500000D01*
X113550000Y-87000000D02*
X115000000Y-87000000D01*
%TD*%
%TA.AperFunction,Conductor*%
%TO.N,+5V*%
G36*
X121443039Y-87019685D02*
G01*
X121488794Y-87072489D01*
X121500000Y-87124000D01*
X121500000Y-90876000D01*
X121480315Y-90943039D01*
X121427511Y-90988794D01*
X121376000Y-91000000D01*
X112874000Y-91000000D01*
X112806961Y-90980315D01*
X112761206Y-90927511D01*
X112750000Y-90876000D01*
X112750000Y-90156696D01*
X112769685Y-90089657D01*
X112822489Y-90043902D01*
X112891647Y-90033958D01*
X112912319Y-90038765D01*
X113017415Y-90072914D01*
X113188429Y-90100000D01*
X113300000Y-90100000D01*
X113300000Y-89280330D01*
X113319745Y-89300075D01*
X113405255Y-89349444D01*
X113500630Y-89375000D01*
X113599370Y-89375000D01*
X113694745Y-89349444D01*
X113780255Y-89300075D01*
X113800000Y-89280330D01*
X113800000Y-90100000D01*
X113911571Y-90100000D01*
X114082584Y-90072914D01*
X114247257Y-90019408D01*
X114401524Y-89940804D01*
X114541602Y-89839032D01*
X114664032Y-89716602D01*
X114765804Y-89576524D01*
X114844408Y-89422255D01*
X114897914Y-89257584D01*
X114899115Y-89250000D01*
X113830330Y-89250000D01*
X113850075Y-89230255D01*
X113899444Y-89144745D01*
X113925000Y-89049370D01*
X113925000Y-88950630D01*
X113899444Y-88855255D01*
X113850075Y-88769745D01*
X113830330Y-88750000D01*
X114899115Y-88750000D01*
X114899115Y-88749999D01*
X114897914Y-88742415D01*
X114844408Y-88577744D01*
X114765804Y-88423475D01*
X114664032Y-88283397D01*
X114592316Y-88211681D01*
X114558831Y-88150358D01*
X114563815Y-88080666D01*
X114605687Y-88024733D01*
X114671151Y-88000316D01*
X114679997Y-88000000D01*
X117000000Y-88000000D01*
X117963681Y-87036319D01*
X118025004Y-87002834D01*
X118051362Y-87000000D01*
X121376000Y-87000000D01*
X121443039Y-87019685D01*
G37*
%TD.AperFunction*%
%TD*%
%TA.AperFunction,Conductor*%
%TO.N,+4V*%
G36*
X114218967Y-70520185D02*
G01*
X114264722Y-70572989D01*
X114274666Y-70642147D01*
X114268970Y-70665454D01*
X114214632Y-70820742D01*
X114214630Y-70820750D01*
X114194435Y-70999996D01*
X114194435Y-71000003D01*
X114214630Y-71179249D01*
X114214631Y-71179254D01*
X114274211Y-71349523D01*
X114370184Y-71502262D01*
X114497738Y-71629816D01*
X114650478Y-71725789D01*
X114745158Y-71758919D01*
X114820745Y-71785368D01*
X114820750Y-71785369D01*
X114999996Y-71805565D01*
X115000000Y-71805565D01*
X115000004Y-71805565D01*
X115179249Y-71785369D01*
X115179252Y-71785368D01*
X115179255Y-71785368D01*
X115349522Y-71725789D01*
X115502262Y-71629816D01*
X115629816Y-71502262D01*
X115725789Y-71349522D01*
X115785368Y-71179255D01*
X115785369Y-71179249D01*
X115805565Y-71000003D01*
X115805565Y-70999996D01*
X115785369Y-70820750D01*
X115785367Y-70820742D01*
X115731030Y-70665454D01*
X115727469Y-70595676D01*
X115762198Y-70535048D01*
X115824191Y-70502821D01*
X115848072Y-70500500D01*
X119151928Y-70500500D01*
X119218967Y-70520185D01*
X119264722Y-70572989D01*
X119274666Y-70642147D01*
X119268970Y-70665454D01*
X119214632Y-70820742D01*
X119214630Y-70820750D01*
X119194435Y-70999996D01*
X119194435Y-71000003D01*
X119214630Y-71179249D01*
X119214631Y-71179254D01*
X119274211Y-71349523D01*
X119370184Y-71502262D01*
X119497738Y-71629816D01*
X119650478Y-71725789D01*
X119745158Y-71758919D01*
X119820745Y-71785368D01*
X119820750Y-71785369D01*
X119999996Y-71805565D01*
X120000000Y-71805565D01*
X120000004Y-71805565D01*
X120179249Y-71785369D01*
X120179252Y-71785368D01*
X120179255Y-71785368D01*
X120349522Y-71725789D01*
X120502262Y-71629816D01*
X120629816Y-71502262D01*
X120725789Y-71349522D01*
X120785368Y-71179255D01*
X120785369Y-71179249D01*
X120805565Y-71000003D01*
X120805565Y-70999996D01*
X120785369Y-70820750D01*
X120785367Y-70820742D01*
X120731030Y-70665454D01*
X120727469Y-70595676D01*
X120762198Y-70535048D01*
X120824191Y-70502821D01*
X120848072Y-70500500D01*
X124151928Y-70500500D01*
X124218967Y-70520185D01*
X124264722Y-70572989D01*
X124274666Y-70642147D01*
X124268970Y-70665454D01*
X124214632Y-70820742D01*
X124214630Y-70820750D01*
X124194435Y-70999996D01*
X124194435Y-71000003D01*
X124214630Y-71179249D01*
X124214631Y-71179254D01*
X124274211Y-71349523D01*
X124370184Y-71502262D01*
X124497738Y-71629816D01*
X124650478Y-71725789D01*
X124745158Y-71758919D01*
X124820745Y-71785368D01*
X124820750Y-71785369D01*
X124999996Y-71805565D01*
X125000000Y-71805565D01*
X125000004Y-71805565D01*
X125179249Y-71785369D01*
X125179252Y-71785368D01*
X125179255Y-71785368D01*
X125349522Y-71725789D01*
X125502262Y-71629816D01*
X125629816Y-71502262D01*
X125725789Y-71349522D01*
X125785368Y-71179255D01*
X125785369Y-71179249D01*
X125805565Y-71000003D01*
X125805565Y-70999996D01*
X125785369Y-70820750D01*
X125785367Y-70820742D01*
X125731030Y-70665454D01*
X125727469Y-70595676D01*
X125762198Y-70535048D01*
X125824191Y-70502821D01*
X125848072Y-70500500D01*
X129151928Y-70500500D01*
X129218967Y-70520185D01*
X129264722Y-70572989D01*
X129274666Y-70642147D01*
X129268970Y-70665454D01*
X129214632Y-70820742D01*
X129214630Y-70820750D01*
X129194435Y-70999996D01*
X129194435Y-71000003D01*
X129214630Y-71179249D01*
X129214631Y-71179254D01*
X129274211Y-71349523D01*
X129370184Y-71502262D01*
X129497738Y-71629816D01*
X129650478Y-71725789D01*
X129745158Y-71758919D01*
X129820745Y-71785368D01*
X129820750Y-71785369D01*
X129999996Y-71805565D01*
X130000000Y-71805565D01*
X130000004Y-71805565D01*
X130179249Y-71785369D01*
X130179252Y-71785368D01*
X130179255Y-71785368D01*
X130349522Y-71725789D01*
X130502262Y-71629816D01*
X130629816Y-71502262D01*
X130725789Y-71349522D01*
X130785368Y-71179255D01*
X130785369Y-71179249D01*
X130805565Y-71000003D01*
X130805565Y-70999996D01*
X130785369Y-70820750D01*
X130785367Y-70820742D01*
X130731030Y-70665454D01*
X130727469Y-70595676D01*
X130762198Y-70535048D01*
X130824191Y-70502821D01*
X130848072Y-70500500D01*
X134151928Y-70500500D01*
X134218967Y-70520185D01*
X134264722Y-70572989D01*
X134274666Y-70642147D01*
X134268970Y-70665454D01*
X134214632Y-70820742D01*
X134214630Y-70820750D01*
X134194435Y-70999996D01*
X134194435Y-71000003D01*
X134214630Y-71179249D01*
X134214631Y-71179254D01*
X134274211Y-71349523D01*
X134370184Y-71502262D01*
X134497738Y-71629816D01*
X134650478Y-71725789D01*
X134745158Y-71758919D01*
X134820745Y-71785368D01*
X134820750Y-71785369D01*
X134999996Y-71805565D01*
X135000000Y-71805565D01*
X135000004Y-71805565D01*
X135179249Y-71785369D01*
X135179252Y-71785368D01*
X135179255Y-71785368D01*
X135349522Y-71725789D01*
X135502262Y-71629816D01*
X135629816Y-71502262D01*
X135725789Y-71349522D01*
X135785368Y-71179255D01*
X135785369Y-71179249D01*
X135805565Y-71000003D01*
X135805565Y-70999996D01*
X135785369Y-70820750D01*
X135785367Y-70820742D01*
X135731030Y-70665454D01*
X135727469Y-70595676D01*
X135762198Y-70535048D01*
X135824191Y-70502821D01*
X135848072Y-70500500D01*
X139151928Y-70500500D01*
X139218967Y-70520185D01*
X139264722Y-70572989D01*
X139274666Y-70642147D01*
X139268970Y-70665454D01*
X139214632Y-70820742D01*
X139214630Y-70820750D01*
X139194435Y-70999996D01*
X139194435Y-71000003D01*
X139214630Y-71179249D01*
X139214631Y-71179254D01*
X139274211Y-71349523D01*
X139370184Y-71502262D01*
X139497738Y-71629816D01*
X139650478Y-71725789D01*
X139745158Y-71758919D01*
X139820745Y-71785368D01*
X139820750Y-71785369D01*
X139999996Y-71805565D01*
X140000000Y-71805565D01*
X140000004Y-71805565D01*
X140179249Y-71785369D01*
X140179252Y-71785368D01*
X140179255Y-71785368D01*
X140349522Y-71725789D01*
X140502262Y-71629816D01*
X140629816Y-71502262D01*
X140725789Y-71349522D01*
X140785368Y-71179255D01*
X140785369Y-71179249D01*
X140805565Y-71000003D01*
X140805565Y-70999996D01*
X140785369Y-70820750D01*
X140785367Y-70820742D01*
X140731030Y-70665454D01*
X140727469Y-70595676D01*
X140762198Y-70535048D01*
X140824191Y-70502821D01*
X140848072Y-70500500D01*
X143151928Y-70500500D01*
X143218967Y-70520185D01*
X143264722Y-70572989D01*
X143274666Y-70642147D01*
X143268970Y-70665454D01*
X143214632Y-70820742D01*
X143214630Y-70820750D01*
X143194435Y-70999996D01*
X143194435Y-71000003D01*
X143214630Y-71179249D01*
X143214631Y-71179254D01*
X143274211Y-71349523D01*
X143370184Y-71502262D01*
X143497738Y-71629816D01*
X143650478Y-71725789D01*
X143745158Y-71758919D01*
X143820745Y-71785368D01*
X143820750Y-71785369D01*
X143999996Y-71805565D01*
X144000000Y-71805565D01*
X144000004Y-71805565D01*
X144179249Y-71785369D01*
X144179252Y-71785368D01*
X144179255Y-71785368D01*
X144349522Y-71725789D01*
X144502262Y-71629816D01*
X144629816Y-71502262D01*
X144725789Y-71349522D01*
X144785368Y-71179255D01*
X144785369Y-71179249D01*
X144805565Y-71000003D01*
X144805565Y-70999996D01*
X144785369Y-70820750D01*
X144785367Y-70820742D01*
X144731030Y-70665454D01*
X144727469Y-70595676D01*
X144762198Y-70535048D01*
X144824191Y-70502821D01*
X144848072Y-70500500D01*
X145934108Y-70500500D01*
X145995572Y-70500500D01*
X146004418Y-70500816D01*
X146204561Y-70515130D01*
X146222063Y-70517647D01*
X146413797Y-70559355D01*
X146430755Y-70564334D01*
X146614609Y-70632909D01*
X146630701Y-70640259D01*
X146802904Y-70734288D01*
X146817784Y-70743849D01*
X146974867Y-70861441D01*
X146988237Y-70873027D01*
X147126972Y-71011762D01*
X147138558Y-71025132D01*
X147249625Y-71173500D01*
X147256146Y-71182210D01*
X147265711Y-71197095D01*
X147359740Y-71369298D01*
X147367090Y-71385390D01*
X147435662Y-71569236D01*
X147440646Y-71586212D01*
X147482351Y-71777931D01*
X147484869Y-71795442D01*
X147499184Y-71995580D01*
X147499500Y-72004427D01*
X147499500Y-73151928D01*
X147479815Y-73218967D01*
X147427011Y-73264722D01*
X147357853Y-73274666D01*
X147334546Y-73268970D01*
X147179257Y-73214632D01*
X147179249Y-73214630D01*
X147000004Y-73194435D01*
X146999996Y-73194435D01*
X146820750Y-73214630D01*
X146820745Y-73214631D01*
X146650476Y-73274211D01*
X146497737Y-73370184D01*
X146370184Y-73497737D01*
X146274211Y-73650476D01*
X146214631Y-73820745D01*
X146214630Y-73820750D01*
X146194435Y-73999996D01*
X146194435Y-74000003D01*
X146214630Y-74179249D01*
X146214631Y-74179254D01*
X146274211Y-74349523D01*
X146367003Y-74497200D01*
X146370184Y-74502262D01*
X146497738Y-74629816D01*
X146588080Y-74686582D01*
X146632721Y-74714632D01*
X146650478Y-74725789D01*
X146788860Y-74774211D01*
X146820745Y-74785368D01*
X146820750Y-74785369D01*
X146999996Y-74805565D01*
X147000000Y-74805565D01*
X147000004Y-74805565D01*
X147179249Y-74785369D01*
X147179251Y-74785368D01*
X147179255Y-74785368D01*
X147179258Y-74785366D01*
X147179262Y-74785366D01*
X147334545Y-74731030D01*
X147404324Y-74727468D01*
X147464951Y-74762196D01*
X147497179Y-74824190D01*
X147499500Y-74848071D01*
X147499500Y-77151928D01*
X147479815Y-77218967D01*
X147427011Y-77264722D01*
X147357853Y-77274666D01*
X147334546Y-77268970D01*
X147179257Y-77214632D01*
X147179249Y-77214630D01*
X147000004Y-77194435D01*
X146999996Y-77194435D01*
X146820750Y-77214630D01*
X146820745Y-77214631D01*
X146650476Y-77274211D01*
X146497737Y-77370184D01*
X146370184Y-77497737D01*
X146274211Y-77650476D01*
X146214631Y-77820745D01*
X146214630Y-77820750D01*
X146194435Y-77999996D01*
X146194435Y-78000003D01*
X146214630Y-78179249D01*
X146214631Y-78179254D01*
X146274211Y-78349523D01*
X146333849Y-78444435D01*
X146370184Y-78502262D01*
X146497738Y-78629816D01*
X146576410Y-78679249D01*
X146642450Y-78720745D01*
X146650478Y-78725789D01*
X146776097Y-78769745D01*
X146820745Y-78785368D01*
X146820750Y-78785369D01*
X146999996Y-78805565D01*
X147000000Y-78805565D01*
X147000004Y-78805565D01*
X147179249Y-78785369D01*
X147179251Y-78785368D01*
X147179255Y-78785368D01*
X147179258Y-78785366D01*
X147179262Y-78785366D01*
X147334545Y-78731030D01*
X147404324Y-78727468D01*
X147464951Y-78762196D01*
X147497179Y-78824190D01*
X147499500Y-78848071D01*
X147499500Y-81151928D01*
X147479815Y-81218967D01*
X147427011Y-81264722D01*
X147357853Y-81274666D01*
X147334546Y-81268970D01*
X147179257Y-81214632D01*
X147179249Y-81214630D01*
X147000004Y-81194435D01*
X146999996Y-81194435D01*
X146820750Y-81214630D01*
X146820745Y-81214631D01*
X146650476Y-81274211D01*
X146497737Y-81370184D01*
X146370184Y-81497737D01*
X146274211Y-81650476D01*
X146214631Y-81820745D01*
X146214630Y-81820750D01*
X146194435Y-81999996D01*
X146194435Y-82000003D01*
X146214630Y-82179249D01*
X146214631Y-82179254D01*
X146274211Y-82349523D01*
X146333849Y-82444435D01*
X146370184Y-82502262D01*
X146497738Y-82629816D01*
X146650478Y-82725789D01*
X146808353Y-82781032D01*
X146820745Y-82785368D01*
X146820750Y-82785369D01*
X146999996Y-82805565D01*
X147000000Y-82805565D01*
X147000004Y-82805565D01*
X147179249Y-82785369D01*
X147179251Y-82785368D01*
X147179255Y-82785368D01*
X147179258Y-82785366D01*
X147179262Y-82785366D01*
X147334545Y-82731030D01*
X147404324Y-82727468D01*
X147464951Y-82762196D01*
X147497179Y-82824190D01*
X147499500Y-82848071D01*
X147499500Y-85151928D01*
X147479815Y-85218967D01*
X147427011Y-85264722D01*
X147357853Y-85274666D01*
X147334546Y-85268970D01*
X147179257Y-85214632D01*
X147179249Y-85214630D01*
X147000004Y-85194435D01*
X146999996Y-85194435D01*
X146820750Y-85214630D01*
X146820745Y-85214631D01*
X146650476Y-85274211D01*
X146497737Y-85370184D01*
X146370184Y-85497737D01*
X146274211Y-85650476D01*
X146214631Y-85820745D01*
X146214630Y-85820750D01*
X146194435Y-85999996D01*
X146194435Y-86000003D01*
X146214630Y-86179249D01*
X146214631Y-86179254D01*
X146274211Y-86349523D01*
X146343598Y-86459951D01*
X146370184Y-86502262D01*
X146497738Y-86629816D01*
X146575818Y-86678877D01*
X146617984Y-86705372D01*
X146650478Y-86725789D01*
X146808353Y-86781032D01*
X146820745Y-86785368D01*
X146820750Y-86785369D01*
X146999996Y-86805565D01*
X147000000Y-86805565D01*
X147000004Y-86805565D01*
X147179249Y-86785369D01*
X147179251Y-86785368D01*
X147179255Y-86785368D01*
X147179258Y-86785366D01*
X147179262Y-86785366D01*
X147334545Y-86731030D01*
X147404324Y-86727468D01*
X147464951Y-86762196D01*
X147497179Y-86824190D01*
X147499500Y-86848071D01*
X147499500Y-89151928D01*
X147479815Y-89218967D01*
X147427011Y-89264722D01*
X147357853Y-89274666D01*
X147334546Y-89268970D01*
X147179257Y-89214632D01*
X147179249Y-89214630D01*
X147000004Y-89194435D01*
X146999996Y-89194435D01*
X146820750Y-89214630D01*
X146820745Y-89214631D01*
X146650476Y-89274211D01*
X146497737Y-89370184D01*
X146370184Y-89497737D01*
X146274211Y-89650476D01*
X146214631Y-89820745D01*
X146214630Y-89820750D01*
X146194435Y-89999996D01*
X146194435Y-90000003D01*
X146214630Y-90179249D01*
X146214631Y-90179254D01*
X146274211Y-90349523D01*
X146370184Y-90502262D01*
X146497738Y-90629816D01*
X146650478Y-90725789D01*
X146808353Y-90781032D01*
X146820745Y-90785368D01*
X146820750Y-90785369D01*
X146999996Y-90805565D01*
X147000000Y-90805565D01*
X147000004Y-90805565D01*
X147179249Y-90785369D01*
X147179251Y-90785368D01*
X147179255Y-90785368D01*
X147179258Y-90785366D01*
X147179262Y-90785366D01*
X147334545Y-90731030D01*
X147404324Y-90727468D01*
X147464951Y-90762196D01*
X147497179Y-90824190D01*
X147499500Y-90848071D01*
X147499500Y-91995572D01*
X147499184Y-92004419D01*
X147484869Y-92204557D01*
X147482351Y-92222068D01*
X147440646Y-92413787D01*
X147435662Y-92430763D01*
X147367090Y-92614609D01*
X147359740Y-92630701D01*
X147265711Y-92802904D01*
X147256146Y-92817789D01*
X147138558Y-92974867D01*
X147126972Y-92988237D01*
X146988237Y-93126972D01*
X146974867Y-93138558D01*
X146817789Y-93256146D01*
X146802904Y-93265711D01*
X146630701Y-93359740D01*
X146614609Y-93367090D01*
X146430763Y-93435662D01*
X146413787Y-93440646D01*
X146222068Y-93482351D01*
X146204557Y-93484869D01*
X146032451Y-93497179D01*
X146004417Y-93499184D01*
X145995572Y-93499500D01*
X144848072Y-93499500D01*
X144781033Y-93479815D01*
X144735278Y-93427011D01*
X144725334Y-93357853D01*
X144731030Y-93334546D01*
X144785367Y-93179257D01*
X144785368Y-93179255D01*
X144785369Y-93179249D01*
X144805565Y-93000003D01*
X144805565Y-92999996D01*
X144785369Y-92820750D01*
X144785368Y-92820745D01*
X144725788Y-92650476D01*
X144629815Y-92497737D01*
X144502262Y-92370184D01*
X144349523Y-92274211D01*
X144179254Y-92214631D01*
X144179249Y-92214630D01*
X144000004Y-92194435D01*
X143999996Y-92194435D01*
X143820750Y-92214630D01*
X143820745Y-92214631D01*
X143650476Y-92274211D01*
X143497737Y-92370184D01*
X143370184Y-92497737D01*
X143274211Y-92650476D01*
X143214631Y-92820745D01*
X143214630Y-92820750D01*
X143194435Y-92999996D01*
X143194435Y-93000003D01*
X143214630Y-93179249D01*
X143214632Y-93179257D01*
X143268970Y-93334546D01*
X143272531Y-93404324D01*
X143237802Y-93464952D01*
X143175809Y-93497179D01*
X143151928Y-93499500D01*
X140848072Y-93499500D01*
X140781033Y-93479815D01*
X140735278Y-93427011D01*
X140725334Y-93357853D01*
X140731030Y-93334546D01*
X140785367Y-93179257D01*
X140785368Y-93179255D01*
X140785369Y-93179249D01*
X140805565Y-93000003D01*
X140805565Y-92999996D01*
X140785369Y-92820750D01*
X140785368Y-92820745D01*
X140725788Y-92650476D01*
X140629815Y-92497737D01*
X140502262Y-92370184D01*
X140349523Y-92274211D01*
X140179254Y-92214631D01*
X140179249Y-92214630D01*
X140000004Y-92194435D01*
X139999996Y-92194435D01*
X139820750Y-92214630D01*
X139820745Y-92214631D01*
X139650476Y-92274211D01*
X139497737Y-92370184D01*
X139370184Y-92497737D01*
X139274211Y-92650476D01*
X139214631Y-92820745D01*
X139214630Y-92820750D01*
X139194435Y-92999996D01*
X139194435Y-93000003D01*
X139214630Y-93179249D01*
X139214632Y-93179257D01*
X139268970Y-93334546D01*
X139272531Y-93404324D01*
X139237802Y-93464952D01*
X139175809Y-93497179D01*
X139151928Y-93499500D01*
X135848072Y-93499500D01*
X135781033Y-93479815D01*
X135735278Y-93427011D01*
X135725334Y-93357853D01*
X135731030Y-93334546D01*
X135785367Y-93179257D01*
X135785368Y-93179255D01*
X135785369Y-93179249D01*
X135805565Y-93000003D01*
X135805565Y-92999996D01*
X135785369Y-92820750D01*
X135785368Y-92820745D01*
X135725788Y-92650476D01*
X135629815Y-92497737D01*
X135502262Y-92370184D01*
X135349523Y-92274211D01*
X135179254Y-92214631D01*
X135179249Y-92214630D01*
X135000004Y-92194435D01*
X134999996Y-92194435D01*
X134820750Y-92214630D01*
X134820745Y-92214631D01*
X134650476Y-92274211D01*
X134497737Y-92370184D01*
X134370184Y-92497737D01*
X134274211Y-92650476D01*
X134214631Y-92820745D01*
X134214630Y-92820750D01*
X134194435Y-92999996D01*
X134194435Y-93000003D01*
X134214630Y-93179249D01*
X134214632Y-93179257D01*
X134268970Y-93334546D01*
X134272531Y-93404324D01*
X134237802Y-93464952D01*
X134175809Y-93497179D01*
X134151928Y-93499500D01*
X130848072Y-93499500D01*
X130781033Y-93479815D01*
X130735278Y-93427011D01*
X130725334Y-93357853D01*
X130731030Y-93334546D01*
X130785367Y-93179257D01*
X130785368Y-93179255D01*
X130785369Y-93179249D01*
X130805565Y-93000003D01*
X130805565Y-92999996D01*
X130785369Y-92820750D01*
X130785368Y-92820745D01*
X130725788Y-92650476D01*
X130629815Y-92497737D01*
X130502262Y-92370184D01*
X130349523Y-92274211D01*
X130179254Y-92214631D01*
X130179249Y-92214630D01*
X130000004Y-92194435D01*
X129999996Y-92194435D01*
X129820750Y-92214630D01*
X129820745Y-92214631D01*
X129650476Y-92274211D01*
X129497737Y-92370184D01*
X129370184Y-92497737D01*
X129274211Y-92650476D01*
X129214631Y-92820745D01*
X129214630Y-92820750D01*
X129194435Y-92999996D01*
X129194435Y-93000003D01*
X129214630Y-93179249D01*
X129214632Y-93179257D01*
X129268970Y-93334546D01*
X129272531Y-93404324D01*
X129237802Y-93464952D01*
X129175809Y-93497179D01*
X129151928Y-93499500D01*
X125848072Y-93499500D01*
X125781033Y-93479815D01*
X125735278Y-93427011D01*
X125725334Y-93357853D01*
X125731030Y-93334546D01*
X125785367Y-93179257D01*
X125785368Y-93179255D01*
X125785369Y-93179249D01*
X125805565Y-93000003D01*
X125805565Y-92999996D01*
X125785369Y-92820750D01*
X125785368Y-92820745D01*
X125725788Y-92650476D01*
X125629815Y-92497737D01*
X125502262Y-92370184D01*
X125349523Y-92274211D01*
X125179254Y-92214631D01*
X125179249Y-92214630D01*
X125000004Y-92194435D01*
X124999996Y-92194435D01*
X124820750Y-92214630D01*
X124820745Y-92214631D01*
X124650476Y-92274211D01*
X124497737Y-92370184D01*
X124370184Y-92497737D01*
X124274211Y-92650476D01*
X124214631Y-92820745D01*
X124214630Y-92820750D01*
X124194435Y-92999996D01*
X124194435Y-93000003D01*
X124214630Y-93179249D01*
X124214632Y-93179257D01*
X124268970Y-93334546D01*
X124272531Y-93404324D01*
X124237802Y-93464952D01*
X124175809Y-93497179D01*
X124151928Y-93499500D01*
X120848072Y-93499500D01*
X120781033Y-93479815D01*
X120735278Y-93427011D01*
X120725334Y-93357853D01*
X120731030Y-93334546D01*
X120785367Y-93179257D01*
X120785368Y-93179255D01*
X120785369Y-93179249D01*
X120805565Y-93000003D01*
X120805565Y-92999996D01*
X120785369Y-92820750D01*
X120785368Y-92820745D01*
X120725788Y-92650476D01*
X120629815Y-92497737D01*
X120502262Y-92370184D01*
X120349523Y-92274211D01*
X120179254Y-92214631D01*
X120179249Y-92214630D01*
X120000004Y-92194435D01*
X119999996Y-92194435D01*
X119820750Y-92214630D01*
X119820745Y-92214631D01*
X119650476Y-92274211D01*
X119497737Y-92370184D01*
X119370184Y-92497737D01*
X119274211Y-92650476D01*
X119214631Y-92820745D01*
X119214630Y-92820750D01*
X119194435Y-92999996D01*
X119194435Y-93000003D01*
X119214630Y-93179249D01*
X119214632Y-93179257D01*
X119268970Y-93334546D01*
X119272531Y-93404324D01*
X119237802Y-93464952D01*
X119175809Y-93497179D01*
X119151928Y-93499500D01*
X115848072Y-93499500D01*
X115781033Y-93479815D01*
X115735278Y-93427011D01*
X115725334Y-93357853D01*
X115731030Y-93334546D01*
X115785367Y-93179257D01*
X115785368Y-93179255D01*
X115785369Y-93179249D01*
X115805565Y-93000003D01*
X115805565Y-92999996D01*
X115785369Y-92820750D01*
X115785368Y-92820745D01*
X115725788Y-92650476D01*
X115629815Y-92497737D01*
X115502262Y-92370184D01*
X115349523Y-92274211D01*
X115179254Y-92214631D01*
X115179249Y-92214630D01*
X115000004Y-92194435D01*
X114999996Y-92194435D01*
X114820750Y-92214630D01*
X114820745Y-92214631D01*
X114650476Y-92274211D01*
X114497737Y-92370184D01*
X114370184Y-92497737D01*
X114274211Y-92650476D01*
X114214631Y-92820745D01*
X114214630Y-92820750D01*
X114194435Y-92999996D01*
X114194435Y-93000003D01*
X114214630Y-93179249D01*
X114214632Y-93179257D01*
X114268970Y-93334546D01*
X114272531Y-93404324D01*
X114237802Y-93464952D01*
X114175809Y-93497179D01*
X114151928Y-93499500D01*
X112004428Y-93499500D01*
X111995582Y-93499184D01*
X111967549Y-93497179D01*
X111795442Y-93484869D01*
X111777931Y-93482351D01*
X111586212Y-93440646D01*
X111569236Y-93435662D01*
X111385390Y-93367090D01*
X111369298Y-93359740D01*
X111197095Y-93265711D01*
X111182210Y-93256146D01*
X111079496Y-93179255D01*
X111025132Y-93138558D01*
X111011762Y-93126972D01*
X110873027Y-92988237D01*
X110861441Y-92974867D01*
X110743849Y-92817784D01*
X110734288Y-92802904D01*
X110640259Y-92630701D01*
X110632909Y-92614609D01*
X110589318Y-92497738D01*
X110564334Y-92430755D01*
X110559355Y-92413797D01*
X110517647Y-92222063D01*
X110515130Y-92204556D01*
X110514406Y-92194435D01*
X110500816Y-92004418D01*
X110500500Y-91995572D01*
X110500500Y-90848071D01*
X110520185Y-90781032D01*
X110572989Y-90735277D01*
X110642147Y-90725333D01*
X110665455Y-90731030D01*
X110820737Y-90785366D01*
X110820743Y-90785367D01*
X110820745Y-90785368D01*
X110820746Y-90785368D01*
X110820750Y-90785369D01*
X110999996Y-90805565D01*
X111000000Y-90805565D01*
X111000004Y-90805565D01*
X111179249Y-90785369D01*
X111179252Y-90785368D01*
X111179255Y-90785368D01*
X111349522Y-90725789D01*
X111502262Y-90629816D01*
X111629816Y-90502262D01*
X111725789Y-90349522D01*
X111785368Y-90179255D01*
X111803956Y-90014280D01*
X111805565Y-90000003D01*
X111805565Y-89999996D01*
X111785369Y-89820750D01*
X111785368Y-89820745D01*
X111747944Y-89713793D01*
X111725789Y-89650478D01*
X111629816Y-89497738D01*
X111502262Y-89370184D01*
X111469164Y-89349387D01*
X111349523Y-89274211D01*
X111179254Y-89214631D01*
X111179249Y-89214630D01*
X111000004Y-89194435D01*
X110999996Y-89194435D01*
X110820750Y-89214630D01*
X110820742Y-89214632D01*
X110665454Y-89268970D01*
X110595676Y-89272531D01*
X110535048Y-89237802D01*
X110502821Y-89175809D01*
X110500500Y-89151928D01*
X110500500Y-89086610D01*
X112174500Y-89086610D01*
X112196543Y-89225789D01*
X112201598Y-89257701D01*
X112238146Y-89370184D01*
X112255128Y-89422447D01*
X112333768Y-89576788D01*
X112375426Y-89634125D01*
X112398906Y-89699932D01*
X112383081Y-89767986D01*
X112368822Y-89788212D01*
X112344437Y-89816354D01*
X112344432Y-89816361D01*
X112284663Y-89947233D01*
X112284662Y-89947237D01*
X112264977Y-90014276D01*
X112264976Y-90014280D01*
X112244500Y-90156696D01*
X112244500Y-90876000D01*
X112244501Y-90876009D01*
X112256052Y-90983450D01*
X112256054Y-90983462D01*
X112267260Y-91034972D01*
X112301383Y-91137497D01*
X112301386Y-91137503D01*
X112379171Y-91258537D01*
X112379179Y-91258548D01*
X112424923Y-91311340D01*
X112424926Y-91311343D01*
X112424930Y-91311347D01*
X112533664Y-91405567D01*
X112533667Y-91405568D01*
X112533668Y-91405569D01*
X112627925Y-91448616D01*
X112664541Y-91465338D01*
X112731580Y-91485023D01*
X112731584Y-91485024D01*
X112874000Y-91505500D01*
X116124652Y-91505500D01*
X116191691Y-91525185D01*
X116237446Y-91577989D01*
X116247390Y-91647147D01*
X116239214Y-91676948D01*
X116205262Y-91758919D01*
X116205261Y-91758923D01*
X116205260Y-91758926D01*
X116205259Y-91758926D01*
X116173500Y-91918592D01*
X116173500Y-92081407D01*
X116205259Y-92241073D01*
X116205262Y-92241082D01*
X116267562Y-92391490D01*
X116267563Y-92391492D01*
X116358015Y-92526862D01*
X116358018Y-92526866D01*
X116473133Y-92641981D01*
X116473137Y-92641984D01*
X116608505Y-92732435D01*
X116608506Y-92732435D01*
X116608507Y-92732436D01*
X116608509Y-92732437D01*
X116708781Y-92773970D01*
X116758919Y-92794738D01*
X116758921Y-92794738D01*
X116758926Y-92794740D01*
X116918592Y-92826499D01*
X116918595Y-92826500D01*
X116918597Y-92826500D01*
X117081405Y-92826500D01*
X117081406Y-92826499D01*
X117134629Y-92815912D01*
X117241073Y-92794740D01*
X117241076Y-92794738D01*
X117241081Y-92794738D01*
X117391495Y-92732435D01*
X117526863Y-92641984D01*
X117641984Y-92526863D01*
X117732435Y-92391495D01*
X117794738Y-92241081D01*
X117800000Y-92214631D01*
X117826499Y-92081407D01*
X145173500Y-92081407D01*
X145205259Y-92241073D01*
X145205262Y-92241082D01*
X145267562Y-92391490D01*
X145267563Y-92391492D01*
X145358015Y-92526862D01*
X145358018Y-92526866D01*
X145473133Y-92641981D01*
X145473137Y-92641984D01*
X145608505Y-92732435D01*
X145608506Y-92732435D01*
X145608507Y-92732436D01*
X145608509Y-92732437D01*
X145708781Y-92773970D01*
X145758919Y-92794738D01*
X145758921Y-92794738D01*
X145758926Y-92794740D01*
X145918592Y-92826499D01*
X145918595Y-92826500D01*
X145918597Y-92826500D01*
X146081405Y-92826500D01*
X146081406Y-92826499D01*
X146134629Y-92815912D01*
X146241073Y-92794740D01*
X146241076Y-92794738D01*
X146241081Y-92794738D01*
X146391495Y-92732435D01*
X146526863Y-92641984D01*
X146641984Y-92526863D01*
X146732435Y-92391495D01*
X146794738Y-92241081D01*
X146800000Y-92214631D01*
X146826499Y-92081407D01*
X146826500Y-92081405D01*
X146826500Y-91918594D01*
X146826499Y-91918592D01*
X146794740Y-91758926D01*
X146794737Y-91758917D01*
X146732437Y-91608509D01*
X146732436Y-91608507D01*
X146712044Y-91577989D01*
X146641984Y-91473137D01*
X146641981Y-91473133D01*
X146526866Y-91358018D01*
X146526862Y-91358015D01*
X146391492Y-91267563D01*
X146391490Y-91267562D01*
X146241082Y-91205262D01*
X146241073Y-91205259D01*
X146081406Y-91173500D01*
X146081403Y-91173500D01*
X145918597Y-91173500D01*
X145918594Y-91173500D01*
X145758926Y-91205259D01*
X145758917Y-91205262D01*
X145608509Y-91267562D01*
X145608507Y-91267563D01*
X145473137Y-91358015D01*
X145473133Y-91358018D01*
X145358018Y-91473133D01*
X145358015Y-91473137D01*
X145267563Y-91608507D01*
X145267562Y-91608509D01*
X145205262Y-91758917D01*
X145205259Y-91758926D01*
X145173500Y-91918592D01*
X145173500Y-92081407D01*
X117826499Y-92081407D01*
X117826500Y-92081405D01*
X117826500Y-91918594D01*
X117826499Y-91918592D01*
X117794740Y-91758926D01*
X117794738Y-91758923D01*
X117794738Y-91758919D01*
X117760785Y-91676950D01*
X117753318Y-91607482D01*
X117784594Y-91545003D01*
X117844683Y-91509351D01*
X117875348Y-91505500D01*
X121375990Y-91505500D01*
X121376000Y-91505500D01*
X121483456Y-91493947D01*
X121534967Y-91482741D01*
X121569197Y-91471347D01*
X121637497Y-91448616D01*
X121637501Y-91448613D01*
X121637504Y-91448613D01*
X121758543Y-91370825D01*
X121811347Y-91325070D01*
X121905567Y-91216336D01*
X121965338Y-91085459D01*
X121985023Y-91018420D01*
X121985024Y-91018416D01*
X122005500Y-90876000D01*
X122005500Y-89625003D01*
X134569435Y-89625003D01*
X134589630Y-89804249D01*
X134589631Y-89804254D01*
X134649211Y-89974523D01*
X134745184Y-90127262D01*
X134872738Y-90254816D01*
X134963080Y-90311582D01*
X135023461Y-90349522D01*
X135025478Y-90350789D01*
X135195745Y-90410368D01*
X135195750Y-90410369D01*
X135374996Y-90430565D01*
X135375000Y-90430565D01*
X135375004Y-90430565D01*
X135554249Y-90410369D01*
X135554252Y-90410368D01*
X135554255Y-90410368D01*
X135724522Y-90350789D01*
X135877262Y-90254816D01*
X136004816Y-90127262D01*
X136100789Y-89974522D01*
X136160368Y-89804255D01*
X136162176Y-89788212D01*
X136180565Y-89625003D01*
X136180565Y-89624996D01*
X136163055Y-89469588D01*
X136175110Y-89400766D01*
X136222459Y-89349387D01*
X136290069Y-89331763D01*
X136313872Y-89334815D01*
X136319552Y-89336111D01*
X136319554Y-89336112D01*
X136319555Y-89336112D01*
X136319559Y-89336113D01*
X136498805Y-89356309D01*
X136498809Y-89356309D01*
X136498813Y-89356309D01*
X136678058Y-89336113D01*
X136678061Y-89336112D01*
X136678064Y-89336112D01*
X136848331Y-89276533D01*
X137001071Y-89180560D01*
X137128625Y-89053006D01*
X137224598Y-88900266D01*
X137284177Y-88729999D01*
X137286864Y-88706155D01*
X137304374Y-88550747D01*
X137304374Y-88550740D01*
X137284178Y-88371494D01*
X137284177Y-88371489D01*
X137266421Y-88320745D01*
X137224598Y-88201222D01*
X137128625Y-88048482D01*
X137001071Y-87920928D01*
X136967260Y-87899683D01*
X136848332Y-87824955D01*
X136678063Y-87765375D01*
X136678058Y-87765374D01*
X136498813Y-87745179D01*
X136498805Y-87745179D01*
X136319559Y-87765374D01*
X136319554Y-87765375D01*
X136149285Y-87824955D01*
X135996546Y-87920928D01*
X135868993Y-88048481D01*
X135773020Y-88201220D01*
X135713440Y-88371489D01*
X135713439Y-88371494D01*
X135693244Y-88550740D01*
X135693244Y-88550748D01*
X135710753Y-88706155D01*
X135698698Y-88774977D01*
X135651349Y-88826356D01*
X135583738Y-88843980D01*
X135559944Y-88840930D01*
X135554251Y-88839630D01*
X135375004Y-88819435D01*
X135374996Y-88819435D01*
X135195750Y-88839630D01*
X135195745Y-88839631D01*
X135025476Y-88899211D01*
X134872737Y-88995184D01*
X134745184Y-89122737D01*
X134649211Y-89275476D01*
X134589631Y-89445745D01*
X134589630Y-89445750D01*
X134569435Y-89624996D01*
X134569435Y-89625003D01*
X122005500Y-89625003D01*
X122005500Y-88500003D01*
X122669435Y-88500003D01*
X122689630Y-88679249D01*
X122689631Y-88679254D01*
X122749211Y-88849523D01*
X122781096Y-88900267D01*
X122845184Y-89002262D01*
X122972738Y-89129816D01*
X123007929Y-89151928D01*
X123107721Y-89214632D01*
X123125478Y-89225789D01*
X123267475Y-89275476D01*
X123295745Y-89285368D01*
X123295750Y-89285369D01*
X123474996Y-89305565D01*
X123475000Y-89305565D01*
X123475004Y-89305565D01*
X123654249Y-89285369D01*
X123654252Y-89285368D01*
X123654255Y-89285368D01*
X123824522Y-89225789D01*
X123977262Y-89129816D01*
X124104816Y-89002262D01*
X124200789Y-88849522D01*
X124260368Y-88679255D01*
X124274847Y-88550748D01*
X124280565Y-88500003D01*
X124280565Y-88499996D01*
X124260369Y-88320750D01*
X124260368Y-88320745D01*
X124218544Y-88201220D01*
X124200789Y-88150478D01*
X124104816Y-87997738D01*
X123977262Y-87870184D01*
X123824523Y-87774211D01*
X123654254Y-87714631D01*
X123654249Y-87714630D01*
X123475004Y-87694435D01*
X123474996Y-87694435D01*
X123295750Y-87714630D01*
X123295745Y-87714631D01*
X123125476Y-87774211D01*
X122972737Y-87870184D01*
X122845184Y-87997737D01*
X122749211Y-88150476D01*
X122689631Y-88320745D01*
X122689630Y-88320750D01*
X122669435Y-88499996D01*
X122669435Y-88500003D01*
X122005500Y-88500003D01*
X122005500Y-87124000D01*
X121993947Y-87016544D01*
X121982741Y-86965033D01*
X121982637Y-86964722D01*
X121948616Y-86862502D01*
X121948613Y-86862496D01*
X121870825Y-86741457D01*
X121839556Y-86705371D01*
X121810532Y-86641816D01*
X121820476Y-86572658D01*
X121845588Y-86536489D01*
X121879816Y-86502262D01*
X121975789Y-86349522D01*
X122035368Y-86179255D01*
X122035369Y-86179249D01*
X122055565Y-86000003D01*
X122055565Y-85999996D01*
X122035369Y-85820750D01*
X122035368Y-85820745D01*
X122034637Y-85818656D01*
X121975789Y-85650478D01*
X121879816Y-85497738D01*
X121752262Y-85370184D01*
X121749499Y-85368448D01*
X121599523Y-85274211D01*
X121429254Y-85214631D01*
X121429249Y-85214630D01*
X121250004Y-85194435D01*
X121249996Y-85194435D01*
X121070750Y-85214630D01*
X121070745Y-85214631D01*
X120900476Y-85274211D01*
X120747737Y-85370184D01*
X120620184Y-85497737D01*
X120524211Y-85650476D01*
X120464631Y-85820745D01*
X120464630Y-85820750D01*
X120444435Y-85999996D01*
X120444435Y-86000003D01*
X120464630Y-86179249D01*
X120464633Y-86179262D01*
X120517220Y-86329545D01*
X120520782Y-86399324D01*
X120486054Y-86459951D01*
X120424060Y-86492179D01*
X120400179Y-86494500D01*
X118051360Y-86494500D01*
X117997311Y-86497397D01*
X117997310Y-86497397D01*
X117970977Y-86500229D01*
X117970950Y-86500232D01*
X117917554Y-86508885D01*
X117917552Y-86508885D01*
X117782747Y-86559166D01*
X117721422Y-86592651D01*
X117606240Y-86678876D01*
X117606228Y-86678886D01*
X116826935Y-87458181D01*
X116765612Y-87491666D01*
X116739254Y-87494500D01*
X115866230Y-87494500D01*
X115799191Y-87474815D01*
X115753436Y-87422011D01*
X115743492Y-87352853D01*
X115772517Y-87289297D01*
X115778549Y-87282819D01*
X116731823Y-86329545D01*
X118311364Y-84750003D01*
X135194435Y-84750003D01*
X135214630Y-84929249D01*
X135214631Y-84929254D01*
X135274211Y-85099523D01*
X135322145Y-85175809D01*
X135370184Y-85252262D01*
X135497738Y-85379816D01*
X135650478Y-85475789D01*
X135820745Y-85535368D01*
X135820750Y-85535369D01*
X135999996Y-85555565D01*
X136000000Y-85555565D01*
X136000004Y-85555565D01*
X136179249Y-85535369D01*
X136179252Y-85535368D01*
X136179255Y-85535368D01*
X136280322Y-85500003D01*
X139194435Y-85500003D01*
X139214630Y-85679249D01*
X139214631Y-85679254D01*
X139274211Y-85849523D01*
X139331836Y-85941232D01*
X139370184Y-86002262D01*
X139497738Y-86129816D01*
X139576410Y-86179249D01*
X139629597Y-86212669D01*
X139650478Y-86225789D01*
X139698693Y-86242660D01*
X139820745Y-86285368D01*
X139820750Y-86285369D01*
X139999996Y-86305565D01*
X140000000Y-86305565D01*
X140000004Y-86305565D01*
X140179249Y-86285369D01*
X140179252Y-86285368D01*
X140179255Y-86285368D01*
X140349522Y-86225789D01*
X140502262Y-86129816D01*
X140629816Y-86002262D01*
X140725789Y-85849522D01*
X140785368Y-85679255D01*
X140786486Y-85669331D01*
X140805565Y-85500003D01*
X140805565Y-85499996D01*
X140794298Y-85400001D01*
X143074500Y-85400001D01*
X143074501Y-85400019D01*
X143085000Y-85502796D01*
X143085001Y-85502799D01*
X143140185Y-85669331D01*
X143140187Y-85669336D01*
X143146305Y-85679255D01*
X143232288Y-85818656D01*
X143356344Y-85942712D01*
X143505666Y-86034814D01*
X143672203Y-86089999D01*
X143774991Y-86100500D01*
X145125008Y-86100499D01*
X145227797Y-86089999D01*
X145394334Y-86034814D01*
X145543656Y-85942712D01*
X145667712Y-85818656D01*
X145759814Y-85669334D01*
X145814999Y-85502797D01*
X145825500Y-85400009D01*
X145825499Y-84599992D01*
X145822511Y-84570745D01*
X145814999Y-84497203D01*
X145814998Y-84497200D01*
X145792481Y-84429249D01*
X145759814Y-84330666D01*
X145667712Y-84181344D01*
X145543656Y-84057288D01*
X145543652Y-84057285D01*
X145479456Y-84017688D01*
X145432731Y-83965740D01*
X145421510Y-83896777D01*
X145449353Y-83832695D01*
X145456850Y-83824491D01*
X145564414Y-83716928D01*
X145666232Y-83576788D01*
X145744873Y-83422445D01*
X145798402Y-83257701D01*
X145825500Y-83086611D01*
X145825500Y-82913389D01*
X145798402Y-82742299D01*
X145744873Y-82577555D01*
X145666232Y-82423212D01*
X145564414Y-82283072D01*
X145441928Y-82160586D01*
X145358975Y-82100317D01*
X145316311Y-82044988D01*
X145310332Y-81975374D01*
X145342938Y-81913579D01*
X145358976Y-81899682D01*
X145441928Y-81839414D01*
X145564414Y-81716928D01*
X145666232Y-81576788D01*
X145744873Y-81422445D01*
X145798402Y-81257701D01*
X145825500Y-81086611D01*
X145825500Y-80913389D01*
X145798402Y-80742299D01*
X145744873Y-80577555D01*
X145666232Y-80423212D01*
X145564414Y-80283072D01*
X145441928Y-80160586D01*
X145358550Y-80100008D01*
X145315885Y-80044677D01*
X145309906Y-79975064D01*
X145342512Y-79913269D01*
X145358552Y-79899371D01*
X145441598Y-79839036D01*
X145564032Y-79716602D01*
X145665804Y-79576524D01*
X145744408Y-79422255D01*
X145797914Y-79257584D01*
X145799115Y-79250000D01*
X144730330Y-79250000D01*
X144750075Y-79230255D01*
X144799444Y-79144745D01*
X144825000Y-79049370D01*
X144825000Y-78950630D01*
X144799444Y-78855255D01*
X144750075Y-78769745D01*
X144730330Y-78750000D01*
X145799115Y-78750000D01*
X145799115Y-78749999D01*
X145797914Y-78742415D01*
X145744408Y-78577744D01*
X145665804Y-78423475D01*
X145564032Y-78283397D01*
X145441602Y-78160967D01*
X145301524Y-78059195D01*
X145147257Y-77980591D01*
X144982584Y-77927085D01*
X144811571Y-77900000D01*
X144700000Y-77900000D01*
X144700000Y-78719670D01*
X144680255Y-78699925D01*
X144594745Y-78650556D01*
X144499370Y-78625000D01*
X144400630Y-78625000D01*
X144305255Y-78650556D01*
X144219745Y-78699925D01*
X144200000Y-78719670D01*
X144200000Y-77900000D01*
X144088429Y-77900000D01*
X143917415Y-77927085D01*
X143752742Y-77980591D01*
X143598475Y-78059195D01*
X143458397Y-78160967D01*
X143335967Y-78283397D01*
X143234195Y-78423475D01*
X143155591Y-78577744D01*
X143102085Y-78742415D01*
X143100884Y-78749999D01*
X143100885Y-78750000D01*
X144169670Y-78750000D01*
X144149925Y-78769745D01*
X144100556Y-78855255D01*
X144075000Y-78950630D01*
X144075000Y-79049370D01*
X144100556Y-79144745D01*
X144149925Y-79230255D01*
X144169670Y-79250000D01*
X143100885Y-79250000D01*
X143102085Y-79257584D01*
X143155591Y-79422255D01*
X143234195Y-79576524D01*
X143335967Y-79716602D01*
X143458401Y-79839036D01*
X143541447Y-79899371D01*
X143584114Y-79954701D01*
X143590093Y-80024314D01*
X143557488Y-80086109D01*
X143541450Y-80100007D01*
X143458072Y-80160585D01*
X143335588Y-80283069D01*
X143335588Y-80283070D01*
X143335586Y-80283072D01*
X143305121Y-80325003D01*
X143233768Y-80423211D01*
X143155128Y-80577552D01*
X143101597Y-80742302D01*
X143074500Y-80913389D01*
X143074500Y-81086610D01*
X143094776Y-81214632D01*
X143101598Y-81257701D01*
X143155127Y-81422445D01*
X143233768Y-81576788D01*
X143335586Y-81716928D01*
X143458072Y-81839414D01*
X143471986Y-81849523D01*
X143541023Y-81899683D01*
X143583689Y-81955013D01*
X143589667Y-82024626D01*
X143557061Y-82086421D01*
X143541023Y-82100317D01*
X143458078Y-82160581D01*
X143458069Y-82160588D01*
X143335588Y-82283069D01*
X143335588Y-82283070D01*
X143335586Y-82283072D01*
X143319244Y-82305565D01*
X143233768Y-82423211D01*
X143155128Y-82577552D01*
X143155127Y-82577554D01*
X143155127Y-82577555D01*
X143128362Y-82659927D01*
X143101597Y-82742302D01*
X143074500Y-82913389D01*
X143074500Y-83086610D01*
X143100378Y-83250003D01*
X143101598Y-83257701D01*
X143155127Y-83422445D01*
X143233768Y-83576788D01*
X143335586Y-83716928D01*
X143335588Y-83716930D01*
X143443127Y-83824469D01*
X143476612Y-83885792D01*
X143471628Y-83955484D01*
X143429756Y-84011417D01*
X143420544Y-84017688D01*
X143356344Y-84057287D01*
X143232289Y-84181342D01*
X143140187Y-84330663D01*
X143140185Y-84330668D01*
X143112349Y-84414670D01*
X143085001Y-84497203D01*
X143085001Y-84497204D01*
X143085000Y-84497204D01*
X143074500Y-84599983D01*
X143074500Y-85400001D01*
X140794298Y-85400001D01*
X140785369Y-85320750D01*
X140785368Y-85320745D01*
X140763308Y-85257701D01*
X140725789Y-85150478D01*
X140629816Y-84997738D01*
X140502262Y-84870184D01*
X140399422Y-84805565D01*
X140349523Y-84774211D01*
X140179254Y-84714631D01*
X140179249Y-84714630D01*
X140000004Y-84694435D01*
X139999996Y-84694435D01*
X139820750Y-84714630D01*
X139820745Y-84714631D01*
X139650476Y-84774211D01*
X139497737Y-84870184D01*
X139370184Y-84997737D01*
X139274211Y-85150476D01*
X139214631Y-85320745D01*
X139214630Y-85320750D01*
X139194435Y-85499996D01*
X139194435Y-85500003D01*
X136280322Y-85500003D01*
X136349522Y-85475789D01*
X136502262Y-85379816D01*
X136629816Y-85252262D01*
X136725789Y-85099522D01*
X136785368Y-84929255D01*
X136787156Y-84913389D01*
X136805565Y-84750003D01*
X136805565Y-84749996D01*
X136785369Y-84570750D01*
X136785368Y-84570745D01*
X136759635Y-84497204D01*
X136725789Y-84400478D01*
X136631239Y-84250003D01*
X140944435Y-84250003D01*
X140964630Y-84429249D01*
X140964631Y-84429254D01*
X141024211Y-84599523D01*
X141083849Y-84694435D01*
X141120184Y-84752262D01*
X141247738Y-84879816D01*
X141400478Y-84975789D01*
X141463202Y-84997737D01*
X141570745Y-85035368D01*
X141570750Y-85035369D01*
X141749996Y-85055565D01*
X141750000Y-85055565D01*
X141750004Y-85055565D01*
X141929249Y-85035369D01*
X141929252Y-85035368D01*
X141929255Y-85035368D01*
X142099522Y-84975789D01*
X142252262Y-84879816D01*
X142379816Y-84752262D01*
X142475789Y-84599522D01*
X142535368Y-84429255D01*
X142536049Y-84423211D01*
X142555565Y-84250003D01*
X142555565Y-84249996D01*
X142535369Y-84070750D01*
X142535368Y-84070745D01*
X142519085Y-84024211D01*
X142475789Y-83900478D01*
X142475289Y-83899683D01*
X142428029Y-83824468D01*
X142379816Y-83747738D01*
X142252262Y-83620184D01*
X142183198Y-83576788D01*
X142099523Y-83524211D01*
X141929254Y-83464631D01*
X141929249Y-83464630D01*
X141750004Y-83444435D01*
X141749996Y-83444435D01*
X141570750Y-83464630D01*
X141570745Y-83464631D01*
X141400476Y-83524211D01*
X141247737Y-83620184D01*
X141120184Y-83747737D01*
X141024211Y-83900476D01*
X140964631Y-84070745D01*
X140964630Y-84070750D01*
X140944435Y-84249996D01*
X140944435Y-84250003D01*
X136631239Y-84250003D01*
X136629816Y-84247738D01*
X136502262Y-84120184D01*
X136448529Y-84086421D01*
X136349523Y-84024211D01*
X136179254Y-83964631D01*
X136179249Y-83964630D01*
X136000004Y-83944435D01*
X135999996Y-83944435D01*
X135820750Y-83964630D01*
X135820745Y-83964631D01*
X135650476Y-84024211D01*
X135497737Y-84120184D01*
X135370184Y-84247737D01*
X135274211Y-84400476D01*
X135214631Y-84570745D01*
X135214630Y-84570750D01*
X135194435Y-84749996D01*
X135194435Y-84750003D01*
X118311364Y-84750003D01*
X119811363Y-83250003D01*
X127694435Y-83250003D01*
X127714630Y-83429249D01*
X127714631Y-83429254D01*
X127774211Y-83599523D01*
X127847981Y-83716926D01*
X127870184Y-83752262D01*
X127997738Y-83879816D01*
X128076410Y-83929249D01*
X128132721Y-83964632D01*
X128150478Y-83975789D01*
X128288860Y-84024211D01*
X128320745Y-84035368D01*
X128320750Y-84035369D01*
X128499996Y-84055565D01*
X128500000Y-84055565D01*
X128500004Y-84055565D01*
X128679249Y-84035369D01*
X128679252Y-84035368D01*
X128679255Y-84035368D01*
X128849522Y-83975789D01*
X129002262Y-83879816D01*
X129129816Y-83752262D01*
X129131235Y-83750003D01*
X131924435Y-83750003D01*
X131944630Y-83929249D01*
X131944631Y-83929254D01*
X132004211Y-84099523D01*
X132055622Y-84181342D01*
X132100184Y-84252262D01*
X132227738Y-84379816D01*
X132380478Y-84475789D01*
X132550745Y-84535368D01*
X132550750Y-84535369D01*
X132729996Y-84555565D01*
X132730000Y-84555565D01*
X132730004Y-84555565D01*
X132909249Y-84535369D01*
X132909252Y-84535368D01*
X132909255Y-84535368D01*
X133079522Y-84475789D01*
X133232262Y-84379816D01*
X133359816Y-84252262D01*
X133455789Y-84099522D01*
X133515368Y-83929255D01*
X133515369Y-83929249D01*
X133535565Y-83750003D01*
X133535565Y-83749996D01*
X133515369Y-83570750D01*
X133515368Y-83570745D01*
X133471170Y-83444435D01*
X133455789Y-83400478D01*
X133359816Y-83247738D01*
X133232262Y-83120184D01*
X133178831Y-83086611D01*
X133079523Y-83024211D01*
X132909254Y-82964631D01*
X132909249Y-82964630D01*
X132730004Y-82944435D01*
X132729996Y-82944435D01*
X132550750Y-82964630D01*
X132550745Y-82964631D01*
X132380476Y-83024211D01*
X132227737Y-83120184D01*
X132100184Y-83247737D01*
X132004211Y-83400476D01*
X131944631Y-83570745D01*
X131944630Y-83570750D01*
X131924435Y-83749996D01*
X131924435Y-83750003D01*
X129131235Y-83750003D01*
X129225789Y-83599522D01*
X129285368Y-83429255D01*
X129286135Y-83422447D01*
X129305565Y-83250003D01*
X129305565Y-83249996D01*
X129285369Y-83070750D01*
X129285368Y-83070745D01*
X129234290Y-82924772D01*
X129225789Y-82900478D01*
X129192859Y-82848071D01*
X129166151Y-82805565D01*
X129129816Y-82747738D01*
X129002262Y-82620184D01*
X128849523Y-82524211D01*
X128679254Y-82464631D01*
X128679249Y-82464630D01*
X128500004Y-82444435D01*
X128499996Y-82444435D01*
X128320750Y-82464630D01*
X128320745Y-82464631D01*
X128150476Y-82524211D01*
X127997737Y-82620184D01*
X127870184Y-82747737D01*
X127774211Y-82900476D01*
X127714631Y-83070745D01*
X127714630Y-83070750D01*
X127694435Y-83249996D01*
X127694435Y-83250003D01*
X119811363Y-83250003D01*
X121561362Y-81500003D01*
X131944435Y-81500003D01*
X131964630Y-81679249D01*
X131964631Y-81679254D01*
X132024211Y-81849523D01*
X132081836Y-81941232D01*
X132120184Y-82002262D01*
X132247738Y-82129816D01*
X132400478Y-82225789D01*
X132564175Y-82283069D01*
X132570745Y-82285368D01*
X132570750Y-82285369D01*
X132749996Y-82305565D01*
X132750000Y-82305565D01*
X132750004Y-82305565D01*
X132929249Y-82285369D01*
X132929252Y-82285368D01*
X132929255Y-82285368D01*
X133099522Y-82225789D01*
X133252262Y-82129816D01*
X133379816Y-82002262D01*
X133475789Y-81849522D01*
X133535368Y-81679255D01*
X133535369Y-81679249D01*
X133555565Y-81500003D01*
X133555565Y-81499996D01*
X133535369Y-81320750D01*
X133535368Y-81320745D01*
X133513308Y-81257701D01*
X133475789Y-81150478D01*
X133381239Y-81000003D01*
X136294435Y-81000003D01*
X136314630Y-81179249D01*
X136314631Y-81179254D01*
X136374211Y-81349523D01*
X136420033Y-81422447D01*
X136470184Y-81502262D01*
X136597738Y-81629816D01*
X136676410Y-81679249D01*
X136736375Y-81716928D01*
X136750478Y-81725789D01*
X136920745Y-81785368D01*
X136920750Y-81785369D01*
X137099996Y-81805565D01*
X137100000Y-81805565D01*
X137100004Y-81805565D01*
X137279249Y-81785369D01*
X137279252Y-81785368D01*
X137279255Y-81785368D01*
X137449522Y-81725789D01*
X137602262Y-81629816D01*
X137729816Y-81502262D01*
X137825789Y-81349522D01*
X137885368Y-81179255D01*
X137885369Y-81179249D01*
X137905565Y-81000003D01*
X137905565Y-80999996D01*
X137885369Y-80820750D01*
X137885368Y-80820745D01*
X137869085Y-80774211D01*
X137825789Y-80650478D01*
X137729816Y-80497738D01*
X137602262Y-80370184D01*
X137530357Y-80325003D01*
X137449523Y-80274211D01*
X137357588Y-80242042D01*
X137300812Y-80201320D01*
X137275065Y-80136367D01*
X137288521Y-80067806D01*
X137336908Y-80017403D01*
X137357588Y-80007958D01*
X137449522Y-79975789D01*
X137602262Y-79879816D01*
X137729816Y-79752262D01*
X137731235Y-79750003D01*
X140944435Y-79750003D01*
X140964630Y-79929249D01*
X140964631Y-79929254D01*
X141024211Y-80099523D01*
X141083849Y-80194435D01*
X141120184Y-80252262D01*
X141247738Y-80379816D01*
X141400478Y-80475789D01*
X141570745Y-80535368D01*
X141570750Y-80535369D01*
X141749996Y-80555565D01*
X141750000Y-80555565D01*
X141750004Y-80555565D01*
X141929249Y-80535369D01*
X141929252Y-80535368D01*
X141929255Y-80535368D01*
X142099522Y-80475789D01*
X142252262Y-80379816D01*
X142379816Y-80252262D01*
X142475789Y-80099522D01*
X142535368Y-79929255D01*
X142535614Y-79927071D01*
X142555565Y-79750003D01*
X142555565Y-79749996D01*
X142535369Y-79570750D01*
X142535368Y-79570745D01*
X142490975Y-79443877D01*
X142475789Y-79400478D01*
X142379816Y-79247738D01*
X142252262Y-79120184D01*
X142198831Y-79086611D01*
X142099523Y-79024211D01*
X141929254Y-78964631D01*
X141929249Y-78964630D01*
X141750004Y-78944435D01*
X141749996Y-78944435D01*
X141570750Y-78964630D01*
X141570745Y-78964631D01*
X141400476Y-79024211D01*
X141247737Y-79120184D01*
X141120184Y-79247737D01*
X141024211Y-79400476D01*
X140964631Y-79570745D01*
X140964630Y-79570750D01*
X140944435Y-79749996D01*
X140944435Y-79750003D01*
X137731235Y-79750003D01*
X137825789Y-79599522D01*
X137885368Y-79429255D01*
X137886136Y-79422445D01*
X137905565Y-79250000D01*
X137905565Y-79249996D01*
X137885369Y-79070750D01*
X137885368Y-79070745D01*
X137832037Y-78918334D01*
X137825789Y-78900478D01*
X137812621Y-78879522D01*
X137786582Y-78838080D01*
X137729816Y-78747738D01*
X137602262Y-78620184D01*
X137569379Y-78599522D01*
X137449523Y-78524211D01*
X137380341Y-78500003D01*
X139194435Y-78500003D01*
X139214630Y-78679249D01*
X139214631Y-78679254D01*
X139274211Y-78849523D01*
X139346538Y-78964630D01*
X139370184Y-79002262D01*
X139497738Y-79129816D01*
X139545481Y-79159815D01*
X139632721Y-79214632D01*
X139650478Y-79225789D01*
X139788860Y-79274211D01*
X139820745Y-79285368D01*
X139820750Y-79285369D01*
X139999996Y-79305565D01*
X140000000Y-79305565D01*
X140000004Y-79305565D01*
X140179249Y-79285369D01*
X140179252Y-79285368D01*
X140179255Y-79285368D01*
X140349522Y-79225789D01*
X140502262Y-79129816D01*
X140629816Y-79002262D01*
X140725789Y-78849522D01*
X140785368Y-78679255D01*
X140790743Y-78631551D01*
X140805565Y-78500003D01*
X140805565Y-78499996D01*
X140785369Y-78320750D01*
X140785368Y-78320745D01*
X140736286Y-78180476D01*
X140725789Y-78150478D01*
X140703265Y-78114632D01*
X140685539Y-78086421D01*
X140629816Y-77997738D01*
X140502262Y-77870184D01*
X140349523Y-77774211D01*
X140179254Y-77714631D01*
X140179249Y-77714630D01*
X140000004Y-77694435D01*
X139999996Y-77694435D01*
X139820750Y-77714630D01*
X139820745Y-77714631D01*
X139650476Y-77774211D01*
X139497737Y-77870184D01*
X139370184Y-77997737D01*
X139274211Y-78150476D01*
X139214631Y-78320745D01*
X139214630Y-78320750D01*
X139194435Y-78499996D01*
X139194435Y-78500003D01*
X137380341Y-78500003D01*
X137279254Y-78464631D01*
X137279249Y-78464630D01*
X137100004Y-78444435D01*
X137099996Y-78444435D01*
X136920750Y-78464630D01*
X136920745Y-78464631D01*
X136750476Y-78524211D01*
X136597737Y-78620184D01*
X136470184Y-78747737D01*
X136374211Y-78900476D01*
X136314631Y-79070745D01*
X136314630Y-79070750D01*
X136294435Y-79249996D01*
X136294435Y-79250000D01*
X136314630Y-79429249D01*
X136314631Y-79429254D01*
X136374211Y-79599523D01*
X136428152Y-79685369D01*
X136470184Y-79752262D01*
X136597738Y-79879816D01*
X136750478Y-79975789D01*
X136750480Y-79975790D01*
X136842411Y-80007959D01*
X136899187Y-80048680D01*
X136924934Y-80113633D01*
X136911478Y-80182195D01*
X136863090Y-80232597D01*
X136842411Y-80242041D01*
X136750480Y-80274209D01*
X136597737Y-80370184D01*
X136470184Y-80497737D01*
X136374211Y-80650476D01*
X136314631Y-80820745D01*
X136314630Y-80820750D01*
X136294435Y-80999996D01*
X136294435Y-81000003D01*
X133381239Y-81000003D01*
X133379816Y-80997738D01*
X133252262Y-80870184D01*
X133219379Y-80849522D01*
X133099523Y-80774211D01*
X132929254Y-80714631D01*
X132929249Y-80714630D01*
X132750004Y-80694435D01*
X132749996Y-80694435D01*
X132570750Y-80714630D01*
X132570745Y-80714631D01*
X132400476Y-80774211D01*
X132247737Y-80870184D01*
X132120184Y-80997737D01*
X132024211Y-81150476D01*
X131964631Y-81320745D01*
X131964630Y-81320750D01*
X131944435Y-81499996D01*
X131944435Y-81500003D01*
X121561362Y-81500003D01*
X121574112Y-81487253D01*
X121590978Y-81473146D01*
X121605546Y-81463014D01*
X121687468Y-81386609D01*
X121695165Y-81380000D01*
X121747299Y-81338838D01*
X121751617Y-81335582D01*
X121791713Y-81306715D01*
X121814853Y-81290057D01*
X121823643Y-81283582D01*
X121823668Y-81283562D01*
X121823713Y-81283530D01*
X121824127Y-81283218D01*
X121833145Y-81276261D01*
X121911199Y-81214632D01*
X121915864Y-81210949D01*
X121915873Y-81210941D01*
X121915894Y-81210925D01*
X121931703Y-81197915D01*
X121932433Y-81197289D01*
X121948134Y-81183246D01*
X122048063Y-81090054D01*
X122053831Y-81084590D01*
X122054097Y-81084334D01*
X122096128Y-81038585D01*
X122096134Y-81038574D01*
X122098488Y-81035420D01*
X122110212Y-81021865D01*
X122129816Y-81002262D01*
X122225789Y-80849522D01*
X122285368Y-80679255D01*
X122285901Y-80674523D01*
X122305565Y-80500003D01*
X122305565Y-80499996D01*
X122285369Y-80320750D01*
X122285368Y-80320745D01*
X122260043Y-80248370D01*
X122225789Y-80150478D01*
X122216922Y-80136367D01*
X122159310Y-80044677D01*
X122129816Y-79997738D01*
X122002262Y-79870184D01*
X121969379Y-79849522D01*
X121849523Y-79774211D01*
X121679254Y-79714631D01*
X121679249Y-79714630D01*
X121500004Y-79694435D01*
X121499996Y-79694435D01*
X121320750Y-79714630D01*
X121320745Y-79714631D01*
X121150476Y-79774211D01*
X120997734Y-79870186D01*
X120945590Y-79922330D01*
X120935639Y-79931262D01*
X120909948Y-79951931D01*
X120816783Y-80051828D01*
X120803136Y-80067066D01*
X120802531Y-80067769D01*
X120789087Y-80084082D01*
X120723700Y-80166898D01*
X120716996Y-80175583D01*
X120716973Y-80175613D01*
X120716968Y-80175620D01*
X120716685Y-80175995D01*
X120716660Y-80176029D01*
X120709927Y-80185161D01*
X120664420Y-80248370D01*
X120661117Y-80252749D01*
X120635363Y-80285368D01*
X120620017Y-80304803D01*
X120613382Y-80312530D01*
X120536993Y-80394441D01*
X120503817Y-80433381D01*
X120503702Y-80433283D01*
X120495047Y-80443583D01*
X114751210Y-86187420D01*
X114689887Y-86220905D01*
X114620195Y-86215921D01*
X114612316Y-86212669D01*
X114599350Y-86206789D01*
X114562882Y-86181540D01*
X114541930Y-86160588D01*
X114541928Y-86160586D01*
X114458975Y-86100317D01*
X114416311Y-86044988D01*
X114410332Y-85975374D01*
X114442938Y-85913579D01*
X114458976Y-85899682D01*
X114541928Y-85839414D01*
X114664414Y-85716928D01*
X114766232Y-85576788D01*
X114844873Y-85422445D01*
X114898402Y-85257701D01*
X114925500Y-85086611D01*
X114925500Y-84924772D01*
X114945185Y-84857733D01*
X114997989Y-84811978D01*
X115035617Y-84801552D01*
X115179249Y-84785369D01*
X115179252Y-84785368D01*
X115179255Y-84785368D01*
X115349522Y-84725789D01*
X115502262Y-84629816D01*
X115629816Y-84502262D01*
X115725789Y-84349522D01*
X115785368Y-84179255D01*
X115785369Y-84179249D01*
X115805565Y-84000003D01*
X115805565Y-83999996D01*
X115785369Y-83820750D01*
X115785368Y-83820745D01*
X115759821Y-83747737D01*
X115725789Y-83650478D01*
X115629816Y-83497738D01*
X115502262Y-83370184D01*
X115349523Y-83274211D01*
X115179254Y-83214631D01*
X115179250Y-83214630D01*
X115035616Y-83198447D01*
X114971202Y-83171380D01*
X114931647Y-83113785D01*
X114925500Y-83075227D01*
X114925500Y-82924772D01*
X114945185Y-82857733D01*
X114997989Y-82811978D01*
X115035617Y-82801552D01*
X115179249Y-82785369D01*
X115179252Y-82785368D01*
X115179255Y-82785368D01*
X115349522Y-82725789D01*
X115502262Y-82629816D01*
X115629816Y-82502262D01*
X115725789Y-82349522D01*
X115785368Y-82179255D01*
X115785369Y-82179249D01*
X115805565Y-82000003D01*
X115805565Y-81999996D01*
X115785369Y-81820750D01*
X115785368Y-81820745D01*
X115752141Y-81725788D01*
X115725789Y-81650478D01*
X115629816Y-81497738D01*
X115502262Y-81370184D01*
X115452442Y-81338880D01*
X115349523Y-81274211D01*
X115179254Y-81214631D01*
X115179250Y-81214630D01*
X115035616Y-81198447D01*
X114971202Y-81171380D01*
X114931647Y-81113785D01*
X114925500Y-81075227D01*
X114925500Y-80924772D01*
X114945185Y-80857733D01*
X114997989Y-80811978D01*
X115035617Y-80801552D01*
X115179249Y-80785369D01*
X115179252Y-80785368D01*
X115179255Y-80785368D01*
X115349522Y-80725789D01*
X115502262Y-80629816D01*
X115629816Y-80502262D01*
X115725789Y-80349522D01*
X115785368Y-80179255D01*
X115785369Y-80179249D01*
X115805565Y-80000003D01*
X115805565Y-79999996D01*
X115785369Y-79820750D01*
X115785368Y-79820745D01*
X115760612Y-79749996D01*
X115725789Y-79650478D01*
X115631239Y-79500003D01*
X125694435Y-79500003D01*
X125714630Y-79679249D01*
X125714631Y-79679254D01*
X125774211Y-79849523D01*
X125856276Y-79980127D01*
X125870184Y-80002262D01*
X125997738Y-80129816D01*
X126076410Y-80179249D01*
X126132721Y-80214632D01*
X126150478Y-80225789D01*
X126288860Y-80274211D01*
X126320745Y-80285368D01*
X126320750Y-80285369D01*
X126399227Y-80294210D01*
X126419200Y-80296461D01*
X126483615Y-80323527D01*
X126523170Y-80381121D01*
X126528538Y-80405798D01*
X126539630Y-80504249D01*
X126539631Y-80504254D01*
X126599211Y-80674523D01*
X126631424Y-80725789D01*
X126695184Y-80827262D01*
X126822738Y-80954816D01*
X126894648Y-81000000D01*
X126945629Y-81032034D01*
X126975478Y-81050789D01*
X127087654Y-81090041D01*
X127145745Y-81110368D01*
X127145750Y-81110369D01*
X127324996Y-81130565D01*
X127325000Y-81130565D01*
X127325004Y-81130565D01*
X127504249Y-81110369D01*
X127504252Y-81110368D01*
X127504255Y-81110368D01*
X127674522Y-81050789D01*
X127827262Y-80954816D01*
X127954816Y-80827262D01*
X128050789Y-80674522D01*
X128110368Y-80504255D01*
X128110847Y-80500003D01*
X128130565Y-80325003D01*
X128130565Y-80324996D01*
X128110369Y-80145750D01*
X128110368Y-80145745D01*
X128104794Y-80129815D01*
X128050789Y-79975478D01*
X128035993Y-79951931D01*
X128002968Y-79899371D01*
X127954816Y-79822738D01*
X127827262Y-79695184D01*
X127716821Y-79625789D01*
X127674523Y-79599211D01*
X127504254Y-79539631D01*
X127504249Y-79539630D01*
X127405798Y-79528538D01*
X127341384Y-79501472D01*
X127301828Y-79443877D01*
X127296461Y-79419200D01*
X127285369Y-79320750D01*
X127285368Y-79320745D01*
X127283487Y-79315369D01*
X127225789Y-79150478D01*
X127129816Y-78997738D01*
X127094759Y-78962681D01*
X127061274Y-78901358D01*
X127061371Y-78900003D01*
X131944435Y-78900003D01*
X131964630Y-79079249D01*
X131964631Y-79079254D01*
X132024211Y-79249523D01*
X132078275Y-79335565D01*
X132120184Y-79402262D01*
X132247738Y-79529816D01*
X132400478Y-79625789D01*
X132553258Y-79679249D01*
X132570745Y-79685368D01*
X132570750Y-79685369D01*
X132749996Y-79705565D01*
X132750000Y-79705565D01*
X132750004Y-79705565D01*
X132929249Y-79685369D01*
X132929252Y-79685368D01*
X132929255Y-79685368D01*
X133099522Y-79625789D01*
X133252262Y-79529816D01*
X133379816Y-79402262D01*
X133475789Y-79249522D01*
X133535368Y-79079255D01*
X133535822Y-79075227D01*
X133555565Y-78900003D01*
X133555565Y-78899996D01*
X133535369Y-78720750D01*
X133535368Y-78720745D01*
X133504158Y-78631551D01*
X133475789Y-78550478D01*
X133379816Y-78397738D01*
X133252262Y-78270184D01*
X133220144Y-78250003D01*
X133099523Y-78174211D01*
X132929254Y-78114631D01*
X132929249Y-78114630D01*
X132750004Y-78094435D01*
X132749996Y-78094435D01*
X132570750Y-78114630D01*
X132570745Y-78114631D01*
X132400476Y-78174211D01*
X132247737Y-78270184D01*
X132120184Y-78397737D01*
X132024211Y-78550476D01*
X131964631Y-78720745D01*
X131964630Y-78720750D01*
X131944435Y-78899996D01*
X131944435Y-78900003D01*
X127061371Y-78900003D01*
X127066258Y-78831666D01*
X127094759Y-78787319D01*
X127101046Y-78781032D01*
X127129816Y-78752262D01*
X127225789Y-78599522D01*
X127285368Y-78429255D01*
X127285369Y-78429249D01*
X127305565Y-78250003D01*
X127305565Y-78249996D01*
X127285369Y-78070750D01*
X127285368Y-78070745D01*
X127253822Y-77980591D01*
X127225789Y-77900478D01*
X127225604Y-77900184D01*
X127186582Y-77838080D01*
X127129816Y-77747738D01*
X127002262Y-77620184D01*
X126899422Y-77555565D01*
X126849523Y-77524211D01*
X126679254Y-77464631D01*
X126679249Y-77464630D01*
X126500004Y-77444435D01*
X126499996Y-77444435D01*
X126320750Y-77464630D01*
X126320745Y-77464631D01*
X126150476Y-77524211D01*
X125997737Y-77620184D01*
X125870184Y-77747737D01*
X125774211Y-77900476D01*
X125714631Y-78070745D01*
X125714630Y-78070750D01*
X125694435Y-78249996D01*
X125694435Y-78250003D01*
X125714630Y-78429249D01*
X125714631Y-78429254D01*
X125774211Y-78599523D01*
X125870184Y-78752262D01*
X125905241Y-78787319D01*
X125938726Y-78848642D01*
X125933742Y-78918334D01*
X125905241Y-78962681D01*
X125870184Y-78997737D01*
X125774211Y-79150476D01*
X125714631Y-79320745D01*
X125714630Y-79320750D01*
X125694435Y-79499996D01*
X125694435Y-79500003D01*
X115631239Y-79500003D01*
X115629816Y-79497738D01*
X115502262Y-79370184D01*
X115469255Y-79349444D01*
X115349523Y-79274211D01*
X115179254Y-79214631D01*
X115179250Y-79214630D01*
X115035616Y-79198447D01*
X114971202Y-79171380D01*
X114931647Y-79113785D01*
X114925500Y-79075227D01*
X114925500Y-78924772D01*
X114945185Y-78857733D01*
X114997989Y-78811978D01*
X115035617Y-78801552D01*
X115179249Y-78785369D01*
X115179252Y-78785368D01*
X115179255Y-78785368D01*
X115349522Y-78725789D01*
X115502262Y-78629816D01*
X115602075Y-78530003D01*
X118914435Y-78530003D01*
X118934630Y-78709249D01*
X118934631Y-78709254D01*
X118994211Y-78879523D01*
X119047689Y-78964632D01*
X119090184Y-79032262D01*
X119217738Y-79159816D01*
X119304977Y-79214632D01*
X119361258Y-79249996D01*
X119370478Y-79255789D01*
X119455010Y-79285368D01*
X119540745Y-79315368D01*
X119540750Y-79315369D01*
X119719996Y-79335565D01*
X119720000Y-79335565D01*
X119720004Y-79335565D01*
X119899249Y-79315369D01*
X119899252Y-79315368D01*
X119899255Y-79315368D01*
X120069522Y-79255789D01*
X120222262Y-79159816D01*
X120349816Y-79032262D01*
X120445789Y-78879522D01*
X120505368Y-78709255D01*
X120505369Y-78709249D01*
X120525565Y-78530003D01*
X120525565Y-78529996D01*
X120505369Y-78350750D01*
X120505368Y-78350745D01*
X120494872Y-78320750D01*
X120445789Y-78180478D01*
X120433529Y-78160967D01*
X120395420Y-78100317D01*
X120349816Y-78027738D01*
X120222262Y-77900184D01*
X120221465Y-77899683D01*
X120069523Y-77804211D01*
X119899254Y-77744631D01*
X119899249Y-77744630D01*
X119720004Y-77724435D01*
X119719996Y-77724435D01*
X119540750Y-77744630D01*
X119540745Y-77744631D01*
X119370476Y-77804211D01*
X119217737Y-77900184D01*
X119090184Y-78027737D01*
X118994211Y-78180476D01*
X118934631Y-78350745D01*
X118934630Y-78350750D01*
X118914435Y-78529996D01*
X118914435Y-78530003D01*
X115602075Y-78530003D01*
X115629816Y-78502262D01*
X115725789Y-78349522D01*
X115785368Y-78179255D01*
X115785369Y-78179249D01*
X115805565Y-78000003D01*
X115805565Y-77999996D01*
X115785369Y-77820750D01*
X115785368Y-77820745D01*
X115725789Y-77650478D01*
X115629816Y-77497738D01*
X115502262Y-77370184D01*
X115499499Y-77368448D01*
X115349523Y-77274211D01*
X115179254Y-77214631D01*
X115179250Y-77214630D01*
X115035616Y-77198447D01*
X114971202Y-77171380D01*
X114931647Y-77113785D01*
X114925500Y-77075227D01*
X114925500Y-76913389D01*
X114899622Y-76750003D01*
X127694435Y-76750003D01*
X127714630Y-76929249D01*
X127714631Y-76929254D01*
X127774211Y-77099523D01*
X127846538Y-77214630D01*
X127870184Y-77252262D01*
X127997738Y-77379816D01*
X128065582Y-77422445D01*
X128132721Y-77464632D01*
X128150478Y-77475789D01*
X128213202Y-77497737D01*
X128320745Y-77535368D01*
X128320750Y-77535369D01*
X128499996Y-77555565D01*
X128500000Y-77555565D01*
X128500004Y-77555565D01*
X128679249Y-77535369D01*
X128679252Y-77535368D01*
X128679255Y-77535368D01*
X128849522Y-77475789D01*
X129002262Y-77379816D01*
X129129816Y-77252262D01*
X129225789Y-77099522D01*
X129285368Y-76929255D01*
X129287156Y-76913389D01*
X129305565Y-76750003D01*
X129305565Y-76749996D01*
X129285369Y-76570750D01*
X129285368Y-76570745D01*
X129225789Y-76400478D01*
X129129816Y-76247738D01*
X129002262Y-76120184D01*
X128975266Y-76103221D01*
X128849523Y-76024211D01*
X128679254Y-75964631D01*
X128679249Y-75964630D01*
X128500004Y-75944435D01*
X128499996Y-75944435D01*
X128320750Y-75964630D01*
X128320745Y-75964631D01*
X128150476Y-76024211D01*
X127997737Y-76120184D01*
X127870184Y-76247737D01*
X127774211Y-76400476D01*
X127714631Y-76570745D01*
X127714630Y-76570750D01*
X127694435Y-76749996D01*
X127694435Y-76750003D01*
X114899622Y-76750003D01*
X114898402Y-76742299D01*
X114844873Y-76577555D01*
X114766232Y-76423212D01*
X114664414Y-76283072D01*
X114556872Y-76175530D01*
X114523387Y-76114207D01*
X114528371Y-76044515D01*
X114570243Y-75988582D01*
X114579457Y-75982310D01*
X114643656Y-75942712D01*
X114767712Y-75818656D01*
X114859814Y-75669334D01*
X114914999Y-75502797D01*
X114915284Y-75500003D01*
X130194435Y-75500003D01*
X130214630Y-75679249D01*
X130214631Y-75679254D01*
X130274211Y-75849523D01*
X130332765Y-75942710D01*
X130370184Y-76002262D01*
X130497738Y-76129816D01*
X130650478Y-76225789D01*
X130719678Y-76250003D01*
X130820745Y-76285368D01*
X130820750Y-76285369D01*
X130999996Y-76305565D01*
X131000000Y-76305565D01*
X131000004Y-76305565D01*
X131179249Y-76285369D01*
X131179252Y-76285368D01*
X131179255Y-76285368D01*
X131349522Y-76225789D01*
X131502262Y-76129816D01*
X131629816Y-76002262D01*
X131725789Y-75849522D01*
X131785368Y-75679255D01*
X131805565Y-75500003D01*
X135194435Y-75500003D01*
X135214630Y-75679249D01*
X135214631Y-75679254D01*
X135274211Y-75849523D01*
X135332765Y-75942710D01*
X135370184Y-76002262D01*
X135497738Y-76129816D01*
X135650478Y-76225789D01*
X135719678Y-76250003D01*
X135820745Y-76285368D01*
X135820750Y-76285369D01*
X135999996Y-76305565D01*
X136000000Y-76305565D01*
X136000004Y-76305565D01*
X136179249Y-76285369D01*
X136179252Y-76285368D01*
X136179255Y-76285368D01*
X136280322Y-76250003D01*
X138194435Y-76250003D01*
X138214630Y-76429249D01*
X138214631Y-76429254D01*
X138274211Y-76599523D01*
X138363924Y-76742299D01*
X138370184Y-76752262D01*
X138497738Y-76879816D01*
X138650478Y-76975789D01*
X138820745Y-77035368D01*
X138820750Y-77035369D01*
X138999996Y-77055565D01*
X139000000Y-77055565D01*
X139000004Y-77055565D01*
X139179249Y-77035369D01*
X139179252Y-77035368D01*
X139179255Y-77035368D01*
X139349522Y-76975789D01*
X139502262Y-76879816D01*
X139629816Y-76752262D01*
X139725789Y-76599522D01*
X139785368Y-76429255D01*
X139786049Y-76423211D01*
X139805565Y-76250003D01*
X139805565Y-76249996D01*
X139785369Y-76070750D01*
X139785368Y-76070745D01*
X139740567Y-75942712D01*
X139725789Y-75900478D01*
X139629816Y-75747738D01*
X139502262Y-75620184D01*
X139349523Y-75524211D01*
X139179254Y-75464631D01*
X139179249Y-75464630D01*
X139000004Y-75444435D01*
X138999996Y-75444435D01*
X138820750Y-75464630D01*
X138820745Y-75464631D01*
X138650476Y-75524211D01*
X138497737Y-75620184D01*
X138370184Y-75747737D01*
X138274211Y-75900476D01*
X138214631Y-76070745D01*
X138214630Y-76070750D01*
X138194435Y-76249996D01*
X138194435Y-76250003D01*
X136280322Y-76250003D01*
X136349522Y-76225789D01*
X136502262Y-76129816D01*
X136629816Y-76002262D01*
X136725789Y-75849522D01*
X136785368Y-75679255D01*
X136805565Y-75500000D01*
X136799304Y-75444435D01*
X136785369Y-75320750D01*
X136785368Y-75320745D01*
X136725788Y-75150476D01*
X136629815Y-74997737D01*
X136502262Y-74870184D01*
X136349523Y-74774211D01*
X136179254Y-74714631D01*
X136179249Y-74714630D01*
X136000004Y-74694435D01*
X135999996Y-74694435D01*
X135820750Y-74714630D01*
X135820745Y-74714631D01*
X135650476Y-74774211D01*
X135497737Y-74870184D01*
X135370184Y-74997737D01*
X135274211Y-75150476D01*
X135214631Y-75320745D01*
X135214630Y-75320750D01*
X135194435Y-75499996D01*
X135194435Y-75500003D01*
X131805565Y-75500003D01*
X131805565Y-75500000D01*
X131799304Y-75444435D01*
X131785369Y-75320750D01*
X131785368Y-75320745D01*
X131725788Y-75150476D01*
X131629815Y-74997737D01*
X131502262Y-74870184D01*
X131349523Y-74774211D01*
X131179254Y-74714631D01*
X131179249Y-74714630D01*
X131000004Y-74694435D01*
X130999996Y-74694435D01*
X130820750Y-74714630D01*
X130820745Y-74714631D01*
X130650476Y-74774211D01*
X130497737Y-74870184D01*
X130370184Y-74997737D01*
X130274211Y-75150476D01*
X130214631Y-75320745D01*
X130214630Y-75320750D01*
X130194435Y-75499996D01*
X130194435Y-75500003D01*
X114915284Y-75500003D01*
X114925500Y-75400009D01*
X114925499Y-74599992D01*
X114914999Y-74497203D01*
X114859814Y-74330666D01*
X114767712Y-74181344D01*
X114643656Y-74057288D01*
X114494334Y-73965186D01*
X114327797Y-73910001D01*
X114327795Y-73910000D01*
X114225010Y-73899500D01*
X112874998Y-73899500D01*
X112874981Y-73899501D01*
X112772203Y-73910000D01*
X112772200Y-73910001D01*
X112605668Y-73965185D01*
X112605663Y-73965187D01*
X112456342Y-74057289D01*
X112332289Y-74181342D01*
X112240187Y-74330663D01*
X112240185Y-74330668D01*
X112233937Y-74349523D01*
X112185001Y-74497203D01*
X112185001Y-74497204D01*
X112185000Y-74497204D01*
X112174500Y-74599983D01*
X112174500Y-75400001D01*
X112174501Y-75400019D01*
X112185000Y-75502796D01*
X112185001Y-75502799D01*
X112240185Y-75669331D01*
X112240187Y-75669336D01*
X112246305Y-75679255D01*
X112332288Y-75818656D01*
X112456344Y-75942712D01*
X112520543Y-75982310D01*
X112567268Y-76034258D01*
X112578489Y-76103221D01*
X112550646Y-76167303D01*
X112543128Y-76175530D01*
X112435585Y-76283073D01*
X112333768Y-76423211D01*
X112255128Y-76577552D01*
X112201597Y-76742302D01*
X112174500Y-76913389D01*
X112174500Y-77086610D01*
X112200736Y-77252262D01*
X112201598Y-77257701D01*
X112255127Y-77422445D01*
X112333768Y-77576788D01*
X112435586Y-77716928D01*
X112558072Y-77839414D01*
X112558078Y-77839418D01*
X112641023Y-77899683D01*
X112683689Y-77955013D01*
X112689667Y-78024626D01*
X112657061Y-78086421D01*
X112641023Y-78100317D01*
X112558078Y-78160581D01*
X112558069Y-78160588D01*
X112435588Y-78283069D01*
X112435588Y-78283070D01*
X112435586Y-78283072D01*
X112435350Y-78283397D01*
X112333768Y-78423211D01*
X112255128Y-78577552D01*
X112255127Y-78577554D01*
X112255127Y-78577555D01*
X112231407Y-78650556D01*
X112201597Y-78742302D01*
X112174500Y-78913389D01*
X112174500Y-79086610D01*
X112200377Y-79249996D01*
X112201598Y-79257701D01*
X112255127Y-79422445D01*
X112333768Y-79576788D01*
X112435586Y-79716928D01*
X112558072Y-79839414D01*
X112571986Y-79849523D01*
X112641023Y-79899683D01*
X112683689Y-79955013D01*
X112689667Y-80024626D01*
X112657061Y-80086421D01*
X112641023Y-80100317D01*
X112558078Y-80160581D01*
X112558069Y-80160588D01*
X112435588Y-80283069D01*
X112435588Y-80283070D01*
X112435586Y-80283072D01*
X112405121Y-80325003D01*
X112333768Y-80423211D01*
X112255128Y-80577552D01*
X112201597Y-80742302D01*
X112174500Y-80913389D01*
X112174500Y-81086610D01*
X112194776Y-81214632D01*
X112201598Y-81257701D01*
X112255127Y-81422445D01*
X112333768Y-81576788D01*
X112435586Y-81716928D01*
X112558072Y-81839414D01*
X112571986Y-81849523D01*
X112641023Y-81899683D01*
X112683689Y-81955013D01*
X112689667Y-82024626D01*
X112657061Y-82086421D01*
X112641023Y-82100317D01*
X112558078Y-82160581D01*
X112558069Y-82160588D01*
X112435588Y-82283069D01*
X112435588Y-82283070D01*
X112435586Y-82283072D01*
X112419244Y-82305565D01*
X112333768Y-82423211D01*
X112255128Y-82577552D01*
X112255127Y-82577554D01*
X112255127Y-82577555D01*
X112228362Y-82659927D01*
X112201597Y-82742302D01*
X112174500Y-82913389D01*
X112174500Y-83086610D01*
X112200378Y-83250003D01*
X112201598Y-83257701D01*
X112255127Y-83422445D01*
X112333768Y-83576788D01*
X112435586Y-83716928D01*
X112558072Y-83839414D01*
X112558078Y-83839418D01*
X112641023Y-83899683D01*
X112683689Y-83955013D01*
X112689667Y-84024626D01*
X112657061Y-84086421D01*
X112641023Y-84100317D01*
X112558078Y-84160581D01*
X112558069Y-84160588D01*
X112435588Y-84283069D01*
X112435588Y-84283070D01*
X112435586Y-84283072D01*
X112401009Y-84330663D01*
X112333768Y-84423211D01*
X112255128Y-84577552D01*
X112201597Y-84742302D01*
X112174500Y-84913389D01*
X112174500Y-85086610D01*
X112200736Y-85252262D01*
X112201598Y-85257701D01*
X112255127Y-85422445D01*
X112333768Y-85576788D01*
X112435586Y-85716928D01*
X112558072Y-85839414D01*
X112571986Y-85849523D01*
X112641023Y-85899683D01*
X112683689Y-85955013D01*
X112689667Y-86024626D01*
X112657061Y-86086421D01*
X112641023Y-86100317D01*
X112558078Y-86160581D01*
X112558069Y-86160588D01*
X112435588Y-86283069D01*
X112435588Y-86283070D01*
X112435586Y-86283072D01*
X112419244Y-86305565D01*
X112333768Y-86423211D01*
X112255128Y-86577552D01*
X112255127Y-86577554D01*
X112255127Y-86577555D01*
X112234247Y-86641816D01*
X112201597Y-86742302D01*
X112184845Y-86848071D01*
X112174500Y-86913389D01*
X112174500Y-87086611D01*
X112201598Y-87257701D01*
X112255127Y-87422445D01*
X112333768Y-87576788D01*
X112435586Y-87716928D01*
X112558072Y-87839414D01*
X112558078Y-87839418D01*
X112641023Y-87899683D01*
X112683689Y-87955013D01*
X112689667Y-88024626D01*
X112657061Y-88086421D01*
X112641023Y-88100317D01*
X112558078Y-88160581D01*
X112558069Y-88160588D01*
X112435588Y-88283069D01*
X112435588Y-88283070D01*
X112435586Y-88283072D01*
X112408215Y-88320745D01*
X112333768Y-88423211D01*
X112255128Y-88577552D01*
X112201597Y-88742302D01*
X112174500Y-88913389D01*
X112174500Y-89086610D01*
X110500500Y-89086610D01*
X110500500Y-86848071D01*
X110520185Y-86781032D01*
X110572989Y-86735277D01*
X110642147Y-86725333D01*
X110665455Y-86731030D01*
X110820737Y-86785366D01*
X110820743Y-86785367D01*
X110820745Y-86785368D01*
X110820746Y-86785368D01*
X110820750Y-86785369D01*
X110999996Y-86805565D01*
X111000000Y-86805565D01*
X111000004Y-86805565D01*
X111179249Y-86785369D01*
X111179252Y-86785368D01*
X111179255Y-86785368D01*
X111349522Y-86725789D01*
X111502262Y-86629816D01*
X111629816Y-86502262D01*
X111725789Y-86349522D01*
X111785368Y-86179255D01*
X111785369Y-86179249D01*
X111805565Y-86000003D01*
X111805565Y-85999996D01*
X111785369Y-85820750D01*
X111785368Y-85820745D01*
X111784637Y-85818656D01*
X111725789Y-85650478D01*
X111629816Y-85497738D01*
X111502262Y-85370184D01*
X111499499Y-85368448D01*
X111349523Y-85274211D01*
X111179254Y-85214631D01*
X111179249Y-85214630D01*
X111000004Y-85194435D01*
X110999996Y-85194435D01*
X110820750Y-85214630D01*
X110820742Y-85214632D01*
X110665454Y-85268970D01*
X110595676Y-85272531D01*
X110535048Y-85237802D01*
X110502821Y-85175809D01*
X110500500Y-85151928D01*
X110500500Y-82848071D01*
X110520185Y-82781032D01*
X110572989Y-82735277D01*
X110642147Y-82725333D01*
X110665455Y-82731030D01*
X110820737Y-82785366D01*
X110820743Y-82785367D01*
X110820745Y-82785368D01*
X110820746Y-82785368D01*
X110820750Y-82785369D01*
X110999996Y-82805565D01*
X111000000Y-82805565D01*
X111000004Y-82805565D01*
X111179249Y-82785369D01*
X111179252Y-82785368D01*
X111179255Y-82785368D01*
X111349522Y-82725789D01*
X111502262Y-82629816D01*
X111629816Y-82502262D01*
X111725789Y-82349522D01*
X111785368Y-82179255D01*
X111785369Y-82179249D01*
X111805565Y-82000003D01*
X111805565Y-81999996D01*
X111785369Y-81820750D01*
X111785368Y-81820745D01*
X111752141Y-81725788D01*
X111725789Y-81650478D01*
X111629816Y-81497738D01*
X111502262Y-81370184D01*
X111452442Y-81338880D01*
X111349523Y-81274211D01*
X111179254Y-81214631D01*
X111179249Y-81214630D01*
X111000004Y-81194435D01*
X110999996Y-81194435D01*
X110820750Y-81214630D01*
X110820742Y-81214632D01*
X110665454Y-81268970D01*
X110595676Y-81272531D01*
X110535048Y-81237802D01*
X110502821Y-81175809D01*
X110500500Y-81151928D01*
X110500500Y-78848071D01*
X110520185Y-78781032D01*
X110572989Y-78735277D01*
X110642147Y-78725333D01*
X110665455Y-78731030D01*
X110820737Y-78785366D01*
X110820743Y-78785367D01*
X110820745Y-78785368D01*
X110820746Y-78785368D01*
X110820750Y-78785369D01*
X110999996Y-78805565D01*
X111000000Y-78805565D01*
X111000004Y-78805565D01*
X111179249Y-78785369D01*
X111179252Y-78785368D01*
X111179255Y-78785368D01*
X111349522Y-78725789D01*
X111502262Y-78629816D01*
X111629816Y-78502262D01*
X111725789Y-78349522D01*
X111785368Y-78179255D01*
X111785369Y-78179249D01*
X111805565Y-78000003D01*
X111805565Y-77999996D01*
X111785369Y-77820750D01*
X111785368Y-77820745D01*
X111725789Y-77650478D01*
X111629816Y-77497738D01*
X111502262Y-77370184D01*
X111499499Y-77368448D01*
X111349523Y-77274211D01*
X111179254Y-77214631D01*
X111179249Y-77214630D01*
X111000004Y-77194435D01*
X110999996Y-77194435D01*
X110820750Y-77214630D01*
X110820742Y-77214632D01*
X110665454Y-77268970D01*
X110595676Y-77272531D01*
X110535048Y-77237802D01*
X110502821Y-77175809D01*
X110500500Y-77151928D01*
X110500500Y-74848071D01*
X110520185Y-74781032D01*
X110572989Y-74735277D01*
X110642147Y-74725333D01*
X110665455Y-74731030D01*
X110820737Y-74785366D01*
X110820743Y-74785367D01*
X110820745Y-74785368D01*
X110820746Y-74785368D01*
X110820750Y-74785369D01*
X110999996Y-74805565D01*
X111000000Y-74805565D01*
X111000004Y-74805565D01*
X111179249Y-74785369D01*
X111179252Y-74785368D01*
X111179255Y-74785368D01*
X111349522Y-74725789D01*
X111502262Y-74629816D01*
X111629816Y-74502262D01*
X111725789Y-74349522D01*
X111785368Y-74179255D01*
X111799110Y-74057289D01*
X111805565Y-74000003D01*
X111805565Y-73999996D01*
X111785369Y-73820750D01*
X111785368Y-73820745D01*
X111725788Y-73650476D01*
X111629815Y-73497737D01*
X111502262Y-73370184D01*
X111349523Y-73274211D01*
X111179254Y-73214631D01*
X111179249Y-73214630D01*
X111000004Y-73194435D01*
X110999996Y-73194435D01*
X110820750Y-73214630D01*
X110820742Y-73214632D01*
X110665454Y-73268970D01*
X110595676Y-73272531D01*
X110535048Y-73237802D01*
X110502821Y-73175809D01*
X110500500Y-73151928D01*
X110500500Y-72081407D01*
X145173500Y-72081407D01*
X145205259Y-72241073D01*
X145205262Y-72241082D01*
X145267562Y-72391490D01*
X145267563Y-72391492D01*
X145358015Y-72526862D01*
X145358018Y-72526866D01*
X145473133Y-72641981D01*
X145473137Y-72641984D01*
X145608505Y-72732435D01*
X145608506Y-72732435D01*
X145608507Y-72732436D01*
X145608509Y-72732437D01*
X145708781Y-72773970D01*
X145758919Y-72794738D01*
X145758921Y-72794738D01*
X145758926Y-72794740D01*
X145918592Y-72826499D01*
X145918595Y-72826500D01*
X145918597Y-72826500D01*
X146081405Y-72826500D01*
X146081406Y-72826499D01*
X146134629Y-72815912D01*
X146241073Y-72794740D01*
X146241076Y-72794738D01*
X146241081Y-72794738D01*
X146391495Y-72732435D01*
X146526863Y-72641984D01*
X146641984Y-72526863D01*
X146732435Y-72391495D01*
X146794738Y-72241081D01*
X146826500Y-72081403D01*
X146826500Y-71918597D01*
X146826500Y-71918594D01*
X146826499Y-71918592D01*
X146794740Y-71758926D01*
X146794737Y-71758917D01*
X146732437Y-71608509D01*
X146732436Y-71608507D01*
X146641984Y-71473137D01*
X146641981Y-71473133D01*
X146526866Y-71358018D01*
X146526862Y-71358015D01*
X146391492Y-71267563D01*
X146391490Y-71267562D01*
X146241082Y-71205262D01*
X146241073Y-71205259D01*
X146081406Y-71173500D01*
X146081403Y-71173500D01*
X145918597Y-71173500D01*
X145918594Y-71173500D01*
X145758926Y-71205259D01*
X145758917Y-71205262D01*
X145608509Y-71267562D01*
X145608507Y-71267563D01*
X145473137Y-71358015D01*
X145473133Y-71358018D01*
X145358018Y-71473133D01*
X145358015Y-71473137D01*
X145267563Y-71608507D01*
X145267562Y-71608509D01*
X145205262Y-71758917D01*
X145205259Y-71758926D01*
X145173500Y-71918592D01*
X145173500Y-72081407D01*
X110500500Y-72081407D01*
X110500500Y-72004427D01*
X110500816Y-71995581D01*
X110506322Y-71918594D01*
X110515130Y-71795436D01*
X110517646Y-71777938D01*
X110559356Y-71586199D01*
X110564333Y-71569248D01*
X110632911Y-71385385D01*
X110640259Y-71369298D01*
X110695810Y-71267563D01*
X110734291Y-71197089D01*
X110743845Y-71182221D01*
X110861448Y-71025123D01*
X110873020Y-71011769D01*
X111011769Y-70873020D01*
X111025123Y-70861448D01*
X111182221Y-70743845D01*
X111197089Y-70734291D01*
X111369298Y-70640258D01*
X111385385Y-70632911D01*
X111569248Y-70564333D01*
X111586199Y-70559356D01*
X111777938Y-70517646D01*
X111795436Y-70515130D01*
X111995582Y-70500816D01*
X112004428Y-70500500D01*
X112065892Y-70500500D01*
X114151928Y-70500500D01*
X114218967Y-70520185D01*
G37*
%TD.AperFunction*%
%TD*%
%TA.AperFunction,Conductor*%
%TO.N,+3V3*%
G36*
X121296168Y-80296122D02*
G01*
X121296434Y-80296377D01*
X121500707Y-80499293D01*
X121500762Y-80499348D01*
X121703621Y-80703564D01*
X121707020Y-80711849D01*
X121703566Y-80720111D01*
X121703300Y-80720367D01*
X121603371Y-80813559D01*
X121602641Y-80814185D01*
X121519892Y-80879521D01*
X121519478Y-80879833D01*
X121444953Y-80933488D01*
X121361625Y-80999280D01*
X121361615Y-80999289D01*
X121260776Y-81093333D01*
X121252388Y-81096470D01*
X121244523Y-81093050D01*
X120906949Y-80755476D01*
X120903522Y-80747203D01*
X120906665Y-80739224D01*
X121000711Y-80638380D01*
X121066508Y-80555047D01*
X121120179Y-80480499D01*
X121120462Y-80480124D01*
X121185819Y-80397347D01*
X121186445Y-80396619D01*
X121279633Y-80296697D01*
X121287780Y-80292985D01*
X121296168Y-80296122D01*
G37*
%TD.AperFunction*%
%TD*%
%TA.AperFunction,Conductor*%
%TO.N,+3V3*%
G36*
X114258701Y-86598799D02*
G01*
X114259066Y-86598993D01*
X114368939Y-86657351D01*
X114368949Y-86657356D01*
X114484877Y-86709931D01*
X114484882Y-86709933D01*
X114484893Y-86709938D01*
X114484904Y-86709942D01*
X114600848Y-86753526D01*
X114716793Y-86788110D01*
X114716795Y-86788110D01*
X114716797Y-86788111D01*
X114829413Y-86812962D01*
X114835164Y-86816113D01*
X115169893Y-87150842D01*
X115173320Y-87159115D01*
X115169893Y-87167388D01*
X115163353Y-87170686D01*
X115001352Y-87194942D01*
X115001342Y-87194944D01*
X114816379Y-87231639D01*
X114816369Y-87231641D01*
X114631461Y-87277324D01*
X114631429Y-87277333D01*
X114631423Y-87277334D01*
X114631418Y-87277336D01*
X114446457Y-87332031D01*
X114446453Y-87332032D01*
X114446444Y-87332035D01*
X114266425Y-87394028D01*
X114257486Y-87393482D01*
X114256940Y-87393198D01*
X113567402Y-87010751D01*
X113561829Y-87003741D01*
X113562845Y-86994844D01*
X113567239Y-86990379D01*
X114247382Y-86598992D01*
X114256261Y-86597837D01*
X114258701Y-86598799D01*
G37*
%TD.AperFunction*%
%TD*%
M02*
