M48
; DRILL file {KiCad 8.0.1} date 2024-05-14T21:58:36-0400
; FORMAT={-:-/ absolute / inch / decimal}
; #@! TF.CreationDate,2024-05-14T21:58:36-04:00
; #@! TF.GenerationSoftware,Kicad,Pcbnew,8.0.1
; #@! TF.FileFunction,Plated,1,4,PTH
FMAT,2
INCH
; #@! TA.AperFunction,Plated,PTH,ViaDrill
T1C0.0118
; #@! TA.AperFunction,Plated,PTH,ComponentDrill
T2C0.0295
%
G90
G05
T1
X4.3701Y-2.9134
X4.3701Y-3.0709
X4.3701Y-3.2283
X4.3701Y-3.3858
X4.3701Y-3.5433
X4.5276Y-2.7953
X4.5276Y-3.0709
X4.5276Y-3.1496
X4.5276Y-3.2283
X4.5276Y-3.3071
X4.5276Y-3.6614
X4.7134Y-3.0917
X4.7244Y-2.7953
X4.7244Y-3.6614
X4.7638Y-3.4449
X4.7638Y-3.5236
X4.7736Y-3.3858
X4.7835Y-3.1299
X4.7835Y-3.1693
X4.8612Y-3.4843
X4.9026Y-3.3474
X4.9213Y-2.7953
X4.9213Y-3.6614
X4.9409Y-3.3858
X4.9803Y-3.0807
X4.9803Y-3.1299
X5.0128Y-3.1624
X5.0591Y-3.0217
X5.0591Y-3.2776
X5.1181Y-2.7953
X5.1181Y-3.6614
X5.1575Y-2.9724
X5.1693Y-3.1299
X5.1693Y-3.315
X5.185Y-3.4862
X5.2256Y-3.2972
X5.2264Y-3.1063
X5.2264Y-3.2087
X5.315Y-2.7953
X5.315Y-3.6614
X5.3297Y-3.5285
X5.3543Y-2.9724
X5.3543Y-3.3366
X5.374Y-3.4862
X5.3976Y-3.1201
X5.3976Y-3.189
X5.4606Y-3.4567
X5.4724Y-3.002
X5.5118Y-2.7953
X5.5118Y-3.0906
X5.5118Y-3.3661
X5.5118Y-3.6614
X5.5807Y-3.1398
X5.5807Y-3.3169
X5.6693Y-2.7953
X5.6693Y-3.6614
X5.7874Y-2.9134
X5.7874Y-3.0709
X5.7874Y-3.2283
X5.7874Y-3.3858
X5.7874Y-3.5433
T2
X4.4705Y-2.9528
X4.4705Y-3.0315
X4.4705Y-3.1102
X4.4705Y-3.189
X4.4705Y-3.2677
X4.4705Y-3.3465
X4.4705Y-3.4252
X4.4705Y-3.5039
X5.687Y-3.1102
X5.687Y-3.189
X5.687Y-3.2677
X5.687Y-3.3465
M30
