%TF.GenerationSoftware,KiCad,Pcbnew,8.0.1*%
%TF.CreationDate,2024-05-14T21:58:36-04:00*%
%TF.ProjectId,ads1220_board,61647331-3232-4305-9f62-6f6172642e6b,rev?*%
%TF.SameCoordinates,Original*%
%TF.FileFunction,Copper,L2,Inr*%
%TF.FilePolarity,Positive*%
%FSLAX46Y46*%
G04 Gerber Fmt 4.6, Leading zero omitted, Abs format (unit mm)*
G04 Created by KiCad (PCBNEW 8.0.1) date 2024-05-14 21:58:36*
%MOMM*%
%LPD*%
G01*
G04 APERTURE LIST*
G04 Aperture macros list*
%AMRoundRect*
0 Rectangle with rounded corners*
0 $1 Rounding radius*
0 $2 $3 $4 $5 $6 $7 $8 $9 X,Y pos of 4 corners*
0 Add a 4 corners polygon primitive as box body*
4,1,4,$2,$3,$4,$5,$6,$7,$8,$9,$2,$3,0*
0 Add four circle primitives for the rounded corners*
1,1,$1+$1,$2,$3*
1,1,$1+$1,$4,$5*
1,1,$1+$1,$6,$7*
1,1,$1+$1,$8,$9*
0 Add four rect primitives between the rounded corners*
20,1,$1+$1,$2,$3,$4,$5,0*
20,1,$1+$1,$4,$5,$6,$7,0*
20,1,$1+$1,$6,$7,$8,$9,0*
20,1,$1+$1,$8,$9,$2,$3,0*%
G04 Aperture macros list end*
%TA.AperFunction,ComponentPad*%
%ADD10RoundRect,0.250000X0.625000X-0.350000X0.625000X0.350000X-0.625000X0.350000X-0.625000X-0.350000X0*%
%TD*%
%TA.AperFunction,ComponentPad*%
%ADD11O,1.750000X1.200000*%
%TD*%
%TA.AperFunction,ComponentPad*%
%ADD12RoundRect,0.250000X-0.625000X0.350000X-0.625000X-0.350000X0.625000X-0.350000X0.625000X0.350000X0*%
%TD*%
%TA.AperFunction,ViaPad*%
%ADD13C,0.600000*%
%TD*%
G04 APERTURE END LIST*
D10*
%TO.N,GND*%
%TO.C,J2*%
X144450000Y-85000000D03*
D11*
%TO.N,/SIG+*%
X144450000Y-83000000D03*
%TO.N,/SIG-*%
X144450000Y-81000000D03*
%TO.N,+4V*%
X144450000Y-79000000D03*
%TD*%
D12*
%TO.N,GND*%
%TO.C,J3*%
X113550000Y-75000000D03*
D11*
%TO.N,Net-(J3-Pin_2)*%
X113550000Y-77000000D03*
%TO.N,Net-(J3-Pin_3)*%
X113550000Y-79000000D03*
%TO.N,Net-(J3-Pin_4)*%
X113550000Y-81000000D03*
%TO.N,Net-(J3-Pin_5)*%
X113550000Y-83000000D03*
%TO.N,Net-(J3-Pin_6)*%
X113550000Y-85000000D03*
%TO.N,+3V3*%
X113550000Y-87000000D03*
%TO.N,+5V*%
X113550000Y-89000000D03*
%TD*%
D13*
%TO.N,+5V*%
X121000000Y-89500000D03*
X121000000Y-87500000D03*
%TO.N,GND*%
X140000000Y-71000000D03*
X131000000Y-75500000D03*
X144000000Y-93000000D03*
X140000000Y-78500000D03*
X132750000Y-81500000D03*
X111000000Y-90000000D03*
X140000000Y-85500000D03*
X128500000Y-83250000D03*
X115000000Y-71000000D03*
X147000000Y-82000000D03*
X144000000Y-71000000D03*
X125000000Y-93000000D03*
X132730000Y-83750000D03*
X115000000Y-82000000D03*
X115000000Y-93000000D03*
X136000000Y-84750000D03*
X125000000Y-71000000D03*
X111000000Y-86000000D03*
X137100000Y-79250000D03*
X136498809Y-88550744D03*
X120000000Y-93000000D03*
X139000000Y-76250000D03*
X141750000Y-84250000D03*
X147000000Y-74000000D03*
X121250000Y-86000000D03*
X141750000Y-79750000D03*
X123475000Y-88500000D03*
X115000000Y-80000000D03*
X120000000Y-71000000D03*
X111000000Y-82000000D03*
X111000000Y-74000000D03*
X137100000Y-81000000D03*
X111000000Y-78000000D03*
X115000000Y-78000000D03*
X136000000Y-75500000D03*
X147000000Y-90000000D03*
X135000000Y-71000000D03*
X140000000Y-93000000D03*
X147000000Y-86000000D03*
X115000000Y-84000000D03*
X128500000Y-76750000D03*
X132750000Y-78900000D03*
X135000000Y-93000000D03*
X147000000Y-78000000D03*
X130000000Y-71000000D03*
X130000000Y-93000000D03*
X119720000Y-78530000D03*
X127325000Y-80325000D03*
%TO.N,+4V*%
X131300000Y-84200000D03*
X124525000Y-85025000D03*
X125500000Y-86000000D03*
X131300000Y-79500000D03*
X138700000Y-87800000D03*
X131700000Y-88550000D03*
X121500000Y-79500000D03*
%TO.N,+3V3*%
X121500000Y-80500000D03*
%TO.N,/INA_REF*%
X135375000Y-89625000D03*
%TO.N,/SIG_AMP+*%
X126500000Y-78250000D03*
%TO.N,/SIG_AMP-*%
X126500000Y-79500000D03*
%TD*%
%TA.AperFunction,Conductor*%
%TO.N,GND*%
G36*
X146004418Y-70500816D02*
G01*
X146204561Y-70515130D01*
X146222063Y-70517647D01*
X146413797Y-70559355D01*
X146430755Y-70564334D01*
X146614609Y-70632909D01*
X146630701Y-70640259D01*
X146802904Y-70734288D01*
X146817784Y-70743849D01*
X146974867Y-70861441D01*
X146988237Y-70873027D01*
X147126972Y-71011762D01*
X147138558Y-71025132D01*
X147249625Y-71173500D01*
X147256146Y-71182210D01*
X147265711Y-71197095D01*
X147359740Y-71369298D01*
X147367090Y-71385390D01*
X147435662Y-71569236D01*
X147440646Y-71586212D01*
X147482351Y-71777931D01*
X147484869Y-71795442D01*
X147499184Y-71995580D01*
X147499500Y-72004427D01*
X147499500Y-91995572D01*
X147499184Y-92004419D01*
X147484869Y-92204557D01*
X147482351Y-92222068D01*
X147440646Y-92413787D01*
X147435662Y-92430763D01*
X147367090Y-92614609D01*
X147359740Y-92630701D01*
X147265711Y-92802904D01*
X147256146Y-92817789D01*
X147138558Y-92974867D01*
X147126972Y-92988237D01*
X146988237Y-93126972D01*
X146974867Y-93138558D01*
X146817789Y-93256146D01*
X146802904Y-93265711D01*
X146630701Y-93359740D01*
X146614609Y-93367090D01*
X146430763Y-93435662D01*
X146413787Y-93440646D01*
X146222068Y-93482351D01*
X146204557Y-93484869D01*
X146023779Y-93497799D01*
X146004417Y-93499184D01*
X145995572Y-93499500D01*
X112004428Y-93499500D01*
X111995582Y-93499184D01*
X111973622Y-93497613D01*
X111795442Y-93484869D01*
X111777931Y-93482351D01*
X111586212Y-93440646D01*
X111569236Y-93435662D01*
X111385390Y-93367090D01*
X111369298Y-93359740D01*
X111197095Y-93265711D01*
X111182210Y-93256146D01*
X111025132Y-93138558D01*
X111011762Y-93126972D01*
X110873027Y-92988237D01*
X110861441Y-92974867D01*
X110743849Y-92817784D01*
X110734288Y-92802904D01*
X110640259Y-92630701D01*
X110632909Y-92614609D01*
X110572091Y-92451551D01*
X110564334Y-92430755D01*
X110559355Y-92413797D01*
X110517647Y-92222063D01*
X110515130Y-92204556D01*
X110506322Y-92081407D01*
X116173500Y-92081407D01*
X116205259Y-92241073D01*
X116205262Y-92241082D01*
X116267562Y-92391490D01*
X116267563Y-92391492D01*
X116358015Y-92526862D01*
X116358018Y-92526866D01*
X116473133Y-92641981D01*
X116473137Y-92641984D01*
X116608505Y-92732435D01*
X116608506Y-92732435D01*
X116608507Y-92732436D01*
X116608509Y-92732437D01*
X116708781Y-92773970D01*
X116758919Y-92794738D01*
X116758921Y-92794738D01*
X116758926Y-92794740D01*
X116918592Y-92826499D01*
X116918595Y-92826500D01*
X116918597Y-92826500D01*
X117081405Y-92826500D01*
X117081406Y-92826499D01*
X117134629Y-92815912D01*
X117241073Y-92794740D01*
X117241076Y-92794738D01*
X117241081Y-92794738D01*
X117391495Y-92732435D01*
X117526863Y-92641984D01*
X117641984Y-92526863D01*
X117732435Y-92391495D01*
X117794738Y-92241081D01*
X117802004Y-92204556D01*
X117826499Y-92081407D01*
X145173500Y-92081407D01*
X145205259Y-92241073D01*
X145205262Y-92241082D01*
X145267562Y-92391490D01*
X145267563Y-92391492D01*
X145358015Y-92526862D01*
X145358018Y-92526866D01*
X145473133Y-92641981D01*
X145473137Y-92641984D01*
X145608505Y-92732435D01*
X145608506Y-92732435D01*
X145608507Y-92732436D01*
X145608509Y-92732437D01*
X145708781Y-92773970D01*
X145758919Y-92794738D01*
X145758921Y-92794738D01*
X145758926Y-92794740D01*
X145918592Y-92826499D01*
X145918595Y-92826500D01*
X145918597Y-92826500D01*
X146081405Y-92826500D01*
X146081406Y-92826499D01*
X146134629Y-92815912D01*
X146241073Y-92794740D01*
X146241076Y-92794738D01*
X146241081Y-92794738D01*
X146391495Y-92732435D01*
X146526863Y-92641984D01*
X146641984Y-92526863D01*
X146732435Y-92391495D01*
X146794738Y-92241081D01*
X146802004Y-92204556D01*
X146826499Y-92081407D01*
X146826500Y-92081405D01*
X146826500Y-91918594D01*
X146826499Y-91918592D01*
X146794740Y-91758926D01*
X146794737Y-91758917D01*
X146732437Y-91608509D01*
X146732436Y-91608507D01*
X146641984Y-91473137D01*
X146641981Y-91473133D01*
X146526866Y-91358018D01*
X146526862Y-91358015D01*
X146391492Y-91267563D01*
X146391490Y-91267562D01*
X146241082Y-91205262D01*
X146241073Y-91205259D01*
X146081406Y-91173500D01*
X146081403Y-91173500D01*
X145918597Y-91173500D01*
X145918594Y-91173500D01*
X145758926Y-91205259D01*
X145758917Y-91205262D01*
X145608509Y-91267562D01*
X145608507Y-91267563D01*
X145473137Y-91358015D01*
X145473133Y-91358018D01*
X145358018Y-91473133D01*
X145358015Y-91473137D01*
X145267563Y-91608507D01*
X145267562Y-91608509D01*
X145205262Y-91758917D01*
X145205259Y-91758926D01*
X145173500Y-91918592D01*
X145173500Y-92081407D01*
X117826499Y-92081407D01*
X117826500Y-92081405D01*
X117826500Y-91918594D01*
X117826499Y-91918592D01*
X117794740Y-91758926D01*
X117794737Y-91758917D01*
X117732437Y-91608509D01*
X117732436Y-91608507D01*
X117641984Y-91473137D01*
X117641981Y-91473133D01*
X117526866Y-91358018D01*
X117526862Y-91358015D01*
X117391492Y-91267563D01*
X117391490Y-91267562D01*
X117241082Y-91205262D01*
X117241073Y-91205259D01*
X117081406Y-91173500D01*
X117081403Y-91173500D01*
X116918597Y-91173500D01*
X116918594Y-91173500D01*
X116758926Y-91205259D01*
X116758917Y-91205262D01*
X116608509Y-91267562D01*
X116608507Y-91267563D01*
X116473137Y-91358015D01*
X116473133Y-91358018D01*
X116358018Y-91473133D01*
X116358015Y-91473137D01*
X116267563Y-91608507D01*
X116267562Y-91608509D01*
X116205262Y-91758917D01*
X116205259Y-91758926D01*
X116173500Y-91918592D01*
X116173500Y-92081407D01*
X110506322Y-92081407D01*
X110500816Y-92004418D01*
X110500500Y-91995572D01*
X110500500Y-89086611D01*
X112174500Y-89086611D01*
X112201598Y-89257701D01*
X112255127Y-89422445D01*
X112333768Y-89576788D01*
X112435586Y-89716928D01*
X112558072Y-89839414D01*
X112698212Y-89941232D01*
X112852555Y-90019873D01*
X113017299Y-90073402D01*
X113188389Y-90100500D01*
X113188390Y-90100500D01*
X113911610Y-90100500D01*
X113911611Y-90100500D01*
X114082701Y-90073402D01*
X114247445Y-90019873D01*
X114401788Y-89941232D01*
X114541928Y-89839414D01*
X114664414Y-89716928D01*
X114766232Y-89576788D01*
X114805356Y-89500003D01*
X120194435Y-89500003D01*
X120214630Y-89679249D01*
X120214631Y-89679254D01*
X120274211Y-89849523D01*
X120331836Y-89941232D01*
X120370184Y-90002262D01*
X120497738Y-90129816D01*
X120650478Y-90225789D01*
X120820745Y-90285368D01*
X120820750Y-90285369D01*
X120999996Y-90305565D01*
X121000000Y-90305565D01*
X121000004Y-90305565D01*
X121179249Y-90285369D01*
X121179252Y-90285368D01*
X121179255Y-90285368D01*
X121349522Y-90225789D01*
X121502262Y-90129816D01*
X121629816Y-90002262D01*
X121725789Y-89849522D01*
X121785368Y-89679255D01*
X121791481Y-89625003D01*
X134569435Y-89625003D01*
X134589630Y-89804249D01*
X134589631Y-89804254D01*
X134649211Y-89974523D01*
X134677707Y-90019873D01*
X134745184Y-90127262D01*
X134872738Y-90254816D01*
X135025478Y-90350789D01*
X135195745Y-90410368D01*
X135195750Y-90410369D01*
X135374996Y-90430565D01*
X135375000Y-90430565D01*
X135375004Y-90430565D01*
X135554249Y-90410369D01*
X135554252Y-90410368D01*
X135554255Y-90410368D01*
X135724522Y-90350789D01*
X135877262Y-90254816D01*
X136004816Y-90127262D01*
X136100789Y-89974522D01*
X136160368Y-89804255D01*
X136170207Y-89716930D01*
X136180565Y-89625003D01*
X136180565Y-89624996D01*
X136160369Y-89445750D01*
X136160368Y-89445745D01*
X136152215Y-89422445D01*
X136100789Y-89275478D01*
X136089616Y-89257697D01*
X136061582Y-89213080D01*
X136004816Y-89122738D01*
X135877262Y-88995184D01*
X135724523Y-88899211D01*
X135554254Y-88839631D01*
X135554249Y-88839630D01*
X135375004Y-88819435D01*
X135374996Y-88819435D01*
X135195750Y-88839630D01*
X135195745Y-88839631D01*
X135025476Y-88899211D01*
X134872737Y-88995184D01*
X134745184Y-89122737D01*
X134649211Y-89275476D01*
X134589631Y-89445745D01*
X134589630Y-89445750D01*
X134569435Y-89624996D01*
X134569435Y-89625003D01*
X121791481Y-89625003D01*
X121791481Y-89625000D01*
X121805565Y-89500003D01*
X121805565Y-89499996D01*
X121785369Y-89320750D01*
X121785368Y-89320745D01*
X121763308Y-89257701D01*
X121725789Y-89150478D01*
X121629816Y-88997738D01*
X121502262Y-88870184D01*
X121453639Y-88839632D01*
X121349523Y-88774211D01*
X121179254Y-88714631D01*
X121179249Y-88714630D01*
X121000004Y-88694435D01*
X120999996Y-88694435D01*
X120820750Y-88714630D01*
X120820745Y-88714631D01*
X120650476Y-88774211D01*
X120497737Y-88870184D01*
X120370184Y-88997737D01*
X120274211Y-89150476D01*
X120214631Y-89320745D01*
X120214630Y-89320750D01*
X120194435Y-89499996D01*
X120194435Y-89500003D01*
X114805356Y-89500003D01*
X114844873Y-89422445D01*
X114898402Y-89257701D01*
X114925500Y-89086611D01*
X114925500Y-88913389D01*
X114898402Y-88742299D01*
X114844873Y-88577555D01*
X114830835Y-88550003D01*
X130894435Y-88550003D01*
X130914630Y-88729249D01*
X130914631Y-88729254D01*
X130974211Y-88899523D01*
X131035924Y-88997738D01*
X131070184Y-89052262D01*
X131197738Y-89179816D01*
X131288080Y-89236582D01*
X131349979Y-89275476D01*
X131350478Y-89275789D01*
X131478955Y-89320745D01*
X131520745Y-89335368D01*
X131520750Y-89335369D01*
X131699996Y-89355565D01*
X131700000Y-89355565D01*
X131700004Y-89355565D01*
X131879249Y-89335369D01*
X131879252Y-89335368D01*
X131879255Y-89335368D01*
X132049522Y-89275789D01*
X132202262Y-89179816D01*
X132329816Y-89052262D01*
X132425789Y-88899522D01*
X132485368Y-88729255D01*
X132487016Y-88714630D01*
X132505565Y-88550003D01*
X132505565Y-88549996D01*
X132485369Y-88370750D01*
X132485368Y-88370745D01*
X132425789Y-88200478D01*
X132400724Y-88160588D01*
X132362854Y-88100318D01*
X132329816Y-88047738D01*
X132202262Y-87920184D01*
X132169635Y-87899683D01*
X132049523Y-87824211D01*
X131980341Y-87800003D01*
X137894435Y-87800003D01*
X137914630Y-87979249D01*
X137914631Y-87979254D01*
X137974211Y-88149523D01*
X138058124Y-88283069D01*
X138070184Y-88302262D01*
X138197738Y-88429816D01*
X138350478Y-88525789D01*
X138419678Y-88550003D01*
X138520745Y-88585368D01*
X138520750Y-88585369D01*
X138699996Y-88605565D01*
X138700000Y-88605565D01*
X138700004Y-88605565D01*
X138879249Y-88585369D01*
X138879252Y-88585368D01*
X138879255Y-88585368D01*
X139049522Y-88525789D01*
X139202262Y-88429816D01*
X139329816Y-88302262D01*
X139425789Y-88149522D01*
X139485368Y-87979255D01*
X139485369Y-87979249D01*
X139505565Y-87800003D01*
X139505565Y-87799996D01*
X139485369Y-87620750D01*
X139485368Y-87620745D01*
X139469987Y-87576788D01*
X139425789Y-87450478D01*
X139329816Y-87297738D01*
X139202262Y-87170184D01*
X139170897Y-87150476D01*
X139049523Y-87074211D01*
X138879254Y-87014631D01*
X138879249Y-87014630D01*
X138700004Y-86994435D01*
X138699996Y-86994435D01*
X138520750Y-87014630D01*
X138520745Y-87014631D01*
X138350476Y-87074211D01*
X138197737Y-87170184D01*
X138070184Y-87297737D01*
X137974211Y-87450476D01*
X137914631Y-87620745D01*
X137914630Y-87620750D01*
X137894435Y-87799996D01*
X137894435Y-87800003D01*
X131980341Y-87800003D01*
X131879254Y-87764631D01*
X131879249Y-87764630D01*
X131700004Y-87744435D01*
X131699996Y-87744435D01*
X131520750Y-87764630D01*
X131520745Y-87764631D01*
X131350476Y-87824211D01*
X131197737Y-87920184D01*
X131070184Y-88047737D01*
X130974211Y-88200476D01*
X130914631Y-88370745D01*
X130914630Y-88370750D01*
X130894435Y-88549996D01*
X130894435Y-88550003D01*
X114830835Y-88550003D01*
X114766232Y-88423212D01*
X114664414Y-88283072D01*
X114541928Y-88160586D01*
X114458975Y-88100317D01*
X114416311Y-88044988D01*
X114410332Y-87975374D01*
X114442938Y-87913579D01*
X114458976Y-87899682D01*
X114541928Y-87839414D01*
X114664414Y-87716928D01*
X114766232Y-87576788D01*
X114805356Y-87500003D01*
X120194435Y-87500003D01*
X120214630Y-87679249D01*
X120214631Y-87679254D01*
X120274211Y-87849523D01*
X120318611Y-87920184D01*
X120370184Y-88002262D01*
X120497738Y-88129816D01*
X120588080Y-88186582D01*
X120610192Y-88200476D01*
X120650478Y-88225789D01*
X120814175Y-88283069D01*
X120820745Y-88285368D01*
X120820750Y-88285369D01*
X120999996Y-88305565D01*
X121000000Y-88305565D01*
X121000004Y-88305565D01*
X121179249Y-88285369D01*
X121179252Y-88285368D01*
X121179255Y-88285368D01*
X121349522Y-88225789D01*
X121502262Y-88129816D01*
X121629816Y-88002262D01*
X121725789Y-87849522D01*
X121785368Y-87679255D01*
X121791960Y-87620750D01*
X121805565Y-87500003D01*
X121805565Y-87499996D01*
X121785369Y-87320750D01*
X121785368Y-87320745D01*
X121725789Y-87150478D01*
X121629816Y-86997738D01*
X121502262Y-86870184D01*
X121399422Y-86805565D01*
X121349523Y-86774211D01*
X121179254Y-86714631D01*
X121179249Y-86714630D01*
X121000004Y-86694435D01*
X120999996Y-86694435D01*
X120820750Y-86714630D01*
X120820745Y-86714631D01*
X120650476Y-86774211D01*
X120497737Y-86870184D01*
X120370184Y-86997737D01*
X120274211Y-87150476D01*
X120214631Y-87320745D01*
X120214630Y-87320750D01*
X120194435Y-87499996D01*
X120194435Y-87500003D01*
X114805356Y-87500003D01*
X114844873Y-87422445D01*
X114898402Y-87257701D01*
X114925500Y-87086611D01*
X114925500Y-86913389D01*
X114898402Y-86742299D01*
X114844873Y-86577555D01*
X114766232Y-86423212D01*
X114664414Y-86283072D01*
X114541928Y-86160586D01*
X114458975Y-86100317D01*
X114416311Y-86044988D01*
X114410332Y-85975374D01*
X114442938Y-85913579D01*
X114458976Y-85899682D01*
X114541928Y-85839414D01*
X114664414Y-85716928D01*
X114766232Y-85576788D01*
X114844873Y-85422445D01*
X114898402Y-85257701D01*
X114925500Y-85086611D01*
X114925500Y-85025003D01*
X123719435Y-85025003D01*
X123739630Y-85204249D01*
X123739631Y-85204254D01*
X123799211Y-85374523D01*
X123815211Y-85399986D01*
X123895184Y-85527262D01*
X124022738Y-85654816D01*
X124175478Y-85750789D01*
X124329781Y-85804782D01*
X124345745Y-85810368D01*
X124345750Y-85810369D01*
X124524996Y-85830565D01*
X124525000Y-85830565D01*
X124525003Y-85830565D01*
X124561435Y-85826460D01*
X124630257Y-85838514D01*
X124681637Y-85885863D01*
X124699261Y-85953474D01*
X124698540Y-85963561D01*
X124695040Y-85994625D01*
X124694436Y-85999996D01*
X124694435Y-86000001D01*
X124694435Y-86000003D01*
X124714630Y-86179249D01*
X124714631Y-86179254D01*
X124774211Y-86349523D01*
X124870184Y-86502262D01*
X124997738Y-86629816D01*
X125088080Y-86686582D01*
X125132721Y-86714632D01*
X125150478Y-86725789D01*
X125288860Y-86774211D01*
X125320745Y-86785368D01*
X125320750Y-86785369D01*
X125499996Y-86805565D01*
X125500000Y-86805565D01*
X125500004Y-86805565D01*
X125679249Y-86785369D01*
X125679252Y-86785368D01*
X125679255Y-86785368D01*
X125849522Y-86725789D01*
X126002262Y-86629816D01*
X126129816Y-86502262D01*
X126225789Y-86349522D01*
X126285368Y-86179255D01*
X126285369Y-86179249D01*
X126305565Y-86000003D01*
X126305565Y-85999996D01*
X126285369Y-85820750D01*
X126285368Y-85820745D01*
X126260889Y-85750788D01*
X126225789Y-85650478D01*
X126129816Y-85497738D01*
X126002262Y-85370184D01*
X125969255Y-85349444D01*
X125849523Y-85274211D01*
X125679254Y-85214631D01*
X125679249Y-85214630D01*
X125500004Y-85194435D01*
X125500002Y-85194435D01*
X125500000Y-85194435D01*
X125490632Y-85195490D01*
X125463561Y-85198540D01*
X125394739Y-85186483D01*
X125343361Y-85139133D01*
X125325738Y-85071522D01*
X125326460Y-85061435D01*
X125330565Y-85025002D01*
X125330565Y-85024996D01*
X125310369Y-84845750D01*
X125310368Y-84845745D01*
X125274172Y-84742302D01*
X125250789Y-84675478D01*
X125235129Y-84650556D01*
X125171646Y-84549523D01*
X125154816Y-84522738D01*
X125027262Y-84395184D01*
X125001902Y-84379249D01*
X124874523Y-84299211D01*
X124704254Y-84239631D01*
X124704249Y-84239630D01*
X124525004Y-84219435D01*
X124524996Y-84219435D01*
X124345750Y-84239630D01*
X124345745Y-84239631D01*
X124175476Y-84299211D01*
X124022737Y-84395184D01*
X123895184Y-84522737D01*
X123799211Y-84675476D01*
X123739631Y-84845745D01*
X123739630Y-84845750D01*
X123719435Y-85024996D01*
X123719435Y-85025003D01*
X114925500Y-85025003D01*
X114925500Y-84913389D01*
X114898402Y-84742299D01*
X114844873Y-84577555D01*
X114766232Y-84423212D01*
X114664414Y-84283072D01*
X114581345Y-84200003D01*
X130494435Y-84200003D01*
X130514630Y-84379249D01*
X130514631Y-84379254D01*
X130574211Y-84549523D01*
X130605946Y-84600028D01*
X130670184Y-84702262D01*
X130797738Y-84829816D01*
X130823089Y-84845745D01*
X130930743Y-84913389D01*
X130950478Y-84925789D01*
X131120745Y-84985368D01*
X131120750Y-84985369D01*
X131299996Y-85005565D01*
X131300000Y-85005565D01*
X131300004Y-85005565D01*
X131479249Y-84985369D01*
X131479252Y-84985368D01*
X131479255Y-84985368D01*
X131649522Y-84925789D01*
X131802262Y-84829816D01*
X131929816Y-84702262D01*
X132025789Y-84549522D01*
X132085368Y-84379255D01*
X132096205Y-84283072D01*
X132105565Y-84200003D01*
X132105565Y-84199996D01*
X132085369Y-84020750D01*
X132085368Y-84020745D01*
X132066249Y-83966105D01*
X132025789Y-83850478D01*
X131929816Y-83697738D01*
X131802262Y-83570184D01*
X131649523Y-83474211D01*
X131479254Y-83414631D01*
X131479249Y-83414630D01*
X131300004Y-83394435D01*
X131299996Y-83394435D01*
X131120750Y-83414630D01*
X131120745Y-83414631D01*
X130950476Y-83474211D01*
X130797737Y-83570184D01*
X130670184Y-83697737D01*
X130574211Y-83850476D01*
X130514631Y-84020745D01*
X130514630Y-84020750D01*
X130494435Y-84199996D01*
X130494435Y-84200003D01*
X114581345Y-84200003D01*
X114541928Y-84160586D01*
X114458975Y-84100317D01*
X114416311Y-84044988D01*
X114410332Y-83975374D01*
X114442938Y-83913579D01*
X114458976Y-83899682D01*
X114462471Y-83897143D01*
X114541928Y-83839414D01*
X114664414Y-83716928D01*
X114766232Y-83576788D01*
X114844873Y-83422445D01*
X114898402Y-83257701D01*
X114925500Y-83086611D01*
X143074500Y-83086611D01*
X143101598Y-83257701D01*
X143155127Y-83422445D01*
X143233768Y-83576788D01*
X143335586Y-83716928D01*
X143335588Y-83716930D01*
X143443491Y-83824833D01*
X143476976Y-83886156D01*
X143471992Y-83955848D01*
X143430120Y-84011781D01*
X143420907Y-84018053D01*
X143356654Y-84057684D01*
X143232684Y-84181654D01*
X143140643Y-84330875D01*
X143140641Y-84330880D01*
X143085494Y-84497302D01*
X143085493Y-84497309D01*
X143075000Y-84600013D01*
X143075000Y-84750000D01*
X144169670Y-84750000D01*
X144149925Y-84769745D01*
X144100556Y-84855255D01*
X144075000Y-84950630D01*
X144075000Y-85049370D01*
X144100556Y-85144745D01*
X144149925Y-85230255D01*
X144169670Y-85250000D01*
X143075001Y-85250000D01*
X143075001Y-85399986D01*
X143085494Y-85502697D01*
X143140641Y-85669119D01*
X143140643Y-85669124D01*
X143232684Y-85818345D01*
X143356654Y-85942315D01*
X143505875Y-86034356D01*
X143505880Y-86034358D01*
X143672302Y-86089505D01*
X143672309Y-86089506D01*
X143775019Y-86099999D01*
X144199999Y-86099999D01*
X144200000Y-86099998D01*
X144200000Y-85280330D01*
X144219745Y-85300075D01*
X144305255Y-85349444D01*
X144400630Y-85375000D01*
X144499370Y-85375000D01*
X144594745Y-85349444D01*
X144680255Y-85300075D01*
X144700000Y-85280330D01*
X144700000Y-86099999D01*
X145124972Y-86099999D01*
X145124986Y-86099998D01*
X145227697Y-86089505D01*
X145394119Y-86034358D01*
X145394124Y-86034356D01*
X145543345Y-85942315D01*
X145667315Y-85818345D01*
X145759356Y-85669124D01*
X145759358Y-85669119D01*
X145814505Y-85502697D01*
X145814506Y-85502690D01*
X145824999Y-85399986D01*
X145825000Y-85399973D01*
X145825000Y-85250000D01*
X144730330Y-85250000D01*
X144750075Y-85230255D01*
X144799444Y-85144745D01*
X144825000Y-85049370D01*
X144825000Y-84950630D01*
X144799444Y-84855255D01*
X144750075Y-84769745D01*
X144730330Y-84750000D01*
X145824999Y-84750000D01*
X145824999Y-84600028D01*
X145824998Y-84600013D01*
X145814505Y-84497302D01*
X145759358Y-84330880D01*
X145759356Y-84330875D01*
X145667315Y-84181654D01*
X145543343Y-84057682D01*
X145479093Y-84018053D01*
X145432368Y-83966105D01*
X145421145Y-83897143D01*
X145448988Y-83833061D01*
X145456486Y-83824855D01*
X145564414Y-83716928D01*
X145666232Y-83576788D01*
X145744873Y-83422445D01*
X145798402Y-83257701D01*
X145825500Y-83086611D01*
X145825500Y-82913389D01*
X145798402Y-82742299D01*
X145744873Y-82577555D01*
X145666232Y-82423212D01*
X145564414Y-82283072D01*
X145441928Y-82160586D01*
X145358975Y-82100317D01*
X145316311Y-82044988D01*
X145310332Y-81975374D01*
X145342938Y-81913579D01*
X145358976Y-81899682D01*
X145441928Y-81839414D01*
X145564414Y-81716928D01*
X145666232Y-81576788D01*
X145744873Y-81422445D01*
X145798402Y-81257701D01*
X145825500Y-81086611D01*
X145825500Y-80913389D01*
X145798402Y-80742299D01*
X145744873Y-80577555D01*
X145666232Y-80423212D01*
X145564414Y-80283072D01*
X145441928Y-80160586D01*
X145358975Y-80100317D01*
X145316311Y-80044988D01*
X145310332Y-79975374D01*
X145342938Y-79913579D01*
X145358976Y-79899682D01*
X145441928Y-79839414D01*
X145564414Y-79716928D01*
X145666232Y-79576788D01*
X145744873Y-79422445D01*
X145798402Y-79257701D01*
X145825500Y-79086611D01*
X145825500Y-78913389D01*
X145798402Y-78742299D01*
X145744873Y-78577555D01*
X145666232Y-78423212D01*
X145564414Y-78283072D01*
X145441928Y-78160586D01*
X145301788Y-78058768D01*
X145147445Y-77980127D01*
X144982701Y-77926598D01*
X144982699Y-77926597D01*
X144982698Y-77926597D01*
X144851271Y-77905781D01*
X144811611Y-77899500D01*
X144088389Y-77899500D01*
X144048728Y-77905781D01*
X143917302Y-77926597D01*
X143752552Y-77980128D01*
X143598211Y-78058768D01*
X143518256Y-78116859D01*
X143458072Y-78160586D01*
X143458070Y-78160588D01*
X143458069Y-78160588D01*
X143335588Y-78283069D01*
X143335588Y-78283070D01*
X143335586Y-78283072D01*
X143291859Y-78343256D01*
X143233768Y-78423211D01*
X143155128Y-78577552D01*
X143101597Y-78742302D01*
X143074500Y-78913389D01*
X143074500Y-79086611D01*
X143101598Y-79257701D01*
X143155127Y-79422445D01*
X143233768Y-79576788D01*
X143335586Y-79716928D01*
X143458072Y-79839414D01*
X143471986Y-79849523D01*
X143541023Y-79899683D01*
X143583689Y-79955013D01*
X143589667Y-80024626D01*
X143557061Y-80086421D01*
X143541023Y-80100317D01*
X143458078Y-80160581D01*
X143458069Y-80160588D01*
X143335588Y-80283069D01*
X143335588Y-80283070D01*
X143335586Y-80283072D01*
X143319244Y-80305565D01*
X143233768Y-80423211D01*
X143155128Y-80577552D01*
X143101597Y-80742302D01*
X143074500Y-80913389D01*
X143074500Y-81086610D01*
X143096543Y-81225789D01*
X143101598Y-81257701D01*
X143155127Y-81422445D01*
X143233768Y-81576788D01*
X143335586Y-81716928D01*
X143458072Y-81839414D01*
X143458078Y-81839418D01*
X143541023Y-81899683D01*
X143583689Y-81955013D01*
X143589667Y-82024626D01*
X143557061Y-82086421D01*
X143541023Y-82100317D01*
X143458078Y-82160581D01*
X143458069Y-82160588D01*
X143335588Y-82283069D01*
X143335588Y-82283070D01*
X143335586Y-82283072D01*
X143291859Y-82343256D01*
X143233768Y-82423211D01*
X143155128Y-82577552D01*
X143101597Y-82742302D01*
X143074500Y-82913389D01*
X143074500Y-83086611D01*
X114925500Y-83086611D01*
X114925500Y-82913389D01*
X114898402Y-82742299D01*
X114844873Y-82577555D01*
X114766232Y-82423212D01*
X114664414Y-82283072D01*
X114541928Y-82160586D01*
X114458975Y-82100317D01*
X114416311Y-82044988D01*
X114410332Y-81975374D01*
X114442938Y-81913579D01*
X114458976Y-81899682D01*
X114541928Y-81839414D01*
X114664414Y-81716928D01*
X114766232Y-81576788D01*
X114844873Y-81422445D01*
X114898402Y-81257701D01*
X114925500Y-81086611D01*
X114925500Y-80913389D01*
X114898402Y-80742299D01*
X114844873Y-80577555D01*
X114805359Y-80500003D01*
X120694435Y-80500003D01*
X120714630Y-80679249D01*
X120714631Y-80679254D01*
X120774211Y-80849523D01*
X120814341Y-80913389D01*
X120870184Y-81002262D01*
X120997738Y-81129816D01*
X121150478Y-81225789D01*
X121320745Y-81285368D01*
X121320750Y-81285369D01*
X121499996Y-81305565D01*
X121500000Y-81305565D01*
X121500004Y-81305565D01*
X121679249Y-81285369D01*
X121679252Y-81285368D01*
X121679255Y-81285368D01*
X121849522Y-81225789D01*
X122002262Y-81129816D01*
X122129816Y-81002262D01*
X122225789Y-80849522D01*
X122285368Y-80679255D01*
X122305565Y-80500000D01*
X122296913Y-80423212D01*
X122285369Y-80320750D01*
X122285368Y-80320745D01*
X122225788Y-80150475D01*
X122172691Y-80065973D01*
X122153690Y-79998736D01*
X122172691Y-79934027D01*
X122225788Y-79849524D01*
X122225789Y-79849522D01*
X122285368Y-79679255D01*
X122305565Y-79500003D01*
X125694435Y-79500003D01*
X125714630Y-79679249D01*
X125714631Y-79679254D01*
X125774211Y-79849523D01*
X125827309Y-79934027D01*
X125870184Y-80002262D01*
X125997738Y-80129816D01*
X126150478Y-80225789D01*
X126314175Y-80283069D01*
X126320745Y-80285368D01*
X126320750Y-80285369D01*
X126499996Y-80305565D01*
X126500000Y-80305565D01*
X126500004Y-80305565D01*
X126679249Y-80285369D01*
X126679252Y-80285368D01*
X126679255Y-80285368D01*
X126849522Y-80225789D01*
X127002262Y-80129816D01*
X127129816Y-80002262D01*
X127225789Y-79849522D01*
X127285368Y-79679255D01*
X127305565Y-79500003D01*
X130494435Y-79500003D01*
X130514630Y-79679249D01*
X130514631Y-79679254D01*
X130574211Y-79849523D01*
X130627309Y-79934027D01*
X130670184Y-80002262D01*
X130797738Y-80129816D01*
X130950478Y-80225789D01*
X131114175Y-80283069D01*
X131120745Y-80285368D01*
X131120750Y-80285369D01*
X131299996Y-80305565D01*
X131300000Y-80305565D01*
X131300004Y-80305565D01*
X131479249Y-80285369D01*
X131479252Y-80285368D01*
X131479255Y-80285368D01*
X131649522Y-80225789D01*
X131802262Y-80129816D01*
X131929816Y-80002262D01*
X132025789Y-79849522D01*
X132085368Y-79679255D01*
X132105565Y-79500000D01*
X132085368Y-79320745D01*
X132025789Y-79150478D01*
X131929816Y-78997738D01*
X131802262Y-78870184D01*
X131740961Y-78831666D01*
X131649523Y-78774211D01*
X131479254Y-78714631D01*
X131479249Y-78714630D01*
X131300004Y-78694435D01*
X131299996Y-78694435D01*
X131120750Y-78714630D01*
X131120745Y-78714631D01*
X130950476Y-78774211D01*
X130797737Y-78870184D01*
X130670184Y-78997737D01*
X130574211Y-79150476D01*
X130514631Y-79320745D01*
X130514630Y-79320750D01*
X130494435Y-79499996D01*
X130494435Y-79500003D01*
X127305565Y-79500003D01*
X127305565Y-79500000D01*
X127285368Y-79320745D01*
X127225789Y-79150478D01*
X127129816Y-78997738D01*
X127094759Y-78962681D01*
X127061274Y-78901358D01*
X127066258Y-78831666D01*
X127094759Y-78787319D01*
X127107867Y-78774211D01*
X127129816Y-78752262D01*
X127225789Y-78599522D01*
X127285368Y-78429255D01*
X127305565Y-78250000D01*
X127287134Y-78086421D01*
X127285369Y-78070750D01*
X127285368Y-78070745D01*
X127251996Y-77975374D01*
X127225789Y-77900478D01*
X127225289Y-77899683D01*
X127129815Y-77747737D01*
X127002262Y-77620184D01*
X126849523Y-77524211D01*
X126679254Y-77464631D01*
X126679249Y-77464630D01*
X126500004Y-77444435D01*
X126499996Y-77444435D01*
X126320750Y-77464630D01*
X126320745Y-77464631D01*
X126150476Y-77524211D01*
X125997737Y-77620184D01*
X125870184Y-77747737D01*
X125774211Y-77900476D01*
X125714631Y-78070745D01*
X125714630Y-78070750D01*
X125694435Y-78249996D01*
X125694435Y-78250003D01*
X125714630Y-78429249D01*
X125714631Y-78429254D01*
X125774211Y-78599523D01*
X125870184Y-78752262D01*
X125905241Y-78787319D01*
X125938726Y-78848642D01*
X125933742Y-78918334D01*
X125905241Y-78962681D01*
X125870184Y-78997737D01*
X125774211Y-79150476D01*
X125714631Y-79320745D01*
X125714630Y-79320750D01*
X125694435Y-79499996D01*
X125694435Y-79500003D01*
X122305565Y-79500003D01*
X122305565Y-79500000D01*
X122285368Y-79320745D01*
X122225789Y-79150478D01*
X122129816Y-78997738D01*
X122002262Y-78870184D01*
X121940961Y-78831666D01*
X121849523Y-78774211D01*
X121679254Y-78714631D01*
X121679249Y-78714630D01*
X121500004Y-78694435D01*
X121499996Y-78694435D01*
X121320750Y-78714630D01*
X121320745Y-78714631D01*
X121150476Y-78774211D01*
X120997737Y-78870184D01*
X120870184Y-78997737D01*
X120774211Y-79150476D01*
X120714631Y-79320745D01*
X120714630Y-79320750D01*
X120694435Y-79499996D01*
X120694435Y-79500003D01*
X120714630Y-79679249D01*
X120714633Y-79679262D01*
X120774209Y-79849520D01*
X120827309Y-79934029D01*
X120846309Y-80001266D01*
X120827309Y-80065971D01*
X120774209Y-80150479D01*
X120714633Y-80320737D01*
X120714630Y-80320750D01*
X120694435Y-80499996D01*
X120694435Y-80500003D01*
X114805359Y-80500003D01*
X114766232Y-80423212D01*
X114664414Y-80283072D01*
X114541928Y-80160586D01*
X114458975Y-80100317D01*
X114416311Y-80044988D01*
X114410332Y-79975374D01*
X114442938Y-79913579D01*
X114458976Y-79899682D01*
X114541928Y-79839414D01*
X114664414Y-79716928D01*
X114766232Y-79576788D01*
X114844873Y-79422445D01*
X114898402Y-79257701D01*
X114925500Y-79086611D01*
X114925500Y-78913389D01*
X114898402Y-78742299D01*
X114844873Y-78577555D01*
X114766232Y-78423212D01*
X114664414Y-78283072D01*
X114541928Y-78160586D01*
X114458975Y-78100317D01*
X114416311Y-78044988D01*
X114410332Y-77975374D01*
X114442938Y-77913579D01*
X114458976Y-77899682D01*
X114541928Y-77839414D01*
X114664414Y-77716928D01*
X114766232Y-77576788D01*
X114844873Y-77422445D01*
X114898402Y-77257701D01*
X114925500Y-77086611D01*
X114925500Y-76913389D01*
X114898402Y-76742299D01*
X114844873Y-76577555D01*
X114766232Y-76423212D01*
X114664414Y-76283072D01*
X114556508Y-76175166D01*
X114523023Y-76113843D01*
X114528007Y-76044151D01*
X114569879Y-75988218D01*
X114579094Y-75981945D01*
X114643345Y-75942315D01*
X114767315Y-75818345D01*
X114859356Y-75669124D01*
X114859358Y-75669119D01*
X114914505Y-75502697D01*
X114914506Y-75502690D01*
X114924999Y-75399986D01*
X114925000Y-75399973D01*
X114925000Y-75250000D01*
X113830330Y-75250000D01*
X113850075Y-75230255D01*
X113899444Y-75144745D01*
X113925000Y-75049370D01*
X113925000Y-74950630D01*
X113899444Y-74855255D01*
X113850075Y-74769745D01*
X113830330Y-74750000D01*
X114924999Y-74750000D01*
X114924999Y-74600028D01*
X114924998Y-74600013D01*
X114914505Y-74497302D01*
X114859358Y-74330880D01*
X114859356Y-74330875D01*
X114767315Y-74181654D01*
X114643345Y-74057684D01*
X114494124Y-73965643D01*
X114494119Y-73965641D01*
X114327697Y-73910494D01*
X114327690Y-73910493D01*
X114224986Y-73900000D01*
X113800000Y-73900000D01*
X113800000Y-74719670D01*
X113780255Y-74699925D01*
X113694745Y-74650556D01*
X113599370Y-74625000D01*
X113500630Y-74625000D01*
X113405255Y-74650556D01*
X113319745Y-74699925D01*
X113300000Y-74719670D01*
X113300000Y-73900000D01*
X112875028Y-73900000D01*
X112875012Y-73900001D01*
X112772302Y-73910494D01*
X112605880Y-73965641D01*
X112605875Y-73965643D01*
X112456654Y-74057684D01*
X112332684Y-74181654D01*
X112240643Y-74330875D01*
X112240641Y-74330880D01*
X112185494Y-74497302D01*
X112185493Y-74497309D01*
X112175000Y-74600013D01*
X112175000Y-74750000D01*
X113269670Y-74750000D01*
X113249925Y-74769745D01*
X113200556Y-74855255D01*
X113175000Y-74950630D01*
X113175000Y-75049370D01*
X113200556Y-75144745D01*
X113249925Y-75230255D01*
X113269670Y-75250000D01*
X112175001Y-75250000D01*
X112175001Y-75399986D01*
X112185494Y-75502697D01*
X112240641Y-75669119D01*
X112240643Y-75669124D01*
X112332684Y-75818345D01*
X112456656Y-75942317D01*
X112520906Y-75981946D01*
X112567631Y-76033893D01*
X112578854Y-76102856D01*
X112551011Y-76166938D01*
X112543492Y-76175166D01*
X112435585Y-76283073D01*
X112333768Y-76423211D01*
X112255128Y-76577552D01*
X112201597Y-76742302D01*
X112174500Y-76913389D01*
X112174500Y-77086611D01*
X112201598Y-77257701D01*
X112255127Y-77422445D01*
X112333768Y-77576788D01*
X112435586Y-77716928D01*
X112558072Y-77839414D01*
X112558078Y-77839418D01*
X112641023Y-77899683D01*
X112683689Y-77955013D01*
X112689667Y-78024626D01*
X112657061Y-78086421D01*
X112641023Y-78100317D01*
X112558078Y-78160581D01*
X112558069Y-78160588D01*
X112435588Y-78283069D01*
X112435588Y-78283070D01*
X112435586Y-78283072D01*
X112391859Y-78343256D01*
X112333768Y-78423211D01*
X112255128Y-78577552D01*
X112201597Y-78742302D01*
X112174500Y-78913389D01*
X112174500Y-79086611D01*
X112201598Y-79257701D01*
X112255127Y-79422445D01*
X112333768Y-79576788D01*
X112435586Y-79716928D01*
X112558072Y-79839414D01*
X112571986Y-79849523D01*
X112641023Y-79899683D01*
X112683689Y-79955013D01*
X112689667Y-80024626D01*
X112657061Y-80086421D01*
X112641023Y-80100317D01*
X112558078Y-80160581D01*
X112558069Y-80160588D01*
X112435588Y-80283069D01*
X112435588Y-80283070D01*
X112435586Y-80283072D01*
X112419244Y-80305565D01*
X112333768Y-80423211D01*
X112255128Y-80577552D01*
X112201597Y-80742302D01*
X112174500Y-80913389D01*
X112174500Y-81086610D01*
X112196543Y-81225789D01*
X112201598Y-81257701D01*
X112255127Y-81422445D01*
X112333768Y-81576788D01*
X112435586Y-81716928D01*
X112558072Y-81839414D01*
X112558078Y-81839418D01*
X112641023Y-81899683D01*
X112683689Y-81955013D01*
X112689667Y-82024626D01*
X112657061Y-82086421D01*
X112641023Y-82100317D01*
X112558078Y-82160581D01*
X112558069Y-82160588D01*
X112435588Y-82283069D01*
X112435588Y-82283070D01*
X112435586Y-82283072D01*
X112391859Y-82343256D01*
X112333768Y-82423211D01*
X112255128Y-82577552D01*
X112201597Y-82742302D01*
X112174500Y-82913389D01*
X112174500Y-83086611D01*
X112201598Y-83257701D01*
X112255127Y-83422445D01*
X112333768Y-83576788D01*
X112435586Y-83716928D01*
X112558072Y-83839414D01*
X112573300Y-83850478D01*
X112641023Y-83899683D01*
X112683689Y-83955013D01*
X112689667Y-84024626D01*
X112657061Y-84086421D01*
X112641023Y-84100317D01*
X112558078Y-84160581D01*
X112558069Y-84160588D01*
X112435588Y-84283069D01*
X112435588Y-84283070D01*
X112435586Y-84283072D01*
X112400855Y-84330875D01*
X112333768Y-84423211D01*
X112255128Y-84577552D01*
X112201597Y-84742302D01*
X112174500Y-84913389D01*
X112174500Y-85086610D01*
X112194776Y-85214632D01*
X112201598Y-85257701D01*
X112255127Y-85422445D01*
X112333768Y-85576788D01*
X112435586Y-85716928D01*
X112558072Y-85839414D01*
X112558078Y-85839418D01*
X112641023Y-85899683D01*
X112683689Y-85955013D01*
X112689667Y-86024626D01*
X112657061Y-86086421D01*
X112641023Y-86100317D01*
X112558078Y-86160581D01*
X112558069Y-86160588D01*
X112435588Y-86283069D01*
X112435588Y-86283070D01*
X112435586Y-86283072D01*
X112391859Y-86343256D01*
X112333768Y-86423211D01*
X112255128Y-86577552D01*
X112201597Y-86742302D01*
X112181343Y-86870184D01*
X112174500Y-86913389D01*
X112174500Y-87086611D01*
X112201598Y-87257701D01*
X112255127Y-87422445D01*
X112333768Y-87576788D01*
X112435586Y-87716928D01*
X112558072Y-87839414D01*
X112571986Y-87849523D01*
X112641023Y-87899683D01*
X112683689Y-87955013D01*
X112689667Y-88024626D01*
X112657061Y-88086421D01*
X112641023Y-88100317D01*
X112558078Y-88160581D01*
X112558069Y-88160588D01*
X112435588Y-88283069D01*
X112435588Y-88283070D01*
X112435586Y-88283072D01*
X112421644Y-88302262D01*
X112333768Y-88423211D01*
X112255128Y-88577552D01*
X112201597Y-88742302D01*
X112189381Y-88819435D01*
X112174500Y-88913389D01*
X112174500Y-89086611D01*
X110500500Y-89086611D01*
X110500500Y-72081407D01*
X145173500Y-72081407D01*
X145205259Y-72241073D01*
X145205262Y-72241082D01*
X145267562Y-72391490D01*
X145267563Y-72391492D01*
X145358015Y-72526862D01*
X145358018Y-72526866D01*
X145473133Y-72641981D01*
X145473137Y-72641984D01*
X145608505Y-72732435D01*
X145608506Y-72732435D01*
X145608507Y-72732436D01*
X145608509Y-72732437D01*
X145708781Y-72773970D01*
X145758919Y-72794738D01*
X145758921Y-72794738D01*
X145758926Y-72794740D01*
X145918592Y-72826499D01*
X145918595Y-72826500D01*
X145918597Y-72826500D01*
X146081405Y-72826500D01*
X146081406Y-72826499D01*
X146134629Y-72815912D01*
X146241073Y-72794740D01*
X146241076Y-72794738D01*
X146241081Y-72794738D01*
X146391495Y-72732435D01*
X146526863Y-72641984D01*
X146641984Y-72526863D01*
X146732435Y-72391495D01*
X146794738Y-72241081D01*
X146826500Y-72081403D01*
X146826500Y-71918597D01*
X146826500Y-71918594D01*
X146826499Y-71918592D01*
X146794740Y-71758926D01*
X146794737Y-71758917D01*
X146732437Y-71608509D01*
X146732436Y-71608507D01*
X146641984Y-71473137D01*
X146641981Y-71473133D01*
X146526866Y-71358018D01*
X146526862Y-71358015D01*
X146391492Y-71267563D01*
X146391490Y-71267562D01*
X146241082Y-71205262D01*
X146241073Y-71205259D01*
X146081406Y-71173500D01*
X146081403Y-71173500D01*
X145918597Y-71173500D01*
X145918594Y-71173500D01*
X145758926Y-71205259D01*
X145758917Y-71205262D01*
X145608509Y-71267562D01*
X145608507Y-71267563D01*
X145473137Y-71358015D01*
X145473133Y-71358018D01*
X145358018Y-71473133D01*
X145358015Y-71473137D01*
X145267563Y-71608507D01*
X145267562Y-71608509D01*
X145205262Y-71758917D01*
X145205259Y-71758926D01*
X145173500Y-71918592D01*
X145173500Y-72081407D01*
X110500500Y-72081407D01*
X110500500Y-72004427D01*
X110500816Y-71995581D01*
X110506322Y-71918594D01*
X110515130Y-71795436D01*
X110517646Y-71777938D01*
X110559356Y-71586199D01*
X110564333Y-71569248D01*
X110632911Y-71385385D01*
X110640259Y-71369298D01*
X110695810Y-71267563D01*
X110734291Y-71197089D01*
X110743845Y-71182221D01*
X110861448Y-71025123D01*
X110873020Y-71011769D01*
X111011769Y-70873020D01*
X111025123Y-70861448D01*
X111182221Y-70743845D01*
X111197089Y-70734291D01*
X111369298Y-70640258D01*
X111385385Y-70632911D01*
X111569248Y-70564333D01*
X111586199Y-70559356D01*
X111777938Y-70517646D01*
X111795436Y-70515130D01*
X111995582Y-70500816D01*
X112004428Y-70500500D01*
X112065892Y-70500500D01*
X145934108Y-70500500D01*
X145995572Y-70500500D01*
X146004418Y-70500816D01*
G37*
%TD.AperFunction*%
%TD*%
M02*
