%TF.GenerationSoftware,KiCad,Pcbnew,8.0.1*%
%TF.CreationDate,2024-04-25T00:01:52-04:00*%
%TF.ProjectId,ads1260_board,61647331-3236-4305-9f62-6f6172642e6b,rev?*%
%TF.SameCoordinates,Original*%
%TF.FileFunction,Legend,Top*%
%TF.FilePolarity,Positive*%
%FSLAX46Y46*%
G04 Gerber Fmt 4.6, Leading zero omitted, Abs format (unit mm)*
G04 Created by KiCad (PCBNEW 8.0.1) date 2024-04-25 00:01:52*
%MOMM*%
%LPD*%
G01*
G04 APERTURE LIST*
G04 Aperture macros list*
%AMRoundRect*
0 Rectangle with rounded corners*
0 $1 Rounding radius*
0 $2 $3 $4 $5 $6 $7 $8 $9 X,Y pos of 4 corners*
0 Add a 4 corners polygon primitive as box body*
4,1,4,$2,$3,$4,$5,$6,$7,$8,$9,$2,$3,0*
0 Add four circle primitives for the rounded corners*
1,1,$1+$1,$2,$3*
1,1,$1+$1,$4,$5*
1,1,$1+$1,$6,$7*
1,1,$1+$1,$8,$9*
0 Add four rect primitives between the rounded corners*
20,1,$1+$1,$2,$3,$4,$5,0*
20,1,$1+$1,$4,$5,$6,$7,0*
20,1,$1+$1,$6,$7,$8,$9,0*
20,1,$1+$1,$8,$9,$2,$3,0*%
G04 Aperture macros list end*
%ADD10C,0.150000*%
%ADD11C,0.120000*%
%ADD12C,1.300000*%
%ADD13O,1.750000X1.200000*%
%ADD14RoundRect,0.250000X-0.625000X0.350000X-0.625000X-0.350000X0.625000X-0.350000X0.625000X0.350000X0*%
%ADD15RoundRect,0.250000X0.625000X-0.350000X0.625000X0.350000X-0.625000X0.350000X-0.625000X-0.350000X0*%
%ADD16RoundRect,0.225000X0.225000X0.250000X-0.225000X0.250000X-0.225000X-0.250000X0.225000X-0.250000X0*%
%ADD17RoundRect,0.140000X-0.170000X0.140000X-0.170000X-0.140000X0.170000X-0.140000X0.170000X0.140000X0*%
%ADD18RoundRect,0.150000X-0.512500X-0.150000X0.512500X-0.150000X0.512500X0.150000X-0.512500X0.150000X0*%
%ADD19R,2.000000X1.200000*%
%ADD20RoundRect,0.062500X-0.062500X0.350000X-0.062500X-0.350000X0.062500X-0.350000X0.062500X0.350000X0*%
%ADD21R,3.150000X3.150000*%
%ADD22RoundRect,0.062500X-0.375000X0.062500X-0.375000X-0.062500X0.375000X-0.062500X0.375000X0.062500X0*%
%ADD23RoundRect,0.062500X-0.062500X0.375000X-0.062500X-0.375000X0.062500X-0.375000X0.062500X0.375000X0*%
%ADD24RoundRect,0.135000X0.135000X0.185000X-0.135000X0.185000X-0.135000X-0.185000X0.135000X-0.185000X0*%
%ADD25RoundRect,0.135000X-0.135000X-0.185000X0.135000X-0.185000X0.135000X0.185000X-0.135000X0.185000X0*%
%ADD26RoundRect,0.135000X0.185000X-0.135000X0.185000X0.135000X-0.185000X0.135000X-0.185000X-0.135000X0*%
%ADD27RoundRect,0.135000X-0.185000X0.135000X-0.185000X-0.135000X0.185000X-0.135000X0.185000X0.135000X0*%
%ADD28R,0.550000X1.600000*%
%ADD29RoundRect,0.140000X0.170000X-0.140000X0.170000X0.140000X-0.170000X0.140000X-0.170000X-0.140000X0*%
%ADD30RoundRect,0.225000X-0.250000X0.225000X-0.250000X-0.225000X0.250000X-0.225000X0.250000X0.225000X0*%
%ADD31RoundRect,0.225000X0.250000X-0.225000X0.250000X0.225000X-0.250000X0.225000X-0.250000X-0.225000X0*%
%ADD32RoundRect,0.140000X-0.140000X-0.170000X0.140000X-0.170000X0.140000X0.170000X-0.140000X0.170000X0*%
G04 APERTURE END LIST*
D10*
X115954819Y-72833333D02*
X116669104Y-72833333D01*
X116669104Y-72833333D02*
X116811961Y-72880952D01*
X116811961Y-72880952D02*
X116907200Y-72976190D01*
X116907200Y-72976190D02*
X116954819Y-73119047D01*
X116954819Y-73119047D02*
X116954819Y-73214285D01*
X115954819Y-72452380D02*
X115954819Y-71833333D01*
X115954819Y-71833333D02*
X116335771Y-72166666D01*
X116335771Y-72166666D02*
X116335771Y-72023809D01*
X116335771Y-72023809D02*
X116383390Y-71928571D01*
X116383390Y-71928571D02*
X116431009Y-71880952D01*
X116431009Y-71880952D02*
X116526247Y-71833333D01*
X116526247Y-71833333D02*
X116764342Y-71833333D01*
X116764342Y-71833333D02*
X116859580Y-71880952D01*
X116859580Y-71880952D02*
X116907200Y-71928571D01*
X116907200Y-71928571D02*
X116954819Y-72023809D01*
X116954819Y-72023809D02*
X116954819Y-72309523D01*
X116954819Y-72309523D02*
X116907200Y-72404761D01*
X116907200Y-72404761D02*
X116859580Y-72452380D01*
X141004819Y-82333333D02*
X141719104Y-82333333D01*
X141719104Y-82333333D02*
X141861961Y-82380952D01*
X141861961Y-82380952D02*
X141957200Y-82476190D01*
X141957200Y-82476190D02*
X142004819Y-82619047D01*
X142004819Y-82619047D02*
X142004819Y-82714285D01*
X142004819Y-81333333D02*
X142004819Y-81904761D01*
X142004819Y-81619047D02*
X141004819Y-81619047D01*
X141004819Y-81619047D02*
X141147676Y-81714285D01*
X141147676Y-81714285D02*
X141242914Y-81809523D01*
X141242914Y-81809523D02*
X141290533Y-81904761D01*
X128132142Y-80289580D02*
X128084523Y-80337200D01*
X128084523Y-80337200D02*
X127941666Y-80384819D01*
X127941666Y-80384819D02*
X127846428Y-80384819D01*
X127846428Y-80384819D02*
X127703571Y-80337200D01*
X127703571Y-80337200D02*
X127608333Y-80241961D01*
X127608333Y-80241961D02*
X127560714Y-80146723D01*
X127560714Y-80146723D02*
X127513095Y-79956247D01*
X127513095Y-79956247D02*
X127513095Y-79813390D01*
X127513095Y-79813390D02*
X127560714Y-79622914D01*
X127560714Y-79622914D02*
X127608333Y-79527676D01*
X127608333Y-79527676D02*
X127703571Y-79432438D01*
X127703571Y-79432438D02*
X127846428Y-79384819D01*
X127846428Y-79384819D02*
X127941666Y-79384819D01*
X127941666Y-79384819D02*
X128084523Y-79432438D01*
X128084523Y-79432438D02*
X128132142Y-79480057D01*
X129084523Y-80384819D02*
X128513095Y-80384819D01*
X128798809Y-80384819D02*
X128798809Y-79384819D01*
X128798809Y-79384819D02*
X128703571Y-79527676D01*
X128703571Y-79527676D02*
X128608333Y-79622914D01*
X128608333Y-79622914D02*
X128513095Y-79670533D01*
X129703571Y-79384819D02*
X129798809Y-79384819D01*
X129798809Y-79384819D02*
X129894047Y-79432438D01*
X129894047Y-79432438D02*
X129941666Y-79480057D01*
X129941666Y-79480057D02*
X129989285Y-79575295D01*
X129989285Y-79575295D02*
X130036904Y-79765771D01*
X130036904Y-79765771D02*
X130036904Y-80003866D01*
X130036904Y-80003866D02*
X129989285Y-80194342D01*
X129989285Y-80194342D02*
X129941666Y-80289580D01*
X129941666Y-80289580D02*
X129894047Y-80337200D01*
X129894047Y-80337200D02*
X129798809Y-80384819D01*
X129798809Y-80384819D02*
X129703571Y-80384819D01*
X129703571Y-80384819D02*
X129608333Y-80337200D01*
X129608333Y-80337200D02*
X129560714Y-80289580D01*
X129560714Y-80289580D02*
X129513095Y-80194342D01*
X129513095Y-80194342D02*
X129465476Y-80003866D01*
X129465476Y-80003866D02*
X129465476Y-79765771D01*
X129465476Y-79765771D02*
X129513095Y-79575295D01*
X129513095Y-79575295D02*
X129560714Y-79480057D01*
X129560714Y-79480057D02*
X129608333Y-79432438D01*
X129608333Y-79432438D02*
X129703571Y-79384819D01*
X130536104Y-89813332D02*
X130574200Y-89851428D01*
X130574200Y-89851428D02*
X130612295Y-89965713D01*
X130612295Y-89965713D02*
X130612295Y-90041904D01*
X130612295Y-90041904D02*
X130574200Y-90156190D01*
X130574200Y-90156190D02*
X130498009Y-90232380D01*
X130498009Y-90232380D02*
X130421819Y-90270475D01*
X130421819Y-90270475D02*
X130269438Y-90308571D01*
X130269438Y-90308571D02*
X130155152Y-90308571D01*
X130155152Y-90308571D02*
X130002771Y-90270475D01*
X130002771Y-90270475D02*
X129926580Y-90232380D01*
X129926580Y-90232380D02*
X129850390Y-90156190D01*
X129850390Y-90156190D02*
X129812295Y-90041904D01*
X129812295Y-90041904D02*
X129812295Y-89965713D01*
X129812295Y-89965713D02*
X129850390Y-89851428D01*
X129850390Y-89851428D02*
X129888485Y-89813332D01*
X130078961Y-89127618D02*
X130612295Y-89127618D01*
X129774200Y-89318094D02*
X130345628Y-89508571D01*
X130345628Y-89508571D02*
X130345628Y-89013332D01*
X124390476Y-74562295D02*
X124390476Y-75209914D01*
X124390476Y-75209914D02*
X124428571Y-75286104D01*
X124428571Y-75286104D02*
X124466666Y-75324200D01*
X124466666Y-75324200D02*
X124542857Y-75362295D01*
X124542857Y-75362295D02*
X124695238Y-75362295D01*
X124695238Y-75362295D02*
X124771428Y-75324200D01*
X124771428Y-75324200D02*
X124809523Y-75286104D01*
X124809523Y-75286104D02*
X124847619Y-75209914D01*
X124847619Y-75209914D02*
X124847619Y-74562295D01*
X125571428Y-74828961D02*
X125571428Y-75362295D01*
X125380952Y-74524200D02*
X125190475Y-75095628D01*
X125190475Y-75095628D02*
X125685714Y-75095628D01*
X120812295Y-90109523D02*
X121459914Y-90109523D01*
X121459914Y-90109523D02*
X121536104Y-90071428D01*
X121536104Y-90071428D02*
X121574200Y-90033333D01*
X121574200Y-90033333D02*
X121612295Y-89957142D01*
X121612295Y-89957142D02*
X121612295Y-89804761D01*
X121612295Y-89804761D02*
X121574200Y-89728571D01*
X121574200Y-89728571D02*
X121536104Y-89690476D01*
X121536104Y-89690476D02*
X121459914Y-89652380D01*
X121459914Y-89652380D02*
X120812295Y-89652380D01*
X120888485Y-89309524D02*
X120850390Y-89271428D01*
X120850390Y-89271428D02*
X120812295Y-89195238D01*
X120812295Y-89195238D02*
X120812295Y-89004762D01*
X120812295Y-89004762D02*
X120850390Y-88928571D01*
X120850390Y-88928571D02*
X120888485Y-88890476D01*
X120888485Y-88890476D02*
X120964676Y-88852381D01*
X120964676Y-88852381D02*
X121040866Y-88852381D01*
X121040866Y-88852381D02*
X121155152Y-88890476D01*
X121155152Y-88890476D02*
X121612295Y-89347619D01*
X121612295Y-89347619D02*
X121612295Y-88852381D01*
X132390476Y-89062295D02*
X132390476Y-89709914D01*
X132390476Y-89709914D02*
X132428571Y-89786104D01*
X132428571Y-89786104D02*
X132466666Y-89824200D01*
X132466666Y-89824200D02*
X132542857Y-89862295D01*
X132542857Y-89862295D02*
X132695238Y-89862295D01*
X132695238Y-89862295D02*
X132771428Y-89824200D01*
X132771428Y-89824200D02*
X132809523Y-89786104D01*
X132809523Y-89786104D02*
X132847619Y-89709914D01*
X132847619Y-89709914D02*
X132847619Y-89062295D01*
X133647618Y-89862295D02*
X133190475Y-89862295D01*
X133419047Y-89862295D02*
X133419047Y-89062295D01*
X133419047Y-89062295D02*
X133342856Y-89176580D01*
X133342856Y-89176580D02*
X133266666Y-89252771D01*
X133266666Y-89252771D02*
X133190475Y-89290866D01*
X138985714Y-80862295D02*
X138719047Y-80481342D01*
X138528571Y-80862295D02*
X138528571Y-80062295D01*
X138528571Y-80062295D02*
X138833333Y-80062295D01*
X138833333Y-80062295D02*
X138909523Y-80100390D01*
X138909523Y-80100390D02*
X138947618Y-80138485D01*
X138947618Y-80138485D02*
X138985714Y-80214676D01*
X138985714Y-80214676D02*
X138985714Y-80328961D01*
X138985714Y-80328961D02*
X138947618Y-80405152D01*
X138947618Y-80405152D02*
X138909523Y-80443247D01*
X138909523Y-80443247D02*
X138833333Y-80481342D01*
X138833333Y-80481342D02*
X138528571Y-80481342D01*
X139747618Y-80862295D02*
X139290475Y-80862295D01*
X139519047Y-80862295D02*
X139519047Y-80062295D01*
X139519047Y-80062295D02*
X139442856Y-80176580D01*
X139442856Y-80176580D02*
X139366666Y-80252771D01*
X139366666Y-80252771D02*
X139290475Y-80290866D01*
X140242857Y-80062295D02*
X140319047Y-80062295D01*
X140319047Y-80062295D02*
X140395238Y-80100390D01*
X140395238Y-80100390D02*
X140433333Y-80138485D01*
X140433333Y-80138485D02*
X140471428Y-80214676D01*
X140471428Y-80214676D02*
X140509523Y-80367057D01*
X140509523Y-80367057D02*
X140509523Y-80557533D01*
X140509523Y-80557533D02*
X140471428Y-80709914D01*
X140471428Y-80709914D02*
X140433333Y-80786104D01*
X140433333Y-80786104D02*
X140395238Y-80824200D01*
X140395238Y-80824200D02*
X140319047Y-80862295D01*
X140319047Y-80862295D02*
X140242857Y-80862295D01*
X140242857Y-80862295D02*
X140166666Y-80824200D01*
X140166666Y-80824200D02*
X140128571Y-80786104D01*
X140128571Y-80786104D02*
X140090476Y-80709914D01*
X140090476Y-80709914D02*
X140052380Y-80557533D01*
X140052380Y-80557533D02*
X140052380Y-80367057D01*
X140052380Y-80367057D02*
X140090476Y-80214676D01*
X140090476Y-80214676D02*
X140128571Y-80138485D01*
X140128571Y-80138485D02*
X140166666Y-80100390D01*
X140166666Y-80100390D02*
X140242857Y-80062295D01*
X139366667Y-83962295D02*
X139100000Y-83581342D01*
X138909524Y-83962295D02*
X138909524Y-83162295D01*
X138909524Y-83162295D02*
X139214286Y-83162295D01*
X139214286Y-83162295D02*
X139290476Y-83200390D01*
X139290476Y-83200390D02*
X139328571Y-83238485D01*
X139328571Y-83238485D02*
X139366667Y-83314676D01*
X139366667Y-83314676D02*
X139366667Y-83428961D01*
X139366667Y-83428961D02*
X139328571Y-83505152D01*
X139328571Y-83505152D02*
X139290476Y-83543247D01*
X139290476Y-83543247D02*
X139214286Y-83581342D01*
X139214286Y-83581342D02*
X138909524Y-83581342D01*
X139747619Y-83962295D02*
X139900000Y-83962295D01*
X139900000Y-83962295D02*
X139976190Y-83924200D01*
X139976190Y-83924200D02*
X140014286Y-83886104D01*
X140014286Y-83886104D02*
X140090476Y-83771819D01*
X140090476Y-83771819D02*
X140128571Y-83619438D01*
X140128571Y-83619438D02*
X140128571Y-83314676D01*
X140128571Y-83314676D02*
X140090476Y-83238485D01*
X140090476Y-83238485D02*
X140052381Y-83200390D01*
X140052381Y-83200390D02*
X139976190Y-83162295D01*
X139976190Y-83162295D02*
X139823809Y-83162295D01*
X139823809Y-83162295D02*
X139747619Y-83200390D01*
X139747619Y-83200390D02*
X139709524Y-83238485D01*
X139709524Y-83238485D02*
X139671428Y-83314676D01*
X139671428Y-83314676D02*
X139671428Y-83505152D01*
X139671428Y-83505152D02*
X139709524Y-83581342D01*
X139709524Y-83581342D02*
X139747619Y-83619438D01*
X139747619Y-83619438D02*
X139823809Y-83657533D01*
X139823809Y-83657533D02*
X139976190Y-83657533D01*
X139976190Y-83657533D02*
X140052381Y-83619438D01*
X140052381Y-83619438D02*
X140090476Y-83581342D01*
X140090476Y-83581342D02*
X140128571Y-83505152D01*
X124862295Y-92133332D02*
X124481342Y-92399999D01*
X124862295Y-92590475D02*
X124062295Y-92590475D01*
X124062295Y-92590475D02*
X124062295Y-92285713D01*
X124062295Y-92285713D02*
X124100390Y-92209523D01*
X124100390Y-92209523D02*
X124138485Y-92171428D01*
X124138485Y-92171428D02*
X124214676Y-92133332D01*
X124214676Y-92133332D02*
X124328961Y-92133332D01*
X124328961Y-92133332D02*
X124405152Y-92171428D01*
X124405152Y-92171428D02*
X124443247Y-92209523D01*
X124443247Y-92209523D02*
X124481342Y-92285713D01*
X124481342Y-92285713D02*
X124481342Y-92590475D01*
X124405152Y-91676190D02*
X124367057Y-91752380D01*
X124367057Y-91752380D02*
X124328961Y-91790475D01*
X124328961Y-91790475D02*
X124252771Y-91828571D01*
X124252771Y-91828571D02*
X124214676Y-91828571D01*
X124214676Y-91828571D02*
X124138485Y-91790475D01*
X124138485Y-91790475D02*
X124100390Y-91752380D01*
X124100390Y-91752380D02*
X124062295Y-91676190D01*
X124062295Y-91676190D02*
X124062295Y-91523809D01*
X124062295Y-91523809D02*
X124100390Y-91447618D01*
X124100390Y-91447618D02*
X124138485Y-91409523D01*
X124138485Y-91409523D02*
X124214676Y-91371428D01*
X124214676Y-91371428D02*
X124252771Y-91371428D01*
X124252771Y-91371428D02*
X124328961Y-91409523D01*
X124328961Y-91409523D02*
X124367057Y-91447618D01*
X124367057Y-91447618D02*
X124405152Y-91523809D01*
X124405152Y-91523809D02*
X124405152Y-91676190D01*
X124405152Y-91676190D02*
X124443247Y-91752380D01*
X124443247Y-91752380D02*
X124481342Y-91790475D01*
X124481342Y-91790475D02*
X124557533Y-91828571D01*
X124557533Y-91828571D02*
X124709914Y-91828571D01*
X124709914Y-91828571D02*
X124786104Y-91790475D01*
X124786104Y-91790475D02*
X124824200Y-91752380D01*
X124824200Y-91752380D02*
X124862295Y-91676190D01*
X124862295Y-91676190D02*
X124862295Y-91523809D01*
X124862295Y-91523809D02*
X124824200Y-91447618D01*
X124824200Y-91447618D02*
X124786104Y-91409523D01*
X124786104Y-91409523D02*
X124709914Y-91371428D01*
X124709914Y-91371428D02*
X124557533Y-91371428D01*
X124557533Y-91371428D02*
X124481342Y-91409523D01*
X124481342Y-91409523D02*
X124443247Y-91447618D01*
X124443247Y-91447618D02*
X124405152Y-91523809D01*
X125862295Y-92133332D02*
X125481342Y-92399999D01*
X125862295Y-92590475D02*
X125062295Y-92590475D01*
X125062295Y-92590475D02*
X125062295Y-92285713D01*
X125062295Y-92285713D02*
X125100390Y-92209523D01*
X125100390Y-92209523D02*
X125138485Y-92171428D01*
X125138485Y-92171428D02*
X125214676Y-92133332D01*
X125214676Y-92133332D02*
X125328961Y-92133332D01*
X125328961Y-92133332D02*
X125405152Y-92171428D01*
X125405152Y-92171428D02*
X125443247Y-92209523D01*
X125443247Y-92209523D02*
X125481342Y-92285713D01*
X125481342Y-92285713D02*
X125481342Y-92590475D01*
X125062295Y-91866666D02*
X125062295Y-91333332D01*
X125062295Y-91333332D02*
X125862295Y-91676190D01*
X119246303Y-76362295D02*
X118979636Y-75981342D01*
X118789160Y-76362295D02*
X118789160Y-75562295D01*
X118789160Y-75562295D02*
X119093922Y-75562295D01*
X119093922Y-75562295D02*
X119170112Y-75600390D01*
X119170112Y-75600390D02*
X119208207Y-75638485D01*
X119208207Y-75638485D02*
X119246303Y-75714676D01*
X119246303Y-75714676D02*
X119246303Y-75828961D01*
X119246303Y-75828961D02*
X119208207Y-75905152D01*
X119208207Y-75905152D02*
X119170112Y-75943247D01*
X119170112Y-75943247D02*
X119093922Y-75981342D01*
X119093922Y-75981342D02*
X118789160Y-75981342D01*
X119932017Y-75562295D02*
X119779636Y-75562295D01*
X119779636Y-75562295D02*
X119703445Y-75600390D01*
X119703445Y-75600390D02*
X119665350Y-75638485D01*
X119665350Y-75638485D02*
X119589160Y-75752771D01*
X119589160Y-75752771D02*
X119551064Y-75905152D01*
X119551064Y-75905152D02*
X119551064Y-76209914D01*
X119551064Y-76209914D02*
X119589160Y-76286104D01*
X119589160Y-76286104D02*
X119627255Y-76324200D01*
X119627255Y-76324200D02*
X119703445Y-76362295D01*
X119703445Y-76362295D02*
X119855826Y-76362295D01*
X119855826Y-76362295D02*
X119932017Y-76324200D01*
X119932017Y-76324200D02*
X119970112Y-76286104D01*
X119970112Y-76286104D02*
X120008207Y-76209914D01*
X120008207Y-76209914D02*
X120008207Y-76019438D01*
X120008207Y-76019438D02*
X119970112Y-75943247D01*
X119970112Y-75943247D02*
X119932017Y-75905152D01*
X119932017Y-75905152D02*
X119855826Y-75867057D01*
X119855826Y-75867057D02*
X119703445Y-75867057D01*
X119703445Y-75867057D02*
X119627255Y-75905152D01*
X119627255Y-75905152D02*
X119589160Y-75943247D01*
X119589160Y-75943247D02*
X119551064Y-76019438D01*
X119246303Y-78362295D02*
X118979636Y-77981342D01*
X118789160Y-78362295D02*
X118789160Y-77562295D01*
X118789160Y-77562295D02*
X119093922Y-77562295D01*
X119093922Y-77562295D02*
X119170112Y-77600390D01*
X119170112Y-77600390D02*
X119208207Y-77638485D01*
X119208207Y-77638485D02*
X119246303Y-77714676D01*
X119246303Y-77714676D02*
X119246303Y-77828961D01*
X119246303Y-77828961D02*
X119208207Y-77905152D01*
X119208207Y-77905152D02*
X119170112Y-77943247D01*
X119170112Y-77943247D02*
X119093922Y-77981342D01*
X119093922Y-77981342D02*
X118789160Y-77981342D01*
X119970112Y-77562295D02*
X119589160Y-77562295D01*
X119589160Y-77562295D02*
X119551064Y-77943247D01*
X119551064Y-77943247D02*
X119589160Y-77905152D01*
X119589160Y-77905152D02*
X119665350Y-77867057D01*
X119665350Y-77867057D02*
X119855826Y-77867057D01*
X119855826Y-77867057D02*
X119932017Y-77905152D01*
X119932017Y-77905152D02*
X119970112Y-77943247D01*
X119970112Y-77943247D02*
X120008207Y-78019438D01*
X120008207Y-78019438D02*
X120008207Y-78209914D01*
X120008207Y-78209914D02*
X119970112Y-78286104D01*
X119970112Y-78286104D02*
X119932017Y-78324200D01*
X119932017Y-78324200D02*
X119855826Y-78362295D01*
X119855826Y-78362295D02*
X119665350Y-78362295D01*
X119665350Y-78362295D02*
X119589160Y-78324200D01*
X119589160Y-78324200D02*
X119551064Y-78286104D01*
X119246303Y-80362295D02*
X118979636Y-79981342D01*
X118789160Y-80362295D02*
X118789160Y-79562295D01*
X118789160Y-79562295D02*
X119093922Y-79562295D01*
X119093922Y-79562295D02*
X119170112Y-79600390D01*
X119170112Y-79600390D02*
X119208207Y-79638485D01*
X119208207Y-79638485D02*
X119246303Y-79714676D01*
X119246303Y-79714676D02*
X119246303Y-79828961D01*
X119246303Y-79828961D02*
X119208207Y-79905152D01*
X119208207Y-79905152D02*
X119170112Y-79943247D01*
X119170112Y-79943247D02*
X119093922Y-79981342D01*
X119093922Y-79981342D02*
X118789160Y-79981342D01*
X119932017Y-79828961D02*
X119932017Y-80362295D01*
X119741541Y-79524200D02*
X119551064Y-80095628D01*
X119551064Y-80095628D02*
X120046303Y-80095628D01*
X119246303Y-82362295D02*
X118979636Y-81981342D01*
X118789160Y-82362295D02*
X118789160Y-81562295D01*
X118789160Y-81562295D02*
X119093922Y-81562295D01*
X119093922Y-81562295D02*
X119170112Y-81600390D01*
X119170112Y-81600390D02*
X119208207Y-81638485D01*
X119208207Y-81638485D02*
X119246303Y-81714676D01*
X119246303Y-81714676D02*
X119246303Y-81828961D01*
X119246303Y-81828961D02*
X119208207Y-81905152D01*
X119208207Y-81905152D02*
X119170112Y-81943247D01*
X119170112Y-81943247D02*
X119093922Y-81981342D01*
X119093922Y-81981342D02*
X118789160Y-81981342D01*
X119512969Y-81562295D02*
X120008207Y-81562295D01*
X120008207Y-81562295D02*
X119741541Y-81867057D01*
X119741541Y-81867057D02*
X119855826Y-81867057D01*
X119855826Y-81867057D02*
X119932017Y-81905152D01*
X119932017Y-81905152D02*
X119970112Y-81943247D01*
X119970112Y-81943247D02*
X120008207Y-82019438D01*
X120008207Y-82019438D02*
X120008207Y-82209914D01*
X120008207Y-82209914D02*
X119970112Y-82286104D01*
X119970112Y-82286104D02*
X119932017Y-82324200D01*
X119932017Y-82324200D02*
X119855826Y-82362295D01*
X119855826Y-82362295D02*
X119627255Y-82362295D01*
X119627255Y-82362295D02*
X119551064Y-82324200D01*
X119551064Y-82324200D02*
X119512969Y-82286104D01*
X119246303Y-84362295D02*
X118979636Y-83981342D01*
X118789160Y-84362295D02*
X118789160Y-83562295D01*
X118789160Y-83562295D02*
X119093922Y-83562295D01*
X119093922Y-83562295D02*
X119170112Y-83600390D01*
X119170112Y-83600390D02*
X119208207Y-83638485D01*
X119208207Y-83638485D02*
X119246303Y-83714676D01*
X119246303Y-83714676D02*
X119246303Y-83828961D01*
X119246303Y-83828961D02*
X119208207Y-83905152D01*
X119208207Y-83905152D02*
X119170112Y-83943247D01*
X119170112Y-83943247D02*
X119093922Y-83981342D01*
X119093922Y-83981342D02*
X118789160Y-83981342D01*
X119551064Y-83638485D02*
X119589160Y-83600390D01*
X119589160Y-83600390D02*
X119665350Y-83562295D01*
X119665350Y-83562295D02*
X119855826Y-83562295D01*
X119855826Y-83562295D02*
X119932017Y-83600390D01*
X119932017Y-83600390D02*
X119970112Y-83638485D01*
X119970112Y-83638485D02*
X120008207Y-83714676D01*
X120008207Y-83714676D02*
X120008207Y-83790866D01*
X120008207Y-83790866D02*
X119970112Y-83905152D01*
X119970112Y-83905152D02*
X119512969Y-84362295D01*
X119512969Y-84362295D02*
X120008207Y-84362295D01*
X119246303Y-86362295D02*
X118979636Y-85981342D01*
X118789160Y-86362295D02*
X118789160Y-85562295D01*
X118789160Y-85562295D02*
X119093922Y-85562295D01*
X119093922Y-85562295D02*
X119170112Y-85600390D01*
X119170112Y-85600390D02*
X119208207Y-85638485D01*
X119208207Y-85638485D02*
X119246303Y-85714676D01*
X119246303Y-85714676D02*
X119246303Y-85828961D01*
X119246303Y-85828961D02*
X119208207Y-85905152D01*
X119208207Y-85905152D02*
X119170112Y-85943247D01*
X119170112Y-85943247D02*
X119093922Y-85981342D01*
X119093922Y-85981342D02*
X118789160Y-85981342D01*
X120008207Y-86362295D02*
X119551064Y-86362295D01*
X119779636Y-86362295D02*
X119779636Y-85562295D01*
X119779636Y-85562295D02*
X119703445Y-85676580D01*
X119703445Y-85676580D02*
X119627255Y-85752771D01*
X119627255Y-85752771D02*
X119551064Y-85790866D01*
X123366666Y-82362295D02*
X122985714Y-82362295D01*
X122985714Y-82362295D02*
X122985714Y-81562295D01*
X124052380Y-82362295D02*
X123595237Y-82362295D01*
X123823809Y-82362295D02*
X123823809Y-81562295D01*
X123823809Y-81562295D02*
X123747618Y-81676580D01*
X123747618Y-81676580D02*
X123671428Y-81752771D01*
X123671428Y-81752771D02*
X123595237Y-81790866D01*
X138286104Y-78014285D02*
X138324200Y-78052381D01*
X138324200Y-78052381D02*
X138362295Y-78166666D01*
X138362295Y-78166666D02*
X138362295Y-78242857D01*
X138362295Y-78242857D02*
X138324200Y-78357143D01*
X138324200Y-78357143D02*
X138248009Y-78433333D01*
X138248009Y-78433333D02*
X138171819Y-78471428D01*
X138171819Y-78471428D02*
X138019438Y-78509524D01*
X138019438Y-78509524D02*
X137905152Y-78509524D01*
X137905152Y-78509524D02*
X137752771Y-78471428D01*
X137752771Y-78471428D02*
X137676580Y-78433333D01*
X137676580Y-78433333D02*
X137600390Y-78357143D01*
X137600390Y-78357143D02*
X137562295Y-78242857D01*
X137562295Y-78242857D02*
X137562295Y-78166666D01*
X137562295Y-78166666D02*
X137600390Y-78052381D01*
X137600390Y-78052381D02*
X137638485Y-78014285D01*
X138362295Y-77252381D02*
X138362295Y-77709524D01*
X138362295Y-77480952D02*
X137562295Y-77480952D01*
X137562295Y-77480952D02*
X137676580Y-77557143D01*
X137676580Y-77557143D02*
X137752771Y-77633333D01*
X137752771Y-77633333D02*
X137790866Y-77709524D01*
X137562295Y-76528571D02*
X137562295Y-76909523D01*
X137562295Y-76909523D02*
X137943247Y-76947619D01*
X137943247Y-76947619D02*
X137905152Y-76909523D01*
X137905152Y-76909523D02*
X137867057Y-76833333D01*
X137867057Y-76833333D02*
X137867057Y-76642857D01*
X137867057Y-76642857D02*
X137905152Y-76566666D01*
X137905152Y-76566666D02*
X137943247Y-76528571D01*
X137943247Y-76528571D02*
X138019438Y-76490476D01*
X138019438Y-76490476D02*
X138209914Y-76490476D01*
X138209914Y-76490476D02*
X138286104Y-76528571D01*
X138286104Y-76528571D02*
X138324200Y-76566666D01*
X138324200Y-76566666D02*
X138362295Y-76642857D01*
X138362295Y-76642857D02*
X138362295Y-76833333D01*
X138362295Y-76833333D02*
X138324200Y-76909523D01*
X138324200Y-76909523D02*
X138286104Y-76947619D01*
X137223604Y-82514285D02*
X137261700Y-82552381D01*
X137261700Y-82552381D02*
X137299795Y-82666666D01*
X137299795Y-82666666D02*
X137299795Y-82742857D01*
X137299795Y-82742857D02*
X137261700Y-82857143D01*
X137261700Y-82857143D02*
X137185509Y-82933333D01*
X137185509Y-82933333D02*
X137109319Y-82971428D01*
X137109319Y-82971428D02*
X136956938Y-83009524D01*
X136956938Y-83009524D02*
X136842652Y-83009524D01*
X136842652Y-83009524D02*
X136690271Y-82971428D01*
X136690271Y-82971428D02*
X136614080Y-82933333D01*
X136614080Y-82933333D02*
X136537890Y-82857143D01*
X136537890Y-82857143D02*
X136499795Y-82742857D01*
X136499795Y-82742857D02*
X136499795Y-82666666D01*
X136499795Y-82666666D02*
X136537890Y-82552381D01*
X136537890Y-82552381D02*
X136575985Y-82514285D01*
X137299795Y-81752381D02*
X137299795Y-82209524D01*
X137299795Y-81980952D02*
X136499795Y-81980952D01*
X136499795Y-81980952D02*
X136614080Y-82057143D01*
X136614080Y-82057143D02*
X136690271Y-82133333D01*
X136690271Y-82133333D02*
X136728366Y-82209524D01*
X136766461Y-81066666D02*
X137299795Y-81066666D01*
X136461700Y-81257142D02*
X137033128Y-81447619D01*
X137033128Y-81447619D02*
X137033128Y-80952380D01*
X138286104Y-87014285D02*
X138324200Y-87052381D01*
X138324200Y-87052381D02*
X138362295Y-87166666D01*
X138362295Y-87166666D02*
X138362295Y-87242857D01*
X138362295Y-87242857D02*
X138324200Y-87357143D01*
X138324200Y-87357143D02*
X138248009Y-87433333D01*
X138248009Y-87433333D02*
X138171819Y-87471428D01*
X138171819Y-87471428D02*
X138019438Y-87509524D01*
X138019438Y-87509524D02*
X137905152Y-87509524D01*
X137905152Y-87509524D02*
X137752771Y-87471428D01*
X137752771Y-87471428D02*
X137676580Y-87433333D01*
X137676580Y-87433333D02*
X137600390Y-87357143D01*
X137600390Y-87357143D02*
X137562295Y-87242857D01*
X137562295Y-87242857D02*
X137562295Y-87166666D01*
X137562295Y-87166666D02*
X137600390Y-87052381D01*
X137600390Y-87052381D02*
X137638485Y-87014285D01*
X138362295Y-86252381D02*
X138362295Y-86709524D01*
X138362295Y-86480952D02*
X137562295Y-86480952D01*
X137562295Y-86480952D02*
X137676580Y-86557143D01*
X137676580Y-86557143D02*
X137752771Y-86633333D01*
X137752771Y-86633333D02*
X137790866Y-86709524D01*
X137562295Y-85985714D02*
X137562295Y-85490476D01*
X137562295Y-85490476D02*
X137867057Y-85757142D01*
X137867057Y-85757142D02*
X137867057Y-85642857D01*
X137867057Y-85642857D02*
X137905152Y-85566666D01*
X137905152Y-85566666D02*
X137943247Y-85528571D01*
X137943247Y-85528571D02*
X138019438Y-85490476D01*
X138019438Y-85490476D02*
X138209914Y-85490476D01*
X138209914Y-85490476D02*
X138286104Y-85528571D01*
X138286104Y-85528571D02*
X138324200Y-85566666D01*
X138324200Y-85566666D02*
X138362295Y-85642857D01*
X138362295Y-85642857D02*
X138362295Y-85871428D01*
X138362295Y-85871428D02*
X138324200Y-85947619D01*
X138324200Y-85947619D02*
X138286104Y-85985714D01*
X122036104Y-75014285D02*
X122074200Y-75052381D01*
X122074200Y-75052381D02*
X122112295Y-75166666D01*
X122112295Y-75166666D02*
X122112295Y-75242857D01*
X122112295Y-75242857D02*
X122074200Y-75357143D01*
X122074200Y-75357143D02*
X121998009Y-75433333D01*
X121998009Y-75433333D02*
X121921819Y-75471428D01*
X121921819Y-75471428D02*
X121769438Y-75509524D01*
X121769438Y-75509524D02*
X121655152Y-75509524D01*
X121655152Y-75509524D02*
X121502771Y-75471428D01*
X121502771Y-75471428D02*
X121426580Y-75433333D01*
X121426580Y-75433333D02*
X121350390Y-75357143D01*
X121350390Y-75357143D02*
X121312295Y-75242857D01*
X121312295Y-75242857D02*
X121312295Y-75166666D01*
X121312295Y-75166666D02*
X121350390Y-75052381D01*
X121350390Y-75052381D02*
X121388485Y-75014285D01*
X122112295Y-74252381D02*
X122112295Y-74709524D01*
X122112295Y-74480952D02*
X121312295Y-74480952D01*
X121312295Y-74480952D02*
X121426580Y-74557143D01*
X121426580Y-74557143D02*
X121502771Y-74633333D01*
X121502771Y-74633333D02*
X121540866Y-74709524D01*
X121388485Y-73947619D02*
X121350390Y-73909523D01*
X121350390Y-73909523D02*
X121312295Y-73833333D01*
X121312295Y-73833333D02*
X121312295Y-73642857D01*
X121312295Y-73642857D02*
X121350390Y-73566666D01*
X121350390Y-73566666D02*
X121388485Y-73528571D01*
X121388485Y-73528571D02*
X121464676Y-73490476D01*
X121464676Y-73490476D02*
X121540866Y-73490476D01*
X121540866Y-73490476D02*
X121655152Y-73528571D01*
X121655152Y-73528571D02*
X122112295Y-73985714D01*
X122112295Y-73985714D02*
X122112295Y-73490476D01*
X126036104Y-84278696D02*
X126074200Y-84316792D01*
X126074200Y-84316792D02*
X126112295Y-84431077D01*
X126112295Y-84431077D02*
X126112295Y-84507268D01*
X126112295Y-84507268D02*
X126074200Y-84621554D01*
X126074200Y-84621554D02*
X125998009Y-84697744D01*
X125998009Y-84697744D02*
X125921819Y-84735839D01*
X125921819Y-84735839D02*
X125769438Y-84773935D01*
X125769438Y-84773935D02*
X125655152Y-84773935D01*
X125655152Y-84773935D02*
X125502771Y-84735839D01*
X125502771Y-84735839D02*
X125426580Y-84697744D01*
X125426580Y-84697744D02*
X125350390Y-84621554D01*
X125350390Y-84621554D02*
X125312295Y-84507268D01*
X125312295Y-84507268D02*
X125312295Y-84431077D01*
X125312295Y-84431077D02*
X125350390Y-84316792D01*
X125350390Y-84316792D02*
X125388485Y-84278696D01*
X126112295Y-83516792D02*
X126112295Y-83973935D01*
X126112295Y-83745363D02*
X125312295Y-83745363D01*
X125312295Y-83745363D02*
X125426580Y-83821554D01*
X125426580Y-83821554D02*
X125502771Y-83897744D01*
X125502771Y-83897744D02*
X125540866Y-83973935D01*
X126112295Y-82754887D02*
X126112295Y-83212030D01*
X126112295Y-82983458D02*
X125312295Y-82983458D01*
X125312295Y-82983458D02*
X125426580Y-83059649D01*
X125426580Y-83059649D02*
X125502771Y-83135839D01*
X125502771Y-83135839D02*
X125540866Y-83212030D01*
X128641667Y-75286104D02*
X128603571Y-75324200D01*
X128603571Y-75324200D02*
X128489286Y-75362295D01*
X128489286Y-75362295D02*
X128413095Y-75362295D01*
X128413095Y-75362295D02*
X128298809Y-75324200D01*
X128298809Y-75324200D02*
X128222619Y-75248009D01*
X128222619Y-75248009D02*
X128184524Y-75171819D01*
X128184524Y-75171819D02*
X128146428Y-75019438D01*
X128146428Y-75019438D02*
X128146428Y-74905152D01*
X128146428Y-74905152D02*
X128184524Y-74752771D01*
X128184524Y-74752771D02*
X128222619Y-74676580D01*
X128222619Y-74676580D02*
X128298809Y-74600390D01*
X128298809Y-74600390D02*
X128413095Y-74562295D01*
X128413095Y-74562295D02*
X128489286Y-74562295D01*
X128489286Y-74562295D02*
X128603571Y-74600390D01*
X128603571Y-74600390D02*
X128641667Y-74638485D01*
X129022619Y-75362295D02*
X129175000Y-75362295D01*
X129175000Y-75362295D02*
X129251190Y-75324200D01*
X129251190Y-75324200D02*
X129289286Y-75286104D01*
X129289286Y-75286104D02*
X129365476Y-75171819D01*
X129365476Y-75171819D02*
X129403571Y-75019438D01*
X129403571Y-75019438D02*
X129403571Y-74714676D01*
X129403571Y-74714676D02*
X129365476Y-74638485D01*
X129365476Y-74638485D02*
X129327381Y-74600390D01*
X129327381Y-74600390D02*
X129251190Y-74562295D01*
X129251190Y-74562295D02*
X129098809Y-74562295D01*
X129098809Y-74562295D02*
X129022619Y-74600390D01*
X129022619Y-74600390D02*
X128984524Y-74638485D01*
X128984524Y-74638485D02*
X128946428Y-74714676D01*
X128946428Y-74714676D02*
X128946428Y-74905152D01*
X128946428Y-74905152D02*
X128984524Y-74981342D01*
X128984524Y-74981342D02*
X129022619Y-75019438D01*
X129022619Y-75019438D02*
X129098809Y-75057533D01*
X129098809Y-75057533D02*
X129251190Y-75057533D01*
X129251190Y-75057533D02*
X129327381Y-75019438D01*
X129327381Y-75019438D02*
X129365476Y-74981342D01*
X129365476Y-74981342D02*
X129403571Y-74905152D01*
X122786104Y-92113332D02*
X122824200Y-92151428D01*
X122824200Y-92151428D02*
X122862295Y-92265713D01*
X122862295Y-92265713D02*
X122862295Y-92341904D01*
X122862295Y-92341904D02*
X122824200Y-92456190D01*
X122824200Y-92456190D02*
X122748009Y-92532380D01*
X122748009Y-92532380D02*
X122671819Y-92570475D01*
X122671819Y-92570475D02*
X122519438Y-92608571D01*
X122519438Y-92608571D02*
X122405152Y-92608571D01*
X122405152Y-92608571D02*
X122252771Y-92570475D01*
X122252771Y-92570475D02*
X122176580Y-92532380D01*
X122176580Y-92532380D02*
X122100390Y-92456190D01*
X122100390Y-92456190D02*
X122062295Y-92341904D01*
X122062295Y-92341904D02*
X122062295Y-92265713D01*
X122062295Y-92265713D02*
X122100390Y-92151428D01*
X122100390Y-92151428D02*
X122138485Y-92113332D01*
X122405152Y-91656190D02*
X122367057Y-91732380D01*
X122367057Y-91732380D02*
X122328961Y-91770475D01*
X122328961Y-91770475D02*
X122252771Y-91808571D01*
X122252771Y-91808571D02*
X122214676Y-91808571D01*
X122214676Y-91808571D02*
X122138485Y-91770475D01*
X122138485Y-91770475D02*
X122100390Y-91732380D01*
X122100390Y-91732380D02*
X122062295Y-91656190D01*
X122062295Y-91656190D02*
X122062295Y-91503809D01*
X122062295Y-91503809D02*
X122100390Y-91427618D01*
X122100390Y-91427618D02*
X122138485Y-91389523D01*
X122138485Y-91389523D02*
X122214676Y-91351428D01*
X122214676Y-91351428D02*
X122252771Y-91351428D01*
X122252771Y-91351428D02*
X122328961Y-91389523D01*
X122328961Y-91389523D02*
X122367057Y-91427618D01*
X122367057Y-91427618D02*
X122405152Y-91503809D01*
X122405152Y-91503809D02*
X122405152Y-91656190D01*
X122405152Y-91656190D02*
X122443247Y-91732380D01*
X122443247Y-91732380D02*
X122481342Y-91770475D01*
X122481342Y-91770475D02*
X122557533Y-91808571D01*
X122557533Y-91808571D02*
X122709914Y-91808571D01*
X122709914Y-91808571D02*
X122786104Y-91770475D01*
X122786104Y-91770475D02*
X122824200Y-91732380D01*
X122824200Y-91732380D02*
X122862295Y-91656190D01*
X122862295Y-91656190D02*
X122862295Y-91503809D01*
X122862295Y-91503809D02*
X122824200Y-91427618D01*
X122824200Y-91427618D02*
X122786104Y-91389523D01*
X122786104Y-91389523D02*
X122709914Y-91351428D01*
X122709914Y-91351428D02*
X122557533Y-91351428D01*
X122557533Y-91351428D02*
X122481342Y-91389523D01*
X122481342Y-91389523D02*
X122443247Y-91427618D01*
X122443247Y-91427618D02*
X122405152Y-91503809D01*
X121536104Y-84003696D02*
X121574200Y-84041792D01*
X121574200Y-84041792D02*
X121612295Y-84156077D01*
X121612295Y-84156077D02*
X121612295Y-84232268D01*
X121612295Y-84232268D02*
X121574200Y-84346554D01*
X121574200Y-84346554D02*
X121498009Y-84422744D01*
X121498009Y-84422744D02*
X121421819Y-84460839D01*
X121421819Y-84460839D02*
X121269438Y-84498935D01*
X121269438Y-84498935D02*
X121155152Y-84498935D01*
X121155152Y-84498935D02*
X121002771Y-84460839D01*
X121002771Y-84460839D02*
X120926580Y-84422744D01*
X120926580Y-84422744D02*
X120850390Y-84346554D01*
X120850390Y-84346554D02*
X120812295Y-84232268D01*
X120812295Y-84232268D02*
X120812295Y-84156077D01*
X120812295Y-84156077D02*
X120850390Y-84041792D01*
X120850390Y-84041792D02*
X120888485Y-84003696D01*
X120812295Y-83737030D02*
X120812295Y-83203696D01*
X120812295Y-83203696D02*
X121612295Y-83546554D01*
X134286104Y-78383332D02*
X134324200Y-78421428D01*
X134324200Y-78421428D02*
X134362295Y-78535713D01*
X134362295Y-78535713D02*
X134362295Y-78611904D01*
X134362295Y-78611904D02*
X134324200Y-78726190D01*
X134324200Y-78726190D02*
X134248009Y-78802380D01*
X134248009Y-78802380D02*
X134171819Y-78840475D01*
X134171819Y-78840475D02*
X134019438Y-78878571D01*
X134019438Y-78878571D02*
X133905152Y-78878571D01*
X133905152Y-78878571D02*
X133752771Y-78840475D01*
X133752771Y-78840475D02*
X133676580Y-78802380D01*
X133676580Y-78802380D02*
X133600390Y-78726190D01*
X133600390Y-78726190D02*
X133562295Y-78611904D01*
X133562295Y-78611904D02*
X133562295Y-78535713D01*
X133562295Y-78535713D02*
X133600390Y-78421428D01*
X133600390Y-78421428D02*
X133638485Y-78383332D01*
X133562295Y-77697618D02*
X133562295Y-77849999D01*
X133562295Y-77849999D02*
X133600390Y-77926190D01*
X133600390Y-77926190D02*
X133638485Y-77964285D01*
X133638485Y-77964285D02*
X133752771Y-78040475D01*
X133752771Y-78040475D02*
X133905152Y-78078571D01*
X133905152Y-78078571D02*
X134209914Y-78078571D01*
X134209914Y-78078571D02*
X134286104Y-78040475D01*
X134286104Y-78040475D02*
X134324200Y-78002380D01*
X134324200Y-78002380D02*
X134362295Y-77926190D01*
X134362295Y-77926190D02*
X134362295Y-77773809D01*
X134362295Y-77773809D02*
X134324200Y-77697618D01*
X134324200Y-77697618D02*
X134286104Y-77659523D01*
X134286104Y-77659523D02*
X134209914Y-77621428D01*
X134209914Y-77621428D02*
X134019438Y-77621428D01*
X134019438Y-77621428D02*
X133943247Y-77659523D01*
X133943247Y-77659523D02*
X133905152Y-77697618D01*
X133905152Y-77697618D02*
X133867057Y-77773809D01*
X133867057Y-77773809D02*
X133867057Y-77926190D01*
X133867057Y-77926190D02*
X133905152Y-78002380D01*
X133905152Y-78002380D02*
X133943247Y-78040475D01*
X133943247Y-78040475D02*
X134019438Y-78078571D01*
X133036104Y-77158332D02*
X133074200Y-77196428D01*
X133074200Y-77196428D02*
X133112295Y-77310713D01*
X133112295Y-77310713D02*
X133112295Y-77386904D01*
X133112295Y-77386904D02*
X133074200Y-77501190D01*
X133074200Y-77501190D02*
X132998009Y-77577380D01*
X132998009Y-77577380D02*
X132921819Y-77615475D01*
X132921819Y-77615475D02*
X132769438Y-77653571D01*
X132769438Y-77653571D02*
X132655152Y-77653571D01*
X132655152Y-77653571D02*
X132502771Y-77615475D01*
X132502771Y-77615475D02*
X132426580Y-77577380D01*
X132426580Y-77577380D02*
X132350390Y-77501190D01*
X132350390Y-77501190D02*
X132312295Y-77386904D01*
X132312295Y-77386904D02*
X132312295Y-77310713D01*
X132312295Y-77310713D02*
X132350390Y-77196428D01*
X132350390Y-77196428D02*
X132388485Y-77158332D01*
X132312295Y-76434523D02*
X132312295Y-76815475D01*
X132312295Y-76815475D02*
X132693247Y-76853571D01*
X132693247Y-76853571D02*
X132655152Y-76815475D01*
X132655152Y-76815475D02*
X132617057Y-76739285D01*
X132617057Y-76739285D02*
X132617057Y-76548809D01*
X132617057Y-76548809D02*
X132655152Y-76472618D01*
X132655152Y-76472618D02*
X132693247Y-76434523D01*
X132693247Y-76434523D02*
X132769438Y-76396428D01*
X132769438Y-76396428D02*
X132959914Y-76396428D01*
X132959914Y-76396428D02*
X133036104Y-76434523D01*
X133036104Y-76434523D02*
X133074200Y-76472618D01*
X133074200Y-76472618D02*
X133112295Y-76548809D01*
X133112295Y-76548809D02*
X133112295Y-76739285D01*
X133112295Y-76739285D02*
X133074200Y-76815475D01*
X133074200Y-76815475D02*
X133036104Y-76853571D01*
X135329167Y-80836104D02*
X135291071Y-80874200D01*
X135291071Y-80874200D02*
X135176786Y-80912295D01*
X135176786Y-80912295D02*
X135100595Y-80912295D01*
X135100595Y-80912295D02*
X134986309Y-80874200D01*
X134986309Y-80874200D02*
X134910119Y-80798009D01*
X134910119Y-80798009D02*
X134872024Y-80721819D01*
X134872024Y-80721819D02*
X134833928Y-80569438D01*
X134833928Y-80569438D02*
X134833928Y-80455152D01*
X134833928Y-80455152D02*
X134872024Y-80302771D01*
X134872024Y-80302771D02*
X134910119Y-80226580D01*
X134910119Y-80226580D02*
X134986309Y-80150390D01*
X134986309Y-80150390D02*
X135100595Y-80112295D01*
X135100595Y-80112295D02*
X135176786Y-80112295D01*
X135176786Y-80112295D02*
X135291071Y-80150390D01*
X135291071Y-80150390D02*
X135329167Y-80188485D01*
X135595833Y-80112295D02*
X136091071Y-80112295D01*
X136091071Y-80112295D02*
X135824405Y-80417057D01*
X135824405Y-80417057D02*
X135938690Y-80417057D01*
X135938690Y-80417057D02*
X136014881Y-80455152D01*
X136014881Y-80455152D02*
X136052976Y-80493247D01*
X136052976Y-80493247D02*
X136091071Y-80569438D01*
X136091071Y-80569438D02*
X136091071Y-80759914D01*
X136091071Y-80759914D02*
X136052976Y-80836104D01*
X136052976Y-80836104D02*
X136014881Y-80874200D01*
X136014881Y-80874200D02*
X135938690Y-80912295D01*
X135938690Y-80912295D02*
X135710119Y-80912295D01*
X135710119Y-80912295D02*
X135633928Y-80874200D01*
X135633928Y-80874200D02*
X135595833Y-80836104D01*
X128536104Y-87633332D02*
X128574200Y-87671428D01*
X128574200Y-87671428D02*
X128612295Y-87785713D01*
X128612295Y-87785713D02*
X128612295Y-87861904D01*
X128612295Y-87861904D02*
X128574200Y-87976190D01*
X128574200Y-87976190D02*
X128498009Y-88052380D01*
X128498009Y-88052380D02*
X128421819Y-88090475D01*
X128421819Y-88090475D02*
X128269438Y-88128571D01*
X128269438Y-88128571D02*
X128155152Y-88128571D01*
X128155152Y-88128571D02*
X128002771Y-88090475D01*
X128002771Y-88090475D02*
X127926580Y-88052380D01*
X127926580Y-88052380D02*
X127850390Y-87976190D01*
X127850390Y-87976190D02*
X127812295Y-87861904D01*
X127812295Y-87861904D02*
X127812295Y-87785713D01*
X127812295Y-87785713D02*
X127850390Y-87671428D01*
X127850390Y-87671428D02*
X127888485Y-87633332D01*
X127888485Y-87328571D02*
X127850390Y-87290475D01*
X127850390Y-87290475D02*
X127812295Y-87214285D01*
X127812295Y-87214285D02*
X127812295Y-87023809D01*
X127812295Y-87023809D02*
X127850390Y-86947618D01*
X127850390Y-86947618D02*
X127888485Y-86909523D01*
X127888485Y-86909523D02*
X127964676Y-86871428D01*
X127964676Y-86871428D02*
X128040866Y-86871428D01*
X128040866Y-86871428D02*
X128155152Y-86909523D01*
X128155152Y-86909523D02*
X128612295Y-87366666D01*
X128612295Y-87366666D02*
X128612295Y-86871428D01*
X131536104Y-78658332D02*
X131574200Y-78696428D01*
X131574200Y-78696428D02*
X131612295Y-78810713D01*
X131612295Y-78810713D02*
X131612295Y-78886904D01*
X131612295Y-78886904D02*
X131574200Y-79001190D01*
X131574200Y-79001190D02*
X131498009Y-79077380D01*
X131498009Y-79077380D02*
X131421819Y-79115475D01*
X131421819Y-79115475D02*
X131269438Y-79153571D01*
X131269438Y-79153571D02*
X131155152Y-79153571D01*
X131155152Y-79153571D02*
X131002771Y-79115475D01*
X131002771Y-79115475D02*
X130926580Y-79077380D01*
X130926580Y-79077380D02*
X130850390Y-79001190D01*
X130850390Y-79001190D02*
X130812295Y-78886904D01*
X130812295Y-78886904D02*
X130812295Y-78810713D01*
X130812295Y-78810713D02*
X130850390Y-78696428D01*
X130850390Y-78696428D02*
X130888485Y-78658332D01*
X131612295Y-77896428D02*
X131612295Y-78353571D01*
X131612295Y-78124999D02*
X130812295Y-78124999D01*
X130812295Y-78124999D02*
X130926580Y-78201190D01*
X130926580Y-78201190D02*
X131002771Y-78277380D01*
X131002771Y-78277380D02*
X131040866Y-78353571D01*
D11*
%TO.C,J3*%
X110640000Y-92060000D02*
X115360000Y-92060000D01*
X112750000Y-92060000D02*
X112750000Y-91450000D01*
X114050000Y-92060000D02*
X114050000Y-91450000D01*
X115360000Y-92060000D02*
X115360000Y-71940000D01*
X111250000Y-91450000D02*
X114750000Y-91450000D01*
X114750000Y-91450000D02*
X114750000Y-89500000D01*
X114750000Y-89500000D02*
X115360000Y-89500000D01*
X111750000Y-89100000D02*
X111250000Y-89100000D01*
X111250000Y-89000000D02*
X111750000Y-89000000D01*
X111250000Y-88900000D02*
X111750000Y-88900000D01*
X111750000Y-88900000D02*
X111750000Y-89100000D01*
X111750000Y-87100000D02*
X111250000Y-87100000D01*
X111250000Y-87000000D02*
X111750000Y-87000000D01*
X111250000Y-86900000D02*
X111750000Y-86900000D01*
X111750000Y-86900000D02*
X111750000Y-87100000D01*
X111750000Y-85100000D02*
X111250000Y-85100000D01*
X111250000Y-85000000D02*
X111750000Y-85000000D01*
X111250000Y-84900000D02*
X111750000Y-84900000D01*
X111750000Y-84900000D02*
X111750000Y-85100000D01*
X111750000Y-83100000D02*
X111250000Y-83100000D01*
X111250000Y-83000000D02*
X111750000Y-83000000D01*
X111250000Y-82900000D02*
X111750000Y-82900000D01*
X111750000Y-82900000D02*
X111750000Y-83100000D01*
X111750000Y-81100000D02*
X111250000Y-81100000D01*
X111250000Y-81000000D02*
X111750000Y-81000000D01*
X111250000Y-80900000D02*
X111750000Y-80900000D01*
X111750000Y-80900000D02*
X111750000Y-81100000D01*
X111750000Y-79100000D02*
X111250000Y-79100000D01*
X111250000Y-79000000D02*
X111750000Y-79000000D01*
X111250000Y-78900000D02*
X111750000Y-78900000D01*
X111750000Y-78900000D02*
X111750000Y-79100000D01*
X111750000Y-77100000D02*
X111250000Y-77100000D01*
X111250000Y-77000000D02*
X111750000Y-77000000D01*
X111250000Y-76900000D02*
X111750000Y-76900000D01*
X111750000Y-76900000D02*
X111750000Y-77100000D01*
X111750000Y-75100000D02*
X111250000Y-75100000D01*
X111250000Y-75000000D02*
X111750000Y-75000000D01*
X111250000Y-74900000D02*
X111750000Y-74900000D01*
X111750000Y-74900000D02*
X111750000Y-75100000D01*
X114750000Y-74500000D02*
X114750000Y-72550000D01*
X115360000Y-74500000D02*
X114750000Y-74500000D01*
X115360000Y-73700000D02*
X115560000Y-73700000D01*
X115460000Y-73700000D02*
X115460000Y-73400000D01*
X115560000Y-73700000D02*
X115560000Y-73400000D01*
X115560000Y-73400000D02*
X115360000Y-73400000D01*
X115660000Y-72890000D02*
X115660000Y-71640000D01*
X111250000Y-72550000D02*
X111250000Y-91450000D01*
X114750000Y-72550000D02*
X111250000Y-72550000D01*
X110640000Y-71940000D02*
X110640000Y-92060000D01*
X112750000Y-71940000D02*
X112750000Y-72550000D01*
X114050000Y-71940000D02*
X114050000Y-72550000D01*
X115360000Y-71940000D02*
X110640000Y-71940000D01*
X115660000Y-71640000D02*
X114410000Y-71640000D01*
%TO.C,J1*%
X142340000Y-87360000D02*
X143590000Y-87360000D01*
X142640000Y-87060000D02*
X147360000Y-87060000D01*
X143950000Y-87060000D02*
X143950000Y-86450000D01*
X145250000Y-87060000D02*
X145250000Y-86450000D01*
X147360000Y-87060000D02*
X147360000Y-76940000D01*
X143250000Y-86450000D02*
X146750000Y-86450000D01*
X146750000Y-86450000D02*
X146750000Y-77550000D01*
X142340000Y-86110000D02*
X142340000Y-87360000D01*
X142440000Y-85600000D02*
X142640000Y-85600000D01*
X142440000Y-85300000D02*
X142440000Y-85600000D01*
X142540000Y-85300000D02*
X142540000Y-85600000D01*
X142640000Y-85300000D02*
X142440000Y-85300000D01*
X142640000Y-84500000D02*
X143250000Y-84500000D01*
X143250000Y-84500000D02*
X143250000Y-86450000D01*
X146250000Y-84100000D02*
X146250000Y-83900000D01*
X146750000Y-84100000D02*
X146250000Y-84100000D01*
X146750000Y-84000000D02*
X146250000Y-84000000D01*
X146250000Y-83900000D02*
X146750000Y-83900000D01*
X146250000Y-82100000D02*
X146250000Y-81900000D01*
X146750000Y-82100000D02*
X146250000Y-82100000D01*
X146750000Y-82000000D02*
X146250000Y-82000000D01*
X146250000Y-81900000D02*
X146750000Y-81900000D01*
X146250000Y-80100000D02*
X146250000Y-79900000D01*
X146750000Y-80100000D02*
X146250000Y-80100000D01*
X146750000Y-80000000D02*
X146250000Y-80000000D01*
X146250000Y-79900000D02*
X146750000Y-79900000D01*
X143250000Y-79500000D02*
X142640000Y-79500000D01*
X143250000Y-77550000D02*
X143250000Y-79500000D01*
X146750000Y-77550000D02*
X143250000Y-77550000D01*
X142640000Y-76940000D02*
X142640000Y-87060000D01*
X143950000Y-76940000D02*
X143950000Y-77550000D01*
X145250000Y-76940000D02*
X145250000Y-77550000D01*
X147360000Y-76940000D02*
X142640000Y-76940000D01*
%TO.C,C10*%
X128915580Y-79010000D02*
X128634420Y-79010000D01*
X128915580Y-77990000D02*
X128634420Y-77990000D01*
%TO.C,C4*%
X130890000Y-89572164D02*
X130890000Y-89787836D01*
X131610000Y-89572164D02*
X131610000Y-89787836D01*
%TO.C,U4*%
X125000000Y-75940000D02*
X124200000Y-75940000D01*
X125000000Y-75940000D02*
X125800000Y-75940000D01*
X125000000Y-79060000D02*
X124200000Y-79060000D01*
X125000000Y-79060000D02*
X125800000Y-79060000D01*
X123700000Y-75990000D02*
X123460000Y-75660000D01*
X123940000Y-75660000D01*
X123700000Y-75990000D01*
G36*
X123700000Y-75990000D02*
G01*
X123460000Y-75660000D01*
X123940000Y-75660000D01*
X123700000Y-75990000D01*
G37*
%TO.C,U2*%
X125280000Y-85200000D02*
X124800000Y-85200000D01*
X124800000Y-84720000D01*
X125280000Y-85200000D01*
G36*
X125280000Y-85200000D02*
G01*
X124800000Y-85200000D01*
X124800000Y-84720000D01*
X125280000Y-85200000D01*
G37*
X122115000Y-85750000D02*
X122115000Y-88250000D01*
X124885000Y-85750000D02*
X124885000Y-88250000D01*
%TO.C,U1*%
X135940000Y-83130000D02*
X135610000Y-82890000D01*
X135940000Y-82650000D01*
X135940000Y-83130000D01*
G36*
X135940000Y-83130000D02*
G01*
X135610000Y-82890000D01*
X135940000Y-82650000D01*
X135940000Y-83130000D01*
G37*
X130390000Y-88110000D02*
X130865000Y-88110000D01*
X135610000Y-88110000D02*
X135135000Y-88110000D01*
X130390000Y-87635000D02*
X130390000Y-88110000D01*
X135610000Y-87635000D02*
X135610000Y-88110000D01*
X130390000Y-83365000D02*
X130390000Y-82890000D01*
X135610000Y-83365000D02*
X135610000Y-83190000D01*
X130390000Y-82890000D02*
X130865000Y-82890000D01*
X135135000Y-82890000D02*
X135370000Y-82890000D01*
%TO.C,R10*%
X139653641Y-81880000D02*
X139346359Y-81880000D01*
X139653641Y-81120000D02*
X139346359Y-81120000D01*
%TO.C,R9*%
X139346359Y-82120000D02*
X139653641Y-82120000D01*
X139346359Y-82880000D02*
X139653641Y-82880000D01*
%TO.C,R8*%
X124120000Y-90153641D02*
X124120000Y-89846359D01*
X124880000Y-90153641D02*
X124880000Y-89846359D01*
%TO.C,R7*%
X125120000Y-89846359D02*
X125120000Y-90153641D01*
X125880000Y-89846359D02*
X125880000Y-90153641D01*
%TO.C,R6*%
X117346359Y-76380000D02*
X117653641Y-76380000D01*
X117346359Y-75620000D02*
X117653641Y-75620000D01*
%TO.C,R5*%
X117346359Y-77620000D02*
X117653641Y-77620000D01*
X117346359Y-78380000D02*
X117653641Y-78380000D01*
%TO.C,R4*%
X117346359Y-79620000D02*
X117653641Y-79620000D01*
X117346359Y-80380000D02*
X117653641Y-80380000D01*
%TO.C,R3*%
X117346359Y-81620000D02*
X117653641Y-81620000D01*
X117346359Y-82380000D02*
X117653641Y-82380000D01*
%TO.C,R2*%
X117653641Y-83620000D02*
X117346359Y-83620000D01*
X117653641Y-84380000D02*
X117346359Y-84380000D01*
%TO.C,R1*%
X117346359Y-85620000D02*
X117653641Y-85620000D01*
X117346359Y-86380000D02*
X117653641Y-86380000D01*
%TO.C,L1*%
X124760000Y-85060000D02*
X122240000Y-85060000D01*
X124760000Y-82940000D02*
X122240000Y-82940000D01*
%TO.C,C15*%
X137640000Y-80107836D02*
X137640000Y-79892164D01*
X138360000Y-80107836D02*
X138360000Y-79892164D01*
%TO.C,C14*%
X137640000Y-82107836D02*
X137640000Y-81892164D01*
X138360000Y-82107836D02*
X138360000Y-81892164D01*
%TO.C,C13*%
X138360000Y-84107836D02*
X138360000Y-83892164D01*
X137640000Y-84107836D02*
X137640000Y-83892164D01*
%TO.C,C12*%
X122310000Y-77134420D02*
X122310000Y-77415580D01*
X121290000Y-77134420D02*
X121290000Y-77415580D01*
%TO.C,C11*%
X125240000Y-86384420D02*
X125240000Y-86665580D01*
X126260000Y-86384420D02*
X126260000Y-86665580D01*
%TO.C,C9*%
X128915580Y-77010000D02*
X128634420Y-77010000D01*
X128915580Y-75990000D02*
X128634420Y-75990000D01*
%TO.C,C8*%
X122860000Y-90087836D02*
X122860000Y-89872164D01*
X122140000Y-90087836D02*
X122140000Y-89872164D01*
%TO.C,C7*%
X120740000Y-86384420D02*
X120740000Y-86665580D01*
X121760000Y-86384420D02*
X121760000Y-86665580D01*
%TO.C,C6*%
X133640000Y-80162164D02*
X133640000Y-80377836D01*
X134360000Y-80162164D02*
X134360000Y-80377836D01*
%TO.C,C5*%
X132240000Y-80365580D02*
X132240000Y-80084420D01*
X133260000Y-80365580D02*
X133260000Y-80084420D01*
%TO.C,C3*%
X134392164Y-82110000D02*
X134607836Y-82110000D01*
X134392164Y-81390000D02*
X134607836Y-81390000D01*
%TO.C,C2*%
X129610000Y-87372164D02*
X129610000Y-87587836D01*
X128890000Y-87372164D02*
X128890000Y-87587836D01*
%TO.C,C1*%
X131760000Y-80609420D02*
X131760000Y-80890580D01*
X130740000Y-80609420D02*
X130740000Y-80890580D01*
%TD*%
%LPC*%
D12*
%TO.C,H3*%
X116500000Y-92000000D03*
%TD*%
%TO.C,H2*%
X146000000Y-92000000D03*
%TD*%
%TO.C,H1*%
X146000000Y-72000000D03*
%TD*%
D13*
%TO.C,J3*%
X113550000Y-90000000D03*
X113550000Y-88000000D03*
X113550000Y-86000000D03*
X113550000Y-84000000D03*
X113550000Y-82000000D03*
X113550000Y-80000000D03*
X113550000Y-78000000D03*
X113550000Y-76000000D03*
D14*
X113550000Y-74000000D03*
%TD*%
D15*
%TO.C,J1*%
X144450000Y-85000000D03*
D13*
X144450000Y-83000000D03*
X144450000Y-81000000D03*
X144450000Y-79000000D03*
%TD*%
D16*
%TO.C,C10*%
X129550000Y-78500000D03*
X128000000Y-78500000D03*
%TD*%
D17*
%TO.C,C4*%
X131250000Y-90160000D03*
X131250000Y-89200000D03*
%TD*%
D18*
%TO.C,U4*%
X123862500Y-76550000D03*
X123862500Y-77500000D03*
X123862500Y-78450000D03*
X126137500Y-78450000D03*
X126137500Y-76550000D03*
%TD*%
D19*
%TO.C,U2*%
X123500000Y-87000000D03*
D20*
X124500000Y-88212500D03*
X124000000Y-88212500D03*
X123500000Y-88212500D03*
X123000000Y-88212500D03*
X122500000Y-88212500D03*
X122500000Y-85787500D03*
X123000000Y-85787500D03*
X123500000Y-85787500D03*
X124000000Y-85787500D03*
X124500000Y-85787500D03*
%TD*%
D21*
%TO.C,U1*%
X133000000Y-85500000D03*
D22*
X135437500Y-83750000D03*
X135437500Y-84250000D03*
X135437500Y-84750000D03*
X135437500Y-85250000D03*
X135437500Y-85750000D03*
X135437500Y-86250000D03*
X135437500Y-86750000D03*
X135437500Y-87250000D03*
D23*
X134750000Y-87937500D03*
X134250000Y-87937500D03*
X133750000Y-87937500D03*
X133250000Y-87937500D03*
X132750000Y-87937500D03*
X132250000Y-87937500D03*
X131750000Y-87937500D03*
X131250000Y-87937500D03*
D22*
X130562500Y-87250000D03*
X130562500Y-86750000D03*
X130562500Y-86250000D03*
X130562500Y-85750000D03*
X130562500Y-85250000D03*
X130562500Y-84750000D03*
X130562500Y-84250000D03*
X130562500Y-83750000D03*
D23*
X131250000Y-83062500D03*
X131750000Y-83062500D03*
X132250000Y-83062500D03*
X132750000Y-83062500D03*
X133250000Y-83062500D03*
X133750000Y-83062500D03*
X134250000Y-83062500D03*
X134750000Y-83062500D03*
%TD*%
D24*
%TO.C,R10*%
X140010000Y-81500000D03*
X138990000Y-81500000D03*
%TD*%
D25*
%TO.C,R9*%
X138990000Y-82500000D03*
X140010000Y-82500000D03*
%TD*%
D26*
%TO.C,R8*%
X124500000Y-90510000D03*
X124500000Y-89490000D03*
%TD*%
D27*
%TO.C,R7*%
X125500000Y-90510000D03*
X125500000Y-89490000D03*
%TD*%
D25*
%TO.C,R6*%
X118010000Y-76000000D03*
X116990000Y-76000000D03*
%TD*%
%TO.C,R5*%
X116990000Y-78000000D03*
X118010000Y-78000000D03*
%TD*%
%TO.C,R4*%
X116990000Y-80000000D03*
X118010000Y-80000000D03*
%TD*%
%TO.C,R3*%
X116990000Y-82000000D03*
X118010000Y-82000000D03*
%TD*%
D24*
%TO.C,R2*%
X116990000Y-84000000D03*
X118010000Y-84000000D03*
%TD*%
D25*
%TO.C,R1*%
X116990000Y-86000000D03*
X118010000Y-86000000D03*
%TD*%
D28*
%TO.C,L1*%
X124225000Y-84000000D03*
X122775000Y-84000000D03*
%TD*%
D29*
%TO.C,C15*%
X138000000Y-80480000D03*
X138000000Y-79520000D03*
%TD*%
%TO.C,C14*%
X138000000Y-82480000D03*
X138000000Y-81520000D03*
%TD*%
%TO.C,C13*%
X138000000Y-83520000D03*
X138000000Y-84480000D03*
%TD*%
D30*
%TO.C,C12*%
X121800000Y-76500000D03*
X121800000Y-78050000D03*
%TD*%
%TO.C,C11*%
X125750000Y-87300000D03*
X125750000Y-85750000D03*
%TD*%
D16*
%TO.C,C9*%
X129550000Y-76500000D03*
X128000000Y-76500000D03*
%TD*%
D29*
%TO.C,C8*%
X122500000Y-89500000D03*
X122500000Y-90460000D03*
%TD*%
D30*
%TO.C,C7*%
X121250000Y-87300000D03*
X121250000Y-85750000D03*
%TD*%
D17*
%TO.C,C6*%
X134000000Y-80750000D03*
X134000000Y-79790000D03*
%TD*%
D31*
%TO.C,C5*%
X132750000Y-81000000D03*
X132750000Y-79450000D03*
%TD*%
D32*
%TO.C,C3*%
X134980000Y-81750000D03*
X134020000Y-81750000D03*
%TD*%
D17*
%TO.C,C2*%
X129250000Y-87000000D03*
X129250000Y-87960000D03*
%TD*%
D30*
%TO.C,C1*%
X131250000Y-79975000D03*
X131250000Y-81525000D03*
%TD*%
%LPD*%
M02*
