%TF.GenerationSoftware,KiCad,Pcbnew,8.0.1*%
%TF.CreationDate,2024-04-25T00:01:52-04:00*%
%TF.ProjectId,ads1260_board,61647331-3236-4305-9f62-6f6172642e6b,rev?*%
%TF.SameCoordinates,Original*%
%TF.FileFunction,Copper,L2,Inr*%
%TF.FilePolarity,Positive*%
%FSLAX46Y46*%
G04 Gerber Fmt 4.6, Leading zero omitted, Abs format (unit mm)*
G04 Created by KiCad (PCBNEW 8.0.1) date 2024-04-25 00:01:52*
%MOMM*%
%LPD*%
G01*
G04 APERTURE LIST*
G04 Aperture macros list*
%AMRoundRect*
0 Rectangle with rounded corners*
0 $1 Rounding radius*
0 $2 $3 $4 $5 $6 $7 $8 $9 X,Y pos of 4 corners*
0 Add a 4 corners polygon primitive as box body*
4,1,4,$2,$3,$4,$5,$6,$7,$8,$9,$2,$3,0*
0 Add four circle primitives for the rounded corners*
1,1,$1+$1,$2,$3*
1,1,$1+$1,$4,$5*
1,1,$1+$1,$6,$7*
1,1,$1+$1,$8,$9*
0 Add four rect primitives between the rounded corners*
20,1,$1+$1,$2,$3,$4,$5,0*
20,1,$1+$1,$4,$5,$6,$7,0*
20,1,$1+$1,$6,$7,$8,$9,0*
20,1,$1+$1,$8,$9,$2,$3,0*%
G04 Aperture macros list end*
%TA.AperFunction,ComponentPad*%
%ADD10O,1.750000X1.200000*%
%TD*%
%TA.AperFunction,ComponentPad*%
%ADD11RoundRect,0.250000X-0.625000X0.350000X-0.625000X-0.350000X0.625000X-0.350000X0.625000X0.350000X0*%
%TD*%
%TA.AperFunction,ComponentPad*%
%ADD12RoundRect,0.250000X0.625000X-0.350000X0.625000X0.350000X-0.625000X0.350000X-0.625000X-0.350000X0*%
%TD*%
%TA.AperFunction,ViaPad*%
%ADD13C,0.600000*%
%TD*%
G04 APERTURE END LIST*
D10*
%TO.N,VBUS*%
%TO.C,J3*%
X113550000Y-90000000D03*
%TO.N,+3V3*%
X113550000Y-88000000D03*
%TO.N,Net-(J3-Pin_7)*%
X113550000Y-86000000D03*
%TO.N,Net-(J3-Pin_6)*%
X113550000Y-84000000D03*
%TO.N,Net-(J3-Pin_5)*%
X113550000Y-82000000D03*
%TO.N,Net-(J3-Pin_4)*%
X113550000Y-80000000D03*
%TO.N,Net-(J3-Pin_3)*%
X113550000Y-78000000D03*
%TO.N,Net-(J3-Pin_2)*%
X113550000Y-76000000D03*
D11*
%TO.N,GND*%
X113550000Y-74000000D03*
%TD*%
D12*
%TO.N,GND*%
%TO.C,J1*%
X144450000Y-85000000D03*
D10*
%TO.N,/SIG+*%
X144450000Y-83000000D03*
%TO.N,/SIG-*%
X144450000Y-81000000D03*
%TO.N,+5V*%
X144450000Y-79000000D03*
%TD*%
D13*
%TO.N,GND*%
X112000000Y-74000000D03*
X115000000Y-74000000D03*
X130500000Y-78500000D03*
X147000000Y-74000000D03*
X147000000Y-82000000D03*
X147000000Y-90000000D03*
X111000000Y-74000000D03*
X111000000Y-80000000D03*
X111000000Y-84000000D03*
X111000000Y-90000000D03*
X129000000Y-71000000D03*
X139000000Y-71000000D03*
X119000000Y-71000000D03*
X114000000Y-71000000D03*
X124000000Y-71000000D03*
X144000000Y-71000000D03*
X134000000Y-71000000D03*
X114000000Y-93000000D03*
X119000000Y-93000000D03*
X124000000Y-93000000D03*
X129000000Y-93000000D03*
X134000000Y-93000000D03*
X139000000Y-93000000D03*
X144000000Y-93000000D03*
%TO.N,+5V*%
X130250000Y-88250000D03*
%TO.N,GND*%
X122778224Y-77987134D03*
%TO.N,+5V5*%
X122750000Y-76500000D03*
X126250000Y-90500000D03*
%TO.N,+5V*%
X130250000Y-82500000D03*
%TO.N,GND*%
X124000000Y-87000000D03*
%TO.N,+5V5*%
X125750000Y-84750000D03*
%TO.N,VBUS*%
X121250000Y-84750000D03*
%TO.N,GND*%
X122500000Y-91250000D03*
X124500000Y-91250000D03*
X123000000Y-87000000D03*
%TO.N,+5V5*%
X126750000Y-85750000D03*
%TO.N,GND*%
X131250000Y-91000000D03*
X132750000Y-78500000D03*
%TO.N,+5V*%
X133000000Y-82000000D03*
%TO.N,GND*%
X138000000Y-85250000D03*
X138000000Y-78750000D03*
X133000000Y-85500000D03*
X129250000Y-88750000D03*
%TO.N,VBUS*%
X120250000Y-85750000D03*
%TO.N,GND*%
X121250000Y-88250000D03*
X125750000Y-88250000D03*
%TO.N,+5V*%
X126250000Y-77500000D03*
X126250000Y-75500000D03*
%TO.N,GND*%
X130500000Y-76500000D03*
%TD*%
%TA.AperFunction,Conductor*%
%TO.N,GND*%
G36*
X146004418Y-70500816D02*
G01*
X146204561Y-70515130D01*
X146222063Y-70517647D01*
X146413797Y-70559355D01*
X146430755Y-70564334D01*
X146614609Y-70632909D01*
X146630701Y-70640259D01*
X146802904Y-70734288D01*
X146817784Y-70743849D01*
X146974867Y-70861441D01*
X146988237Y-70873027D01*
X147126972Y-71011762D01*
X147138558Y-71025132D01*
X147249625Y-71173500D01*
X147256146Y-71182210D01*
X147265711Y-71197095D01*
X147359740Y-71369298D01*
X147367090Y-71385390D01*
X147435662Y-71569236D01*
X147440646Y-71586212D01*
X147482351Y-71777931D01*
X147484869Y-71795442D01*
X147499184Y-71995580D01*
X147499500Y-72004427D01*
X147499500Y-91995572D01*
X147499184Y-92004419D01*
X147484869Y-92204557D01*
X147482351Y-92222068D01*
X147440646Y-92413787D01*
X147435662Y-92430763D01*
X147367090Y-92614609D01*
X147359740Y-92630701D01*
X147265711Y-92802904D01*
X147256146Y-92817789D01*
X147138558Y-92974867D01*
X147126972Y-92988237D01*
X146988237Y-93126972D01*
X146974867Y-93138558D01*
X146817789Y-93256146D01*
X146802904Y-93265711D01*
X146630701Y-93359740D01*
X146614609Y-93367090D01*
X146430763Y-93435662D01*
X146413787Y-93440646D01*
X146222068Y-93482351D01*
X146204557Y-93484869D01*
X146023779Y-93497799D01*
X146004417Y-93499184D01*
X145995572Y-93499500D01*
X112004428Y-93499500D01*
X111995582Y-93499184D01*
X111973622Y-93497613D01*
X111795442Y-93484869D01*
X111777931Y-93482351D01*
X111586212Y-93440646D01*
X111569236Y-93435662D01*
X111385390Y-93367090D01*
X111369298Y-93359740D01*
X111197095Y-93265711D01*
X111182210Y-93256146D01*
X111025132Y-93138558D01*
X111011762Y-93126972D01*
X110873027Y-92988237D01*
X110861441Y-92974867D01*
X110743849Y-92817784D01*
X110734288Y-92802904D01*
X110640259Y-92630701D01*
X110632909Y-92614609D01*
X110572091Y-92451551D01*
X110564334Y-92430755D01*
X110559355Y-92413797D01*
X110517647Y-92222063D01*
X110515130Y-92204556D01*
X110506322Y-92081407D01*
X115673500Y-92081407D01*
X115705259Y-92241073D01*
X115705262Y-92241082D01*
X115767562Y-92391490D01*
X115767563Y-92391492D01*
X115858015Y-92526862D01*
X115858018Y-92526866D01*
X115973133Y-92641981D01*
X115973137Y-92641984D01*
X116108505Y-92732435D01*
X116108506Y-92732435D01*
X116108507Y-92732436D01*
X116108509Y-92732437D01*
X116208781Y-92773970D01*
X116258919Y-92794738D01*
X116258921Y-92794738D01*
X116258926Y-92794740D01*
X116418592Y-92826499D01*
X116418595Y-92826500D01*
X116418597Y-92826500D01*
X116581405Y-92826500D01*
X116581406Y-92826499D01*
X116634629Y-92815912D01*
X116741073Y-92794740D01*
X116741076Y-92794738D01*
X116741081Y-92794738D01*
X116891495Y-92732435D01*
X117026863Y-92641984D01*
X117141984Y-92526863D01*
X117232435Y-92391495D01*
X117294738Y-92241081D01*
X117302004Y-92204556D01*
X117326499Y-92081407D01*
X145173500Y-92081407D01*
X145205259Y-92241073D01*
X145205262Y-92241082D01*
X145267562Y-92391490D01*
X145267563Y-92391492D01*
X145358015Y-92526862D01*
X145358018Y-92526866D01*
X145473133Y-92641981D01*
X145473137Y-92641984D01*
X145608505Y-92732435D01*
X145608506Y-92732435D01*
X145608507Y-92732436D01*
X145608509Y-92732437D01*
X145708781Y-92773970D01*
X145758919Y-92794738D01*
X145758921Y-92794738D01*
X145758926Y-92794740D01*
X145918592Y-92826499D01*
X145918595Y-92826500D01*
X145918597Y-92826500D01*
X146081405Y-92826500D01*
X146081406Y-92826499D01*
X146134629Y-92815912D01*
X146241073Y-92794740D01*
X146241076Y-92794738D01*
X146241081Y-92794738D01*
X146391495Y-92732435D01*
X146526863Y-92641984D01*
X146641984Y-92526863D01*
X146732435Y-92391495D01*
X146794738Y-92241081D01*
X146802004Y-92204556D01*
X146826499Y-92081407D01*
X146826500Y-92081405D01*
X146826500Y-91918594D01*
X146826499Y-91918592D01*
X146794740Y-91758926D01*
X146794737Y-91758917D01*
X146732437Y-91608509D01*
X146732436Y-91608507D01*
X146641984Y-91473137D01*
X146641981Y-91473133D01*
X146526866Y-91358018D01*
X146526862Y-91358015D01*
X146391492Y-91267563D01*
X146391490Y-91267562D01*
X146241082Y-91205262D01*
X146241073Y-91205259D01*
X146081406Y-91173500D01*
X146081403Y-91173500D01*
X145918597Y-91173500D01*
X145918594Y-91173500D01*
X145758926Y-91205259D01*
X145758917Y-91205262D01*
X145608509Y-91267562D01*
X145608507Y-91267563D01*
X145473137Y-91358015D01*
X145473133Y-91358018D01*
X145358018Y-91473133D01*
X145358015Y-91473137D01*
X145267563Y-91608507D01*
X145267562Y-91608509D01*
X145205262Y-91758917D01*
X145205259Y-91758926D01*
X145173500Y-91918592D01*
X145173500Y-92081407D01*
X117326499Y-92081407D01*
X117326500Y-92081405D01*
X117326500Y-91918594D01*
X117326499Y-91918592D01*
X117294740Y-91758926D01*
X117294737Y-91758917D01*
X117232437Y-91608509D01*
X117232436Y-91608507D01*
X117141984Y-91473137D01*
X117141981Y-91473133D01*
X117026866Y-91358018D01*
X117026862Y-91358015D01*
X116891492Y-91267563D01*
X116891490Y-91267562D01*
X116741082Y-91205262D01*
X116741073Y-91205259D01*
X116581406Y-91173500D01*
X116581403Y-91173500D01*
X116418597Y-91173500D01*
X116418594Y-91173500D01*
X116258926Y-91205259D01*
X116258917Y-91205262D01*
X116108509Y-91267562D01*
X116108507Y-91267563D01*
X115973137Y-91358015D01*
X115973133Y-91358018D01*
X115858018Y-91473133D01*
X115858015Y-91473137D01*
X115767563Y-91608507D01*
X115767562Y-91608509D01*
X115705262Y-91758917D01*
X115705259Y-91758926D01*
X115673500Y-91918592D01*
X115673500Y-92081407D01*
X110506322Y-92081407D01*
X110500816Y-92004418D01*
X110500500Y-91995572D01*
X110500500Y-90086611D01*
X112174500Y-90086611D01*
X112201598Y-90257701D01*
X112255127Y-90422445D01*
X112333768Y-90576788D01*
X112435586Y-90716928D01*
X112558072Y-90839414D01*
X112698212Y-90941232D01*
X112852555Y-91019873D01*
X113017299Y-91073402D01*
X113188389Y-91100500D01*
X113188390Y-91100500D01*
X113911610Y-91100500D01*
X113911611Y-91100500D01*
X114082701Y-91073402D01*
X114247445Y-91019873D01*
X114401788Y-90941232D01*
X114541928Y-90839414D01*
X114664414Y-90716928D01*
X114766232Y-90576788D01*
X114805356Y-90500003D01*
X125444435Y-90500003D01*
X125464630Y-90679249D01*
X125464631Y-90679254D01*
X125524211Y-90849523D01*
X125581836Y-90941232D01*
X125620184Y-91002262D01*
X125747738Y-91129816D01*
X125900478Y-91225789D01*
X126019861Y-91267563D01*
X126070745Y-91285368D01*
X126070750Y-91285369D01*
X126249996Y-91305565D01*
X126250000Y-91305565D01*
X126250004Y-91305565D01*
X126429249Y-91285369D01*
X126429252Y-91285368D01*
X126429255Y-91285368D01*
X126599522Y-91225789D01*
X126752262Y-91129816D01*
X126879816Y-91002262D01*
X126975789Y-90849522D01*
X127035368Y-90679255D01*
X127055565Y-90500000D01*
X127035368Y-90320745D01*
X126975789Y-90150478D01*
X126879816Y-89997738D01*
X126752262Y-89870184D01*
X126599523Y-89774211D01*
X126429254Y-89714631D01*
X126429249Y-89714630D01*
X126250004Y-89694435D01*
X126249996Y-89694435D01*
X126070750Y-89714630D01*
X126070745Y-89714631D01*
X125900476Y-89774211D01*
X125747737Y-89870184D01*
X125620184Y-89997737D01*
X125524211Y-90150476D01*
X125464631Y-90320745D01*
X125464630Y-90320750D01*
X125444435Y-90499996D01*
X125444435Y-90500003D01*
X114805356Y-90500003D01*
X114844873Y-90422445D01*
X114898402Y-90257701D01*
X114925500Y-90086611D01*
X114925500Y-89913389D01*
X114898402Y-89742299D01*
X114844873Y-89577555D01*
X114766232Y-89423212D01*
X114664414Y-89283072D01*
X114541928Y-89160586D01*
X114458975Y-89100317D01*
X114416311Y-89044988D01*
X114410332Y-88975374D01*
X114442938Y-88913579D01*
X114458976Y-88899682D01*
X114541928Y-88839414D01*
X114664414Y-88716928D01*
X114766232Y-88576788D01*
X114844873Y-88422445D01*
X114898402Y-88257701D01*
X114899621Y-88250003D01*
X129444435Y-88250003D01*
X129464630Y-88429249D01*
X129464631Y-88429254D01*
X129524211Y-88599523D01*
X129597982Y-88716928D01*
X129620184Y-88752262D01*
X129747738Y-88879816D01*
X129838080Y-88936582D01*
X129899817Y-88975374D01*
X129900478Y-88975789D01*
X130040046Y-89024626D01*
X130070745Y-89035368D01*
X130070750Y-89035369D01*
X130249996Y-89055565D01*
X130250000Y-89055565D01*
X130250004Y-89055565D01*
X130429249Y-89035369D01*
X130429252Y-89035368D01*
X130429255Y-89035368D01*
X130599522Y-88975789D01*
X130752262Y-88879816D01*
X130879816Y-88752262D01*
X130975789Y-88599522D01*
X131035368Y-88429255D01*
X131036135Y-88422447D01*
X131055565Y-88250003D01*
X131055565Y-88249996D01*
X131035369Y-88070750D01*
X131035368Y-88070745D01*
X130975789Y-87900478D01*
X130879816Y-87747738D01*
X130752262Y-87620184D01*
X130599523Y-87524211D01*
X130429254Y-87464631D01*
X130429249Y-87464630D01*
X130250004Y-87444435D01*
X130249996Y-87444435D01*
X130070750Y-87464630D01*
X130070745Y-87464631D01*
X129900476Y-87524211D01*
X129747737Y-87620184D01*
X129620184Y-87747737D01*
X129524211Y-87900476D01*
X129464631Y-88070745D01*
X129464630Y-88070750D01*
X129444435Y-88249996D01*
X129444435Y-88250003D01*
X114899621Y-88250003D01*
X114925500Y-88086611D01*
X114925500Y-87913389D01*
X114898402Y-87742299D01*
X114844873Y-87577555D01*
X114766232Y-87423212D01*
X114664414Y-87283072D01*
X114541928Y-87160586D01*
X114458975Y-87100317D01*
X114416311Y-87044988D01*
X114410332Y-86975374D01*
X114442938Y-86913579D01*
X114458976Y-86899682D01*
X114541928Y-86839414D01*
X114664414Y-86716928D01*
X114766232Y-86576788D01*
X114844873Y-86422445D01*
X114898402Y-86257701D01*
X114925500Y-86086611D01*
X114925500Y-85913389D01*
X114899622Y-85750003D01*
X119444435Y-85750003D01*
X119464630Y-85929249D01*
X119464631Y-85929254D01*
X119524211Y-86099523D01*
X119620184Y-86252262D01*
X119747738Y-86379816D01*
X119900478Y-86475789D01*
X120070745Y-86535368D01*
X120070750Y-86535369D01*
X120249996Y-86555565D01*
X120250000Y-86555565D01*
X120250004Y-86555565D01*
X120429249Y-86535369D01*
X120429252Y-86535368D01*
X120429255Y-86535368D01*
X120599522Y-86475789D01*
X120752262Y-86379816D01*
X120879816Y-86252262D01*
X120975789Y-86099522D01*
X121035368Y-85929255D01*
X121037156Y-85913389D01*
X121055565Y-85750003D01*
X121055565Y-85749997D01*
X121048285Y-85685389D01*
X121060339Y-85616567D01*
X121107688Y-85565188D01*
X121175298Y-85547563D01*
X121185385Y-85548284D01*
X121211857Y-85551267D01*
X121249998Y-85555565D01*
X121250000Y-85555565D01*
X121250004Y-85555565D01*
X121429249Y-85535369D01*
X121429252Y-85535368D01*
X121429255Y-85535368D01*
X121599522Y-85475789D01*
X121752262Y-85379816D01*
X121879816Y-85252262D01*
X121975789Y-85099522D01*
X122035368Y-84929255D01*
X122037135Y-84913579D01*
X122055565Y-84750000D01*
X124944435Y-84750000D01*
X124964630Y-84929249D01*
X124964631Y-84929254D01*
X125024211Y-85099523D01*
X125062577Y-85160581D01*
X125120184Y-85252262D01*
X125247738Y-85379816D01*
X125400478Y-85475789D01*
X125570745Y-85535368D01*
X125570750Y-85535369D01*
X125749996Y-85555565D01*
X125750000Y-85555565D01*
X125750002Y-85555565D01*
X125779449Y-85552246D01*
X125814610Y-85548285D01*
X125883432Y-85560339D01*
X125934811Y-85607688D01*
X125952436Y-85675298D01*
X125951714Y-85685388D01*
X125944435Y-85749995D01*
X125944435Y-85750003D01*
X125964630Y-85929249D01*
X125964631Y-85929254D01*
X126024211Y-86099523D01*
X126120184Y-86252262D01*
X126247738Y-86379816D01*
X126400478Y-86475789D01*
X126570745Y-86535368D01*
X126570750Y-86535369D01*
X126749996Y-86555565D01*
X126750000Y-86555565D01*
X126750004Y-86555565D01*
X126929249Y-86535369D01*
X126929252Y-86535368D01*
X126929255Y-86535368D01*
X127099522Y-86475789D01*
X127252262Y-86379816D01*
X127379816Y-86252262D01*
X127475789Y-86099522D01*
X127535368Y-85929255D01*
X127537156Y-85913389D01*
X127555565Y-85750003D01*
X127555565Y-85749996D01*
X127535369Y-85570750D01*
X127535368Y-85570745D01*
X127511557Y-85502697D01*
X127475789Y-85400478D01*
X127379816Y-85247738D01*
X127252262Y-85120184D01*
X127099523Y-85024211D01*
X126929254Y-84964631D01*
X126929249Y-84964630D01*
X126750004Y-84944435D01*
X126749996Y-84944435D01*
X126685388Y-84951714D01*
X126616566Y-84939659D01*
X126565187Y-84892310D01*
X126547563Y-84824699D01*
X126548285Y-84814610D01*
X126555565Y-84750000D01*
X126555565Y-84749996D01*
X126535369Y-84570750D01*
X126535368Y-84570745D01*
X126483476Y-84422447D01*
X126475789Y-84400478D01*
X126379816Y-84247738D01*
X126252262Y-84120184D01*
X126198831Y-84086611D01*
X126099523Y-84024211D01*
X125929254Y-83964631D01*
X125929249Y-83964630D01*
X125750004Y-83944435D01*
X125749996Y-83944435D01*
X125570750Y-83964630D01*
X125570745Y-83964631D01*
X125400476Y-84024211D01*
X125247737Y-84120184D01*
X125120184Y-84247737D01*
X125024211Y-84400476D01*
X124964631Y-84570745D01*
X124964630Y-84570750D01*
X124944435Y-84749996D01*
X124944435Y-84750000D01*
X122055565Y-84750000D01*
X122055565Y-84749996D01*
X122035369Y-84570750D01*
X122035368Y-84570745D01*
X121983476Y-84422447D01*
X121975789Y-84400478D01*
X121879816Y-84247738D01*
X121752262Y-84120184D01*
X121698831Y-84086611D01*
X121599523Y-84024211D01*
X121429254Y-83964631D01*
X121429249Y-83964630D01*
X121250004Y-83944435D01*
X121249996Y-83944435D01*
X121070750Y-83964630D01*
X121070745Y-83964631D01*
X120900476Y-84024211D01*
X120747737Y-84120184D01*
X120620184Y-84247737D01*
X120524211Y-84400476D01*
X120464631Y-84570745D01*
X120464630Y-84570750D01*
X120444435Y-84749996D01*
X120444435Y-84750000D01*
X120451714Y-84814611D01*
X120439659Y-84883433D01*
X120392310Y-84934812D01*
X120324699Y-84952436D01*
X120314611Y-84951714D01*
X120250004Y-84944435D01*
X120249996Y-84944435D01*
X120070750Y-84964630D01*
X120070745Y-84964631D01*
X119900476Y-85024211D01*
X119747737Y-85120184D01*
X119620184Y-85247737D01*
X119524211Y-85400476D01*
X119464631Y-85570745D01*
X119464630Y-85570750D01*
X119444435Y-85749996D01*
X119444435Y-85750003D01*
X114899622Y-85750003D01*
X114898402Y-85742299D01*
X114844873Y-85577555D01*
X114766232Y-85423212D01*
X114664414Y-85283072D01*
X114541928Y-85160586D01*
X114458975Y-85100317D01*
X114416311Y-85044988D01*
X114410332Y-84975374D01*
X114442938Y-84913579D01*
X114458976Y-84899682D01*
X114541928Y-84839414D01*
X114664414Y-84716928D01*
X114766232Y-84576788D01*
X114844873Y-84422445D01*
X114898402Y-84257701D01*
X114925500Y-84086611D01*
X114925500Y-83913389D01*
X114898402Y-83742299D01*
X114844873Y-83577555D01*
X114766232Y-83423212D01*
X114664414Y-83283072D01*
X114541928Y-83160586D01*
X114458975Y-83100317D01*
X114416311Y-83044988D01*
X114410332Y-82975374D01*
X114442938Y-82913579D01*
X114458976Y-82899682D01*
X114541928Y-82839414D01*
X114664414Y-82716928D01*
X114766232Y-82576788D01*
X114805356Y-82500003D01*
X129444435Y-82500003D01*
X129464630Y-82679249D01*
X129464631Y-82679254D01*
X129524211Y-82849523D01*
X129581836Y-82941232D01*
X129620184Y-83002262D01*
X129747738Y-83129816D01*
X129900478Y-83225789D01*
X130064175Y-83283069D01*
X130070745Y-83285368D01*
X130070750Y-83285369D01*
X130249996Y-83305565D01*
X130250000Y-83305565D01*
X130250004Y-83305565D01*
X130429249Y-83285369D01*
X130429252Y-83285368D01*
X130429255Y-83285368D01*
X130599522Y-83225789D01*
X130752262Y-83129816D01*
X130795468Y-83086610D01*
X143074500Y-83086610D01*
X143096543Y-83225789D01*
X143101598Y-83257701D01*
X143155127Y-83422445D01*
X143233768Y-83576788D01*
X143335586Y-83716928D01*
X143335588Y-83716930D01*
X143443491Y-83824833D01*
X143476976Y-83886156D01*
X143471992Y-83955848D01*
X143430120Y-84011781D01*
X143420907Y-84018053D01*
X143356654Y-84057684D01*
X143232684Y-84181654D01*
X143140643Y-84330875D01*
X143140641Y-84330880D01*
X143085494Y-84497302D01*
X143085493Y-84497309D01*
X143075000Y-84600013D01*
X143075000Y-84750000D01*
X144169670Y-84750000D01*
X144149925Y-84769745D01*
X144100556Y-84855255D01*
X144075000Y-84950630D01*
X144075000Y-85049370D01*
X144100556Y-85144745D01*
X144149925Y-85230255D01*
X144169670Y-85250000D01*
X143075001Y-85250000D01*
X143075001Y-85399986D01*
X143085494Y-85502697D01*
X143140641Y-85669119D01*
X143140643Y-85669124D01*
X143232684Y-85818345D01*
X143356654Y-85942315D01*
X143505875Y-86034356D01*
X143505880Y-86034358D01*
X143672302Y-86089505D01*
X143672309Y-86089506D01*
X143775019Y-86099999D01*
X144199999Y-86099999D01*
X144200000Y-86099998D01*
X144200000Y-85280330D01*
X144219745Y-85300075D01*
X144305255Y-85349444D01*
X144400630Y-85375000D01*
X144499370Y-85375000D01*
X144594745Y-85349444D01*
X144680255Y-85300075D01*
X144700000Y-85280330D01*
X144700000Y-86099999D01*
X145124972Y-86099999D01*
X145124986Y-86099998D01*
X145227697Y-86089505D01*
X145394119Y-86034358D01*
X145394124Y-86034356D01*
X145543345Y-85942315D01*
X145667315Y-85818345D01*
X145759356Y-85669124D01*
X145759358Y-85669119D01*
X145814505Y-85502697D01*
X145814506Y-85502690D01*
X145824999Y-85399986D01*
X145825000Y-85399973D01*
X145825000Y-85250000D01*
X144730330Y-85250000D01*
X144750075Y-85230255D01*
X144799444Y-85144745D01*
X144825000Y-85049370D01*
X144825000Y-84950630D01*
X144799444Y-84855255D01*
X144750075Y-84769745D01*
X144730330Y-84750000D01*
X145824999Y-84750000D01*
X145824999Y-84600028D01*
X145824998Y-84600013D01*
X145814505Y-84497302D01*
X145759358Y-84330880D01*
X145759356Y-84330875D01*
X145667315Y-84181654D01*
X145543343Y-84057682D01*
X145479093Y-84018053D01*
X145432368Y-83966105D01*
X145421145Y-83897143D01*
X145448988Y-83833061D01*
X145456486Y-83824855D01*
X145564414Y-83716928D01*
X145666232Y-83576788D01*
X145744873Y-83422445D01*
X145798402Y-83257701D01*
X145825500Y-83086611D01*
X145825500Y-82913389D01*
X145798402Y-82742299D01*
X145744873Y-82577555D01*
X145666232Y-82423212D01*
X145564414Y-82283072D01*
X145441928Y-82160586D01*
X145358975Y-82100317D01*
X145316311Y-82044988D01*
X145310332Y-81975374D01*
X145342938Y-81913579D01*
X145358976Y-81899682D01*
X145441928Y-81839414D01*
X145564414Y-81716928D01*
X145666232Y-81576788D01*
X145744873Y-81422445D01*
X145798402Y-81257701D01*
X145825500Y-81086611D01*
X145825500Y-80913389D01*
X145798402Y-80742299D01*
X145744873Y-80577555D01*
X145666232Y-80423212D01*
X145564414Y-80283072D01*
X145441928Y-80160586D01*
X145358975Y-80100317D01*
X145316311Y-80044988D01*
X145310332Y-79975374D01*
X145342938Y-79913579D01*
X145358976Y-79899682D01*
X145441928Y-79839414D01*
X145564414Y-79716928D01*
X145666232Y-79576788D01*
X145744873Y-79422445D01*
X145798402Y-79257701D01*
X145825500Y-79086611D01*
X145825500Y-78913389D01*
X145798402Y-78742299D01*
X145744873Y-78577555D01*
X145666232Y-78423212D01*
X145564414Y-78283072D01*
X145441928Y-78160586D01*
X145301788Y-78058768D01*
X145147445Y-77980127D01*
X144982701Y-77926598D01*
X144982699Y-77926597D01*
X144982698Y-77926597D01*
X144851271Y-77905781D01*
X144811611Y-77899500D01*
X144088389Y-77899500D01*
X144048728Y-77905781D01*
X143917302Y-77926597D01*
X143752552Y-77980128D01*
X143598211Y-78058768D01*
X143518256Y-78116859D01*
X143458072Y-78160586D01*
X143458070Y-78160588D01*
X143458069Y-78160588D01*
X143335588Y-78283069D01*
X143335588Y-78283070D01*
X143335586Y-78283072D01*
X143319244Y-78305565D01*
X143233768Y-78423211D01*
X143155128Y-78577552D01*
X143101597Y-78742302D01*
X143086217Y-78839411D01*
X143074500Y-78913389D01*
X143074500Y-79086611D01*
X143101598Y-79257701D01*
X143155127Y-79422445D01*
X143233768Y-79576788D01*
X143335586Y-79716928D01*
X143458072Y-79839414D01*
X143458078Y-79839418D01*
X143541023Y-79899683D01*
X143583689Y-79955013D01*
X143589667Y-80024626D01*
X143557061Y-80086421D01*
X143541023Y-80100317D01*
X143458078Y-80160581D01*
X143458069Y-80160588D01*
X143335588Y-80283069D01*
X143335588Y-80283070D01*
X143335586Y-80283072D01*
X143291859Y-80343256D01*
X143233768Y-80423211D01*
X143155128Y-80577552D01*
X143101597Y-80742302D01*
X143074500Y-80913389D01*
X143074500Y-81086610D01*
X143094776Y-81214632D01*
X143101598Y-81257701D01*
X143155127Y-81422445D01*
X143233768Y-81576788D01*
X143335586Y-81716928D01*
X143458072Y-81839414D01*
X143458078Y-81839418D01*
X143541023Y-81899683D01*
X143583689Y-81955013D01*
X143589667Y-82024626D01*
X143557061Y-82086421D01*
X143541023Y-82100317D01*
X143458078Y-82160581D01*
X143458069Y-82160588D01*
X143335588Y-82283069D01*
X143335588Y-82283070D01*
X143335586Y-82283072D01*
X143308215Y-82320745D01*
X143233768Y-82423211D01*
X143155128Y-82577552D01*
X143101597Y-82742302D01*
X143074500Y-82913389D01*
X143074500Y-83086610D01*
X130795468Y-83086610D01*
X130879816Y-83002262D01*
X130975789Y-82849522D01*
X131035368Y-82679255D01*
X131035369Y-82679249D01*
X131055565Y-82500003D01*
X131055565Y-82499996D01*
X131035369Y-82320750D01*
X131035368Y-82320745D01*
X131013308Y-82257701D01*
X130975789Y-82150478D01*
X130881239Y-82000003D01*
X132194435Y-82000003D01*
X132214630Y-82179249D01*
X132214631Y-82179254D01*
X132274211Y-82349523D01*
X132368760Y-82499996D01*
X132370184Y-82502262D01*
X132497738Y-82629816D01*
X132576410Y-82679249D01*
X132636375Y-82716928D01*
X132650478Y-82725789D01*
X132820745Y-82785368D01*
X132820750Y-82785369D01*
X132999996Y-82805565D01*
X133000000Y-82805565D01*
X133000004Y-82805565D01*
X133179249Y-82785369D01*
X133179252Y-82785368D01*
X133179255Y-82785368D01*
X133349522Y-82725789D01*
X133502262Y-82629816D01*
X133629816Y-82502262D01*
X133725789Y-82349522D01*
X133785368Y-82179255D01*
X133785369Y-82179249D01*
X133805565Y-82000003D01*
X133805565Y-81999996D01*
X133785369Y-81820750D01*
X133785368Y-81820745D01*
X133769085Y-81774211D01*
X133725789Y-81650478D01*
X133629816Y-81497738D01*
X133502262Y-81370184D01*
X133349523Y-81274211D01*
X133179254Y-81214631D01*
X133179249Y-81214630D01*
X133000004Y-81194435D01*
X132999996Y-81194435D01*
X132820750Y-81214630D01*
X132820745Y-81214631D01*
X132650476Y-81274211D01*
X132497737Y-81370184D01*
X132370184Y-81497737D01*
X132274211Y-81650476D01*
X132214631Y-81820745D01*
X132214630Y-81820750D01*
X132194435Y-81999996D01*
X132194435Y-82000003D01*
X130881239Y-82000003D01*
X130879816Y-81997738D01*
X130752262Y-81870184D01*
X130599523Y-81774211D01*
X130429254Y-81714631D01*
X130429249Y-81714630D01*
X130250004Y-81694435D01*
X130249996Y-81694435D01*
X130070750Y-81714630D01*
X130070745Y-81714631D01*
X129900476Y-81774211D01*
X129747737Y-81870184D01*
X129620184Y-81997737D01*
X129524211Y-82150476D01*
X129464631Y-82320745D01*
X129464630Y-82320750D01*
X129444435Y-82499996D01*
X129444435Y-82500003D01*
X114805356Y-82500003D01*
X114844873Y-82422445D01*
X114898402Y-82257701D01*
X114925500Y-82086611D01*
X114925500Y-81913389D01*
X114898402Y-81742299D01*
X114844873Y-81577555D01*
X114766232Y-81423212D01*
X114664414Y-81283072D01*
X114541928Y-81160586D01*
X114458975Y-81100317D01*
X114416311Y-81044988D01*
X114410332Y-80975374D01*
X114442938Y-80913579D01*
X114458976Y-80899682D01*
X114541928Y-80839414D01*
X114664414Y-80716928D01*
X114766232Y-80576788D01*
X114844873Y-80422445D01*
X114898402Y-80257701D01*
X114925500Y-80086611D01*
X114925500Y-79913389D01*
X114898402Y-79742299D01*
X114844873Y-79577555D01*
X114766232Y-79423212D01*
X114664414Y-79283072D01*
X114541928Y-79160586D01*
X114458975Y-79100317D01*
X114416311Y-79044988D01*
X114410332Y-78975374D01*
X114442938Y-78913579D01*
X114458976Y-78899682D01*
X114541928Y-78839414D01*
X114664414Y-78716928D01*
X114766232Y-78576788D01*
X114844873Y-78422445D01*
X114898402Y-78257701D01*
X114925500Y-78086611D01*
X114925500Y-77913389D01*
X114898402Y-77742299D01*
X114844873Y-77577555D01*
X114805359Y-77500003D01*
X125444435Y-77500003D01*
X125464630Y-77679249D01*
X125464631Y-77679254D01*
X125524211Y-77849523D01*
X125555614Y-77899500D01*
X125620184Y-78002262D01*
X125747738Y-78129816D01*
X125900478Y-78225789D01*
X126064175Y-78283069D01*
X126070745Y-78285368D01*
X126070750Y-78285369D01*
X126249996Y-78305565D01*
X126250000Y-78305565D01*
X126250004Y-78305565D01*
X126429249Y-78285369D01*
X126429252Y-78285368D01*
X126429255Y-78285368D01*
X126599522Y-78225789D01*
X126752262Y-78129816D01*
X126879816Y-78002262D01*
X126975789Y-77849522D01*
X127035368Y-77679255D01*
X127055565Y-77500000D01*
X127046913Y-77423212D01*
X127035369Y-77320750D01*
X127035368Y-77320745D01*
X127002141Y-77225788D01*
X126975789Y-77150478D01*
X126879816Y-76997738D01*
X126752262Y-76870184D01*
X126719379Y-76849522D01*
X126599523Y-76774211D01*
X126429254Y-76714631D01*
X126429249Y-76714630D01*
X126250004Y-76694435D01*
X126249996Y-76694435D01*
X126070750Y-76714630D01*
X126070745Y-76714631D01*
X125900476Y-76774211D01*
X125747737Y-76870184D01*
X125620184Y-76997737D01*
X125524211Y-77150476D01*
X125464631Y-77320745D01*
X125464630Y-77320750D01*
X125444435Y-77499996D01*
X125444435Y-77500003D01*
X114805359Y-77500003D01*
X114766232Y-77423212D01*
X114664414Y-77283072D01*
X114541928Y-77160586D01*
X114458975Y-77100317D01*
X114416311Y-77044988D01*
X114410332Y-76975374D01*
X114442938Y-76913579D01*
X114458976Y-76899682D01*
X114541928Y-76839414D01*
X114664414Y-76716928D01*
X114766232Y-76576788D01*
X114805356Y-76500003D01*
X121944435Y-76500003D01*
X121964630Y-76679249D01*
X121964631Y-76679254D01*
X122024211Y-76849523D01*
X122081836Y-76941232D01*
X122120184Y-77002262D01*
X122247738Y-77129816D01*
X122400478Y-77225789D01*
X122564175Y-77283069D01*
X122570745Y-77285368D01*
X122570750Y-77285369D01*
X122749996Y-77305565D01*
X122750000Y-77305565D01*
X122750004Y-77305565D01*
X122929249Y-77285369D01*
X122929252Y-77285368D01*
X122929255Y-77285368D01*
X123099522Y-77225789D01*
X123252262Y-77129816D01*
X123379816Y-77002262D01*
X123475789Y-76849522D01*
X123535368Y-76679255D01*
X123555565Y-76500000D01*
X123535368Y-76320745D01*
X123475789Y-76150478D01*
X123379816Y-75997738D01*
X123252262Y-75870184D01*
X123219379Y-75849522D01*
X123099523Y-75774211D01*
X122929254Y-75714631D01*
X122929249Y-75714630D01*
X122750004Y-75694435D01*
X122749996Y-75694435D01*
X122570750Y-75714630D01*
X122570745Y-75714631D01*
X122400476Y-75774211D01*
X122247737Y-75870184D01*
X122120184Y-75997737D01*
X122024211Y-76150476D01*
X121964631Y-76320745D01*
X121964630Y-76320750D01*
X121944435Y-76499996D01*
X121944435Y-76500003D01*
X114805356Y-76500003D01*
X114844873Y-76422445D01*
X114898402Y-76257701D01*
X114925500Y-76086611D01*
X114925500Y-75913389D01*
X114898402Y-75742299D01*
X114844873Y-75577555D01*
X114805359Y-75500003D01*
X125444435Y-75500003D01*
X125464630Y-75679249D01*
X125464631Y-75679254D01*
X125524211Y-75849523D01*
X125564341Y-75913389D01*
X125620184Y-76002262D01*
X125747738Y-76129816D01*
X125900478Y-76225789D01*
X126070745Y-76285368D01*
X126070750Y-76285369D01*
X126249996Y-76305565D01*
X126250000Y-76305565D01*
X126250004Y-76305565D01*
X126429249Y-76285369D01*
X126429252Y-76285368D01*
X126429255Y-76285368D01*
X126599522Y-76225789D01*
X126752262Y-76129816D01*
X126879816Y-76002262D01*
X126975789Y-75849522D01*
X127035368Y-75679255D01*
X127055565Y-75500000D01*
X127046913Y-75423212D01*
X127035369Y-75320750D01*
X127035368Y-75320745D01*
X127022185Y-75283069D01*
X126975789Y-75150478D01*
X126879816Y-74997738D01*
X126752262Y-74870184D01*
X126669761Y-74818345D01*
X126599523Y-74774211D01*
X126429254Y-74714631D01*
X126429249Y-74714630D01*
X126250004Y-74694435D01*
X126249996Y-74694435D01*
X126070750Y-74714630D01*
X126070745Y-74714631D01*
X125900476Y-74774211D01*
X125747737Y-74870184D01*
X125620184Y-74997737D01*
X125524211Y-75150476D01*
X125464631Y-75320745D01*
X125464630Y-75320750D01*
X125444435Y-75499996D01*
X125444435Y-75500003D01*
X114805359Y-75500003D01*
X114766232Y-75423212D01*
X114664414Y-75283072D01*
X114556508Y-75175166D01*
X114523023Y-75113843D01*
X114528007Y-75044151D01*
X114569879Y-74988218D01*
X114579094Y-74981945D01*
X114643345Y-74942315D01*
X114767315Y-74818345D01*
X114859356Y-74669124D01*
X114859358Y-74669119D01*
X114914505Y-74502697D01*
X114914506Y-74502690D01*
X114924999Y-74399986D01*
X114925000Y-74399973D01*
X114925000Y-74250000D01*
X113830330Y-74250000D01*
X113850075Y-74230255D01*
X113899444Y-74144745D01*
X113925000Y-74049370D01*
X113925000Y-73950630D01*
X113899444Y-73855255D01*
X113850075Y-73769745D01*
X113830330Y-73750000D01*
X114924999Y-73750000D01*
X114924999Y-73600028D01*
X114924998Y-73600013D01*
X114914505Y-73497302D01*
X114859358Y-73330880D01*
X114859356Y-73330875D01*
X114767315Y-73181654D01*
X114643345Y-73057684D01*
X114494124Y-72965643D01*
X114494119Y-72965641D01*
X114327697Y-72910494D01*
X114327690Y-72910493D01*
X114224986Y-72900000D01*
X113800000Y-72900000D01*
X113800000Y-73719670D01*
X113780255Y-73699925D01*
X113694745Y-73650556D01*
X113599370Y-73625000D01*
X113500630Y-73625000D01*
X113405255Y-73650556D01*
X113319745Y-73699925D01*
X113300000Y-73719670D01*
X113300000Y-72900000D01*
X112875028Y-72900000D01*
X112875012Y-72900001D01*
X112772302Y-72910494D01*
X112605880Y-72965641D01*
X112605875Y-72965643D01*
X112456654Y-73057684D01*
X112332684Y-73181654D01*
X112240643Y-73330875D01*
X112240641Y-73330880D01*
X112185494Y-73497302D01*
X112185493Y-73497309D01*
X112175000Y-73600013D01*
X112175000Y-73750000D01*
X113269670Y-73750000D01*
X113249925Y-73769745D01*
X113200556Y-73855255D01*
X113175000Y-73950630D01*
X113175000Y-74049370D01*
X113200556Y-74144745D01*
X113249925Y-74230255D01*
X113269670Y-74250000D01*
X112175001Y-74250000D01*
X112175001Y-74399986D01*
X112185494Y-74502697D01*
X112240641Y-74669119D01*
X112240643Y-74669124D01*
X112332684Y-74818345D01*
X112456656Y-74942317D01*
X112520906Y-74981946D01*
X112567631Y-75033893D01*
X112578854Y-75102856D01*
X112551011Y-75166938D01*
X112543492Y-75175166D01*
X112435585Y-75283073D01*
X112333768Y-75423211D01*
X112255128Y-75577552D01*
X112201597Y-75742302D01*
X112174500Y-75913389D01*
X112174500Y-76086610D01*
X112196543Y-76225789D01*
X112201598Y-76257701D01*
X112255127Y-76422445D01*
X112333768Y-76576788D01*
X112435586Y-76716928D01*
X112558072Y-76839414D01*
X112571986Y-76849523D01*
X112641023Y-76899683D01*
X112683689Y-76955013D01*
X112689667Y-77024626D01*
X112657061Y-77086421D01*
X112641023Y-77100317D01*
X112558078Y-77160581D01*
X112558069Y-77160588D01*
X112435588Y-77283069D01*
X112435588Y-77283070D01*
X112435586Y-77283072D01*
X112419244Y-77305565D01*
X112333768Y-77423211D01*
X112255128Y-77577552D01*
X112201597Y-77742302D01*
X112174500Y-77913389D01*
X112174500Y-78086610D01*
X112196543Y-78225789D01*
X112201598Y-78257701D01*
X112255127Y-78422445D01*
X112333768Y-78576788D01*
X112435586Y-78716928D01*
X112558072Y-78839414D01*
X112558078Y-78839418D01*
X112641023Y-78899683D01*
X112683689Y-78955013D01*
X112689667Y-79024626D01*
X112657061Y-79086421D01*
X112641023Y-79100317D01*
X112558078Y-79160581D01*
X112558069Y-79160588D01*
X112435588Y-79283069D01*
X112435588Y-79283070D01*
X112435586Y-79283072D01*
X112391859Y-79343256D01*
X112333768Y-79423211D01*
X112255128Y-79577552D01*
X112201597Y-79742302D01*
X112186217Y-79839411D01*
X112174500Y-79913389D01*
X112174500Y-80086611D01*
X112201598Y-80257701D01*
X112255127Y-80422445D01*
X112333768Y-80576788D01*
X112435586Y-80716928D01*
X112558072Y-80839414D01*
X112558078Y-80839418D01*
X112641023Y-80899683D01*
X112683689Y-80955013D01*
X112689667Y-81024626D01*
X112657061Y-81086421D01*
X112641023Y-81100317D01*
X112558078Y-81160581D01*
X112558069Y-81160588D01*
X112435588Y-81283069D01*
X112435588Y-81283070D01*
X112435586Y-81283072D01*
X112391859Y-81343256D01*
X112333768Y-81423211D01*
X112255128Y-81577552D01*
X112201597Y-81742302D01*
X112186217Y-81839411D01*
X112174500Y-81913389D01*
X112174500Y-82086611D01*
X112201598Y-82257701D01*
X112255127Y-82422445D01*
X112333768Y-82576788D01*
X112435586Y-82716928D01*
X112558072Y-82839414D01*
X112571986Y-82849523D01*
X112641023Y-82899683D01*
X112683689Y-82955013D01*
X112689667Y-83024626D01*
X112657061Y-83086421D01*
X112641023Y-83100317D01*
X112558078Y-83160581D01*
X112558069Y-83160588D01*
X112435588Y-83283069D01*
X112435588Y-83283070D01*
X112435586Y-83283072D01*
X112419244Y-83305565D01*
X112333768Y-83423211D01*
X112255128Y-83577552D01*
X112201597Y-83742302D01*
X112186216Y-83839414D01*
X112174500Y-83913389D01*
X112174500Y-84086611D01*
X112201598Y-84257701D01*
X112255127Y-84422445D01*
X112333768Y-84576788D01*
X112435586Y-84716928D01*
X112558072Y-84839414D01*
X112558078Y-84839418D01*
X112641023Y-84899683D01*
X112683689Y-84955013D01*
X112689667Y-85024626D01*
X112657061Y-85086421D01*
X112641023Y-85100317D01*
X112558078Y-85160581D01*
X112558069Y-85160588D01*
X112435588Y-85283069D01*
X112435588Y-85283070D01*
X112435586Y-85283072D01*
X112423233Y-85300075D01*
X112333768Y-85423211D01*
X112255128Y-85577552D01*
X112201597Y-85742302D01*
X112189553Y-85818345D01*
X112174500Y-85913389D01*
X112174500Y-86086611D01*
X112182677Y-86138239D01*
X112200736Y-86252262D01*
X112201598Y-86257701D01*
X112255127Y-86422445D01*
X112333768Y-86576788D01*
X112435586Y-86716928D01*
X112558072Y-86839414D01*
X112558078Y-86839418D01*
X112641023Y-86899683D01*
X112683689Y-86955013D01*
X112689667Y-87024626D01*
X112657061Y-87086421D01*
X112641023Y-87100317D01*
X112558078Y-87160581D01*
X112558069Y-87160588D01*
X112435588Y-87283069D01*
X112435588Y-87283070D01*
X112435586Y-87283072D01*
X112391859Y-87343256D01*
X112333768Y-87423211D01*
X112255128Y-87577552D01*
X112201597Y-87742302D01*
X112174500Y-87913389D01*
X112174500Y-88086610D01*
X112200378Y-88250003D01*
X112201598Y-88257701D01*
X112255127Y-88422445D01*
X112333768Y-88576788D01*
X112435586Y-88716928D01*
X112558072Y-88839414D01*
X112558078Y-88839418D01*
X112641023Y-88899683D01*
X112683689Y-88955013D01*
X112689667Y-89024626D01*
X112657061Y-89086421D01*
X112641023Y-89100317D01*
X112558078Y-89160581D01*
X112558069Y-89160588D01*
X112435588Y-89283069D01*
X112435588Y-89283070D01*
X112435586Y-89283072D01*
X112391859Y-89343256D01*
X112333768Y-89423211D01*
X112255128Y-89577552D01*
X112201597Y-89742302D01*
X112181343Y-89870184D01*
X112174500Y-89913389D01*
X112174500Y-90086611D01*
X110500500Y-90086611D01*
X110500500Y-72081407D01*
X145173500Y-72081407D01*
X145205259Y-72241073D01*
X145205262Y-72241082D01*
X145267562Y-72391490D01*
X145267563Y-72391492D01*
X145358015Y-72526862D01*
X145358018Y-72526866D01*
X145473133Y-72641981D01*
X145473137Y-72641984D01*
X145608505Y-72732435D01*
X145608506Y-72732435D01*
X145608507Y-72732436D01*
X145608509Y-72732437D01*
X145708781Y-72773970D01*
X145758919Y-72794738D01*
X145758921Y-72794738D01*
X145758926Y-72794740D01*
X145918592Y-72826499D01*
X145918595Y-72826500D01*
X145918597Y-72826500D01*
X146081405Y-72826500D01*
X146081406Y-72826499D01*
X146134629Y-72815912D01*
X146241073Y-72794740D01*
X146241076Y-72794738D01*
X146241081Y-72794738D01*
X146391495Y-72732435D01*
X146526863Y-72641984D01*
X146641984Y-72526863D01*
X146732435Y-72391495D01*
X146794738Y-72241081D01*
X146826500Y-72081403D01*
X146826500Y-71918597D01*
X146826500Y-71918594D01*
X146826499Y-71918592D01*
X146794740Y-71758926D01*
X146794737Y-71758917D01*
X146732437Y-71608509D01*
X146732436Y-71608507D01*
X146641984Y-71473137D01*
X146641981Y-71473133D01*
X146526866Y-71358018D01*
X146526862Y-71358015D01*
X146391492Y-71267563D01*
X146391490Y-71267562D01*
X146241082Y-71205262D01*
X146241073Y-71205259D01*
X146081406Y-71173500D01*
X146081403Y-71173500D01*
X145918597Y-71173500D01*
X145918594Y-71173500D01*
X145758926Y-71205259D01*
X145758917Y-71205262D01*
X145608509Y-71267562D01*
X145608507Y-71267563D01*
X145473137Y-71358015D01*
X145473133Y-71358018D01*
X145358018Y-71473133D01*
X145358015Y-71473137D01*
X145267563Y-71608507D01*
X145267562Y-71608509D01*
X145205262Y-71758917D01*
X145205259Y-71758926D01*
X145173500Y-71918592D01*
X145173500Y-72081407D01*
X110500500Y-72081407D01*
X110500500Y-72004427D01*
X110500816Y-71995581D01*
X110506322Y-71918594D01*
X110515130Y-71795436D01*
X110517646Y-71777938D01*
X110559356Y-71586199D01*
X110564333Y-71569248D01*
X110632911Y-71385385D01*
X110640259Y-71369298D01*
X110695810Y-71267563D01*
X110734291Y-71197089D01*
X110743845Y-71182221D01*
X110861448Y-71025123D01*
X110873020Y-71011769D01*
X111011769Y-70873020D01*
X111025123Y-70861448D01*
X111182221Y-70743845D01*
X111197089Y-70734291D01*
X111369298Y-70640258D01*
X111385385Y-70632911D01*
X111569248Y-70564333D01*
X111586199Y-70559356D01*
X111777938Y-70517646D01*
X111795436Y-70515130D01*
X111995582Y-70500816D01*
X112004428Y-70500500D01*
X112065892Y-70500500D01*
X145934108Y-70500500D01*
X145995572Y-70500500D01*
X146004418Y-70500816D01*
G37*
%TD.AperFunction*%
%TD*%
M02*
