%TF.GenerationSoftware,KiCad,Pcbnew,8.0.1*%
%TF.CreationDate,2024-04-25T00:01:52-04:00*%
%TF.ProjectId,ads1260_board,61647331-3236-4305-9f62-6f6172642e6b,rev?*%
%TF.SameCoordinates,Original*%
%TF.FileFunction,Legend,Bot*%
%TF.FilePolarity,Positive*%
%FSLAX46Y46*%
G04 Gerber Fmt 4.6, Leading zero omitted, Abs format (unit mm)*
G04 Created by KiCad (PCBNEW 8.0.1) date 2024-04-25 00:01:52*
%MOMM*%
%LPD*%
G01*
G04 APERTURE LIST*
G04 Aperture macros list*
%AMRoundRect*
0 Rectangle with rounded corners*
0 $1 Rounding radius*
0 $2 $3 $4 $5 $6 $7 $8 $9 X,Y pos of 4 corners*
0 Add a 4 corners polygon primitive as box body*
4,1,4,$2,$3,$4,$5,$6,$7,$8,$9,$2,$3,0*
0 Add four circle primitives for the rounded corners*
1,1,$1+$1,$2,$3*
1,1,$1+$1,$4,$5*
1,1,$1+$1,$6,$7*
1,1,$1+$1,$8,$9*
0 Add four rect primitives between the rounded corners*
20,1,$1+$1,$2,$3,$4,$5,0*
20,1,$1+$1,$4,$5,$6,$7,0*
20,1,$1+$1,$6,$7,$8,$9,0*
20,1,$1+$1,$8,$9,$2,$3,0*%
G04 Aperture macros list end*
%ADD10C,0.120000*%
%ADD11C,1.300000*%
%ADD12O,1.750000X1.200000*%
%ADD13RoundRect,0.250000X-0.625000X0.350000X-0.625000X-0.350000X0.625000X-0.350000X0.625000X0.350000X0*%
%ADD14RoundRect,0.250000X0.625000X-0.350000X0.625000X0.350000X-0.625000X0.350000X-0.625000X-0.350000X0*%
G04 APERTURE END LIST*
D10*
G36*
X117785050Y-90397009D02*
G01*
X117481752Y-90400439D01*
X117407096Y-90366347D01*
X117407088Y-90366334D01*
X117369792Y-90332627D01*
X117329209Y-90258150D01*
X117326048Y-90143396D01*
X117359455Y-90070241D01*
X117359468Y-90070233D01*
X117392217Y-90033995D01*
X117506790Y-89992424D01*
X117507518Y-89992569D01*
X117783229Y-89989034D01*
X117785050Y-90397009D01*
G37*
G36*
X117782712Y-89873314D02*
G01*
X117529227Y-89876563D01*
X117454715Y-89842537D01*
X117454706Y-89842523D01*
X117417411Y-89808818D01*
X117376735Y-89734171D01*
X117374111Y-89666235D01*
X117407074Y-89594051D01*
X117407087Y-89594043D01*
X117440789Y-89556750D01*
X117515055Y-89516282D01*
X117781103Y-89512872D01*
X117782712Y-89873314D01*
G37*
G36*
X119011811Y-90627490D02*
G01*
X115098312Y-90627490D01*
X115098312Y-90170664D01*
X115209423Y-90170664D01*
X115212883Y-90260226D01*
X115209574Y-90270155D01*
X115213873Y-90285857D01*
X115213990Y-90288863D01*
X115214963Y-90289836D01*
X115215757Y-90292735D01*
X115261609Y-90376881D01*
X115261609Y-90384101D01*
X115274615Y-90403566D01*
X115277637Y-90406297D01*
X115277730Y-90406467D01*
X115277880Y-90406517D01*
X115317382Y-90442216D01*
X115319334Y-90448072D01*
X115337828Y-90462426D01*
X115429342Y-90504216D01*
X115436938Y-90511812D01*
X115452948Y-90514996D01*
X115455645Y-90516228D01*
X115456951Y-90515792D01*
X115459899Y-90516379D01*
X115686127Y-90512421D01*
X115693741Y-90516228D01*
X115716968Y-90513300D01*
X115880163Y-90454088D01*
X115900700Y-90413013D01*
X115886178Y-90369448D01*
X115845104Y-90348911D01*
X115821877Y-90351839D01*
X115698722Y-90396523D01*
X115697994Y-90396379D01*
X115481168Y-90400172D01*
X115407096Y-90366347D01*
X115407088Y-90366334D01*
X115369792Y-90332627D01*
X115329116Y-90257980D01*
X115326492Y-90190044D01*
X115359455Y-90117860D01*
X115359468Y-90117852D01*
X115393170Y-90080559D01*
X115470163Y-90038605D01*
X115474451Y-90038397D01*
X115649553Y-89990726D01*
X115654628Y-89992418D01*
X115677208Y-89986235D01*
X115761355Y-89940383D01*
X115768574Y-89940383D01*
X115788039Y-89927376D01*
X115790769Y-89924355D01*
X115790940Y-89924262D01*
X115790990Y-89924109D01*
X115826687Y-89884610D01*
X115832544Y-89882658D01*
X115846898Y-89864164D01*
X115888688Y-89772649D01*
X115896284Y-89765054D01*
X115899468Y-89749043D01*
X115900700Y-89746347D01*
X115900264Y-89745040D01*
X115900851Y-89742093D01*
X115897390Y-89652529D01*
X115900700Y-89642601D01*
X115896400Y-89626901D01*
X115896284Y-89623894D01*
X115895309Y-89622919D01*
X115894516Y-89620022D01*
X115848665Y-89535875D01*
X115848665Y-89528656D01*
X115835658Y-89509190D01*
X115832636Y-89506459D01*
X115832544Y-89506290D01*
X115832393Y-89506239D01*
X115792891Y-89470541D01*
X115790940Y-89464686D01*
X115780237Y-89456379D01*
X116209423Y-89456379D01*
X116213817Y-90257424D01*
X116209574Y-90270155D01*
X116213975Y-90286229D01*
X116213990Y-90288863D01*
X116214963Y-90289836D01*
X116215757Y-90292735D01*
X116261609Y-90376881D01*
X116261609Y-90384101D01*
X116274615Y-90403566D01*
X116277637Y-90406297D01*
X116277730Y-90406467D01*
X116277880Y-90406517D01*
X116317382Y-90442216D01*
X116319334Y-90448072D01*
X116337828Y-90462426D01*
X116429342Y-90504216D01*
X116436938Y-90511812D01*
X116452948Y-90514996D01*
X116455645Y-90516228D01*
X116456951Y-90515792D01*
X116459899Y-90516379D01*
X116643307Y-90512454D01*
X116654628Y-90516228D01*
X116670536Y-90511871D01*
X116673336Y-90511812D01*
X116674309Y-90510838D01*
X116677208Y-90510045D01*
X116761355Y-90464193D01*
X116768575Y-90464193D01*
X116788040Y-90451186D01*
X116790770Y-90448164D01*
X116790940Y-90448072D01*
X116790990Y-90447921D01*
X116826688Y-90408418D01*
X116832544Y-90406467D01*
X116846898Y-90387973D01*
X116888688Y-90296458D01*
X116896284Y-90288863D01*
X116899468Y-90272852D01*
X116900700Y-90270156D01*
X116900264Y-90268849D01*
X116900851Y-90265902D01*
X116900067Y-90123045D01*
X117209423Y-90123045D01*
X117213177Y-90259346D01*
X117209574Y-90270155D01*
X117213910Y-90285993D01*
X117213990Y-90288863D01*
X117214963Y-90289836D01*
X117215757Y-90292735D01*
X117261609Y-90376881D01*
X117261609Y-90384101D01*
X117274615Y-90403566D01*
X117277637Y-90406297D01*
X117277730Y-90406467D01*
X117277880Y-90406517D01*
X117317382Y-90442216D01*
X117319334Y-90448072D01*
X117337828Y-90462426D01*
X117429342Y-90504216D01*
X117436938Y-90511812D01*
X117452948Y-90514996D01*
X117455645Y-90516228D01*
X117456951Y-90515792D01*
X117459899Y-90516379D01*
X117863812Y-90511812D01*
X117896284Y-90479340D01*
X117900851Y-90456379D01*
X117896368Y-89452126D01*
X118114336Y-89452126D01*
X118117264Y-89475353D01*
X118448984Y-90456628D01*
X118447669Y-90460632D01*
X118455910Y-90477114D01*
X118462190Y-90495691D01*
X118466201Y-90497696D01*
X118468206Y-90501706D01*
X118486250Y-90507720D01*
X118503265Y-90516228D01*
X118507518Y-90514810D01*
X118511771Y-90516228D01*
X118528784Y-90507721D01*
X118546830Y-90501706D01*
X118548835Y-90497696D01*
X118552845Y-90495691D01*
X118564439Y-90475353D01*
X118900700Y-89452126D01*
X118880163Y-89411052D01*
X118836598Y-89396530D01*
X118795523Y-89417067D01*
X118783930Y-89437406D01*
X118509099Y-90273702D01*
X118219512Y-89417067D01*
X118178438Y-89396530D01*
X118134873Y-89411052D01*
X118114336Y-89452126D01*
X117896368Y-89452126D01*
X117896284Y-89433418D01*
X117863812Y-89400946D01*
X117840851Y-89396379D01*
X117515328Y-89400551D01*
X117503264Y-89396530D01*
X117487267Y-89400911D01*
X117484557Y-89400946D01*
X117483582Y-89401920D01*
X117480685Y-89402714D01*
X117396539Y-89448565D01*
X117389319Y-89448565D01*
X117369853Y-89461572D01*
X117367122Y-89464593D01*
X117366953Y-89464686D01*
X117366902Y-89464836D01*
X117331204Y-89504338D01*
X117325349Y-89506290D01*
X117310995Y-89524784D01*
X117269204Y-89616298D01*
X117261609Y-89623894D01*
X117258424Y-89639905D01*
X117257193Y-89642602D01*
X117257628Y-89643907D01*
X117257042Y-89646855D01*
X117260502Y-89736417D01*
X117257193Y-89746346D01*
X117261492Y-89762048D01*
X117261609Y-89765054D01*
X117262582Y-89766027D01*
X117263376Y-89768926D01*
X117309228Y-89853072D01*
X117309228Y-89860292D01*
X117322235Y-89879757D01*
X117325255Y-89882487D01*
X117325349Y-89882658D01*
X117325501Y-89882708D01*
X117365000Y-89918405D01*
X117365615Y-89920250D01*
X117353202Y-89924755D01*
X117341700Y-89924755D01*
X117328033Y-89933887D01*
X117325349Y-89934861D01*
X117324733Y-89936091D01*
X117322234Y-89937762D01*
X117283585Y-89980528D01*
X117277730Y-89982480D01*
X117263376Y-90000974D01*
X117221585Y-90092488D01*
X117213990Y-90100084D01*
X117210805Y-90116095D01*
X117209574Y-90118792D01*
X117210009Y-90120097D01*
X117209423Y-90123045D01*
X116900067Y-90123045D01*
X116896284Y-89433418D01*
X116863812Y-89400946D01*
X116817890Y-89400946D01*
X116785418Y-89433418D01*
X116780851Y-89456379D01*
X116785169Y-90243483D01*
X116750819Y-90318704D01*
X116750805Y-90318714D01*
X116717100Y-90356010D01*
X116642714Y-90396542D01*
X116480806Y-90400007D01*
X116407096Y-90366347D01*
X116407088Y-90366334D01*
X116369792Y-90332627D01*
X116329382Y-90258467D01*
X116324856Y-89433418D01*
X116292384Y-89400946D01*
X116246462Y-89400946D01*
X116213990Y-89433418D01*
X116209423Y-89456379D01*
X115780237Y-89456379D01*
X115772446Y-89450332D01*
X115680931Y-89408541D01*
X115673336Y-89400946D01*
X115657324Y-89397761D01*
X115654628Y-89396530D01*
X115653322Y-89396965D01*
X115650375Y-89396379D01*
X115424146Y-89400336D01*
X115416533Y-89396530D01*
X115393306Y-89399458D01*
X115230111Y-89458671D01*
X115209574Y-89499745D01*
X115224096Y-89543310D01*
X115265170Y-89563847D01*
X115288397Y-89560919D01*
X115411552Y-89516234D01*
X115412280Y-89516379D01*
X115629105Y-89512585D01*
X115703178Y-89546411D01*
X115703187Y-89546424D01*
X115740479Y-89580126D01*
X115781157Y-89654777D01*
X115783781Y-89722712D01*
X115750819Y-89794895D01*
X115750805Y-89794905D01*
X115717100Y-89832199D01*
X115640111Y-89874151D01*
X115635823Y-89874360D01*
X115460720Y-89922030D01*
X115455645Y-89920339D01*
X115433066Y-89926523D01*
X115348920Y-89972374D01*
X115341700Y-89972374D01*
X115322234Y-89985381D01*
X115319503Y-89988402D01*
X115319334Y-89988495D01*
X115319283Y-89988645D01*
X115283585Y-90028147D01*
X115277730Y-90030099D01*
X115263376Y-90048593D01*
X115221585Y-90140107D01*
X115213990Y-90147703D01*
X115210805Y-90163714D01*
X115209574Y-90166411D01*
X115210009Y-90167716D01*
X115209423Y-90170664D01*
X115098312Y-90170664D01*
X115098312Y-89285268D01*
X119011811Y-89285268D01*
X119011811Y-90627490D01*
G37*
G36*
X119007395Y-88627490D02*
G01*
X115098312Y-88627490D01*
X115098312Y-88027807D01*
X115209423Y-88027807D01*
X115213458Y-88258500D01*
X115209574Y-88270155D01*
X115213941Y-88286105D01*
X115213990Y-88288863D01*
X115214963Y-88289836D01*
X115215757Y-88292735D01*
X115261609Y-88376881D01*
X115261609Y-88384101D01*
X115274615Y-88403566D01*
X115277637Y-88406297D01*
X115277730Y-88406467D01*
X115277880Y-88406517D01*
X115317382Y-88442216D01*
X115319334Y-88448072D01*
X115337828Y-88462426D01*
X115429342Y-88504216D01*
X115436938Y-88511812D01*
X115452948Y-88514996D01*
X115455645Y-88516228D01*
X115456951Y-88515792D01*
X115459899Y-88516379D01*
X115737976Y-88512264D01*
X115749866Y-88516228D01*
X115765845Y-88511852D01*
X115768574Y-88511812D01*
X115769547Y-88510838D01*
X115772446Y-88510045D01*
X115856593Y-88464193D01*
X115863813Y-88464193D01*
X115883278Y-88451186D01*
X115886008Y-88448164D01*
X115886178Y-88448072D01*
X115886228Y-88447921D01*
X115943903Y-88384101D01*
X115943903Y-88338178D01*
X115911430Y-88305707D01*
X115865508Y-88305707D01*
X115846043Y-88318714D01*
X115812338Y-88356010D01*
X115738047Y-88396490D01*
X115481421Y-88400287D01*
X115407096Y-88366347D01*
X115407088Y-88366334D01*
X115369792Y-88332627D01*
X115329289Y-88258297D01*
X115325629Y-88049076D01*
X115359455Y-87975003D01*
X115359468Y-87974995D01*
X115393170Y-87937702D01*
X115467651Y-87897117D01*
X115608159Y-87893247D01*
X115621979Y-87894169D01*
X115623515Y-87892824D01*
X115625717Y-87892764D01*
X115640643Y-87877838D01*
X115656539Y-87863929D01*
X115656680Y-87861800D01*
X115658189Y-87860292D01*
X115658189Y-87839181D01*
X115659594Y-87818108D01*
X115658189Y-87815668D01*
X115658189Y-87814370D01*
X115656426Y-87812607D01*
X115647911Y-87797821D01*
X115396523Y-87515474D01*
X115911431Y-87511812D01*
X115943903Y-87479340D01*
X115943903Y-87452126D01*
X116066717Y-87452126D01*
X116069645Y-87475353D01*
X116401365Y-88456628D01*
X116400050Y-88460632D01*
X116408291Y-88477114D01*
X116414571Y-88495691D01*
X116418582Y-88497696D01*
X116420587Y-88501706D01*
X116438631Y-88507720D01*
X116455646Y-88516228D01*
X116459899Y-88514810D01*
X116464152Y-88516228D01*
X116481165Y-88507721D01*
X116499211Y-88501706D01*
X116501216Y-88497696D01*
X116505226Y-88495691D01*
X116516820Y-88475353D01*
X116663896Y-88027807D01*
X117018947Y-88027807D01*
X117022982Y-88258500D01*
X117019098Y-88270155D01*
X117023465Y-88286105D01*
X117023514Y-88288863D01*
X117024487Y-88289836D01*
X117025281Y-88292735D01*
X117071133Y-88376881D01*
X117071133Y-88384101D01*
X117084139Y-88403566D01*
X117087161Y-88406297D01*
X117087254Y-88406467D01*
X117087404Y-88406517D01*
X117126906Y-88442216D01*
X117128858Y-88448072D01*
X117147352Y-88462426D01*
X117238866Y-88504216D01*
X117246462Y-88511812D01*
X117262472Y-88514996D01*
X117265169Y-88516228D01*
X117266475Y-88515792D01*
X117269423Y-88516379D01*
X117547500Y-88512264D01*
X117559390Y-88516228D01*
X117575369Y-88511852D01*
X117578098Y-88511812D01*
X117579071Y-88510838D01*
X117581970Y-88510045D01*
X117666117Y-88464193D01*
X117673337Y-88464193D01*
X117692802Y-88451186D01*
X117695532Y-88448164D01*
X117695702Y-88448072D01*
X117695752Y-88447921D01*
X117753427Y-88384101D01*
X117753427Y-88338178D01*
X117720954Y-88305707D01*
X117675032Y-88305707D01*
X117655567Y-88318714D01*
X117621862Y-88356010D01*
X117547571Y-88396490D01*
X117290945Y-88400287D01*
X117216620Y-88366347D01*
X117216612Y-88366334D01*
X117179316Y-88332627D01*
X117138813Y-88258297D01*
X117136016Y-88098387D01*
X118023514Y-88098387D01*
X118055986Y-88130859D01*
X118078947Y-88135426D01*
X118402453Y-88133543D01*
X118404466Y-88479340D01*
X118436938Y-88511812D01*
X118482860Y-88511812D01*
X118515332Y-88479340D01*
X118519899Y-88456379D01*
X118518016Y-88132871D01*
X118863812Y-88130859D01*
X118896284Y-88098387D01*
X118896284Y-88052465D01*
X118863812Y-88019993D01*
X118840851Y-88015426D01*
X118517344Y-88017308D01*
X118515332Y-87671513D01*
X118482860Y-87639041D01*
X118436938Y-87639041D01*
X118404466Y-87671513D01*
X118399899Y-87694474D01*
X118401781Y-88017980D01*
X118055986Y-88019993D01*
X118023514Y-88052465D01*
X118023514Y-88098387D01*
X117136016Y-88098387D01*
X117135153Y-88049076D01*
X117168979Y-87975003D01*
X117168992Y-87974995D01*
X117202694Y-87937702D01*
X117277175Y-87897117D01*
X117417683Y-87893247D01*
X117431503Y-87894169D01*
X117433039Y-87892824D01*
X117435241Y-87892764D01*
X117450167Y-87877838D01*
X117466063Y-87863929D01*
X117466204Y-87861800D01*
X117467713Y-87860292D01*
X117467713Y-87839181D01*
X117469118Y-87818108D01*
X117467713Y-87815668D01*
X117467713Y-87814370D01*
X117465950Y-87812607D01*
X117457435Y-87797821D01*
X117206047Y-87515474D01*
X117720955Y-87511812D01*
X117753427Y-87479340D01*
X117753427Y-87433418D01*
X117720955Y-87400946D01*
X117697994Y-87396379D01*
X117078405Y-87400786D01*
X117059724Y-87399541D01*
X117058135Y-87400930D01*
X117055986Y-87400946D01*
X117041060Y-87415872D01*
X117025164Y-87429781D01*
X117025022Y-87431909D01*
X117023514Y-87433418D01*
X117023514Y-87454528D01*
X117022109Y-87475602D01*
X117023514Y-87478041D01*
X117023514Y-87479340D01*
X117025276Y-87481102D01*
X117033792Y-87495889D01*
X117287436Y-87780769D01*
X117275978Y-87781085D01*
X117265169Y-87777482D01*
X117249334Y-87781818D01*
X117246462Y-87781898D01*
X117245487Y-87782872D01*
X117242590Y-87783666D01*
X117158444Y-87829517D01*
X117151224Y-87829517D01*
X117131758Y-87842524D01*
X117129027Y-87845545D01*
X117128858Y-87845638D01*
X117128807Y-87845788D01*
X117093109Y-87885290D01*
X117087254Y-87887242D01*
X117072900Y-87905736D01*
X117031109Y-87997250D01*
X117023514Y-88004846D01*
X117020329Y-88020857D01*
X117019098Y-88023554D01*
X117019533Y-88024859D01*
X117018947Y-88027807D01*
X116663896Y-88027807D01*
X116853081Y-87452126D01*
X116832544Y-87411052D01*
X116788979Y-87396530D01*
X116747904Y-87417067D01*
X116736311Y-87437406D01*
X116461480Y-88273702D01*
X116171893Y-87417067D01*
X116130819Y-87396530D01*
X116087254Y-87411052D01*
X116066717Y-87452126D01*
X115943903Y-87452126D01*
X115943903Y-87433418D01*
X115911431Y-87400946D01*
X115888470Y-87396379D01*
X115268881Y-87400786D01*
X115250200Y-87399541D01*
X115248611Y-87400930D01*
X115246462Y-87400946D01*
X115231536Y-87415872D01*
X115215640Y-87429781D01*
X115215498Y-87431909D01*
X115213990Y-87433418D01*
X115213990Y-87454528D01*
X115212585Y-87475602D01*
X115213990Y-87478041D01*
X115213990Y-87479340D01*
X115215752Y-87481102D01*
X115224268Y-87495889D01*
X115477912Y-87780769D01*
X115466454Y-87781085D01*
X115455645Y-87777482D01*
X115439810Y-87781818D01*
X115436938Y-87781898D01*
X115435963Y-87782872D01*
X115433066Y-87783666D01*
X115348920Y-87829517D01*
X115341700Y-87829517D01*
X115322234Y-87842524D01*
X115319503Y-87845545D01*
X115319334Y-87845638D01*
X115319283Y-87845788D01*
X115283585Y-87885290D01*
X115277730Y-87887242D01*
X115263376Y-87905736D01*
X115221585Y-87997250D01*
X115213990Y-88004846D01*
X115210805Y-88020857D01*
X115209574Y-88023554D01*
X115210009Y-88024859D01*
X115209423Y-88027807D01*
X115098312Y-88027807D01*
X115098312Y-87285268D01*
X119007395Y-87285268D01*
X119007395Y-88627490D01*
G37*
G36*
X117560321Y-85546411D02*
G01*
X117560330Y-85546424D01*
X117642575Y-85624039D01*
X117686485Y-85785326D01*
X117685613Y-85789712D01*
X117689638Y-86103762D01*
X117687404Y-86108493D01*
X117648665Y-86278409D01*
X117576428Y-86354956D01*
X117575923Y-86355095D01*
X117499857Y-86396542D01*
X117337949Y-86400007D01*
X117264239Y-86366347D01*
X117264231Y-86366334D01*
X117181984Y-86288717D01*
X117138074Y-86127430D01*
X117138947Y-86123045D01*
X117134921Y-85808994D01*
X117137156Y-85804264D01*
X117175894Y-85634347D01*
X117248129Y-85557802D01*
X117248637Y-85557664D01*
X117324703Y-85516215D01*
X117486609Y-85512750D01*
X117560321Y-85546411D01*
G37*
G36*
X118642194Y-86397355D02*
G01*
X118480156Y-86400189D01*
X118478872Y-86399458D01*
X118354438Y-86361587D01*
X118275607Y-86287194D01*
X118275469Y-86286688D01*
X118232602Y-86208019D01*
X118232394Y-86203731D01*
X118185693Y-86032192D01*
X118186566Y-86027807D01*
X118183128Y-85902987D01*
X118184775Y-85899502D01*
X118224382Y-85725776D01*
X118227851Y-85721307D01*
X118264217Y-85641670D01*
X118264230Y-85641662D01*
X118342723Y-85558485D01*
X118459171Y-85516234D01*
X118459899Y-85516379D01*
X118638247Y-85513258D01*
X118642194Y-86397355D01*
G37*
G36*
X118869105Y-86627490D02*
G01*
X115007641Y-86627490D01*
X115007641Y-85479340D01*
X115118752Y-85479340D01*
X115151224Y-85511812D01*
X115174185Y-85516379D01*
X115400159Y-85514642D01*
X115404466Y-86479340D01*
X115436938Y-86511812D01*
X115482860Y-86511812D01*
X115515332Y-86479340D01*
X115519899Y-86456379D01*
X115515690Y-85513755D01*
X115768574Y-85511812D01*
X115801046Y-85479340D01*
X115801046Y-85456379D01*
X116018947Y-85456379D01*
X116023341Y-86257424D01*
X116019098Y-86270155D01*
X116023499Y-86286229D01*
X116023514Y-86288863D01*
X116024487Y-86289836D01*
X116025281Y-86292735D01*
X116071133Y-86376881D01*
X116071133Y-86384101D01*
X116084139Y-86403566D01*
X116087161Y-86406297D01*
X116087254Y-86406467D01*
X116087404Y-86406517D01*
X116126906Y-86442216D01*
X116128858Y-86448072D01*
X116147352Y-86462426D01*
X116238866Y-86504216D01*
X116246462Y-86511812D01*
X116262472Y-86514996D01*
X116265169Y-86516228D01*
X116266475Y-86515792D01*
X116269423Y-86516379D01*
X116452831Y-86512454D01*
X116464152Y-86516228D01*
X116480060Y-86511871D01*
X116482860Y-86511812D01*
X116483833Y-86510838D01*
X116486732Y-86510045D01*
X116570879Y-86464193D01*
X116578099Y-86464193D01*
X116597564Y-86451186D01*
X116600294Y-86448164D01*
X116600464Y-86448072D01*
X116600514Y-86447921D01*
X116636212Y-86408418D01*
X116642068Y-86406467D01*
X116656422Y-86387973D01*
X116698212Y-86296458D01*
X116705808Y-86288863D01*
X116708992Y-86272852D01*
X116710224Y-86270156D01*
X116709788Y-86268849D01*
X116710375Y-86265902D01*
X116707763Y-85789712D01*
X117018947Y-85789712D01*
X117023033Y-86108492D01*
X117019600Y-86114214D01*
X117020738Y-86137597D01*
X117071133Y-86322706D01*
X117071133Y-86336482D01*
X117077462Y-86345954D01*
X117078357Y-86349241D01*
X117080528Y-86350544D01*
X117084139Y-86355947D01*
X117174052Y-86440798D01*
X117176477Y-86448072D01*
X117194971Y-86462426D01*
X117286485Y-86504216D01*
X117294081Y-86511812D01*
X117310091Y-86514996D01*
X117312788Y-86516228D01*
X117314094Y-86515792D01*
X117317042Y-86516379D01*
X117500450Y-86512454D01*
X117511771Y-86516228D01*
X117527679Y-86511871D01*
X117530479Y-86511812D01*
X117531452Y-86510838D01*
X117534351Y-86510045D01*
X117618498Y-86464193D01*
X117625717Y-86464193D01*
X117645183Y-86451186D01*
X117735099Y-86355902D01*
X117746203Y-86349241D01*
X117751031Y-86339020D01*
X117753427Y-86336482D01*
X117753427Y-86333949D01*
X117756203Y-86328073D01*
X117796727Y-86150324D01*
X117801046Y-86146006D01*
X117805613Y-86123045D01*
X117802560Y-85884950D01*
X118066566Y-85884950D01*
X118070124Y-86014134D01*
X118067219Y-86018976D01*
X118068357Y-86042359D01*
X118116027Y-86217461D01*
X118114336Y-86222536D01*
X118120519Y-86245116D01*
X118166371Y-86329262D01*
X118166371Y-86336482D01*
X118179377Y-86355947D01*
X118272689Y-86444005D01*
X118277730Y-86454087D01*
X118291980Y-86462210D01*
X118294081Y-86464193D01*
X118295458Y-86464193D01*
X118298068Y-86465681D01*
X118431379Y-86506253D01*
X118436938Y-86511812D01*
X118459899Y-86516379D01*
X118720955Y-86511812D01*
X118753427Y-86479340D01*
X118757994Y-86456379D01*
X118753427Y-85433418D01*
X118720955Y-85400946D01*
X118697994Y-85396379D01*
X118471765Y-85400336D01*
X118464152Y-85396530D01*
X118440925Y-85399458D01*
X118305583Y-85448565D01*
X118294081Y-85448565D01*
X118280415Y-85457696D01*
X118277730Y-85458671D01*
X118277114Y-85459902D01*
X118274616Y-85461572D01*
X118189765Y-85551484D01*
X118182492Y-85553909D01*
X118168138Y-85572403D01*
X118129735Y-85656498D01*
X118125976Y-85658754D01*
X118115976Y-85679922D01*
X118075451Y-85857670D01*
X118071133Y-85861989D01*
X118066566Y-85884950D01*
X117802560Y-85884950D01*
X117801526Y-85804264D01*
X117804960Y-85798543D01*
X117803822Y-85775160D01*
X117753427Y-85590050D01*
X117753427Y-85576275D01*
X117747098Y-85566803D01*
X117746203Y-85563516D01*
X117744029Y-85562212D01*
X117740420Y-85556810D01*
X117650507Y-85471959D01*
X117648083Y-85464686D01*
X117629589Y-85450332D01*
X117538074Y-85408541D01*
X117530479Y-85400946D01*
X117514467Y-85397761D01*
X117511771Y-85396530D01*
X117510465Y-85396965D01*
X117507518Y-85396379D01*
X117324108Y-85400303D01*
X117312788Y-85396530D01*
X117296883Y-85400886D01*
X117294081Y-85400946D01*
X117293106Y-85401920D01*
X117290209Y-85402714D01*
X117206063Y-85448565D01*
X117198843Y-85448565D01*
X117179378Y-85461572D01*
X117089460Y-85556853D01*
X117078357Y-85563516D01*
X117073528Y-85573736D01*
X117071133Y-85576275D01*
X117071133Y-85578807D01*
X117068357Y-85584684D01*
X117027832Y-85762432D01*
X117023514Y-85766751D01*
X117018947Y-85789712D01*
X116707763Y-85789712D01*
X116705808Y-85433418D01*
X116673336Y-85400946D01*
X116627414Y-85400946D01*
X116594942Y-85433418D01*
X116590375Y-85456379D01*
X116594693Y-86243483D01*
X116560343Y-86318704D01*
X116560329Y-86318714D01*
X116526624Y-86356010D01*
X116452238Y-86396542D01*
X116290330Y-86400007D01*
X116216620Y-86366347D01*
X116216612Y-86366334D01*
X116179316Y-86332627D01*
X116138906Y-86258467D01*
X116134380Y-85433418D01*
X116101908Y-85400946D01*
X116055986Y-85400946D01*
X116023514Y-85433418D01*
X116018947Y-85456379D01*
X115801046Y-85456379D01*
X115801046Y-85433418D01*
X115768574Y-85400946D01*
X115745613Y-85396379D01*
X115151224Y-85400946D01*
X115118752Y-85433418D01*
X115118752Y-85479340D01*
X115007641Y-85479340D01*
X115007641Y-85285268D01*
X118869105Y-85285268D01*
X118869105Y-86627490D01*
G37*
G36*
X116642194Y-84397355D02*
G01*
X116480156Y-84400189D01*
X116478872Y-84399458D01*
X116354438Y-84361587D01*
X116275607Y-84287194D01*
X116275469Y-84286688D01*
X116232602Y-84208019D01*
X116232394Y-84203731D01*
X116185693Y-84032192D01*
X116186566Y-84027807D01*
X116183128Y-83902987D01*
X116184775Y-83899502D01*
X116224382Y-83725776D01*
X116227851Y-83721307D01*
X116264217Y-83641670D01*
X116264230Y-83641662D01*
X116342723Y-83558485D01*
X116459171Y-83516234D01*
X116459899Y-83516379D01*
X116638247Y-83513258D01*
X116642194Y-84397355D01*
G37*
G36*
X118642194Y-84397355D02*
G01*
X118480156Y-84400189D01*
X118478872Y-84399458D01*
X118354438Y-84361587D01*
X118275607Y-84287194D01*
X118275469Y-84286688D01*
X118232602Y-84208019D01*
X118232394Y-84203731D01*
X118185693Y-84032192D01*
X118186566Y-84027807D01*
X118183128Y-83902987D01*
X118184775Y-83899502D01*
X118224382Y-83725776D01*
X118227851Y-83721307D01*
X118264217Y-83641670D01*
X118264230Y-83641662D01*
X118342723Y-83558485D01*
X118459171Y-83516234D01*
X118459899Y-83516379D01*
X118638247Y-83513258D01*
X118642194Y-84397355D01*
G37*
G36*
X117640067Y-83920842D02*
G01*
X117474459Y-83922715D01*
X117472877Y-83921608D01*
X117466063Y-83922810D01*
X117338895Y-83924248D01*
X117264239Y-83890156D01*
X117264230Y-83890142D01*
X117226935Y-83856437D01*
X117186352Y-83781960D01*
X117183191Y-83667206D01*
X117216598Y-83594051D01*
X117216611Y-83594043D01*
X117250313Y-83556750D01*
X117324558Y-83516294D01*
X117638245Y-83512747D01*
X117640067Y-83920842D01*
G37*
G36*
X119002634Y-84627490D02*
G01*
X115003980Y-84627490D01*
X115003980Y-83466768D01*
X115115091Y-83466768D01*
X115123565Y-83488592D01*
X115447606Y-83989912D01*
X115452085Y-84479340D01*
X115484557Y-84511812D01*
X115530479Y-84511812D01*
X115562951Y-84479340D01*
X115567518Y-84456379D01*
X115563379Y-84004034D01*
X115637978Y-83884950D01*
X116066566Y-83884950D01*
X116070124Y-84014134D01*
X116067219Y-84018976D01*
X116068357Y-84042359D01*
X116116027Y-84217461D01*
X116114336Y-84222536D01*
X116120519Y-84245116D01*
X116166371Y-84329262D01*
X116166371Y-84336482D01*
X116179377Y-84355947D01*
X116272689Y-84444005D01*
X116277730Y-84454087D01*
X116291980Y-84462210D01*
X116294081Y-84464193D01*
X116295458Y-84464193D01*
X116298068Y-84465681D01*
X116431379Y-84506253D01*
X116436938Y-84511812D01*
X116459899Y-84516379D01*
X116720955Y-84511812D01*
X116753427Y-84479340D01*
X116757994Y-84456379D01*
X116754380Y-83646855D01*
X117066566Y-83646855D01*
X117070320Y-83783156D01*
X117066717Y-83793965D01*
X117071053Y-83809803D01*
X117071133Y-83812673D01*
X117072106Y-83813646D01*
X117072900Y-83816545D01*
X117118752Y-83900691D01*
X117118752Y-83907911D01*
X117131759Y-83927376D01*
X117134779Y-83930106D01*
X117134873Y-83930277D01*
X117135025Y-83930327D01*
X117174524Y-83966024D01*
X117176477Y-83971881D01*
X117194971Y-83986235D01*
X117286485Y-84028025D01*
X117294081Y-84035621D01*
X117310091Y-84038805D01*
X117312788Y-84040037D01*
X117314094Y-84039601D01*
X117317042Y-84040188D01*
X117345942Y-84039861D01*
X117067986Y-84443401D01*
X117075967Y-84488624D01*
X117113588Y-84514959D01*
X117158811Y-84506978D01*
X117175720Y-84490787D01*
X117487417Y-84038261D01*
X117640584Y-84036529D01*
X117642561Y-84479340D01*
X117675033Y-84511812D01*
X117720955Y-84511812D01*
X117753427Y-84479340D01*
X117757994Y-84456379D01*
X117755443Y-83884950D01*
X118066566Y-83884950D01*
X118070124Y-84014134D01*
X118067219Y-84018976D01*
X118068357Y-84042359D01*
X118116027Y-84217461D01*
X118114336Y-84222536D01*
X118120519Y-84245116D01*
X118166371Y-84329262D01*
X118166371Y-84336482D01*
X118179377Y-84355947D01*
X118272689Y-84444005D01*
X118277730Y-84454087D01*
X118291980Y-84462210D01*
X118294081Y-84464193D01*
X118295458Y-84464193D01*
X118298068Y-84465681D01*
X118431379Y-84506253D01*
X118436938Y-84511812D01*
X118459899Y-84516379D01*
X118720955Y-84511812D01*
X118753427Y-84479340D01*
X118757994Y-84456379D01*
X118753427Y-83433418D01*
X118720955Y-83400946D01*
X118697994Y-83396379D01*
X118471765Y-83400336D01*
X118464152Y-83396530D01*
X118440925Y-83399458D01*
X118305583Y-83448565D01*
X118294081Y-83448565D01*
X118280415Y-83457696D01*
X118277730Y-83458671D01*
X118277114Y-83459902D01*
X118274616Y-83461572D01*
X118189765Y-83551484D01*
X118182492Y-83553909D01*
X118168138Y-83572403D01*
X118129735Y-83656498D01*
X118125976Y-83658754D01*
X118115976Y-83679922D01*
X118075451Y-83857670D01*
X118071133Y-83861989D01*
X118066566Y-83884950D01*
X117755443Y-83884950D01*
X117753427Y-83433418D01*
X117720955Y-83400946D01*
X117697994Y-83396379D01*
X117324987Y-83400596D01*
X117312788Y-83396530D01*
X117296775Y-83400915D01*
X117294081Y-83400946D01*
X117293106Y-83401920D01*
X117290209Y-83402714D01*
X117206063Y-83448565D01*
X117198843Y-83448565D01*
X117179377Y-83461572D01*
X117176646Y-83464593D01*
X117176477Y-83464686D01*
X117176426Y-83464836D01*
X117140728Y-83504338D01*
X117134873Y-83506290D01*
X117120519Y-83524784D01*
X117078728Y-83616298D01*
X117071133Y-83623894D01*
X117067948Y-83639905D01*
X117066717Y-83642602D01*
X117067152Y-83643907D01*
X117066566Y-83646855D01*
X116754380Y-83646855D01*
X116753427Y-83433418D01*
X116720955Y-83400946D01*
X116697994Y-83396379D01*
X116471765Y-83400336D01*
X116464152Y-83396530D01*
X116440925Y-83399458D01*
X116305583Y-83448565D01*
X116294081Y-83448565D01*
X116280415Y-83457696D01*
X116277730Y-83458671D01*
X116277114Y-83459902D01*
X116274616Y-83461572D01*
X116189765Y-83551484D01*
X116182492Y-83553909D01*
X116168138Y-83572403D01*
X116129735Y-83656498D01*
X116125976Y-83658754D01*
X116115976Y-83679922D01*
X116075451Y-83857670D01*
X116071133Y-83861989D01*
X116066566Y-83884950D01*
X115637978Y-83884950D01*
X115899945Y-83466768D01*
X115889983Y-83421939D01*
X115851240Y-83397285D01*
X115806412Y-83407247D01*
X115790231Y-83424166D01*
X115509364Y-83872518D01*
X115208624Y-83407247D01*
X115163796Y-83397285D01*
X115125053Y-83421940D01*
X115115091Y-83466768D01*
X115003980Y-83466768D01*
X115003980Y-83201721D01*
X115123514Y-83201721D01*
X115155986Y-83234193D01*
X115178947Y-83238760D01*
X118859051Y-83234193D01*
X118891523Y-83201721D01*
X118891523Y-83155799D01*
X118859051Y-83123327D01*
X118836090Y-83118760D01*
X115155986Y-83123327D01*
X115123514Y-83155799D01*
X115123514Y-83201721D01*
X115003980Y-83201721D01*
X115003980Y-83007649D01*
X119002634Y-83007649D01*
X119002634Y-84627490D01*
G37*
G36*
X117308860Y-82397355D02*
G01*
X117146822Y-82400189D01*
X117145538Y-82399458D01*
X117021104Y-82361587D01*
X116942273Y-82287194D01*
X116942135Y-82286688D01*
X116899268Y-82208019D01*
X116899060Y-82203731D01*
X116852359Y-82032192D01*
X116853232Y-82027807D01*
X116849794Y-81902987D01*
X116851441Y-81899502D01*
X116891048Y-81725776D01*
X116894517Y-81721307D01*
X116930883Y-81641670D01*
X116930896Y-81641662D01*
X117009389Y-81558485D01*
X117125837Y-81516234D01*
X117126565Y-81516379D01*
X117304913Y-81513258D01*
X117308860Y-82397355D01*
G37*
G36*
X117535771Y-82627490D02*
G01*
X115145931Y-82627490D01*
X115145931Y-81456379D01*
X115257042Y-81456379D01*
X115261441Y-82441888D01*
X115257521Y-82448812D01*
X115261538Y-82463542D01*
X115261609Y-82479340D01*
X115267436Y-82485167D01*
X115269604Y-82493116D01*
X115283093Y-82500824D01*
X115294081Y-82511812D01*
X115302321Y-82511812D01*
X115309475Y-82515900D01*
X115324464Y-82511812D01*
X115340003Y-82511812D01*
X115345830Y-82505984D01*
X115353779Y-82503817D01*
X115369137Y-82486147D01*
X115829438Y-81673298D01*
X115833037Y-82479340D01*
X115865509Y-82511812D01*
X115911431Y-82511812D01*
X115943903Y-82479340D01*
X115948470Y-82456379D01*
X115944070Y-81470869D01*
X115947991Y-81463946D01*
X115945927Y-81456379D01*
X116304660Y-81456379D01*
X116309227Y-82479340D01*
X116341699Y-82511812D01*
X116387621Y-82511812D01*
X116420093Y-82479340D01*
X116424660Y-82456379D01*
X116422109Y-81884950D01*
X116733232Y-81884950D01*
X116736790Y-82014134D01*
X116733885Y-82018976D01*
X116735023Y-82042359D01*
X116782693Y-82217461D01*
X116781002Y-82222536D01*
X116787185Y-82245116D01*
X116833037Y-82329262D01*
X116833037Y-82336482D01*
X116846043Y-82355947D01*
X116939355Y-82444005D01*
X116944396Y-82454087D01*
X116958646Y-82462210D01*
X116960747Y-82464193D01*
X116962124Y-82464193D01*
X116964734Y-82465681D01*
X117098045Y-82506253D01*
X117103604Y-82511812D01*
X117126565Y-82516379D01*
X117387621Y-82511812D01*
X117420093Y-82479340D01*
X117424660Y-82456379D01*
X117420093Y-81433418D01*
X117387621Y-81400946D01*
X117364660Y-81396379D01*
X117138431Y-81400336D01*
X117130818Y-81396530D01*
X117107591Y-81399458D01*
X116972249Y-81448565D01*
X116960747Y-81448565D01*
X116947081Y-81457696D01*
X116944396Y-81458671D01*
X116943780Y-81459902D01*
X116941282Y-81461572D01*
X116856431Y-81551484D01*
X116849158Y-81553909D01*
X116834804Y-81572403D01*
X116796401Y-81656498D01*
X116792642Y-81658754D01*
X116782642Y-81679922D01*
X116742117Y-81857670D01*
X116737799Y-81861989D01*
X116733232Y-81884950D01*
X116422109Y-81884950D01*
X116420093Y-81433418D01*
X116387621Y-81400946D01*
X116341699Y-81400946D01*
X116309227Y-81433418D01*
X116304660Y-81456379D01*
X115945927Y-81456379D01*
X115943973Y-81449215D01*
X115943903Y-81433418D01*
X115938076Y-81427591D01*
X115935908Y-81419641D01*
X115922417Y-81411932D01*
X115911431Y-81400946D01*
X115903191Y-81400946D01*
X115896037Y-81396858D01*
X115881048Y-81400946D01*
X115865509Y-81400946D01*
X115859681Y-81406773D01*
X115851733Y-81408941D01*
X115836375Y-81426611D01*
X115376073Y-82239459D01*
X115372475Y-81433418D01*
X115340003Y-81400946D01*
X115294081Y-81400946D01*
X115261609Y-81433418D01*
X115257042Y-81456379D01*
X115145931Y-81456379D01*
X115145931Y-81285268D01*
X117535771Y-81285268D01*
X117535771Y-82627490D01*
G37*
G36*
X118821486Y-80627490D02*
G01*
X115100189Y-80627490D01*
X115100189Y-80441488D01*
X115211300Y-80441488D01*
X115217794Y-80486949D01*
X115254532Y-80514502D01*
X115299993Y-80508008D01*
X115317423Y-80492379D01*
X115703846Y-79970442D01*
X115783497Y-80049223D01*
X115785418Y-80479340D01*
X115817890Y-80511812D01*
X115863812Y-80511812D01*
X115896284Y-80479340D01*
X116118752Y-80479340D01*
X116151224Y-80511812D01*
X116174185Y-80516379D01*
X116673336Y-80511812D01*
X116705808Y-80479340D01*
X116710375Y-80456379D01*
X116710052Y-80384101D01*
X117023514Y-80384101D01*
X117036520Y-80403566D01*
X117082993Y-80445566D01*
X117087254Y-80454087D01*
X117101250Y-80462065D01*
X117103604Y-80464193D01*
X117104982Y-80464193D01*
X117107592Y-80465681D01*
X117240903Y-80506253D01*
X117246462Y-80511812D01*
X117269423Y-80516379D01*
X117273637Y-80516216D01*
X117273676Y-80516228D01*
X117273704Y-80516213D01*
X117354161Y-80513104D01*
X117360408Y-80516228D01*
X117383635Y-80513300D01*
X117518979Y-80464193D01*
X117530479Y-80464193D01*
X117544142Y-80455063D01*
X117546830Y-80454088D01*
X117547446Y-80452855D01*
X117549945Y-80451186D01*
X117634794Y-80361272D01*
X117642068Y-80358848D01*
X117656422Y-80340354D01*
X117694824Y-80256258D01*
X117698584Y-80254003D01*
X117708584Y-80232835D01*
X117722758Y-80170664D01*
X118018947Y-80170664D01*
X118022407Y-80260226D01*
X118019098Y-80270155D01*
X118023397Y-80285857D01*
X118023514Y-80288863D01*
X118024487Y-80289836D01*
X118025281Y-80292735D01*
X118071133Y-80376881D01*
X118071133Y-80384101D01*
X118084139Y-80403566D01*
X118087161Y-80406297D01*
X118087254Y-80406467D01*
X118087404Y-80406517D01*
X118126906Y-80442216D01*
X118128858Y-80448072D01*
X118147352Y-80462426D01*
X118238866Y-80504216D01*
X118246462Y-80511812D01*
X118262472Y-80514996D01*
X118265169Y-80516228D01*
X118266475Y-80515792D01*
X118269423Y-80516379D01*
X118495651Y-80512421D01*
X118503265Y-80516228D01*
X118526492Y-80513300D01*
X118689687Y-80454088D01*
X118710224Y-80413013D01*
X118695702Y-80369448D01*
X118654628Y-80348911D01*
X118631401Y-80351839D01*
X118508246Y-80396523D01*
X118507518Y-80396379D01*
X118290692Y-80400172D01*
X118216620Y-80366347D01*
X118216612Y-80366334D01*
X118179316Y-80332627D01*
X118138640Y-80257980D01*
X118136016Y-80190044D01*
X118168979Y-80117860D01*
X118168992Y-80117852D01*
X118202694Y-80080559D01*
X118279687Y-80038605D01*
X118283975Y-80038397D01*
X118459077Y-79990726D01*
X118464152Y-79992418D01*
X118486732Y-79986235D01*
X118570879Y-79940383D01*
X118578098Y-79940383D01*
X118597563Y-79927376D01*
X118600293Y-79924355D01*
X118600464Y-79924262D01*
X118600514Y-79924109D01*
X118636211Y-79884610D01*
X118642068Y-79882658D01*
X118656422Y-79864164D01*
X118698212Y-79772649D01*
X118705808Y-79765054D01*
X118708992Y-79749043D01*
X118710224Y-79746347D01*
X118709788Y-79745040D01*
X118710375Y-79742093D01*
X118706914Y-79652529D01*
X118710224Y-79642601D01*
X118705924Y-79626901D01*
X118705808Y-79623894D01*
X118704833Y-79622919D01*
X118704040Y-79620022D01*
X118658189Y-79535875D01*
X118658189Y-79528656D01*
X118645182Y-79509190D01*
X118642160Y-79506459D01*
X118642068Y-79506290D01*
X118641917Y-79506239D01*
X118602415Y-79470541D01*
X118600464Y-79464686D01*
X118581970Y-79450332D01*
X118490455Y-79408541D01*
X118482860Y-79400946D01*
X118466848Y-79397761D01*
X118464152Y-79396530D01*
X118462846Y-79396965D01*
X118459899Y-79396379D01*
X118233670Y-79400336D01*
X118226057Y-79396530D01*
X118202830Y-79399458D01*
X118039635Y-79458671D01*
X118019098Y-79499745D01*
X118033620Y-79543310D01*
X118074694Y-79563847D01*
X118097921Y-79560919D01*
X118221076Y-79516234D01*
X118221804Y-79516379D01*
X118438629Y-79512585D01*
X118512702Y-79546411D01*
X118512711Y-79546424D01*
X118550003Y-79580126D01*
X118590681Y-79654777D01*
X118593305Y-79722712D01*
X118560343Y-79794895D01*
X118560329Y-79794905D01*
X118526624Y-79832199D01*
X118449635Y-79874151D01*
X118445347Y-79874360D01*
X118270244Y-79922030D01*
X118265169Y-79920339D01*
X118242590Y-79926523D01*
X118158444Y-79972374D01*
X118151224Y-79972374D01*
X118131758Y-79985381D01*
X118129027Y-79988402D01*
X118128858Y-79988495D01*
X118128807Y-79988645D01*
X118093109Y-80028147D01*
X118087254Y-80030099D01*
X118072900Y-80048593D01*
X118031109Y-80140107D01*
X118023514Y-80147703D01*
X118020329Y-80163714D01*
X118019098Y-80166411D01*
X118019533Y-80167716D01*
X118018947Y-80170664D01*
X117722758Y-80170664D01*
X117749108Y-80055086D01*
X117753427Y-80050768D01*
X117757994Y-80027807D01*
X117754435Y-79898622D01*
X117757341Y-79893781D01*
X117756203Y-79870398D01*
X117708532Y-79695295D01*
X117710224Y-79690220D01*
X117704040Y-79667641D01*
X117658189Y-79583494D01*
X117658189Y-79576275D01*
X117645182Y-79556810D01*
X117551871Y-79468752D01*
X117546830Y-79458670D01*
X117532579Y-79450547D01*
X117530479Y-79448565D01*
X117529102Y-79448565D01*
X117526491Y-79447077D01*
X117393180Y-79406504D01*
X117387622Y-79400946D01*
X117364661Y-79396379D01*
X117360446Y-79396541D01*
X117360408Y-79396530D01*
X117360379Y-79396544D01*
X117279922Y-79399653D01*
X117273676Y-79396530D01*
X117250449Y-79399458D01*
X117115107Y-79448565D01*
X117103605Y-79448565D01*
X117089938Y-79457697D01*
X117087254Y-79458671D01*
X117086638Y-79459901D01*
X117084139Y-79461572D01*
X117023514Y-79528656D01*
X117023514Y-79574578D01*
X117055986Y-79607050D01*
X117101908Y-79607050D01*
X117121373Y-79594043D01*
X117154122Y-79557805D01*
X117268695Y-79516234D01*
X117269423Y-79516379D01*
X117346072Y-79513417D01*
X117470122Y-79551171D01*
X117548951Y-79625561D01*
X117549090Y-79626069D01*
X117591957Y-79704738D01*
X117592166Y-79709026D01*
X117638866Y-79880564D01*
X117637994Y-79884950D01*
X117641431Y-80009769D01*
X117639785Y-80013255D01*
X117600177Y-80186980D01*
X117596709Y-80191450D01*
X117560342Y-80271086D01*
X117560330Y-80271095D01*
X117481835Y-80354272D01*
X117365389Y-80396523D01*
X117364661Y-80396379D01*
X117288010Y-80399340D01*
X117163627Y-80361484D01*
X117101909Y-80305707D01*
X117055986Y-80305707D01*
X117023514Y-80338178D01*
X117023514Y-80384101D01*
X116710052Y-80384101D01*
X116705808Y-79433418D01*
X116673336Y-79400946D01*
X116627414Y-79400946D01*
X116594942Y-79433418D01*
X116590375Y-79456379D01*
X116594573Y-80396889D01*
X116151224Y-80400946D01*
X116118752Y-80433418D01*
X116118752Y-80479340D01*
X115896284Y-80479340D01*
X115900851Y-80456379D01*
X115896284Y-79433418D01*
X115863812Y-79400946D01*
X115817890Y-79400946D01*
X115785418Y-79433418D01*
X115780851Y-79456379D01*
X115782768Y-79885970D01*
X115292384Y-79400946D01*
X115246462Y-79400946D01*
X115213990Y-79433418D01*
X115213990Y-79479340D01*
X115226997Y-79498805D01*
X115620833Y-79888336D01*
X115211300Y-80441488D01*
X115100189Y-80441488D01*
X115100189Y-79285268D01*
X118821486Y-79285268D01*
X118821486Y-80627490D01*
G37*
G36*
X117097872Y-78627490D02*
G01*
X115012403Y-78627490D01*
X115012403Y-78170664D01*
X115209423Y-78170664D01*
X115212883Y-78260226D01*
X115209574Y-78270155D01*
X115213873Y-78285857D01*
X115213990Y-78288863D01*
X115214963Y-78289836D01*
X115215757Y-78292735D01*
X115261609Y-78376881D01*
X115261609Y-78384101D01*
X115274615Y-78403566D01*
X115277637Y-78406297D01*
X115277730Y-78406467D01*
X115277880Y-78406517D01*
X115317382Y-78442216D01*
X115319334Y-78448072D01*
X115337828Y-78462426D01*
X115429342Y-78504216D01*
X115436938Y-78511812D01*
X115452948Y-78514996D01*
X115455645Y-78516228D01*
X115456951Y-78515792D01*
X115459899Y-78516379D01*
X115686127Y-78512421D01*
X115693741Y-78516228D01*
X115716968Y-78513300D01*
X115880163Y-78454088D01*
X115900700Y-78413013D01*
X115891062Y-78384101D01*
X116166371Y-78384101D01*
X116179377Y-78403566D01*
X116225850Y-78445566D01*
X116230111Y-78454087D01*
X116244107Y-78462065D01*
X116246461Y-78464193D01*
X116247839Y-78464193D01*
X116250449Y-78465681D01*
X116383760Y-78506253D01*
X116389319Y-78511812D01*
X116412280Y-78516379D01*
X116416494Y-78516216D01*
X116416533Y-78516228D01*
X116416561Y-78516213D01*
X116497018Y-78513104D01*
X116503265Y-78516228D01*
X116526492Y-78513300D01*
X116661836Y-78464193D01*
X116673336Y-78464193D01*
X116686999Y-78455063D01*
X116689687Y-78454088D01*
X116690303Y-78452855D01*
X116692802Y-78451186D01*
X116777651Y-78361272D01*
X116784925Y-78358848D01*
X116799279Y-78340354D01*
X116837681Y-78256258D01*
X116841441Y-78254003D01*
X116851441Y-78232835D01*
X116891965Y-78055086D01*
X116896284Y-78050768D01*
X116900851Y-78027807D01*
X116897292Y-77898622D01*
X116900198Y-77893781D01*
X116899060Y-77870398D01*
X116851389Y-77695295D01*
X116853081Y-77690220D01*
X116846897Y-77667641D01*
X116801046Y-77583494D01*
X116801046Y-77576275D01*
X116788039Y-77556810D01*
X116694728Y-77468752D01*
X116689687Y-77458670D01*
X116675436Y-77450547D01*
X116673336Y-77448565D01*
X116671959Y-77448565D01*
X116669348Y-77447077D01*
X116536037Y-77406504D01*
X116530479Y-77400946D01*
X116507518Y-77396379D01*
X116503303Y-77396541D01*
X116503265Y-77396530D01*
X116503236Y-77396544D01*
X116422779Y-77399653D01*
X116416533Y-77396530D01*
X116393306Y-77399458D01*
X116257964Y-77448565D01*
X116246462Y-77448565D01*
X116232795Y-77457697D01*
X116230111Y-77458671D01*
X116229495Y-77459901D01*
X116226996Y-77461572D01*
X116166371Y-77528656D01*
X116166371Y-77574578D01*
X116198843Y-77607050D01*
X116244765Y-77607050D01*
X116264230Y-77594043D01*
X116296979Y-77557805D01*
X116411552Y-77516234D01*
X116412280Y-77516379D01*
X116488929Y-77513417D01*
X116612979Y-77551171D01*
X116691808Y-77625561D01*
X116691947Y-77626069D01*
X116734814Y-77704738D01*
X116735023Y-77709026D01*
X116781723Y-77880564D01*
X116780851Y-77884950D01*
X116784288Y-78009769D01*
X116782642Y-78013255D01*
X116743034Y-78186980D01*
X116739566Y-78191450D01*
X116703199Y-78271086D01*
X116703187Y-78271095D01*
X116624692Y-78354272D01*
X116508246Y-78396523D01*
X116507518Y-78396379D01*
X116430867Y-78399340D01*
X116306484Y-78361484D01*
X116244766Y-78305707D01*
X116198843Y-78305707D01*
X116166371Y-78338178D01*
X116166371Y-78384101D01*
X115891062Y-78384101D01*
X115886178Y-78369448D01*
X115845104Y-78348911D01*
X115821877Y-78351839D01*
X115698722Y-78396523D01*
X115697994Y-78396379D01*
X115481168Y-78400172D01*
X115407096Y-78366347D01*
X115407088Y-78366334D01*
X115369792Y-78332627D01*
X115329116Y-78257980D01*
X115326492Y-78190044D01*
X115359455Y-78117860D01*
X115359468Y-78117852D01*
X115393170Y-78080559D01*
X115470163Y-78038605D01*
X115474451Y-78038397D01*
X115649553Y-77990726D01*
X115654628Y-77992418D01*
X115677208Y-77986235D01*
X115761355Y-77940383D01*
X115768574Y-77940383D01*
X115788039Y-77927376D01*
X115790769Y-77924355D01*
X115790940Y-77924262D01*
X115790990Y-77924109D01*
X115826687Y-77884610D01*
X115832544Y-77882658D01*
X115846898Y-77864164D01*
X115888688Y-77772649D01*
X115896284Y-77765054D01*
X115899468Y-77749043D01*
X115900700Y-77746347D01*
X115900264Y-77745040D01*
X115900851Y-77742093D01*
X115897390Y-77652529D01*
X115900700Y-77642601D01*
X115896400Y-77626901D01*
X115896284Y-77623894D01*
X115895309Y-77622919D01*
X115894516Y-77620022D01*
X115848665Y-77535875D01*
X115848665Y-77528656D01*
X115835658Y-77509190D01*
X115832636Y-77506459D01*
X115832544Y-77506290D01*
X115832393Y-77506239D01*
X115792891Y-77470541D01*
X115790940Y-77464686D01*
X115772446Y-77450332D01*
X115680931Y-77408541D01*
X115673336Y-77400946D01*
X115657324Y-77397761D01*
X115654628Y-77396530D01*
X115653322Y-77396965D01*
X115650375Y-77396379D01*
X115424146Y-77400336D01*
X115416533Y-77396530D01*
X115393306Y-77399458D01*
X115230111Y-77458671D01*
X115209574Y-77499745D01*
X115224096Y-77543310D01*
X115265170Y-77563847D01*
X115288397Y-77560919D01*
X115411552Y-77516234D01*
X115412280Y-77516379D01*
X115629105Y-77512585D01*
X115703178Y-77546411D01*
X115703187Y-77546424D01*
X115740479Y-77580126D01*
X115781157Y-77654777D01*
X115783781Y-77722712D01*
X115750819Y-77794895D01*
X115750805Y-77794905D01*
X115717100Y-77832199D01*
X115640111Y-77874151D01*
X115635823Y-77874360D01*
X115460720Y-77922030D01*
X115455645Y-77920339D01*
X115433066Y-77926523D01*
X115348920Y-77972374D01*
X115341700Y-77972374D01*
X115322234Y-77985381D01*
X115319503Y-77988402D01*
X115319334Y-77988495D01*
X115319283Y-77988645D01*
X115283585Y-78028147D01*
X115277730Y-78030099D01*
X115263376Y-78048593D01*
X115221585Y-78140107D01*
X115213990Y-78147703D01*
X115210805Y-78163714D01*
X115209574Y-78166411D01*
X115210009Y-78167716D01*
X115209423Y-78170664D01*
X115012403Y-78170664D01*
X115012403Y-77201721D01*
X115123514Y-77201721D01*
X115155986Y-77234193D01*
X115178947Y-77238760D01*
X116954289Y-77234193D01*
X116986761Y-77201721D01*
X116986761Y-77155799D01*
X116954289Y-77123327D01*
X116931328Y-77118760D01*
X115155986Y-77123327D01*
X115123514Y-77155799D01*
X115123514Y-77201721D01*
X115012403Y-77201721D01*
X115012403Y-77007649D01*
X117097872Y-77007649D01*
X117097872Y-78627490D01*
G37*
G36*
X117427516Y-76111395D02*
G01*
X117111667Y-76114285D01*
X117267841Y-75639055D01*
X117427516Y-76111395D01*
G37*
G36*
X116544829Y-75920842D02*
G01*
X116379221Y-75922715D01*
X116377639Y-75921608D01*
X116370825Y-75922810D01*
X116243657Y-75924248D01*
X116169001Y-75890156D01*
X116168992Y-75890142D01*
X116131697Y-75856437D01*
X116091114Y-75781960D01*
X116087953Y-75667206D01*
X116121360Y-75594051D01*
X116121373Y-75594043D01*
X116155075Y-75556750D01*
X116229320Y-75516294D01*
X116543007Y-75512747D01*
X116544829Y-75920842D01*
G37*
G36*
X119478825Y-76627490D02*
G01*
X115007641Y-76627490D01*
X115007641Y-75479340D01*
X115118752Y-75479340D01*
X115151224Y-75511812D01*
X115174185Y-75516379D01*
X115400159Y-75514642D01*
X115404466Y-76479340D01*
X115436938Y-76511812D01*
X115482860Y-76511812D01*
X115515332Y-76479340D01*
X115519899Y-76456379D01*
X115516284Y-75646855D01*
X115971328Y-75646855D01*
X115975082Y-75783156D01*
X115971479Y-75793965D01*
X115975815Y-75809803D01*
X115975895Y-75812673D01*
X115976868Y-75813646D01*
X115977662Y-75816545D01*
X116023514Y-75900691D01*
X116023514Y-75907911D01*
X116036521Y-75927376D01*
X116039541Y-75930106D01*
X116039635Y-75930277D01*
X116039787Y-75930327D01*
X116079286Y-75966024D01*
X116081239Y-75971881D01*
X116099733Y-75986235D01*
X116191247Y-76028025D01*
X116198843Y-76035621D01*
X116214853Y-76038805D01*
X116217550Y-76040037D01*
X116218856Y-76039601D01*
X116221804Y-76040188D01*
X116250704Y-76039861D01*
X115972748Y-76443401D01*
X115980729Y-76488624D01*
X116018350Y-76514959D01*
X116063573Y-76506978D01*
X116080482Y-76490787D01*
X116392179Y-76038261D01*
X116545346Y-76036529D01*
X116547323Y-76479340D01*
X116579795Y-76511812D01*
X116625717Y-76511812D01*
X116658189Y-76479340D01*
X116661910Y-76460632D01*
X116876241Y-76460632D01*
X116896778Y-76501706D01*
X116940343Y-76516228D01*
X116981417Y-76495691D01*
X116993011Y-76475353D01*
X117073549Y-76230277D01*
X117466489Y-76226682D01*
X117557428Y-76495691D01*
X117598503Y-76516228D01*
X117642068Y-76501706D01*
X117662605Y-76460632D01*
X117659677Y-76437405D01*
X117562951Y-76151277D01*
X117562951Y-76147703D01*
X117561125Y-76145877D01*
X117335801Y-75479340D01*
X117737800Y-75479340D01*
X117770272Y-75511812D01*
X117793233Y-75516379D01*
X118019207Y-75514642D01*
X118023514Y-76479340D01*
X118055986Y-76511812D01*
X118101908Y-76511812D01*
X118134380Y-76479340D01*
X118138947Y-76456379D01*
X118137671Y-76170664D01*
X118590376Y-76170664D01*
X118593836Y-76260226D01*
X118590527Y-76270155D01*
X118594826Y-76285857D01*
X118594943Y-76288863D01*
X118595916Y-76289836D01*
X118596710Y-76292735D01*
X118642562Y-76376881D01*
X118642562Y-76384101D01*
X118655568Y-76403566D01*
X118658590Y-76406297D01*
X118658683Y-76406467D01*
X118658833Y-76406517D01*
X118698335Y-76442216D01*
X118700287Y-76448072D01*
X118718781Y-76462426D01*
X118810295Y-76504216D01*
X118817891Y-76511812D01*
X118833901Y-76514996D01*
X118836598Y-76516228D01*
X118837904Y-76515792D01*
X118840852Y-76516379D01*
X119067080Y-76512421D01*
X119074694Y-76516228D01*
X119097921Y-76513300D01*
X119261116Y-76454088D01*
X119281653Y-76413013D01*
X119267131Y-76369448D01*
X119226057Y-76348911D01*
X119202830Y-76351839D01*
X119079675Y-76396523D01*
X119078947Y-76396379D01*
X118862121Y-76400172D01*
X118788049Y-76366347D01*
X118788041Y-76366334D01*
X118750745Y-76332627D01*
X118710069Y-76257980D01*
X118707445Y-76190044D01*
X118740408Y-76117860D01*
X118740421Y-76117852D01*
X118774123Y-76080559D01*
X118851116Y-76038605D01*
X118855404Y-76038397D01*
X119030506Y-75990726D01*
X119035581Y-75992418D01*
X119058161Y-75986235D01*
X119142308Y-75940383D01*
X119149527Y-75940383D01*
X119168992Y-75927376D01*
X119171722Y-75924355D01*
X119171893Y-75924262D01*
X119171943Y-75924109D01*
X119207640Y-75884610D01*
X119213497Y-75882658D01*
X119227851Y-75864164D01*
X119269641Y-75772649D01*
X119277237Y-75765054D01*
X119280421Y-75749043D01*
X119281653Y-75746347D01*
X119281217Y-75745040D01*
X119281804Y-75742093D01*
X119278343Y-75652529D01*
X119281653Y-75642601D01*
X119277353Y-75626901D01*
X119277237Y-75623894D01*
X119276262Y-75622919D01*
X119275469Y-75620022D01*
X119229618Y-75535875D01*
X119229618Y-75528656D01*
X119216611Y-75509190D01*
X119213589Y-75506459D01*
X119213497Y-75506290D01*
X119213346Y-75506239D01*
X119173844Y-75470541D01*
X119171893Y-75464686D01*
X119153399Y-75450332D01*
X119061884Y-75408541D01*
X119054289Y-75400946D01*
X119038277Y-75397761D01*
X119035581Y-75396530D01*
X119034275Y-75396965D01*
X119031328Y-75396379D01*
X118805099Y-75400336D01*
X118797486Y-75396530D01*
X118774259Y-75399458D01*
X118611064Y-75458671D01*
X118590527Y-75499745D01*
X118605049Y-75543310D01*
X118646123Y-75563847D01*
X118669350Y-75560919D01*
X118792505Y-75516234D01*
X118793233Y-75516379D01*
X119010058Y-75512585D01*
X119084131Y-75546411D01*
X119084140Y-75546424D01*
X119121432Y-75580126D01*
X119162110Y-75654777D01*
X119164734Y-75722712D01*
X119131772Y-75794895D01*
X119131758Y-75794905D01*
X119098053Y-75832199D01*
X119021064Y-75874151D01*
X119016776Y-75874360D01*
X118841673Y-75922030D01*
X118836598Y-75920339D01*
X118814019Y-75926523D01*
X118729873Y-75972374D01*
X118722653Y-75972374D01*
X118703187Y-75985381D01*
X118700456Y-75988402D01*
X118700287Y-75988495D01*
X118700236Y-75988645D01*
X118664538Y-76028147D01*
X118658683Y-76030099D01*
X118644329Y-76048593D01*
X118602538Y-76140107D01*
X118594943Y-76147703D01*
X118591758Y-76163714D01*
X118590527Y-76166411D01*
X118590962Y-76167716D01*
X118590376Y-76170664D01*
X118137671Y-76170664D01*
X118134738Y-75513755D01*
X118387622Y-75511812D01*
X118420094Y-75479340D01*
X118420094Y-75433418D01*
X118387622Y-75400946D01*
X118364661Y-75396379D01*
X117770272Y-75400946D01*
X117737800Y-75433418D01*
X117737800Y-75479340D01*
X117335801Y-75479340D01*
X117327955Y-75456131D01*
X117329272Y-75452126D01*
X117321027Y-75435637D01*
X117314750Y-75417067D01*
X117310740Y-75415062D01*
X117308735Y-75411052D01*
X117290689Y-75405036D01*
X117273676Y-75396530D01*
X117269423Y-75397947D01*
X117265170Y-75396530D01*
X117248155Y-75405037D01*
X117230111Y-75411052D01*
X117228106Y-75415061D01*
X117224095Y-75417067D01*
X117212502Y-75437406D01*
X116980636Y-76142961D01*
X116975895Y-76147703D01*
X116975895Y-76157389D01*
X116876241Y-76460632D01*
X116661910Y-76460632D01*
X116662756Y-76456379D01*
X116658189Y-75433418D01*
X116625717Y-75400946D01*
X116602756Y-75396379D01*
X116229749Y-75400596D01*
X116217550Y-75396530D01*
X116201537Y-75400915D01*
X116198843Y-75400946D01*
X116197868Y-75401920D01*
X116194971Y-75402714D01*
X116110825Y-75448565D01*
X116103605Y-75448565D01*
X116084139Y-75461572D01*
X116081408Y-75464593D01*
X116081239Y-75464686D01*
X116081188Y-75464836D01*
X116045490Y-75504338D01*
X116039635Y-75506290D01*
X116025281Y-75524784D01*
X115983490Y-75616298D01*
X115975895Y-75623894D01*
X115972710Y-75639905D01*
X115971479Y-75642602D01*
X115971914Y-75643907D01*
X115971328Y-75646855D01*
X115516284Y-75646855D01*
X115515690Y-75513755D01*
X115768574Y-75511812D01*
X115801046Y-75479340D01*
X115801046Y-75433418D01*
X115768574Y-75400946D01*
X115745613Y-75396379D01*
X115151224Y-75400946D01*
X115118752Y-75433418D01*
X115118752Y-75479340D01*
X115007641Y-75479340D01*
X115007641Y-75201721D01*
X115123514Y-75201721D01*
X115155986Y-75234193D01*
X115178947Y-75238760D01*
X119335242Y-75234193D01*
X119367714Y-75201721D01*
X119367714Y-75155799D01*
X119335242Y-75123327D01*
X119312281Y-75118760D01*
X115155986Y-75123327D01*
X115123514Y-75155799D01*
X115123514Y-75201721D01*
X115007641Y-75201721D01*
X115007641Y-75007649D01*
X119478825Y-75007649D01*
X119478825Y-76627490D01*
G37*
G36*
X115785051Y-74397355D02*
G01*
X115623013Y-74400189D01*
X115621729Y-74399458D01*
X115497295Y-74361587D01*
X115418464Y-74287194D01*
X115418326Y-74286688D01*
X115375459Y-74208019D01*
X115375251Y-74203731D01*
X115328550Y-74032192D01*
X115329423Y-74027807D01*
X115325985Y-73902987D01*
X115327632Y-73899502D01*
X115367239Y-73725776D01*
X115370708Y-73721307D01*
X115407074Y-73641670D01*
X115407087Y-73641662D01*
X115485580Y-73558485D01*
X115602028Y-73516234D01*
X115602756Y-73516379D01*
X115781104Y-73513258D01*
X115785051Y-74397355D01*
G37*
G36*
X118107200Y-74627490D02*
G01*
X115098312Y-74627490D01*
X115098312Y-73884950D01*
X115209423Y-73884950D01*
X115212981Y-74014134D01*
X115210076Y-74018976D01*
X115211214Y-74042359D01*
X115258884Y-74217461D01*
X115257193Y-74222536D01*
X115263376Y-74245116D01*
X115309228Y-74329262D01*
X115309228Y-74336482D01*
X115322234Y-74355947D01*
X115415546Y-74444005D01*
X115420587Y-74454087D01*
X115434837Y-74462210D01*
X115436938Y-74464193D01*
X115438315Y-74464193D01*
X115440925Y-74465681D01*
X115574236Y-74506253D01*
X115579795Y-74511812D01*
X115602756Y-74516379D01*
X115863812Y-74511812D01*
X115896284Y-74479340D01*
X115900851Y-74456379D01*
X115896387Y-73456379D01*
X116257042Y-73456379D01*
X116261441Y-74441888D01*
X116257521Y-74448812D01*
X116261538Y-74463542D01*
X116261609Y-74479340D01*
X116267436Y-74485167D01*
X116269604Y-74493116D01*
X116283093Y-74500824D01*
X116294081Y-74511812D01*
X116302321Y-74511812D01*
X116309475Y-74515900D01*
X116324464Y-74511812D01*
X116340003Y-74511812D01*
X116345830Y-74505984D01*
X116353779Y-74503817D01*
X116369137Y-74486147D01*
X116829438Y-73673298D01*
X116833037Y-74479340D01*
X116865509Y-74511812D01*
X116911431Y-74511812D01*
X116943903Y-74479340D01*
X116948470Y-74456379D01*
X116946557Y-74027807D01*
X117257042Y-74027807D01*
X117261609Y-74384101D01*
X117274615Y-74403566D01*
X117321088Y-74445566D01*
X117325349Y-74454087D01*
X117339345Y-74462065D01*
X117341699Y-74464193D01*
X117343077Y-74464193D01*
X117345687Y-74465681D01*
X117478998Y-74506253D01*
X117484557Y-74511812D01*
X117507518Y-74516379D01*
X117511732Y-74516216D01*
X117511771Y-74516228D01*
X117511799Y-74516213D01*
X117592256Y-74513104D01*
X117598503Y-74516228D01*
X117621730Y-74513300D01*
X117757074Y-74464193D01*
X117768574Y-74464193D01*
X117782237Y-74455063D01*
X117784925Y-74454088D01*
X117785541Y-74452855D01*
X117788040Y-74451186D01*
X117872889Y-74361272D01*
X117880163Y-74358848D01*
X117894517Y-74340354D01*
X117932919Y-74256258D01*
X117936679Y-74254003D01*
X117946679Y-74232835D01*
X117987203Y-74055086D01*
X117991522Y-74050768D01*
X117996089Y-74027807D01*
X117992530Y-73898622D01*
X117995436Y-73893781D01*
X117994298Y-73870398D01*
X117946627Y-73695295D01*
X117948319Y-73690220D01*
X117942135Y-73667641D01*
X117896284Y-73583494D01*
X117896284Y-73576275D01*
X117883277Y-73556810D01*
X117789966Y-73468752D01*
X117784925Y-73458670D01*
X117770674Y-73450547D01*
X117768574Y-73448565D01*
X117767197Y-73448565D01*
X117764586Y-73447077D01*
X117631275Y-73406504D01*
X117625717Y-73400946D01*
X117602756Y-73396379D01*
X117466454Y-73400133D01*
X117455645Y-73396530D01*
X117439810Y-73400866D01*
X117436938Y-73400946D01*
X117435963Y-73401920D01*
X117433066Y-73402714D01*
X117319334Y-73464686D01*
X117304812Y-73508251D01*
X117325349Y-73549325D01*
X117368914Y-73563847D01*
X117391494Y-73557664D01*
X117467651Y-73516165D01*
X117583224Y-73512982D01*
X117583782Y-73513300D01*
X117708217Y-73551171D01*
X117787046Y-73625561D01*
X117787185Y-73626069D01*
X117830052Y-73704738D01*
X117830261Y-73709026D01*
X117876961Y-73880564D01*
X117876089Y-73884950D01*
X117879526Y-74009769D01*
X117877880Y-74013255D01*
X117838272Y-74186980D01*
X117834804Y-74191450D01*
X117798437Y-74271086D01*
X117798425Y-74271095D01*
X117719930Y-74354272D01*
X117603484Y-74396523D01*
X117602756Y-74396379D01*
X117526105Y-74399340D01*
X117401722Y-74361484D01*
X117376757Y-74338922D01*
X117373522Y-74086598D01*
X117530479Y-74083240D01*
X117562951Y-74050768D01*
X117562951Y-74004846D01*
X117530479Y-73972374D01*
X117507518Y-73967807D01*
X117294081Y-73972374D01*
X117261609Y-74004846D01*
X117257042Y-74027807D01*
X116946557Y-74027807D01*
X116944070Y-73470869D01*
X116947991Y-73463946D01*
X116943973Y-73449215D01*
X116943903Y-73433418D01*
X116938076Y-73427591D01*
X116935908Y-73419641D01*
X116922417Y-73411932D01*
X116911431Y-73400946D01*
X116903191Y-73400946D01*
X116896037Y-73396858D01*
X116881048Y-73400946D01*
X116865509Y-73400946D01*
X116859681Y-73406773D01*
X116851733Y-73408941D01*
X116836375Y-73426611D01*
X116376073Y-74239459D01*
X116372475Y-73433418D01*
X116340003Y-73400946D01*
X116294081Y-73400946D01*
X116261609Y-73433418D01*
X116257042Y-73456379D01*
X115896387Y-73456379D01*
X115896284Y-73433418D01*
X115863812Y-73400946D01*
X115840851Y-73396379D01*
X115614622Y-73400336D01*
X115607009Y-73396530D01*
X115583782Y-73399458D01*
X115448440Y-73448565D01*
X115436938Y-73448565D01*
X115423272Y-73457696D01*
X115420587Y-73458671D01*
X115419971Y-73459902D01*
X115417473Y-73461572D01*
X115332622Y-73551484D01*
X115325349Y-73553909D01*
X115310995Y-73572403D01*
X115272592Y-73656498D01*
X115268833Y-73658754D01*
X115258833Y-73679922D01*
X115218308Y-73857670D01*
X115213990Y-73861989D01*
X115209423Y-73884950D01*
X115098312Y-73884950D01*
X115098312Y-73285268D01*
X118107200Y-73285268D01*
X118107200Y-74627490D01*
G37*
G36*
X142854068Y-85627490D02*
G01*
X138135461Y-85627490D01*
X138135461Y-85098387D01*
X138246572Y-85098387D01*
X138279044Y-85130859D01*
X138302005Y-85135426D01*
X139086870Y-85130859D01*
X139119342Y-85098387D01*
X139119342Y-85052465D01*
X139086870Y-85019993D01*
X139063909Y-85015426D01*
X138279044Y-85019993D01*
X138246572Y-85052465D01*
X138246572Y-85098387D01*
X138135461Y-85098387D01*
X138135461Y-84479340D01*
X139341810Y-84479340D01*
X139374282Y-84511812D01*
X139397243Y-84516379D01*
X139623217Y-84514642D01*
X139627524Y-85479340D01*
X139659996Y-85511812D01*
X139705918Y-85511812D01*
X139738390Y-85479340D01*
X139742957Y-85456379D01*
X139742634Y-85384101D01*
X140198953Y-85384101D01*
X140211959Y-85403566D01*
X140258432Y-85445566D01*
X140262693Y-85454087D01*
X140276689Y-85462065D01*
X140279043Y-85464193D01*
X140280421Y-85464193D01*
X140283031Y-85465681D01*
X140416342Y-85506253D01*
X140421901Y-85511812D01*
X140444862Y-85516379D01*
X140449076Y-85516216D01*
X140449115Y-85516228D01*
X140449143Y-85516213D01*
X140529600Y-85513104D01*
X140535847Y-85516228D01*
X140559074Y-85513300D01*
X140694418Y-85464193D01*
X140705918Y-85464193D01*
X140719581Y-85455063D01*
X140722269Y-85454088D01*
X140722885Y-85452855D01*
X140725384Y-85451186D01*
X140731472Y-85444735D01*
X141147907Y-85444735D01*
X141156914Y-85489766D01*
X141195123Y-85515239D01*
X141240154Y-85506232D01*
X141256690Y-85489661D01*
X141540488Y-85060504D01*
X141840046Y-85506232D01*
X141885077Y-85515238D01*
X141923286Y-85489766D01*
X141925371Y-85479340D01*
X142151334Y-85479340D01*
X142183806Y-85511812D01*
X142206767Y-85516379D01*
X142705918Y-85511812D01*
X142738390Y-85479340D01*
X142742957Y-85456379D01*
X142738390Y-84433418D01*
X142705918Y-84400946D01*
X142682957Y-84396379D01*
X142183806Y-84400946D01*
X142151334Y-84433418D01*
X142151334Y-84479340D01*
X142183806Y-84511812D01*
X142206767Y-84516379D01*
X142623207Y-84512568D01*
X142624818Y-84873314D01*
X142326663Y-84877136D01*
X142294191Y-84909608D01*
X142294191Y-84955530D01*
X142326663Y-84988002D01*
X142349624Y-84992569D01*
X142625335Y-84989034D01*
X142627155Y-85396889D01*
X142183806Y-85400946D01*
X142151334Y-85433418D01*
X142151334Y-85479340D01*
X141925371Y-85479340D01*
X141932292Y-85444735D01*
X141923356Y-85423097D01*
X141609516Y-84956119D01*
X141932292Y-84468023D01*
X141923286Y-84422992D01*
X141885077Y-84397520D01*
X141840046Y-84406526D01*
X141823510Y-84423097D01*
X141539711Y-84852253D01*
X141240154Y-84406526D01*
X141195123Y-84397519D01*
X141156914Y-84422992D01*
X141147907Y-84468023D01*
X141156844Y-84489661D01*
X141470682Y-84956637D01*
X141147907Y-85444735D01*
X140731472Y-85444735D01*
X140810233Y-85361272D01*
X140817507Y-85358848D01*
X140831861Y-85340354D01*
X140870263Y-85256258D01*
X140874023Y-85254003D01*
X140884023Y-85232835D01*
X140924547Y-85055086D01*
X140928866Y-85050768D01*
X140933433Y-85027807D01*
X140929874Y-84898622D01*
X140932780Y-84893781D01*
X140931642Y-84870398D01*
X140883971Y-84695295D01*
X140885663Y-84690220D01*
X140879479Y-84667641D01*
X140833628Y-84583494D01*
X140833628Y-84576275D01*
X140820621Y-84556810D01*
X140727310Y-84468752D01*
X140722269Y-84458670D01*
X140708018Y-84450547D01*
X140705918Y-84448565D01*
X140704541Y-84448565D01*
X140701930Y-84447077D01*
X140568619Y-84406504D01*
X140563061Y-84400946D01*
X140540100Y-84396379D01*
X140535885Y-84396541D01*
X140535847Y-84396530D01*
X140535818Y-84396544D01*
X140455361Y-84399653D01*
X140449115Y-84396530D01*
X140425888Y-84399458D01*
X140290546Y-84448565D01*
X140279044Y-84448565D01*
X140265377Y-84457697D01*
X140262693Y-84458671D01*
X140262077Y-84459901D01*
X140259578Y-84461572D01*
X140198953Y-84528656D01*
X140198953Y-84574578D01*
X140231425Y-84607050D01*
X140277347Y-84607050D01*
X140296812Y-84594043D01*
X140329561Y-84557805D01*
X140444134Y-84516234D01*
X140444862Y-84516379D01*
X140521511Y-84513417D01*
X140645561Y-84551171D01*
X140724390Y-84625561D01*
X140724529Y-84626069D01*
X140767396Y-84704738D01*
X140767605Y-84709026D01*
X140814305Y-84880564D01*
X140813433Y-84884950D01*
X140816870Y-85009769D01*
X140815224Y-85013255D01*
X140775616Y-85186980D01*
X140772148Y-85191450D01*
X140735781Y-85271086D01*
X140735769Y-85271095D01*
X140657274Y-85354272D01*
X140540828Y-85396523D01*
X140540100Y-85396379D01*
X140463449Y-85399340D01*
X140339066Y-85361484D01*
X140277348Y-85305707D01*
X140231425Y-85305707D01*
X140198953Y-85338178D01*
X140198953Y-85384101D01*
X139742634Y-85384101D01*
X139738748Y-84513755D01*
X139991632Y-84511812D01*
X140024104Y-84479340D01*
X140024104Y-84433418D01*
X139991632Y-84400946D01*
X139968671Y-84396379D01*
X139374282Y-84400946D01*
X139341810Y-84433418D01*
X139341810Y-84479340D01*
X138135461Y-84479340D01*
X138135461Y-84285268D01*
X142854068Y-84285268D01*
X142854068Y-85627490D01*
G37*
G36*
X142901687Y-83627490D02*
G01*
X139325938Y-83627490D01*
X139325938Y-83098387D01*
X139437049Y-83098387D01*
X139469521Y-83130859D01*
X139492482Y-83135426D01*
X139815988Y-83133543D01*
X139818001Y-83479340D01*
X139850473Y-83511812D01*
X139896395Y-83511812D01*
X139928867Y-83479340D01*
X139933434Y-83456379D01*
X139931551Y-83132871D01*
X140277347Y-83130859D01*
X140309819Y-83098387D01*
X140309819Y-83052465D01*
X140285161Y-83027807D01*
X140622958Y-83027807D01*
X140627525Y-83384101D01*
X140640531Y-83403566D01*
X140687004Y-83445566D01*
X140691265Y-83454087D01*
X140705261Y-83462065D01*
X140707615Y-83464193D01*
X140708993Y-83464193D01*
X140711603Y-83465681D01*
X140844914Y-83506253D01*
X140850473Y-83511812D01*
X140873434Y-83516379D01*
X140877648Y-83516216D01*
X140877687Y-83516228D01*
X140877715Y-83516213D01*
X140958172Y-83513104D01*
X140964419Y-83516228D01*
X140987646Y-83513300D01*
X141122990Y-83464193D01*
X141134490Y-83464193D01*
X141148153Y-83455063D01*
X141150841Y-83454088D01*
X141151457Y-83452855D01*
X141153956Y-83451186D01*
X141238805Y-83361272D01*
X141246079Y-83358848D01*
X141260433Y-83340354D01*
X141298835Y-83256258D01*
X141302595Y-83254003D01*
X141312595Y-83232835D01*
X141353119Y-83055086D01*
X141357438Y-83050768D01*
X141362005Y-83027807D01*
X141358446Y-82898622D01*
X141361352Y-82893781D01*
X141360214Y-82870398D01*
X141312543Y-82695295D01*
X141314235Y-82690220D01*
X141308051Y-82667641D01*
X141262200Y-82583494D01*
X141262200Y-82576275D01*
X141249193Y-82556810D01*
X141155882Y-82468752D01*
X141150841Y-82458670D01*
X141146822Y-82456379D01*
X141670576Y-82456379D01*
X141675143Y-83479340D01*
X141707615Y-83511812D01*
X141753537Y-83511812D01*
X141786009Y-83479340D01*
X141790576Y-83456379D01*
X141789300Y-83170664D01*
X142099148Y-83170664D01*
X142102608Y-83260226D01*
X142099299Y-83270155D01*
X142103598Y-83285857D01*
X142103715Y-83288863D01*
X142104688Y-83289836D01*
X142105482Y-83292735D01*
X142151334Y-83376881D01*
X142151334Y-83384101D01*
X142164340Y-83403566D01*
X142167362Y-83406297D01*
X142167455Y-83406467D01*
X142167605Y-83406517D01*
X142207107Y-83442216D01*
X142209059Y-83448072D01*
X142227553Y-83462426D01*
X142319067Y-83504216D01*
X142326663Y-83511812D01*
X142342673Y-83514996D01*
X142345370Y-83516228D01*
X142346676Y-83515792D01*
X142349624Y-83516379D01*
X142575852Y-83512421D01*
X142583466Y-83516228D01*
X142606693Y-83513300D01*
X142769888Y-83454088D01*
X142790425Y-83413013D01*
X142775903Y-83369448D01*
X142734829Y-83348911D01*
X142711602Y-83351839D01*
X142588447Y-83396523D01*
X142587719Y-83396379D01*
X142370893Y-83400172D01*
X142296821Y-83366347D01*
X142296813Y-83366334D01*
X142259517Y-83332627D01*
X142218841Y-83257980D01*
X142216217Y-83190044D01*
X142249180Y-83117860D01*
X142249193Y-83117852D01*
X142282895Y-83080559D01*
X142359888Y-83038605D01*
X142364176Y-83038397D01*
X142539278Y-82990726D01*
X142544353Y-82992418D01*
X142566933Y-82986235D01*
X142651080Y-82940383D01*
X142658299Y-82940383D01*
X142677764Y-82927376D01*
X142680494Y-82924355D01*
X142680665Y-82924262D01*
X142680715Y-82924109D01*
X142716412Y-82884610D01*
X142722269Y-82882658D01*
X142736623Y-82864164D01*
X142778413Y-82772649D01*
X142786009Y-82765054D01*
X142789193Y-82749043D01*
X142790425Y-82746347D01*
X142789989Y-82745040D01*
X142790576Y-82742093D01*
X142787115Y-82652529D01*
X142790425Y-82642601D01*
X142786125Y-82626901D01*
X142786009Y-82623894D01*
X142785034Y-82622919D01*
X142784241Y-82620022D01*
X142738390Y-82535875D01*
X142738390Y-82528656D01*
X142725383Y-82509190D01*
X142722361Y-82506459D01*
X142722269Y-82506290D01*
X142722118Y-82506239D01*
X142682616Y-82470541D01*
X142680665Y-82464686D01*
X142662171Y-82450332D01*
X142570656Y-82408541D01*
X142563061Y-82400946D01*
X142547049Y-82397761D01*
X142544353Y-82396530D01*
X142543047Y-82396965D01*
X142540100Y-82396379D01*
X142313871Y-82400336D01*
X142306258Y-82396530D01*
X142283031Y-82399458D01*
X142119836Y-82458671D01*
X142099299Y-82499745D01*
X142113821Y-82543310D01*
X142154895Y-82563847D01*
X142178122Y-82560919D01*
X142301277Y-82516234D01*
X142302005Y-82516379D01*
X142518830Y-82512585D01*
X142592903Y-82546411D01*
X142592912Y-82546424D01*
X142630204Y-82580126D01*
X142670882Y-82654777D01*
X142673506Y-82722712D01*
X142640544Y-82794895D01*
X142640530Y-82794905D01*
X142606825Y-82832199D01*
X142529836Y-82874151D01*
X142525548Y-82874360D01*
X142350445Y-82922030D01*
X142345370Y-82920339D01*
X142322791Y-82926523D01*
X142238645Y-82972374D01*
X142231425Y-82972374D01*
X142211959Y-82985381D01*
X142209228Y-82988402D01*
X142209059Y-82988495D01*
X142209008Y-82988645D01*
X142173310Y-83028147D01*
X142167455Y-83030099D01*
X142153101Y-83048593D01*
X142111310Y-83140107D01*
X142103715Y-83147703D01*
X142100530Y-83163714D01*
X142099299Y-83166411D01*
X142099734Y-83167716D01*
X142099148Y-83170664D01*
X141789300Y-83170664D01*
X141786009Y-82433418D01*
X141753537Y-82400946D01*
X141707615Y-82400946D01*
X141675143Y-82433418D01*
X141670576Y-82456379D01*
X141146822Y-82456379D01*
X141136590Y-82450547D01*
X141134490Y-82448565D01*
X141133113Y-82448565D01*
X141130502Y-82447077D01*
X140997191Y-82406504D01*
X140991633Y-82400946D01*
X140968672Y-82396379D01*
X140832370Y-82400133D01*
X140821561Y-82396530D01*
X140805726Y-82400866D01*
X140802854Y-82400946D01*
X140801879Y-82401920D01*
X140798982Y-82402714D01*
X140685250Y-82464686D01*
X140670728Y-82508251D01*
X140691265Y-82549325D01*
X140734830Y-82563847D01*
X140757410Y-82557664D01*
X140833567Y-82516165D01*
X140949140Y-82512982D01*
X140949698Y-82513300D01*
X141074133Y-82551171D01*
X141152962Y-82625561D01*
X141153101Y-82626069D01*
X141195968Y-82704738D01*
X141196177Y-82709026D01*
X141242877Y-82880564D01*
X141242005Y-82884950D01*
X141245442Y-83009769D01*
X141243796Y-83013255D01*
X141204188Y-83186980D01*
X141200720Y-83191450D01*
X141164353Y-83271086D01*
X141164341Y-83271095D01*
X141085846Y-83354272D01*
X140969400Y-83396523D01*
X140968672Y-83396379D01*
X140892021Y-83399340D01*
X140767638Y-83361484D01*
X140742673Y-83338922D01*
X140739438Y-83086598D01*
X140896395Y-83083240D01*
X140928867Y-83050768D01*
X140928867Y-83004846D01*
X140896395Y-82972374D01*
X140873434Y-82967807D01*
X140659997Y-82972374D01*
X140627525Y-83004846D01*
X140622958Y-83027807D01*
X140285161Y-83027807D01*
X140277347Y-83019993D01*
X140254386Y-83015426D01*
X139930879Y-83017308D01*
X139928867Y-82671513D01*
X139896395Y-82639041D01*
X139850473Y-82639041D01*
X139818001Y-82671513D01*
X139813434Y-82694474D01*
X139815316Y-83017980D01*
X139469521Y-83019993D01*
X139437049Y-83052465D01*
X139437049Y-83098387D01*
X139325938Y-83098387D01*
X139325938Y-82285268D01*
X142901687Y-82285268D01*
X142901687Y-83627490D01*
G37*
G36*
X142901687Y-81627490D02*
G01*
X139325938Y-81627490D01*
X139325938Y-81098387D01*
X139437049Y-81098387D01*
X139469521Y-81130859D01*
X139492482Y-81135426D01*
X140277347Y-81130859D01*
X140309819Y-81098387D01*
X140309819Y-81052465D01*
X140285161Y-81027807D01*
X140622958Y-81027807D01*
X140627525Y-81384101D01*
X140640531Y-81403566D01*
X140687004Y-81445566D01*
X140691265Y-81454087D01*
X140705261Y-81462065D01*
X140707615Y-81464193D01*
X140708993Y-81464193D01*
X140711603Y-81465681D01*
X140844914Y-81506253D01*
X140850473Y-81511812D01*
X140873434Y-81516379D01*
X140877648Y-81516216D01*
X140877687Y-81516228D01*
X140877715Y-81516213D01*
X140958172Y-81513104D01*
X140964419Y-81516228D01*
X140987646Y-81513300D01*
X141122990Y-81464193D01*
X141134490Y-81464193D01*
X141148153Y-81455063D01*
X141150841Y-81454088D01*
X141151457Y-81452855D01*
X141153956Y-81451186D01*
X141238805Y-81361272D01*
X141246079Y-81358848D01*
X141260433Y-81340354D01*
X141298835Y-81256258D01*
X141302595Y-81254003D01*
X141312595Y-81232835D01*
X141353119Y-81055086D01*
X141357438Y-81050768D01*
X141362005Y-81027807D01*
X141358446Y-80898622D01*
X141361352Y-80893781D01*
X141360214Y-80870398D01*
X141312543Y-80695295D01*
X141314235Y-80690220D01*
X141308051Y-80667641D01*
X141262200Y-80583494D01*
X141262200Y-80576275D01*
X141249193Y-80556810D01*
X141155882Y-80468752D01*
X141150841Y-80458670D01*
X141146822Y-80456379D01*
X141670576Y-80456379D01*
X141675143Y-81479340D01*
X141707615Y-81511812D01*
X141753537Y-81511812D01*
X141786009Y-81479340D01*
X141790576Y-81456379D01*
X141789300Y-81170664D01*
X142099148Y-81170664D01*
X142102608Y-81260226D01*
X142099299Y-81270155D01*
X142103598Y-81285857D01*
X142103715Y-81288863D01*
X142104688Y-81289836D01*
X142105482Y-81292735D01*
X142151334Y-81376881D01*
X142151334Y-81384101D01*
X142164340Y-81403566D01*
X142167362Y-81406297D01*
X142167455Y-81406467D01*
X142167605Y-81406517D01*
X142207107Y-81442216D01*
X142209059Y-81448072D01*
X142227553Y-81462426D01*
X142319067Y-81504216D01*
X142326663Y-81511812D01*
X142342673Y-81514996D01*
X142345370Y-81516228D01*
X142346676Y-81515792D01*
X142349624Y-81516379D01*
X142575852Y-81512421D01*
X142583466Y-81516228D01*
X142606693Y-81513300D01*
X142769888Y-81454088D01*
X142790425Y-81413013D01*
X142775903Y-81369448D01*
X142734829Y-81348911D01*
X142711602Y-81351839D01*
X142588447Y-81396523D01*
X142587719Y-81396379D01*
X142370893Y-81400172D01*
X142296821Y-81366347D01*
X142296813Y-81366334D01*
X142259517Y-81332627D01*
X142218841Y-81257980D01*
X142216217Y-81190044D01*
X142249180Y-81117860D01*
X142249193Y-81117852D01*
X142282895Y-81080559D01*
X142359888Y-81038605D01*
X142364176Y-81038397D01*
X142539278Y-80990726D01*
X142544353Y-80992418D01*
X142566933Y-80986235D01*
X142651080Y-80940383D01*
X142658299Y-80940383D01*
X142677764Y-80927376D01*
X142680494Y-80924355D01*
X142680665Y-80924262D01*
X142680715Y-80924109D01*
X142716412Y-80884610D01*
X142722269Y-80882658D01*
X142736623Y-80864164D01*
X142778413Y-80772649D01*
X142786009Y-80765054D01*
X142789193Y-80749043D01*
X142790425Y-80746347D01*
X142789989Y-80745040D01*
X142790576Y-80742093D01*
X142787115Y-80652529D01*
X142790425Y-80642601D01*
X142786125Y-80626901D01*
X142786009Y-80623894D01*
X142785034Y-80622919D01*
X142784241Y-80620022D01*
X142738390Y-80535875D01*
X142738390Y-80528656D01*
X142725383Y-80509190D01*
X142722361Y-80506459D01*
X142722269Y-80506290D01*
X142722118Y-80506239D01*
X142682616Y-80470541D01*
X142680665Y-80464686D01*
X142662171Y-80450332D01*
X142570656Y-80408541D01*
X142563061Y-80400946D01*
X142547049Y-80397761D01*
X142544353Y-80396530D01*
X142543047Y-80396965D01*
X142540100Y-80396379D01*
X142313871Y-80400336D01*
X142306258Y-80396530D01*
X142283031Y-80399458D01*
X142119836Y-80458671D01*
X142099299Y-80499745D01*
X142113821Y-80543310D01*
X142154895Y-80563847D01*
X142178122Y-80560919D01*
X142301277Y-80516234D01*
X142302005Y-80516379D01*
X142518830Y-80512585D01*
X142592903Y-80546411D01*
X142592912Y-80546424D01*
X142630204Y-80580126D01*
X142670882Y-80654777D01*
X142673506Y-80722712D01*
X142640544Y-80794895D01*
X142640530Y-80794905D01*
X142606825Y-80832199D01*
X142529836Y-80874151D01*
X142525548Y-80874360D01*
X142350445Y-80922030D01*
X142345370Y-80920339D01*
X142322791Y-80926523D01*
X142238645Y-80972374D01*
X142231425Y-80972374D01*
X142211959Y-80985381D01*
X142209228Y-80988402D01*
X142209059Y-80988495D01*
X142209008Y-80988645D01*
X142173310Y-81028147D01*
X142167455Y-81030099D01*
X142153101Y-81048593D01*
X142111310Y-81140107D01*
X142103715Y-81147703D01*
X142100530Y-81163714D01*
X142099299Y-81166411D01*
X142099734Y-81167716D01*
X142099148Y-81170664D01*
X141789300Y-81170664D01*
X141786009Y-80433418D01*
X141753537Y-80400946D01*
X141707615Y-80400946D01*
X141675143Y-80433418D01*
X141670576Y-80456379D01*
X141146822Y-80456379D01*
X141136590Y-80450547D01*
X141134490Y-80448565D01*
X141133113Y-80448565D01*
X141130502Y-80447077D01*
X140997191Y-80406504D01*
X140991633Y-80400946D01*
X140968672Y-80396379D01*
X140832370Y-80400133D01*
X140821561Y-80396530D01*
X140805726Y-80400866D01*
X140802854Y-80400946D01*
X140801879Y-80401920D01*
X140798982Y-80402714D01*
X140685250Y-80464686D01*
X140670728Y-80508251D01*
X140691265Y-80549325D01*
X140734830Y-80563847D01*
X140757410Y-80557664D01*
X140833567Y-80516165D01*
X140949140Y-80512982D01*
X140949698Y-80513300D01*
X141074133Y-80551171D01*
X141152962Y-80625561D01*
X141153101Y-80626069D01*
X141195968Y-80704738D01*
X141196177Y-80709026D01*
X141242877Y-80880564D01*
X141242005Y-80884950D01*
X141245442Y-81009769D01*
X141243796Y-81013255D01*
X141204188Y-81186980D01*
X141200720Y-81191450D01*
X141164353Y-81271086D01*
X141164341Y-81271095D01*
X141085846Y-81354272D01*
X140969400Y-81396523D01*
X140968672Y-81396379D01*
X140892021Y-81399340D01*
X140767638Y-81361484D01*
X140742673Y-81338922D01*
X140739438Y-81086598D01*
X140896395Y-81083240D01*
X140928867Y-81050768D01*
X140928867Y-81004846D01*
X140896395Y-80972374D01*
X140873434Y-80967807D01*
X140659997Y-80972374D01*
X140627525Y-81004846D01*
X140622958Y-81027807D01*
X140285161Y-81027807D01*
X140277347Y-81019993D01*
X140254386Y-81015426D01*
X139469521Y-81019993D01*
X139437049Y-81052465D01*
X139437049Y-81098387D01*
X139325938Y-81098387D01*
X139325938Y-80285268D01*
X142901687Y-80285268D01*
X142901687Y-81627490D01*
G37*
G36*
X142854068Y-79627490D02*
G01*
X138135461Y-79627490D01*
X138135461Y-79098387D01*
X138246572Y-79098387D01*
X138279044Y-79130859D01*
X138302005Y-79135426D01*
X138625511Y-79133543D01*
X138627524Y-79479340D01*
X138659996Y-79511812D01*
X138705918Y-79511812D01*
X138738390Y-79479340D01*
X138742957Y-79456379D01*
X138741074Y-79132871D01*
X139086870Y-79130859D01*
X139119342Y-79098387D01*
X139119342Y-79052465D01*
X139086870Y-79019993D01*
X139063909Y-79015426D01*
X138740402Y-79017308D01*
X138738390Y-78671513D01*
X138705918Y-78639041D01*
X138659996Y-78639041D01*
X138627524Y-78671513D01*
X138622957Y-78694474D01*
X138624839Y-79017980D01*
X138279044Y-79019993D01*
X138246572Y-79052465D01*
X138246572Y-79098387D01*
X138135461Y-79098387D01*
X138135461Y-78479340D01*
X139341810Y-78479340D01*
X139374282Y-78511812D01*
X139397243Y-78516379D01*
X139623217Y-78514642D01*
X139627524Y-79479340D01*
X139659996Y-79511812D01*
X139705918Y-79511812D01*
X139738390Y-79479340D01*
X139742957Y-79456379D01*
X139742634Y-79384101D01*
X140198953Y-79384101D01*
X140211959Y-79403566D01*
X140258432Y-79445566D01*
X140262693Y-79454087D01*
X140276689Y-79462065D01*
X140279043Y-79464193D01*
X140280421Y-79464193D01*
X140283031Y-79465681D01*
X140416342Y-79506253D01*
X140421901Y-79511812D01*
X140444862Y-79516379D01*
X140449076Y-79516216D01*
X140449115Y-79516228D01*
X140449143Y-79516213D01*
X140529600Y-79513104D01*
X140535847Y-79516228D01*
X140559074Y-79513300D01*
X140694418Y-79464193D01*
X140705918Y-79464193D01*
X140719581Y-79455063D01*
X140722269Y-79454088D01*
X140722885Y-79452855D01*
X140725384Y-79451186D01*
X140731472Y-79444735D01*
X141147907Y-79444735D01*
X141156914Y-79489766D01*
X141195123Y-79515239D01*
X141240154Y-79506232D01*
X141256690Y-79489661D01*
X141540488Y-79060504D01*
X141840046Y-79506232D01*
X141885077Y-79515238D01*
X141923286Y-79489766D01*
X141925371Y-79479340D01*
X142151334Y-79479340D01*
X142183806Y-79511812D01*
X142206767Y-79516379D01*
X142705918Y-79511812D01*
X142738390Y-79479340D01*
X142742957Y-79456379D01*
X142738390Y-78433418D01*
X142705918Y-78400946D01*
X142682957Y-78396379D01*
X142183806Y-78400946D01*
X142151334Y-78433418D01*
X142151334Y-78479340D01*
X142183806Y-78511812D01*
X142206767Y-78516379D01*
X142623207Y-78512568D01*
X142624818Y-78873314D01*
X142326663Y-78877136D01*
X142294191Y-78909608D01*
X142294191Y-78955530D01*
X142326663Y-78988002D01*
X142349624Y-78992569D01*
X142625335Y-78989034D01*
X142627155Y-79396889D01*
X142183806Y-79400946D01*
X142151334Y-79433418D01*
X142151334Y-79479340D01*
X141925371Y-79479340D01*
X141932292Y-79444735D01*
X141923356Y-79423097D01*
X141609516Y-78956119D01*
X141932292Y-78468023D01*
X141923286Y-78422992D01*
X141885077Y-78397520D01*
X141840046Y-78406526D01*
X141823510Y-78423097D01*
X141539711Y-78852253D01*
X141240154Y-78406526D01*
X141195123Y-78397519D01*
X141156914Y-78422992D01*
X141147907Y-78468023D01*
X141156844Y-78489661D01*
X141470682Y-78956637D01*
X141147907Y-79444735D01*
X140731472Y-79444735D01*
X140810233Y-79361272D01*
X140817507Y-79358848D01*
X140831861Y-79340354D01*
X140870263Y-79256258D01*
X140874023Y-79254003D01*
X140884023Y-79232835D01*
X140924547Y-79055086D01*
X140928866Y-79050768D01*
X140933433Y-79027807D01*
X140929874Y-78898622D01*
X140932780Y-78893781D01*
X140931642Y-78870398D01*
X140883971Y-78695295D01*
X140885663Y-78690220D01*
X140879479Y-78667641D01*
X140833628Y-78583494D01*
X140833628Y-78576275D01*
X140820621Y-78556810D01*
X140727310Y-78468752D01*
X140722269Y-78458670D01*
X140708018Y-78450547D01*
X140705918Y-78448565D01*
X140704541Y-78448565D01*
X140701930Y-78447077D01*
X140568619Y-78406504D01*
X140563061Y-78400946D01*
X140540100Y-78396379D01*
X140535885Y-78396541D01*
X140535847Y-78396530D01*
X140535818Y-78396544D01*
X140455361Y-78399653D01*
X140449115Y-78396530D01*
X140425888Y-78399458D01*
X140290546Y-78448565D01*
X140279044Y-78448565D01*
X140265377Y-78457697D01*
X140262693Y-78458671D01*
X140262077Y-78459901D01*
X140259578Y-78461572D01*
X140198953Y-78528656D01*
X140198953Y-78574578D01*
X140231425Y-78607050D01*
X140277347Y-78607050D01*
X140296812Y-78594043D01*
X140329561Y-78557805D01*
X140444134Y-78516234D01*
X140444862Y-78516379D01*
X140521511Y-78513417D01*
X140645561Y-78551171D01*
X140724390Y-78625561D01*
X140724529Y-78626069D01*
X140767396Y-78704738D01*
X140767605Y-78709026D01*
X140814305Y-78880564D01*
X140813433Y-78884950D01*
X140816870Y-79009769D01*
X140815224Y-79013255D01*
X140775616Y-79186980D01*
X140772148Y-79191450D01*
X140735781Y-79271086D01*
X140735769Y-79271095D01*
X140657274Y-79354272D01*
X140540828Y-79396523D01*
X140540100Y-79396379D01*
X140463449Y-79399340D01*
X140339066Y-79361484D01*
X140277348Y-79305707D01*
X140231425Y-79305707D01*
X140198953Y-79338178D01*
X140198953Y-79384101D01*
X139742634Y-79384101D01*
X139738748Y-78513755D01*
X139991632Y-78511812D01*
X140024104Y-78479340D01*
X140024104Y-78433418D01*
X139991632Y-78400946D01*
X139968671Y-78396379D01*
X139374282Y-78400946D01*
X139341810Y-78433418D01*
X139341810Y-78479340D01*
X138135461Y-78479340D01*
X138135461Y-78285268D01*
X142854068Y-78285268D01*
X142854068Y-79627490D01*
G37*
X134706767Y-78291379D02*
X135182957Y-78291379D01*
X135182957Y-78291379D02*
X135182957Y-77291379D01*
X134182957Y-77291379D02*
X133992481Y-77291379D01*
X133992481Y-77291379D02*
X133897243Y-77338998D01*
X133897243Y-77338998D02*
X133802005Y-77434236D01*
X133802005Y-77434236D02*
X133754386Y-77624712D01*
X133754386Y-77624712D02*
X133754386Y-77958045D01*
X133754386Y-77958045D02*
X133802005Y-78148521D01*
X133802005Y-78148521D02*
X133897243Y-78243760D01*
X133897243Y-78243760D02*
X133992481Y-78291379D01*
X133992481Y-78291379D02*
X134182957Y-78291379D01*
X134182957Y-78291379D02*
X134278195Y-78243760D01*
X134278195Y-78243760D02*
X134373433Y-78148521D01*
X134373433Y-78148521D02*
X134421052Y-77958045D01*
X134421052Y-77958045D02*
X134421052Y-77624712D01*
X134421052Y-77624712D02*
X134373433Y-77434236D01*
X134373433Y-77434236D02*
X134278195Y-77338998D01*
X134278195Y-77338998D02*
X134182957Y-77291379D01*
X133373433Y-78005664D02*
X132897243Y-78005664D01*
X133468671Y-78291379D02*
X133135338Y-77291379D01*
X133135338Y-77291379D02*
X132802005Y-78291379D01*
X132468671Y-78291379D02*
X132468671Y-77291379D01*
X132468671Y-77291379D02*
X132230576Y-77291379D01*
X132230576Y-77291379D02*
X132087719Y-77338998D01*
X132087719Y-77338998D02*
X131992481Y-77434236D01*
X131992481Y-77434236D02*
X131944862Y-77529474D01*
X131944862Y-77529474D02*
X131897243Y-77719950D01*
X131897243Y-77719950D02*
X131897243Y-77862807D01*
X131897243Y-77862807D02*
X131944862Y-78053283D01*
X131944862Y-78053283D02*
X131992481Y-78148521D01*
X131992481Y-78148521D02*
X132087719Y-78243760D01*
X132087719Y-78243760D02*
X132230576Y-78291379D01*
X132230576Y-78291379D02*
X132468671Y-78291379D01*
X130135338Y-78196140D02*
X130182957Y-78243760D01*
X130182957Y-78243760D02*
X130325814Y-78291379D01*
X130325814Y-78291379D02*
X130421052Y-78291379D01*
X130421052Y-78291379D02*
X130563909Y-78243760D01*
X130563909Y-78243760D02*
X130659147Y-78148521D01*
X130659147Y-78148521D02*
X130706766Y-78053283D01*
X130706766Y-78053283D02*
X130754385Y-77862807D01*
X130754385Y-77862807D02*
X130754385Y-77719950D01*
X130754385Y-77719950D02*
X130706766Y-77529474D01*
X130706766Y-77529474D02*
X130659147Y-77434236D01*
X130659147Y-77434236D02*
X130563909Y-77338998D01*
X130563909Y-77338998D02*
X130421052Y-77291379D01*
X130421052Y-77291379D02*
X130325814Y-77291379D01*
X130325814Y-77291379D02*
X130182957Y-77338998D01*
X130182957Y-77338998D02*
X130135338Y-77386617D01*
X129706766Y-77767569D02*
X129373433Y-77767569D01*
X129230576Y-78291379D02*
X129706766Y-78291379D01*
X129706766Y-78291379D02*
X129706766Y-77291379D01*
X129706766Y-77291379D02*
X129230576Y-77291379D01*
X128325814Y-78291379D02*
X128802004Y-78291379D01*
X128802004Y-78291379D02*
X128802004Y-77291379D01*
X127516290Y-78291379D02*
X127992480Y-78291379D01*
X127992480Y-78291379D02*
X127992480Y-77291379D01*
X135230576Y-79615608D02*
X134754386Y-79615608D01*
X135325814Y-79901323D02*
X134992481Y-78901323D01*
X134992481Y-78901323D02*
X134659148Y-79901323D01*
X134325814Y-79901323D02*
X134325814Y-78901323D01*
X134325814Y-78901323D02*
X134087719Y-78901323D01*
X134087719Y-78901323D02*
X133944862Y-78948942D01*
X133944862Y-78948942D02*
X133849624Y-79044180D01*
X133849624Y-79044180D02*
X133802005Y-79139418D01*
X133802005Y-79139418D02*
X133754386Y-79329894D01*
X133754386Y-79329894D02*
X133754386Y-79472751D01*
X133754386Y-79472751D02*
X133802005Y-79663227D01*
X133802005Y-79663227D02*
X133849624Y-79758465D01*
X133849624Y-79758465D02*
X133944862Y-79853704D01*
X133944862Y-79853704D02*
X134087719Y-79901323D01*
X134087719Y-79901323D02*
X134325814Y-79901323D01*
X132754386Y-79806084D02*
X132802005Y-79853704D01*
X132802005Y-79853704D02*
X132944862Y-79901323D01*
X132944862Y-79901323D02*
X133040100Y-79901323D01*
X133040100Y-79901323D02*
X133182957Y-79853704D01*
X133182957Y-79853704D02*
X133278195Y-79758465D01*
X133278195Y-79758465D02*
X133325814Y-79663227D01*
X133325814Y-79663227D02*
X133373433Y-79472751D01*
X133373433Y-79472751D02*
X133373433Y-79329894D01*
X133373433Y-79329894D02*
X133325814Y-79139418D01*
X133325814Y-79139418D02*
X133278195Y-79044180D01*
X133278195Y-79044180D02*
X133182957Y-78948942D01*
X133182957Y-78948942D02*
X133040100Y-78901323D01*
X133040100Y-78901323D02*
X132944862Y-78901323D01*
X132944862Y-78901323D02*
X132802005Y-78948942D01*
X132802005Y-78948942D02*
X132754386Y-78996561D01*
X132325814Y-79806084D02*
X132278195Y-79853704D01*
X132278195Y-79853704D02*
X132325814Y-79901323D01*
X132325814Y-79901323D02*
X132373433Y-79853704D01*
X132373433Y-79853704D02*
X132325814Y-79806084D01*
X132325814Y-79806084D02*
X132325814Y-79901323D01*
X132325814Y-79282275D02*
X132278195Y-79329894D01*
X132278195Y-79329894D02*
X132325814Y-79377513D01*
X132325814Y-79377513D02*
X132373433Y-79329894D01*
X132373433Y-79329894D02*
X132325814Y-79282275D01*
X132325814Y-79282275D02*
X132325814Y-79377513D01*
X131135338Y-79615608D02*
X130659148Y-79615608D01*
X131230576Y-79901323D02*
X130897243Y-78901323D01*
X130897243Y-78901323D02*
X130563910Y-79901323D01*
X130230576Y-79901323D02*
X130230576Y-78901323D01*
X130230576Y-78901323D02*
X129992481Y-78901323D01*
X129992481Y-78901323D02*
X129849624Y-78948942D01*
X129849624Y-78948942D02*
X129754386Y-79044180D01*
X129754386Y-79044180D02*
X129706767Y-79139418D01*
X129706767Y-79139418D02*
X129659148Y-79329894D01*
X129659148Y-79329894D02*
X129659148Y-79472751D01*
X129659148Y-79472751D02*
X129706767Y-79663227D01*
X129706767Y-79663227D02*
X129754386Y-79758465D01*
X129754386Y-79758465D02*
X129849624Y-79853704D01*
X129849624Y-79853704D02*
X129992481Y-79901323D01*
X129992481Y-79901323D02*
X130230576Y-79901323D01*
X129278195Y-79853704D02*
X129135338Y-79901323D01*
X129135338Y-79901323D02*
X128897243Y-79901323D01*
X128897243Y-79901323D02*
X128802005Y-79853704D01*
X128802005Y-79853704D02*
X128754386Y-79806084D01*
X128754386Y-79806084D02*
X128706767Y-79710846D01*
X128706767Y-79710846D02*
X128706767Y-79615608D01*
X128706767Y-79615608D02*
X128754386Y-79520370D01*
X128754386Y-79520370D02*
X128802005Y-79472751D01*
X128802005Y-79472751D02*
X128897243Y-79425132D01*
X128897243Y-79425132D02*
X129087719Y-79377513D01*
X129087719Y-79377513D02*
X129182957Y-79329894D01*
X129182957Y-79329894D02*
X129230576Y-79282275D01*
X129230576Y-79282275D02*
X129278195Y-79187037D01*
X129278195Y-79187037D02*
X129278195Y-79091799D01*
X129278195Y-79091799D02*
X129230576Y-78996561D01*
X129230576Y-78996561D02*
X129182957Y-78948942D01*
X129182957Y-78948942D02*
X129087719Y-78901323D01*
X129087719Y-78901323D02*
X128849624Y-78901323D01*
X128849624Y-78901323D02*
X128706767Y-78948942D01*
X127754386Y-79901323D02*
X128325814Y-79901323D01*
X128040100Y-79901323D02*
X128040100Y-78901323D01*
X128040100Y-78901323D02*
X128135338Y-79044180D01*
X128135338Y-79044180D02*
X128230576Y-79139418D01*
X128230576Y-79139418D02*
X128325814Y-79187037D01*
X127373433Y-78996561D02*
X127325814Y-78948942D01*
X127325814Y-78948942D02*
X127230576Y-78901323D01*
X127230576Y-78901323D02*
X126992481Y-78901323D01*
X126992481Y-78901323D02*
X126897243Y-78948942D01*
X126897243Y-78948942D02*
X126849624Y-78996561D01*
X126849624Y-78996561D02*
X126802005Y-79091799D01*
X126802005Y-79091799D02*
X126802005Y-79187037D01*
X126802005Y-79187037D02*
X126849624Y-79329894D01*
X126849624Y-79329894D02*
X127421052Y-79901323D01*
X127421052Y-79901323D02*
X126802005Y-79901323D01*
X125944862Y-78901323D02*
X126135338Y-78901323D01*
X126135338Y-78901323D02*
X126230576Y-78948942D01*
X126230576Y-78948942D02*
X126278195Y-78996561D01*
X126278195Y-78996561D02*
X126373433Y-79139418D01*
X126373433Y-79139418D02*
X126421052Y-79329894D01*
X126421052Y-79329894D02*
X126421052Y-79710846D01*
X126421052Y-79710846D02*
X126373433Y-79806084D01*
X126373433Y-79806084D02*
X126325814Y-79853704D01*
X126325814Y-79853704D02*
X126230576Y-79901323D01*
X126230576Y-79901323D02*
X126040100Y-79901323D01*
X126040100Y-79901323D02*
X125944862Y-79853704D01*
X125944862Y-79853704D02*
X125897243Y-79806084D01*
X125897243Y-79806084D02*
X125849624Y-79710846D01*
X125849624Y-79710846D02*
X125849624Y-79472751D01*
X125849624Y-79472751D02*
X125897243Y-79377513D01*
X125897243Y-79377513D02*
X125944862Y-79329894D01*
X125944862Y-79329894D02*
X126040100Y-79282275D01*
X126040100Y-79282275D02*
X126230576Y-79282275D01*
X126230576Y-79282275D02*
X126325814Y-79329894D01*
X126325814Y-79329894D02*
X126373433Y-79377513D01*
X126373433Y-79377513D02*
X126421052Y-79472751D01*
X125230576Y-78901323D02*
X125135338Y-78901323D01*
X125135338Y-78901323D02*
X125040100Y-78948942D01*
X125040100Y-78948942D02*
X124992481Y-78996561D01*
X124992481Y-78996561D02*
X124944862Y-79091799D01*
X124944862Y-79091799D02*
X124897243Y-79282275D01*
X124897243Y-79282275D02*
X124897243Y-79520370D01*
X124897243Y-79520370D02*
X124944862Y-79710846D01*
X124944862Y-79710846D02*
X124992481Y-79806084D01*
X124992481Y-79806084D02*
X125040100Y-79853704D01*
X125040100Y-79853704D02*
X125135338Y-79901323D01*
X125135338Y-79901323D02*
X125230576Y-79901323D01*
X125230576Y-79901323D02*
X125325814Y-79853704D01*
X125325814Y-79853704D02*
X125373433Y-79806084D01*
X125373433Y-79806084D02*
X125421052Y-79710846D01*
X125421052Y-79710846D02*
X125468671Y-79520370D01*
X125468671Y-79520370D02*
X125468671Y-79282275D01*
X125468671Y-79282275D02*
X125421052Y-79091799D01*
X125421052Y-79091799D02*
X125373433Y-78996561D01*
X125373433Y-78996561D02*
X125325814Y-78948942D01*
X125325814Y-78948942D02*
X125230576Y-78901323D01*
X134849624Y-80987457D02*
X134706767Y-81035076D01*
X134706767Y-81035076D02*
X134659148Y-81082695D01*
X134659148Y-81082695D02*
X134611529Y-81177933D01*
X134611529Y-81177933D02*
X134611529Y-81320790D01*
X134611529Y-81320790D02*
X134659148Y-81416028D01*
X134659148Y-81416028D02*
X134706767Y-81463648D01*
X134706767Y-81463648D02*
X134802005Y-81511267D01*
X134802005Y-81511267D02*
X135182957Y-81511267D01*
X135182957Y-81511267D02*
X135182957Y-80511267D01*
X135182957Y-80511267D02*
X134849624Y-80511267D01*
X134849624Y-80511267D02*
X134754386Y-80558886D01*
X134754386Y-80558886D02*
X134706767Y-80606505D01*
X134706767Y-80606505D02*
X134659148Y-80701743D01*
X134659148Y-80701743D02*
X134659148Y-80796981D01*
X134659148Y-80796981D02*
X134706767Y-80892219D01*
X134706767Y-80892219D02*
X134754386Y-80939838D01*
X134754386Y-80939838D02*
X134849624Y-80987457D01*
X134849624Y-80987457D02*
X135182957Y-80987457D01*
X133992481Y-80511267D02*
X133802005Y-80511267D01*
X133802005Y-80511267D02*
X133706767Y-80558886D01*
X133706767Y-80558886D02*
X133611529Y-80654124D01*
X133611529Y-80654124D02*
X133563910Y-80844600D01*
X133563910Y-80844600D02*
X133563910Y-81177933D01*
X133563910Y-81177933D02*
X133611529Y-81368409D01*
X133611529Y-81368409D02*
X133706767Y-81463648D01*
X133706767Y-81463648D02*
X133802005Y-81511267D01*
X133802005Y-81511267D02*
X133992481Y-81511267D01*
X133992481Y-81511267D02*
X134087719Y-81463648D01*
X134087719Y-81463648D02*
X134182957Y-81368409D01*
X134182957Y-81368409D02*
X134230576Y-81177933D01*
X134230576Y-81177933D02*
X134230576Y-80844600D01*
X134230576Y-80844600D02*
X134182957Y-80654124D01*
X134182957Y-80654124D02*
X134087719Y-80558886D01*
X134087719Y-80558886D02*
X133992481Y-80511267D01*
X132944862Y-80511267D02*
X132754386Y-80511267D01*
X132754386Y-80511267D02*
X132659148Y-80558886D01*
X132659148Y-80558886D02*
X132563910Y-80654124D01*
X132563910Y-80654124D02*
X132516291Y-80844600D01*
X132516291Y-80844600D02*
X132516291Y-81177933D01*
X132516291Y-81177933D02*
X132563910Y-81368409D01*
X132563910Y-81368409D02*
X132659148Y-81463648D01*
X132659148Y-81463648D02*
X132754386Y-81511267D01*
X132754386Y-81511267D02*
X132944862Y-81511267D01*
X132944862Y-81511267D02*
X133040100Y-81463648D01*
X133040100Y-81463648D02*
X133135338Y-81368409D01*
X133135338Y-81368409D02*
X133182957Y-81177933D01*
X133182957Y-81177933D02*
X133182957Y-80844600D01*
X133182957Y-80844600D02*
X133135338Y-80654124D01*
X133135338Y-80654124D02*
X133040100Y-80558886D01*
X133040100Y-80558886D02*
X132944862Y-80511267D01*
X132135338Y-81463648D02*
X131992481Y-81511267D01*
X131992481Y-81511267D02*
X131754386Y-81511267D01*
X131754386Y-81511267D02*
X131659148Y-81463648D01*
X131659148Y-81463648D02*
X131611529Y-81416028D01*
X131611529Y-81416028D02*
X131563910Y-81320790D01*
X131563910Y-81320790D02*
X131563910Y-81225552D01*
X131563910Y-81225552D02*
X131611529Y-81130314D01*
X131611529Y-81130314D02*
X131659148Y-81082695D01*
X131659148Y-81082695D02*
X131754386Y-81035076D01*
X131754386Y-81035076D02*
X131944862Y-80987457D01*
X131944862Y-80987457D02*
X132040100Y-80939838D01*
X132040100Y-80939838D02*
X132087719Y-80892219D01*
X132087719Y-80892219D02*
X132135338Y-80796981D01*
X132135338Y-80796981D02*
X132135338Y-80701743D01*
X132135338Y-80701743D02*
X132087719Y-80606505D01*
X132087719Y-80606505D02*
X132040100Y-80558886D01*
X132040100Y-80558886D02*
X131944862Y-80511267D01*
X131944862Y-80511267D02*
X131706767Y-80511267D01*
X131706767Y-80511267D02*
X131563910Y-80558886D01*
X131278195Y-80511267D02*
X130706767Y-80511267D01*
X130992481Y-81511267D02*
X130992481Y-80511267D01*
X130373433Y-81416028D02*
X130325814Y-81463648D01*
X130325814Y-81463648D02*
X130373433Y-81511267D01*
X130373433Y-81511267D02*
X130421052Y-81463648D01*
X130421052Y-81463648D02*
X130373433Y-81416028D01*
X130373433Y-81416028D02*
X130373433Y-81511267D01*
X130373433Y-80892219D02*
X130325814Y-80939838D01*
X130325814Y-80939838D02*
X130373433Y-80987457D01*
X130373433Y-80987457D02*
X130421052Y-80939838D01*
X130421052Y-80939838D02*
X130373433Y-80892219D01*
X130373433Y-80892219D02*
X130373433Y-80987457D01*
X129278195Y-80511267D02*
X128706767Y-80511267D01*
X128992481Y-81511267D02*
X128992481Y-80511267D01*
X128373433Y-81511267D02*
X128373433Y-80511267D01*
X128373433Y-80511267D02*
X127992481Y-80511267D01*
X127992481Y-80511267D02*
X127897243Y-80558886D01*
X127897243Y-80558886D02*
X127849624Y-80606505D01*
X127849624Y-80606505D02*
X127802005Y-80701743D01*
X127802005Y-80701743D02*
X127802005Y-80844600D01*
X127802005Y-80844600D02*
X127849624Y-80939838D01*
X127849624Y-80939838D02*
X127897243Y-80987457D01*
X127897243Y-80987457D02*
X127992481Y-81035076D01*
X127992481Y-81035076D02*
X128373433Y-81035076D01*
X127421052Y-81463648D02*
X127278195Y-81511267D01*
X127278195Y-81511267D02*
X127040100Y-81511267D01*
X127040100Y-81511267D02*
X126944862Y-81463648D01*
X126944862Y-81463648D02*
X126897243Y-81416028D01*
X126897243Y-81416028D02*
X126849624Y-81320790D01*
X126849624Y-81320790D02*
X126849624Y-81225552D01*
X126849624Y-81225552D02*
X126897243Y-81130314D01*
X126897243Y-81130314D02*
X126944862Y-81082695D01*
X126944862Y-81082695D02*
X127040100Y-81035076D01*
X127040100Y-81035076D02*
X127230576Y-80987457D01*
X127230576Y-80987457D02*
X127325814Y-80939838D01*
X127325814Y-80939838D02*
X127373433Y-80892219D01*
X127373433Y-80892219D02*
X127421052Y-80796981D01*
X127421052Y-80796981D02*
X127421052Y-80701743D01*
X127421052Y-80701743D02*
X127373433Y-80606505D01*
X127373433Y-80606505D02*
X127325814Y-80558886D01*
X127325814Y-80558886D02*
X127230576Y-80511267D01*
X127230576Y-80511267D02*
X126992481Y-80511267D01*
X126992481Y-80511267D02*
X126849624Y-80558886D01*
X125992481Y-80511267D02*
X126182957Y-80511267D01*
X126182957Y-80511267D02*
X126278195Y-80558886D01*
X126278195Y-80558886D02*
X126325814Y-80606505D01*
X126325814Y-80606505D02*
X126421052Y-80749362D01*
X126421052Y-80749362D02*
X126468671Y-80939838D01*
X126468671Y-80939838D02*
X126468671Y-81320790D01*
X126468671Y-81320790D02*
X126421052Y-81416028D01*
X126421052Y-81416028D02*
X126373433Y-81463648D01*
X126373433Y-81463648D02*
X126278195Y-81511267D01*
X126278195Y-81511267D02*
X126087719Y-81511267D01*
X126087719Y-81511267D02*
X125992481Y-81463648D01*
X125992481Y-81463648D02*
X125944862Y-81416028D01*
X125944862Y-81416028D02*
X125897243Y-81320790D01*
X125897243Y-81320790D02*
X125897243Y-81082695D01*
X125897243Y-81082695D02*
X125944862Y-80987457D01*
X125944862Y-80987457D02*
X125992481Y-80939838D01*
X125992481Y-80939838D02*
X126087719Y-80892219D01*
X126087719Y-80892219D02*
X126278195Y-80892219D01*
X126278195Y-80892219D02*
X126373433Y-80939838D01*
X126373433Y-80939838D02*
X126421052Y-80987457D01*
X126421052Y-80987457D02*
X126468671Y-81082695D01*
X125563909Y-80511267D02*
X124944862Y-80511267D01*
X124944862Y-80511267D02*
X125278195Y-80892219D01*
X125278195Y-80892219D02*
X125135338Y-80892219D01*
X125135338Y-80892219D02*
X125040100Y-80939838D01*
X125040100Y-80939838D02*
X124992481Y-80987457D01*
X124992481Y-80987457D02*
X124944862Y-81082695D01*
X124944862Y-81082695D02*
X124944862Y-81320790D01*
X124944862Y-81320790D02*
X124992481Y-81416028D01*
X124992481Y-81416028D02*
X125040100Y-81463648D01*
X125040100Y-81463648D02*
X125135338Y-81511267D01*
X125135338Y-81511267D02*
X125421052Y-81511267D01*
X125421052Y-81511267D02*
X125516290Y-81463648D01*
X125516290Y-81463648D02*
X125563909Y-81416028D01*
X124325814Y-80511267D02*
X124230576Y-80511267D01*
X124230576Y-80511267D02*
X124135338Y-80558886D01*
X124135338Y-80558886D02*
X124087719Y-80606505D01*
X124087719Y-80606505D02*
X124040100Y-80701743D01*
X124040100Y-80701743D02*
X123992481Y-80892219D01*
X123992481Y-80892219D02*
X123992481Y-81130314D01*
X123992481Y-81130314D02*
X124040100Y-81320790D01*
X124040100Y-81320790D02*
X124087719Y-81416028D01*
X124087719Y-81416028D02*
X124135338Y-81463648D01*
X124135338Y-81463648D02*
X124230576Y-81511267D01*
X124230576Y-81511267D02*
X124325814Y-81511267D01*
X124325814Y-81511267D02*
X124421052Y-81463648D01*
X124421052Y-81463648D02*
X124468671Y-81416028D01*
X124468671Y-81416028D02*
X124516290Y-81320790D01*
X124516290Y-81320790D02*
X124563909Y-81130314D01*
X124563909Y-81130314D02*
X124563909Y-80892219D01*
X124563909Y-80892219D02*
X124516290Y-80701743D01*
X124516290Y-80701743D02*
X124468671Y-80606505D01*
X124468671Y-80606505D02*
X124421052Y-80558886D01*
X124421052Y-80558886D02*
X124325814Y-80511267D01*
X123659147Y-80511267D02*
X123040100Y-80511267D01*
X123040100Y-80511267D02*
X123373433Y-80892219D01*
X123373433Y-80892219D02*
X123230576Y-80892219D01*
X123230576Y-80892219D02*
X123135338Y-80939838D01*
X123135338Y-80939838D02*
X123087719Y-80987457D01*
X123087719Y-80987457D02*
X123040100Y-81082695D01*
X123040100Y-81082695D02*
X123040100Y-81320790D01*
X123040100Y-81320790D02*
X123087719Y-81416028D01*
X123087719Y-81416028D02*
X123135338Y-81463648D01*
X123135338Y-81463648D02*
X123230576Y-81511267D01*
X123230576Y-81511267D02*
X123516290Y-81511267D01*
X123516290Y-81511267D02*
X123611528Y-81463648D01*
X123611528Y-81463648D02*
X123659147Y-81416028D01*
X122421052Y-80511267D02*
X122325814Y-80511267D01*
X122325814Y-80511267D02*
X122230576Y-80558886D01*
X122230576Y-80558886D02*
X122182957Y-80606505D01*
X122182957Y-80606505D02*
X122135338Y-80701743D01*
X122135338Y-80701743D02*
X122087719Y-80892219D01*
X122087719Y-80892219D02*
X122087719Y-81130314D01*
X122087719Y-81130314D02*
X122135338Y-81320790D01*
X122135338Y-81320790D02*
X122182957Y-81416028D01*
X122182957Y-81416028D02*
X122230576Y-81463648D01*
X122230576Y-81463648D02*
X122325814Y-81511267D01*
X122325814Y-81511267D02*
X122421052Y-81511267D01*
X122421052Y-81511267D02*
X122516290Y-81463648D01*
X122516290Y-81463648D02*
X122563909Y-81416028D01*
X122563909Y-81416028D02*
X122611528Y-81320790D01*
X122611528Y-81320790D02*
X122659147Y-81130314D01*
X122659147Y-81130314D02*
X122659147Y-80892219D01*
X122659147Y-80892219D02*
X122611528Y-80701743D01*
X122611528Y-80701743D02*
X122563909Y-80606505D01*
X122563909Y-80606505D02*
X122516290Y-80558886D01*
X122516290Y-80558886D02*
X122421052Y-80511267D01*
X134611529Y-83121211D02*
X134944862Y-82645020D01*
X135182957Y-83121211D02*
X135182957Y-82121211D01*
X135182957Y-82121211D02*
X134802005Y-82121211D01*
X134802005Y-82121211D02*
X134706767Y-82168830D01*
X134706767Y-82168830D02*
X134659148Y-82216449D01*
X134659148Y-82216449D02*
X134611529Y-82311687D01*
X134611529Y-82311687D02*
X134611529Y-82454544D01*
X134611529Y-82454544D02*
X134659148Y-82549782D01*
X134659148Y-82549782D02*
X134706767Y-82597401D01*
X134706767Y-82597401D02*
X134802005Y-82645020D01*
X134802005Y-82645020D02*
X135182957Y-82645020D01*
X134182957Y-82597401D02*
X133849624Y-82597401D01*
X133706767Y-83121211D02*
X134182957Y-83121211D01*
X134182957Y-83121211D02*
X134182957Y-82121211D01*
X134182957Y-82121211D02*
X133706767Y-82121211D01*
X132754386Y-82168830D02*
X132849624Y-82121211D01*
X132849624Y-82121211D02*
X132992481Y-82121211D01*
X132992481Y-82121211D02*
X133135338Y-82168830D01*
X133135338Y-82168830D02*
X133230576Y-82264068D01*
X133230576Y-82264068D02*
X133278195Y-82359306D01*
X133278195Y-82359306D02*
X133325814Y-82549782D01*
X133325814Y-82549782D02*
X133325814Y-82692639D01*
X133325814Y-82692639D02*
X133278195Y-82883115D01*
X133278195Y-82883115D02*
X133230576Y-82978353D01*
X133230576Y-82978353D02*
X133135338Y-83073592D01*
X133135338Y-83073592D02*
X132992481Y-83121211D01*
X132992481Y-83121211D02*
X132897243Y-83121211D01*
X132897243Y-83121211D02*
X132754386Y-83073592D01*
X132754386Y-83073592D02*
X132706767Y-83025972D01*
X132706767Y-83025972D02*
X132706767Y-82692639D01*
X132706767Y-82692639D02*
X132897243Y-82692639D01*
X132278195Y-83025972D02*
X132230576Y-83073592D01*
X132230576Y-83073592D02*
X132278195Y-83121211D01*
X132278195Y-83121211D02*
X132325814Y-83073592D01*
X132325814Y-83073592D02*
X132278195Y-83025972D01*
X132278195Y-83025972D02*
X132278195Y-83121211D01*
X132278195Y-82502163D02*
X132230576Y-82549782D01*
X132230576Y-82549782D02*
X132278195Y-82597401D01*
X132278195Y-82597401D02*
X132325814Y-82549782D01*
X132325814Y-82549782D02*
X132278195Y-82502163D01*
X132278195Y-82502163D02*
X132278195Y-82597401D01*
X131040100Y-83121211D02*
X131040100Y-82121211D01*
X131040100Y-82121211D02*
X130706767Y-82835496D01*
X130706767Y-82835496D02*
X130373434Y-82121211D01*
X130373434Y-82121211D02*
X130373434Y-83121211D01*
X129897243Y-83121211D02*
X129897243Y-82121211D01*
X128849625Y-83025972D02*
X128897244Y-83073592D01*
X128897244Y-83073592D02*
X129040101Y-83121211D01*
X129040101Y-83121211D02*
X129135339Y-83121211D01*
X129135339Y-83121211D02*
X129278196Y-83073592D01*
X129278196Y-83073592D02*
X129373434Y-82978353D01*
X129373434Y-82978353D02*
X129421053Y-82883115D01*
X129421053Y-82883115D02*
X129468672Y-82692639D01*
X129468672Y-82692639D02*
X129468672Y-82549782D01*
X129468672Y-82549782D02*
X129421053Y-82359306D01*
X129421053Y-82359306D02*
X129373434Y-82264068D01*
X129373434Y-82264068D02*
X129278196Y-82168830D01*
X129278196Y-82168830D02*
X129135339Y-82121211D01*
X129135339Y-82121211D02*
X129040101Y-82121211D01*
X129040101Y-82121211D02*
X128897244Y-82168830D01*
X128897244Y-82168830D02*
X128849625Y-82216449D01*
X127944863Y-82121211D02*
X128421053Y-82121211D01*
X128421053Y-82121211D02*
X128468672Y-82597401D01*
X128468672Y-82597401D02*
X128421053Y-82549782D01*
X128421053Y-82549782D02*
X128325815Y-82502163D01*
X128325815Y-82502163D02*
X128087720Y-82502163D01*
X128087720Y-82502163D02*
X127992482Y-82549782D01*
X127992482Y-82549782D02*
X127944863Y-82597401D01*
X127944863Y-82597401D02*
X127897244Y-82692639D01*
X127897244Y-82692639D02*
X127897244Y-82930734D01*
X127897244Y-82930734D02*
X127944863Y-83025972D01*
X127944863Y-83025972D02*
X127992482Y-83073592D01*
X127992482Y-83073592D02*
X128087720Y-83121211D01*
X128087720Y-83121211D02*
X128325815Y-83121211D01*
X128325815Y-83121211D02*
X128421053Y-83073592D01*
X128421053Y-83073592D02*
X128468672Y-83025972D01*
X127516291Y-82216449D02*
X127468672Y-82168830D01*
X127468672Y-82168830D02*
X127373434Y-82121211D01*
X127373434Y-82121211D02*
X127135339Y-82121211D01*
X127135339Y-82121211D02*
X127040101Y-82168830D01*
X127040101Y-82168830D02*
X126992482Y-82216449D01*
X126992482Y-82216449D02*
X126944863Y-82311687D01*
X126944863Y-82311687D02*
X126944863Y-82406925D01*
X126944863Y-82406925D02*
X126992482Y-82549782D01*
X126992482Y-82549782D02*
X127563910Y-83121211D01*
X127563910Y-83121211D02*
X126944863Y-83121211D01*
X126325815Y-82121211D02*
X126230577Y-82121211D01*
X126230577Y-82121211D02*
X126135339Y-82168830D01*
X126135339Y-82168830D02*
X126087720Y-82216449D01*
X126087720Y-82216449D02*
X126040101Y-82311687D01*
X126040101Y-82311687D02*
X125992482Y-82502163D01*
X125992482Y-82502163D02*
X125992482Y-82740258D01*
X125992482Y-82740258D02*
X126040101Y-82930734D01*
X126040101Y-82930734D02*
X126087720Y-83025972D01*
X126087720Y-83025972D02*
X126135339Y-83073592D01*
X126135339Y-83073592D02*
X126230577Y-83121211D01*
X126230577Y-83121211D02*
X126325815Y-83121211D01*
X126325815Y-83121211D02*
X126421053Y-83073592D01*
X126421053Y-83073592D02*
X126468672Y-83025972D01*
X126468672Y-83025972D02*
X126516291Y-82930734D01*
X126516291Y-82930734D02*
X126563910Y-82740258D01*
X126563910Y-82740258D02*
X126563910Y-82502163D01*
X126563910Y-82502163D02*
X126516291Y-82311687D01*
X126516291Y-82311687D02*
X126468672Y-82216449D01*
X126468672Y-82216449D02*
X126421053Y-82168830D01*
X126421053Y-82168830D02*
X126325815Y-82121211D01*
X125087720Y-82121211D02*
X125563910Y-82121211D01*
X125563910Y-82121211D02*
X125611529Y-82597401D01*
X125611529Y-82597401D02*
X125563910Y-82549782D01*
X125563910Y-82549782D02*
X125468672Y-82502163D01*
X125468672Y-82502163D02*
X125230577Y-82502163D01*
X125230577Y-82502163D02*
X125135339Y-82549782D01*
X125135339Y-82549782D02*
X125087720Y-82597401D01*
X125087720Y-82597401D02*
X125040101Y-82692639D01*
X125040101Y-82692639D02*
X125040101Y-82930734D01*
X125040101Y-82930734D02*
X125087720Y-83025972D01*
X125087720Y-83025972D02*
X125135339Y-83073592D01*
X125135339Y-83073592D02*
X125230577Y-83121211D01*
X125230577Y-83121211D02*
X125468672Y-83121211D01*
X125468672Y-83121211D02*
X125563910Y-83073592D01*
X125563910Y-83073592D02*
X125611529Y-83025972D01*
X124611529Y-82740258D02*
X123849625Y-82740258D01*
X122897244Y-82121211D02*
X123373434Y-82121211D01*
X123373434Y-82121211D02*
X123421053Y-82597401D01*
X123421053Y-82597401D02*
X123373434Y-82549782D01*
X123373434Y-82549782D02*
X123278196Y-82502163D01*
X123278196Y-82502163D02*
X123040101Y-82502163D01*
X123040101Y-82502163D02*
X122944863Y-82549782D01*
X122944863Y-82549782D02*
X122897244Y-82597401D01*
X122897244Y-82597401D02*
X122849625Y-82692639D01*
X122849625Y-82692639D02*
X122849625Y-82930734D01*
X122849625Y-82930734D02*
X122897244Y-83025972D01*
X122897244Y-83025972D02*
X122944863Y-83073592D01*
X122944863Y-83073592D02*
X123040101Y-83121211D01*
X123040101Y-83121211D02*
X123278196Y-83121211D01*
X123278196Y-83121211D02*
X123373434Y-83073592D01*
X123373434Y-83073592D02*
X123421053Y-83025972D01*
X122421053Y-83025972D02*
X122373434Y-83073592D01*
X122373434Y-83073592D02*
X122421053Y-83121211D01*
X122421053Y-83121211D02*
X122468672Y-83073592D01*
X122468672Y-83073592D02*
X122421053Y-83025972D01*
X122421053Y-83025972D02*
X122421053Y-83121211D01*
X121754387Y-82121211D02*
X121659149Y-82121211D01*
X121659149Y-82121211D02*
X121563911Y-82168830D01*
X121563911Y-82168830D02*
X121516292Y-82216449D01*
X121516292Y-82216449D02*
X121468673Y-82311687D01*
X121468673Y-82311687D02*
X121421054Y-82502163D01*
X121421054Y-82502163D02*
X121421054Y-82740258D01*
X121421054Y-82740258D02*
X121468673Y-82930734D01*
X121468673Y-82930734D02*
X121516292Y-83025972D01*
X121516292Y-83025972D02*
X121563911Y-83073592D01*
X121563911Y-83073592D02*
X121659149Y-83121211D01*
X121659149Y-83121211D02*
X121754387Y-83121211D01*
X121754387Y-83121211D02*
X121849625Y-83073592D01*
X121849625Y-83073592D02*
X121897244Y-83025972D01*
X121897244Y-83025972D02*
X121944863Y-82930734D01*
X121944863Y-82930734D02*
X121992482Y-82740258D01*
X121992482Y-82740258D02*
X121992482Y-82502163D01*
X121992482Y-82502163D02*
X121944863Y-82311687D01*
X121944863Y-82311687D02*
X121897244Y-82216449D01*
X121897244Y-82216449D02*
X121849625Y-82168830D01*
X121849625Y-82168830D02*
X121754387Y-82121211D01*
X134611529Y-84731155D02*
X134944862Y-84254964D01*
X135182957Y-84731155D02*
X135182957Y-83731155D01*
X135182957Y-83731155D02*
X134802005Y-83731155D01*
X134802005Y-83731155D02*
X134706767Y-83778774D01*
X134706767Y-83778774D02*
X134659148Y-83826393D01*
X134659148Y-83826393D02*
X134611529Y-83921631D01*
X134611529Y-83921631D02*
X134611529Y-84064488D01*
X134611529Y-84064488D02*
X134659148Y-84159726D01*
X134659148Y-84159726D02*
X134706767Y-84207345D01*
X134706767Y-84207345D02*
X134802005Y-84254964D01*
X134802005Y-84254964D02*
X135182957Y-84254964D01*
X134182957Y-84207345D02*
X133849624Y-84207345D01*
X133706767Y-84731155D02*
X134182957Y-84731155D01*
X134182957Y-84731155D02*
X134182957Y-83731155D01*
X134182957Y-83731155D02*
X133706767Y-83731155D01*
X133421052Y-83731155D02*
X133087719Y-84731155D01*
X133087719Y-84731155D02*
X132754386Y-83731155D01*
X131706766Y-84445440D02*
X131230576Y-84445440D01*
X131802004Y-84731155D02*
X131468671Y-83731155D01*
X131468671Y-83731155D02*
X131135338Y-84731155D01*
X135325814Y-85341099D02*
X134754386Y-85341099D01*
X135040100Y-86341099D02*
X135040100Y-85341099D01*
X134421052Y-86245860D02*
X134373433Y-86293480D01*
X134373433Y-86293480D02*
X134421052Y-86341099D01*
X134421052Y-86341099D02*
X134468671Y-86293480D01*
X134468671Y-86293480D02*
X134421052Y-86245860D01*
X134421052Y-86245860D02*
X134421052Y-86341099D01*
X134040100Y-85341099D02*
X133802005Y-86341099D01*
X133802005Y-86341099D02*
X133611529Y-85626813D01*
X133611529Y-85626813D02*
X133421053Y-86341099D01*
X133421053Y-86341099D02*
X133182958Y-85341099D01*
X132802005Y-86245860D02*
X132754386Y-86293480D01*
X132754386Y-86293480D02*
X132802005Y-86341099D01*
X132802005Y-86341099D02*
X132849624Y-86293480D01*
X132849624Y-86293480D02*
X132802005Y-86245860D01*
X132802005Y-86245860D02*
X132802005Y-86341099D01*
%LPC*%
D11*
%TO.C,H3*%
X116500000Y-92000000D03*
%TD*%
%TO.C,H2*%
X146000000Y-92000000D03*
%TD*%
%TO.C,H1*%
X146000000Y-72000000D03*
%TD*%
D12*
%TO.C,J3*%
X113550000Y-90000000D03*
X113550000Y-88000000D03*
X113550000Y-86000000D03*
X113550000Y-84000000D03*
X113550000Y-82000000D03*
X113550000Y-80000000D03*
X113550000Y-78000000D03*
X113550000Y-76000000D03*
D13*
X113550000Y-74000000D03*
%TD*%
D14*
%TO.C,J1*%
X144450000Y-85000000D03*
D12*
X144450000Y-83000000D03*
X144450000Y-81000000D03*
X144450000Y-79000000D03*
%TD*%
%LPD*%
M02*
