M48
; DRILL file {KiCad 8.0.1} date 2024-04-25T00:01:52-0400
; FORMAT={-:-/ absolute / inch / decimal}
; #@! TF.CreationDate,2024-04-25T00:01:52-04:00
; #@! TF.GenerationSoftware,Kicad,Pcbnew,8.0.1
; #@! TF.FileFunction,Plated,1,4,PTH
FMAT,2
INCH
; #@! TA.AperFunction,Plated,PTH,ViaDrill
T1C0.0118
; #@! TA.AperFunction,Plated,PTH,ComponentDrill
T2C0.0295
%
G90
G05
T1
X4.3701Y-2.9134
X4.3701Y-3.1496
X4.3701Y-3.3071
X4.3701Y-3.5433
X4.4094Y-2.9134
X4.4882Y-2.7953
X4.4882Y-3.6614
X4.5276Y-2.9134
X4.685Y-2.7953
X4.685Y-3.6614
X4.7343Y-3.376
X4.7736Y-3.3366
X4.7736Y-3.4744
X4.8228Y-3.5925
X4.8327Y-3.0118
X4.8338Y-3.0704
X4.8425Y-3.4252
X4.8819Y-2.7953
X4.8819Y-3.4252
X4.8819Y-3.6614
X4.9016Y-3.5925
X4.9508Y-3.3366
X4.9508Y-3.4744
X4.9705Y-2.9724
X4.9705Y-3.0512
X4.9705Y-3.563
X4.9902Y-3.376
X5.0787Y-2.7953
X5.0787Y-3.6614
X5.0886Y-3.4941
X5.128Y-3.248
X5.128Y-3.4744
X5.1378Y-3.0118
X5.1378Y-3.0906
X5.1673Y-3.5827
X5.2264Y-3.0906
X5.2362Y-3.2283
X5.2362Y-3.3661
X5.2756Y-2.7953
X5.2756Y-3.6614
X5.4331Y-3.1004
X5.4331Y-3.3563
X5.4724Y-2.7953
X5.4724Y-3.6614
X5.6693Y-2.7953
X5.6693Y-3.6614
X5.7874Y-2.9134
X5.7874Y-3.2283
X5.7874Y-3.5433
T2
X4.4705Y-2.9134
X4.4705Y-2.9921
X4.4705Y-3.0709
X4.4705Y-3.1496
X4.4705Y-3.2283
X4.4705Y-3.3071
X4.4705Y-3.3858
X4.4705Y-3.4646
X4.4705Y-3.5433
X5.687Y-3.1102
X5.687Y-3.189
X5.687Y-3.2677
X5.687Y-3.3465
M30
