%TF.GenerationSoftware,KiCad,Pcbnew,8.0.1*%
%TF.CreationDate,2024-04-17T01:28:12-04:00*%
%TF.ProjectId,ads1115_board,61647331-3131-4355-9f62-6f6172642e6b,rev?*%
%TF.SameCoordinates,Original*%
%TF.FileFunction,Copper,L3,Inr*%
%TF.FilePolarity,Positive*%
%FSLAX46Y46*%
G04 Gerber Fmt 4.6, Leading zero omitted, Abs format (unit mm)*
G04 Created by KiCad (PCBNEW 8.0.1) date 2024-04-17 01:28:12*
%MOMM*%
%LPD*%
G01*
G04 APERTURE LIST*
G04 Aperture macros list*
%AMRoundRect*
0 Rectangle with rounded corners*
0 $1 Rounding radius*
0 $2 $3 $4 $5 $6 $7 $8 $9 X,Y pos of 4 corners*
0 Add a 4 corners polygon primitive as box body*
4,1,4,$2,$3,$4,$5,$6,$7,$8,$9,$2,$3,0*
0 Add four circle primitives for the rounded corners*
1,1,$1+$1,$2,$3*
1,1,$1+$1,$4,$5*
1,1,$1+$1,$6,$7*
1,1,$1+$1,$8,$9*
0 Add four rect primitives between the rounded corners*
20,1,$1+$1,$2,$3,$4,$5,0*
20,1,$1+$1,$4,$5,$6,$7,0*
20,1,$1+$1,$6,$7,$8,$9,0*
20,1,$1+$1,$8,$9,$2,$3,0*%
G04 Aperture macros list end*
%TA.AperFunction,ComponentPad*%
%ADD10RoundRect,0.250000X0.625000X-0.350000X0.625000X0.350000X-0.625000X0.350000X-0.625000X-0.350000X0*%
%TD*%
%TA.AperFunction,ComponentPad*%
%ADD11O,1.750000X1.200000*%
%TD*%
%TA.AperFunction,ComponentPad*%
%ADD12RoundRect,0.250000X-0.625000X0.350000X-0.625000X-0.350000X0.625000X-0.350000X0.625000X0.350000X0*%
%TD*%
%TA.AperFunction,ViaPad*%
%ADD13C,0.600000*%
%TD*%
G04 APERTURE END LIST*
D10*
%TO.N,GND*%
%TO.C,J1*%
X156450000Y-103000000D03*
D11*
%TO.N,/SIG+*%
X156450000Y-101000000D03*
%TO.N,/SIG-*%
X156450000Y-99000000D03*
%TO.N,+4V*%
X156450000Y-97000000D03*
%TD*%
D12*
%TO.N,GND*%
%TO.C,J2*%
X133550000Y-95000000D03*
D11*
%TO.N,/SDA*%
X133550000Y-97000000D03*
%TO.N,/SCL*%
X133550000Y-99000000D03*
%TO.N,/RDY*%
X133550000Y-101000000D03*
%TO.N,+3V3*%
X133550000Y-103000000D03*
%TO.N,+5V*%
X133550000Y-105000000D03*
%TD*%
D13*
%TO.N,GND*%
X146750000Y-102000000D03*
X153750000Y-100000000D03*
X135000000Y-98000000D03*
X135000000Y-100000000D03*
X131000000Y-107000000D03*
X131000000Y-93000000D03*
X159000000Y-93000000D03*
X138000000Y-91000000D03*
X133000000Y-91000000D03*
X157000000Y-91000000D03*
X152000000Y-91000000D03*
X147000000Y-91000000D03*
X143000000Y-91000000D03*
X133000000Y-109000000D03*
X138000000Y-109000000D03*
X143000000Y-109000000D03*
X147000000Y-109000000D03*
X152000000Y-109000000D03*
X157000000Y-109000000D03*
X159000000Y-107000000D03*
X144500000Y-95250000D03*
X146250000Y-95000000D03*
X153750000Y-97500000D03*
X152000000Y-97500000D03*
X153750000Y-102500000D03*
X152000000Y-102500000D03*
X150000000Y-102500000D03*
X149500000Y-95500000D03*
X147750000Y-94750000D03*
X147500000Y-98000000D03*
X148750000Y-99250000D03*
X150000000Y-100500000D03*
%TO.N,+4V*%
X147000000Y-103000000D03*
%TO.N,GND*%
X140250000Y-104500000D03*
%TO.N,+3V3*%
X140250000Y-97000000D03*
X145750000Y-99500000D03*
%TO.N,GND*%
X151000000Y-96500000D03*
X151000000Y-103250000D03*
X145250000Y-106250000D03*
X137750000Y-103500000D03*
%TO.N,+4V*%
X143875000Y-102875000D03*
%TO.N,+5V*%
X140250000Y-103500000D03*
%TO.N,+3V3*%
X141250000Y-99500000D03*
X137750000Y-98000000D03*
%TO.N,GND*%
X137750000Y-97000000D03*
X144250000Y-97000000D03*
%TD*%
%TA.AperFunction,Conductor*%
%TO.N,+4V*%
G36*
X151218967Y-90520185D02*
G01*
X151264722Y-90572989D01*
X151274666Y-90642147D01*
X151268970Y-90665454D01*
X151214632Y-90820742D01*
X151214630Y-90820750D01*
X151194435Y-90999996D01*
X151194435Y-91000003D01*
X151214630Y-91179249D01*
X151214631Y-91179254D01*
X151274211Y-91349523D01*
X151370184Y-91502262D01*
X151497738Y-91629816D01*
X151650478Y-91725789D01*
X151745158Y-91758919D01*
X151820745Y-91785368D01*
X151820750Y-91785369D01*
X151999996Y-91805565D01*
X152000000Y-91805565D01*
X152000004Y-91805565D01*
X152179249Y-91785369D01*
X152179252Y-91785368D01*
X152179255Y-91785368D01*
X152349522Y-91725789D01*
X152502262Y-91629816D01*
X152629816Y-91502262D01*
X152725789Y-91349522D01*
X152785368Y-91179255D01*
X152785369Y-91179249D01*
X152805565Y-91000003D01*
X152805565Y-90999996D01*
X152785369Y-90820750D01*
X152785367Y-90820742D01*
X152731030Y-90665454D01*
X152727469Y-90595676D01*
X152762198Y-90535048D01*
X152824191Y-90502821D01*
X152848072Y-90500500D01*
X156151928Y-90500500D01*
X156218967Y-90520185D01*
X156264722Y-90572989D01*
X156274666Y-90642147D01*
X156268970Y-90665454D01*
X156214632Y-90820742D01*
X156214630Y-90820750D01*
X156194435Y-90999996D01*
X156194435Y-91000003D01*
X156214630Y-91179249D01*
X156214631Y-91179254D01*
X156274211Y-91349523D01*
X156370184Y-91502262D01*
X156497738Y-91629816D01*
X156650478Y-91725789D01*
X156745158Y-91758919D01*
X156820745Y-91785368D01*
X156820750Y-91785369D01*
X156999996Y-91805565D01*
X157000000Y-91805565D01*
X157000001Y-91805565D01*
X157013233Y-91804073D01*
X157035615Y-91801552D01*
X157104437Y-91813606D01*
X157155817Y-91860955D01*
X157173500Y-91924772D01*
X157173500Y-92081407D01*
X157205259Y-92241073D01*
X157205262Y-92241082D01*
X157267562Y-92391490D01*
X157267563Y-92391492D01*
X157358015Y-92526862D01*
X157358018Y-92526866D01*
X157473133Y-92641981D01*
X157473137Y-92641984D01*
X157608505Y-92732435D01*
X157608506Y-92732435D01*
X157608507Y-92732436D01*
X157608509Y-92732437D01*
X157708781Y-92773970D01*
X157758919Y-92794738D01*
X157758921Y-92794738D01*
X157758926Y-92794740D01*
X157918592Y-92826499D01*
X157918595Y-92826500D01*
X158075228Y-92826500D01*
X158142267Y-92846185D01*
X158188022Y-92898989D01*
X158198448Y-92964385D01*
X158194435Y-92999998D01*
X158194435Y-93000003D01*
X158214630Y-93179249D01*
X158214631Y-93179254D01*
X158274211Y-93349523D01*
X158370184Y-93502262D01*
X158497738Y-93629816D01*
X158650478Y-93725789D01*
X158820739Y-93785366D01*
X158820745Y-93785368D01*
X158820750Y-93785369D01*
X158999996Y-93805565D01*
X159000000Y-93805565D01*
X159000004Y-93805565D01*
X159179249Y-93785369D01*
X159179251Y-93785368D01*
X159179255Y-93785368D01*
X159179258Y-93785366D01*
X159179262Y-93785366D01*
X159334545Y-93731030D01*
X159404324Y-93727468D01*
X159464951Y-93762196D01*
X159497179Y-93824190D01*
X159499500Y-93848071D01*
X159499500Y-106151928D01*
X159479815Y-106218967D01*
X159427011Y-106264722D01*
X159357853Y-106274666D01*
X159334546Y-106268970D01*
X159179257Y-106214632D01*
X159179249Y-106214630D01*
X159000004Y-106194435D01*
X158999996Y-106194435D01*
X158820750Y-106214630D01*
X158820745Y-106214631D01*
X158650476Y-106274211D01*
X158497737Y-106370184D01*
X158370184Y-106497737D01*
X158274211Y-106650476D01*
X158214631Y-106820745D01*
X158214630Y-106820750D01*
X158194435Y-106999996D01*
X158194435Y-107000001D01*
X158198448Y-107035615D01*
X158186394Y-107104437D01*
X158139045Y-107155817D01*
X158075228Y-107173500D01*
X157918594Y-107173500D01*
X157758926Y-107205259D01*
X157758917Y-107205262D01*
X157608509Y-107267562D01*
X157608507Y-107267563D01*
X157473137Y-107358015D01*
X157473133Y-107358018D01*
X157358018Y-107473133D01*
X157358015Y-107473137D01*
X157267563Y-107608507D01*
X157267562Y-107608509D01*
X157205262Y-107758917D01*
X157205259Y-107758926D01*
X157173500Y-107918592D01*
X157173500Y-108075227D01*
X157153815Y-108142266D01*
X157101011Y-108188021D01*
X157035618Y-108198448D01*
X157024798Y-108197229D01*
X157000000Y-108194435D01*
X156999998Y-108194435D01*
X156999997Y-108194435D01*
X156999996Y-108194435D01*
X156820750Y-108214630D01*
X156820745Y-108214631D01*
X156650476Y-108274211D01*
X156497737Y-108370184D01*
X156370184Y-108497737D01*
X156274211Y-108650476D01*
X156214631Y-108820745D01*
X156214630Y-108820750D01*
X156194435Y-108999996D01*
X156194435Y-109000003D01*
X156214630Y-109179249D01*
X156214632Y-109179257D01*
X156268970Y-109334546D01*
X156272531Y-109404324D01*
X156237802Y-109464952D01*
X156175809Y-109497179D01*
X156151928Y-109499500D01*
X152848072Y-109499500D01*
X152781033Y-109479815D01*
X152735278Y-109427011D01*
X152725334Y-109357853D01*
X152731030Y-109334546D01*
X152785367Y-109179257D01*
X152785368Y-109179255D01*
X152785369Y-109179249D01*
X152805565Y-109000003D01*
X152805565Y-108999996D01*
X152785369Y-108820750D01*
X152785368Y-108820745D01*
X152725788Y-108650476D01*
X152629815Y-108497737D01*
X152502262Y-108370184D01*
X152349523Y-108274211D01*
X152179254Y-108214631D01*
X152179249Y-108214630D01*
X152000004Y-108194435D01*
X151999996Y-108194435D01*
X151820750Y-108214630D01*
X151820745Y-108214631D01*
X151650476Y-108274211D01*
X151497737Y-108370184D01*
X151370184Y-108497737D01*
X151274211Y-108650476D01*
X151214631Y-108820745D01*
X151214630Y-108820750D01*
X151194435Y-108999996D01*
X151194435Y-109000003D01*
X151214630Y-109179249D01*
X151214632Y-109179257D01*
X151268970Y-109334546D01*
X151272531Y-109404324D01*
X151237802Y-109464952D01*
X151175809Y-109497179D01*
X151151928Y-109499500D01*
X147848072Y-109499500D01*
X147781033Y-109479815D01*
X147735278Y-109427011D01*
X147725334Y-109357853D01*
X147731030Y-109334546D01*
X147785367Y-109179257D01*
X147785368Y-109179255D01*
X147785369Y-109179249D01*
X147805565Y-109000003D01*
X147805565Y-108999996D01*
X147785369Y-108820750D01*
X147785368Y-108820745D01*
X147725788Y-108650476D01*
X147629815Y-108497737D01*
X147502262Y-108370184D01*
X147349523Y-108274211D01*
X147179254Y-108214631D01*
X147179249Y-108214630D01*
X147000004Y-108194435D01*
X146999996Y-108194435D01*
X146820750Y-108214630D01*
X146820745Y-108214631D01*
X146650476Y-108274211D01*
X146497737Y-108370184D01*
X146370184Y-108497737D01*
X146274211Y-108650476D01*
X146214631Y-108820745D01*
X146214630Y-108820750D01*
X146194435Y-108999996D01*
X146194435Y-109000003D01*
X146214630Y-109179249D01*
X146214632Y-109179257D01*
X146268970Y-109334546D01*
X146272531Y-109404324D01*
X146237802Y-109464952D01*
X146175809Y-109497179D01*
X146151928Y-109499500D01*
X143848072Y-109499500D01*
X143781033Y-109479815D01*
X143735278Y-109427011D01*
X143725334Y-109357853D01*
X143731030Y-109334546D01*
X143785367Y-109179257D01*
X143785368Y-109179255D01*
X143785369Y-109179249D01*
X143805565Y-109000003D01*
X143805565Y-108999996D01*
X143785369Y-108820750D01*
X143785368Y-108820745D01*
X143725788Y-108650476D01*
X143629815Y-108497737D01*
X143502262Y-108370184D01*
X143349523Y-108274211D01*
X143179254Y-108214631D01*
X143179250Y-108214630D01*
X143110116Y-108206841D01*
X143045702Y-108179774D01*
X143006147Y-108122179D01*
X143000000Y-108083621D01*
X143000000Y-106250003D01*
X144444435Y-106250003D01*
X144464630Y-106429249D01*
X144464631Y-106429254D01*
X144524211Y-106599523D01*
X144620184Y-106752262D01*
X144747738Y-106879816D01*
X144900478Y-106975789D01*
X144969672Y-107000001D01*
X145070745Y-107035368D01*
X145070750Y-107035369D01*
X145249996Y-107055565D01*
X145250000Y-107055565D01*
X145250004Y-107055565D01*
X145429249Y-107035369D01*
X145429252Y-107035368D01*
X145429255Y-107035368D01*
X145599522Y-106975789D01*
X145752262Y-106879816D01*
X145879816Y-106752262D01*
X145975789Y-106599522D01*
X146035368Y-106429255D01*
X146042024Y-106370184D01*
X146055565Y-106250003D01*
X146055565Y-106249996D01*
X146035369Y-106070750D01*
X146035368Y-106070745D01*
X145975788Y-105900476D01*
X145879815Y-105747737D01*
X145752262Y-105620184D01*
X145599523Y-105524211D01*
X145429254Y-105464631D01*
X145429249Y-105464630D01*
X145250004Y-105444435D01*
X145249996Y-105444435D01*
X145070750Y-105464630D01*
X145070745Y-105464631D01*
X144900476Y-105524211D01*
X144747737Y-105620184D01*
X144620184Y-105747737D01*
X144524211Y-105900476D01*
X144464631Y-106070745D01*
X144464630Y-106070750D01*
X144444435Y-106249996D01*
X144444435Y-106250003D01*
X143000000Y-106250003D01*
X143000000Y-102451362D01*
X143019685Y-102384323D01*
X143036319Y-102363681D01*
X144363681Y-101036319D01*
X144425004Y-101002834D01*
X144451362Y-101000000D01*
X146454315Y-101000000D01*
X146521354Y-101019685D01*
X146567109Y-101072489D01*
X146577053Y-101141647D01*
X146548028Y-101205203D01*
X146495269Y-101241042D01*
X146400478Y-101274210D01*
X146247737Y-101370184D01*
X146120184Y-101497737D01*
X146024211Y-101650476D01*
X145964631Y-101820745D01*
X145964630Y-101820750D01*
X145944435Y-101999996D01*
X145944435Y-102000003D01*
X145964630Y-102179249D01*
X145964631Y-102179254D01*
X146024211Y-102349523D01*
X146083849Y-102444435D01*
X146120184Y-102502262D01*
X146247738Y-102629816D01*
X146400478Y-102725789D01*
X146570745Y-102785368D01*
X146570750Y-102785369D01*
X146749996Y-102805565D01*
X146750000Y-102805565D01*
X146750004Y-102805565D01*
X146929249Y-102785369D01*
X146929252Y-102785368D01*
X146929255Y-102785368D01*
X147099522Y-102725789D01*
X147252262Y-102629816D01*
X147379816Y-102502262D01*
X147381235Y-102500003D01*
X149194435Y-102500003D01*
X149214630Y-102679249D01*
X149214631Y-102679254D01*
X149274211Y-102849523D01*
X149370184Y-103002262D01*
X149497738Y-103129816D01*
X149650478Y-103225789D01*
X149802306Y-103278916D01*
X149820745Y-103285368D01*
X149820750Y-103285369D01*
X149999996Y-103305565D01*
X150000000Y-103305565D01*
X150000002Y-103305565D01*
X150029862Y-103302200D01*
X150074959Y-103297119D01*
X150143780Y-103309173D01*
X150195159Y-103356522D01*
X150212062Y-103406453D01*
X150214631Y-103429251D01*
X150214631Y-103429254D01*
X150274211Y-103599523D01*
X150318078Y-103669336D01*
X150370184Y-103752262D01*
X150497738Y-103879816D01*
X150650478Y-103975789D01*
X150819156Y-104034812D01*
X150820745Y-104035368D01*
X150820750Y-104035369D01*
X150999996Y-104055565D01*
X151000000Y-104055565D01*
X151000004Y-104055565D01*
X151179249Y-104035369D01*
X151179252Y-104035368D01*
X151179255Y-104035368D01*
X151349522Y-103975789D01*
X151502262Y-103879816D01*
X151629816Y-103752262D01*
X151725789Y-103599522D01*
X151785368Y-103429255D01*
X151787936Y-103406456D01*
X151790648Y-103400001D01*
X155074500Y-103400001D01*
X155074501Y-103400019D01*
X155085000Y-103502796D01*
X155085001Y-103502799D01*
X155117053Y-103599523D01*
X155140186Y-103669334D01*
X155232288Y-103818656D01*
X155356344Y-103942712D01*
X155505666Y-104034814D01*
X155672203Y-104089999D01*
X155774991Y-104100500D01*
X157125008Y-104100499D01*
X157227797Y-104089999D01*
X157394334Y-104034814D01*
X157543656Y-103942712D01*
X157667712Y-103818656D01*
X157759814Y-103669334D01*
X157814999Y-103502797D01*
X157825500Y-103400009D01*
X157825499Y-102599992D01*
X157814999Y-102497203D01*
X157759814Y-102330666D01*
X157667712Y-102181344D01*
X157543656Y-102057288D01*
X157543652Y-102057285D01*
X157479456Y-102017688D01*
X157432731Y-101965740D01*
X157421510Y-101896777D01*
X157449353Y-101832695D01*
X157456850Y-101824491D01*
X157564414Y-101716928D01*
X157666232Y-101576788D01*
X157744873Y-101422445D01*
X157798402Y-101257701D01*
X157825500Y-101086611D01*
X157825500Y-100913389D01*
X157798402Y-100742299D01*
X157744873Y-100577555D01*
X157666232Y-100423212D01*
X157564414Y-100283072D01*
X157441928Y-100160586D01*
X157358975Y-100100317D01*
X157316311Y-100044988D01*
X157310332Y-99975374D01*
X157342938Y-99913579D01*
X157358976Y-99899682D01*
X157441928Y-99839414D01*
X157564414Y-99716928D01*
X157666232Y-99576788D01*
X157744873Y-99422445D01*
X157798402Y-99257701D01*
X157825500Y-99086611D01*
X157825500Y-98913389D01*
X157798402Y-98742299D01*
X157744873Y-98577555D01*
X157666232Y-98423212D01*
X157564414Y-98283072D01*
X157441928Y-98160586D01*
X157358550Y-98100008D01*
X157315885Y-98044677D01*
X157309906Y-97975064D01*
X157342512Y-97913269D01*
X157358552Y-97899371D01*
X157441598Y-97839036D01*
X157564032Y-97716602D01*
X157665804Y-97576524D01*
X157744408Y-97422255D01*
X157797914Y-97257584D01*
X157799115Y-97250000D01*
X156730330Y-97250000D01*
X156750075Y-97230255D01*
X156799444Y-97144745D01*
X156825000Y-97049370D01*
X156825000Y-96950630D01*
X156799444Y-96855255D01*
X156750075Y-96769745D01*
X156730330Y-96750000D01*
X157799115Y-96750000D01*
X157799115Y-96749999D01*
X157797914Y-96742415D01*
X157744408Y-96577744D01*
X157665804Y-96423475D01*
X157564032Y-96283397D01*
X157441602Y-96160967D01*
X157301524Y-96059195D01*
X157147257Y-95980591D01*
X156982584Y-95927085D01*
X156811571Y-95900000D01*
X156700000Y-95900000D01*
X156700000Y-96719670D01*
X156680255Y-96699925D01*
X156594745Y-96650556D01*
X156499370Y-96625000D01*
X156400630Y-96625000D01*
X156305255Y-96650556D01*
X156219745Y-96699925D01*
X156200000Y-96719670D01*
X156200000Y-95900000D01*
X156088429Y-95900000D01*
X155917415Y-95927085D01*
X155752742Y-95980591D01*
X155598475Y-96059195D01*
X155458397Y-96160967D01*
X155335967Y-96283397D01*
X155234195Y-96423475D01*
X155155591Y-96577744D01*
X155102085Y-96742415D01*
X155100884Y-96749999D01*
X155100885Y-96750000D01*
X156169670Y-96750000D01*
X156149925Y-96769745D01*
X156100556Y-96855255D01*
X156075000Y-96950630D01*
X156075000Y-97049370D01*
X156100556Y-97144745D01*
X156149925Y-97230255D01*
X156169670Y-97250000D01*
X155100885Y-97250000D01*
X155102085Y-97257584D01*
X155155591Y-97422255D01*
X155234195Y-97576524D01*
X155335967Y-97716602D01*
X155458401Y-97839036D01*
X155541447Y-97899371D01*
X155584114Y-97954701D01*
X155590093Y-98024314D01*
X155557488Y-98086109D01*
X155541450Y-98100007D01*
X155458072Y-98160585D01*
X155335588Y-98283069D01*
X155335588Y-98283070D01*
X155335586Y-98283072D01*
X155319244Y-98305565D01*
X155233768Y-98423211D01*
X155155128Y-98577552D01*
X155101597Y-98742302D01*
X155074500Y-98913389D01*
X155074500Y-99086610D01*
X155100378Y-99250003D01*
X155101598Y-99257701D01*
X155155127Y-99422445D01*
X155233768Y-99576788D01*
X155335586Y-99716928D01*
X155458072Y-99839414D01*
X155475257Y-99851899D01*
X155541023Y-99899683D01*
X155583689Y-99955013D01*
X155589667Y-100024626D01*
X155557061Y-100086421D01*
X155541023Y-100100317D01*
X155458078Y-100160581D01*
X155458069Y-100160588D01*
X155335588Y-100283069D01*
X155335588Y-100283070D01*
X155335586Y-100283072D01*
X155333918Y-100285368D01*
X155233768Y-100423211D01*
X155155128Y-100577552D01*
X155101597Y-100742302D01*
X155074500Y-100913389D01*
X155074500Y-101086610D01*
X155096543Y-101225789D01*
X155101598Y-101257701D01*
X155155127Y-101422445D01*
X155233768Y-101576788D01*
X155335586Y-101716928D01*
X155335588Y-101716930D01*
X155443127Y-101824469D01*
X155476612Y-101885792D01*
X155471628Y-101955484D01*
X155429756Y-102011417D01*
X155420544Y-102017688D01*
X155356344Y-102057287D01*
X155232289Y-102181342D01*
X155140187Y-102330663D01*
X155140185Y-102330668D01*
X155133937Y-102349523D01*
X155085001Y-102497203D01*
X155085001Y-102497204D01*
X155085000Y-102497204D01*
X155074500Y-102599983D01*
X155074500Y-103400001D01*
X151790648Y-103400001D01*
X151815002Y-103342043D01*
X151872596Y-103302487D01*
X151925039Y-103297119D01*
X151962710Y-103301363D01*
X151999998Y-103305565D01*
X152000000Y-103305565D01*
X152000004Y-103305565D01*
X152179249Y-103285369D01*
X152179252Y-103285368D01*
X152179255Y-103285368D01*
X152349522Y-103225789D01*
X152502262Y-103129816D01*
X152629816Y-103002262D01*
X152725789Y-102849522D01*
X152757958Y-102757587D01*
X152798680Y-102700812D01*
X152863633Y-102675065D01*
X152932194Y-102688521D01*
X152982597Y-102736908D01*
X152992042Y-102757588D01*
X153024211Y-102849523D01*
X153120184Y-103002262D01*
X153247738Y-103129816D01*
X153400478Y-103225789D01*
X153552306Y-103278916D01*
X153570745Y-103285368D01*
X153570750Y-103285369D01*
X153749996Y-103305565D01*
X153750000Y-103305565D01*
X153750004Y-103305565D01*
X153929249Y-103285369D01*
X153929252Y-103285368D01*
X153929255Y-103285368D01*
X154099522Y-103225789D01*
X154252262Y-103129816D01*
X154379816Y-103002262D01*
X154475789Y-102849522D01*
X154535368Y-102679255D01*
X154535840Y-102675065D01*
X154555565Y-102500003D01*
X154555565Y-102499996D01*
X154535369Y-102320750D01*
X154535368Y-102320745D01*
X154532125Y-102311478D01*
X154475789Y-102150478D01*
X154379816Y-101997738D01*
X154252262Y-101870184D01*
X154192599Y-101832695D01*
X154099523Y-101774211D01*
X153929254Y-101714631D01*
X153929249Y-101714630D01*
X153750004Y-101694435D01*
X153749996Y-101694435D01*
X153570750Y-101714630D01*
X153570745Y-101714631D01*
X153400476Y-101774211D01*
X153247737Y-101870184D01*
X153120184Y-101997737D01*
X153024209Y-102150480D01*
X152992041Y-102242411D01*
X152951320Y-102299187D01*
X152886367Y-102324934D01*
X152817805Y-102311478D01*
X152767403Y-102263090D01*
X152757959Y-102242411D01*
X152725790Y-102150480D01*
X152725789Y-102150478D01*
X152629816Y-101997738D01*
X152502262Y-101870184D01*
X152442599Y-101832695D01*
X152349523Y-101774211D01*
X152179254Y-101714631D01*
X152179249Y-101714630D01*
X152000004Y-101694435D01*
X151999996Y-101694435D01*
X151820750Y-101714630D01*
X151820745Y-101714631D01*
X151650476Y-101774211D01*
X151497737Y-101870184D01*
X151370184Y-101997737D01*
X151274210Y-102150478D01*
X151214631Y-102320747D01*
X151214630Y-102320751D01*
X151212062Y-102343546D01*
X151184994Y-102407959D01*
X151127398Y-102447513D01*
X151074959Y-102452880D01*
X151000004Y-102444435D01*
X150999996Y-102444435D01*
X150925040Y-102452880D01*
X150856218Y-102440825D01*
X150804839Y-102393476D01*
X150787936Y-102343542D01*
X150785368Y-102320745D01*
X150725789Y-102150478D01*
X150629816Y-101997738D01*
X150502262Y-101870184D01*
X150442599Y-101832695D01*
X150349523Y-101774211D01*
X150179254Y-101714631D01*
X150179249Y-101714630D01*
X150000004Y-101694435D01*
X149999996Y-101694435D01*
X149820750Y-101714630D01*
X149820745Y-101714631D01*
X149650476Y-101774211D01*
X149497737Y-101870184D01*
X149370184Y-101997737D01*
X149274211Y-102150476D01*
X149214631Y-102320745D01*
X149214630Y-102320750D01*
X149194435Y-102499996D01*
X149194435Y-102500003D01*
X147381235Y-102500003D01*
X147475789Y-102349522D01*
X147535368Y-102179255D01*
X147538610Y-102150480D01*
X147555565Y-102000003D01*
X147555565Y-101999996D01*
X147535369Y-101820750D01*
X147535368Y-101820745D01*
X147519085Y-101774211D01*
X147475789Y-101650478D01*
X147379816Y-101497738D01*
X147252262Y-101370184D01*
X147117280Y-101285369D01*
X147099521Y-101274210D01*
X147004731Y-101241042D01*
X146947954Y-101200320D01*
X146922207Y-101135367D01*
X146935663Y-101066806D01*
X146984050Y-101016403D01*
X147045685Y-101000000D01*
X148000000Y-101000000D01*
X148963665Y-100036334D01*
X149010383Y-100006980D01*
X149099522Y-99975789D01*
X149109538Y-99969495D01*
X149176773Y-99950494D01*
X149243608Y-99970860D01*
X149288824Y-100024127D01*
X149298063Y-100093383D01*
X149280506Y-100140458D01*
X149274211Y-100150475D01*
X149214631Y-100320745D01*
X149214630Y-100320750D01*
X149194435Y-100499996D01*
X149194435Y-100500003D01*
X149214630Y-100679249D01*
X149214631Y-100679254D01*
X149274211Y-100849523D01*
X149314341Y-100913389D01*
X149370184Y-101002262D01*
X149497738Y-101129816D01*
X149516567Y-101141647D01*
X149632721Y-101214632D01*
X149650478Y-101225789D01*
X149788857Y-101274210D01*
X149820745Y-101285368D01*
X149820750Y-101285369D01*
X149999996Y-101305565D01*
X150000000Y-101305565D01*
X150000004Y-101305565D01*
X150179249Y-101285369D01*
X150179252Y-101285368D01*
X150179255Y-101285368D01*
X150349522Y-101225789D01*
X150502262Y-101129816D01*
X150629816Y-101002262D01*
X150725789Y-100849522D01*
X150785368Y-100679255D01*
X150785369Y-100679249D01*
X150805565Y-100500003D01*
X150805565Y-100499996D01*
X150785369Y-100320750D01*
X150785368Y-100320745D01*
X150752141Y-100225789D01*
X150725789Y-100150478D01*
X150631239Y-100000003D01*
X152944435Y-100000003D01*
X152964630Y-100179249D01*
X152964631Y-100179254D01*
X153024211Y-100349523D01*
X153118760Y-100499996D01*
X153120184Y-100502262D01*
X153247738Y-100629816D01*
X153400478Y-100725789D01*
X153570745Y-100785368D01*
X153570750Y-100785369D01*
X153749996Y-100805565D01*
X153750000Y-100805565D01*
X153750004Y-100805565D01*
X153929249Y-100785369D01*
X153929252Y-100785368D01*
X153929255Y-100785368D01*
X154099522Y-100725789D01*
X154252262Y-100629816D01*
X154379816Y-100502262D01*
X154475789Y-100349522D01*
X154535368Y-100179255D01*
X154535369Y-100179249D01*
X154555565Y-100000003D01*
X154555565Y-99999996D01*
X154535369Y-99820750D01*
X154535368Y-99820745D01*
X154502168Y-99725864D01*
X154475789Y-99650478D01*
X154379816Y-99497738D01*
X154252262Y-99370184D01*
X154099523Y-99274211D01*
X153929254Y-99214631D01*
X153929249Y-99214630D01*
X153750004Y-99194435D01*
X153749996Y-99194435D01*
X153570750Y-99214630D01*
X153570745Y-99214631D01*
X153400476Y-99274211D01*
X153247737Y-99370184D01*
X153120184Y-99497737D01*
X153024211Y-99650476D01*
X152964631Y-99820745D01*
X152964630Y-99820750D01*
X152944435Y-99999996D01*
X152944435Y-100000003D01*
X150631239Y-100000003D01*
X150629816Y-99997738D01*
X150502262Y-99870184D01*
X150469379Y-99849522D01*
X150349523Y-99774211D01*
X150179254Y-99714631D01*
X150179249Y-99714630D01*
X150000004Y-99694435D01*
X149999996Y-99694435D01*
X149820750Y-99714630D01*
X149820745Y-99714631D01*
X149650473Y-99774212D01*
X149640457Y-99780506D01*
X149573220Y-99799504D01*
X149506385Y-99779134D01*
X149461173Y-99725864D01*
X149451938Y-99656608D01*
X149469498Y-99609534D01*
X149475788Y-99599523D01*
X149475789Y-99599522D01*
X149535368Y-99429255D01*
X149536135Y-99422447D01*
X149555565Y-99250003D01*
X149555565Y-99249996D01*
X149535369Y-99070750D01*
X149535367Y-99070742D01*
X149506958Y-98989552D01*
X149500000Y-98948598D01*
X149500000Y-96416378D01*
X149519685Y-96349339D01*
X149572489Y-96303584D01*
X149610117Y-96293158D01*
X149679250Y-96285369D01*
X149679253Y-96285368D01*
X149679255Y-96285368D01*
X149849522Y-96225789D01*
X150002262Y-96129816D01*
X150047555Y-96084522D01*
X150108876Y-96051038D01*
X150178567Y-96056022D01*
X150234501Y-96097893D01*
X150258919Y-96163357D01*
X150252277Y-96213158D01*
X150214632Y-96320742D01*
X150214630Y-96320750D01*
X150194435Y-96499996D01*
X150194435Y-96500003D01*
X150214630Y-96679249D01*
X150214631Y-96679254D01*
X150274211Y-96849523D01*
X150337741Y-96950630D01*
X150370184Y-97002262D01*
X150497738Y-97129816D01*
X150530625Y-97150480D01*
X150632721Y-97214632D01*
X150650478Y-97225789D01*
X150788860Y-97274211D01*
X150820745Y-97285368D01*
X150820750Y-97285369D01*
X150999996Y-97305565D01*
X151000000Y-97305565D01*
X151000002Y-97305565D01*
X151029449Y-97302246D01*
X151064610Y-97298285D01*
X151133432Y-97310339D01*
X151184811Y-97357688D01*
X151202436Y-97425298D01*
X151201714Y-97435388D01*
X151194435Y-97499995D01*
X151194435Y-97500003D01*
X151214630Y-97679249D01*
X151214631Y-97679254D01*
X151274211Y-97849523D01*
X151305533Y-97899371D01*
X151370184Y-98002262D01*
X151497738Y-98129816D01*
X151650478Y-98225789D01*
X151814175Y-98283069D01*
X151820745Y-98285368D01*
X151820750Y-98285369D01*
X151999996Y-98305565D01*
X152000000Y-98305565D01*
X152000004Y-98305565D01*
X152179249Y-98285369D01*
X152179252Y-98285368D01*
X152179255Y-98285368D01*
X152349522Y-98225789D01*
X152502262Y-98129816D01*
X152629816Y-98002262D01*
X152725789Y-97849522D01*
X152757958Y-97757587D01*
X152798680Y-97700812D01*
X152863633Y-97675065D01*
X152932194Y-97688521D01*
X152982597Y-97736908D01*
X152992042Y-97757588D01*
X153024211Y-97849523D01*
X153055533Y-97899371D01*
X153120184Y-98002262D01*
X153247738Y-98129816D01*
X153400478Y-98225789D01*
X153564175Y-98283069D01*
X153570745Y-98285368D01*
X153570750Y-98285369D01*
X153749996Y-98305565D01*
X153750000Y-98305565D01*
X153750004Y-98305565D01*
X153929249Y-98285369D01*
X153929252Y-98285368D01*
X153929255Y-98285368D01*
X154099522Y-98225789D01*
X154252262Y-98129816D01*
X154379816Y-98002262D01*
X154475789Y-97849522D01*
X154535368Y-97679255D01*
X154535840Y-97675065D01*
X154555565Y-97500003D01*
X154555565Y-97499996D01*
X154535369Y-97320750D01*
X154535368Y-97320745D01*
X154528135Y-97300075D01*
X154475789Y-97150478D01*
X154379816Y-96997738D01*
X154252262Y-96870184D01*
X154219379Y-96849522D01*
X154099523Y-96774211D01*
X153929254Y-96714631D01*
X153929249Y-96714630D01*
X153750004Y-96694435D01*
X153749996Y-96694435D01*
X153570750Y-96714630D01*
X153570745Y-96714631D01*
X153400476Y-96774211D01*
X153247737Y-96870184D01*
X153120184Y-96997737D01*
X153024209Y-97150480D01*
X152992041Y-97242411D01*
X152951320Y-97299187D01*
X152886367Y-97324934D01*
X152817805Y-97311478D01*
X152767403Y-97263090D01*
X152757959Y-97242411D01*
X152725790Y-97150480D01*
X152725789Y-97150478D01*
X152629816Y-96997738D01*
X152502262Y-96870184D01*
X152469379Y-96849522D01*
X152349523Y-96774211D01*
X152179254Y-96714631D01*
X152179249Y-96714630D01*
X152000004Y-96694435D01*
X151999996Y-96694435D01*
X151935388Y-96701714D01*
X151866566Y-96689659D01*
X151815187Y-96642310D01*
X151797563Y-96574699D01*
X151798285Y-96564610D01*
X151805565Y-96500002D01*
X151805565Y-96499996D01*
X151785369Y-96320750D01*
X151785368Y-96320745D01*
X151748237Y-96214632D01*
X151725789Y-96150478D01*
X151629816Y-95997738D01*
X151502262Y-95870184D01*
X151399422Y-95805565D01*
X151349523Y-95774211D01*
X151179254Y-95714631D01*
X151179249Y-95714630D01*
X151000004Y-95694435D01*
X150999996Y-95694435D01*
X150820750Y-95714630D01*
X150820745Y-95714631D01*
X150650476Y-95774211D01*
X150497737Y-95870184D01*
X150452444Y-95915477D01*
X150391121Y-95948961D01*
X150321429Y-95943976D01*
X150265496Y-95902104D01*
X150241080Y-95836640D01*
X150247723Y-95786840D01*
X150285366Y-95679262D01*
X150285369Y-95679249D01*
X150305565Y-95500003D01*
X150305565Y-95499996D01*
X150285369Y-95320750D01*
X150285368Y-95320745D01*
X150260613Y-95250000D01*
X150225789Y-95150478D01*
X150129816Y-94997738D01*
X150002262Y-94870184D01*
X149849523Y-94774211D01*
X149679254Y-94714631D01*
X149679250Y-94714630D01*
X149610116Y-94706841D01*
X149545702Y-94679774D01*
X149506147Y-94622179D01*
X149500000Y-94583621D01*
X149500000Y-90624500D01*
X149519685Y-90557461D01*
X149572489Y-90511706D01*
X149624000Y-90500500D01*
X151151928Y-90500500D01*
X151218967Y-90520185D01*
G37*
%TD.AperFunction*%
%TD*%
%TA.AperFunction,Conductor*%
%TO.N,+3V3*%
G36*
X132218967Y-90520185D02*
G01*
X132264722Y-90572989D01*
X132274666Y-90642147D01*
X132268970Y-90665454D01*
X132214632Y-90820742D01*
X132214630Y-90820750D01*
X132194435Y-90999996D01*
X132194435Y-91000003D01*
X132214630Y-91179249D01*
X132214631Y-91179254D01*
X132274211Y-91349523D01*
X132296748Y-91385390D01*
X132370184Y-91502262D01*
X132497738Y-91629816D01*
X132650478Y-91725789D01*
X132799491Y-91777931D01*
X132820745Y-91785368D01*
X132820750Y-91785369D01*
X132999996Y-91805565D01*
X133000000Y-91805565D01*
X133000004Y-91805565D01*
X133179249Y-91785369D01*
X133179252Y-91785368D01*
X133179255Y-91785368D01*
X133349522Y-91725789D01*
X133502262Y-91629816D01*
X133629816Y-91502262D01*
X133725789Y-91349522D01*
X133785368Y-91179255D01*
X133785369Y-91179249D01*
X133805565Y-91000003D01*
X133805565Y-90999996D01*
X133785369Y-90820750D01*
X133785367Y-90820742D01*
X133731030Y-90665454D01*
X133727469Y-90595676D01*
X133762198Y-90535048D01*
X133824191Y-90502821D01*
X133848072Y-90500500D01*
X137151928Y-90500500D01*
X137218967Y-90520185D01*
X137264722Y-90572989D01*
X137274666Y-90642147D01*
X137268970Y-90665454D01*
X137214632Y-90820742D01*
X137214630Y-90820750D01*
X137194435Y-90999996D01*
X137194435Y-91000003D01*
X137214630Y-91179249D01*
X137214631Y-91179254D01*
X137274211Y-91349523D01*
X137296748Y-91385390D01*
X137370184Y-91502262D01*
X137497738Y-91629816D01*
X137650478Y-91725789D01*
X137799491Y-91777931D01*
X137820745Y-91785368D01*
X137820750Y-91785369D01*
X137999996Y-91805565D01*
X138000000Y-91805565D01*
X138000004Y-91805565D01*
X138179249Y-91785369D01*
X138179252Y-91785368D01*
X138179255Y-91785368D01*
X138349522Y-91725789D01*
X138502262Y-91629816D01*
X138629816Y-91502262D01*
X138725789Y-91349522D01*
X138785368Y-91179255D01*
X138785369Y-91179249D01*
X138805565Y-91000003D01*
X138805565Y-90999996D01*
X138785369Y-90820750D01*
X138785367Y-90820742D01*
X138731030Y-90665454D01*
X138727469Y-90595676D01*
X138762198Y-90535048D01*
X138824191Y-90502821D01*
X138848072Y-90500500D01*
X142151928Y-90500500D01*
X142218967Y-90520185D01*
X142264722Y-90572989D01*
X142274666Y-90642147D01*
X142268970Y-90665454D01*
X142214632Y-90820742D01*
X142214630Y-90820750D01*
X142194435Y-90999996D01*
X142194435Y-91000003D01*
X142214630Y-91179249D01*
X142214631Y-91179254D01*
X142274211Y-91349523D01*
X142296748Y-91385390D01*
X142370184Y-91502262D01*
X142497738Y-91629816D01*
X142650478Y-91725789D01*
X142799491Y-91777931D01*
X142820745Y-91785368D01*
X142820750Y-91785369D01*
X142999996Y-91805565D01*
X143000000Y-91805565D01*
X143000004Y-91805565D01*
X143179249Y-91785369D01*
X143179252Y-91785368D01*
X143179255Y-91785368D01*
X143349522Y-91725789D01*
X143502262Y-91629816D01*
X143629816Y-91502262D01*
X143725789Y-91349522D01*
X143785368Y-91179255D01*
X143785369Y-91179249D01*
X143805565Y-91000003D01*
X143805565Y-90999996D01*
X143785369Y-90820750D01*
X143785367Y-90820742D01*
X143731030Y-90665454D01*
X143727469Y-90595676D01*
X143762198Y-90535048D01*
X143824191Y-90502821D01*
X143848072Y-90500500D01*
X146151928Y-90500500D01*
X146218967Y-90520185D01*
X146264722Y-90572989D01*
X146274666Y-90642147D01*
X146268970Y-90665454D01*
X146214632Y-90820742D01*
X146214630Y-90820750D01*
X146194435Y-90999996D01*
X146194435Y-91000003D01*
X146214630Y-91179249D01*
X146214631Y-91179254D01*
X146274211Y-91349523D01*
X146296748Y-91385390D01*
X146370184Y-91502262D01*
X146497738Y-91629816D01*
X146650478Y-91725789D01*
X146799491Y-91777931D01*
X146820745Y-91785368D01*
X146820750Y-91785369D01*
X146999996Y-91805565D01*
X147000000Y-91805565D01*
X147000004Y-91805565D01*
X147179249Y-91785369D01*
X147179252Y-91785368D01*
X147179255Y-91785368D01*
X147349522Y-91725789D01*
X147502262Y-91629816D01*
X147629816Y-91502262D01*
X147725789Y-91349522D01*
X147785368Y-91179255D01*
X147785369Y-91179249D01*
X147805565Y-91000003D01*
X147805565Y-90999996D01*
X147785369Y-90820750D01*
X147785367Y-90820742D01*
X147731030Y-90665454D01*
X147727469Y-90595676D01*
X147762198Y-90535048D01*
X147824191Y-90502821D01*
X147848072Y-90500500D01*
X148376000Y-90500500D01*
X148443039Y-90520185D01*
X148488794Y-90572989D01*
X148500000Y-90624500D01*
X148500000Y-94068560D01*
X148480315Y-94135599D01*
X148427511Y-94181354D01*
X148358353Y-94191298D01*
X148294797Y-94162273D01*
X148288319Y-94156241D01*
X148252262Y-94120184D01*
X148099523Y-94024211D01*
X147929254Y-93964631D01*
X147929249Y-93964630D01*
X147750004Y-93944435D01*
X147749996Y-93944435D01*
X147570750Y-93964630D01*
X147570745Y-93964631D01*
X147400476Y-94024211D01*
X147247737Y-94120184D01*
X147120184Y-94247737D01*
X147024205Y-94400485D01*
X147021485Y-94406135D01*
X146974660Y-94457993D01*
X146907232Y-94476302D01*
X146840609Y-94455251D01*
X146822087Y-94440009D01*
X146752262Y-94370184D01*
X146599523Y-94274211D01*
X146429254Y-94214631D01*
X146429249Y-94214630D01*
X146250004Y-94194435D01*
X146249996Y-94194435D01*
X146070750Y-94214630D01*
X146070745Y-94214631D01*
X145900476Y-94274211D01*
X145747737Y-94370184D01*
X145620184Y-94497737D01*
X145524211Y-94650476D01*
X145464631Y-94820745D01*
X145464630Y-94820749D01*
X145460256Y-94859577D01*
X145433189Y-94923991D01*
X145375594Y-94963546D01*
X145305757Y-94965683D01*
X145245851Y-94929725D01*
X145229841Y-94906155D01*
X145229494Y-94906374D01*
X145129815Y-94747737D01*
X145002262Y-94620184D01*
X144849523Y-94524211D01*
X144679254Y-94464631D01*
X144679249Y-94464630D01*
X144500004Y-94444435D01*
X144499996Y-94444435D01*
X144320750Y-94464630D01*
X144320745Y-94464631D01*
X144150476Y-94524211D01*
X143997737Y-94620184D01*
X143870184Y-94747737D01*
X143774211Y-94900476D01*
X143714631Y-95070745D01*
X143714630Y-95070750D01*
X143694435Y-95249996D01*
X143694435Y-95250003D01*
X143714630Y-95429249D01*
X143714631Y-95429254D01*
X143774211Y-95599523D01*
X143818078Y-95669336D01*
X143870184Y-95752262D01*
X143997738Y-95879816D01*
X144086320Y-95935476D01*
X144156374Y-95979494D01*
X144155558Y-95980791D01*
X144201354Y-96022138D01*
X144219667Y-96089565D01*
X144198619Y-96156189D01*
X144144893Y-96200858D01*
X144109577Y-96210256D01*
X144070749Y-96214630D01*
X144070745Y-96214631D01*
X143900476Y-96274211D01*
X143747737Y-96370184D01*
X143620184Y-96497737D01*
X143524211Y-96650476D01*
X143464631Y-96820745D01*
X143464630Y-96820750D01*
X143444435Y-96999996D01*
X143444435Y-97000003D01*
X143464630Y-97179249D01*
X143464631Y-97179254D01*
X143524211Y-97349523D01*
X143570033Y-97422447D01*
X143620184Y-97502262D01*
X143747738Y-97629816D01*
X143780625Y-97650480D01*
X143886375Y-97716928D01*
X143900478Y-97725789D01*
X144070745Y-97785368D01*
X144070750Y-97785369D01*
X144249996Y-97805565D01*
X144250000Y-97805565D01*
X144250004Y-97805565D01*
X144429249Y-97785369D01*
X144429252Y-97785368D01*
X144429255Y-97785368D01*
X144599522Y-97725789D01*
X144752262Y-97629816D01*
X144879816Y-97502262D01*
X144975789Y-97349522D01*
X145035368Y-97179255D01*
X145035369Y-97179249D01*
X145055565Y-97000003D01*
X145055565Y-96999996D01*
X145035369Y-96820750D01*
X145035368Y-96820745D01*
X144975789Y-96650478D01*
X144879816Y-96497738D01*
X144752262Y-96370184D01*
X144613626Y-96283073D01*
X144593626Y-96270506D01*
X144594440Y-96269210D01*
X144548640Y-96227852D01*
X144530332Y-96160424D01*
X144551385Y-96093802D01*
X144605115Y-96049138D01*
X144640418Y-96039743D01*
X144679255Y-96035368D01*
X144849522Y-95975789D01*
X145002262Y-95879816D01*
X145129816Y-95752262D01*
X145225789Y-95599522D01*
X145285368Y-95429255D01*
X145289743Y-95390421D01*
X145316808Y-95326011D01*
X145374402Y-95286454D01*
X145444239Y-95284315D01*
X145504146Y-95320272D01*
X145520159Y-95343843D01*
X145520506Y-95343626D01*
X145603549Y-95475788D01*
X145620184Y-95502262D01*
X145747738Y-95629816D01*
X145900478Y-95725789D01*
X146070745Y-95785368D01*
X146070750Y-95785369D01*
X146249996Y-95805565D01*
X146250000Y-95805565D01*
X146250004Y-95805565D01*
X146429249Y-95785369D01*
X146429252Y-95785368D01*
X146429255Y-95785368D01*
X146599522Y-95725789D01*
X146752262Y-95629816D01*
X146879816Y-95502262D01*
X146975789Y-95349522D01*
X146975791Y-95349514D01*
X146978508Y-95343875D01*
X147025328Y-95292013D01*
X147092754Y-95273697D01*
X147159379Y-95294741D01*
X147177912Y-95309990D01*
X147247738Y-95379816D01*
X147400478Y-95475789D01*
X147570745Y-95535368D01*
X147570750Y-95535369D01*
X147749996Y-95555565D01*
X147750000Y-95555565D01*
X147750004Y-95555565D01*
X147929249Y-95535369D01*
X147929252Y-95535368D01*
X147929255Y-95535368D01*
X148099522Y-95475789D01*
X148252262Y-95379816D01*
X148288319Y-95343759D01*
X148349642Y-95310274D01*
X148419334Y-95315258D01*
X148475267Y-95357130D01*
X148499684Y-95422594D01*
X148500000Y-95431440D01*
X148500000Y-97704314D01*
X148480315Y-97771353D01*
X148427511Y-97817108D01*
X148358353Y-97827052D01*
X148294797Y-97798027D01*
X148258959Y-97745269D01*
X148225790Y-97650480D01*
X148225789Y-97650478D01*
X148129816Y-97497738D01*
X148002262Y-97370184D01*
X147969379Y-97349522D01*
X147849523Y-97274211D01*
X147679254Y-97214631D01*
X147679249Y-97214630D01*
X147500004Y-97194435D01*
X147499996Y-97194435D01*
X147320750Y-97214630D01*
X147320745Y-97214631D01*
X147150476Y-97274211D01*
X146997737Y-97370184D01*
X146870184Y-97497737D01*
X146774211Y-97650476D01*
X146714631Y-97820745D01*
X146714630Y-97820750D01*
X146694435Y-97999996D01*
X146694435Y-98000003D01*
X146714630Y-98179249D01*
X146714631Y-98179254D01*
X146774211Y-98349523D01*
X146833849Y-98444435D01*
X146870184Y-98502262D01*
X146997738Y-98629816D01*
X147088080Y-98686582D01*
X147142633Y-98720860D01*
X147150478Y-98725789D01*
X147213205Y-98747738D01*
X147320745Y-98785368D01*
X147320750Y-98785369D01*
X147499996Y-98805565D01*
X147500000Y-98805565D01*
X147500004Y-98805565D01*
X147679249Y-98785369D01*
X147679252Y-98785368D01*
X147679255Y-98785368D01*
X147849522Y-98725789D01*
X147859534Y-98719497D01*
X147926770Y-98700495D01*
X147993606Y-98720860D01*
X148038822Y-98774126D01*
X148048062Y-98843382D01*
X148030506Y-98890457D01*
X148024212Y-98900473D01*
X147964631Y-99070745D01*
X147964630Y-99070750D01*
X147944435Y-99249996D01*
X147944435Y-99250003D01*
X147964630Y-99429251D01*
X147966405Y-99434322D01*
X147969965Y-99504101D01*
X147937043Y-99562955D01*
X147536319Y-99963681D01*
X147474996Y-99997166D01*
X147448638Y-100000000D01*
X143999999Y-100000000D01*
X142536319Y-101463681D01*
X142474996Y-101497166D01*
X142448638Y-101500000D01*
X137499999Y-101500000D01*
X135536319Y-103463681D01*
X135474996Y-103497166D01*
X135448638Y-103500000D01*
X134989820Y-103500000D01*
X134922781Y-103480315D01*
X134877026Y-103427511D01*
X134867082Y-103358353D01*
X134871889Y-103337682D01*
X134897914Y-103257584D01*
X134899115Y-103250000D01*
X133830330Y-103250000D01*
X133850075Y-103230255D01*
X133899444Y-103144745D01*
X133925000Y-103049370D01*
X133925000Y-102950630D01*
X133899444Y-102855255D01*
X133850075Y-102769745D01*
X133830330Y-102750000D01*
X134899115Y-102750000D01*
X134899115Y-102749999D01*
X134897914Y-102742415D01*
X134844408Y-102577744D01*
X134765804Y-102423475D01*
X134664032Y-102283397D01*
X134541602Y-102160967D01*
X134458551Y-102100628D01*
X134415885Y-102045298D01*
X134409906Y-101975685D01*
X134442511Y-101913889D01*
X134458551Y-101899991D01*
X134541928Y-101839414D01*
X134664414Y-101716928D01*
X134766232Y-101576788D01*
X134844873Y-101422445D01*
X134898402Y-101257701D01*
X134925500Y-101086611D01*
X134925500Y-100924772D01*
X134945185Y-100857733D01*
X134997989Y-100811978D01*
X135035617Y-100801552D01*
X135179249Y-100785369D01*
X135179252Y-100785368D01*
X135179255Y-100785368D01*
X135349522Y-100725789D01*
X135502262Y-100629816D01*
X135629816Y-100502262D01*
X135725789Y-100349522D01*
X135785368Y-100179255D01*
X135787472Y-100160588D01*
X135805565Y-100000000D01*
X135805565Y-99999996D01*
X135785369Y-99820750D01*
X135785368Y-99820745D01*
X135761405Y-99752262D01*
X135725789Y-99650478D01*
X135629816Y-99497738D01*
X135502262Y-99370184D01*
X135349523Y-99274211D01*
X135179254Y-99214631D01*
X135179250Y-99214630D01*
X135035616Y-99198447D01*
X134971202Y-99171380D01*
X134931647Y-99113785D01*
X134925500Y-99075227D01*
X134925500Y-98924772D01*
X134945185Y-98857733D01*
X134997989Y-98811978D01*
X135035617Y-98801552D01*
X135179249Y-98785369D01*
X135179252Y-98785368D01*
X135179255Y-98785368D01*
X135349522Y-98725789D01*
X135502262Y-98629816D01*
X135629816Y-98502262D01*
X135725789Y-98349522D01*
X135785368Y-98179255D01*
X135785369Y-98179249D01*
X135805565Y-98000003D01*
X135805565Y-97999996D01*
X135785369Y-97820750D01*
X135785368Y-97820745D01*
X135752141Y-97725788D01*
X135725789Y-97650478D01*
X135629816Y-97497738D01*
X135502262Y-97370184D01*
X135469379Y-97349522D01*
X135349523Y-97274211D01*
X135179254Y-97214631D01*
X135179250Y-97214630D01*
X135035616Y-97198447D01*
X134971202Y-97171380D01*
X134931647Y-97113785D01*
X134925500Y-97075227D01*
X134925500Y-97000003D01*
X136944435Y-97000003D01*
X136964630Y-97179249D01*
X136964631Y-97179254D01*
X137024211Y-97349523D01*
X137070033Y-97422447D01*
X137120184Y-97502262D01*
X137247738Y-97629816D01*
X137280625Y-97650480D01*
X137386375Y-97716928D01*
X137400478Y-97725789D01*
X137570745Y-97785368D01*
X137570750Y-97785369D01*
X137749996Y-97805565D01*
X137750000Y-97805565D01*
X137750004Y-97805565D01*
X137929249Y-97785369D01*
X137929252Y-97785368D01*
X137929255Y-97785368D01*
X138099522Y-97725789D01*
X138252262Y-97629816D01*
X138379816Y-97502262D01*
X138475789Y-97349522D01*
X138535368Y-97179255D01*
X138535369Y-97179249D01*
X138555565Y-97000003D01*
X138555565Y-96999996D01*
X138535369Y-96820750D01*
X138535368Y-96820745D01*
X138475789Y-96650478D01*
X138379816Y-96497738D01*
X138252262Y-96370184D01*
X138099523Y-96274211D01*
X137929254Y-96214631D01*
X137929249Y-96214630D01*
X137750004Y-96194435D01*
X137749996Y-96194435D01*
X137570750Y-96214630D01*
X137570745Y-96214631D01*
X137400476Y-96274211D01*
X137247737Y-96370184D01*
X137120184Y-96497737D01*
X137024211Y-96650476D01*
X136964631Y-96820745D01*
X136964630Y-96820750D01*
X136944435Y-96999996D01*
X136944435Y-97000003D01*
X134925500Y-97000003D01*
X134925500Y-96913389D01*
X134910827Y-96820750D01*
X134898402Y-96742299D01*
X134844873Y-96577555D01*
X134766232Y-96423212D01*
X134664414Y-96283072D01*
X134556872Y-96175530D01*
X134523387Y-96114207D01*
X134528371Y-96044515D01*
X134570243Y-95988582D01*
X134579457Y-95982310D01*
X134581920Y-95980791D01*
X134643656Y-95942712D01*
X134767712Y-95818656D01*
X134859814Y-95669334D01*
X134914999Y-95502797D01*
X134925500Y-95400009D01*
X134925499Y-94599992D01*
X134922511Y-94570745D01*
X134914999Y-94497203D01*
X134914998Y-94497200D01*
X134884822Y-94406135D01*
X134859814Y-94330666D01*
X134767712Y-94181344D01*
X134643656Y-94057288D01*
X134494334Y-93965186D01*
X134327797Y-93910001D01*
X134327795Y-93910000D01*
X134225010Y-93899500D01*
X132874998Y-93899500D01*
X132874981Y-93899501D01*
X132772203Y-93910000D01*
X132772200Y-93910001D01*
X132605668Y-93965185D01*
X132605663Y-93965187D01*
X132456342Y-94057289D01*
X132332289Y-94181342D01*
X132240187Y-94330663D01*
X132240185Y-94330668D01*
X132217050Y-94400485D01*
X132185001Y-94497203D01*
X132185001Y-94497204D01*
X132185000Y-94497204D01*
X132174500Y-94599983D01*
X132174500Y-95400001D01*
X132174501Y-95400019D01*
X132185000Y-95502796D01*
X132185001Y-95502799D01*
X132217053Y-95599523D01*
X132240186Y-95669334D01*
X132332288Y-95818656D01*
X132456344Y-95942712D01*
X132518080Y-95980791D01*
X132520543Y-95982310D01*
X132567268Y-96034258D01*
X132578489Y-96103221D01*
X132550646Y-96167303D01*
X132543128Y-96175530D01*
X132435585Y-96283073D01*
X132333768Y-96423211D01*
X132255128Y-96577552D01*
X132201597Y-96742302D01*
X132174500Y-96913389D01*
X132174500Y-97086610D01*
X132194776Y-97214632D01*
X132201598Y-97257701D01*
X132255127Y-97422445D01*
X132333768Y-97576788D01*
X132435586Y-97716928D01*
X132558072Y-97839414D01*
X132558078Y-97839418D01*
X132641023Y-97899683D01*
X132683689Y-97955013D01*
X132689667Y-98024626D01*
X132657061Y-98086421D01*
X132641023Y-98100317D01*
X132558078Y-98160581D01*
X132558069Y-98160588D01*
X132435588Y-98283069D01*
X132435588Y-98283070D01*
X132435586Y-98283072D01*
X132391859Y-98343256D01*
X132333768Y-98423211D01*
X132255128Y-98577552D01*
X132201597Y-98742302D01*
X132174500Y-98913389D01*
X132174500Y-99086610D01*
X132200378Y-99250003D01*
X132201598Y-99257701D01*
X132255127Y-99422445D01*
X132333768Y-99576788D01*
X132435586Y-99716928D01*
X132558072Y-99839414D01*
X132558078Y-99839418D01*
X132641023Y-99899683D01*
X132683689Y-99955013D01*
X132689667Y-100024626D01*
X132657061Y-100086421D01*
X132641023Y-100100317D01*
X132558078Y-100160581D01*
X132558069Y-100160588D01*
X132435588Y-100283069D01*
X132435588Y-100283070D01*
X132435586Y-100283072D01*
X132391859Y-100343256D01*
X132333768Y-100423211D01*
X132255128Y-100577552D01*
X132201597Y-100742302D01*
X132174500Y-100913389D01*
X132174500Y-101086610D01*
X132194776Y-101214632D01*
X132201598Y-101257701D01*
X132255127Y-101422445D01*
X132333768Y-101576788D01*
X132435586Y-101716928D01*
X132558072Y-101839414D01*
X132641449Y-101899991D01*
X132684114Y-101955322D01*
X132690093Y-102024935D01*
X132657487Y-102086730D01*
X132641448Y-102100627D01*
X132558404Y-102160961D01*
X132558399Y-102160965D01*
X132435967Y-102283397D01*
X132334195Y-102423475D01*
X132255591Y-102577744D01*
X132202085Y-102742415D01*
X132200884Y-102749999D01*
X132200885Y-102750000D01*
X133269670Y-102750000D01*
X133249925Y-102769745D01*
X133200556Y-102855255D01*
X133175000Y-102950630D01*
X133175000Y-103049370D01*
X133200556Y-103144745D01*
X133249925Y-103230255D01*
X133269670Y-103250000D01*
X132200885Y-103250000D01*
X132202085Y-103257584D01*
X132228111Y-103337682D01*
X132230106Y-103407523D01*
X132194026Y-103467356D01*
X132131325Y-103498184D01*
X132110180Y-103500000D01*
X130624500Y-103500000D01*
X130557461Y-103480315D01*
X130511706Y-103427511D01*
X130500500Y-103376000D01*
X130500500Y-93848071D01*
X130520185Y-93781032D01*
X130572989Y-93735277D01*
X130642147Y-93725333D01*
X130665455Y-93731030D01*
X130820737Y-93785366D01*
X130820743Y-93785367D01*
X130820745Y-93785368D01*
X130820746Y-93785368D01*
X130820750Y-93785369D01*
X130999996Y-93805565D01*
X131000000Y-93805565D01*
X131000004Y-93805565D01*
X131179249Y-93785369D01*
X131179252Y-93785368D01*
X131179255Y-93785368D01*
X131349522Y-93725789D01*
X131502262Y-93629816D01*
X131629816Y-93502262D01*
X131725789Y-93349522D01*
X131785368Y-93179255D01*
X131805565Y-93000000D01*
X131785368Y-92820745D01*
X131725789Y-92650478D01*
X131629816Y-92497738D01*
X131502262Y-92370184D01*
X131499499Y-92368448D01*
X131349523Y-92274211D01*
X131179254Y-92214631D01*
X131179249Y-92214630D01*
X131000004Y-92194435D01*
X130999996Y-92194435D01*
X130820750Y-92214630D01*
X130820742Y-92214632D01*
X130665454Y-92268970D01*
X130595676Y-92272531D01*
X130535048Y-92237802D01*
X130502821Y-92175809D01*
X130500500Y-92151928D01*
X130500500Y-92004427D01*
X130500816Y-91995581D01*
X130511318Y-91848748D01*
X130515130Y-91795436D01*
X130517646Y-91777938D01*
X130559356Y-91586199D01*
X130564333Y-91569248D01*
X130632911Y-91385385D01*
X130640259Y-91369298D01*
X130702815Y-91254734D01*
X130734291Y-91197089D01*
X130743845Y-91182221D01*
X130861448Y-91025123D01*
X130873020Y-91011769D01*
X131011769Y-90873020D01*
X131025123Y-90861448D01*
X131182221Y-90743845D01*
X131197089Y-90734291D01*
X131369298Y-90640258D01*
X131385385Y-90632911D01*
X131569248Y-90564333D01*
X131586199Y-90559356D01*
X131777938Y-90517646D01*
X131795436Y-90515130D01*
X131995582Y-90500816D01*
X132004428Y-90500500D01*
X132065892Y-90500500D01*
X132151928Y-90500500D01*
X132218967Y-90520185D01*
G37*
%TD.AperFunction*%
%TD*%
%TA.AperFunction,Conductor*%
%TO.N,+5V*%
G36*
X141943039Y-102519685D02*
G01*
X141988794Y-102572489D01*
X142000000Y-102624000D01*
X142000000Y-109375500D01*
X141980315Y-109442539D01*
X141927511Y-109488294D01*
X141876000Y-109499500D01*
X138848072Y-109499500D01*
X138781033Y-109479815D01*
X138735278Y-109427011D01*
X138725334Y-109357853D01*
X138731030Y-109334546D01*
X138785367Y-109179257D01*
X138785368Y-109179255D01*
X138785369Y-109179249D01*
X138805565Y-109000003D01*
X138805565Y-108999996D01*
X138785369Y-108820750D01*
X138785368Y-108820745D01*
X138725788Y-108650476D01*
X138629815Y-108497737D01*
X138502262Y-108370184D01*
X138349523Y-108274211D01*
X138179254Y-108214631D01*
X138179249Y-108214630D01*
X138000004Y-108194435D01*
X137999996Y-108194435D01*
X137820750Y-108214630D01*
X137820745Y-108214631D01*
X137650476Y-108274211D01*
X137497737Y-108370184D01*
X137370184Y-108497737D01*
X137274211Y-108650476D01*
X137214631Y-108820745D01*
X137214630Y-108820750D01*
X137194435Y-108999996D01*
X137194435Y-109000003D01*
X137214630Y-109179249D01*
X137214632Y-109179257D01*
X137268970Y-109334546D01*
X137272531Y-109404324D01*
X137237802Y-109464952D01*
X137175809Y-109497179D01*
X137151928Y-109499500D01*
X133848072Y-109499500D01*
X133781033Y-109479815D01*
X133735278Y-109427011D01*
X133725334Y-109357853D01*
X133731030Y-109334546D01*
X133785367Y-109179257D01*
X133785368Y-109179255D01*
X133785369Y-109179249D01*
X133805565Y-109000003D01*
X133805565Y-108999996D01*
X133785369Y-108820750D01*
X133785368Y-108820745D01*
X133725788Y-108650476D01*
X133629815Y-108497737D01*
X133502262Y-108370184D01*
X133349523Y-108274211D01*
X133179254Y-108214631D01*
X133179249Y-108214630D01*
X133000004Y-108194435D01*
X132999996Y-108194435D01*
X132820750Y-108214630D01*
X132820745Y-108214631D01*
X132650476Y-108274211D01*
X132497737Y-108370184D01*
X132370184Y-108497737D01*
X132274211Y-108650476D01*
X132214631Y-108820745D01*
X132214630Y-108820750D01*
X132194435Y-108999996D01*
X132194435Y-109000003D01*
X132214630Y-109179249D01*
X132214632Y-109179257D01*
X132268970Y-109334546D01*
X132272531Y-109404324D01*
X132237802Y-109464952D01*
X132175809Y-109497179D01*
X132151928Y-109499500D01*
X132004428Y-109499500D01*
X131995582Y-109499184D01*
X131967549Y-109497179D01*
X131795442Y-109484869D01*
X131777931Y-109482351D01*
X131586212Y-109440646D01*
X131569236Y-109435662D01*
X131385390Y-109367090D01*
X131369298Y-109359740D01*
X131197095Y-109265711D01*
X131182210Y-109256146D01*
X131079496Y-109179255D01*
X131025132Y-109138558D01*
X131011762Y-109126972D01*
X130873027Y-108988237D01*
X130861441Y-108974867D01*
X130743849Y-108817784D01*
X130734288Y-108802904D01*
X130640259Y-108630701D01*
X130632909Y-108614609D01*
X130589318Y-108497738D01*
X130564334Y-108430755D01*
X130559355Y-108413797D01*
X130517647Y-108222063D01*
X130515130Y-108204556D01*
X130514406Y-108194435D01*
X130506322Y-108081407D01*
X135173500Y-108081407D01*
X135205259Y-108241073D01*
X135205262Y-108241082D01*
X135267562Y-108391490D01*
X135267563Y-108391492D01*
X135358015Y-108526862D01*
X135358018Y-108526866D01*
X135473133Y-108641981D01*
X135473137Y-108641984D01*
X135608505Y-108732435D01*
X135608506Y-108732435D01*
X135608507Y-108732436D01*
X135608509Y-108732437D01*
X135708781Y-108773970D01*
X135758919Y-108794738D01*
X135758921Y-108794738D01*
X135758926Y-108794740D01*
X135918592Y-108826499D01*
X135918595Y-108826500D01*
X135918597Y-108826500D01*
X136081405Y-108826500D01*
X136081406Y-108826499D01*
X136134629Y-108815912D01*
X136241073Y-108794740D01*
X136241076Y-108794738D01*
X136241081Y-108794738D01*
X136391495Y-108732435D01*
X136526863Y-108641984D01*
X136641984Y-108526863D01*
X136732435Y-108391495D01*
X136794738Y-108241081D01*
X136800000Y-108214631D01*
X136826499Y-108081407D01*
X136826500Y-108081405D01*
X136826500Y-107918594D01*
X136826499Y-107918592D01*
X136794740Y-107758926D01*
X136794737Y-107758917D01*
X136732437Y-107608509D01*
X136732436Y-107608507D01*
X136641984Y-107473137D01*
X136641981Y-107473133D01*
X136526866Y-107358018D01*
X136526862Y-107358015D01*
X136391492Y-107267563D01*
X136391490Y-107267562D01*
X136241082Y-107205262D01*
X136241073Y-107205259D01*
X136081406Y-107173500D01*
X136081403Y-107173500D01*
X135918597Y-107173500D01*
X135918594Y-107173500D01*
X135758926Y-107205259D01*
X135758917Y-107205262D01*
X135608509Y-107267562D01*
X135608507Y-107267563D01*
X135473137Y-107358015D01*
X135473133Y-107358018D01*
X135358018Y-107473133D01*
X135358015Y-107473137D01*
X135267563Y-107608507D01*
X135267562Y-107608509D01*
X135205262Y-107758917D01*
X135205259Y-107758926D01*
X135173500Y-107918592D01*
X135173500Y-108081407D01*
X130506322Y-108081407D01*
X130500816Y-108004418D01*
X130500500Y-107995572D01*
X130500500Y-107848071D01*
X130520185Y-107781032D01*
X130572989Y-107735277D01*
X130642147Y-107725333D01*
X130665455Y-107731030D01*
X130820737Y-107785366D01*
X130820743Y-107785367D01*
X130820745Y-107785368D01*
X130820746Y-107785368D01*
X130820750Y-107785369D01*
X130999996Y-107805565D01*
X131000000Y-107805565D01*
X131000004Y-107805565D01*
X131179249Y-107785369D01*
X131179252Y-107785368D01*
X131179255Y-107785368D01*
X131349522Y-107725789D01*
X131502262Y-107629816D01*
X131629816Y-107502262D01*
X131725789Y-107349522D01*
X131785368Y-107179255D01*
X131785369Y-107179249D01*
X131805565Y-107000003D01*
X131805565Y-106999996D01*
X131785369Y-106820750D01*
X131785368Y-106820745D01*
X131725788Y-106650476D01*
X131629815Y-106497737D01*
X131502262Y-106370184D01*
X131349523Y-106274211D01*
X131179254Y-106214631D01*
X131179249Y-106214630D01*
X131000004Y-106194435D01*
X130999996Y-106194435D01*
X130820750Y-106214630D01*
X130820742Y-106214632D01*
X130665454Y-106268970D01*
X130595676Y-106272531D01*
X130535048Y-106237802D01*
X130502821Y-106175809D01*
X130500500Y-106151928D01*
X130500500Y-104624000D01*
X130520185Y-104556961D01*
X130572989Y-104511206D01*
X130624500Y-104500000D01*
X132110180Y-104500000D01*
X132177219Y-104519685D01*
X132222974Y-104572489D01*
X132232918Y-104641647D01*
X132228111Y-104662318D01*
X132202085Y-104742415D01*
X132200884Y-104749999D01*
X132200885Y-104750000D01*
X133269670Y-104750000D01*
X133249925Y-104769745D01*
X133200556Y-104855255D01*
X133175000Y-104950630D01*
X133175000Y-105049370D01*
X133200556Y-105144745D01*
X133249925Y-105230255D01*
X133269670Y-105250000D01*
X132200885Y-105250000D01*
X132202085Y-105257584D01*
X132255591Y-105422255D01*
X132334195Y-105576524D01*
X132435967Y-105716602D01*
X132558397Y-105839032D01*
X132698475Y-105940804D01*
X132852742Y-106019408D01*
X133017415Y-106072914D01*
X133188429Y-106100000D01*
X133300000Y-106100000D01*
X133300000Y-105280330D01*
X133319745Y-105300075D01*
X133405255Y-105349444D01*
X133500630Y-105375000D01*
X133599370Y-105375000D01*
X133694745Y-105349444D01*
X133780255Y-105300075D01*
X133800000Y-105280330D01*
X133800000Y-106100000D01*
X133911571Y-106100000D01*
X134082584Y-106072914D01*
X134247257Y-106019408D01*
X134401524Y-105940804D01*
X134541602Y-105839032D01*
X134664032Y-105716602D01*
X134765804Y-105576524D01*
X134844408Y-105422255D01*
X134897914Y-105257584D01*
X134899115Y-105250000D01*
X133830330Y-105250000D01*
X133850075Y-105230255D01*
X133899444Y-105144745D01*
X133925000Y-105049370D01*
X133925000Y-104950630D01*
X133899444Y-104855255D01*
X133850075Y-104769745D01*
X133830330Y-104750000D01*
X134899115Y-104750000D01*
X134899115Y-104749999D01*
X134897914Y-104742415D01*
X134871889Y-104662318D01*
X134869894Y-104592477D01*
X134905974Y-104532644D01*
X134968675Y-104501816D01*
X134989820Y-104500000D01*
X136000000Y-104500000D01*
X139444435Y-104500000D01*
X139464630Y-104679249D01*
X139464631Y-104679254D01*
X139524211Y-104849523D01*
X139527813Y-104855255D01*
X139620184Y-105002262D01*
X139747738Y-105129816D01*
X139900478Y-105225789D01*
X139991343Y-105257584D01*
X140070745Y-105285368D01*
X140070750Y-105285369D01*
X140249996Y-105305565D01*
X140250000Y-105305565D01*
X140250004Y-105305565D01*
X140429249Y-105285369D01*
X140429252Y-105285368D01*
X140429255Y-105285368D01*
X140599522Y-105225789D01*
X140752262Y-105129816D01*
X140879816Y-105002262D01*
X140975789Y-104849522D01*
X141035368Y-104679255D01*
X141037277Y-104662318D01*
X141055565Y-104500000D01*
X141055565Y-104499996D01*
X141035369Y-104320750D01*
X141035368Y-104320745D01*
X140975788Y-104150476D01*
X140893724Y-104019873D01*
X140879816Y-103997738D01*
X140752262Y-103870184D01*
X140703292Y-103839414D01*
X140599523Y-103774211D01*
X140429254Y-103714631D01*
X140429249Y-103714630D01*
X140250004Y-103694435D01*
X140249996Y-103694435D01*
X140070750Y-103714630D01*
X140070745Y-103714631D01*
X139900476Y-103774211D01*
X139747737Y-103870184D01*
X139620184Y-103997737D01*
X139524211Y-104150476D01*
X139464631Y-104320745D01*
X139464630Y-104320750D01*
X139444435Y-104499996D01*
X139444435Y-104500000D01*
X136000000Y-104500000D01*
X136787794Y-103712205D01*
X136849113Y-103678723D01*
X136918804Y-103683707D01*
X136974738Y-103725578D01*
X136992513Y-103758935D01*
X137024210Y-103849521D01*
X137081836Y-103941232D01*
X137120184Y-104002262D01*
X137247738Y-104129816D01*
X137400478Y-104225789D01*
X137570745Y-104285368D01*
X137570750Y-104285369D01*
X137749996Y-104305565D01*
X137750000Y-104305565D01*
X137750004Y-104305565D01*
X137929249Y-104285369D01*
X137929252Y-104285368D01*
X137929255Y-104285368D01*
X138099522Y-104225789D01*
X138252262Y-104129816D01*
X138379816Y-104002262D01*
X138475789Y-103849522D01*
X138535368Y-103679255D01*
X138555565Y-103500000D01*
X138535368Y-103320745D01*
X138475789Y-103150478D01*
X138379816Y-102997738D01*
X138252262Y-102870184D01*
X138099522Y-102774211D01*
X138099519Y-102774209D01*
X138008935Y-102742512D01*
X137952159Y-102701791D01*
X137926412Y-102636838D01*
X137939868Y-102568276D01*
X137962236Y-102537763D01*
X137963711Y-102536289D01*
X138025045Y-102502825D01*
X138051362Y-102500000D01*
X141876000Y-102500000D01*
X141943039Y-102519685D01*
G37*
%TD.AperFunction*%
%TD*%
M02*
