M48
; DRILL file {KiCad 8.0.1} date 2024-04-17T01:28:12-0400
; FORMAT={-:-/ absolute / inch / decimal}
; #@! TF.CreationDate,2024-04-17T01:28:12-04:00
; #@! TF.GenerationSoftware,Kicad,Pcbnew,8.0.1
; #@! TF.FileFunction,Plated,1,4,PTH
FMAT,2
INCH
; #@! TA.AperFunction,Plated,PTH,ViaDrill
T1C0.0118
; #@! TA.AperFunction,Plated,PTH,ComponentDrill
T2C0.0295
%
G90
G05
T1
X5.1575Y-3.6614
X5.1575Y-4.2126
X5.2362Y-3.5827
X5.2362Y-4.2913
X5.315Y-3.8583
X5.315Y-3.937
X5.4232Y-3.8189
X5.4232Y-3.8583
X5.4232Y-4.0748
X5.4331Y-3.5827
X5.4331Y-4.2913
X5.5217Y-3.8189
X5.5217Y-4.0748
X5.5217Y-4.1142
X5.561Y-3.9173
X5.6299Y-3.5827
X5.6299Y-4.2913
X5.6644Y-4.0502
X5.6791Y-3.8189
X5.689Y-3.75
X5.7185Y-4.1831
X5.7382Y-3.9173
X5.7579Y-3.7402
X5.7776Y-4.0157
X5.7874Y-3.5827
X5.7874Y-4.0551
X5.7874Y-4.2913
X5.8071Y-3.8583
X5.8169Y-3.7303
X5.8563Y-3.9075
X5.8858Y-3.7598
X5.9055Y-3.9567
X5.9055Y-4.0354
X5.9449Y-3.7992
X5.9449Y-4.065
X5.9843Y-3.5827
X5.9843Y-3.8386
X5.9843Y-4.0354
X5.9843Y-4.2913
X6.0531Y-3.8386
X6.0531Y-3.937
X6.0531Y-4.0354
X6.1811Y-3.5827
X6.1811Y-4.2913
X6.2598Y-3.6614
X6.2598Y-4.2126
T2
X5.2579Y-3.7402
X5.2579Y-3.8189
X5.2579Y-3.8976
X5.2579Y-3.9764
X5.2579Y-4.0551
X5.2579Y-4.1339
X6.1594Y-3.8189
X6.1594Y-3.8976
X6.1594Y-3.9764
X6.1594Y-4.0551
M30
