%TF.GenerationSoftware,KiCad,Pcbnew,8.0.1*%
%TF.CreationDate,2024-04-17T01:28:12-04:00*%
%TF.ProjectId,ads1115_board,61647331-3131-4355-9f62-6f6172642e6b,rev?*%
%TF.SameCoordinates,Original*%
%TF.FileFunction,Legend,Bot*%
%TF.FilePolarity,Positive*%
%FSLAX46Y46*%
G04 Gerber Fmt 4.6, Leading zero omitted, Abs format (unit mm)*
G04 Created by KiCad (PCBNEW 8.0.1) date 2024-04-17 01:28:12*
%MOMM*%
%LPD*%
G01*
G04 APERTURE LIST*
G04 Aperture macros list*
%AMRoundRect*
0 Rectangle with rounded corners*
0 $1 Rounding radius*
0 $2 $3 $4 $5 $6 $7 $8 $9 X,Y pos of 4 corners*
0 Add a 4 corners polygon primitive as box body*
4,1,4,$2,$3,$4,$5,$6,$7,$8,$9,$2,$3,0*
0 Add four circle primitives for the rounded corners*
1,1,$1+$1,$2,$3*
1,1,$1+$1,$4,$5*
1,1,$1+$1,$6,$7*
1,1,$1+$1,$8,$9*
0 Add four rect primitives between the rounded corners*
20,1,$1+$1,$2,$3,$4,$5,0*
20,1,$1+$1,$4,$5,$6,$7,0*
20,1,$1+$1,$6,$7,$8,$9,0*
20,1,$1+$1,$8,$9,$2,$3,0*%
G04 Aperture macros list end*
%ADD10C,0.150000*%
%ADD11C,1.300000*%
%ADD12RoundRect,0.250000X0.625000X-0.350000X0.625000X0.350000X-0.625000X0.350000X-0.625000X-0.350000X0*%
%ADD13O,1.750000X1.200000*%
%ADD14RoundRect,0.250000X-0.625000X0.350000X-0.625000X-0.350000X0.625000X-0.350000X0.625000X0.350000X0*%
G04 APERTURE END LIST*
D10*
G36*
X138092877Y-105640930D02*
G01*
X135008400Y-105640930D01*
X135008400Y-104464199D01*
X135119511Y-104464199D01*
X135122771Y-104478536D01*
X135454548Y-105469413D01*
X135454919Y-105474629D01*
X135459083Y-105482959D01*
X135462098Y-105491961D01*
X135465608Y-105496008D01*
X135468005Y-105500802D01*
X135475113Y-105506967D01*
X135481272Y-105514068D01*
X135486061Y-105516462D01*
X135490112Y-105519976D01*
X135499037Y-105522950D01*
X135507445Y-105527155D01*
X135512789Y-105527534D01*
X135517875Y-105529230D01*
X135527255Y-105528563D01*
X135536635Y-105529230D01*
X135541720Y-105527534D01*
X135547065Y-105527155D01*
X135555475Y-105522949D01*
X135564397Y-105519976D01*
X135568444Y-105516465D01*
X135573238Y-105514069D01*
X135579401Y-105506963D01*
X135586505Y-105500802D01*
X135588900Y-105496010D01*
X135592412Y-105491962D01*
X135598406Y-105478536D01*
X135748492Y-105026247D01*
X136071303Y-105026247D01*
X136072595Y-105252851D01*
X136071892Y-105254961D01*
X136072669Y-105265903D01*
X136072744Y-105278974D01*
X136073775Y-105281463D01*
X136073966Y-105284151D01*
X136079221Y-105297883D01*
X136127911Y-105392435D01*
X136131561Y-105401247D01*
X136133944Y-105404151D01*
X136134672Y-105405564D01*
X136136170Y-105406863D01*
X136140888Y-105412612D01*
X136189923Y-105459953D01*
X136195557Y-105466450D01*
X136198702Y-105468429D01*
X136199873Y-105469560D01*
X136201700Y-105470317D01*
X136208000Y-105474282D01*
X136293889Y-105515957D01*
X136295111Y-105517179D01*
X136303970Y-105520848D01*
X136316969Y-105527156D01*
X136319658Y-105527347D01*
X136322147Y-105528378D01*
X136336779Y-105529819D01*
X136563383Y-105528526D01*
X136565493Y-105529230D01*
X136576435Y-105528452D01*
X136589506Y-105528378D01*
X136591995Y-105527346D01*
X136594683Y-105527156D01*
X136608415Y-105521901D01*
X136702969Y-105473209D01*
X136711780Y-105469560D01*
X136714682Y-105467177D01*
X136716096Y-105466450D01*
X136717396Y-105464950D01*
X136723146Y-105460232D01*
X136780092Y-105401247D01*
X136791290Y-105374211D01*
X136791290Y-105344948D01*
X136780091Y-105317912D01*
X136759398Y-105297219D01*
X136732362Y-105286021D01*
X136703099Y-105286021D01*
X136676063Y-105297220D01*
X136664697Y-105306548D01*
X136628052Y-105344504D01*
X136559302Y-105379907D01*
X136356566Y-105381063D01*
X136287945Y-105347767D01*
X136256618Y-105317521D01*
X136221214Y-105248770D01*
X136220300Y-105088498D01*
X137072744Y-105088498D01*
X137083943Y-105115534D01*
X137104635Y-105136226D01*
X137131671Y-105147425D01*
X137146303Y-105148866D01*
X137453100Y-105148296D01*
X137453696Y-105469451D01*
X137464895Y-105496487D01*
X137485587Y-105517179D01*
X137512623Y-105528378D01*
X137541887Y-105528378D01*
X137568923Y-105517179D01*
X137589615Y-105496487D01*
X137600814Y-105469451D01*
X137602255Y-105454819D01*
X137601685Y-105148020D01*
X137922839Y-105147425D01*
X137949875Y-105136226D01*
X137970567Y-105115534D01*
X137981766Y-105088498D01*
X137981766Y-105059234D01*
X137970567Y-105032198D01*
X137949875Y-105011506D01*
X137922839Y-105000307D01*
X137908207Y-104998866D01*
X137601409Y-104999435D01*
X137600814Y-104678282D01*
X137589615Y-104651246D01*
X137568923Y-104630554D01*
X137541887Y-104619355D01*
X137512623Y-104619355D01*
X137485587Y-104630554D01*
X137464895Y-104651246D01*
X137453696Y-104678282D01*
X137452255Y-104692914D01*
X137452824Y-104999711D01*
X137131671Y-105000307D01*
X137104635Y-105011506D01*
X137083943Y-105032198D01*
X137072744Y-105059234D01*
X137072744Y-105088498D01*
X136220300Y-105088498D01*
X136220058Y-105046034D01*
X136253355Y-104977412D01*
X136283599Y-104946085D01*
X136352350Y-104910682D01*
X136555086Y-104909526D01*
X136623708Y-104942823D01*
X136658735Y-104976639D01*
X136659827Y-104978675D01*
X136666490Y-104984126D01*
X136676063Y-104993369D01*
X136679551Y-104994814D01*
X136682475Y-104997206D01*
X136692972Y-105000373D01*
X136703099Y-105004568D01*
X136706875Y-105004568D01*
X136710491Y-105005659D01*
X136721401Y-105004568D01*
X136732362Y-105004568D01*
X136735850Y-105003122D01*
X136739610Y-105002747D01*
X136749273Y-104997562D01*
X136759398Y-104993369D01*
X136762068Y-104990698D01*
X136765397Y-104988913D01*
X136772342Y-104980424D01*
X136780091Y-104972676D01*
X136781535Y-104969189D01*
X136783928Y-104966265D01*
X136787096Y-104955764D01*
X136791290Y-104945640D01*
X136791290Y-104941864D01*
X136792381Y-104938249D01*
X136792359Y-104923546D01*
X136743671Y-104450627D01*
X136743671Y-104440187D01*
X136742240Y-104436733D01*
X136741850Y-104432940D01*
X136736667Y-104423280D01*
X136732472Y-104413151D01*
X136729800Y-104410479D01*
X136728016Y-104407153D01*
X136719533Y-104400212D01*
X136711780Y-104392459D01*
X136708291Y-104391013D01*
X136705368Y-104388622D01*
X136694870Y-104385454D01*
X136684744Y-104381260D01*
X136679138Y-104380707D01*
X136677352Y-104380169D01*
X136675523Y-104380351D01*
X136670112Y-104379819D01*
X136179290Y-104381260D01*
X136152254Y-104392459D01*
X136131562Y-104413151D01*
X136120363Y-104440187D01*
X136120363Y-104469451D01*
X136131562Y-104496487D01*
X136152254Y-104517179D01*
X136179290Y-104528378D01*
X136193922Y-104529819D01*
X136602313Y-104528620D01*
X136628160Y-104779677D01*
X136617764Y-104774633D01*
X136616542Y-104773411D01*
X136607676Y-104769738D01*
X136594683Y-104763434D01*
X136591995Y-104763243D01*
X136589506Y-104762212D01*
X136574874Y-104760771D01*
X136348268Y-104762063D01*
X136346159Y-104761360D01*
X136335216Y-104762137D01*
X136322147Y-104762212D01*
X136319658Y-104763242D01*
X136316969Y-104763434D01*
X136303238Y-104768689D01*
X136208683Y-104817380D01*
X136199873Y-104821030D01*
X136196970Y-104823412D01*
X136195557Y-104824140D01*
X136194257Y-104825638D01*
X136188508Y-104830357D01*
X136141166Y-104879392D01*
X136134672Y-104885025D01*
X136132692Y-104888170D01*
X136131562Y-104889341D01*
X136130804Y-104891168D01*
X136126840Y-104897468D01*
X136085165Y-104983356D01*
X136083943Y-104984579D01*
X136080270Y-104993444D01*
X136073966Y-105006438D01*
X136073775Y-105009125D01*
X136072744Y-105011615D01*
X136071303Y-105026247D01*
X135748492Y-105026247D01*
X135934999Y-104464200D01*
X135932924Y-104435010D01*
X135919838Y-104408836D01*
X135897730Y-104389662D01*
X135869968Y-104380408D01*
X135840778Y-104382483D01*
X135814605Y-104395570D01*
X135795431Y-104417677D01*
X135789437Y-104431102D01*
X135527687Y-105219895D01*
X135259079Y-104417676D01*
X135239905Y-104395569D01*
X135213732Y-104382483D01*
X135184542Y-104380408D01*
X135156779Y-104389662D01*
X135134672Y-104408836D01*
X135121586Y-104435009D01*
X135119511Y-104464199D01*
X135008400Y-104464199D01*
X135008400Y-104268708D01*
X138092877Y-104268708D01*
X138092877Y-105640930D01*
G37*
G36*
X139045258Y-103640930D02*
G01*
X135103049Y-103640930D01*
X135103049Y-103026247D01*
X135214160Y-103026247D01*
X135215452Y-103252851D01*
X135214749Y-103254961D01*
X135215526Y-103265903D01*
X135215601Y-103278974D01*
X135216632Y-103281463D01*
X135216823Y-103284151D01*
X135222078Y-103297883D01*
X135270768Y-103392435D01*
X135274418Y-103401247D01*
X135276801Y-103404151D01*
X135277529Y-103405564D01*
X135279027Y-103406863D01*
X135283745Y-103412612D01*
X135332780Y-103459953D01*
X135338414Y-103466450D01*
X135341559Y-103468429D01*
X135342730Y-103469560D01*
X135344557Y-103470317D01*
X135350857Y-103474282D01*
X135436746Y-103515957D01*
X135437968Y-103517179D01*
X135446827Y-103520848D01*
X135459826Y-103527156D01*
X135462515Y-103527347D01*
X135465004Y-103528378D01*
X135479636Y-103529819D01*
X135753790Y-103528503D01*
X135755969Y-103529230D01*
X135767089Y-103528439D01*
X135779982Y-103528378D01*
X135782471Y-103527346D01*
X135785159Y-103527156D01*
X135798891Y-103521901D01*
X135893445Y-103473209D01*
X135902256Y-103469560D01*
X135905158Y-103467177D01*
X135906572Y-103466450D01*
X135907872Y-103464950D01*
X135913622Y-103460232D01*
X135970568Y-103401247D01*
X135981766Y-103374211D01*
X135981766Y-103344948D01*
X135970567Y-103317912D01*
X135949874Y-103297219D01*
X135922838Y-103286021D01*
X135893575Y-103286021D01*
X135866539Y-103297220D01*
X135855173Y-103306548D01*
X135818528Y-103344504D01*
X135749806Y-103379893D01*
X135499487Y-103381094D01*
X135430802Y-103347767D01*
X135399475Y-103317521D01*
X135364071Y-103248770D01*
X135362915Y-103046034D01*
X135396212Y-102977412D01*
X135426456Y-102946085D01*
X135495313Y-102910627D01*
X135622107Y-102909467D01*
X135632199Y-102910140D01*
X135634523Y-102909353D01*
X135637125Y-102909330D01*
X135648382Y-102904666D01*
X135659920Y-102900765D01*
X135661824Y-102899099D01*
X135664161Y-102898131D01*
X135672771Y-102889520D01*
X135681944Y-102881495D01*
X135683066Y-102879225D01*
X135684853Y-102877439D01*
X135689513Y-102866188D01*
X135694916Y-102855263D01*
X135695084Y-102852739D01*
X135696052Y-102850403D01*
X135696052Y-102838218D01*
X135696862Y-102826065D01*
X135696052Y-102823669D01*
X135696052Y-102821139D01*
X135691388Y-102809881D01*
X135687487Y-102798344D01*
X135685401Y-102795426D01*
X135684853Y-102794103D01*
X135683457Y-102792707D01*
X135678936Y-102786383D01*
X135452859Y-102529446D01*
X135922839Y-102528378D01*
X135949875Y-102517179D01*
X135970567Y-102496487D01*
X135981766Y-102469451D01*
X135981766Y-102464199D01*
X136071892Y-102464199D01*
X136075152Y-102478536D01*
X136406929Y-103469413D01*
X136407300Y-103474629D01*
X136411464Y-103482959D01*
X136414479Y-103491961D01*
X136417989Y-103496008D01*
X136420386Y-103500802D01*
X136427494Y-103506967D01*
X136433653Y-103514068D01*
X136438442Y-103516462D01*
X136442493Y-103519976D01*
X136451418Y-103522950D01*
X136459826Y-103527155D01*
X136465170Y-103527534D01*
X136470256Y-103529230D01*
X136479636Y-103528563D01*
X136489016Y-103529230D01*
X136494101Y-103527534D01*
X136499446Y-103527155D01*
X136507856Y-103522949D01*
X136516778Y-103519976D01*
X136520825Y-103516465D01*
X136525619Y-103514069D01*
X136531782Y-103506963D01*
X136538886Y-103500802D01*
X136541281Y-103496010D01*
X136544793Y-103491962D01*
X136550787Y-103478536D01*
X136700873Y-103026247D01*
X137023684Y-103026247D01*
X137024976Y-103252851D01*
X137024273Y-103254961D01*
X137025050Y-103265903D01*
X137025125Y-103278974D01*
X137026156Y-103281463D01*
X137026347Y-103284151D01*
X137031602Y-103297883D01*
X137080292Y-103392435D01*
X137083942Y-103401247D01*
X137086325Y-103404151D01*
X137087053Y-103405564D01*
X137088551Y-103406863D01*
X137093269Y-103412612D01*
X137142304Y-103459953D01*
X137147938Y-103466450D01*
X137151083Y-103468429D01*
X137152254Y-103469560D01*
X137154081Y-103470317D01*
X137160381Y-103474282D01*
X137246270Y-103515957D01*
X137247492Y-103517179D01*
X137256351Y-103520848D01*
X137269350Y-103527156D01*
X137272039Y-103527347D01*
X137274528Y-103528378D01*
X137289160Y-103529819D01*
X137563314Y-103528503D01*
X137565493Y-103529230D01*
X137576613Y-103528439D01*
X137589506Y-103528378D01*
X137591995Y-103527346D01*
X137594683Y-103527156D01*
X137608415Y-103521901D01*
X137702969Y-103473209D01*
X137711780Y-103469560D01*
X137714682Y-103467177D01*
X137716096Y-103466450D01*
X137717396Y-103464950D01*
X137723146Y-103460232D01*
X137780092Y-103401247D01*
X137791290Y-103374211D01*
X137791290Y-103344948D01*
X137780091Y-103317912D01*
X137759398Y-103297219D01*
X137732362Y-103286021D01*
X137703099Y-103286021D01*
X137676063Y-103297220D01*
X137664697Y-103306548D01*
X137628052Y-103344504D01*
X137559330Y-103379893D01*
X137309011Y-103381094D01*
X137240326Y-103347767D01*
X137208999Y-103317521D01*
X137173595Y-103248770D01*
X137172681Y-103088498D01*
X138025125Y-103088498D01*
X138036324Y-103115534D01*
X138057016Y-103136226D01*
X138084052Y-103147425D01*
X138098684Y-103148866D01*
X138405481Y-103148296D01*
X138406077Y-103469451D01*
X138417276Y-103496487D01*
X138437968Y-103517179D01*
X138465004Y-103528378D01*
X138494268Y-103528378D01*
X138521304Y-103517179D01*
X138541996Y-103496487D01*
X138553195Y-103469451D01*
X138554636Y-103454819D01*
X138554066Y-103148020D01*
X138875220Y-103147425D01*
X138902256Y-103136226D01*
X138922948Y-103115534D01*
X138934147Y-103088498D01*
X138934147Y-103059234D01*
X138922948Y-103032198D01*
X138902256Y-103011506D01*
X138875220Y-103000307D01*
X138860588Y-102998866D01*
X138553790Y-102999435D01*
X138553195Y-102678282D01*
X138541996Y-102651246D01*
X138521304Y-102630554D01*
X138494268Y-102619355D01*
X138465004Y-102619355D01*
X138437968Y-102630554D01*
X138417276Y-102651246D01*
X138406077Y-102678282D01*
X138404636Y-102692914D01*
X138405205Y-102999711D01*
X138084052Y-103000307D01*
X138057016Y-103011506D01*
X138036324Y-103032198D01*
X138025125Y-103059234D01*
X138025125Y-103088498D01*
X137172681Y-103088498D01*
X137172439Y-103046034D01*
X137205736Y-102977412D01*
X137235980Y-102946085D01*
X137304837Y-102910627D01*
X137431631Y-102909467D01*
X137441723Y-102910140D01*
X137444047Y-102909353D01*
X137446649Y-102909330D01*
X137457906Y-102904666D01*
X137469444Y-102900765D01*
X137471348Y-102899099D01*
X137473685Y-102898131D01*
X137482295Y-102889520D01*
X137491468Y-102881495D01*
X137492590Y-102879225D01*
X137494377Y-102877439D01*
X137499037Y-102866188D01*
X137504440Y-102855263D01*
X137504608Y-102852739D01*
X137505576Y-102850403D01*
X137505576Y-102838218D01*
X137506386Y-102826065D01*
X137505576Y-102823669D01*
X137505576Y-102821139D01*
X137500912Y-102809881D01*
X137497011Y-102798344D01*
X137494925Y-102795426D01*
X137494377Y-102794103D01*
X137492981Y-102792707D01*
X137488460Y-102786383D01*
X137262383Y-102529446D01*
X137732363Y-102528378D01*
X137759399Y-102517179D01*
X137780091Y-102496487D01*
X137791290Y-102469451D01*
X137791290Y-102440187D01*
X137780091Y-102413151D01*
X137759399Y-102392459D01*
X137732363Y-102381260D01*
X137717731Y-102379819D01*
X137100567Y-102381222D01*
X137088978Y-102380450D01*
X137086600Y-102381254D01*
X137084052Y-102381260D01*
X137072794Y-102385923D01*
X137061257Y-102389825D01*
X137059352Y-102391490D01*
X137057016Y-102392459D01*
X137048405Y-102401069D01*
X137039233Y-102409095D01*
X137038110Y-102411364D01*
X137036324Y-102413151D01*
X137031663Y-102424401D01*
X137026261Y-102435327D01*
X137026092Y-102437850D01*
X137025125Y-102440187D01*
X137025125Y-102452371D01*
X137024315Y-102464525D01*
X137025125Y-102466920D01*
X137025125Y-102469451D01*
X137029788Y-102480708D01*
X137033690Y-102492246D01*
X137035775Y-102495163D01*
X137036324Y-102496487D01*
X137037719Y-102497882D01*
X137042241Y-102504207D01*
X137270276Y-102763368D01*
X137269350Y-102763434D01*
X137255619Y-102768689D01*
X137161064Y-102817380D01*
X137152254Y-102821030D01*
X137149351Y-102823412D01*
X137147938Y-102824140D01*
X137146638Y-102825638D01*
X137140889Y-102830357D01*
X137093547Y-102879392D01*
X137087053Y-102885025D01*
X137085073Y-102888170D01*
X137083943Y-102889341D01*
X137083185Y-102891168D01*
X137079221Y-102897468D01*
X137037546Y-102983356D01*
X137036324Y-102984579D01*
X137032651Y-102993444D01*
X137026347Y-103006438D01*
X137026156Y-103009125D01*
X137025125Y-103011615D01*
X137023684Y-103026247D01*
X136700873Y-103026247D01*
X136887380Y-102464200D01*
X136885305Y-102435010D01*
X136872219Y-102408836D01*
X136850111Y-102389662D01*
X136822349Y-102380408D01*
X136793159Y-102382483D01*
X136766986Y-102395570D01*
X136747812Y-102417677D01*
X136741818Y-102431102D01*
X136480068Y-103219895D01*
X136211460Y-102417676D01*
X136192286Y-102395569D01*
X136166113Y-102382483D01*
X136136923Y-102380408D01*
X136109160Y-102389662D01*
X136087053Y-102408836D01*
X136073967Y-102435009D01*
X136071892Y-102464199D01*
X135981766Y-102464199D01*
X135981766Y-102440187D01*
X135970567Y-102413151D01*
X135949875Y-102392459D01*
X135922839Y-102381260D01*
X135908207Y-102379819D01*
X135291043Y-102381222D01*
X135279454Y-102380450D01*
X135277076Y-102381254D01*
X135274528Y-102381260D01*
X135263270Y-102385923D01*
X135251733Y-102389825D01*
X135249828Y-102391490D01*
X135247492Y-102392459D01*
X135238881Y-102401069D01*
X135229709Y-102409095D01*
X135228586Y-102411364D01*
X135226800Y-102413151D01*
X135222139Y-102424401D01*
X135216737Y-102435327D01*
X135216568Y-102437850D01*
X135215601Y-102440187D01*
X135215601Y-102452371D01*
X135214791Y-102464525D01*
X135215601Y-102466920D01*
X135215601Y-102469451D01*
X135220264Y-102480708D01*
X135224166Y-102492246D01*
X135226251Y-102495163D01*
X135226800Y-102496487D01*
X135228195Y-102497882D01*
X135232717Y-102504207D01*
X135460752Y-102763368D01*
X135459826Y-102763434D01*
X135446095Y-102768689D01*
X135351540Y-102817380D01*
X135342730Y-102821030D01*
X135339827Y-102823412D01*
X135338414Y-102824140D01*
X135337114Y-102825638D01*
X135331365Y-102830357D01*
X135284023Y-102879392D01*
X135277529Y-102885025D01*
X135275549Y-102888170D01*
X135274419Y-102889341D01*
X135273661Y-102891168D01*
X135269697Y-102897468D01*
X135228022Y-102983356D01*
X135226800Y-102984579D01*
X135223127Y-102993444D01*
X135216823Y-103006438D01*
X135216632Y-103009125D01*
X135215601Y-103011615D01*
X135214160Y-103026247D01*
X135103049Y-103026247D01*
X135103049Y-102268708D01*
X139045258Y-102268708D01*
X139045258Y-103640930D01*
G37*
G36*
X136644045Y-101380239D02*
G01*
X136495378Y-101381086D01*
X136378782Y-101343348D01*
X136304574Y-101270558D01*
X136265882Y-101195421D01*
X136221264Y-101021991D01*
X136220122Y-100897219D01*
X136262148Y-100724096D01*
X136300873Y-100644286D01*
X136375152Y-100568561D01*
X136488228Y-100529770D01*
X136642836Y-100528888D01*
X136644045Y-101380239D01*
G37*
G36*
X137643368Y-100903898D02*
G01*
X137485010Y-100904475D01*
X137481261Y-100903645D01*
X137476375Y-100904507D01*
X137356711Y-100904943D01*
X137287945Y-100871576D01*
X137256617Y-100841331D01*
X137221159Y-100772474D01*
X137220174Y-100664842D01*
X137253355Y-100596460D01*
X137283599Y-100565133D01*
X137352287Y-100529762D01*
X137642835Y-100528704D01*
X137643368Y-100903898D01*
G37*
G36*
X137903842Y-101640930D02*
G01*
X135007830Y-101640930D01*
X135007830Y-100453145D01*
X135118941Y-100453145D01*
X135124008Y-100481967D01*
X135130647Y-100495085D01*
X135452311Y-100998036D01*
X135453696Y-101469451D01*
X135464895Y-101496487D01*
X135485587Y-101517179D01*
X135512623Y-101528378D01*
X135541887Y-101528378D01*
X135568923Y-101517179D01*
X135589615Y-101496487D01*
X135600814Y-101469451D01*
X135602255Y-101454819D01*
X135600926Y-101002473D01*
X135676328Y-100883390D01*
X136071303Y-100883390D01*
X136072570Y-101021969D01*
X136071392Y-101029893D01*
X136072726Y-101038917D01*
X136072744Y-101040879D01*
X136073166Y-101041900D01*
X136073542Y-101044437D01*
X136121059Y-101229135D01*
X136121585Y-101236532D01*
X136125787Y-101247514D01*
X136126108Y-101248759D01*
X136126430Y-101249194D01*
X136126840Y-101250264D01*
X136175530Y-101344816D01*
X136179180Y-101353628D01*
X136181563Y-101356532D01*
X136182291Y-101357945D01*
X136183789Y-101359244D01*
X136188508Y-101364994D01*
X136276677Y-101451479D01*
X136277529Y-101453183D01*
X136285173Y-101459813D01*
X136295111Y-101469561D01*
X136297601Y-101470592D01*
X136299636Y-101472357D01*
X136313062Y-101478351D01*
X136455643Y-101524500D01*
X136465004Y-101528378D01*
X136468767Y-101528748D01*
X136470255Y-101529230D01*
X136472229Y-101529089D01*
X136479636Y-101529819D01*
X136732363Y-101528378D01*
X136759399Y-101517179D01*
X136780091Y-101496487D01*
X136791290Y-101469451D01*
X136792731Y-101454819D01*
X136791581Y-100645295D01*
X137071303Y-100645295D01*
X137072507Y-100776924D01*
X137071892Y-100778771D01*
X137072617Y-100788985D01*
X137072744Y-100802784D01*
X137073775Y-100805273D01*
X137073966Y-100807961D01*
X137079221Y-100821693D01*
X137127913Y-100916249D01*
X137131562Y-100925058D01*
X137133944Y-100927960D01*
X137134672Y-100929374D01*
X137136170Y-100930673D01*
X137140889Y-100936423D01*
X137189924Y-100983764D01*
X137195557Y-100990259D01*
X137198702Y-100992238D01*
X137199873Y-100993369D01*
X137201700Y-100994126D01*
X137208000Y-100998091D01*
X137293889Y-101039766D01*
X137295111Y-101040988D01*
X137303970Y-101044657D01*
X137316969Y-101050965D01*
X137319658Y-101051156D01*
X137322147Y-101052187D01*
X137336060Y-101053557D01*
X137077650Y-101424623D01*
X137071321Y-101453194D01*
X137076406Y-101482011D01*
X137092133Y-101506690D01*
X137116107Y-101523472D01*
X137144678Y-101529801D01*
X137173495Y-101524716D01*
X137198174Y-101508989D01*
X137207745Y-101497829D01*
X137517545Y-101052969D01*
X137643579Y-101052510D01*
X137644172Y-101469451D01*
X137655371Y-101496487D01*
X137676063Y-101517179D01*
X137703099Y-101528378D01*
X137732363Y-101528378D01*
X137759399Y-101517179D01*
X137780091Y-101496487D01*
X137791290Y-101469451D01*
X137792731Y-101454819D01*
X137791290Y-100440187D01*
X137780091Y-100413151D01*
X137759399Y-100392459D01*
X137732363Y-100381260D01*
X137717731Y-100379819D01*
X137348427Y-100381164D01*
X137346159Y-100380408D01*
X137334817Y-100381213D01*
X137322147Y-100381260D01*
X137319658Y-100382290D01*
X137316969Y-100382482D01*
X137303238Y-100387737D01*
X137208683Y-100436428D01*
X137199873Y-100440078D01*
X137196970Y-100442460D01*
X137195557Y-100443188D01*
X137194257Y-100444686D01*
X137188508Y-100449405D01*
X137141166Y-100498440D01*
X137134672Y-100504073D01*
X137132692Y-100507218D01*
X137131562Y-100508389D01*
X137130804Y-100510216D01*
X137126840Y-100516516D01*
X137085165Y-100602404D01*
X137083943Y-100603627D01*
X137080270Y-100612492D01*
X137073966Y-100625486D01*
X137073775Y-100628173D01*
X137072744Y-100630663D01*
X137071303Y-100645295D01*
X136791581Y-100645295D01*
X136791290Y-100440187D01*
X136780091Y-100413151D01*
X136759399Y-100392459D01*
X136732363Y-100381260D01*
X136717731Y-100379819D01*
X136480960Y-100381169D01*
X136470255Y-100380408D01*
X136466546Y-100381251D01*
X136465004Y-100381260D01*
X136463173Y-100382018D01*
X136455918Y-100383668D01*
X136324128Y-100428879D01*
X136322148Y-100428879D01*
X136312598Y-100432834D01*
X136299636Y-100437281D01*
X136297601Y-100439045D01*
X136295111Y-100440077D01*
X136283746Y-100449405D01*
X136189814Y-100545167D01*
X136182291Y-100551692D01*
X136180278Y-100554888D01*
X136179181Y-100556008D01*
X136178423Y-100557835D01*
X136174459Y-100564135D01*
X136130192Y-100655366D01*
X136126108Y-100660878D01*
X136122170Y-100671897D01*
X136121585Y-100673105D01*
X136121546Y-100673644D01*
X136121161Y-100674724D01*
X136075920Y-100861089D01*
X136072744Y-100868758D01*
X136071846Y-100877872D01*
X136071392Y-100879744D01*
X136071554Y-100880836D01*
X136071303Y-100883390D01*
X135676328Y-100883390D01*
X135930503Y-100481966D01*
X135935569Y-100453145D01*
X135929221Y-100424579D01*
X135912425Y-100400615D01*
X135887736Y-100384904D01*
X135858914Y-100379838D01*
X135830348Y-100386186D01*
X135806385Y-100402982D01*
X135797313Y-100414553D01*
X135527775Y-100840240D01*
X135248125Y-100402983D01*
X135224162Y-100386186D01*
X135195596Y-100379838D01*
X135166774Y-100384905D01*
X135142086Y-100400616D01*
X135125289Y-100424579D01*
X135118941Y-100453145D01*
X135007830Y-100453145D01*
X135007830Y-100268708D01*
X137903842Y-100268708D01*
X137903842Y-101640930D01*
G37*
G36*
X137856223Y-99640930D02*
G01*
X135009252Y-99640930D01*
X135009252Y-99469451D01*
X135120363Y-99469451D01*
X135131562Y-99496487D01*
X135152254Y-99517179D01*
X135179290Y-99528378D01*
X135193922Y-99529819D01*
X135684744Y-99528378D01*
X135711780Y-99517179D01*
X135732472Y-99496487D01*
X135743671Y-99469451D01*
X135745112Y-99454819D01*
X135744998Y-99374211D01*
X136025125Y-99374211D01*
X136036323Y-99401247D01*
X136045650Y-99412612D01*
X136086475Y-99452027D01*
X136087053Y-99453183D01*
X136093144Y-99458466D01*
X136104635Y-99469560D01*
X136107123Y-99470590D01*
X136109160Y-99472357D01*
X136122586Y-99478351D01*
X136265167Y-99524500D01*
X136274528Y-99528378D01*
X136278291Y-99528748D01*
X136279779Y-99529230D01*
X136281753Y-99529089D01*
X136289160Y-99529819D01*
X136384477Y-99528568D01*
X136393778Y-99529230D01*
X136397432Y-99528398D01*
X136399030Y-99528378D01*
X136400861Y-99527619D01*
X136408115Y-99525970D01*
X136539905Y-99480759D01*
X136541887Y-99480759D01*
X136551439Y-99476802D01*
X136564397Y-99472357D01*
X136566432Y-99470591D01*
X136568923Y-99469560D01*
X136580288Y-99460233D01*
X136674220Y-99364468D01*
X136681743Y-99357945D01*
X136683755Y-99354748D01*
X136684854Y-99353628D01*
X136685611Y-99351798D01*
X136689575Y-99345502D01*
X136733843Y-99254269D01*
X136737926Y-99248759D01*
X136741861Y-99237743D01*
X136742449Y-99236533D01*
X136742487Y-99235992D01*
X136742873Y-99234913D01*
X136758848Y-99169104D01*
X137023684Y-99169104D01*
X137024789Y-99253410D01*
X137024273Y-99254961D01*
X137024931Y-99264230D01*
X137025125Y-99278974D01*
X137026156Y-99281463D01*
X137026347Y-99284151D01*
X137031602Y-99297883D01*
X137080292Y-99392435D01*
X137083942Y-99401247D01*
X137086325Y-99404151D01*
X137087053Y-99405564D01*
X137088551Y-99406863D01*
X137093269Y-99412612D01*
X137142304Y-99459953D01*
X137147938Y-99466450D01*
X137151083Y-99468429D01*
X137152254Y-99469560D01*
X137154081Y-99470317D01*
X137160381Y-99474282D01*
X137246270Y-99515957D01*
X137247492Y-99517179D01*
X137256351Y-99520848D01*
X137269350Y-99527156D01*
X137272039Y-99527347D01*
X137274528Y-99528378D01*
X137289160Y-99529819D01*
X137525929Y-99528468D01*
X137536635Y-99529230D01*
X137540343Y-99528386D01*
X137541887Y-99528378D01*
X137543718Y-99527619D01*
X137550972Y-99525970D01*
X137707254Y-99472357D01*
X137729361Y-99453183D01*
X137742448Y-99427010D01*
X137744523Y-99397820D01*
X137735269Y-99370058D01*
X137716095Y-99347950D01*
X137689921Y-99334864D01*
X137660731Y-99332789D01*
X137646394Y-99336049D01*
X137518661Y-99379867D01*
X137308947Y-99381063D01*
X137240326Y-99347767D01*
X137208999Y-99317521D01*
X137173476Y-99248540D01*
X137172687Y-99188379D01*
X137205736Y-99120269D01*
X137235980Y-99088942D01*
X137310461Y-99050588D01*
X137492048Y-99003871D01*
X137499445Y-99003346D01*
X137510427Y-98999143D01*
X137511672Y-98998823D01*
X137512107Y-98998500D01*
X137513177Y-98998091D01*
X137607733Y-98949398D01*
X137616542Y-98945750D01*
X137619444Y-98943367D01*
X137620858Y-98942640D01*
X137622157Y-98941141D01*
X137627907Y-98936423D01*
X137675248Y-98887387D01*
X137681743Y-98881755D01*
X137683722Y-98878609D01*
X137684853Y-98877439D01*
X137685610Y-98875611D01*
X137689575Y-98869312D01*
X137731250Y-98783422D01*
X137732472Y-98782201D01*
X137736141Y-98773341D01*
X137742449Y-98760343D01*
X137742640Y-98757653D01*
X137743671Y-98755165D01*
X137745112Y-98740533D01*
X137744006Y-98656225D01*
X137744523Y-98654675D01*
X137743864Y-98645404D01*
X137743671Y-98630663D01*
X137742640Y-98628174D01*
X137742449Y-98625485D01*
X137737194Y-98611754D01*
X137688502Y-98517199D01*
X137684853Y-98508389D01*
X137682470Y-98505486D01*
X137681743Y-98504073D01*
X137680244Y-98502773D01*
X137675526Y-98497024D01*
X137626490Y-98449682D01*
X137620858Y-98443188D01*
X137617712Y-98441208D01*
X137616542Y-98440078D01*
X137614714Y-98439320D01*
X137608415Y-98435356D01*
X137522526Y-98393681D01*
X137521304Y-98392459D01*
X137512438Y-98388786D01*
X137499445Y-98382482D01*
X137496757Y-98382291D01*
X137494268Y-98381260D01*
X137479636Y-98379819D01*
X137242865Y-98381169D01*
X137232160Y-98380408D01*
X137228451Y-98381251D01*
X137226909Y-98381260D01*
X137225078Y-98382018D01*
X137217823Y-98383668D01*
X137061541Y-98437281D01*
X137039434Y-98456455D01*
X137026348Y-98482628D01*
X137024273Y-98511818D01*
X137033527Y-98539581D01*
X137052701Y-98561688D01*
X137078874Y-98574774D01*
X137108064Y-98576849D01*
X137122401Y-98573589D01*
X137250133Y-98529770D01*
X137459848Y-98528574D01*
X137528470Y-98561871D01*
X137559797Y-98592115D01*
X137595319Y-98661096D01*
X137596108Y-98721257D01*
X137563060Y-98789366D01*
X137532815Y-98820694D01*
X137458334Y-98859048D01*
X137276747Y-98905765D01*
X137269350Y-98906291D01*
X137258367Y-98910494D01*
X137257124Y-98910814D01*
X137256688Y-98911136D01*
X137255619Y-98911546D01*
X137161064Y-98960237D01*
X137152254Y-98963887D01*
X137149351Y-98966269D01*
X137147938Y-98966997D01*
X137146638Y-98968495D01*
X137140889Y-98973214D01*
X137093547Y-99022249D01*
X137087053Y-99027882D01*
X137085073Y-99031027D01*
X137083943Y-99032198D01*
X137083185Y-99034025D01*
X137079221Y-99040325D01*
X137037546Y-99126213D01*
X137036324Y-99127436D01*
X137032651Y-99136301D01*
X137026347Y-99149295D01*
X137026156Y-99151982D01*
X137025125Y-99154472D01*
X137023684Y-99169104D01*
X136758848Y-99169104D01*
X136788113Y-99048547D01*
X136791290Y-99040879D01*
X136792187Y-99031764D01*
X136792642Y-99029893D01*
X136792479Y-99028800D01*
X136792731Y-99026247D01*
X136791463Y-98887667D01*
X136792642Y-98879744D01*
X136791307Y-98870719D01*
X136791290Y-98868758D01*
X136790867Y-98867736D01*
X136790492Y-98865200D01*
X136742974Y-98680501D01*
X136742449Y-98673104D01*
X136738245Y-98662121D01*
X136737926Y-98660878D01*
X136737603Y-98660442D01*
X136737194Y-98659373D01*
X136688505Y-98564823D01*
X136684854Y-98556008D01*
X136682469Y-98553102D01*
X136681743Y-98551692D01*
X136680246Y-98550393D01*
X136675526Y-98544643D01*
X136587355Y-98458158D01*
X136586504Y-98456455D01*
X136578861Y-98449826D01*
X136568923Y-98440078D01*
X136566432Y-98439046D01*
X136564397Y-98437281D01*
X136550972Y-98431287D01*
X136408393Y-98385138D01*
X136399030Y-98381260D01*
X136395264Y-98380889D01*
X136393778Y-98380408D01*
X136391803Y-98380548D01*
X136384398Y-98379819D01*
X136289079Y-98381069D01*
X136279779Y-98380408D01*
X136276124Y-98381239D01*
X136274528Y-98381260D01*
X136272697Y-98382018D01*
X136265442Y-98383668D01*
X136133652Y-98428879D01*
X136131671Y-98428879D01*
X136122123Y-98432833D01*
X136109160Y-98437281D01*
X136107123Y-98439047D01*
X136104635Y-98440078D01*
X136093270Y-98449405D01*
X136036324Y-98508389D01*
X136025125Y-98535426D01*
X136025125Y-98564688D01*
X136036324Y-98591725D01*
X136057016Y-98612417D01*
X136084053Y-98623616D01*
X136113315Y-98623616D01*
X136140352Y-98612417D01*
X136151717Y-98603090D01*
X136185239Y-98568367D01*
X136297945Y-98529703D01*
X136369324Y-98528767D01*
X136485251Y-98566290D01*
X136559460Y-98639080D01*
X136598151Y-98714215D01*
X136642769Y-98887645D01*
X136643911Y-99012417D01*
X136601885Y-99185540D01*
X136563160Y-99265350D01*
X136488883Y-99341076D01*
X136375611Y-99379934D01*
X136304233Y-99380870D01*
X136188041Y-99343262D01*
X136140352Y-99297220D01*
X136113316Y-99286021D01*
X136084053Y-99286021D01*
X136057017Y-99297219D01*
X136036324Y-99317912D01*
X136025125Y-99344948D01*
X136025125Y-99374211D01*
X135744998Y-99374211D01*
X135743671Y-98440187D01*
X135732472Y-98413151D01*
X135711780Y-98392459D01*
X135684744Y-98381260D01*
X135655480Y-98381260D01*
X135628444Y-98392459D01*
X135607752Y-98413151D01*
X135596553Y-98440187D01*
X135595112Y-98454819D01*
X135596426Y-99380035D01*
X135179290Y-99381260D01*
X135152254Y-99392459D01*
X135131562Y-99413151D01*
X135120363Y-99440187D01*
X135120363Y-99469451D01*
X135009252Y-99469451D01*
X135009252Y-98268708D01*
X137856223Y-98268708D01*
X137856223Y-99640930D01*
G37*
G36*
X136644045Y-97380239D02*
G01*
X136495378Y-97381086D01*
X136378782Y-97343348D01*
X136304574Y-97270558D01*
X136265882Y-97195421D01*
X136221264Y-97021991D01*
X136220122Y-96897219D01*
X136262148Y-96724096D01*
X136300873Y-96644286D01*
X136375152Y-96568561D01*
X136488228Y-96529770D01*
X136642836Y-96528888D01*
X136644045Y-97380239D01*
G37*
G36*
X135662317Y-97094406D02*
G01*
X135392277Y-97095199D01*
X135526822Y-96689742D01*
X135662317Y-97094406D01*
G37*
G36*
X137903842Y-97640930D02*
G01*
X135008400Y-97640930D01*
X135008400Y-97445439D01*
X135119511Y-97445439D01*
X135121586Y-97474629D01*
X135134672Y-97500802D01*
X135156779Y-97519976D01*
X135184542Y-97529230D01*
X135213732Y-97527155D01*
X135239905Y-97514069D01*
X135259079Y-97491962D01*
X135265073Y-97478536D01*
X135342918Y-97243946D01*
X135712024Y-97242862D01*
X135795431Y-97491961D01*
X135814605Y-97514068D01*
X135840778Y-97527155D01*
X135869968Y-97529230D01*
X135897730Y-97519976D01*
X135919838Y-97500802D01*
X135932924Y-97474628D01*
X135934999Y-97445438D01*
X135931739Y-97431102D01*
X135748347Y-96883390D01*
X136071303Y-96883390D01*
X136072570Y-97021969D01*
X136071392Y-97029893D01*
X136072726Y-97038917D01*
X136072744Y-97040879D01*
X136073166Y-97041900D01*
X136073542Y-97044437D01*
X136121059Y-97229135D01*
X136121585Y-97236532D01*
X136125787Y-97247514D01*
X136126108Y-97248759D01*
X136126430Y-97249194D01*
X136126840Y-97250264D01*
X136175530Y-97344816D01*
X136179180Y-97353628D01*
X136181563Y-97356532D01*
X136182291Y-97357945D01*
X136183789Y-97359244D01*
X136188508Y-97364994D01*
X136276677Y-97451479D01*
X136277529Y-97453183D01*
X136285173Y-97459813D01*
X136295111Y-97469561D01*
X136297601Y-97470592D01*
X136299636Y-97472357D01*
X136313062Y-97478351D01*
X136455643Y-97524500D01*
X136465004Y-97528378D01*
X136468767Y-97528748D01*
X136470255Y-97529230D01*
X136472229Y-97529089D01*
X136479636Y-97529819D01*
X136732363Y-97528378D01*
X136759399Y-97517179D01*
X136780091Y-97496487D01*
X136791290Y-97469451D01*
X136792731Y-97454819D01*
X136792325Y-97169104D01*
X137071303Y-97169104D01*
X137072408Y-97253410D01*
X137071892Y-97254961D01*
X137072550Y-97264230D01*
X137072744Y-97278974D01*
X137073775Y-97281463D01*
X137073966Y-97284151D01*
X137079221Y-97297883D01*
X137127911Y-97392435D01*
X137131561Y-97401247D01*
X137133944Y-97404151D01*
X137134672Y-97405564D01*
X137136170Y-97406863D01*
X137140888Y-97412612D01*
X137189923Y-97459953D01*
X137195557Y-97466450D01*
X137198702Y-97468429D01*
X137199873Y-97469560D01*
X137201700Y-97470317D01*
X137208000Y-97474282D01*
X137293889Y-97515957D01*
X137295111Y-97517179D01*
X137303970Y-97520848D01*
X137316969Y-97527156D01*
X137319658Y-97527347D01*
X137322147Y-97528378D01*
X137336779Y-97529819D01*
X137573548Y-97528468D01*
X137584254Y-97529230D01*
X137587962Y-97528386D01*
X137589506Y-97528378D01*
X137591337Y-97527619D01*
X137598591Y-97525970D01*
X137754873Y-97472357D01*
X137776980Y-97453183D01*
X137790067Y-97427010D01*
X137792142Y-97397820D01*
X137782888Y-97370058D01*
X137763714Y-97347950D01*
X137737540Y-97334864D01*
X137708350Y-97332789D01*
X137694013Y-97336049D01*
X137566280Y-97379867D01*
X137356566Y-97381063D01*
X137287945Y-97347767D01*
X137256618Y-97317521D01*
X137221095Y-97248540D01*
X137220306Y-97188379D01*
X137253355Y-97120269D01*
X137283599Y-97088942D01*
X137358080Y-97050588D01*
X137539667Y-97003871D01*
X137547064Y-97003346D01*
X137558046Y-96999143D01*
X137559291Y-96998823D01*
X137559726Y-96998500D01*
X137560796Y-96998091D01*
X137655352Y-96949398D01*
X137664161Y-96945750D01*
X137667063Y-96943367D01*
X137668477Y-96942640D01*
X137669776Y-96941141D01*
X137675526Y-96936423D01*
X137722867Y-96887387D01*
X137729362Y-96881755D01*
X137731341Y-96878609D01*
X137732472Y-96877439D01*
X137733229Y-96875611D01*
X137737194Y-96869312D01*
X137778869Y-96783422D01*
X137780091Y-96782201D01*
X137783760Y-96773341D01*
X137790068Y-96760343D01*
X137790259Y-96757653D01*
X137791290Y-96755165D01*
X137792731Y-96740533D01*
X137791625Y-96656225D01*
X137792142Y-96654675D01*
X137791483Y-96645404D01*
X137791290Y-96630663D01*
X137790259Y-96628174D01*
X137790068Y-96625485D01*
X137784813Y-96611754D01*
X137736121Y-96517199D01*
X137732472Y-96508389D01*
X137730089Y-96505486D01*
X137729362Y-96504073D01*
X137727863Y-96502773D01*
X137723145Y-96497024D01*
X137674109Y-96449682D01*
X137668477Y-96443188D01*
X137665331Y-96441208D01*
X137664161Y-96440078D01*
X137662333Y-96439320D01*
X137656034Y-96435356D01*
X137570145Y-96393681D01*
X137568923Y-96392459D01*
X137560057Y-96388786D01*
X137547064Y-96382482D01*
X137544376Y-96382291D01*
X137541887Y-96381260D01*
X137527255Y-96379819D01*
X137290484Y-96381169D01*
X137279779Y-96380408D01*
X137276070Y-96381251D01*
X137274528Y-96381260D01*
X137272697Y-96382018D01*
X137265442Y-96383668D01*
X137109160Y-96437281D01*
X137087053Y-96456455D01*
X137073967Y-96482628D01*
X137071892Y-96511818D01*
X137081146Y-96539581D01*
X137100320Y-96561688D01*
X137126493Y-96574774D01*
X137155683Y-96576849D01*
X137170020Y-96573589D01*
X137297752Y-96529770D01*
X137507467Y-96528574D01*
X137576089Y-96561871D01*
X137607416Y-96592115D01*
X137642938Y-96661096D01*
X137643727Y-96721257D01*
X137610679Y-96789366D01*
X137580434Y-96820694D01*
X137505953Y-96859048D01*
X137324366Y-96905765D01*
X137316969Y-96906291D01*
X137305986Y-96910494D01*
X137304743Y-96910814D01*
X137304307Y-96911136D01*
X137303238Y-96911546D01*
X137208683Y-96960237D01*
X137199873Y-96963887D01*
X137196970Y-96966269D01*
X137195557Y-96966997D01*
X137194257Y-96968495D01*
X137188508Y-96973214D01*
X137141166Y-97022249D01*
X137134672Y-97027882D01*
X137132692Y-97031027D01*
X137131562Y-97032198D01*
X137130804Y-97034025D01*
X137126840Y-97040325D01*
X137085165Y-97126213D01*
X137083943Y-97127436D01*
X137080270Y-97136301D01*
X137073966Y-97149295D01*
X137073775Y-97151982D01*
X137072744Y-97154472D01*
X137071303Y-97169104D01*
X136792325Y-97169104D01*
X136791290Y-96440187D01*
X136780091Y-96413151D01*
X136759399Y-96392459D01*
X136732363Y-96381260D01*
X136717731Y-96379819D01*
X136480960Y-96381169D01*
X136470255Y-96380408D01*
X136466546Y-96381251D01*
X136465004Y-96381260D01*
X136463173Y-96382018D01*
X136455918Y-96383668D01*
X136324128Y-96428879D01*
X136322148Y-96428879D01*
X136312598Y-96432834D01*
X136299636Y-96437281D01*
X136297601Y-96439045D01*
X136295111Y-96440077D01*
X136283746Y-96449405D01*
X136189814Y-96545167D01*
X136182291Y-96551692D01*
X136180278Y-96554888D01*
X136179181Y-96556008D01*
X136178423Y-96557835D01*
X136174459Y-96564135D01*
X136130192Y-96655366D01*
X136126108Y-96660878D01*
X136122170Y-96671897D01*
X136121585Y-96673105D01*
X136121546Y-96673644D01*
X136121161Y-96674724D01*
X136075920Y-96861089D01*
X136072744Y-96868758D01*
X136071846Y-96877872D01*
X136071392Y-96879744D01*
X136071554Y-96880836D01*
X136071303Y-96883390D01*
X135748347Y-96883390D01*
X135599961Y-96440223D01*
X135599591Y-96435010D01*
X135595427Y-96426683D01*
X135592412Y-96417676D01*
X135588900Y-96413627D01*
X135586505Y-96408836D01*
X135579401Y-96402674D01*
X135573238Y-96395569D01*
X135568444Y-96393172D01*
X135564397Y-96389662D01*
X135555475Y-96386688D01*
X135547065Y-96382483D01*
X135541720Y-96382103D01*
X135536635Y-96380408D01*
X135527255Y-96381074D01*
X135517875Y-96380408D01*
X135512789Y-96382103D01*
X135507445Y-96382483D01*
X135499037Y-96386687D01*
X135490112Y-96389662D01*
X135486061Y-96393175D01*
X135481272Y-96395570D01*
X135475113Y-96402670D01*
X135468005Y-96408836D01*
X135465608Y-96413629D01*
X135462098Y-96417677D01*
X135456104Y-96431102D01*
X135217929Y-97148850D01*
X135215601Y-97154472D01*
X135215601Y-97155867D01*
X135119511Y-97445439D01*
X135008400Y-97445439D01*
X135008400Y-96268708D01*
X137903842Y-96268708D01*
X137903842Y-97640930D01*
G37*
G36*
X135786902Y-95380239D02*
G01*
X135638235Y-95381086D01*
X135521639Y-95343348D01*
X135447431Y-95270558D01*
X135408739Y-95195421D01*
X135364121Y-95021991D01*
X135362979Y-94897219D01*
X135405005Y-94724096D01*
X135443730Y-94644286D01*
X135518009Y-94568561D01*
X135631085Y-94529770D01*
X135785693Y-94528888D01*
X135786902Y-95380239D01*
G37*
G36*
X138141937Y-95640930D02*
G01*
X135103049Y-95640930D01*
X135103049Y-94883390D01*
X135214160Y-94883390D01*
X135215427Y-95021969D01*
X135214249Y-95029893D01*
X135215583Y-95038917D01*
X135215601Y-95040879D01*
X135216023Y-95041900D01*
X135216399Y-95044437D01*
X135263916Y-95229135D01*
X135264442Y-95236532D01*
X135268644Y-95247514D01*
X135268965Y-95248759D01*
X135269287Y-95249194D01*
X135269697Y-95250264D01*
X135318387Y-95344816D01*
X135322037Y-95353628D01*
X135324420Y-95356532D01*
X135325148Y-95357945D01*
X135326646Y-95359244D01*
X135331365Y-95364994D01*
X135419534Y-95451479D01*
X135420386Y-95453183D01*
X135428030Y-95459813D01*
X135437968Y-95469561D01*
X135440458Y-95470592D01*
X135442493Y-95472357D01*
X135455919Y-95478351D01*
X135598500Y-95524500D01*
X135607861Y-95528378D01*
X135611624Y-95528748D01*
X135613112Y-95529230D01*
X135615086Y-95529089D01*
X135622493Y-95529819D01*
X135875220Y-95528378D01*
X135902256Y-95517179D01*
X135922948Y-95496487D01*
X135934147Y-95469451D01*
X135935588Y-95454819D01*
X135934168Y-94454819D01*
X136261779Y-94454819D01*
X136263192Y-95450374D01*
X136261962Y-95460058D01*
X136263213Y-95464645D01*
X136263220Y-95469451D01*
X136267037Y-95478666D01*
X136269662Y-95488290D01*
X136272589Y-95492070D01*
X136274419Y-95496487D01*
X136281469Y-95503537D01*
X136287579Y-95511427D01*
X136291732Y-95513800D01*
X136295111Y-95517179D01*
X136304323Y-95520995D01*
X136312988Y-95525946D01*
X136317731Y-95526548D01*
X136322147Y-95528378D01*
X136332121Y-95528378D01*
X136342018Y-95529636D01*
X136346630Y-95528378D01*
X136351411Y-95528378D01*
X136360626Y-95524560D01*
X136370250Y-95521936D01*
X136374030Y-95519008D01*
X136378447Y-95517179D01*
X136385497Y-95510128D01*
X136393387Y-95504019D01*
X136397739Y-95497886D01*
X136399139Y-95496487D01*
X136399708Y-95495112D01*
X136401897Y-95492029D01*
X136833604Y-94734370D01*
X136834648Y-95469451D01*
X136845847Y-95496487D01*
X136866539Y-95517179D01*
X136893575Y-95528378D01*
X136922839Y-95528378D01*
X136949875Y-95517179D01*
X136970567Y-95496487D01*
X136981766Y-95469451D01*
X136983207Y-95454819D01*
X136982598Y-95026247D01*
X137261779Y-95026247D01*
X137263220Y-95374212D01*
X137267137Y-95383668D01*
X137274418Y-95401247D01*
X137283745Y-95412612D01*
X137324570Y-95452027D01*
X137325148Y-95453183D01*
X137331239Y-95458466D01*
X137342730Y-95469560D01*
X137345218Y-95470590D01*
X137347255Y-95472357D01*
X137360681Y-95478351D01*
X137503262Y-95524500D01*
X137512623Y-95528378D01*
X137516386Y-95528748D01*
X137517874Y-95529230D01*
X137519848Y-95529089D01*
X137527255Y-95529819D01*
X137622572Y-95528568D01*
X137631873Y-95529230D01*
X137635527Y-95528398D01*
X137637125Y-95528378D01*
X137638956Y-95527619D01*
X137646210Y-95525970D01*
X137778000Y-95480759D01*
X137779982Y-95480759D01*
X137789534Y-95476802D01*
X137802492Y-95472357D01*
X137804527Y-95470591D01*
X137807018Y-95469560D01*
X137818383Y-95460233D01*
X137912315Y-95364468D01*
X137919838Y-95357945D01*
X137921850Y-95354748D01*
X137922949Y-95353628D01*
X137923706Y-95351798D01*
X137927670Y-95345502D01*
X137971938Y-95254269D01*
X137976021Y-95248759D01*
X137979956Y-95237743D01*
X137980544Y-95236533D01*
X137980582Y-95235992D01*
X137980968Y-95234913D01*
X138026208Y-95048547D01*
X138029385Y-95040879D01*
X138030282Y-95031764D01*
X138030737Y-95029893D01*
X138030574Y-95028800D01*
X138030826Y-95026247D01*
X138029558Y-94887667D01*
X138030737Y-94879744D01*
X138029402Y-94870719D01*
X138029385Y-94868758D01*
X138028962Y-94867736D01*
X138028587Y-94865200D01*
X137981069Y-94680501D01*
X137980544Y-94673104D01*
X137976340Y-94662121D01*
X137976021Y-94660878D01*
X137975698Y-94660442D01*
X137975289Y-94659373D01*
X137926600Y-94564823D01*
X137922949Y-94556008D01*
X137920564Y-94553102D01*
X137919838Y-94551692D01*
X137918341Y-94550393D01*
X137913621Y-94544643D01*
X137825450Y-94458158D01*
X137824599Y-94456455D01*
X137816956Y-94449826D01*
X137807018Y-94440078D01*
X137804527Y-94439046D01*
X137802492Y-94437281D01*
X137789067Y-94431287D01*
X137646488Y-94385138D01*
X137637125Y-94381260D01*
X137633359Y-94380889D01*
X137631873Y-94380408D01*
X137629898Y-94380548D01*
X137622493Y-94379819D01*
X137490862Y-94381023D01*
X137489016Y-94380408D01*
X137478801Y-94381133D01*
X137465004Y-94381260D01*
X137462515Y-94382290D01*
X137459826Y-94382482D01*
X137446095Y-94387737D01*
X137338414Y-94443188D01*
X137319241Y-94465296D01*
X137309987Y-94493057D01*
X137312061Y-94522247D01*
X137325148Y-94548422D01*
X137347256Y-94567595D01*
X137375017Y-94576849D01*
X137404207Y-94574775D01*
X137417939Y-94569520D01*
X137495313Y-94529675D01*
X137607065Y-94528653D01*
X137723346Y-94566290D01*
X137797555Y-94639080D01*
X137836246Y-94714215D01*
X137880864Y-94887645D01*
X137882006Y-95012417D01*
X137839980Y-95185540D01*
X137801255Y-95265350D01*
X137726978Y-95341076D01*
X137613706Y-95379934D01*
X137542328Y-95380870D01*
X137426136Y-95343262D01*
X137411653Y-95329279D01*
X137410707Y-95100727D01*
X137541887Y-95099806D01*
X137568923Y-95088607D01*
X137589615Y-95067915D01*
X137600814Y-95040879D01*
X137600814Y-95011615D01*
X137589615Y-94984579D01*
X137568923Y-94963887D01*
X137541887Y-94952688D01*
X137527255Y-94951247D01*
X137322147Y-94952688D01*
X137295111Y-94963887D01*
X137274419Y-94984579D01*
X137263220Y-95011615D01*
X137261779Y-95026247D01*
X136982598Y-95026247D01*
X136981793Y-94459263D01*
X136983024Y-94449580D01*
X136981772Y-94444992D01*
X136981766Y-94440187D01*
X136977948Y-94430971D01*
X136975324Y-94421348D01*
X136972396Y-94417567D01*
X136970567Y-94413151D01*
X136963516Y-94406100D01*
X136957407Y-94398211D01*
X136953253Y-94395837D01*
X136949875Y-94392459D01*
X136940662Y-94388642D01*
X136931998Y-94383692D01*
X136927254Y-94383089D01*
X136922839Y-94381260D01*
X136912865Y-94381260D01*
X136902968Y-94380002D01*
X136898356Y-94381260D01*
X136893575Y-94381260D01*
X136884358Y-94385077D01*
X136874737Y-94387702D01*
X136870957Y-94390628D01*
X136866539Y-94392459D01*
X136859487Y-94399510D01*
X136851599Y-94405619D01*
X136847244Y-94411753D01*
X136845847Y-94413151D01*
X136845278Y-94414523D01*
X136843089Y-94417608D01*
X136411381Y-95175267D01*
X136410338Y-94440187D01*
X136399139Y-94413151D01*
X136378447Y-94392459D01*
X136351411Y-94381260D01*
X136322147Y-94381260D01*
X136295111Y-94392459D01*
X136274419Y-94413151D01*
X136263220Y-94440187D01*
X136261779Y-94454819D01*
X135934168Y-94454819D01*
X135934147Y-94440187D01*
X135922948Y-94413151D01*
X135902256Y-94392459D01*
X135875220Y-94381260D01*
X135860588Y-94379819D01*
X135623817Y-94381169D01*
X135613112Y-94380408D01*
X135609403Y-94381251D01*
X135607861Y-94381260D01*
X135606030Y-94382018D01*
X135598775Y-94383668D01*
X135466985Y-94428879D01*
X135465005Y-94428879D01*
X135455455Y-94432834D01*
X135442493Y-94437281D01*
X135440458Y-94439045D01*
X135437968Y-94440077D01*
X135426603Y-94449405D01*
X135332671Y-94545167D01*
X135325148Y-94551692D01*
X135323135Y-94554888D01*
X135322038Y-94556008D01*
X135321280Y-94557835D01*
X135317316Y-94564135D01*
X135273049Y-94655366D01*
X135268965Y-94660878D01*
X135265027Y-94671897D01*
X135264442Y-94673105D01*
X135264403Y-94673644D01*
X135264018Y-94674724D01*
X135218777Y-94861089D01*
X135215601Y-94868758D01*
X135214703Y-94877872D01*
X135214249Y-94879744D01*
X135214411Y-94880836D01*
X135214160Y-94883390D01*
X135103049Y-94883390D01*
X135103049Y-94268708D01*
X138141937Y-94268708D01*
X138141937Y-95640930D01*
G37*
G36*
X154849331Y-103640930D02*
G01*
X150097598Y-103640930D01*
X150097598Y-103088498D01*
X150208709Y-103088498D01*
X150219908Y-103115534D01*
X150240600Y-103136226D01*
X150267636Y-103147425D01*
X150282268Y-103148866D01*
X151058804Y-103147425D01*
X151085840Y-103136226D01*
X151106532Y-103115534D01*
X151117731Y-103088498D01*
X151117731Y-103059234D01*
X151106532Y-103032198D01*
X151085840Y-103011506D01*
X151058804Y-103000307D01*
X151044172Y-102998866D01*
X150267636Y-103000307D01*
X150240600Y-103011506D01*
X150219908Y-103032198D01*
X150208709Y-103059234D01*
X150208709Y-103088498D01*
X150097598Y-103088498D01*
X150097598Y-102469451D01*
X151303947Y-102469451D01*
X151315146Y-102496487D01*
X151335838Y-102517179D01*
X151362874Y-102528378D01*
X151377506Y-102529819D01*
X151588325Y-102529300D01*
X151589661Y-103469451D01*
X151600860Y-103496487D01*
X151621552Y-103517179D01*
X151648588Y-103528378D01*
X151677852Y-103528378D01*
X151704888Y-103517179D01*
X151725580Y-103496487D01*
X151736779Y-103469451D01*
X151738220Y-103454819D01*
X151738106Y-103374211D01*
X152161090Y-103374211D01*
X152172288Y-103401247D01*
X152181615Y-103412612D01*
X152222440Y-103452027D01*
X152223018Y-103453183D01*
X152229109Y-103458466D01*
X152240600Y-103469560D01*
X152243088Y-103470590D01*
X152245125Y-103472357D01*
X152258551Y-103478351D01*
X152401132Y-103524500D01*
X152410493Y-103528378D01*
X152414256Y-103528748D01*
X152415744Y-103529230D01*
X152417718Y-103529089D01*
X152425125Y-103529819D01*
X152520442Y-103528568D01*
X152529743Y-103529230D01*
X152533397Y-103528398D01*
X152534995Y-103528378D01*
X152536826Y-103527619D01*
X152544080Y-103525970D01*
X152675870Y-103480759D01*
X152677852Y-103480759D01*
X152687404Y-103476802D01*
X152700362Y-103472357D01*
X152702397Y-103470591D01*
X152704888Y-103469560D01*
X152716253Y-103460233D01*
X152721486Y-103454898D01*
X153112030Y-103454898D01*
X153117769Y-103483592D01*
X153134052Y-103507907D01*
X153158401Y-103524140D01*
X153187109Y-103529819D01*
X153215803Y-103524080D01*
X153240118Y-103507797D01*
X153249434Y-103496421D01*
X153520521Y-103088743D01*
X153800608Y-103507797D01*
X153824923Y-103524080D01*
X153853617Y-103529819D01*
X153882325Y-103524140D01*
X153906674Y-103507907D01*
X153922957Y-103483592D01*
X153925785Y-103469451D01*
X154113471Y-103469451D01*
X154124670Y-103496487D01*
X154145362Y-103517179D01*
X154172398Y-103528378D01*
X154187030Y-103529819D01*
X154677852Y-103528378D01*
X154704888Y-103517179D01*
X154725580Y-103496487D01*
X154736779Y-103469451D01*
X154738220Y-103454819D01*
X154736779Y-102440187D01*
X154725580Y-102413151D01*
X154704888Y-102392459D01*
X154677852Y-102381260D01*
X154663220Y-102379819D01*
X154172398Y-102381260D01*
X154145362Y-102392459D01*
X154124670Y-102413151D01*
X154113471Y-102440187D01*
X154113471Y-102469451D01*
X154124670Y-102496487D01*
X154145362Y-102517179D01*
X154172398Y-102528378D01*
X154187030Y-102529819D01*
X154588324Y-102528640D01*
X154588790Y-102856317D01*
X154315255Y-102857450D01*
X154288219Y-102868649D01*
X154267527Y-102889341D01*
X154256328Y-102916377D01*
X154256328Y-102945641D01*
X154267527Y-102972677D01*
X154288219Y-102993369D01*
X154315255Y-103004568D01*
X154329887Y-103006009D01*
X154589001Y-103004935D01*
X154589534Y-103380035D01*
X154172398Y-103381260D01*
X154145362Y-103392459D01*
X154124670Y-103413151D01*
X154113471Y-103440187D01*
X154113471Y-103469451D01*
X153925785Y-103469451D01*
X153928696Y-103454898D01*
X153923017Y-103426190D01*
X153916100Y-103413216D01*
X153609646Y-102954713D01*
X153923017Y-102483448D01*
X153928696Y-102454740D01*
X153922957Y-102426046D01*
X153906674Y-102401731D01*
X153882325Y-102385498D01*
X153853617Y-102379819D01*
X153824923Y-102385558D01*
X153800608Y-102401841D01*
X153791292Y-102413217D01*
X153520204Y-102820894D01*
X153240118Y-102401841D01*
X153215803Y-102385558D01*
X153187109Y-102379819D01*
X153158401Y-102385498D01*
X153134052Y-102401731D01*
X153117769Y-102426046D01*
X153112030Y-102454740D01*
X153117709Y-102483448D01*
X153124626Y-102496421D01*
X153431079Y-102954924D01*
X153117709Y-103426190D01*
X153112030Y-103454898D01*
X152721486Y-103454898D01*
X152810185Y-103364468D01*
X152817708Y-103357945D01*
X152819720Y-103354748D01*
X152820819Y-103353628D01*
X152821576Y-103351798D01*
X152825540Y-103345502D01*
X152869808Y-103254269D01*
X152873891Y-103248759D01*
X152877826Y-103237743D01*
X152878414Y-103236533D01*
X152878452Y-103235992D01*
X152878838Y-103234913D01*
X152924078Y-103048547D01*
X152927255Y-103040879D01*
X152928152Y-103031764D01*
X152928607Y-103029893D01*
X152928444Y-103028800D01*
X152928696Y-103026247D01*
X152927428Y-102887667D01*
X152928607Y-102879744D01*
X152927272Y-102870719D01*
X152927255Y-102868758D01*
X152926832Y-102867736D01*
X152926457Y-102865200D01*
X152878939Y-102680501D01*
X152878414Y-102673104D01*
X152874210Y-102662121D01*
X152873891Y-102660878D01*
X152873568Y-102660442D01*
X152873159Y-102659373D01*
X152824470Y-102564823D01*
X152820819Y-102556008D01*
X152818434Y-102553102D01*
X152817708Y-102551692D01*
X152816211Y-102550393D01*
X152811491Y-102544643D01*
X152723320Y-102458158D01*
X152722469Y-102456455D01*
X152714826Y-102449826D01*
X152704888Y-102440078D01*
X152702397Y-102439046D01*
X152700362Y-102437281D01*
X152686937Y-102431287D01*
X152544358Y-102385138D01*
X152534995Y-102381260D01*
X152531229Y-102380889D01*
X152529743Y-102380408D01*
X152527768Y-102380548D01*
X152520363Y-102379819D01*
X152425044Y-102381069D01*
X152415744Y-102380408D01*
X152412089Y-102381239D01*
X152410493Y-102381260D01*
X152408662Y-102382018D01*
X152401407Y-102383668D01*
X152269617Y-102428879D01*
X152267636Y-102428879D01*
X152258088Y-102432833D01*
X152245125Y-102437281D01*
X152243088Y-102439047D01*
X152240600Y-102440078D01*
X152229235Y-102449405D01*
X152172289Y-102508389D01*
X152161090Y-102535426D01*
X152161090Y-102564688D01*
X152172289Y-102591725D01*
X152192981Y-102612417D01*
X152220018Y-102623616D01*
X152249280Y-102623616D01*
X152276317Y-102612417D01*
X152287682Y-102603090D01*
X152321204Y-102568367D01*
X152433910Y-102529703D01*
X152505289Y-102528767D01*
X152621216Y-102566290D01*
X152695425Y-102639080D01*
X152734116Y-102714215D01*
X152778734Y-102887645D01*
X152779876Y-103012417D01*
X152737850Y-103185540D01*
X152699125Y-103265350D01*
X152624848Y-103341076D01*
X152511576Y-103379934D01*
X152440198Y-103380870D01*
X152324006Y-103343262D01*
X152276317Y-103297220D01*
X152249281Y-103286021D01*
X152220018Y-103286021D01*
X152192982Y-103297219D01*
X152172289Y-103317912D01*
X152161090Y-103344948D01*
X152161090Y-103374211D01*
X151738106Y-103374211D01*
X151736905Y-102528935D01*
X151963566Y-102528378D01*
X151990602Y-102517179D01*
X152011294Y-102496487D01*
X152022493Y-102469451D01*
X152022493Y-102440187D01*
X152011294Y-102413151D01*
X151990602Y-102392459D01*
X151963566Y-102381260D01*
X151948934Y-102379819D01*
X151362874Y-102381260D01*
X151335838Y-102392459D01*
X151315146Y-102413151D01*
X151303947Y-102440187D01*
X151303947Y-102469451D01*
X150097598Y-102469451D01*
X150097598Y-102268708D01*
X154849331Y-102268708D01*
X154849331Y-103640930D01*
G37*
G36*
X154896950Y-101640930D02*
G01*
X151288075Y-101640930D01*
X151288075Y-101088498D01*
X151399186Y-101088498D01*
X151410385Y-101115534D01*
X151431077Y-101136226D01*
X151458113Y-101147425D01*
X151472745Y-101148866D01*
X151779542Y-101148296D01*
X151780138Y-101469451D01*
X151791337Y-101496487D01*
X151812029Y-101517179D01*
X151839065Y-101528378D01*
X151868329Y-101528378D01*
X151895365Y-101517179D01*
X151916057Y-101496487D01*
X151927256Y-101469451D01*
X151928697Y-101454819D01*
X151928127Y-101148020D01*
X152249281Y-101147425D01*
X152276317Y-101136226D01*
X152297009Y-101115534D01*
X152308208Y-101088498D01*
X152308208Y-101059234D01*
X152297009Y-101032198D01*
X152291058Y-101026247D01*
X152588221Y-101026247D01*
X152589662Y-101374212D01*
X152593579Y-101383668D01*
X152600860Y-101401247D01*
X152610187Y-101412612D01*
X152651012Y-101452027D01*
X152651590Y-101453183D01*
X152657681Y-101458466D01*
X152669172Y-101469560D01*
X152671660Y-101470590D01*
X152673697Y-101472357D01*
X152687123Y-101478351D01*
X152829704Y-101524500D01*
X152839065Y-101528378D01*
X152842828Y-101528748D01*
X152844316Y-101529230D01*
X152846290Y-101529089D01*
X152853697Y-101529819D01*
X152949014Y-101528568D01*
X152958315Y-101529230D01*
X152961969Y-101528398D01*
X152963567Y-101528378D01*
X152965398Y-101527619D01*
X152972652Y-101525970D01*
X153104442Y-101480759D01*
X153106424Y-101480759D01*
X153115976Y-101476802D01*
X153128934Y-101472357D01*
X153130969Y-101470591D01*
X153133460Y-101469560D01*
X153144825Y-101460233D01*
X153238757Y-101364468D01*
X153246280Y-101357945D01*
X153248292Y-101354748D01*
X153249391Y-101353628D01*
X153250148Y-101351798D01*
X153254112Y-101345502D01*
X153298380Y-101254269D01*
X153302463Y-101248759D01*
X153306398Y-101237743D01*
X153306986Y-101236533D01*
X153307024Y-101235992D01*
X153307410Y-101234913D01*
X153352650Y-101048547D01*
X153355827Y-101040879D01*
X153356724Y-101031764D01*
X153357179Y-101029893D01*
X153357016Y-101028800D01*
X153357268Y-101026247D01*
X153356000Y-100887667D01*
X153357179Y-100879744D01*
X153355844Y-100870719D01*
X153355827Y-100868758D01*
X153355404Y-100867736D01*
X153355029Y-100865200D01*
X153307511Y-100680501D01*
X153306986Y-100673104D01*
X153302782Y-100662121D01*
X153302463Y-100660878D01*
X153302140Y-100660442D01*
X153301731Y-100659373D01*
X153253042Y-100564823D01*
X153249391Y-100556008D01*
X153247006Y-100553102D01*
X153246280Y-100551692D01*
X153244783Y-100550393D01*
X153240063Y-100544643D01*
X153151892Y-100458158D01*
X153151041Y-100456455D01*
X153149155Y-100454819D01*
X153635839Y-100454819D01*
X153637280Y-101469451D01*
X153648479Y-101496487D01*
X153669171Y-101517179D01*
X153696207Y-101528378D01*
X153725471Y-101528378D01*
X153752507Y-101517179D01*
X153773199Y-101496487D01*
X153784398Y-101469451D01*
X153785839Y-101454819D01*
X153785433Y-101169104D01*
X154064411Y-101169104D01*
X154065516Y-101253410D01*
X154065000Y-101254961D01*
X154065658Y-101264230D01*
X154065852Y-101278974D01*
X154066883Y-101281463D01*
X154067074Y-101284151D01*
X154072329Y-101297883D01*
X154121019Y-101392435D01*
X154124669Y-101401247D01*
X154127052Y-101404151D01*
X154127780Y-101405564D01*
X154129278Y-101406863D01*
X154133996Y-101412612D01*
X154183031Y-101459953D01*
X154188665Y-101466450D01*
X154191810Y-101468429D01*
X154192981Y-101469560D01*
X154194808Y-101470317D01*
X154201108Y-101474282D01*
X154286997Y-101515957D01*
X154288219Y-101517179D01*
X154297078Y-101520848D01*
X154310077Y-101527156D01*
X154312766Y-101527347D01*
X154315255Y-101528378D01*
X154329887Y-101529819D01*
X154566656Y-101528468D01*
X154577362Y-101529230D01*
X154581070Y-101528386D01*
X154582614Y-101528378D01*
X154584445Y-101527619D01*
X154591699Y-101525970D01*
X154747981Y-101472357D01*
X154770088Y-101453183D01*
X154783175Y-101427010D01*
X154785250Y-101397820D01*
X154775996Y-101370058D01*
X154756822Y-101347950D01*
X154730648Y-101334864D01*
X154701458Y-101332789D01*
X154687121Y-101336049D01*
X154559388Y-101379867D01*
X154349674Y-101381063D01*
X154281053Y-101347767D01*
X154249726Y-101317521D01*
X154214203Y-101248540D01*
X154213414Y-101188379D01*
X154246463Y-101120269D01*
X154276707Y-101088942D01*
X154351188Y-101050588D01*
X154532775Y-101003871D01*
X154540172Y-101003346D01*
X154551154Y-100999143D01*
X154552399Y-100998823D01*
X154552834Y-100998500D01*
X154553904Y-100998091D01*
X154648460Y-100949398D01*
X154657269Y-100945750D01*
X154660171Y-100943367D01*
X154661585Y-100942640D01*
X154662884Y-100941141D01*
X154668634Y-100936423D01*
X154715975Y-100887387D01*
X154722470Y-100881755D01*
X154724449Y-100878609D01*
X154725580Y-100877439D01*
X154726337Y-100875611D01*
X154730302Y-100869312D01*
X154771977Y-100783422D01*
X154773199Y-100782201D01*
X154776868Y-100773341D01*
X154783176Y-100760343D01*
X154783367Y-100757653D01*
X154784398Y-100755165D01*
X154785839Y-100740533D01*
X154784733Y-100656225D01*
X154785250Y-100654675D01*
X154784591Y-100645404D01*
X154784398Y-100630663D01*
X154783367Y-100628174D01*
X154783176Y-100625485D01*
X154777921Y-100611754D01*
X154729229Y-100517199D01*
X154725580Y-100508389D01*
X154723197Y-100505486D01*
X154722470Y-100504073D01*
X154720971Y-100502773D01*
X154716253Y-100497024D01*
X154667217Y-100449682D01*
X154661585Y-100443188D01*
X154658439Y-100441208D01*
X154657269Y-100440078D01*
X154655441Y-100439320D01*
X154649142Y-100435356D01*
X154563253Y-100393681D01*
X154562031Y-100392459D01*
X154553165Y-100388786D01*
X154540172Y-100382482D01*
X154537484Y-100382291D01*
X154534995Y-100381260D01*
X154520363Y-100379819D01*
X154283592Y-100381169D01*
X154272887Y-100380408D01*
X154269178Y-100381251D01*
X154267636Y-100381260D01*
X154265805Y-100382018D01*
X154258550Y-100383668D01*
X154102268Y-100437281D01*
X154080161Y-100456455D01*
X154067075Y-100482628D01*
X154065000Y-100511818D01*
X154074254Y-100539581D01*
X154093428Y-100561688D01*
X154119601Y-100574774D01*
X154148791Y-100576849D01*
X154163128Y-100573589D01*
X154290860Y-100529770D01*
X154500575Y-100528574D01*
X154569197Y-100561871D01*
X154600524Y-100592115D01*
X154636046Y-100661096D01*
X154636835Y-100721257D01*
X154603787Y-100789366D01*
X154573542Y-100820694D01*
X154499061Y-100859048D01*
X154317474Y-100905765D01*
X154310077Y-100906291D01*
X154299094Y-100910494D01*
X154297851Y-100910814D01*
X154297415Y-100911136D01*
X154296346Y-100911546D01*
X154201791Y-100960237D01*
X154192981Y-100963887D01*
X154190078Y-100966269D01*
X154188665Y-100966997D01*
X154187365Y-100968495D01*
X154181616Y-100973214D01*
X154134274Y-101022249D01*
X154127780Y-101027882D01*
X154125800Y-101031027D01*
X154124670Y-101032198D01*
X154123912Y-101034025D01*
X154119948Y-101040325D01*
X154078273Y-101126213D01*
X154077051Y-101127436D01*
X154073378Y-101136301D01*
X154067074Y-101149295D01*
X154066883Y-101151982D01*
X154065852Y-101154472D01*
X154064411Y-101169104D01*
X153785433Y-101169104D01*
X153784398Y-100440187D01*
X153773199Y-100413151D01*
X153752507Y-100392459D01*
X153725471Y-100381260D01*
X153696207Y-100381260D01*
X153669171Y-100392459D01*
X153648479Y-100413151D01*
X153637280Y-100440187D01*
X153635839Y-100454819D01*
X153149155Y-100454819D01*
X153143398Y-100449826D01*
X153133460Y-100440078D01*
X153130969Y-100439046D01*
X153128934Y-100437281D01*
X153115509Y-100431287D01*
X152972930Y-100385138D01*
X152963567Y-100381260D01*
X152959801Y-100380889D01*
X152958315Y-100380408D01*
X152956340Y-100380548D01*
X152948935Y-100379819D01*
X152817304Y-100381023D01*
X152815458Y-100380408D01*
X152805243Y-100381133D01*
X152791446Y-100381260D01*
X152788957Y-100382290D01*
X152786268Y-100382482D01*
X152772537Y-100387737D01*
X152664856Y-100443188D01*
X152645683Y-100465296D01*
X152636429Y-100493057D01*
X152638503Y-100522247D01*
X152651590Y-100548422D01*
X152673698Y-100567595D01*
X152701459Y-100576849D01*
X152730649Y-100574775D01*
X152744381Y-100569520D01*
X152821755Y-100529675D01*
X152933507Y-100528653D01*
X153049788Y-100566290D01*
X153123997Y-100639080D01*
X153162688Y-100714215D01*
X153207306Y-100887645D01*
X153208448Y-101012417D01*
X153166422Y-101185540D01*
X153127697Y-101265350D01*
X153053420Y-101341076D01*
X152940148Y-101379934D01*
X152868770Y-101380870D01*
X152752578Y-101343262D01*
X152738095Y-101329279D01*
X152737149Y-101100727D01*
X152868329Y-101099806D01*
X152895365Y-101088607D01*
X152916057Y-101067915D01*
X152927256Y-101040879D01*
X152927256Y-101011615D01*
X152916057Y-100984579D01*
X152895365Y-100963887D01*
X152868329Y-100952688D01*
X152853697Y-100951247D01*
X152648589Y-100952688D01*
X152621553Y-100963887D01*
X152600861Y-100984579D01*
X152589662Y-101011615D01*
X152588221Y-101026247D01*
X152291058Y-101026247D01*
X152276317Y-101011506D01*
X152249281Y-101000307D01*
X152234649Y-100998866D01*
X151927851Y-100999435D01*
X151927256Y-100678282D01*
X151916057Y-100651246D01*
X151895365Y-100630554D01*
X151868329Y-100619355D01*
X151839065Y-100619355D01*
X151812029Y-100630554D01*
X151791337Y-100651246D01*
X151780138Y-100678282D01*
X151778697Y-100692914D01*
X151779266Y-100999711D01*
X151458113Y-101000307D01*
X151431077Y-101011506D01*
X151410385Y-101032198D01*
X151399186Y-101059234D01*
X151399186Y-101088498D01*
X151288075Y-101088498D01*
X151288075Y-100268708D01*
X154896950Y-100268708D01*
X154896950Y-101640930D01*
G37*
G36*
X154896950Y-99640930D02*
G01*
X151288075Y-99640930D01*
X151288075Y-99088498D01*
X151399186Y-99088498D01*
X151410385Y-99115534D01*
X151431077Y-99136226D01*
X151458113Y-99147425D01*
X151472745Y-99148866D01*
X152249281Y-99147425D01*
X152276317Y-99136226D01*
X152297009Y-99115534D01*
X152308208Y-99088498D01*
X152308208Y-99059234D01*
X152297009Y-99032198D01*
X152291058Y-99026247D01*
X152588221Y-99026247D01*
X152589662Y-99374212D01*
X152593579Y-99383668D01*
X152600860Y-99401247D01*
X152610187Y-99412612D01*
X152651012Y-99452027D01*
X152651590Y-99453183D01*
X152657681Y-99458466D01*
X152669172Y-99469560D01*
X152671660Y-99470590D01*
X152673697Y-99472357D01*
X152687123Y-99478351D01*
X152829704Y-99524500D01*
X152839065Y-99528378D01*
X152842828Y-99528748D01*
X152844316Y-99529230D01*
X152846290Y-99529089D01*
X152853697Y-99529819D01*
X152949014Y-99528568D01*
X152958315Y-99529230D01*
X152961969Y-99528398D01*
X152963567Y-99528378D01*
X152965398Y-99527619D01*
X152972652Y-99525970D01*
X153104442Y-99480759D01*
X153106424Y-99480759D01*
X153115976Y-99476802D01*
X153128934Y-99472357D01*
X153130969Y-99470591D01*
X153133460Y-99469560D01*
X153144825Y-99460233D01*
X153238757Y-99364468D01*
X153246280Y-99357945D01*
X153248292Y-99354748D01*
X153249391Y-99353628D01*
X153250148Y-99351798D01*
X153254112Y-99345502D01*
X153298380Y-99254269D01*
X153302463Y-99248759D01*
X153306398Y-99237743D01*
X153306986Y-99236533D01*
X153307024Y-99235992D01*
X153307410Y-99234913D01*
X153352650Y-99048547D01*
X153355827Y-99040879D01*
X153356724Y-99031764D01*
X153357179Y-99029893D01*
X153357016Y-99028800D01*
X153357268Y-99026247D01*
X153356000Y-98887667D01*
X153357179Y-98879744D01*
X153355844Y-98870719D01*
X153355827Y-98868758D01*
X153355404Y-98867736D01*
X153355029Y-98865200D01*
X153307511Y-98680501D01*
X153306986Y-98673104D01*
X153302782Y-98662121D01*
X153302463Y-98660878D01*
X153302140Y-98660442D01*
X153301731Y-98659373D01*
X153253042Y-98564823D01*
X153249391Y-98556008D01*
X153247006Y-98553102D01*
X153246280Y-98551692D01*
X153244783Y-98550393D01*
X153240063Y-98544643D01*
X153151892Y-98458158D01*
X153151041Y-98456455D01*
X153149155Y-98454819D01*
X153635839Y-98454819D01*
X153637280Y-99469451D01*
X153648479Y-99496487D01*
X153669171Y-99517179D01*
X153696207Y-99528378D01*
X153725471Y-99528378D01*
X153752507Y-99517179D01*
X153773199Y-99496487D01*
X153784398Y-99469451D01*
X153785839Y-99454819D01*
X153785433Y-99169104D01*
X154064411Y-99169104D01*
X154065516Y-99253410D01*
X154065000Y-99254961D01*
X154065658Y-99264230D01*
X154065852Y-99278974D01*
X154066883Y-99281463D01*
X154067074Y-99284151D01*
X154072329Y-99297883D01*
X154121019Y-99392435D01*
X154124669Y-99401247D01*
X154127052Y-99404151D01*
X154127780Y-99405564D01*
X154129278Y-99406863D01*
X154133996Y-99412612D01*
X154183031Y-99459953D01*
X154188665Y-99466450D01*
X154191810Y-99468429D01*
X154192981Y-99469560D01*
X154194808Y-99470317D01*
X154201108Y-99474282D01*
X154286997Y-99515957D01*
X154288219Y-99517179D01*
X154297078Y-99520848D01*
X154310077Y-99527156D01*
X154312766Y-99527347D01*
X154315255Y-99528378D01*
X154329887Y-99529819D01*
X154566656Y-99528468D01*
X154577362Y-99529230D01*
X154581070Y-99528386D01*
X154582614Y-99528378D01*
X154584445Y-99527619D01*
X154591699Y-99525970D01*
X154747981Y-99472357D01*
X154770088Y-99453183D01*
X154783175Y-99427010D01*
X154785250Y-99397820D01*
X154775996Y-99370058D01*
X154756822Y-99347950D01*
X154730648Y-99334864D01*
X154701458Y-99332789D01*
X154687121Y-99336049D01*
X154559388Y-99379867D01*
X154349674Y-99381063D01*
X154281053Y-99347767D01*
X154249726Y-99317521D01*
X154214203Y-99248540D01*
X154213414Y-99188379D01*
X154246463Y-99120269D01*
X154276707Y-99088942D01*
X154351188Y-99050588D01*
X154532775Y-99003871D01*
X154540172Y-99003346D01*
X154551154Y-98999143D01*
X154552399Y-98998823D01*
X154552834Y-98998500D01*
X154553904Y-98998091D01*
X154648460Y-98949398D01*
X154657269Y-98945750D01*
X154660171Y-98943367D01*
X154661585Y-98942640D01*
X154662884Y-98941141D01*
X154668634Y-98936423D01*
X154715975Y-98887387D01*
X154722470Y-98881755D01*
X154724449Y-98878609D01*
X154725580Y-98877439D01*
X154726337Y-98875611D01*
X154730302Y-98869312D01*
X154771977Y-98783422D01*
X154773199Y-98782201D01*
X154776868Y-98773341D01*
X154783176Y-98760343D01*
X154783367Y-98757653D01*
X154784398Y-98755165D01*
X154785839Y-98740533D01*
X154784733Y-98656225D01*
X154785250Y-98654675D01*
X154784591Y-98645404D01*
X154784398Y-98630663D01*
X154783367Y-98628174D01*
X154783176Y-98625485D01*
X154777921Y-98611754D01*
X154729229Y-98517199D01*
X154725580Y-98508389D01*
X154723197Y-98505486D01*
X154722470Y-98504073D01*
X154720971Y-98502773D01*
X154716253Y-98497024D01*
X154667217Y-98449682D01*
X154661585Y-98443188D01*
X154658439Y-98441208D01*
X154657269Y-98440078D01*
X154655441Y-98439320D01*
X154649142Y-98435356D01*
X154563253Y-98393681D01*
X154562031Y-98392459D01*
X154553165Y-98388786D01*
X154540172Y-98382482D01*
X154537484Y-98382291D01*
X154534995Y-98381260D01*
X154520363Y-98379819D01*
X154283592Y-98381169D01*
X154272887Y-98380408D01*
X154269178Y-98381251D01*
X154267636Y-98381260D01*
X154265805Y-98382018D01*
X154258550Y-98383668D01*
X154102268Y-98437281D01*
X154080161Y-98456455D01*
X154067075Y-98482628D01*
X154065000Y-98511818D01*
X154074254Y-98539581D01*
X154093428Y-98561688D01*
X154119601Y-98574774D01*
X154148791Y-98576849D01*
X154163128Y-98573589D01*
X154290860Y-98529770D01*
X154500575Y-98528574D01*
X154569197Y-98561871D01*
X154600524Y-98592115D01*
X154636046Y-98661096D01*
X154636835Y-98721257D01*
X154603787Y-98789366D01*
X154573542Y-98820694D01*
X154499061Y-98859048D01*
X154317474Y-98905765D01*
X154310077Y-98906291D01*
X154299094Y-98910494D01*
X154297851Y-98910814D01*
X154297415Y-98911136D01*
X154296346Y-98911546D01*
X154201791Y-98960237D01*
X154192981Y-98963887D01*
X154190078Y-98966269D01*
X154188665Y-98966997D01*
X154187365Y-98968495D01*
X154181616Y-98973214D01*
X154134274Y-99022249D01*
X154127780Y-99027882D01*
X154125800Y-99031027D01*
X154124670Y-99032198D01*
X154123912Y-99034025D01*
X154119948Y-99040325D01*
X154078273Y-99126213D01*
X154077051Y-99127436D01*
X154073378Y-99136301D01*
X154067074Y-99149295D01*
X154066883Y-99151982D01*
X154065852Y-99154472D01*
X154064411Y-99169104D01*
X153785433Y-99169104D01*
X153784398Y-98440187D01*
X153773199Y-98413151D01*
X153752507Y-98392459D01*
X153725471Y-98381260D01*
X153696207Y-98381260D01*
X153669171Y-98392459D01*
X153648479Y-98413151D01*
X153637280Y-98440187D01*
X153635839Y-98454819D01*
X153149155Y-98454819D01*
X153143398Y-98449826D01*
X153133460Y-98440078D01*
X153130969Y-98439046D01*
X153128934Y-98437281D01*
X153115509Y-98431287D01*
X152972930Y-98385138D01*
X152963567Y-98381260D01*
X152959801Y-98380889D01*
X152958315Y-98380408D01*
X152956340Y-98380548D01*
X152948935Y-98379819D01*
X152817304Y-98381023D01*
X152815458Y-98380408D01*
X152805243Y-98381133D01*
X152791446Y-98381260D01*
X152788957Y-98382290D01*
X152786268Y-98382482D01*
X152772537Y-98387737D01*
X152664856Y-98443188D01*
X152645683Y-98465296D01*
X152636429Y-98493057D01*
X152638503Y-98522247D01*
X152651590Y-98548422D01*
X152673698Y-98567595D01*
X152701459Y-98576849D01*
X152730649Y-98574775D01*
X152744381Y-98569520D01*
X152821755Y-98529675D01*
X152933507Y-98528653D01*
X153049788Y-98566290D01*
X153123997Y-98639080D01*
X153162688Y-98714215D01*
X153207306Y-98887645D01*
X153208448Y-99012417D01*
X153166422Y-99185540D01*
X153127697Y-99265350D01*
X153053420Y-99341076D01*
X152940148Y-99379934D01*
X152868770Y-99380870D01*
X152752578Y-99343262D01*
X152738095Y-99329279D01*
X152737149Y-99100727D01*
X152868329Y-99099806D01*
X152895365Y-99088607D01*
X152916057Y-99067915D01*
X152927256Y-99040879D01*
X152927256Y-99011615D01*
X152916057Y-98984579D01*
X152895365Y-98963887D01*
X152868329Y-98952688D01*
X152853697Y-98951247D01*
X152648589Y-98952688D01*
X152621553Y-98963887D01*
X152600861Y-98984579D01*
X152589662Y-99011615D01*
X152588221Y-99026247D01*
X152291058Y-99026247D01*
X152276317Y-99011506D01*
X152249281Y-99000307D01*
X152234649Y-98998866D01*
X151458113Y-99000307D01*
X151431077Y-99011506D01*
X151410385Y-99032198D01*
X151399186Y-99059234D01*
X151399186Y-99088498D01*
X151288075Y-99088498D01*
X151288075Y-98268708D01*
X154896950Y-98268708D01*
X154896950Y-99640930D01*
G37*
G36*
X154849331Y-97640930D02*
G01*
X150097598Y-97640930D01*
X150097598Y-97088498D01*
X150208709Y-97088498D01*
X150219908Y-97115534D01*
X150240600Y-97136226D01*
X150267636Y-97147425D01*
X150282268Y-97148866D01*
X150589065Y-97148296D01*
X150589661Y-97469451D01*
X150600860Y-97496487D01*
X150621552Y-97517179D01*
X150648588Y-97528378D01*
X150677852Y-97528378D01*
X150704888Y-97517179D01*
X150725580Y-97496487D01*
X150736779Y-97469451D01*
X150738220Y-97454819D01*
X150737650Y-97148020D01*
X151058804Y-97147425D01*
X151085840Y-97136226D01*
X151106532Y-97115534D01*
X151117731Y-97088498D01*
X151117731Y-97059234D01*
X151106532Y-97032198D01*
X151085840Y-97011506D01*
X151058804Y-97000307D01*
X151044172Y-96998866D01*
X150737374Y-96999435D01*
X150736779Y-96678282D01*
X150725580Y-96651246D01*
X150704888Y-96630554D01*
X150677852Y-96619355D01*
X150648588Y-96619355D01*
X150621552Y-96630554D01*
X150600860Y-96651246D01*
X150589661Y-96678282D01*
X150588220Y-96692914D01*
X150588789Y-96999711D01*
X150267636Y-97000307D01*
X150240600Y-97011506D01*
X150219908Y-97032198D01*
X150208709Y-97059234D01*
X150208709Y-97088498D01*
X150097598Y-97088498D01*
X150097598Y-96469451D01*
X151303947Y-96469451D01*
X151315146Y-96496487D01*
X151335838Y-96517179D01*
X151362874Y-96528378D01*
X151377506Y-96529819D01*
X151588325Y-96529300D01*
X151589661Y-97469451D01*
X151600860Y-97496487D01*
X151621552Y-97517179D01*
X151648588Y-97528378D01*
X151677852Y-97528378D01*
X151704888Y-97517179D01*
X151725580Y-97496487D01*
X151736779Y-97469451D01*
X151738220Y-97454819D01*
X151738106Y-97374211D01*
X152161090Y-97374211D01*
X152172288Y-97401247D01*
X152181615Y-97412612D01*
X152222440Y-97452027D01*
X152223018Y-97453183D01*
X152229109Y-97458466D01*
X152240600Y-97469560D01*
X152243088Y-97470590D01*
X152245125Y-97472357D01*
X152258551Y-97478351D01*
X152401132Y-97524500D01*
X152410493Y-97528378D01*
X152414256Y-97528748D01*
X152415744Y-97529230D01*
X152417718Y-97529089D01*
X152425125Y-97529819D01*
X152520442Y-97528568D01*
X152529743Y-97529230D01*
X152533397Y-97528398D01*
X152534995Y-97528378D01*
X152536826Y-97527619D01*
X152544080Y-97525970D01*
X152675870Y-97480759D01*
X152677852Y-97480759D01*
X152687404Y-97476802D01*
X152700362Y-97472357D01*
X152702397Y-97470591D01*
X152704888Y-97469560D01*
X152716253Y-97460233D01*
X152721486Y-97454898D01*
X153112030Y-97454898D01*
X153117769Y-97483592D01*
X153134052Y-97507907D01*
X153158401Y-97524140D01*
X153187109Y-97529819D01*
X153215803Y-97524080D01*
X153240118Y-97507797D01*
X153249434Y-97496421D01*
X153520521Y-97088743D01*
X153800608Y-97507797D01*
X153824923Y-97524080D01*
X153853617Y-97529819D01*
X153882325Y-97524140D01*
X153906674Y-97507907D01*
X153922957Y-97483592D01*
X153925785Y-97469451D01*
X154113471Y-97469451D01*
X154124670Y-97496487D01*
X154145362Y-97517179D01*
X154172398Y-97528378D01*
X154187030Y-97529819D01*
X154677852Y-97528378D01*
X154704888Y-97517179D01*
X154725580Y-97496487D01*
X154736779Y-97469451D01*
X154738220Y-97454819D01*
X154736779Y-96440187D01*
X154725580Y-96413151D01*
X154704888Y-96392459D01*
X154677852Y-96381260D01*
X154663220Y-96379819D01*
X154172398Y-96381260D01*
X154145362Y-96392459D01*
X154124670Y-96413151D01*
X154113471Y-96440187D01*
X154113471Y-96469451D01*
X154124670Y-96496487D01*
X154145362Y-96517179D01*
X154172398Y-96528378D01*
X154187030Y-96529819D01*
X154588324Y-96528640D01*
X154588790Y-96856317D01*
X154315255Y-96857450D01*
X154288219Y-96868649D01*
X154267527Y-96889341D01*
X154256328Y-96916377D01*
X154256328Y-96945641D01*
X154267527Y-96972677D01*
X154288219Y-96993369D01*
X154315255Y-97004568D01*
X154329887Y-97006009D01*
X154589001Y-97004935D01*
X154589534Y-97380035D01*
X154172398Y-97381260D01*
X154145362Y-97392459D01*
X154124670Y-97413151D01*
X154113471Y-97440187D01*
X154113471Y-97469451D01*
X153925785Y-97469451D01*
X153928696Y-97454898D01*
X153923017Y-97426190D01*
X153916100Y-97413216D01*
X153609646Y-96954713D01*
X153923017Y-96483448D01*
X153928696Y-96454740D01*
X153922957Y-96426046D01*
X153906674Y-96401731D01*
X153882325Y-96385498D01*
X153853617Y-96379819D01*
X153824923Y-96385558D01*
X153800608Y-96401841D01*
X153791292Y-96413217D01*
X153520204Y-96820894D01*
X153240118Y-96401841D01*
X153215803Y-96385558D01*
X153187109Y-96379819D01*
X153158401Y-96385498D01*
X153134052Y-96401731D01*
X153117769Y-96426046D01*
X153112030Y-96454740D01*
X153117709Y-96483448D01*
X153124626Y-96496421D01*
X153431079Y-96954924D01*
X153117709Y-97426190D01*
X153112030Y-97454898D01*
X152721486Y-97454898D01*
X152810185Y-97364468D01*
X152817708Y-97357945D01*
X152819720Y-97354748D01*
X152820819Y-97353628D01*
X152821576Y-97351798D01*
X152825540Y-97345502D01*
X152869808Y-97254269D01*
X152873891Y-97248759D01*
X152877826Y-97237743D01*
X152878414Y-97236533D01*
X152878452Y-97235992D01*
X152878838Y-97234913D01*
X152924078Y-97048547D01*
X152927255Y-97040879D01*
X152928152Y-97031764D01*
X152928607Y-97029893D01*
X152928444Y-97028800D01*
X152928696Y-97026247D01*
X152927428Y-96887667D01*
X152928607Y-96879744D01*
X152927272Y-96870719D01*
X152927255Y-96868758D01*
X152926832Y-96867736D01*
X152926457Y-96865200D01*
X152878939Y-96680501D01*
X152878414Y-96673104D01*
X152874210Y-96662121D01*
X152873891Y-96660878D01*
X152873568Y-96660442D01*
X152873159Y-96659373D01*
X152824470Y-96564823D01*
X152820819Y-96556008D01*
X152818434Y-96553102D01*
X152817708Y-96551692D01*
X152816211Y-96550393D01*
X152811491Y-96544643D01*
X152723320Y-96458158D01*
X152722469Y-96456455D01*
X152714826Y-96449826D01*
X152704888Y-96440078D01*
X152702397Y-96439046D01*
X152700362Y-96437281D01*
X152686937Y-96431287D01*
X152544358Y-96385138D01*
X152534995Y-96381260D01*
X152531229Y-96380889D01*
X152529743Y-96380408D01*
X152527768Y-96380548D01*
X152520363Y-96379819D01*
X152425044Y-96381069D01*
X152415744Y-96380408D01*
X152412089Y-96381239D01*
X152410493Y-96381260D01*
X152408662Y-96382018D01*
X152401407Y-96383668D01*
X152269617Y-96428879D01*
X152267636Y-96428879D01*
X152258088Y-96432833D01*
X152245125Y-96437281D01*
X152243088Y-96439047D01*
X152240600Y-96440078D01*
X152229235Y-96449405D01*
X152172289Y-96508389D01*
X152161090Y-96535426D01*
X152161090Y-96564688D01*
X152172289Y-96591725D01*
X152192981Y-96612417D01*
X152220018Y-96623616D01*
X152249280Y-96623616D01*
X152276317Y-96612417D01*
X152287682Y-96603090D01*
X152321204Y-96568367D01*
X152433910Y-96529703D01*
X152505289Y-96528767D01*
X152621216Y-96566290D01*
X152695425Y-96639080D01*
X152734116Y-96714215D01*
X152778734Y-96887645D01*
X152779876Y-97012417D01*
X152737850Y-97185540D01*
X152699125Y-97265350D01*
X152624848Y-97341076D01*
X152511576Y-97379934D01*
X152440198Y-97380870D01*
X152324006Y-97343262D01*
X152276317Y-97297220D01*
X152249281Y-97286021D01*
X152220018Y-97286021D01*
X152192982Y-97297219D01*
X152172289Y-97317912D01*
X152161090Y-97344948D01*
X152161090Y-97374211D01*
X151738106Y-97374211D01*
X151736905Y-96528935D01*
X151963566Y-96528378D01*
X151990602Y-96517179D01*
X152011294Y-96496487D01*
X152022493Y-96469451D01*
X152022493Y-96440187D01*
X152011294Y-96413151D01*
X151990602Y-96392459D01*
X151963566Y-96381260D01*
X151948934Y-96379819D01*
X151362874Y-96381260D01*
X151335838Y-96392459D01*
X151315146Y-96413151D01*
X151303947Y-96440187D01*
X151303947Y-96469451D01*
X150097598Y-96469451D01*
X150097598Y-96268708D01*
X154849331Y-96268708D01*
X154849331Y-97640930D01*
G37*
X148687030Y-95039819D02*
X149163220Y-95039819D01*
X149163220Y-95039819D02*
X149163220Y-94039819D01*
X148163220Y-94039819D02*
X147972744Y-94039819D01*
X147972744Y-94039819D02*
X147877506Y-94087438D01*
X147877506Y-94087438D02*
X147782268Y-94182676D01*
X147782268Y-94182676D02*
X147734649Y-94373152D01*
X147734649Y-94373152D02*
X147734649Y-94706485D01*
X147734649Y-94706485D02*
X147782268Y-94896961D01*
X147782268Y-94896961D02*
X147877506Y-94992200D01*
X147877506Y-94992200D02*
X147972744Y-95039819D01*
X147972744Y-95039819D02*
X148163220Y-95039819D01*
X148163220Y-95039819D02*
X148258458Y-94992200D01*
X148258458Y-94992200D02*
X148353696Y-94896961D01*
X148353696Y-94896961D02*
X148401315Y-94706485D01*
X148401315Y-94706485D02*
X148401315Y-94373152D01*
X148401315Y-94373152D02*
X148353696Y-94182676D01*
X148353696Y-94182676D02*
X148258458Y-94087438D01*
X148258458Y-94087438D02*
X148163220Y-94039819D01*
X147353696Y-94754104D02*
X146877506Y-94754104D01*
X147448934Y-95039819D02*
X147115601Y-94039819D01*
X147115601Y-94039819D02*
X146782268Y-95039819D01*
X146448934Y-95039819D02*
X146448934Y-94039819D01*
X146448934Y-94039819D02*
X146210839Y-94039819D01*
X146210839Y-94039819D02*
X146067982Y-94087438D01*
X146067982Y-94087438D02*
X145972744Y-94182676D01*
X145972744Y-94182676D02*
X145925125Y-94277914D01*
X145925125Y-94277914D02*
X145877506Y-94468390D01*
X145877506Y-94468390D02*
X145877506Y-94611247D01*
X145877506Y-94611247D02*
X145925125Y-94801723D01*
X145925125Y-94801723D02*
X145972744Y-94896961D01*
X145972744Y-94896961D02*
X146067982Y-94992200D01*
X146067982Y-94992200D02*
X146210839Y-95039819D01*
X146210839Y-95039819D02*
X146448934Y-95039819D01*
X144115601Y-94944580D02*
X144163220Y-94992200D01*
X144163220Y-94992200D02*
X144306077Y-95039819D01*
X144306077Y-95039819D02*
X144401315Y-95039819D01*
X144401315Y-95039819D02*
X144544172Y-94992200D01*
X144544172Y-94992200D02*
X144639410Y-94896961D01*
X144639410Y-94896961D02*
X144687029Y-94801723D01*
X144687029Y-94801723D02*
X144734648Y-94611247D01*
X144734648Y-94611247D02*
X144734648Y-94468390D01*
X144734648Y-94468390D02*
X144687029Y-94277914D01*
X144687029Y-94277914D02*
X144639410Y-94182676D01*
X144639410Y-94182676D02*
X144544172Y-94087438D01*
X144544172Y-94087438D02*
X144401315Y-94039819D01*
X144401315Y-94039819D02*
X144306077Y-94039819D01*
X144306077Y-94039819D02*
X144163220Y-94087438D01*
X144163220Y-94087438D02*
X144115601Y-94135057D01*
X143687029Y-94516009D02*
X143353696Y-94516009D01*
X143210839Y-95039819D02*
X143687029Y-95039819D01*
X143687029Y-95039819D02*
X143687029Y-94039819D01*
X143687029Y-94039819D02*
X143210839Y-94039819D01*
X142306077Y-95039819D02*
X142782267Y-95039819D01*
X142782267Y-95039819D02*
X142782267Y-94039819D01*
X141496553Y-95039819D02*
X141972743Y-95039819D01*
X141972743Y-95039819D02*
X141972743Y-94039819D01*
X149210839Y-96364048D02*
X148734649Y-96364048D01*
X149306077Y-96649763D02*
X148972744Y-95649763D01*
X148972744Y-95649763D02*
X148639411Y-96649763D01*
X148306077Y-96649763D02*
X148306077Y-95649763D01*
X148306077Y-95649763D02*
X148067982Y-95649763D01*
X148067982Y-95649763D02*
X147925125Y-95697382D01*
X147925125Y-95697382D02*
X147829887Y-95792620D01*
X147829887Y-95792620D02*
X147782268Y-95887858D01*
X147782268Y-95887858D02*
X147734649Y-96078334D01*
X147734649Y-96078334D02*
X147734649Y-96221191D01*
X147734649Y-96221191D02*
X147782268Y-96411667D01*
X147782268Y-96411667D02*
X147829887Y-96506905D01*
X147829887Y-96506905D02*
X147925125Y-96602144D01*
X147925125Y-96602144D02*
X148067982Y-96649763D01*
X148067982Y-96649763D02*
X148306077Y-96649763D01*
X146734649Y-96554524D02*
X146782268Y-96602144D01*
X146782268Y-96602144D02*
X146925125Y-96649763D01*
X146925125Y-96649763D02*
X147020363Y-96649763D01*
X147020363Y-96649763D02*
X147163220Y-96602144D01*
X147163220Y-96602144D02*
X147258458Y-96506905D01*
X147258458Y-96506905D02*
X147306077Y-96411667D01*
X147306077Y-96411667D02*
X147353696Y-96221191D01*
X147353696Y-96221191D02*
X147353696Y-96078334D01*
X147353696Y-96078334D02*
X147306077Y-95887858D01*
X147306077Y-95887858D02*
X147258458Y-95792620D01*
X147258458Y-95792620D02*
X147163220Y-95697382D01*
X147163220Y-95697382D02*
X147020363Y-95649763D01*
X147020363Y-95649763D02*
X146925125Y-95649763D01*
X146925125Y-95649763D02*
X146782268Y-95697382D01*
X146782268Y-95697382D02*
X146734649Y-95745001D01*
X146306077Y-96554524D02*
X146258458Y-96602144D01*
X146258458Y-96602144D02*
X146306077Y-96649763D01*
X146306077Y-96649763D02*
X146353696Y-96602144D01*
X146353696Y-96602144D02*
X146306077Y-96554524D01*
X146306077Y-96554524D02*
X146306077Y-96649763D01*
X146306077Y-96030715D02*
X146258458Y-96078334D01*
X146258458Y-96078334D02*
X146306077Y-96125953D01*
X146306077Y-96125953D02*
X146353696Y-96078334D01*
X146353696Y-96078334D02*
X146306077Y-96030715D01*
X146306077Y-96030715D02*
X146306077Y-96125953D01*
X145115601Y-96364048D02*
X144639411Y-96364048D01*
X145210839Y-96649763D02*
X144877506Y-95649763D01*
X144877506Y-95649763D02*
X144544173Y-96649763D01*
X144210839Y-96649763D02*
X144210839Y-95649763D01*
X144210839Y-95649763D02*
X143972744Y-95649763D01*
X143972744Y-95649763D02*
X143829887Y-95697382D01*
X143829887Y-95697382D02*
X143734649Y-95792620D01*
X143734649Y-95792620D02*
X143687030Y-95887858D01*
X143687030Y-95887858D02*
X143639411Y-96078334D01*
X143639411Y-96078334D02*
X143639411Y-96221191D01*
X143639411Y-96221191D02*
X143687030Y-96411667D01*
X143687030Y-96411667D02*
X143734649Y-96506905D01*
X143734649Y-96506905D02*
X143829887Y-96602144D01*
X143829887Y-96602144D02*
X143972744Y-96649763D01*
X143972744Y-96649763D02*
X144210839Y-96649763D01*
X143258458Y-96602144D02*
X143115601Y-96649763D01*
X143115601Y-96649763D02*
X142877506Y-96649763D01*
X142877506Y-96649763D02*
X142782268Y-96602144D01*
X142782268Y-96602144D02*
X142734649Y-96554524D01*
X142734649Y-96554524D02*
X142687030Y-96459286D01*
X142687030Y-96459286D02*
X142687030Y-96364048D01*
X142687030Y-96364048D02*
X142734649Y-96268810D01*
X142734649Y-96268810D02*
X142782268Y-96221191D01*
X142782268Y-96221191D02*
X142877506Y-96173572D01*
X142877506Y-96173572D02*
X143067982Y-96125953D01*
X143067982Y-96125953D02*
X143163220Y-96078334D01*
X143163220Y-96078334D02*
X143210839Y-96030715D01*
X143210839Y-96030715D02*
X143258458Y-95935477D01*
X143258458Y-95935477D02*
X143258458Y-95840239D01*
X143258458Y-95840239D02*
X143210839Y-95745001D01*
X143210839Y-95745001D02*
X143163220Y-95697382D01*
X143163220Y-95697382D02*
X143067982Y-95649763D01*
X143067982Y-95649763D02*
X142829887Y-95649763D01*
X142829887Y-95649763D02*
X142687030Y-95697382D01*
X141734649Y-96649763D02*
X142306077Y-96649763D01*
X142020363Y-96649763D02*
X142020363Y-95649763D01*
X142020363Y-95649763D02*
X142115601Y-95792620D01*
X142115601Y-95792620D02*
X142210839Y-95887858D01*
X142210839Y-95887858D02*
X142306077Y-95935477D01*
X140782268Y-96649763D02*
X141353696Y-96649763D01*
X141067982Y-96649763D02*
X141067982Y-95649763D01*
X141067982Y-95649763D02*
X141163220Y-95792620D01*
X141163220Y-95792620D02*
X141258458Y-95887858D01*
X141258458Y-95887858D02*
X141353696Y-95935477D01*
X139829887Y-96649763D02*
X140401315Y-96649763D01*
X140115601Y-96649763D02*
X140115601Y-95649763D01*
X140115601Y-95649763D02*
X140210839Y-95792620D01*
X140210839Y-95792620D02*
X140306077Y-95887858D01*
X140306077Y-95887858D02*
X140401315Y-95935477D01*
X138925125Y-95649763D02*
X139401315Y-95649763D01*
X139401315Y-95649763D02*
X139448934Y-96125953D01*
X139448934Y-96125953D02*
X139401315Y-96078334D01*
X139401315Y-96078334D02*
X139306077Y-96030715D01*
X139306077Y-96030715D02*
X139067982Y-96030715D01*
X139067982Y-96030715D02*
X138972744Y-96078334D01*
X138972744Y-96078334D02*
X138925125Y-96125953D01*
X138925125Y-96125953D02*
X138877506Y-96221191D01*
X138877506Y-96221191D02*
X138877506Y-96459286D01*
X138877506Y-96459286D02*
X138925125Y-96554524D01*
X138925125Y-96554524D02*
X138972744Y-96602144D01*
X138972744Y-96602144D02*
X139067982Y-96649763D01*
X139067982Y-96649763D02*
X139306077Y-96649763D01*
X139306077Y-96649763D02*
X139401315Y-96602144D01*
X139401315Y-96602144D02*
X139448934Y-96554524D01*
X148591792Y-98259707D02*
X148925125Y-97783516D01*
X149163220Y-98259707D02*
X149163220Y-97259707D01*
X149163220Y-97259707D02*
X148782268Y-97259707D01*
X148782268Y-97259707D02*
X148687030Y-97307326D01*
X148687030Y-97307326D02*
X148639411Y-97354945D01*
X148639411Y-97354945D02*
X148591792Y-97450183D01*
X148591792Y-97450183D02*
X148591792Y-97593040D01*
X148591792Y-97593040D02*
X148639411Y-97688278D01*
X148639411Y-97688278D02*
X148687030Y-97735897D01*
X148687030Y-97735897D02*
X148782268Y-97783516D01*
X148782268Y-97783516D02*
X149163220Y-97783516D01*
X148163220Y-97735897D02*
X147829887Y-97735897D01*
X147687030Y-98259707D02*
X148163220Y-98259707D01*
X148163220Y-98259707D02*
X148163220Y-97259707D01*
X148163220Y-97259707D02*
X147687030Y-97259707D01*
X146734649Y-97307326D02*
X146829887Y-97259707D01*
X146829887Y-97259707D02*
X146972744Y-97259707D01*
X146972744Y-97259707D02*
X147115601Y-97307326D01*
X147115601Y-97307326D02*
X147210839Y-97402564D01*
X147210839Y-97402564D02*
X147258458Y-97497802D01*
X147258458Y-97497802D02*
X147306077Y-97688278D01*
X147306077Y-97688278D02*
X147306077Y-97831135D01*
X147306077Y-97831135D02*
X147258458Y-98021611D01*
X147258458Y-98021611D02*
X147210839Y-98116849D01*
X147210839Y-98116849D02*
X147115601Y-98212088D01*
X147115601Y-98212088D02*
X146972744Y-98259707D01*
X146972744Y-98259707D02*
X146877506Y-98259707D01*
X146877506Y-98259707D02*
X146734649Y-98212088D01*
X146734649Y-98212088D02*
X146687030Y-98164468D01*
X146687030Y-98164468D02*
X146687030Y-97831135D01*
X146687030Y-97831135D02*
X146877506Y-97831135D01*
X146258458Y-98164468D02*
X146210839Y-98212088D01*
X146210839Y-98212088D02*
X146258458Y-98259707D01*
X146258458Y-98259707D02*
X146306077Y-98212088D01*
X146306077Y-98212088D02*
X146258458Y-98164468D01*
X146258458Y-98164468D02*
X146258458Y-98259707D01*
X146258458Y-97640659D02*
X146210839Y-97688278D01*
X146210839Y-97688278D02*
X146258458Y-97735897D01*
X146258458Y-97735897D02*
X146306077Y-97688278D01*
X146306077Y-97688278D02*
X146258458Y-97640659D01*
X146258458Y-97640659D02*
X146258458Y-97735897D01*
X145163220Y-97259707D02*
X144591792Y-97259707D01*
X144877506Y-98259707D02*
X144877506Y-97259707D01*
X144258458Y-98259707D02*
X144258458Y-97259707D01*
X144258458Y-97259707D02*
X143877506Y-97259707D01*
X143877506Y-97259707D02*
X143782268Y-97307326D01*
X143782268Y-97307326D02*
X143734649Y-97354945D01*
X143734649Y-97354945D02*
X143687030Y-97450183D01*
X143687030Y-97450183D02*
X143687030Y-97593040D01*
X143687030Y-97593040D02*
X143734649Y-97688278D01*
X143734649Y-97688278D02*
X143782268Y-97735897D01*
X143782268Y-97735897D02*
X143877506Y-97783516D01*
X143877506Y-97783516D02*
X144258458Y-97783516D01*
X143306077Y-98212088D02*
X143163220Y-98259707D01*
X143163220Y-98259707D02*
X142925125Y-98259707D01*
X142925125Y-98259707D02*
X142829887Y-98212088D01*
X142829887Y-98212088D02*
X142782268Y-98164468D01*
X142782268Y-98164468D02*
X142734649Y-98069230D01*
X142734649Y-98069230D02*
X142734649Y-97973992D01*
X142734649Y-97973992D02*
X142782268Y-97878754D01*
X142782268Y-97878754D02*
X142829887Y-97831135D01*
X142829887Y-97831135D02*
X142925125Y-97783516D01*
X142925125Y-97783516D02*
X143115601Y-97735897D01*
X143115601Y-97735897D02*
X143210839Y-97688278D01*
X143210839Y-97688278D02*
X143258458Y-97640659D01*
X143258458Y-97640659D02*
X143306077Y-97545421D01*
X143306077Y-97545421D02*
X143306077Y-97450183D01*
X143306077Y-97450183D02*
X143258458Y-97354945D01*
X143258458Y-97354945D02*
X143210839Y-97307326D01*
X143210839Y-97307326D02*
X143115601Y-97259707D01*
X143115601Y-97259707D02*
X142877506Y-97259707D01*
X142877506Y-97259707D02*
X142734649Y-97307326D01*
X142401315Y-97259707D02*
X141734649Y-97259707D01*
X141734649Y-97259707D02*
X142163220Y-98259707D01*
X141306077Y-98259707D02*
X141115601Y-98259707D01*
X141115601Y-98259707D02*
X141020363Y-98212088D01*
X141020363Y-98212088D02*
X140972744Y-98164468D01*
X140972744Y-98164468D02*
X140877506Y-98021611D01*
X140877506Y-98021611D02*
X140829887Y-97831135D01*
X140829887Y-97831135D02*
X140829887Y-97450183D01*
X140829887Y-97450183D02*
X140877506Y-97354945D01*
X140877506Y-97354945D02*
X140925125Y-97307326D01*
X140925125Y-97307326D02*
X141020363Y-97259707D01*
X141020363Y-97259707D02*
X141210839Y-97259707D01*
X141210839Y-97259707D02*
X141306077Y-97307326D01*
X141306077Y-97307326D02*
X141353696Y-97354945D01*
X141353696Y-97354945D02*
X141401315Y-97450183D01*
X141401315Y-97450183D02*
X141401315Y-97688278D01*
X141401315Y-97688278D02*
X141353696Y-97783516D01*
X141353696Y-97783516D02*
X141306077Y-97831135D01*
X141306077Y-97831135D02*
X141210839Y-97878754D01*
X141210839Y-97878754D02*
X141020363Y-97878754D01*
X141020363Y-97878754D02*
X140925125Y-97831135D01*
X140925125Y-97831135D02*
X140877506Y-97783516D01*
X140877506Y-97783516D02*
X140829887Y-97688278D01*
X140496553Y-97259707D02*
X139877506Y-97259707D01*
X139877506Y-97259707D02*
X140210839Y-97640659D01*
X140210839Y-97640659D02*
X140067982Y-97640659D01*
X140067982Y-97640659D02*
X139972744Y-97688278D01*
X139972744Y-97688278D02*
X139925125Y-97735897D01*
X139925125Y-97735897D02*
X139877506Y-97831135D01*
X139877506Y-97831135D02*
X139877506Y-98069230D01*
X139877506Y-98069230D02*
X139925125Y-98164468D01*
X139925125Y-98164468D02*
X139972744Y-98212088D01*
X139972744Y-98212088D02*
X140067982Y-98259707D01*
X140067982Y-98259707D02*
X140353696Y-98259707D01*
X140353696Y-98259707D02*
X140448934Y-98212088D01*
X140448934Y-98212088D02*
X140496553Y-98164468D01*
X148591792Y-99869651D02*
X148925125Y-99393460D01*
X149163220Y-99869651D02*
X149163220Y-98869651D01*
X149163220Y-98869651D02*
X148782268Y-98869651D01*
X148782268Y-98869651D02*
X148687030Y-98917270D01*
X148687030Y-98917270D02*
X148639411Y-98964889D01*
X148639411Y-98964889D02*
X148591792Y-99060127D01*
X148591792Y-99060127D02*
X148591792Y-99202984D01*
X148591792Y-99202984D02*
X148639411Y-99298222D01*
X148639411Y-99298222D02*
X148687030Y-99345841D01*
X148687030Y-99345841D02*
X148782268Y-99393460D01*
X148782268Y-99393460D02*
X149163220Y-99393460D01*
X148163220Y-99345841D02*
X147829887Y-99345841D01*
X147687030Y-99869651D02*
X148163220Y-99869651D01*
X148163220Y-99869651D02*
X148163220Y-98869651D01*
X148163220Y-98869651D02*
X147687030Y-98869651D01*
X147401315Y-98869651D02*
X147067982Y-99869651D01*
X147067982Y-99869651D02*
X146734649Y-98869651D01*
X145687029Y-99583936D02*
X145210839Y-99583936D01*
X145782267Y-99869651D02*
X145448934Y-98869651D01*
X145448934Y-98869651D02*
X145115601Y-99869651D01*
X149306077Y-100479595D02*
X148734649Y-100479595D01*
X149020363Y-101479595D02*
X149020363Y-100479595D01*
X148401315Y-101384356D02*
X148353696Y-101431976D01*
X148353696Y-101431976D02*
X148401315Y-101479595D01*
X148401315Y-101479595D02*
X148448934Y-101431976D01*
X148448934Y-101431976D02*
X148401315Y-101384356D01*
X148401315Y-101384356D02*
X148401315Y-101479595D01*
X148020363Y-100479595D02*
X147782268Y-101479595D01*
X147782268Y-101479595D02*
X147591792Y-100765309D01*
X147591792Y-100765309D02*
X147401316Y-101479595D01*
X147401316Y-101479595D02*
X147163221Y-100479595D01*
X146782268Y-100479595D02*
X146782268Y-101289118D01*
X146782268Y-101289118D02*
X146734649Y-101384356D01*
X146734649Y-101384356D02*
X146687030Y-101431976D01*
X146687030Y-101431976D02*
X146591792Y-101479595D01*
X146591792Y-101479595D02*
X146401316Y-101479595D01*
X146401316Y-101479595D02*
X146306078Y-101431976D01*
X146306078Y-101431976D02*
X146258459Y-101384356D01*
X146258459Y-101384356D02*
X146210840Y-101289118D01*
X146210840Y-101289118D02*
X146210840Y-100479595D01*
X149619048Y-106954819D02*
X149619048Y-107669104D01*
X149619048Y-107669104D02*
X149666667Y-107811961D01*
X149666667Y-107811961D02*
X149761905Y-107907200D01*
X149761905Y-107907200D02*
X149904762Y-107954819D01*
X149904762Y-107954819D02*
X150000000Y-107954819D01*
X148666667Y-107954819D02*
X149142857Y-107954819D01*
X149142857Y-107954819D02*
X149142857Y-106954819D01*
X147761905Y-107859580D02*
X147809524Y-107907200D01*
X147809524Y-107907200D02*
X147952381Y-107954819D01*
X147952381Y-107954819D02*
X148047619Y-107954819D01*
X148047619Y-107954819D02*
X148190476Y-107907200D01*
X148190476Y-107907200D02*
X148285714Y-107811961D01*
X148285714Y-107811961D02*
X148333333Y-107716723D01*
X148333333Y-107716723D02*
X148380952Y-107526247D01*
X148380952Y-107526247D02*
X148380952Y-107383390D01*
X148380952Y-107383390D02*
X148333333Y-107192914D01*
X148333333Y-107192914D02*
X148285714Y-107097676D01*
X148285714Y-107097676D02*
X148190476Y-107002438D01*
X148190476Y-107002438D02*
X148047619Y-106954819D01*
X148047619Y-106954819D02*
X147952381Y-106954819D01*
X147952381Y-106954819D02*
X147809524Y-107002438D01*
X147809524Y-107002438D02*
X147761905Y-107050057D01*
X147047619Y-106954819D02*
X147047619Y-107669104D01*
X147047619Y-107669104D02*
X147095238Y-107811961D01*
X147095238Y-107811961D02*
X147190476Y-107907200D01*
X147190476Y-107907200D02*
X147333333Y-107954819D01*
X147333333Y-107954819D02*
X147428571Y-107954819D01*
X146095238Y-107954819D02*
X146571428Y-107954819D01*
X146571428Y-107954819D02*
X146571428Y-106954819D01*
X145190476Y-107859580D02*
X145238095Y-107907200D01*
X145238095Y-107907200D02*
X145380952Y-107954819D01*
X145380952Y-107954819D02*
X145476190Y-107954819D01*
X145476190Y-107954819D02*
X145619047Y-107907200D01*
X145619047Y-107907200D02*
X145714285Y-107811961D01*
X145714285Y-107811961D02*
X145761904Y-107716723D01*
X145761904Y-107716723D02*
X145809523Y-107526247D01*
X145809523Y-107526247D02*
X145809523Y-107383390D01*
X145809523Y-107383390D02*
X145761904Y-107192914D01*
X145761904Y-107192914D02*
X145714285Y-107097676D01*
X145714285Y-107097676D02*
X145619047Y-107002438D01*
X145619047Y-107002438D02*
X145476190Y-106954819D01*
X145476190Y-106954819D02*
X145380952Y-106954819D01*
X145380952Y-106954819D02*
X145238095Y-107002438D01*
X145238095Y-107002438D02*
X145190476Y-107050057D01*
X144476190Y-106954819D02*
X144476190Y-107669104D01*
X144476190Y-107669104D02*
X144523809Y-107811961D01*
X144523809Y-107811961D02*
X144619047Y-107907200D01*
X144619047Y-107907200D02*
X144761904Y-107954819D01*
X144761904Y-107954819D02*
X144857142Y-107954819D01*
X143523809Y-107954819D02*
X143999999Y-107954819D01*
X143999999Y-107954819D02*
X143999999Y-106954819D01*
X142619047Y-107859580D02*
X142666666Y-107907200D01*
X142666666Y-107907200D02*
X142809523Y-107954819D01*
X142809523Y-107954819D02*
X142904761Y-107954819D01*
X142904761Y-107954819D02*
X143047618Y-107907200D01*
X143047618Y-107907200D02*
X143142856Y-107811961D01*
X143142856Y-107811961D02*
X143190475Y-107716723D01*
X143190475Y-107716723D02*
X143238094Y-107526247D01*
X143238094Y-107526247D02*
X143238094Y-107383390D01*
X143238094Y-107383390D02*
X143190475Y-107192914D01*
X143190475Y-107192914D02*
X143142856Y-107097676D01*
X143142856Y-107097676D02*
X143047618Y-107002438D01*
X143047618Y-107002438D02*
X142904761Y-106954819D01*
X142904761Y-106954819D02*
X142809523Y-106954819D01*
X142809523Y-106954819D02*
X142666666Y-107002438D01*
X142666666Y-107002438D02*
X142619047Y-107050057D01*
X141904761Y-106954819D02*
X141904761Y-107669104D01*
X141904761Y-107669104D02*
X141952380Y-107811961D01*
X141952380Y-107811961D02*
X142047618Y-107907200D01*
X142047618Y-107907200D02*
X142190475Y-107954819D01*
X142190475Y-107954819D02*
X142285713Y-107954819D01*
X140952380Y-107954819D02*
X141428570Y-107954819D01*
X141428570Y-107954819D02*
X141428570Y-106954819D01*
X140047618Y-107859580D02*
X140095237Y-107907200D01*
X140095237Y-107907200D02*
X140238094Y-107954819D01*
X140238094Y-107954819D02*
X140333332Y-107954819D01*
X140333332Y-107954819D02*
X140476189Y-107907200D01*
X140476189Y-107907200D02*
X140571427Y-107811961D01*
X140571427Y-107811961D02*
X140619046Y-107716723D01*
X140619046Y-107716723D02*
X140666665Y-107526247D01*
X140666665Y-107526247D02*
X140666665Y-107383390D01*
X140666665Y-107383390D02*
X140619046Y-107192914D01*
X140619046Y-107192914D02*
X140571427Y-107097676D01*
X140571427Y-107097676D02*
X140476189Y-107002438D01*
X140476189Y-107002438D02*
X140333332Y-106954819D01*
X140333332Y-106954819D02*
X140238094Y-106954819D01*
X140238094Y-106954819D02*
X140095237Y-107002438D01*
X140095237Y-107002438D02*
X140047618Y-107050057D01*
%LPC*%
D11*
%TO.C,H3*%
X158000000Y-108000000D03*
%TD*%
%TO.C,H2*%
X158000000Y-92000000D03*
%TD*%
%TO.C,H1*%
X136000000Y-108000000D03*
%TD*%
D12*
%TO.C,J1*%
X156450000Y-103000000D03*
D13*
X156450000Y-101000000D03*
X156450000Y-99000000D03*
X156450000Y-97000000D03*
%TD*%
D14*
%TO.C,J2*%
X133550000Y-95000000D03*
D13*
X133550000Y-97000000D03*
X133550000Y-99000000D03*
X133550000Y-101000000D03*
X133550000Y-103000000D03*
X133550000Y-105000000D03*
%TD*%
%LPD*%
M02*
