%TF.GenerationSoftware,KiCad,Pcbnew,8.0.1*%
%TF.CreationDate,2024-04-17T01:28:12-04:00*%
%TF.ProjectId,ads1115_board,61647331-3131-4355-9f62-6f6172642e6b,rev?*%
%TF.SameCoordinates,Original*%
%TF.FileFunction,Paste,Top*%
%TF.FilePolarity,Positive*%
%FSLAX46Y46*%
G04 Gerber Fmt 4.6, Leading zero omitted, Abs format (unit mm)*
G04 Created by KiCad (PCBNEW 8.0.1) date 2024-04-17 01:28:12*
%MOMM*%
%LPD*%
G01*
G04 APERTURE LIST*
G04 Aperture macros list*
%AMRoundRect*
0 Rectangle with rounded corners*
0 $1 Rounding radius*
0 $2 $3 $4 $5 $6 $7 $8 $9 X,Y pos of 4 corners*
0 Add a 4 corners polygon primitive as box body*
4,1,4,$2,$3,$4,$5,$6,$7,$8,$9,$2,$3,0*
0 Add four circle primitives for the rounded corners*
1,1,$1+$1,$2,$3*
1,1,$1+$1,$4,$5*
1,1,$1+$1,$6,$7*
1,1,$1+$1,$8,$9*
0 Add four rect primitives between the rounded corners*
20,1,$1+$1,$2,$3,$4,$5,0*
20,1,$1+$1,$4,$5,$6,$7,0*
20,1,$1+$1,$6,$7,$8,$9,0*
20,1,$1+$1,$8,$9,$2,$3,0*%
G04 Aperture macros list end*
%ADD10RoundRect,0.225000X-0.225000X-0.250000X0.225000X-0.250000X0.225000X0.250000X-0.225000X0.250000X0*%
%ADD11RoundRect,0.135000X0.135000X0.185000X-0.135000X0.185000X-0.135000X-0.185000X0.135000X-0.185000X0*%
%ADD12RoundRect,0.140000X0.140000X0.170000X-0.140000X0.170000X-0.140000X-0.170000X0.140000X-0.170000X0*%
%ADD13RoundRect,0.140000X-0.140000X-0.170000X0.140000X-0.170000X0.140000X0.170000X-0.140000X0.170000X0*%
%ADD14RoundRect,0.140000X0.170000X-0.140000X0.170000X0.140000X-0.170000X0.140000X-0.170000X-0.140000X0*%
%ADD15RoundRect,0.135000X-0.135000X-0.185000X0.135000X-0.185000X0.135000X0.185000X-0.135000X0.185000X0*%
%ADD16RoundRect,0.150000X-0.512500X-0.150000X0.512500X-0.150000X0.512500X0.150000X-0.512500X0.150000X0*%
%ADD17R,1.100000X0.250000*%
G04 APERTURE END LIST*
D10*
%TO.C,C4*%
X144225000Y-102000000D03*
X145775000Y-102000000D03*
%TD*%
D11*
%TO.C,R4*%
X153010000Y-98500000D03*
X151990000Y-98500000D03*
%TD*%
%TO.C,R2*%
X146510000Y-105500000D03*
X145490000Y-105500000D03*
%TD*%
D12*
%TO.C,C3*%
X146480000Y-103500000D03*
X145520000Y-103500000D03*
%TD*%
D13*
%TO.C,C1*%
X138520000Y-97000000D03*
X139480000Y-97000000D03*
%TD*%
D11*
%TO.C,R5*%
X140510000Y-99500000D03*
X139490000Y-99500000D03*
%TD*%
%TO.C,R1*%
X146510000Y-104500000D03*
X145490000Y-104500000D03*
%TD*%
D14*
%TO.C,C5*%
X152000000Y-100480000D03*
X152000000Y-99520000D03*
%TD*%
D15*
%TO.C,R6*%
X138490000Y-98000000D03*
X139510000Y-98000000D03*
%TD*%
D14*
%TO.C,C7*%
X151000000Y-102480000D03*
X151000000Y-101520000D03*
%TD*%
D11*
%TO.C,R7*%
X143990000Y-99500000D03*
X145010000Y-99500000D03*
%TD*%
D14*
%TO.C,C6*%
X151000000Y-98480000D03*
X151000000Y-97520000D03*
%TD*%
D13*
%TO.C,C2*%
X144980000Y-107000000D03*
X144020000Y-107000000D03*
%TD*%
D12*
%TO.C,C8*%
X139480000Y-103500000D03*
X138520000Y-103500000D03*
%TD*%
D16*
%TO.C,U2*%
X141362500Y-103550000D03*
X141362500Y-104500000D03*
X141362500Y-105450000D03*
X143637500Y-105450000D03*
X143637500Y-104500000D03*
X143637500Y-103550000D03*
%TD*%
D17*
%TO.C,U1*%
X145650000Y-98000000D03*
X145650000Y-97500000D03*
X145650000Y-97000000D03*
X145650000Y-96500000D03*
X145650000Y-96000000D03*
X141350000Y-96000000D03*
X141350000Y-96500000D03*
X141350000Y-97000000D03*
X141350000Y-97500000D03*
X141350000Y-98000000D03*
%TD*%
D15*
%TO.C,R3*%
X151990000Y-101500000D03*
X153010000Y-101500000D03*
%TD*%
M02*
